<?xml version="1.0" encoding="utf-8" standalone="no"?>
<!DOCTYPE svg PUBLIC "-//W3C//DTD SVG 1.1//EN"
  "http://www.w3.org/Graphics/SVG/1.1/DTD/svg11.dtd">
<svg xmlns:xlink="http://www.w3.org/1999/xlink" width="460.8pt" height="345.6pt" viewBox="0 0 460.8 345.6" xmlns="http://www.w3.org/2000/svg" version="1.1">
 <metadata>
  <rdf:RDF xmlns:dc="http://purl.org/dc/elements/1.1/" xmlns:cc="http://creativecommons.org/ns#" xmlns:rdf="http://www.w3.org/1999/02/22-rdf-syntax-ns#">
   <cc:Work>
    <dc:type rdf:resource="http://purl.org/dc/dcmitype/StillImage"/>
    <dc:date>2023-06-28T16:30:33.491353</dc:date>
    <dc:format>image/svg+xml</dc:format>
    <dc:creator>
     <cc:Agent>
      <dc:title>Matplotlib v3.6.2, https://matplotlib.org/</dc:title>
     </cc:Agent>
    </dc:creator>
   </cc:Work>
  </rdf:RDF>
 </metadata>
 <defs>
  <style type="text/css">*{stroke-linejoin: round; stroke-linecap: butt}</style>
 </defs>
 <g id="figure_1">
  <g id="patch_1">
   <path d="M 0 345.6 
L 460.8 345.6 
L 460.8 0 
L 0 0 
z
" style="fill: #ffffff"/>
  </g>
  <g id="axes_1">
   <g id="patch_2">
    <path d="M 57.6 307.584 
L 414.72 307.584 
L 414.72 41.472 
L 57.6 41.472 
z
" style="fill: #ffffff"/>
   </g>
   <g id="matplotlib.axis_1">
    <g id="xtick_1">
     <g id="line2d_1">
      <defs>
       <path id="m53b0ceef5f" d="M 0 0 
L 0 3.5 
" style="stroke: #000000; stroke-width: 0.8"/>
      </defs>
      <g>
       <use xlink:href="#m53b0ceef5f" x="73.832727" y="307.584" style="stroke: #000000; stroke-width: 0.8"/>
      </g>
     </g>
     <g id="text_1">
      <!-- 0 -->
      <g transform="translate(70.651477 322.182437) scale(0.1 -0.1)">
       <defs>
        <path id="DejaVuSans-30" d="M 2034 4250 
Q 1547 4250 1301 3770 
Q 1056 3291 1056 2328 
Q 1056 1369 1301 889 
Q 1547 409 2034 409 
Q 2525 409 2770 889 
Q 3016 1369 3016 2328 
Q 3016 3291 2770 3770 
Q 2525 4250 2034 4250 
z
M 2034 4750 
Q 2819 4750 3233 4129 
Q 3647 3509 3647 2328 
Q 3647 1150 3233 529 
Q 2819 -91 2034 -91 
Q 1250 -91 836 529 
Q 422 1150 422 2328 
Q 422 3509 836 4129 
Q 1250 4750 2034 4750 
z
" transform="scale(0.015625)"/>
       </defs>
       <use xlink:href="#DejaVuSans-30"/>
      </g>
     </g>
    </g>
    <g id="xtick_2">
     <g id="line2d_2">
      <g>
       <use xlink:href="#m53b0ceef5f" x="114.465336" y="307.584" style="stroke: #000000; stroke-width: 0.8"/>
      </g>
     </g>
     <g id="text_2">
      <!-- 100 -->
      <g transform="translate(104.921586 322.182437) scale(0.1 -0.1)">
       <defs>
        <path id="DejaVuSans-31" d="M 794 531 
L 1825 531 
L 1825 4091 
L 703 3866 
L 703 4441 
L 1819 4666 
L 2450 4666 
L 2450 531 
L 3481 531 
L 3481 0 
L 794 0 
L 794 531 
z
" transform="scale(0.015625)"/>
       </defs>
       <use xlink:href="#DejaVuSans-31"/>
       <use xlink:href="#DejaVuSans-30" x="63.623047"/>
       <use xlink:href="#DejaVuSans-30" x="127.246094"/>
      </g>
     </g>
    </g>
    <g id="xtick_3">
     <g id="line2d_3">
      <g>
       <use xlink:href="#m53b0ceef5f" x="155.097945" y="307.584" style="stroke: #000000; stroke-width: 0.8"/>
      </g>
     </g>
     <g id="text_3">
      <!-- 200 -->
      <g transform="translate(145.554195 322.182437) scale(0.1 -0.1)">
       <defs>
        <path id="DejaVuSans-32" d="M 1228 531 
L 3431 531 
L 3431 0 
L 469 0 
L 469 531 
Q 828 903 1448 1529 
Q 2069 2156 2228 2338 
Q 2531 2678 2651 2914 
Q 2772 3150 2772 3378 
Q 2772 3750 2511 3984 
Q 2250 4219 1831 4219 
Q 1534 4219 1204 4116 
Q 875 4013 500 3803 
L 500 4441 
Q 881 4594 1212 4672 
Q 1544 4750 1819 4750 
Q 2544 4750 2975 4387 
Q 3406 4025 3406 3419 
Q 3406 3131 3298 2873 
Q 3191 2616 2906 2266 
Q 2828 2175 2409 1742 
Q 1991 1309 1228 531 
z
" transform="scale(0.015625)"/>
       </defs>
       <use xlink:href="#DejaVuSans-32"/>
       <use xlink:href="#DejaVuSans-30" x="63.623047"/>
       <use xlink:href="#DejaVuSans-30" x="127.246094"/>
      </g>
     </g>
    </g>
    <g id="xtick_4">
     <g id="line2d_4">
      <g>
       <use xlink:href="#m53b0ceef5f" x="195.730554" y="307.584" style="stroke: #000000; stroke-width: 0.8"/>
      </g>
     </g>
     <g id="text_4">
      <!-- 300 -->
      <g transform="translate(186.186804 322.182437) scale(0.1 -0.1)">
       <defs>
        <path id="DejaVuSans-33" d="M 2597 2516 
Q 3050 2419 3304 2112 
Q 3559 1806 3559 1356 
Q 3559 666 3084 287 
Q 2609 -91 1734 -91 
Q 1441 -91 1130 -33 
Q 819 25 488 141 
L 488 750 
Q 750 597 1062 519 
Q 1375 441 1716 441 
Q 2309 441 2620 675 
Q 2931 909 2931 1356 
Q 2931 1769 2642 2001 
Q 2353 2234 1838 2234 
L 1294 2234 
L 1294 2753 
L 1863 2753 
Q 2328 2753 2575 2939 
Q 2822 3125 2822 3475 
Q 2822 3834 2567 4026 
Q 2313 4219 1838 4219 
Q 1578 4219 1281 4162 
Q 984 4106 628 3988 
L 628 4550 
Q 988 4650 1302 4700 
Q 1616 4750 1894 4750 
Q 2613 4750 3031 4423 
Q 3450 4097 3450 3541 
Q 3450 3153 3228 2886 
Q 3006 2619 2597 2516 
z
" transform="scale(0.015625)"/>
       </defs>
       <use xlink:href="#DejaVuSans-33"/>
       <use xlink:href="#DejaVuSans-30" x="63.623047"/>
       <use xlink:href="#DejaVuSans-30" x="127.246094"/>
      </g>
     </g>
    </g>
    <g id="xtick_5">
     <g id="line2d_5">
      <g>
       <use xlink:href="#m53b0ceef5f" x="236.363163" y="307.584" style="stroke: #000000; stroke-width: 0.8"/>
      </g>
     </g>
     <g id="text_5">
      <!-- 400 -->
      <g transform="translate(226.819413 322.182437) scale(0.1 -0.1)">
       <defs>
        <path id="DejaVuSans-34" d="M 2419 4116 
L 825 1625 
L 2419 1625 
L 2419 4116 
z
M 2253 4666 
L 3047 4666 
L 3047 1625 
L 3713 1625 
L 3713 1100 
L 3047 1100 
L 3047 0 
L 2419 0 
L 2419 1100 
L 313 1100 
L 313 1709 
L 2253 4666 
z
" transform="scale(0.015625)"/>
       </defs>
       <use xlink:href="#DejaVuSans-34"/>
       <use xlink:href="#DejaVuSans-30" x="63.623047"/>
       <use xlink:href="#DejaVuSans-30" x="127.246094"/>
      </g>
     </g>
    </g>
    <g id="xtick_6">
     <g id="line2d_6">
      <g>
       <use xlink:href="#m53b0ceef5f" x="276.995772" y="307.584" style="stroke: #000000; stroke-width: 0.8"/>
      </g>
     </g>
     <g id="text_6">
      <!-- 500 -->
      <g transform="translate(267.452022 322.182437) scale(0.1 -0.1)">
       <defs>
        <path id="DejaVuSans-35" d="M 691 4666 
L 3169 4666 
L 3169 4134 
L 1269 4134 
L 1269 2991 
Q 1406 3038 1543 3061 
Q 1681 3084 1819 3084 
Q 2600 3084 3056 2656 
Q 3513 2228 3513 1497 
Q 3513 744 3044 326 
Q 2575 -91 1722 -91 
Q 1428 -91 1123 -41 
Q 819 9 494 109 
L 494 744 
Q 775 591 1075 516 
Q 1375 441 1709 441 
Q 2250 441 2565 725 
Q 2881 1009 2881 1497 
Q 2881 1984 2565 2268 
Q 2250 2553 1709 2553 
Q 1456 2553 1204 2497 
Q 953 2441 691 2322 
L 691 4666 
z
" transform="scale(0.015625)"/>
       </defs>
       <use xlink:href="#DejaVuSans-35"/>
       <use xlink:href="#DejaVuSans-30" x="63.623047"/>
       <use xlink:href="#DejaVuSans-30" x="127.246094"/>
      </g>
     </g>
    </g>
    <g id="xtick_7">
     <g id="line2d_7">
      <g>
       <use xlink:href="#m53b0ceef5f" x="317.628381" y="307.584" style="stroke: #000000; stroke-width: 0.8"/>
      </g>
     </g>
     <g id="text_7">
      <!-- 600 -->
      <g transform="translate(308.084631 322.182437) scale(0.1 -0.1)">
       <defs>
        <path id="DejaVuSans-36" d="M 2113 2584 
Q 1688 2584 1439 2293 
Q 1191 2003 1191 1497 
Q 1191 994 1439 701 
Q 1688 409 2113 409 
Q 2538 409 2786 701 
Q 3034 994 3034 1497 
Q 3034 2003 2786 2293 
Q 2538 2584 2113 2584 
z
M 3366 4563 
L 3366 3988 
Q 3128 4100 2886 4159 
Q 2644 4219 2406 4219 
Q 1781 4219 1451 3797 
Q 1122 3375 1075 2522 
Q 1259 2794 1537 2939 
Q 1816 3084 2150 3084 
Q 2853 3084 3261 2657 
Q 3669 2231 3669 1497 
Q 3669 778 3244 343 
Q 2819 -91 2113 -91 
Q 1303 -91 875 529 
Q 447 1150 447 2328 
Q 447 3434 972 4092 
Q 1497 4750 2381 4750 
Q 2619 4750 2861 4703 
Q 3103 4656 3366 4563 
z
" transform="scale(0.015625)"/>
       </defs>
       <use xlink:href="#DejaVuSans-36"/>
       <use xlink:href="#DejaVuSans-30" x="63.623047"/>
       <use xlink:href="#DejaVuSans-30" x="127.246094"/>
      </g>
     </g>
    </g>
    <g id="xtick_8">
     <g id="line2d_8">
      <g>
       <use xlink:href="#m53b0ceef5f" x="358.26099" y="307.584" style="stroke: #000000; stroke-width: 0.8"/>
      </g>
     </g>
     <g id="text_8">
      <!-- 700 -->
      <g transform="translate(348.71724 322.182437) scale(0.1 -0.1)">
       <defs>
        <path id="DejaVuSans-37" d="M 525 4666 
L 3525 4666 
L 3525 4397 
L 1831 0 
L 1172 0 
L 2766 4134 
L 525 4134 
L 525 4666 
z
" transform="scale(0.015625)"/>
       </defs>
       <use xlink:href="#DejaVuSans-37"/>
       <use xlink:href="#DejaVuSans-30" x="63.623047"/>
       <use xlink:href="#DejaVuSans-30" x="127.246094"/>
      </g>
     </g>
    </g>
    <g id="xtick_9">
     <g id="line2d_9">
      <g>
       <use xlink:href="#m53b0ceef5f" x="398.893599" y="307.584" style="stroke: #000000; stroke-width: 0.8"/>
      </g>
     </g>
     <g id="text_9">
      <!-- 800 -->
      <g transform="translate(389.349849 322.182437) scale(0.1 -0.1)">
       <defs>
        <path id="DejaVuSans-38" d="M 2034 2216 
Q 1584 2216 1326 1975 
Q 1069 1734 1069 1313 
Q 1069 891 1326 650 
Q 1584 409 2034 409 
Q 2484 409 2743 651 
Q 3003 894 3003 1313 
Q 3003 1734 2745 1975 
Q 2488 2216 2034 2216 
z
M 1403 2484 
Q 997 2584 770 2862 
Q 544 3141 544 3541 
Q 544 4100 942 4425 
Q 1341 4750 2034 4750 
Q 2731 4750 3128 4425 
Q 3525 4100 3525 3541 
Q 3525 3141 3298 2862 
Q 3072 2584 2669 2484 
Q 3125 2378 3379 2068 
Q 3634 1759 3634 1313 
Q 3634 634 3220 271 
Q 2806 -91 2034 -91 
Q 1263 -91 848 271 
Q 434 634 434 1313 
Q 434 1759 690 2068 
Q 947 2378 1403 2484 
z
M 1172 3481 
Q 1172 3119 1398 2916 
Q 1625 2713 2034 2713 
Q 2441 2713 2670 2916 
Q 2900 3119 2900 3481 
Q 2900 3844 2670 4047 
Q 2441 4250 2034 4250 
Q 1625 4250 1398 4047 
Q 1172 3844 1172 3481 
z
" transform="scale(0.015625)"/>
       </defs>
       <use xlink:href="#DejaVuSans-38"/>
       <use xlink:href="#DejaVuSans-30" x="63.623047"/>
       <use xlink:href="#DejaVuSans-30" x="127.246094"/>
      </g>
     </g>
    </g>
    <g id="text_10">
     <!-- Epoch -->
     <g transform="translate(220.849063 335.860562) scale(0.1 -0.1)">
      <defs>
       <path id="DejaVuSans-45" d="M 628 4666 
L 3578 4666 
L 3578 4134 
L 1259 4134 
L 1259 2753 
L 3481 2753 
L 3481 2222 
L 1259 2222 
L 1259 531 
L 3634 531 
L 3634 0 
L 628 0 
L 628 4666 
z
" transform="scale(0.015625)"/>
       <path id="DejaVuSans-70" d="M 1159 525 
L 1159 -1331 
L 581 -1331 
L 581 3500 
L 1159 3500 
L 1159 2969 
Q 1341 3281 1617 3432 
Q 1894 3584 2278 3584 
Q 2916 3584 3314 3078 
Q 3713 2572 3713 1747 
Q 3713 922 3314 415 
Q 2916 -91 2278 -91 
Q 1894 -91 1617 61 
Q 1341 213 1159 525 
z
M 3116 1747 
Q 3116 2381 2855 2742 
Q 2594 3103 2138 3103 
Q 1681 3103 1420 2742 
Q 1159 2381 1159 1747 
Q 1159 1113 1420 752 
Q 1681 391 2138 391 
Q 2594 391 2855 752 
Q 3116 1113 3116 1747 
z
" transform="scale(0.015625)"/>
       <path id="DejaVuSans-6f" d="M 1959 3097 
Q 1497 3097 1228 2736 
Q 959 2375 959 1747 
Q 959 1119 1226 758 
Q 1494 397 1959 397 
Q 2419 397 2687 759 
Q 2956 1122 2956 1747 
Q 2956 2369 2687 2733 
Q 2419 3097 1959 3097 
z
M 1959 3584 
Q 2709 3584 3137 3096 
Q 3566 2609 3566 1747 
Q 3566 888 3137 398 
Q 2709 -91 1959 -91 
Q 1206 -91 779 398 
Q 353 888 353 1747 
Q 353 2609 779 3096 
Q 1206 3584 1959 3584 
z
" transform="scale(0.015625)"/>
       <path id="DejaVuSans-63" d="M 3122 3366 
L 3122 2828 
Q 2878 2963 2633 3030 
Q 2388 3097 2138 3097 
Q 1578 3097 1268 2742 
Q 959 2388 959 1747 
Q 959 1106 1268 751 
Q 1578 397 2138 397 
Q 2388 397 2633 464 
Q 2878 531 3122 666 
L 3122 134 
Q 2881 22 2623 -34 
Q 2366 -91 2075 -91 
Q 1284 -91 818 406 
Q 353 903 353 1747 
Q 353 2603 823 3093 
Q 1294 3584 2113 3584 
Q 2378 3584 2631 3529 
Q 2884 3475 3122 3366 
z
" transform="scale(0.015625)"/>
       <path id="DejaVuSans-68" d="M 3513 2113 
L 3513 0 
L 2938 0 
L 2938 2094 
Q 2938 2591 2744 2837 
Q 2550 3084 2163 3084 
Q 1697 3084 1428 2787 
Q 1159 2491 1159 1978 
L 1159 0 
L 581 0 
L 581 4863 
L 1159 4863 
L 1159 2956 
Q 1366 3272 1645 3428 
Q 1925 3584 2291 3584 
Q 2894 3584 3203 3211 
Q 3513 2838 3513 2113 
z
" transform="scale(0.015625)"/>
      </defs>
      <use xlink:href="#DejaVuSans-45"/>
      <use xlink:href="#DejaVuSans-70" x="63.183594"/>
      <use xlink:href="#DejaVuSans-6f" x="126.660156"/>
      <use xlink:href="#DejaVuSans-63" x="187.841797"/>
      <use xlink:href="#DejaVuSans-68" x="242.822266"/>
     </g>
    </g>
   </g>
   <g id="matplotlib.axis_2">
    <g id="ytick_1">
     <g id="line2d_10">
      <defs>
       <path id="m9634d6d972" d="M 0 0 
L -3.5 0 
" style="stroke: #000000; stroke-width: 0.8"/>
      </defs>
      <g>
       <use xlink:href="#m9634d6d972" x="57.6" y="301.037063" style="stroke: #000000; stroke-width: 0.8"/>
      </g>
     </g>
     <g id="text_11">
      <!-- 0.494 -->
      <g transform="translate(21.971875 304.836282) scale(0.1 -0.1)">
       <defs>
        <path id="DejaVuSans-2e" d="M 684 794 
L 1344 794 
L 1344 0 
L 684 0 
L 684 794 
z
" transform="scale(0.015625)"/>
        <path id="DejaVuSans-39" d="M 703 97 
L 703 672 
Q 941 559 1184 500 
Q 1428 441 1663 441 
Q 2288 441 2617 861 
Q 2947 1281 2994 2138 
Q 2813 1869 2534 1725 
Q 2256 1581 1919 1581 
Q 1219 1581 811 2004 
Q 403 2428 403 3163 
Q 403 3881 828 4315 
Q 1253 4750 1959 4750 
Q 2769 4750 3195 4129 
Q 3622 3509 3622 2328 
Q 3622 1225 3098 567 
Q 2575 -91 1691 -91 
Q 1453 -91 1209 -44 
Q 966 3 703 97 
z
M 1959 2075 
Q 2384 2075 2632 2365 
Q 2881 2656 2881 3163 
Q 2881 3666 2632 3958 
Q 2384 4250 1959 4250 
Q 1534 4250 1286 3958 
Q 1038 3666 1038 3163 
Q 1038 2656 1286 2365 
Q 1534 2075 1959 2075 
z
" transform="scale(0.015625)"/>
       </defs>
       <use xlink:href="#DejaVuSans-30"/>
       <use xlink:href="#DejaVuSans-2e" x="63.623047"/>
       <use xlink:href="#DejaVuSans-34" x="95.410156"/>
       <use xlink:href="#DejaVuSans-39" x="159.033203"/>
       <use xlink:href="#DejaVuSans-34" x="222.65625"/>
      </g>
     </g>
    </g>
    <g id="ytick_2">
     <g id="line2d_11">
      <g>
       <use xlink:href="#m9634d6d972" x="57.6" y="250.416974" style="stroke: #000000; stroke-width: 0.8"/>
      </g>
     </g>
     <g id="text_12">
      <!-- 0.496 -->
      <g transform="translate(21.971875 254.216193) scale(0.1 -0.1)">
       <use xlink:href="#DejaVuSans-30"/>
       <use xlink:href="#DejaVuSans-2e" x="63.623047"/>
       <use xlink:href="#DejaVuSans-34" x="95.410156"/>
       <use xlink:href="#DejaVuSans-39" x="159.033203"/>
       <use xlink:href="#DejaVuSans-36" x="222.65625"/>
      </g>
     </g>
    </g>
    <g id="ytick_3">
     <g id="line2d_12">
      <g>
       <use xlink:href="#m9634d6d972" x="57.6" y="199.796884" style="stroke: #000000; stroke-width: 0.8"/>
      </g>
     </g>
     <g id="text_13">
      <!-- 0.498 -->
      <g transform="translate(21.971875 203.596103) scale(0.1 -0.1)">
       <use xlink:href="#DejaVuSans-30"/>
       <use xlink:href="#DejaVuSans-2e" x="63.623047"/>
       <use xlink:href="#DejaVuSans-34" x="95.410156"/>
       <use xlink:href="#DejaVuSans-39" x="159.033203"/>
       <use xlink:href="#DejaVuSans-38" x="222.65625"/>
      </g>
     </g>
    </g>
    <g id="ytick_4">
     <g id="line2d_13">
      <g>
       <use xlink:href="#m9634d6d972" x="57.6" y="149.176795" style="stroke: #000000; stroke-width: 0.8"/>
      </g>
     </g>
     <g id="text_14">
      <!-- 0.500 -->
      <g transform="translate(21.971875 152.976013) scale(0.1 -0.1)">
       <use xlink:href="#DejaVuSans-30"/>
       <use xlink:href="#DejaVuSans-2e" x="63.623047"/>
       <use xlink:href="#DejaVuSans-35" x="95.410156"/>
       <use xlink:href="#DejaVuSans-30" x="159.033203"/>
       <use xlink:href="#DejaVuSans-30" x="222.65625"/>
      </g>
     </g>
    </g>
    <g id="ytick_5">
     <g id="line2d_14">
      <g>
       <use xlink:href="#m9634d6d972" x="57.6" y="98.556705" style="stroke: #000000; stroke-width: 0.8"/>
      </g>
     </g>
     <g id="text_15">
      <!-- 0.502 -->
      <g transform="translate(21.971875 102.355924) scale(0.1 -0.1)">
       <use xlink:href="#DejaVuSans-30"/>
       <use xlink:href="#DejaVuSans-2e" x="63.623047"/>
       <use xlink:href="#DejaVuSans-35" x="95.410156"/>
       <use xlink:href="#DejaVuSans-30" x="159.033203"/>
       <use xlink:href="#DejaVuSans-32" x="222.65625"/>
      </g>
     </g>
    </g>
    <g id="ytick_6">
     <g id="line2d_15">
      <g>
       <use xlink:href="#m9634d6d972" x="57.6" y="47.936615" style="stroke: #000000; stroke-width: 0.8"/>
      </g>
     </g>
     <g id="text_16">
      <!-- 0.504 -->
      <g transform="translate(21.971875 51.735834) scale(0.1 -0.1)">
       <use xlink:href="#DejaVuSans-30"/>
       <use xlink:href="#DejaVuSans-2e" x="63.623047"/>
       <use xlink:href="#DejaVuSans-35" x="95.410156"/>
       <use xlink:href="#DejaVuSans-30" x="159.033203"/>
       <use xlink:href="#DejaVuSans-34" x="222.65625"/>
      </g>
     </g>
    </g>
    <g id="text_17">
     <!-- Balanced accuracy -->
     <g transform="translate(15.892187 221.792844) rotate(-90) scale(0.1 -0.1)">
      <defs>
       <path id="DejaVuSans-42" d="M 1259 2228 
L 1259 519 
L 2272 519 
Q 2781 519 3026 730 
Q 3272 941 3272 1375 
Q 3272 1813 3026 2020 
Q 2781 2228 2272 2228 
L 1259 2228 
z
M 1259 4147 
L 1259 2741 
L 2194 2741 
Q 2656 2741 2882 2914 
Q 3109 3088 3109 3444 
Q 3109 3797 2882 3972 
Q 2656 4147 2194 4147 
L 1259 4147 
z
M 628 4666 
L 2241 4666 
Q 2963 4666 3353 4366 
Q 3744 4066 3744 3513 
Q 3744 3084 3544 2831 
Q 3344 2578 2956 2516 
Q 3422 2416 3680 2098 
Q 3938 1781 3938 1306 
Q 3938 681 3513 340 
Q 3088 0 2303 0 
L 628 0 
L 628 4666 
z
" transform="scale(0.015625)"/>
       <path id="DejaVuSans-61" d="M 2194 1759 
Q 1497 1759 1228 1600 
Q 959 1441 959 1056 
Q 959 750 1161 570 
Q 1363 391 1709 391 
Q 2188 391 2477 730 
Q 2766 1069 2766 1631 
L 2766 1759 
L 2194 1759 
z
M 3341 1997 
L 3341 0 
L 2766 0 
L 2766 531 
Q 2569 213 2275 61 
Q 1981 -91 1556 -91 
Q 1019 -91 701 211 
Q 384 513 384 1019 
Q 384 1609 779 1909 
Q 1175 2209 1959 2209 
L 2766 2209 
L 2766 2266 
Q 2766 2663 2505 2880 
Q 2244 3097 1772 3097 
Q 1472 3097 1187 3025 
Q 903 2953 641 2809 
L 641 3341 
Q 956 3463 1253 3523 
Q 1550 3584 1831 3584 
Q 2591 3584 2966 3190 
Q 3341 2797 3341 1997 
z
" transform="scale(0.015625)"/>
       <path id="DejaVuSans-6c" d="M 603 4863 
L 1178 4863 
L 1178 0 
L 603 0 
L 603 4863 
z
" transform="scale(0.015625)"/>
       <path id="DejaVuSans-6e" d="M 3513 2113 
L 3513 0 
L 2938 0 
L 2938 2094 
Q 2938 2591 2744 2837 
Q 2550 3084 2163 3084 
Q 1697 3084 1428 2787 
Q 1159 2491 1159 1978 
L 1159 0 
L 581 0 
L 581 3500 
L 1159 3500 
L 1159 2956 
Q 1366 3272 1645 3428 
Q 1925 3584 2291 3584 
Q 2894 3584 3203 3211 
Q 3513 2838 3513 2113 
z
" transform="scale(0.015625)"/>
       <path id="DejaVuSans-65" d="M 3597 1894 
L 3597 1613 
L 953 1613 
Q 991 1019 1311 708 
Q 1631 397 2203 397 
Q 2534 397 2845 478 
Q 3156 559 3463 722 
L 3463 178 
Q 3153 47 2828 -22 
Q 2503 -91 2169 -91 
Q 1331 -91 842 396 
Q 353 884 353 1716 
Q 353 2575 817 3079 
Q 1281 3584 2069 3584 
Q 2775 3584 3186 3129 
Q 3597 2675 3597 1894 
z
M 3022 2063 
Q 3016 2534 2758 2815 
Q 2500 3097 2075 3097 
Q 1594 3097 1305 2825 
Q 1016 2553 972 2059 
L 3022 2063 
z
" transform="scale(0.015625)"/>
       <path id="DejaVuSans-64" d="M 2906 2969 
L 2906 4863 
L 3481 4863 
L 3481 0 
L 2906 0 
L 2906 525 
Q 2725 213 2448 61 
Q 2172 -91 1784 -91 
Q 1150 -91 751 415 
Q 353 922 353 1747 
Q 353 2572 751 3078 
Q 1150 3584 1784 3584 
Q 2172 3584 2448 3432 
Q 2725 3281 2906 2969 
z
M 947 1747 
Q 947 1113 1208 752 
Q 1469 391 1925 391 
Q 2381 391 2643 752 
Q 2906 1113 2906 1747 
Q 2906 2381 2643 2742 
Q 2381 3103 1925 3103 
Q 1469 3103 1208 2742 
Q 947 2381 947 1747 
z
" transform="scale(0.015625)"/>
       <path id="DejaVuSans-20" transform="scale(0.015625)"/>
       <path id="DejaVuSans-75" d="M 544 1381 
L 544 3500 
L 1119 3500 
L 1119 1403 
Q 1119 906 1312 657 
Q 1506 409 1894 409 
Q 2359 409 2629 706 
Q 2900 1003 2900 1516 
L 2900 3500 
L 3475 3500 
L 3475 0 
L 2900 0 
L 2900 538 
Q 2691 219 2414 64 
Q 2138 -91 1772 -91 
Q 1169 -91 856 284 
Q 544 659 544 1381 
z
M 1991 3584 
L 1991 3584 
z
" transform="scale(0.015625)"/>
       <path id="DejaVuSans-72" d="M 2631 2963 
Q 2534 3019 2420 3045 
Q 2306 3072 2169 3072 
Q 1681 3072 1420 2755 
Q 1159 2438 1159 1844 
L 1159 0 
L 581 0 
L 581 3500 
L 1159 3500 
L 1159 2956 
Q 1341 3275 1631 3429 
Q 1922 3584 2338 3584 
Q 2397 3584 2469 3576 
Q 2541 3569 2628 3553 
L 2631 2963 
z
" transform="scale(0.015625)"/>
       <path id="DejaVuSans-79" d="M 2059 -325 
Q 1816 -950 1584 -1140 
Q 1353 -1331 966 -1331 
L 506 -1331 
L 506 -850 
L 844 -850 
Q 1081 -850 1212 -737 
Q 1344 -625 1503 -206 
L 1606 56 
L 191 3500 
L 800 3500 
L 1894 763 
L 2988 3500 
L 3597 3500 
L 2059 -325 
z
" transform="scale(0.015625)"/>
      </defs>
      <use xlink:href="#DejaVuSans-42"/>
      <use xlink:href="#DejaVuSans-61" x="68.603516"/>
      <use xlink:href="#DejaVuSans-6c" x="129.882812"/>
      <use xlink:href="#DejaVuSans-61" x="157.666016"/>
      <use xlink:href="#DejaVuSans-6e" x="218.945312"/>
      <use xlink:href="#DejaVuSans-63" x="282.324219"/>
      <use xlink:href="#DejaVuSans-65" x="337.304688"/>
      <use xlink:href="#DejaVuSans-64" x="398.828125"/>
      <use xlink:href="#DejaVuSans-20" x="462.304688"/>
      <use xlink:href="#DejaVuSans-61" x="494.091797"/>
      <use xlink:href="#DejaVuSans-63" x="555.371094"/>
      <use xlink:href="#DejaVuSans-63" x="610.351562"/>
      <use xlink:href="#DejaVuSans-75" x="665.332031"/>
      <use xlink:href="#DejaVuSans-72" x="728.710938"/>
      <use xlink:href="#DejaVuSans-61" x="769.824219"/>
      <use xlink:href="#DejaVuSans-63" x="831.103516"/>
      <use xlink:href="#DejaVuSans-79" x="886.083984"/>
     </g>
    </g>
   </g>
   <g id="line2d_16">
    <path d="M 73.832727 53.568 
L 74.239053 106.43072 
L 74.645379 122.313222 
L 75.051706 246.779199 
L 75.458032 209.265691 
L 75.864358 231.282899 
L 76.270684 89.312679 
L 76.67701 54.396219 
L 77.083336 160.385665 
L 77.489662 153.841374 
L 77.895988 153.397093 
L 78.302314 173.473491 
L 78.70864 151.156827 
L 79.114966 119.211548 
L 79.521293 124.66814 
L 79.927619 158.722437 
L 80.333945 167.608069 
L 80.740271 160.314006 
L 81.146597 143.854467 
L 81.552923 168.667858 
L 81.959249 127.421328 
L 82.365575 166.095701 
L 82.771901 161.17466 
L 83.178227 126.113375 
L 83.584553 154.570026 
L 83.99088 159.859919 
L 84.397206 149.623339 
L 84.803532 145.30272 
L 85.209858 156.694884 
L 85.616184 135.140815 
L 86.02251 144.383984 
L 86.428836 141.694157 
L 86.835162 152.260365 
L 87.241488 156.637557 
L 87.647814 157.786353 
L 88.05414 135.979595 
L 88.460466 151.493998 
L 88.866793 154.342228 
L 89.273119 138.521579 
L 89.679445 164.148858 
L 90.085771 159.99343 
L 90.492097 147.414754 
L 90.898423 150.425912 
L 91.304749 151.136461 
L 91.711075 154.683925 
L 92.117401 148.493401 
L 92.523727 148.991237 
L 92.930053 150.508131 
L 93.33638 130.357057 
L 94.149032 157.536681 
L 94.555358 154.227575 
L 94.961684 153.420476 
L 95.36801 153.347309 
L 95.774336 141.187269 
L 96.180662 146.757006 
L 96.586988 145.145826 
L 96.993314 146.889763 
L 97.39964 161.924433 
L 97.805967 151.308441 
L 98.212293 146.1943 
L 98.618619 142.994567 
L 99.024945 162.338542 
L 99.431271 146.168654 
L 99.837597 138.414469 
L 100.650249 154.183826 
L 101.056575 147.049674 
L 101.462901 143.122798 
L 101.869227 152.343338 
L 102.275554 152.349373 
L 103.088206 146.636319 
L 103.494532 146.772092 
L 103.900858 145.014578 
L 104.307184 154.284147 
L 104.71351 143.756408 
L 105.119836 147.986512 
L 105.526162 145.213712 
L 105.932488 149.950705 
L 106.338814 152.543981 
L 106.745141 157.272676 
L 107.151467 148.847921 
L 107.557793 149.369141 
L 107.964119 147.725525 
L 108.370445 149.962773 
L 108.776771 154.545889 
L 109.183097 147.116052 
L 109.589423 153.538146 
L 109.995749 149.158692 
L 110.402075 143.293269 
L 110.808401 149.84284 
L 111.214728 153.946222 
L 112.02738 147.037605 
L 112.433706 147.618415 
L 113.246358 152.44366 
L 113.652684 146.809807 
L 114.05901 152.906045 
L 114.465336 152.933199 
L 114.871662 154.759355 
L 115.277988 149.161709 
L 115.684314 149.861697 
L 116.090641 147.239757 
L 116.496967 143.58292 
L 116.903293 149.265048 
L 117.309619 148.727233 
L 117.715945 144.472992 
L 118.122271 151.845501 
L 118.528597 150.99239 
L 118.934923 152.095928 
L 119.341249 150.20792 
L 119.747575 159.463158 
L 120.153901 149.143606 
L 120.560228 153.216815 
L 120.966554 150.714809 
L 121.37288 147.463029 
L 121.779206 143.223874 
L 122.185532 148.964083 
L 122.591858 149.51472 
L 122.998184 146.064561 
L 123.40451 154.954718 
L 123.810836 147.542985 
L 124.217162 151.695396 
L 124.623488 149.273345 
L 125.029815 149.701032 
L 125.436141 148.312369 
L 125.842467 148.54771 
L 126.248793 149.715364 
L 126.655119 148.671415 
L 127.061445 148.442108 
L 127.874097 144.87277 
L 128.280423 149.125502 
L 128.686749 148.918825 
L 129.093075 150.045746 
L 129.499402 148.356118 
L 129.905728 149.974842 
L 130.312054 153.223604 
L 130.71838 148.464737 
L 131.124706 149.473988 
L 131.531032 149.495108 
L 131.937358 148.576373 
L 132.343684 151.444969 
L 132.75001 148.037805 
L 133.156336 150.023871 
L 133.562662 152.753676 
L 133.968989 145.417373 
L 134.375315 148.636717 
L 134.781641 149.640688 
L 135.187967 147.947289 
L 135.594293 149.163217 
L 136.000619 151.658435 
L 136.813271 148.099657 
L 137.219597 152.25584 
L 137.625923 148.867532 
L 138.032249 148.769474 
L 138.438575 149.287676 
L 138.844902 149.062141 
L 139.251228 148.232413 
L 139.657554 150.339168 
L 140.06388 147.95634 
L 140.470206 153.056904 
L 140.876532 147.22618 
L 141.282858 143.763951 
L 141.689184 145.799048 
L 142.09551 146.591061 
L 142.501836 147.918625 
L 142.908162 145.803573 
L 143.314489 151.33107 
L 143.720815 154.493088 
L 144.127141 148.061942 
L 144.533467 148.811714 
L 144.939793 148.896196 
L 145.346119 148.47228 
L 145.752445 149.197915 
L 146.158771 148.863007 
L 146.565097 153.281685 
L 146.971423 147.915608 
L 147.377749 148.56883 
L 147.784076 142.587246 
L 148.190402 150.511902 
L 149.003054 144.886347 
L 149.40938 150.493045 
L 149.815706 148.457194 
L 150.222032 148.202241 
L 150.628358 148.158492 
L 151.034684 152.423294 
L 151.44101 150.668796 
L 151.847336 149.808896 
L 152.253663 149.851137 
L 152.659989 151.354453 
L 153.066315 148.80568 
L 153.472641 148.508487 
L 153.878967 149.010849 
L 154.285293 147.840178 
L 154.691619 150.81513 
L 155.097945 148.369696 
L 155.504271 150.938835 
L 155.910597 148.264094 
L 156.316923 147.822075 
L 156.72325 151.042174 
L 157.129576 147.17187 
L 157.535902 149.698769 
L 157.942228 146.026846 
L 158.348554 147.788886 
L 158.75488 148.324438 
L 159.161206 152.520598 
L 159.567532 148.983694 
L 160.380184 148.918825 
L 160.78651 148.970117 
L 161.192837 146.689119 
L 161.599163 149.110416 
L 162.005489 148.595985 
L 162.411815 149.012358 
L 162.818141 151.065557 
L 163.224467 148.947488 
L 163.630793 148.611071 
L 164.037119 152.312412 
L 164.443445 150.791747 
L 164.849771 148.534133 
L 165.256097 147.939746 
L 165.662423 150.321065 
L 166.06875 151.098746 
L 166.475076 148.847921 
L 167.694054 149.059124 
L 168.10038 149.48304 
L 168.506706 148.79512 
L 168.913032 149.361598 
L 169.319358 149.26203 
L 170.13201 148.858481 
L 170.538337 151.433655 
L 170.944663 147.793412 
L 171.350989 149.024426 
L 171.757315 145.219747 
L 172.163641 145.298194 
L 172.569967 145.233324 
L 172.976293 147.544494 
L 173.382619 148.876584 
L 173.788945 146.98933 
L 174.195271 148.383273 
L 174.601597 158.301539 
L 175.007924 148.69857 
L 175.41425 148.473789 
L 175.820576 144.70079 
L 176.226902 146.434167 
L 176.633228 143.976663 
L 177.039554 150.557915 
L 177.44588 151.756494 
L 177.852206 150.042729 
L 178.258532 150.023871 
L 178.664858 151.934509 
L 179.071184 151.319001 
L 179.477511 148.786068 
L 179.883837 148.706113 
L 180.290163 149.127011 
L 180.696489 148.102674 
L 181.102815 151.031614 
L 181.509141 148.662363 
L 181.915467 148.953522 
L 182.321793 148.831326 
L 182.728119 149.123994 
L 183.134445 152.839666 
L 183.540771 148.688009 
L 183.947098 149.50944 
L 184.75975 148.89167 
L 185.166076 148.853955 
L 185.572402 148.469263 
L 185.978728 148.315386 
L 186.385054 146.738903 
L 186.79138 149.265802 
L 187.197706 148.080045 
L 187.604032 148.001598 
L 188.010358 148.878093 
L 188.416684 147.713456 
L 188.823011 147.01045 
L 189.635663 152.242262 
L 190.041989 148.908265 
L 190.448315 148.13888 
L 190.854641 148.443617 
L 191.260967 151.173422 
L 191.667293 148.422497 
L 192.073619 149.724415 
L 192.479945 148.437583 
L 192.886271 147.567122 
L 193.292598 150.088741 
L 193.698924 147.995564 
L 194.10525 148.786068 
L 194.511576 148.947488 
L 194.917902 147.820567 
L 195.324228 148.506978 
L 195.730554 149.461919 
L 196.13688 149.770427 
L 196.543206 151.137215 
L 196.949532 148.90223 
L 197.355858 148.878093 
L 197.762185 149.244681 
L 198.168511 149.072702 
L 198.574837 148.678958 
L 198.981163 151.322773 
L 199.387489 149.307288 
L 199.793815 148.875075 
L 200.200141 149.360843 
L 200.606467 149.069684 
L 201.012793 149.030461 
L 201.419119 149.194144 
L 201.825445 148.948997 
L 202.231772 149.062141 
L 202.638098 148.721199 
L 203.044424 151.425357 
L 203.45075 149.25675 
L 203.857076 149.345003 
L 205.076054 148.606545 
L 205.48238 155.411823 
L 205.888706 149.14964 
L 206.295032 149.291448 
L 206.701359 149.169252 
L 207.107685 149.217527 
L 207.920337 148.712147 
L 208.732989 147.517339 
L 209.139315 151.839467 
L 209.545641 149.187355 
L 209.951967 151.139478 
L 210.358293 148.97766 
L 211.577272 148.958048 
L 211.983598 148.899213 
L 212.389924 150.676339 
L 212.79625 148.514521 
L 213.202576 153.645257 
L 213.608902 148.055908 
L 214.015228 150.686145 
L 214.421554 148.614088 
L 214.82788 148.458703 
L 215.234206 150.105336 
L 215.640532 148.333489 
L 216.046859 148.140389 
L 216.453185 149.962019 
L 216.859511 149.098348 
L 217.265837 144.673635 
L 217.672163 152.632989 
L 218.078489 148.778525 
L 218.484815 149.48832 
L 218.891141 148.617105 
L 219.297467 150.038957 
L 219.703793 142.777329 
L 220.110119 152.464026 
L 220.516446 152.838158 
L 220.922772 148.18263 
L 221.329098 149.131537 
L 221.735424 152.21209 
L 222.14175 144.812426 
L 222.548076 146.413046 
L 222.954402 149.671614 
L 223.360728 150.057815 
L 223.767054 148.773999 
L 224.17338 149.771182 
L 224.579706 149.584116 
L 224.986033 150.233566 
L 225.392359 153.857969 
L 225.798685 148.755896 
L 226.205011 152.407453 
L 226.611337 148.277671 
L 227.017663 147.991038 
L 227.423989 150.803061 
L 227.830315 148.411936 
L 228.236641 148.73025 
L 228.642967 148.001598 
L 229.049293 153.105179 
L 229.45562 146.772092 
L 229.861946 152.348618 
L 230.268272 148.48284 
L 230.674598 148.114743 
L 231.080924 150.811359 
L 231.48725 146.915409 
L 231.893576 147.364971 
L 232.299902 149.684437 
L 232.706228 148.061942 
L 233.112554 144.278383 
L 233.51888 156.969448 
L 233.925207 146.855065 
L 234.331533 149.913744 
L 234.737859 147.34385 
L 235.144185 146.7208 
L 235.550511 144.693247 
L 235.956837 151.009739 
L 236.363163 150.486256 
L 236.769489 147.485658 
L 237.175815 150.430438 
L 237.582141 148.485858 
L 237.988467 148.217327 
L 238.394793 147.103983 
L 238.80112 142.971938 
L 239.207446 150.102318 
L 239.613772 149.50416 
L 240.020098 147.748154 
L 240.426424 148.770982 
L 240.83275 153.962816 
L 241.239076 148.888653 
L 241.645402 151.663716 
L 242.051728 148.665381 
L 242.458054 154.317336 
L 242.86438 148.992746 
L 243.270707 149.09533 
L 244.489685 149.077227 
L 244.896011 148.724216 
L 245.708663 149.081753 
L 246.927641 148.834343 
L 247.333967 148.70913 
L 248.552946 149.039512 
L 249.365598 148.807189 
L 249.771924 149.107399 
L 250.17825 152.602062 
L 250.584576 149.038004 
L 250.990902 149.066667 
L 251.397228 148.778525 
L 251.803554 149.031969 
L 252.209881 148.632191 
L 252.616207 148.689518 
L 253.022533 148.218836 
L 253.428859 152.679755 
L 254.241511 147.42984 
L 254.647837 149.692735 
L 255.054163 150.231303 
L 255.460489 149.133045 
L 255.866815 154.454619 
L 256.273141 149.288431 
L 256.679468 148.959557 
L 257.085794 148.875075 
L 257.49212 150.86944 
L 257.898446 149.273345 
L 258.304772 148.935419 
L 258.711098 149.32162 
L 259.930076 149.310305 
L 260.336402 148.992746 
L 260.742728 148.866024 
L 261.149054 149.260522 
L 261.555381 149.335952 
L 261.961707 149.092313 
L 262.368033 149.166234 
L 262.774359 148.834343 
L 263.180685 149.155674 
L 263.587011 148.897704 
L 265.618641 149.110416 
L 266.024968 148.878093 
L 266.431294 149.189618 
L 266.83762 148.894687 
L 267.243946 148.976151 
L 267.650272 148.597494 
L 268.056598 152.682018 
L 268.462924 149.155674 
L 268.86925 149.312568 
L 269.275576 148.790594 
L 269.681902 148.597494 
L 270.088228 151.404991 
L 270.494555 149.075719 
L 270.900881 149.659545 
L 271.307207 149.12852 
L 271.713533 149.503406 
L 272.119859 148.974643 
L 272.526185 151.149284 
L 272.932511 149.207721 
L 273.338837 149.24091 
L 273.745163 148.834343 
L 274.151489 149.163217 
L 274.964142 149.086279 
L 275.370468 151.2398 
L 275.776794 149.071193 
L 276.18312 148.964083 
L 276.589446 149.078736 
L 277.402098 148.48284 
L 277.808424 152.424048 
L 278.21475 148.71969 
L 278.621076 148.905247 
L 279.027402 147.87035 
L 279.433729 147.877893 
L 279.840055 140.443531 
L 280.246381 148.777017 
L 280.652707 148.989729 
L 281.059033 148.48284 
L 281.465359 148.621631 
L 281.871685 151.161353 
L 282.278011 151.380854 
L 282.684337 148.745336 
L 283.090663 152.500986 
L 283.496989 148.433057 
L 283.903316 154.493842 
L 284.309642 155.791235 
L 284.715968 149.027444 
L 285.122294 149.591659 
L 285.52862 148.864515 
L 285.934946 148.684992 
L 286.341272 148.968608 
L 286.747598 149.093822 
L 287.153924 152.267908 
L 287.56025 149.075719 
L 287.966576 149.019901 
L 288.372902 149.381964 
L 288.779229 149.062141 
L 289.185555 148.003107 
L 289.591881 149.12852 
L 289.998207 149.254487 
L 290.404533 149.241664 
L 290.810859 148.823783 
L 291.623511 149.104382 
L 292.029837 148.873567 
L 292.436163 149.134554 
L 292.842489 149.167743 
L 293.655142 149.051581 
L 294.061468 149.120977 
L 294.467794 149.038004 
L 294.87412 149.145114 
L 295.280446 149.062141 
L 295.686772 149.562995 
L 296.093098 148.99878 
L 296.499424 148.885636 
L 297.312076 149.197915 
L 297.718403 149.083262 
L 298.124729 148.808697 
L 298.531055 149.034987 
L 299.750033 149.07421 
L 300.156359 148.688009 
L 300.562685 148.852446 
L 300.969011 148.271637 
L 301.375337 148.55827 
L 301.781663 148.161509 
L 302.18799 151.386134 
L 302.594316 148.555253 
L 303.000642 148.703095 
L 303.406968 148.715164 
L 303.813294 148.043839 
L 304.21962 149.819457 
L 304.625946 148.45116 
L 305.032272 153.127054 
L 305.438598 152.071791 
L 305.844924 149.34274 
L 306.25125 150.020854 
L 306.657577 148.962574 
L 307.063903 151.572445 
L 307.470229 149.125502 
L 307.876555 151.096483 
L 308.282881 148.778525 
L 308.689207 148.582408 
L 309.095533 148.624648 
L 309.501859 149.028952 
L 309.908185 148.513012 
L 310.314511 157.023004 
L 310.720837 147.328764 
L 311.127163 149.8534 
L 311.53349 145.67836 
L 311.939816 145.450562 
L 312.346142 146.766058 
L 312.752468 155.57098 
L 313.158794 150.750261 
L 313.56512 148.500944 
L 313.971446 148.926368 
L 314.377772 148.627666 
L 314.784098 148.828309 
L 315.190424 148.838869 
L 315.59675 151.32051 
L 316.003077 150.923749 
L 316.409403 151.09422 
L 316.815729 150.232812 
L 317.222055 148.787577 
L 317.628381 148.917316 
L 318.034707 149.774953 
L 318.441033 148.80568 
L 318.847359 148.701587 
L 319.253685 149.947687 
L 319.660011 148.556762 
L 320.87899 151.209628 
L 321.285316 148.678958 
L 321.691642 154.149128 
L 322.097968 148.859989 
L 322.91062 149.098348 
L 323.723272 148.659346 
L 324.129598 151.735374 
L 324.535924 148.767965 
L 324.942251 148.466246 
L 325.348577 146.885237 
L 325.754903 149.642197 
L 326.161229 150.751769 
L 326.567555 148.134355 
L 326.973881 146.402486 
L 327.380207 148.577882 
L 327.786533 152.792146 
L 328.192859 148.120777 
L 328.599185 150.647676 
L 329.005511 149.839068 
L 329.411838 148.410428 
L 329.818164 151.258657 
L 330.22449 150.001997 
L 330.630816 148.238448 
L 331.037142 149.373666 
L 331.443468 144.438294 
L 331.849794 149.840577 
L 332.25612 146.797738 
L 332.662446 148.040822 
L 333.068772 147.600312 
L 333.475098 148.351593 
L 333.881425 148.277671 
L 334.694077 141.740924 
L 335.100403 142.033592 
L 335.506729 147.88091 
L 335.913055 146.669508 
L 336.319381 146.201843 
L 336.725707 150.456084 
L 337.132033 148.706113 
L 337.538359 148.921842 
L 337.944685 147.831127 
L 338.351011 147.720999 
L 338.757338 147.037605 
L 339.163664 151.957892 
L 339.976316 146.31197 
L 340.382642 151.171159 
L 340.788968 151.533222 
L 341.195294 148.389307 
L 341.60162 149.044038 
L 342.007946 148.905247 
L 342.414272 148.313878 
L 343.226925 148.372713 
L 343.633251 147.641044 
L 344.039577 148.25806 
L 344.445903 148.152458 
L 344.852229 148.428531 
L 345.258555 150.665025 
L 345.664881 147.980478 
L 346.071207 151.537748 
L 346.477533 150.530005 
L 346.883859 148.657838 
L 347.290185 152.744625 
L 347.696512 148.971626 
L 348.102838 149.086279 
L 348.91549 148.838869 
L 349.321816 149.179812 
L 349.728142 149.127011 
L 350.134468 148.570339 
L 350.540794 148.629174 
L 350.94712 149.05309 
L 351.353446 146.89278 
L 351.759772 147.917117 
L 352.166099 151.285058 
L 352.572425 152.740853 
L 352.978751 148.677449 
L 353.791403 148.879601 
L 354.197729 148.660855 
L 354.604055 148.932402 
L 355.010381 148.718181 
L 355.416707 148.27918 
L 355.823033 154.009583 
L 356.229359 148.927876 
L 356.635686 149.218281 
L 357.448338 148.9671 
L 358.26099 148.724216 
L 359.073642 149.131537 
L 359.886294 148.936928 
L 360.29262 148.91279 
L 360.698946 148.706113 
L 361.105272 152.54549 
L 361.511599 149.21979 
L 361.917925 149.151149 
L 362.324251 148.91279 
L 363.136903 148.894687 
L 363.543229 149.382718 
L 364.762207 148.861498 
L 365.168533 149.56375 
L 365.574859 148.986712 
L 368.419142 149.176795 
L 368.825468 151.269972 
L 369.63812 148.88111 
L 370.044446 148.847921 
L 370.450773 148.487366 
L 370.857099 151.451758 
L 371.263425 148.724216 
L 371.669751 148.048365 
L 372.076077 151.273743 
L 372.482403 148.728742 
L 372.888729 151.996361 
L 373.295055 148.89167 
L 374.107707 149.208475 
L 374.92036 148.936928 
L 375.326686 149.195652 
L 375.733012 149.033478 
L 376.139338 149.166234 
L 376.545664 148.979169 
L 377.358316 149.152657 
L 377.764642 148.758914 
L 378.170968 148.801154 
L 378.577294 149.620322 
L 378.98362 149.033478 
L 379.389947 149.703295 
L 380.202599 149.050073 
L 380.608925 149.110416 
L 381.015251 149.054598 
L 381.421577 149.14964 
L 381.827903 148.95654 
L 382.234229 149.125502 
L 382.640555 148.875075 
L 383.046881 148.968608 
L 383.453207 148.067976 
L 383.859534 138.326971 
L 384.26586 149.490583 
L 384.672186 148.262585 
L 385.078512 150.069129 
L 385.484838 144.424717 
L 385.891164 152.52965 
L 386.29749 149.158692 
L 386.703816 149.04253 
L 387.110142 149.338969 
L 387.516468 149.158692 
L 387.922794 149.345757 
L 388.32912 152.381053 
L 388.735447 149.021409 
L 389.141773 149.336706 
L 389.548099 149.123994 
L 389.954425 149.260522 
L 390.360751 148.941454 
L 390.767077 149.166234 
L 391.173403 148.970117 
L 391.579729 149.208475 
L 392.392381 149.08477 
L 392.798707 149.260522 
L 393.205034 148.896196 
L 394.017686 149.04253 
L 395.236664 148.656329 
L 395.64299 150.63259 
L 396.049316 151.70143 
L 396.455642 148.91279 
L 397.268294 148.89167 
L 397.674621 148.319912 
L 398.080947 148.013667 
L 398.487273 148.457194 
L 398.487273 148.457194 
" clip-path="url(#p7f594156fb)" style="fill: none; stroke: #1f77b4; stroke-width: 1.5; stroke-linecap: square"/>
   </g>
   <g id="line2d_17">
    <path d="M 73.832727 151.775352 
L 74.239053 295.488 
L 74.645379 230.484097 
L 75.051706 114.646536 
L 75.458032 128.358167 
L 76.67701 148.404393 
L 77.083336 149.177549 
L 96.586988 149.175286 
L 125.436141 149.173777 
L 132.75001 149.179812 
L 142.908162 149.176795 
L 157.535902 149.175286 
L 169.725684 149.177549 
L 189.635663 149.177549 
L 248.959272 149.177549 
L 277.808424 149.179812 
L 285.52862 149.175286 
L 295.686772 149.177549 
L 324.942251 149.179812 
L 335.100403 149.173777 
L 347.290185 149.179812 
L 357.448338 149.175286 
L 398.487273 149.176795 
L 398.487273 149.176795 
" clip-path="url(#p7f594156fb)" style="fill: none; stroke: #ff7f0e; stroke-width: 1.5; stroke-linecap: square"/>
   </g>
   <g id="patch_3">
    <path d="M 57.6 307.584 
L 57.6 41.472 
" style="fill: none; stroke: #000000; stroke-width: 0.8; stroke-linejoin: miter; stroke-linecap: square"/>
   </g>
   <g id="patch_4">
    <path d="M 414.72 307.584 
L 414.72 41.472 
" style="fill: none; stroke: #000000; stroke-width: 0.8; stroke-linejoin: miter; stroke-linecap: square"/>
   </g>
   <g id="patch_5">
    <path d="M 57.6 307.584 
L 414.72 307.584 
" style="fill: none; stroke: #000000; stroke-width: 0.8; stroke-linejoin: miter; stroke-linecap: square"/>
   </g>
   <g id="patch_6">
    <path d="M 57.6 41.472 
L 414.72 41.472 
" style="fill: none; stroke: #000000; stroke-width: 0.8; stroke-linejoin: miter; stroke-linecap: square"/>
   </g>
   <g id="text_18">
    <!-- Model balanced accuracy -->
    <g transform="translate(159.826875 35.472) scale(0.12 -0.12)">
     <defs>
      <path id="DejaVuSans-4d" d="M 628 4666 
L 1569 4666 
L 2759 1491 
L 3956 4666 
L 4897 4666 
L 4897 0 
L 4281 0 
L 4281 4097 
L 3078 897 
L 2444 897 
L 1241 4097 
L 1241 0 
L 628 0 
L 628 4666 
z
" transform="scale(0.015625)"/>
      <path id="DejaVuSans-62" d="M 3116 1747 
Q 3116 2381 2855 2742 
Q 2594 3103 2138 3103 
Q 1681 3103 1420 2742 
Q 1159 2381 1159 1747 
Q 1159 1113 1420 752 
Q 1681 391 2138 391 
Q 2594 391 2855 752 
Q 3116 1113 3116 1747 
z
M 1159 2969 
Q 1341 3281 1617 3432 
Q 1894 3584 2278 3584 
Q 2916 3584 3314 3078 
Q 3713 2572 3713 1747 
Q 3713 922 3314 415 
Q 2916 -91 2278 -91 
Q 1894 -91 1617 61 
Q 1341 213 1159 525 
L 1159 0 
L 581 0 
L 581 4863 
L 1159 4863 
L 1159 2969 
z
" transform="scale(0.015625)"/>
     </defs>
     <use xlink:href="#DejaVuSans-4d"/>
     <use xlink:href="#DejaVuSans-6f" x="86.279297"/>
     <use xlink:href="#DejaVuSans-64" x="147.460938"/>
     <use xlink:href="#DejaVuSans-65" x="210.9375"/>
     <use xlink:href="#DejaVuSans-6c" x="272.460938"/>
     <use xlink:href="#DejaVuSans-20" x="300.244141"/>
     <use xlink:href="#DejaVuSans-62" x="332.03125"/>
     <use xlink:href="#DejaVuSans-61" x="395.507812"/>
     <use xlink:href="#DejaVuSans-6c" x="456.787109"/>
     <use xlink:href="#DejaVuSans-61" x="484.570312"/>
     <use xlink:href="#DejaVuSans-6e" x="545.849609"/>
     <use xlink:href="#DejaVuSans-63" x="609.228516"/>
     <use xlink:href="#DejaVuSans-65" x="664.208984"/>
     <use xlink:href="#DejaVuSans-64" x="725.732422"/>
     <use xlink:href="#DejaVuSans-20" x="789.208984"/>
     <use xlink:href="#DejaVuSans-61" x="820.996094"/>
     <use xlink:href="#DejaVuSans-63" x="882.275391"/>
     <use xlink:href="#DejaVuSans-63" x="937.255859"/>
     <use xlink:href="#DejaVuSans-75" x="992.236328"/>
     <use xlink:href="#DejaVuSans-72" x="1055.615234"/>
     <use xlink:href="#DejaVuSans-61" x="1096.728516"/>
     <use xlink:href="#DejaVuSans-63" x="1158.007812"/>
     <use xlink:href="#DejaVuSans-79" x="1212.988281"/>
    </g>
   </g>
   <g id="legend_1">
    <g id="patch_7">
     <path d="M 64.6 78.82825 
L 120.5875 78.82825 
Q 122.5875 78.82825 122.5875 76.82825 
L 122.5875 48.472 
Q 122.5875 46.472 120.5875 46.472 
L 64.6 46.472 
Q 62.6 46.472 62.6 48.472 
L 62.6 76.82825 
Q 62.6 78.82825 64.6 78.82825 
z
" style="fill: #ffffff; opacity: 0.8; stroke: #cccccc; stroke-linejoin: miter"/>
    </g>
    <g id="line2d_18">
     <path d="M 66.6 54.570437 
L 76.6 54.570437 
L 86.6 54.570437 
" style="fill: none; stroke: #1f77b4; stroke-width: 1.5; stroke-linecap: square"/>
    </g>
    <g id="text_19">
     <!-- Train -->
     <g transform="translate(94.6 58.070437) scale(0.1 -0.1)">
      <defs>
       <path id="DejaVuSans-54" d="M -19 4666 
L 3928 4666 
L 3928 4134 
L 2272 4134 
L 2272 0 
L 1638 0 
L 1638 4134 
L -19 4134 
L -19 4666 
z
" transform="scale(0.015625)"/>
       <path id="DejaVuSans-69" d="M 603 3500 
L 1178 3500 
L 1178 0 
L 603 0 
L 603 3500 
z
M 603 4863 
L 1178 4863 
L 1178 4134 
L 603 4134 
L 603 4863 
z
" transform="scale(0.015625)"/>
      </defs>
      <use xlink:href="#DejaVuSans-54"/>
      <use xlink:href="#DejaVuSans-72" x="46.333984"/>
      <use xlink:href="#DejaVuSans-61" x="87.447266"/>
      <use xlink:href="#DejaVuSans-69" x="148.726562"/>
      <use xlink:href="#DejaVuSans-6e" x="176.509766"/>
     </g>
    </g>
    <g id="line2d_19">
     <path d="M 66.6 69.248562 
L 76.6 69.248562 
L 86.6 69.248562 
" style="fill: none; stroke: #ff7f0e; stroke-width: 1.5; stroke-linecap: square"/>
    </g>
    <g id="text_20">
     <!-- Test -->
     <g transform="translate(94.6 72.748562) scale(0.1 -0.1)">
      <defs>
       <path id="DejaVuSans-73" d="M 2834 3397 
L 2834 2853 
Q 2591 2978 2328 3040 
Q 2066 3103 1784 3103 
Q 1356 3103 1142 2972 
Q 928 2841 928 2578 
Q 928 2378 1081 2264 
Q 1234 2150 1697 2047 
L 1894 2003 
Q 2506 1872 2764 1633 
Q 3022 1394 3022 966 
Q 3022 478 2636 193 
Q 2250 -91 1575 -91 
Q 1294 -91 989 -36 
Q 684 19 347 128 
L 347 722 
Q 666 556 975 473 
Q 1284 391 1588 391 
Q 1994 391 2212 530 
Q 2431 669 2431 922 
Q 2431 1156 2273 1281 
Q 2116 1406 1581 1522 
L 1381 1569 
Q 847 1681 609 1914 
Q 372 2147 372 2553 
Q 372 3047 722 3315 
Q 1072 3584 1716 3584 
Q 2034 3584 2315 3537 
Q 2597 3491 2834 3397 
z
" transform="scale(0.015625)"/>
       <path id="DejaVuSans-74" d="M 1172 4494 
L 1172 3500 
L 2356 3500 
L 2356 3053 
L 1172 3053 
L 1172 1153 
Q 1172 725 1289 603 
Q 1406 481 1766 481 
L 2356 481 
L 2356 0 
L 1766 0 
Q 1100 0 847 248 
Q 594 497 594 1153 
L 594 3053 
L 172 3053 
L 172 3500 
L 594 3500 
L 594 4494 
L 1172 4494 
z
" transform="scale(0.015625)"/>
      </defs>
      <use xlink:href="#DejaVuSans-54"/>
      <use xlink:href="#DejaVuSans-65" x="44.083984"/>
      <use xlink:href="#DejaVuSans-73" x="105.607422"/>
      <use xlink:href="#DejaVuSans-74" x="157.707031"/>
     </g>
    </g>
   </g>
  </g>
 </g>
 <defs>
  <clipPath id="p7f594156fb">
   <rect x="57.6" y="41.472" width="357.12" height="266.112"/>
  </clipPath>
 </defs>
</svg>
