<?xml version="1.0" encoding="utf-8" standalone="no"?>
<!DOCTYPE svg PUBLIC "-//W3C//DTD SVG 1.1//EN"
  "http://www.w3.org/Graphics/SVG/1.1/DTD/svg11.dtd">
<svg xmlns:xlink="http://www.w3.org/1999/xlink" width="1432.97792pt" height="495.034375pt" viewBox="0 0 1432.97792 495.034375" xmlns="http://www.w3.org/2000/svg" version="1.1">
 <metadata>
  <rdf:RDF xmlns:dc="http://purl.org/dc/elements/1.1/" xmlns:cc="http://creativecommons.org/ns#" xmlns:rdf="http://www.w3.org/1999/02/22-rdf-syntax-ns#">
   <cc:Work>
    <dc:type rdf:resource="http://purl.org/dc/dcmitype/StillImage"/>
    <dc:date>2023-07-17T11:20:50.590049</dc:date>
    <dc:format>image/svg+xml</dc:format>
    <dc:creator>
     <cc:Agent>
      <dc:title>Matplotlib v3.7.2, https://matplotlib.org/</dc:title>
     </cc:Agent>
    </dc:creator>
   </cc:Work>
  </rdf:RDF>
 </metadata>
 <defs>
  <style type="text/css">*{stroke-linejoin: round; stroke-linecap: butt}</style>
 </defs>
 <g id="figure_1">
  <g id="patch_1">
   <path d="M 0 495.034375 
L 1432.97792 495.034375 
L 1432.97792 0 
L 0 0 
z
" style="fill: #ffffff"/>
  </g>
  <g id="axes_1">
   <g id="patch_2">
    <path d="M 43.78125 457.478125 
L 610.158523 457.478125 
L 610.158523 22.318125 
L 43.78125 22.318125 
z
" style="fill: #ffffff"/>
   </g>
   <g id="patch_3">
    <path d="M 32.22253 26.669725 
L 32.22253 22.318125 
L 43.78125 22.318125 
L 43.78125 26.669725 
z
" clip-path="url(#pba0825ec00)" style="fill: #ffff00"/>
   </g>
   <g id="patch_4">
    <path d="M 43.78125 26.669725 
L 43.78125 22.318125 
L 55.33997 22.318125 
L 55.33997 26.669725 
z
" clip-path="url(#pba0825ec00)" style="fill: #ffff00"/>
   </g>
   <g id="patch_5">
    <path d="M 55.33997 26.669725 
L 55.33997 22.318125 
L 66.89869 22.318125 
L 66.89869 26.669725 
z
" clip-path="url(#pba0825ec00)" style="fill: #ffff00"/>
   </g>
   <g id="patch_6">
    <path d="M 66.89869 26.669725 
L 66.89869 22.318125 
L 78.45741 22.318125 
L 78.45741 26.669725 
z
" clip-path="url(#pba0825ec00)" style="fill: #ffff00"/>
   </g>
   <g id="patch_7">
    <path d="M 78.45741 26.669725 
L 78.45741 22.318125 
L 90.016129 22.318125 
L 90.016129 26.669725 
z
" clip-path="url(#pba0825ec00)" style="fill: #ffff00"/>
   </g>
   <g id="patch_8">
    <path d="M 90.016129 26.669725 
L 90.016129 22.318125 
L 101.574849 22.318125 
L 101.574849 26.669725 
z
" clip-path="url(#pba0825ec00)" style="fill: #ffff00"/>
   </g>
   <g id="patch_9">
    <path d="M 101.574849 26.669725 
L 101.574849 22.318125 
L 113.133569 22.318125 
L 113.133569 26.669725 
z
" clip-path="url(#pba0825ec00)" style="fill: #ffff00"/>
   </g>
   <g id="patch_10">
    <path d="M 113.133569 26.669725 
L 113.133569 22.318125 
L 124.692289 22.318125 
L 124.692289 26.669725 
z
" clip-path="url(#pba0825ec00)" style="fill: #ffff00"/>
   </g>
   <g id="patch_11">
    <path d="M 124.692289 26.669725 
L 124.692289 22.318125 
L 136.251009 22.318125 
L 136.251009 26.669725 
z
" clip-path="url(#pba0825ec00)" style="fill: #ffff00"/>
   </g>
   <g id="patch_12">
    <path d="M 136.251009 26.669725 
L 136.251009 22.318125 
L 147.809729 22.318125 
L 147.809729 26.669725 
z
" clip-path="url(#pba0825ec00)" style="fill: #ffff00"/>
   </g>
   <g id="patch_13">
    <path d="M 170.927168 26.669725 
L 170.927168 22.318125 
L 182.485888 22.318125 
L 182.485888 26.669725 
z
" clip-path="url(#pba0825ec00)" style="fill: #808080"/>
   </g>
   <g id="patch_14">
    <path d="M 182.485888 26.669725 
L 182.485888 22.318125 
L 194.044608 22.318125 
L 194.044608 26.669725 
z
" clip-path="url(#pba0825ec00)" style="fill: #808080"/>
   </g>
   <g id="patch_15">
    <path d="M 194.044608 26.669725 
L 194.044608 22.318125 
L 205.603328 22.318125 
L 205.603328 26.669725 
z
" clip-path="url(#pba0825ec00)" style="fill: #808080"/>
   </g>
   <g id="patch_16">
    <path d="M 205.603328 26.669725 
L 205.603328 22.318125 
L 217.162048 22.318125 
L 217.162048 26.669725 
z
" clip-path="url(#pba0825ec00)" style="fill: #808080"/>
   </g>
   <g id="patch_17">
    <path d="M 217.162048 26.669725 
L 217.162048 22.318125 
L 228.720768 22.318125 
L 228.720768 26.669725 
z
" clip-path="url(#pba0825ec00)" style="fill: #808080"/>
   </g>
   <g id="patch_18">
    <path d="M 228.720768 26.669725 
L 228.720768 22.318125 
L 240.279487 22.318125 
L 240.279487 26.669725 
z
" clip-path="url(#pba0825ec00)" style="fill: #808080"/>
   </g>
   <g id="patch_19">
    <path d="M 240.279487 26.669725 
L 240.279487 22.318125 
L 251.838207 22.318125 
L 251.838207 26.669725 
z
" clip-path="url(#pba0825ec00)" style="fill: #808080"/>
   </g>
   <g id="patch_20">
    <path d="M 251.838207 26.669725 
L 251.838207 22.318125 
L 263.396927 22.318125 
L 263.396927 26.669725 
z
" clip-path="url(#pba0825ec00)" style="fill: #808080"/>
   </g>
   <g id="patch_21">
    <path d="M 263.396927 26.669725 
L 263.396927 22.318125 
L 274.955647 22.318125 
L 274.955647 26.669725 
z
" clip-path="url(#pba0825ec00)" style="fill: #808080"/>
   </g>
   <g id="patch_22">
    <path d="M 274.955647 26.669725 
L 274.955647 22.318125 
L 286.514367 22.318125 
L 286.514367 26.669725 
z
" clip-path="url(#pba0825ec00)" style="fill: #808080"/>
   </g>
   <g id="patch_23">
    <path d="M 286.514367 26.669725 
L 286.514367 22.318125 
L 298.073087 22.318125 
L 298.073087 26.669725 
z
" clip-path="url(#pba0825ec00)" style="fill: #808080"/>
   </g>
   <g id="patch_24">
    <path d="M 298.073087 26.669725 
L 298.073087 22.318125 
L 309.631807 22.318125 
L 309.631807 26.669725 
z
" clip-path="url(#pba0825ec00)" style="fill: #808080"/>
   </g>
   <g id="patch_25">
    <path d="M 309.631807 26.669725 
L 309.631807 22.318125 
L 321.190526 22.318125 
L 321.190526 26.669725 
z
" clip-path="url(#pba0825ec00)" style="fill: #808080"/>
   </g>
   <g id="patch_26">
    <path d="M 321.190526 26.669725 
L 321.190526 22.318125 
L 332.749246 22.318125 
L 332.749246 26.669725 
z
" clip-path="url(#pba0825ec00)" style="fill: #808080"/>
   </g>
   <g id="patch_27">
    <path d="M 332.749246 26.669725 
L 332.749246 22.318125 
L 344.307966 22.318125 
L 344.307966 26.669725 
z
" clip-path="url(#pba0825ec00)" style="fill: #808080"/>
   </g>
   <g id="patch_28">
    <path d="M 344.307966 26.669725 
L 344.307966 22.318125 
L 355.866686 22.318125 
L 355.866686 26.669725 
z
" clip-path="url(#pba0825ec00)" style="fill: #808080"/>
   </g>
   <g id="patch_29">
    <path d="M 355.866686 26.669725 
L 355.866686 22.318125 
L 367.425406 22.318125 
L 367.425406 26.669725 
z
" clip-path="url(#pba0825ec00)" style="fill: #808080"/>
   </g>
   <g id="patch_30">
    <path d="M 367.425406 26.669725 
L 367.425406 22.318125 
L 378.984126 22.318125 
L 378.984126 26.669725 
z
" clip-path="url(#pba0825ec00)" style="fill: #808080"/>
   </g>
   <g id="patch_31">
    <path d="M 378.984126 26.669725 
L 378.984126 22.318125 
L 390.542846 22.318125 
L 390.542846 26.669725 
z
" clip-path="url(#pba0825ec00)" style="fill: #808080"/>
   </g>
   <g id="patch_32">
    <path d="M 390.542846 26.669725 
L 390.542846 22.318125 
L 402.101565 22.318125 
L 402.101565 26.669725 
z
" clip-path="url(#pba0825ec00)" style="fill: #808080"/>
   </g>
   <g id="patch_33">
    <path d="M 402.101565 26.669725 
L 402.101565 22.318125 
L 413.660285 22.318125 
L 413.660285 26.669725 
z
" clip-path="url(#pba0825ec00)" style="fill: #808080"/>
   </g>
   <g id="patch_34">
    <path d="M 413.660285 26.669725 
L 413.660285 22.318125 
L 425.219005 22.318125 
L 425.219005 26.669725 
z
" clip-path="url(#pba0825ec00)" style="fill: #808080"/>
   </g>
   <g id="patch_35">
    <path d="M 425.219005 26.669725 
L 425.219005 22.318125 
L 436.777725 22.318125 
L 436.777725 26.669725 
z
" clip-path="url(#pba0825ec00)" style="fill: #808080"/>
   </g>
   <g id="patch_36">
    <path d="M 436.777725 26.669725 
L 436.777725 22.318125 
L 448.336445 22.318125 
L 448.336445 26.669725 
z
" clip-path="url(#pba0825ec00)" style="fill: #808080"/>
   </g>
   <g id="patch_37">
    <path d="M 448.336445 26.669725 
L 448.336445 22.318125 
L 459.895165 22.318125 
L 459.895165 26.669725 
z
" clip-path="url(#pba0825ec00)" style="fill: #808080"/>
   </g>
   <g id="patch_38">
    <path d="M 459.895165 26.669725 
L 459.895165 22.318125 
L 471.453885 22.318125 
L 471.453885 26.669725 
z
" clip-path="url(#pba0825ec00)" style="fill: #808080"/>
   </g>
   <g id="patch_39">
    <path d="M 471.453885 26.669725 
L 471.453885 22.318125 
L 483.012604 22.318125 
L 483.012604 26.669725 
z
" clip-path="url(#pba0825ec00)" style="fill: #808080"/>
   </g>
   <g id="patch_40">
    <path d="M 483.012604 26.669725 
L 483.012604 22.318125 
L 494.571324 22.318125 
L 494.571324 26.669725 
z
" clip-path="url(#pba0825ec00)" style="fill: #808080"/>
   </g>
   <g id="patch_41">
    <path d="M 494.571324 26.669725 
L 494.571324 22.318125 
L 506.130044 22.318125 
L 506.130044 26.669725 
z
" clip-path="url(#pba0825ec00)" style="fill: #808080"/>
   </g>
   <g id="patch_42">
    <path d="M 506.130044 26.669725 
L 506.130044 22.318125 
L 517.688764 22.318125 
L 517.688764 26.669725 
z
" clip-path="url(#pba0825ec00)" style="fill: #808080"/>
   </g>
   <g id="patch_43">
    <path d="M 517.688764 26.669725 
L 517.688764 22.318125 
L 529.247484 22.318125 
L 529.247484 26.669725 
z
" clip-path="url(#pba0825ec00)" style="fill: #808080"/>
   </g>
   <g id="patch_44">
    <path d="M 529.247484 26.669725 
L 529.247484 22.318125 
L 540.806204 22.318125 
L 540.806204 26.669725 
z
" clip-path="url(#pba0825ec00)" style="fill: #808080"/>
   </g>
   <g id="patch_45">
    <path d="M 540.806204 26.669725 
L 540.806204 22.318125 
L 552.364923 22.318125 
L 552.364923 26.669725 
z
" clip-path="url(#pba0825ec00)" style="fill: #808080"/>
   </g>
   <g id="patch_46">
    <path d="M 552.364923 26.669725 
L 552.364923 22.318125 
L 563.923643 22.318125 
L 563.923643 26.669725 
z
" clip-path="url(#pba0825ec00)" style="fill: #808080"/>
   </g>
   <g id="patch_47">
    <path d="M 563.923643 26.669725 
L 563.923643 22.318125 
L 575.482363 22.318125 
L 575.482363 26.669725 
z
" clip-path="url(#pba0825ec00)" style="fill: #808080"/>
   </g>
   <g id="patch_48">
    <path d="M 575.482363 26.669725 
L 575.482363 22.318125 
L 587.041083 22.318125 
L 587.041083 26.669725 
z
" clip-path="url(#pba0825ec00)" style="fill: #808080"/>
   </g>
   <g id="patch_49">
    <path d="M 587.041083 26.669725 
L 587.041083 22.318125 
L 598.599803 22.318125 
L 598.599803 26.669725 
z
" clip-path="url(#pba0825ec00)" style="fill: #808080"/>
   </g>
   <g id="patch_50">
    <path d="M 598.599803 26.669725 
L 598.599803 22.318125 
L 610.158523 22.318125 
L 610.158523 26.669725 
z
" clip-path="url(#pba0825ec00)" style="fill: #808080"/>
   </g>
   <g id="patch_51">
    <path d="M 136.251009 457.478125 
L 136.251009 22.318125 
L 147.809729 22.318125 
L 147.809729 457.478125 
z
" clip-path="url(#pba0825ec00)" style="fill: #ffff00; opacity: 0.3"/>
   </g>
   <g id="patch_52">
    <path d="M 147.809729 457.478125 
L 147.809729 22.318125 
L 159.368449 22.318125 
L 159.368449 457.478125 
z
" clip-path="url(#pba0825ec00)" style="fill: url(#haff72b5384); opacity: 0.3; stroke: #000000; stroke-linejoin: miter"/>
   </g>
   <g id="patch_53">
    <path d="M 217.162048 457.478125 
L 217.162048 22.318125 
L 228.720768 22.318125 
L 228.720768 457.478125 
z
" clip-path="url(#pba0825ec00)" style="fill: #ffff00; opacity: 0.3"/>
   </g>
   <g id="patch_54">
    <path d="M 587.041083 457.478125 
L 587.041083 22.318125 
L 598.599803 22.318125 
L 598.599803 457.478125 
z
" clip-path="url(#pba0825ec00)" style="fill: #ffff00; opacity: 0.3"/>
   </g>
   <g id="LineCollection_1">
    <path d="M 43.78125 239.898125 
L 610.158523 239.898125 
" clip-path="url(#pba0825ec00)" style="fill: none; stroke-dasharray: 1,1.65; stroke-dashoffset: 0; stroke: #000000"/>
   </g>
   <g id="LineCollection_2">
    <path d="M 136.251009 457.478125 
L 136.251009 22.318125 
" clip-path="url(#pba0825ec00)" style="fill: none; stroke-dasharray: 3.7,1.6; stroke-dashoffset: 0; stroke: #ff0000"/>
   </g>
   <g id="line2d_1">
    <path d="M 43.78125 326.879928 
L 55.33997 323.282372 
L 66.89869 323.071464 
L 78.45741 315.562335 
L 90.016129 283.870546 
L 101.574849 284.273383 
L 113.133569 269.559252 
L 124.692289 266.487328 
L 136.251009 226.03044 
L 147.809729 210.434486 
L 182.485888 327.928412 
L 194.044608 326.454438 
L 205.603328 324.915868 
L 217.162048 296.747576 
L 228.720768 320.73149 
L 240.279487 319.807205 
L 251.838207 319.296238 
L 263.396927 318.608101 
L 274.955647 298.116896 
L 286.514367 275.376638 
L 298.073087 261.476948 
L 309.631807 256.786829 
L 321.190526 252.050523 
L 332.749246 250.77639 
L 344.307966 249.131549 
L 355.866686 247.028438 
L 367.425406 246.382067 
L 378.984126 245.890582 
L 390.542846 245.941397 
L 402.101565 245.686778 
L 413.660285 245.509349 
L 425.219005 245.827814 
L 436.777725 245.840297 
L 448.336445 245.911602 
L 459.895165 245.81584 
L 471.453885 246.465016 
L 483.012604 246.459233 
L 494.571324 247.275578 
L 506.130044 248.144078 
L 517.688764 248.243401 
L 529.247484 248.198745 
L 540.806204 247.991888 
L 552.364923 248.38487 
L 563.923643 256.056903 
L 575.482363 259.38615 
L 587.041083 234.041035 
L 598.599803 261.584552 
L 610.158523 265.876748 
" clip-path="url(#pba0825ec00)" style="fill: none; stroke-dasharray: 3.7,1.6; stroke-dashoffset: 0; stroke: #1f77b4"/>
   </g>
   <g id="PathCollection_1">
    <defs>
     <path id="m29505d8ac0" d="M -1.767767 3.535534 
L 0 1.767767 
L 1.767767 3.535534 
L 3.535534 1.767767 
L 1.767767 0 
L 3.535534 -1.767767 
L 1.767767 -3.535534 
L 0 -1.767767 
L -1.767767 -3.535534 
L -3.535534 -1.767767 
L -1.767767 0 
L -3.535534 1.767767 
z
" style="stroke: #ffffff; stroke-width: 0.565685"/>
    </defs>
    <g clip-path="url(#pba0825ec00)">
     <use xlink:href="#m29505d8ac0" x="43.78125" y="326.879928" style="fill: #1f77b4; stroke: #ffffff; stroke-width: 0.565685"/>
     <use xlink:href="#m29505d8ac0" x="55.33997" y="323.282372" style="fill: #1f77b4; stroke: #ffffff; stroke-width: 0.565685"/>
     <use xlink:href="#m29505d8ac0" x="66.89869" y="323.071464" style="fill: #1f77b4; stroke: #ffffff; stroke-width: 0.565685"/>
     <use xlink:href="#m29505d8ac0" x="78.45741" y="315.562335" style="fill: #1f77b4; stroke: #ffffff; stroke-width: 0.565685"/>
     <use xlink:href="#m29505d8ac0" x="90.016129" y="283.870546" style="fill: #1f77b4; stroke: #ffffff; stroke-width: 0.565685"/>
     <use xlink:href="#m29505d8ac0" x="101.574849" y="284.273383" style="fill: #1f77b4; stroke: #ffffff; stroke-width: 0.565685"/>
     <use xlink:href="#m29505d8ac0" x="113.133569" y="269.559252" style="fill: #1f77b4; stroke: #ffffff; stroke-width: 0.565685"/>
     <use xlink:href="#m29505d8ac0" x="124.692289" y="266.487328" style="fill: #1f77b4; stroke: #ffffff; stroke-width: 0.565685"/>
     <use xlink:href="#m29505d8ac0" x="136.251009" y="226.03044" style="fill: #1f77b4; stroke: #ffffff; stroke-width: 0.565685"/>
     <use xlink:href="#m29505d8ac0" x="147.809729" y="210.434486" style="fill: #1f77b4; stroke: #ffffff; stroke-width: 0.565685"/>
     <use xlink:href="#m29505d8ac0" x="182.485888" y="327.928412" style="fill: #1f77b4; stroke: #ffffff; stroke-width: 0.565685"/>
     <use xlink:href="#m29505d8ac0" x="194.044608" y="326.454438" style="fill: #1f77b4; stroke: #ffffff; stroke-width: 0.565685"/>
     <use xlink:href="#m29505d8ac0" x="205.603328" y="324.915868" style="fill: #1f77b4; stroke: #ffffff; stroke-width: 0.565685"/>
     <use xlink:href="#m29505d8ac0" x="217.162048" y="296.747576" style="fill: #1f77b4; stroke: #ffffff; stroke-width: 0.565685"/>
     <use xlink:href="#m29505d8ac0" x="228.720768" y="320.73149" style="fill: #1f77b4; stroke: #ffffff; stroke-width: 0.565685"/>
     <use xlink:href="#m29505d8ac0" x="240.279487" y="319.807205" style="fill: #1f77b4; stroke: #ffffff; stroke-width: 0.565685"/>
     <use xlink:href="#m29505d8ac0" x="251.838207" y="319.296238" style="fill: #1f77b4; stroke: #ffffff; stroke-width: 0.565685"/>
     <use xlink:href="#m29505d8ac0" x="263.396927" y="318.608101" style="fill: #1f77b4; stroke: #ffffff; stroke-width: 0.565685"/>
     <use xlink:href="#m29505d8ac0" x="274.955647" y="298.116896" style="fill: #1f77b4; stroke: #ffffff; stroke-width: 0.565685"/>
     <use xlink:href="#m29505d8ac0" x="286.514367" y="275.376638" style="fill: #1f77b4; stroke: #ffffff; stroke-width: 0.565685"/>
     <use xlink:href="#m29505d8ac0" x="298.073087" y="261.476948" style="fill: #1f77b4; stroke: #ffffff; stroke-width: 0.565685"/>
     <use xlink:href="#m29505d8ac0" x="309.631807" y="256.786829" style="fill: #1f77b4; stroke: #ffffff; stroke-width: 0.565685"/>
     <use xlink:href="#m29505d8ac0" x="321.190526" y="252.050523" style="fill: #1f77b4; stroke: #ffffff; stroke-width: 0.565685"/>
     <use xlink:href="#m29505d8ac0" x="332.749246" y="250.77639" style="fill: #1f77b4; stroke: #ffffff; stroke-width: 0.565685"/>
     <use xlink:href="#m29505d8ac0" x="344.307966" y="249.131549" style="fill: #1f77b4; stroke: #ffffff; stroke-width: 0.565685"/>
     <use xlink:href="#m29505d8ac0" x="355.866686" y="247.028438" style="fill: #1f77b4; stroke: #ffffff; stroke-width: 0.565685"/>
     <use xlink:href="#m29505d8ac0" x="367.425406" y="246.382067" style="fill: #1f77b4; stroke: #ffffff; stroke-width: 0.565685"/>
     <use xlink:href="#m29505d8ac0" x="378.984126" y="245.890582" style="fill: #1f77b4; stroke: #ffffff; stroke-width: 0.565685"/>
     <use xlink:href="#m29505d8ac0" x="390.542846" y="245.941397" style="fill: #1f77b4; stroke: #ffffff; stroke-width: 0.565685"/>
     <use xlink:href="#m29505d8ac0" x="402.101565" y="245.686778" style="fill: #1f77b4; stroke: #ffffff; stroke-width: 0.565685"/>
     <use xlink:href="#m29505d8ac0" x="413.660285" y="245.509349" style="fill: #1f77b4; stroke: #ffffff; stroke-width: 0.565685"/>
     <use xlink:href="#m29505d8ac0" x="425.219005" y="245.827814" style="fill: #1f77b4; stroke: #ffffff; stroke-width: 0.565685"/>
     <use xlink:href="#m29505d8ac0" x="436.777725" y="245.840297" style="fill: #1f77b4; stroke: #ffffff; stroke-width: 0.565685"/>
     <use xlink:href="#m29505d8ac0" x="448.336445" y="245.911602" style="fill: #1f77b4; stroke: #ffffff; stroke-width: 0.565685"/>
     <use xlink:href="#m29505d8ac0" x="459.895165" y="245.81584" style="fill: #1f77b4; stroke: #ffffff; stroke-width: 0.565685"/>
     <use xlink:href="#m29505d8ac0" x="471.453885" y="246.465016" style="fill: #1f77b4; stroke: #ffffff; stroke-width: 0.565685"/>
     <use xlink:href="#m29505d8ac0" x="483.012604" y="246.459233" style="fill: #1f77b4; stroke: #ffffff; stroke-width: 0.565685"/>
     <use xlink:href="#m29505d8ac0" x="494.571324" y="247.275578" style="fill: #1f77b4; stroke: #ffffff; stroke-width: 0.565685"/>
     <use xlink:href="#m29505d8ac0" x="506.130044" y="248.144078" style="fill: #1f77b4; stroke: #ffffff; stroke-width: 0.565685"/>
     <use xlink:href="#m29505d8ac0" x="517.688764" y="248.243401" style="fill: #1f77b4; stroke: #ffffff; stroke-width: 0.565685"/>
     <use xlink:href="#m29505d8ac0" x="529.247484" y="248.198745" style="fill: #1f77b4; stroke: #ffffff; stroke-width: 0.565685"/>
     <use xlink:href="#m29505d8ac0" x="540.806204" y="247.991888" style="fill: #1f77b4; stroke: #ffffff; stroke-width: 0.565685"/>
     <use xlink:href="#m29505d8ac0" x="552.364923" y="248.38487" style="fill: #1f77b4; stroke: #ffffff; stroke-width: 0.565685"/>
     <use xlink:href="#m29505d8ac0" x="563.923643" y="256.056903" style="fill: #1f77b4; stroke: #ffffff; stroke-width: 0.565685"/>
     <use xlink:href="#m29505d8ac0" x="575.482363" y="259.38615" style="fill: #1f77b4; stroke: #ffffff; stroke-width: 0.565685"/>
     <use xlink:href="#m29505d8ac0" x="587.041083" y="234.041035" style="fill: #1f77b4; stroke: #ffffff; stroke-width: 0.565685"/>
     <use xlink:href="#m29505d8ac0" x="598.599803" y="261.584552" style="fill: #1f77b4; stroke: #ffffff; stroke-width: 0.565685"/>
     <use xlink:href="#m29505d8ac0" x="610.158523" y="265.876748" style="fill: #1f77b4; stroke: #ffffff; stroke-width: 0.565685"/>
    </g>
   </g>
   <g id="PolyCollection_1"/>
   <g id="matplotlib.axis_1">
    <g id="xtick_1">
     <g id="line2d_2">
      <path d="M 78.45741 457.478125 
L 78.45741 22.318125 
" clip-path="url(#pba0825ec00)" style="fill: none; stroke: #b0b0b0; stroke-width: 0.8; stroke-linecap: square"/>
     </g>
     <g id="line2d_3">
      <defs>
       <path id="mb06f3bca17" d="M 0 0 
L 0 3.5 
" style="stroke: #000000; stroke-width: 0.8"/>
      </defs>
      <g>
       <use xlink:href="#mb06f3bca17" x="78.45741" y="457.478125" style="stroke: #000000; stroke-width: 0.8"/>
      </g>
     </g>
     <g id="text_1">
      <!-- 5 -->
      <g transform="translate(75.27616 472.076563) scale(0.1 -0.1)">
       <defs>
        <path id="DejaVuSans-35" d="M 691 4666 
L 3169 4666 
L 3169 4134 
L 1269 4134 
L 1269 2991 
Q 1406 3038 1543 3061 
Q 1681 3084 1819 3084 
Q 2600 3084 3056 2656 
Q 3513 2228 3513 1497 
Q 3513 744 3044 326 
Q 2575 -91 1722 -91 
Q 1428 -91 1123 -41 
Q 819 9 494 109 
L 494 744 
Q 775 591 1075 516 
Q 1375 441 1709 441 
Q 2250 441 2565 725 
Q 2881 1009 2881 1497 
Q 2881 1984 2565 2268 
Q 2250 2553 1709 2553 
Q 1456 2553 1204 2497 
Q 953 2441 691 2322 
L 691 4666 
z
" transform="scale(0.015625)"/>
       </defs>
       <use xlink:href="#DejaVuSans-35"/>
      </g>
     </g>
    </g>
    <g id="xtick_2">
     <g id="line2d_4">
      <path d="M 136.251009 457.478125 
L 136.251009 22.318125 
" clip-path="url(#pba0825ec00)" style="fill: none; stroke: #b0b0b0; stroke-width: 0.8; stroke-linecap: square"/>
     </g>
     <g id="line2d_5">
      <g>
       <use xlink:href="#mb06f3bca17" x="136.251009" y="457.478125" style="stroke: #000000; stroke-width: 0.8"/>
      </g>
     </g>
     <g id="text_2">
      <!-- 10 -->
      <g transform="translate(129.888509 472.076563) scale(0.1 -0.1)">
       <defs>
        <path id="DejaVuSans-31" d="M 794 531 
L 1825 531 
L 1825 4091 
L 703 3866 
L 703 4441 
L 1819 4666 
L 2450 4666 
L 2450 531 
L 3481 531 
L 3481 0 
L 794 0 
L 794 531 
z
" transform="scale(0.015625)"/>
        <path id="DejaVuSans-30" d="M 2034 4250 
Q 1547 4250 1301 3770 
Q 1056 3291 1056 2328 
Q 1056 1369 1301 889 
Q 1547 409 2034 409 
Q 2525 409 2770 889 
Q 3016 1369 3016 2328 
Q 3016 3291 2770 3770 
Q 2525 4250 2034 4250 
z
M 2034 4750 
Q 2819 4750 3233 4129 
Q 3647 3509 3647 2328 
Q 3647 1150 3233 529 
Q 2819 -91 2034 -91 
Q 1250 -91 836 529 
Q 422 1150 422 2328 
Q 422 3509 836 4129 
Q 1250 4750 2034 4750 
z
" transform="scale(0.015625)"/>
       </defs>
       <use xlink:href="#DejaVuSans-31"/>
       <use xlink:href="#DejaVuSans-30" x="63.623047"/>
      </g>
     </g>
    </g>
    <g id="xtick_3">
     <g id="line2d_6">
      <path d="M 194.044608 457.478125 
L 194.044608 22.318125 
" clip-path="url(#pba0825ec00)" style="fill: none; stroke: #b0b0b0; stroke-width: 0.8; stroke-linecap: square"/>
     </g>
     <g id="line2d_7">
      <g>
       <use xlink:href="#mb06f3bca17" x="194.044608" y="457.478125" style="stroke: #000000; stroke-width: 0.8"/>
      </g>
     </g>
     <g id="text_3">
      <!-- 15 -->
      <g transform="translate(187.682108 472.076563) scale(0.1 -0.1)">
       <use xlink:href="#DejaVuSans-31"/>
       <use xlink:href="#DejaVuSans-35" x="63.623047"/>
      </g>
     </g>
    </g>
    <g id="xtick_4">
     <g id="line2d_8">
      <path d="M 251.838207 457.478125 
L 251.838207 22.318125 
" clip-path="url(#pba0825ec00)" style="fill: none; stroke: #b0b0b0; stroke-width: 0.8; stroke-linecap: square"/>
     </g>
     <g id="line2d_9">
      <g>
       <use xlink:href="#mb06f3bca17" x="251.838207" y="457.478125" style="stroke: #000000; stroke-width: 0.8"/>
      </g>
     </g>
     <g id="text_4">
      <!-- 20 -->
      <g transform="translate(245.475707 472.076563) scale(0.1 -0.1)">
       <defs>
        <path id="DejaVuSans-32" d="M 1228 531 
L 3431 531 
L 3431 0 
L 469 0 
L 469 531 
Q 828 903 1448 1529 
Q 2069 2156 2228 2338 
Q 2531 2678 2651 2914 
Q 2772 3150 2772 3378 
Q 2772 3750 2511 3984 
Q 2250 4219 1831 4219 
Q 1534 4219 1204 4116 
Q 875 4013 500 3803 
L 500 4441 
Q 881 4594 1212 4672 
Q 1544 4750 1819 4750 
Q 2544 4750 2975 4387 
Q 3406 4025 3406 3419 
Q 3406 3131 3298 2873 
Q 3191 2616 2906 2266 
Q 2828 2175 2409 1742 
Q 1991 1309 1228 531 
z
" transform="scale(0.015625)"/>
       </defs>
       <use xlink:href="#DejaVuSans-32"/>
       <use xlink:href="#DejaVuSans-30" x="63.623047"/>
      </g>
     </g>
    </g>
    <g id="xtick_5">
     <g id="line2d_10">
      <path d="M 309.631807 457.478125 
L 309.631807 22.318125 
" clip-path="url(#pba0825ec00)" style="fill: none; stroke: #b0b0b0; stroke-width: 0.8; stroke-linecap: square"/>
     </g>
     <g id="line2d_11">
      <g>
       <use xlink:href="#mb06f3bca17" x="309.631807" y="457.478125" style="stroke: #000000; stroke-width: 0.8"/>
      </g>
     </g>
     <g id="text_5">
      <!-- 25 -->
      <g transform="translate(303.269307 472.076563) scale(0.1 -0.1)">
       <use xlink:href="#DejaVuSans-32"/>
       <use xlink:href="#DejaVuSans-35" x="63.623047"/>
      </g>
     </g>
    </g>
    <g id="xtick_6">
     <g id="line2d_12">
      <path d="M 367.425406 457.478125 
L 367.425406 22.318125 
" clip-path="url(#pba0825ec00)" style="fill: none; stroke: #b0b0b0; stroke-width: 0.8; stroke-linecap: square"/>
     </g>
     <g id="line2d_13">
      <g>
       <use xlink:href="#mb06f3bca17" x="367.425406" y="457.478125" style="stroke: #000000; stroke-width: 0.8"/>
      </g>
     </g>
     <g id="text_6">
      <!-- 30 -->
      <g transform="translate(361.062906 472.076563) scale(0.1 -0.1)">
       <defs>
        <path id="DejaVuSans-33" d="M 2597 2516 
Q 3050 2419 3304 2112 
Q 3559 1806 3559 1356 
Q 3559 666 3084 287 
Q 2609 -91 1734 -91 
Q 1441 -91 1130 -33 
Q 819 25 488 141 
L 488 750 
Q 750 597 1062 519 
Q 1375 441 1716 441 
Q 2309 441 2620 675 
Q 2931 909 2931 1356 
Q 2931 1769 2642 2001 
Q 2353 2234 1838 2234 
L 1294 2234 
L 1294 2753 
L 1863 2753 
Q 2328 2753 2575 2939 
Q 2822 3125 2822 3475 
Q 2822 3834 2567 4026 
Q 2313 4219 1838 4219 
Q 1578 4219 1281 4162 
Q 984 4106 628 3988 
L 628 4550 
Q 988 4650 1302 4700 
Q 1616 4750 1894 4750 
Q 2613 4750 3031 4423 
Q 3450 4097 3450 3541 
Q 3450 3153 3228 2886 
Q 3006 2619 2597 2516 
z
" transform="scale(0.015625)"/>
       </defs>
       <use xlink:href="#DejaVuSans-33"/>
       <use xlink:href="#DejaVuSans-30" x="63.623047"/>
      </g>
     </g>
    </g>
    <g id="xtick_7">
     <g id="line2d_14">
      <path d="M 425.219005 457.478125 
L 425.219005 22.318125 
" clip-path="url(#pba0825ec00)" style="fill: none; stroke: #b0b0b0; stroke-width: 0.8; stroke-linecap: square"/>
     </g>
     <g id="line2d_15">
      <g>
       <use xlink:href="#mb06f3bca17" x="425.219005" y="457.478125" style="stroke: #000000; stroke-width: 0.8"/>
      </g>
     </g>
     <g id="text_7">
      <!-- 35 -->
      <g transform="translate(418.856505 472.076563) scale(0.1 -0.1)">
       <use xlink:href="#DejaVuSans-33"/>
       <use xlink:href="#DejaVuSans-35" x="63.623047"/>
      </g>
     </g>
    </g>
    <g id="xtick_8">
     <g id="line2d_16">
      <path d="M 483.012604 457.478125 
L 483.012604 22.318125 
" clip-path="url(#pba0825ec00)" style="fill: none; stroke: #b0b0b0; stroke-width: 0.8; stroke-linecap: square"/>
     </g>
     <g id="line2d_17">
      <g>
       <use xlink:href="#mb06f3bca17" x="483.012604" y="457.478125" style="stroke: #000000; stroke-width: 0.8"/>
      </g>
     </g>
     <g id="text_8">
      <!-- 40 -->
      <g transform="translate(476.650104 472.076563) scale(0.1 -0.1)">
       <defs>
        <path id="DejaVuSans-34" d="M 2419 4116 
L 825 1625 
L 2419 1625 
L 2419 4116 
z
M 2253 4666 
L 3047 4666 
L 3047 1625 
L 3713 1625 
L 3713 1100 
L 3047 1100 
L 3047 0 
L 2419 0 
L 2419 1100 
L 313 1100 
L 313 1709 
L 2253 4666 
z
" transform="scale(0.015625)"/>
       </defs>
       <use xlink:href="#DejaVuSans-34"/>
       <use xlink:href="#DejaVuSans-30" x="63.623047"/>
      </g>
     </g>
    </g>
    <g id="xtick_9">
     <g id="line2d_18">
      <path d="M 540.806204 457.478125 
L 540.806204 22.318125 
" clip-path="url(#pba0825ec00)" style="fill: none; stroke: #b0b0b0; stroke-width: 0.8; stroke-linecap: square"/>
     </g>
     <g id="line2d_19">
      <g>
       <use xlink:href="#mb06f3bca17" x="540.806204" y="457.478125" style="stroke: #000000; stroke-width: 0.8"/>
      </g>
     </g>
     <g id="text_9">
      <!-- 45 -->
      <g transform="translate(534.443704 472.076563) scale(0.1 -0.1)">
       <use xlink:href="#DejaVuSans-34"/>
       <use xlink:href="#DejaVuSans-35" x="63.623047"/>
      </g>
     </g>
    </g>
    <g id="xtick_10">
     <g id="line2d_20">
      <path d="M 598.599803 457.478125 
L 598.599803 22.318125 
" clip-path="url(#pba0825ec00)" style="fill: none; stroke: #b0b0b0; stroke-width: 0.8; stroke-linecap: square"/>
     </g>
     <g id="line2d_21">
      <g>
       <use xlink:href="#mb06f3bca17" x="598.599803" y="457.478125" style="stroke: #000000; stroke-width: 0.8"/>
      </g>
     </g>
     <g id="text_10">
      <!-- 50 -->
      <g transform="translate(592.237303 472.076563) scale(0.1 -0.1)">
       <use xlink:href="#DejaVuSans-35"/>
       <use xlink:href="#DejaVuSans-30" x="63.623047"/>
      </g>
     </g>
    </g>
    <g id="text_11">
     <!-- Lap Number -->
     <g transform="translate(296.270668 485.754688) scale(0.1 -0.1)">
      <defs>
       <path id="DejaVuSans-4c" d="M 628 4666 
L 1259 4666 
L 1259 531 
L 3531 531 
L 3531 0 
L 628 0 
L 628 4666 
z
" transform="scale(0.015625)"/>
       <path id="DejaVuSans-61" d="M 2194 1759 
Q 1497 1759 1228 1600 
Q 959 1441 959 1056 
Q 959 750 1161 570 
Q 1363 391 1709 391 
Q 2188 391 2477 730 
Q 2766 1069 2766 1631 
L 2766 1759 
L 2194 1759 
z
M 3341 1997 
L 3341 0 
L 2766 0 
L 2766 531 
Q 2569 213 2275 61 
Q 1981 -91 1556 -91 
Q 1019 -91 701 211 
Q 384 513 384 1019 
Q 384 1609 779 1909 
Q 1175 2209 1959 2209 
L 2766 2209 
L 2766 2266 
Q 2766 2663 2505 2880 
Q 2244 3097 1772 3097 
Q 1472 3097 1187 3025 
Q 903 2953 641 2809 
L 641 3341 
Q 956 3463 1253 3523 
Q 1550 3584 1831 3584 
Q 2591 3584 2966 3190 
Q 3341 2797 3341 1997 
z
" transform="scale(0.015625)"/>
       <path id="DejaVuSans-70" d="M 1159 525 
L 1159 -1331 
L 581 -1331 
L 581 3500 
L 1159 3500 
L 1159 2969 
Q 1341 3281 1617 3432 
Q 1894 3584 2278 3584 
Q 2916 3584 3314 3078 
Q 3713 2572 3713 1747 
Q 3713 922 3314 415 
Q 2916 -91 2278 -91 
Q 1894 -91 1617 61 
Q 1341 213 1159 525 
z
M 3116 1747 
Q 3116 2381 2855 2742 
Q 2594 3103 2138 3103 
Q 1681 3103 1420 2742 
Q 1159 2381 1159 1747 
Q 1159 1113 1420 752 
Q 1681 391 2138 391 
Q 2594 391 2855 752 
Q 3116 1113 3116 1747 
z
" transform="scale(0.015625)"/>
       <path id="DejaVuSans-20" transform="scale(0.015625)"/>
       <path id="DejaVuSans-4e" d="M 628 4666 
L 1478 4666 
L 3547 763 
L 3547 4666 
L 4159 4666 
L 4159 0 
L 3309 0 
L 1241 3903 
L 1241 0 
L 628 0 
L 628 4666 
z
" transform="scale(0.015625)"/>
       <path id="DejaVuSans-75" d="M 544 1381 
L 544 3500 
L 1119 3500 
L 1119 1403 
Q 1119 906 1312 657 
Q 1506 409 1894 409 
Q 2359 409 2629 706 
Q 2900 1003 2900 1516 
L 2900 3500 
L 3475 3500 
L 3475 0 
L 2900 0 
L 2900 538 
Q 2691 219 2414 64 
Q 2138 -91 1772 -91 
Q 1169 -91 856 284 
Q 544 659 544 1381 
z
M 1991 3584 
L 1991 3584 
z
" transform="scale(0.015625)"/>
       <path id="DejaVuSans-6d" d="M 3328 2828 
Q 3544 3216 3844 3400 
Q 4144 3584 4550 3584 
Q 5097 3584 5394 3201 
Q 5691 2819 5691 2113 
L 5691 0 
L 5113 0 
L 5113 2094 
Q 5113 2597 4934 2840 
Q 4756 3084 4391 3084 
Q 3944 3084 3684 2787 
Q 3425 2491 3425 1978 
L 3425 0 
L 2847 0 
L 2847 2094 
Q 2847 2600 2669 2842 
Q 2491 3084 2119 3084 
Q 1678 3084 1418 2786 
Q 1159 2488 1159 1978 
L 1159 0 
L 581 0 
L 581 3500 
L 1159 3500 
L 1159 2956 
Q 1356 3278 1631 3431 
Q 1906 3584 2284 3584 
Q 2666 3584 2933 3390 
Q 3200 3197 3328 2828 
z
" transform="scale(0.015625)"/>
       <path id="DejaVuSans-62" d="M 3116 1747 
Q 3116 2381 2855 2742 
Q 2594 3103 2138 3103 
Q 1681 3103 1420 2742 
Q 1159 2381 1159 1747 
Q 1159 1113 1420 752 
Q 1681 391 2138 391 
Q 2594 391 2855 752 
Q 3116 1113 3116 1747 
z
M 1159 2969 
Q 1341 3281 1617 3432 
Q 1894 3584 2278 3584 
Q 2916 3584 3314 3078 
Q 3713 2572 3713 1747 
Q 3713 922 3314 415 
Q 2916 -91 2278 -91 
Q 1894 -91 1617 61 
Q 1341 213 1159 525 
L 1159 0 
L 581 0 
L 581 4863 
L 1159 4863 
L 1159 2969 
z
" transform="scale(0.015625)"/>
       <path id="DejaVuSans-65" d="M 3597 1894 
L 3597 1613 
L 953 1613 
Q 991 1019 1311 708 
Q 1631 397 2203 397 
Q 2534 397 2845 478 
Q 3156 559 3463 722 
L 3463 178 
Q 3153 47 2828 -22 
Q 2503 -91 2169 -91 
Q 1331 -91 842 396 
Q 353 884 353 1716 
Q 353 2575 817 3079 
Q 1281 3584 2069 3584 
Q 2775 3584 3186 3129 
Q 3597 2675 3597 1894 
z
M 3022 2063 
Q 3016 2534 2758 2815 
Q 2500 3097 2075 3097 
Q 1594 3097 1305 2825 
Q 1016 2553 972 2059 
L 3022 2063 
z
" transform="scale(0.015625)"/>
       <path id="DejaVuSans-72" d="M 2631 2963 
Q 2534 3019 2420 3045 
Q 2306 3072 2169 3072 
Q 1681 3072 1420 2755 
Q 1159 2438 1159 1844 
L 1159 0 
L 581 0 
L 581 3500 
L 1159 3500 
L 1159 2956 
Q 1341 3275 1631 3429 
Q 1922 3584 2338 3584 
Q 2397 3584 2469 3576 
Q 2541 3569 2628 3553 
L 2631 2963 
z
" transform="scale(0.015625)"/>
      </defs>
      <use xlink:href="#DejaVuSans-4c"/>
      <use xlink:href="#DejaVuSans-61" x="55.712891"/>
      <use xlink:href="#DejaVuSans-70" x="116.992188"/>
      <use xlink:href="#DejaVuSans-20" x="180.46875"/>
      <use xlink:href="#DejaVuSans-4e" x="212.255859"/>
      <use xlink:href="#DejaVuSans-75" x="287.060547"/>
      <use xlink:href="#DejaVuSans-6d" x="350.439453"/>
      <use xlink:href="#DejaVuSans-62" x="447.851562"/>
      <use xlink:href="#DejaVuSans-65" x="511.328125"/>
      <use xlink:href="#DejaVuSans-72" x="572.851562"/>
     </g>
    </g>
   </g>
   <g id="matplotlib.axis_2">
    <g id="ytick_1">
     <g id="line2d_22">
      <path d="M 43.78125 457.478125 
L 610.158523 457.478125 
" clip-path="url(#pba0825ec00)" style="fill: none; stroke: #b0b0b0; stroke-width: 0.8; stroke-linecap: square"/>
     </g>
     <g id="line2d_23">
      <defs>
       <path id="m04c1f36a2f" d="M 0 0 
L -3.5 0 
" style="stroke: #000000; stroke-width: 0.8"/>
      </defs>
      <g>
       <use xlink:href="#m04c1f36a2f" x="43.78125" y="457.478125" style="stroke: #000000; stroke-width: 0.8"/>
      </g>
     </g>
     <g id="text_12">
      <!-- 0.0 -->
      <g transform="translate(20.878125 461.277344) scale(0.1 -0.1)">
       <defs>
        <path id="DejaVuSans-2e" d="M 684 794 
L 1344 794 
L 1344 0 
L 684 0 
L 684 794 
z
" transform="scale(0.015625)"/>
       </defs>
       <use xlink:href="#DejaVuSans-30"/>
       <use xlink:href="#DejaVuSans-2e" x="63.623047"/>
       <use xlink:href="#DejaVuSans-30" x="95.410156"/>
      </g>
     </g>
    </g>
    <g id="ytick_2">
     <g id="line2d_24">
      <path d="M 43.78125 370.446125 
L 610.158523 370.446125 
" clip-path="url(#pba0825ec00)" style="fill: none; stroke: #b0b0b0; stroke-width: 0.8; stroke-linecap: square"/>
     </g>
     <g id="line2d_25">
      <g>
       <use xlink:href="#m04c1f36a2f" x="43.78125" y="370.446125" style="stroke: #000000; stroke-width: 0.8"/>
      </g>
     </g>
     <g id="text_13">
      <!-- 0.2 -->
      <g transform="translate(20.878125 374.245344) scale(0.1 -0.1)">
       <use xlink:href="#DejaVuSans-30"/>
       <use xlink:href="#DejaVuSans-2e" x="63.623047"/>
       <use xlink:href="#DejaVuSans-32" x="95.410156"/>
      </g>
     </g>
    </g>
    <g id="ytick_3">
     <g id="line2d_26">
      <path d="M 43.78125 283.414125 
L 610.158523 283.414125 
" clip-path="url(#pba0825ec00)" style="fill: none; stroke: #b0b0b0; stroke-width: 0.8; stroke-linecap: square"/>
     </g>
     <g id="line2d_27">
      <g>
       <use xlink:href="#m04c1f36a2f" x="43.78125" y="283.414125" style="stroke: #000000; stroke-width: 0.8"/>
      </g>
     </g>
     <g id="text_14">
      <!-- 0.4 -->
      <g transform="translate(20.878125 287.213344) scale(0.1 -0.1)">
       <use xlink:href="#DejaVuSans-30"/>
       <use xlink:href="#DejaVuSans-2e" x="63.623047"/>
       <use xlink:href="#DejaVuSans-34" x="95.410156"/>
      </g>
     </g>
    </g>
    <g id="ytick_4">
     <g id="line2d_28">
      <path d="M 43.78125 196.382125 
L 610.158523 196.382125 
" clip-path="url(#pba0825ec00)" style="fill: none; stroke: #b0b0b0; stroke-width: 0.8; stroke-linecap: square"/>
     </g>
     <g id="line2d_29">
      <g>
       <use xlink:href="#m04c1f36a2f" x="43.78125" y="196.382125" style="stroke: #000000; stroke-width: 0.8"/>
      </g>
     </g>
     <g id="text_15">
      <!-- 0.6 -->
      <g transform="translate(20.878125 200.181344) scale(0.1 -0.1)">
       <defs>
        <path id="DejaVuSans-36" d="M 2113 2584 
Q 1688 2584 1439 2293 
Q 1191 2003 1191 1497 
Q 1191 994 1439 701 
Q 1688 409 2113 409 
Q 2538 409 2786 701 
Q 3034 994 3034 1497 
Q 3034 2003 2786 2293 
Q 2538 2584 2113 2584 
z
M 3366 4563 
L 3366 3988 
Q 3128 4100 2886 4159 
Q 2644 4219 2406 4219 
Q 1781 4219 1451 3797 
Q 1122 3375 1075 2522 
Q 1259 2794 1537 2939 
Q 1816 3084 2150 3084 
Q 2853 3084 3261 2657 
Q 3669 2231 3669 1497 
Q 3669 778 3244 343 
Q 2819 -91 2113 -91 
Q 1303 -91 875 529 
Q 447 1150 447 2328 
Q 447 3434 972 4092 
Q 1497 4750 2381 4750 
Q 2619 4750 2861 4703 
Q 3103 4656 3366 4563 
z
" transform="scale(0.015625)"/>
       </defs>
       <use xlink:href="#DejaVuSans-30"/>
       <use xlink:href="#DejaVuSans-2e" x="63.623047"/>
       <use xlink:href="#DejaVuSans-36" x="95.410156"/>
      </g>
     </g>
    </g>
    <g id="ytick_5">
     <g id="line2d_30">
      <path d="M 43.78125 109.350125 
L 610.158523 109.350125 
" clip-path="url(#pba0825ec00)" style="fill: none; stroke: #b0b0b0; stroke-width: 0.8; stroke-linecap: square"/>
     </g>
     <g id="line2d_31">
      <g>
       <use xlink:href="#m04c1f36a2f" x="43.78125" y="109.350125" style="stroke: #000000; stroke-width: 0.8"/>
      </g>
     </g>
     <g id="text_16">
      <!-- 0.8 -->
      <g transform="translate(20.878125 113.149344) scale(0.1 -0.1)">
       <defs>
        <path id="DejaVuSans-38" d="M 2034 2216 
Q 1584 2216 1326 1975 
Q 1069 1734 1069 1313 
Q 1069 891 1326 650 
Q 1584 409 2034 409 
Q 2484 409 2743 651 
Q 3003 894 3003 1313 
Q 3003 1734 2745 1975 
Q 2488 2216 2034 2216 
z
M 1403 2484 
Q 997 2584 770 2862 
Q 544 3141 544 3541 
Q 544 4100 942 4425 
Q 1341 4750 2034 4750 
Q 2731 4750 3128 4425 
Q 3525 4100 3525 3541 
Q 3525 3141 3298 2862 
Q 3072 2584 2669 2484 
Q 3125 2378 3379 2068 
Q 3634 1759 3634 1313 
Q 3634 634 3220 271 
Q 2806 -91 2034 -91 
Q 1263 -91 848 271 
Q 434 634 434 1313 
Q 434 1759 690 2068 
Q 947 2378 1403 2484 
z
M 1172 3481 
Q 1172 3119 1398 2916 
Q 1625 2713 2034 2713 
Q 2441 2713 2670 2916 
Q 2900 3119 2900 3481 
Q 2900 3844 2670 4047 
Q 2441 4250 2034 4250 
Q 1625 4250 1398 4047 
Q 1172 3844 1172 3481 
z
" transform="scale(0.015625)"/>
       </defs>
       <use xlink:href="#DejaVuSans-30"/>
       <use xlink:href="#DejaVuSans-2e" x="63.623047"/>
       <use xlink:href="#DejaVuSans-38" x="95.410156"/>
      </g>
     </g>
    </g>
    <g id="ytick_6">
     <g id="line2d_32">
      <path d="M 43.78125 22.318125 
L 610.158523 22.318125 
" clip-path="url(#pba0825ec00)" style="fill: none; stroke: #b0b0b0; stroke-width: 0.8; stroke-linecap: square"/>
     </g>
     <g id="line2d_33">
      <g>
       <use xlink:href="#m04c1f36a2f" x="43.78125" y="22.318125" style="stroke: #000000; stroke-width: 0.8"/>
      </g>
     </g>
     <g id="text_17">
      <!-- 1.0 -->
      <g transform="translate(20.878125 26.117344) scale(0.1 -0.1)">
       <use xlink:href="#DejaVuSans-31"/>
       <use xlink:href="#DejaVuSans-2e" x="63.623047"/>
       <use xlink:href="#DejaVuSans-30" x="95.410156"/>
      </g>
     </g>
    </g>
    <g id="text_18">
     <!-- Probability of pitting -->
     <g transform="translate(14.798438 290.540313) rotate(-90) scale(0.1 -0.1)">
      <defs>
       <path id="DejaVuSans-50" d="M 1259 4147 
L 1259 2394 
L 2053 2394 
Q 2494 2394 2734 2622 
Q 2975 2850 2975 3272 
Q 2975 3691 2734 3919 
Q 2494 4147 2053 4147 
L 1259 4147 
z
M 628 4666 
L 2053 4666 
Q 2838 4666 3239 4311 
Q 3641 3956 3641 3272 
Q 3641 2581 3239 2228 
Q 2838 1875 2053 1875 
L 1259 1875 
L 1259 0 
L 628 0 
L 628 4666 
z
" transform="scale(0.015625)"/>
       <path id="DejaVuSans-6f" d="M 1959 3097 
Q 1497 3097 1228 2736 
Q 959 2375 959 1747 
Q 959 1119 1226 758 
Q 1494 397 1959 397 
Q 2419 397 2687 759 
Q 2956 1122 2956 1747 
Q 2956 2369 2687 2733 
Q 2419 3097 1959 3097 
z
M 1959 3584 
Q 2709 3584 3137 3096 
Q 3566 2609 3566 1747 
Q 3566 888 3137 398 
Q 2709 -91 1959 -91 
Q 1206 -91 779 398 
Q 353 888 353 1747 
Q 353 2609 779 3096 
Q 1206 3584 1959 3584 
z
" transform="scale(0.015625)"/>
       <path id="DejaVuSans-69" d="M 603 3500 
L 1178 3500 
L 1178 0 
L 603 0 
L 603 3500 
z
M 603 4863 
L 1178 4863 
L 1178 4134 
L 603 4134 
L 603 4863 
z
" transform="scale(0.015625)"/>
       <path id="DejaVuSans-6c" d="M 603 4863 
L 1178 4863 
L 1178 0 
L 603 0 
L 603 4863 
z
" transform="scale(0.015625)"/>
       <path id="DejaVuSans-74" d="M 1172 4494 
L 1172 3500 
L 2356 3500 
L 2356 3053 
L 1172 3053 
L 1172 1153 
Q 1172 725 1289 603 
Q 1406 481 1766 481 
L 2356 481 
L 2356 0 
L 1766 0 
Q 1100 0 847 248 
Q 594 497 594 1153 
L 594 3053 
L 172 3053 
L 172 3500 
L 594 3500 
L 594 4494 
L 1172 4494 
z
" transform="scale(0.015625)"/>
       <path id="DejaVuSans-79" d="M 2059 -325 
Q 1816 -950 1584 -1140 
Q 1353 -1331 966 -1331 
L 506 -1331 
L 506 -850 
L 844 -850 
Q 1081 -850 1212 -737 
Q 1344 -625 1503 -206 
L 1606 56 
L 191 3500 
L 800 3500 
L 1894 763 
L 2988 3500 
L 3597 3500 
L 2059 -325 
z
" transform="scale(0.015625)"/>
       <path id="DejaVuSans-66" d="M 2375 4863 
L 2375 4384 
L 1825 4384 
Q 1516 4384 1395 4259 
Q 1275 4134 1275 3809 
L 1275 3500 
L 2222 3500 
L 2222 3053 
L 1275 3053 
L 1275 0 
L 697 0 
L 697 3053 
L 147 3053 
L 147 3500 
L 697 3500 
L 697 3744 
Q 697 4328 969 4595 
Q 1241 4863 1831 4863 
L 2375 4863 
z
" transform="scale(0.015625)"/>
       <path id="DejaVuSans-6e" d="M 3513 2113 
L 3513 0 
L 2938 0 
L 2938 2094 
Q 2938 2591 2744 2837 
Q 2550 3084 2163 3084 
Q 1697 3084 1428 2787 
Q 1159 2491 1159 1978 
L 1159 0 
L 581 0 
L 581 3500 
L 1159 3500 
L 1159 2956 
Q 1366 3272 1645 3428 
Q 1925 3584 2291 3584 
Q 2894 3584 3203 3211 
Q 3513 2838 3513 2113 
z
" transform="scale(0.015625)"/>
       <path id="DejaVuSans-67" d="M 2906 1791 
Q 2906 2416 2648 2759 
Q 2391 3103 1925 3103 
Q 1463 3103 1205 2759 
Q 947 2416 947 1791 
Q 947 1169 1205 825 
Q 1463 481 1925 481 
Q 2391 481 2648 825 
Q 2906 1169 2906 1791 
z
M 3481 434 
Q 3481 -459 3084 -895 
Q 2688 -1331 1869 -1331 
Q 1566 -1331 1297 -1286 
Q 1028 -1241 775 -1147 
L 775 -588 
Q 1028 -725 1275 -790 
Q 1522 -856 1778 -856 
Q 2344 -856 2625 -561 
Q 2906 -266 2906 331 
L 2906 616 
Q 2728 306 2450 153 
Q 2172 0 1784 0 
Q 1141 0 747 490 
Q 353 981 353 1791 
Q 353 2603 747 3093 
Q 1141 3584 1784 3584 
Q 2172 3584 2450 3431 
Q 2728 3278 2906 2969 
L 2906 3500 
L 3481 3500 
L 3481 434 
z
" transform="scale(0.015625)"/>
      </defs>
      <use xlink:href="#DejaVuSans-50"/>
      <use xlink:href="#DejaVuSans-72" x="58.552734"/>
      <use xlink:href="#DejaVuSans-6f" x="97.416016"/>
      <use xlink:href="#DejaVuSans-62" x="158.597656"/>
      <use xlink:href="#DejaVuSans-61" x="222.074219"/>
      <use xlink:href="#DejaVuSans-62" x="283.353516"/>
      <use xlink:href="#DejaVuSans-69" x="346.830078"/>
      <use xlink:href="#DejaVuSans-6c" x="374.613281"/>
      <use xlink:href="#DejaVuSans-69" x="402.396484"/>
      <use xlink:href="#DejaVuSans-74" x="430.179688"/>
      <use xlink:href="#DejaVuSans-79" x="469.388672"/>
      <use xlink:href="#DejaVuSans-20" x="528.568359"/>
      <use xlink:href="#DejaVuSans-6f" x="560.355469"/>
      <use xlink:href="#DejaVuSans-66" x="621.537109"/>
      <use xlink:href="#DejaVuSans-20" x="656.742188"/>
      <use xlink:href="#DejaVuSans-70" x="688.529297"/>
      <use xlink:href="#DejaVuSans-69" x="752.005859"/>
      <use xlink:href="#DejaVuSans-74" x="779.789062"/>
      <use xlink:href="#DejaVuSans-74" x="818.998047"/>
      <use xlink:href="#DejaVuSans-69" x="858.207031"/>
      <use xlink:href="#DejaVuSans-6e" x="885.990234"/>
      <use xlink:href="#DejaVuSans-67" x="949.369141"/>
     </g>
    </g>
   </g>
   <g id="patch_55">
    <path d="M 43.78125 457.478125 
L 43.78125 22.318125 
" style="fill: none; stroke: #000000; stroke-width: 0.8; stroke-linejoin: miter; stroke-linecap: square"/>
   </g>
   <g id="patch_56">
    <path d="M 610.158523 457.478125 
L 610.158523 22.318125 
" style="fill: none; stroke: #000000; stroke-width: 0.8; stroke-linejoin: miter; stroke-linecap: square"/>
   </g>
   <g id="patch_57">
    <path d="M 43.78125 457.478125 
L 610.158523 457.478125 
" style="fill: none; stroke: #000000; stroke-width: 0.8; stroke-linejoin: miter; stroke-linecap: square"/>
   </g>
   <g id="patch_58">
    <path d="M 43.78125 22.318125 
L 610.158523 22.318125 
" style="fill: none; stroke: #000000; stroke-width: 0.8; stroke-linejoin: miter; stroke-linecap: square"/>
   </g>
   <g id="text_19">
    <!-- Baku - Driver 11 -->
    <g transform="translate(278.103636 16.318125) scale(0.12 -0.12)">
     <defs>
      <path id="DejaVuSans-42" d="M 1259 2228 
L 1259 519 
L 2272 519 
Q 2781 519 3026 730 
Q 3272 941 3272 1375 
Q 3272 1813 3026 2020 
Q 2781 2228 2272 2228 
L 1259 2228 
z
M 1259 4147 
L 1259 2741 
L 2194 2741 
Q 2656 2741 2882 2914 
Q 3109 3088 3109 3444 
Q 3109 3797 2882 3972 
Q 2656 4147 2194 4147 
L 1259 4147 
z
M 628 4666 
L 2241 4666 
Q 2963 4666 3353 4366 
Q 3744 4066 3744 3513 
Q 3744 3084 3544 2831 
Q 3344 2578 2956 2516 
Q 3422 2416 3680 2098 
Q 3938 1781 3938 1306 
Q 3938 681 3513 340 
Q 3088 0 2303 0 
L 628 0 
L 628 4666 
z
" transform="scale(0.015625)"/>
      <path id="DejaVuSans-6b" d="M 581 4863 
L 1159 4863 
L 1159 1991 
L 2875 3500 
L 3609 3500 
L 1753 1863 
L 3688 0 
L 2938 0 
L 1159 1709 
L 1159 0 
L 581 0 
L 581 4863 
z
" transform="scale(0.015625)"/>
      <path id="DejaVuSans-2d" d="M 313 2009 
L 1997 2009 
L 1997 1497 
L 313 1497 
L 313 2009 
z
" transform="scale(0.015625)"/>
      <path id="DejaVuSans-44" d="M 1259 4147 
L 1259 519 
L 2022 519 
Q 2988 519 3436 956 
Q 3884 1394 3884 2338 
Q 3884 3275 3436 3711 
Q 2988 4147 2022 4147 
L 1259 4147 
z
M 628 4666 
L 1925 4666 
Q 3281 4666 3915 4102 
Q 4550 3538 4550 2338 
Q 4550 1131 3912 565 
Q 3275 0 1925 0 
L 628 0 
L 628 4666 
z
" transform="scale(0.015625)"/>
      <path id="DejaVuSans-76" d="M 191 3500 
L 800 3500 
L 1894 563 
L 2988 3500 
L 3597 3500 
L 2284 0 
L 1503 0 
L 191 3500 
z
" transform="scale(0.015625)"/>
     </defs>
     <use xlink:href="#DejaVuSans-42"/>
     <use xlink:href="#DejaVuSans-61" x="68.603516"/>
     <use xlink:href="#DejaVuSans-6b" x="129.882812"/>
     <use xlink:href="#DejaVuSans-75" x="184.667969"/>
     <use xlink:href="#DejaVuSans-20" x="248.046875"/>
     <use xlink:href="#DejaVuSans-2d" x="279.833984"/>
     <use xlink:href="#DejaVuSans-20" x="315.917969"/>
     <use xlink:href="#DejaVuSans-44" x="347.705078"/>
     <use xlink:href="#DejaVuSans-72" x="424.707031"/>
     <use xlink:href="#DejaVuSans-69" x="465.820312"/>
     <use xlink:href="#DejaVuSans-76" x="493.603516"/>
     <use xlink:href="#DejaVuSans-65" x="552.783203"/>
     <use xlink:href="#DejaVuSans-72" x="614.306641"/>
     <use xlink:href="#DejaVuSans-20" x="655.419922"/>
     <use xlink:href="#DejaVuSans-31" x="687.207031"/>
     <use xlink:href="#DejaVuSans-31" x="750.830078"/>
    </g>
   </g>
   <g id="legend_1">
    <g id="patch_59">
     <path d="M 617.822295 98.986875 
L 725.88792 98.986875 
Q 727.88792 98.986875 727.88792 96.986875 
L 727.88792 24.318125 
Q 727.88792 22.318125 725.88792 22.318125 
L 617.822295 22.318125 
Q 615.822295 22.318125 615.822295 24.318125 
L 615.822295 96.986875 
Q 615.822295 98.986875 617.822295 98.986875 
z
" style="fill: #ffffff; opacity: 0.8; stroke: #cccccc; stroke-linejoin: miter"/>
    </g>
    <g id="patch_60">
     <path d="M 619.822295 33.916562 
L 639.822295 33.916562 
L 639.822295 26.916562 
L 619.822295 26.916562 
z
" style="fill: #ffff00; opacity: 0.3"/>
    </g>
    <g id="text_20">
     <!-- Yellow Flag -->
     <g transform="translate(647.822295 33.916562) scale(0.1 -0.1)">
      <defs>
       <path id="DejaVuSans-59" d="M -13 4666 
L 666 4666 
L 1959 2747 
L 3244 4666 
L 3922 4666 
L 2272 2222 
L 2272 0 
L 1638 0 
L 1638 2222 
L -13 4666 
z
" transform="scale(0.015625)"/>
       <path id="DejaVuSans-77" d="M 269 3500 
L 844 3500 
L 1563 769 
L 2278 3500 
L 2956 3500 
L 3675 769 
L 4391 3500 
L 4966 3500 
L 4050 0 
L 3372 0 
L 2619 2869 
L 1863 0 
L 1184 0 
L 269 3500 
z
" transform="scale(0.015625)"/>
       <path id="DejaVuSans-46" d="M 628 4666 
L 3309 4666 
L 3309 4134 
L 1259 4134 
L 1259 2759 
L 3109 2759 
L 3109 2228 
L 1259 2228 
L 1259 0 
L 628 0 
L 628 4666 
z
" transform="scale(0.015625)"/>
      </defs>
      <use xlink:href="#DejaVuSans-59"/>
      <use xlink:href="#DejaVuSans-65" x="47.833984"/>
      <use xlink:href="#DejaVuSans-6c" x="109.357422"/>
      <use xlink:href="#DejaVuSans-6c" x="137.140625"/>
      <use xlink:href="#DejaVuSans-6f" x="164.923828"/>
      <use xlink:href="#DejaVuSans-77" x="226.105469"/>
      <use xlink:href="#DejaVuSans-20" x="307.892578"/>
      <use xlink:href="#DejaVuSans-46" x="339.679688"/>
      <use xlink:href="#DejaVuSans-6c" x="397.199219"/>
      <use xlink:href="#DejaVuSans-61" x="424.982422"/>
      <use xlink:href="#DejaVuSans-67" x="486.261719"/>
     </g>
    </g>
    <g id="patch_61">
     <path d="M 619.822295 48.594688 
L 639.822295 48.594688 
L 639.822295 41.594688 
L 619.822295 41.594688 
z
" style="fill: url(#haff72b5384); opacity: 0.3; stroke: #000000; stroke-linejoin: miter"/>
    </g>
    <g id="text_21">
     <!-- Safety Car -->
     <g transform="translate(647.822295 48.594688) scale(0.1 -0.1)">
      <defs>
       <path id="DejaVuSans-53" d="M 3425 4513 
L 3425 3897 
Q 3066 4069 2747 4153 
Q 2428 4238 2131 4238 
Q 1616 4238 1336 4038 
Q 1056 3838 1056 3469 
Q 1056 3159 1242 3001 
Q 1428 2844 1947 2747 
L 2328 2669 
Q 3034 2534 3370 2195 
Q 3706 1856 3706 1288 
Q 3706 609 3251 259 
Q 2797 -91 1919 -91 
Q 1588 -91 1214 -16 
Q 841 59 441 206 
L 441 856 
Q 825 641 1194 531 
Q 1563 422 1919 422 
Q 2459 422 2753 634 
Q 3047 847 3047 1241 
Q 3047 1584 2836 1778 
Q 2625 1972 2144 2069 
L 1759 2144 
Q 1053 2284 737 2584 
Q 422 2884 422 3419 
Q 422 4038 858 4394 
Q 1294 4750 2059 4750 
Q 2388 4750 2728 4690 
Q 3069 4631 3425 4513 
z
" transform="scale(0.015625)"/>
       <path id="DejaVuSans-43" d="M 4122 4306 
L 4122 3641 
Q 3803 3938 3442 4084 
Q 3081 4231 2675 4231 
Q 1875 4231 1450 3742 
Q 1025 3253 1025 2328 
Q 1025 1406 1450 917 
Q 1875 428 2675 428 
Q 3081 428 3442 575 
Q 3803 722 4122 1019 
L 4122 359 
Q 3791 134 3420 21 
Q 3050 -91 2638 -91 
Q 1578 -91 968 557 
Q 359 1206 359 2328 
Q 359 3453 968 4101 
Q 1578 4750 2638 4750 
Q 3056 4750 3426 4639 
Q 3797 4528 4122 4306 
z
" transform="scale(0.015625)"/>
      </defs>
      <use xlink:href="#DejaVuSans-53"/>
      <use xlink:href="#DejaVuSans-61" x="63.476562"/>
      <use xlink:href="#DejaVuSans-66" x="124.755859"/>
      <use xlink:href="#DejaVuSans-65" x="159.960938"/>
      <use xlink:href="#DejaVuSans-74" x="221.484375"/>
      <use xlink:href="#DejaVuSans-79" x="260.693359"/>
      <use xlink:href="#DejaVuSans-20" x="319.873047"/>
      <use xlink:href="#DejaVuSans-43" x="351.660156"/>
      <use xlink:href="#DejaVuSans-61" x="421.484375"/>
      <use xlink:href="#DejaVuSans-72" x="482.763672"/>
     </g>
    </g>
    <g id="patch_62">
     <path d="M 619.822295 63.272812 
L 639.822295 63.272812 
L 639.822295 56.272812 
L 619.822295 56.272812 
z
" style="fill: #ffff00"/>
    </g>
    <g id="text_22">
     <!-- Medium -->
     <g transform="translate(647.822295 63.272812) scale(0.1 -0.1)">
      <defs>
       <path id="DejaVuSans-4d" d="M 628 4666 
L 1569 4666 
L 2759 1491 
L 3956 4666 
L 4897 4666 
L 4897 0 
L 4281 0 
L 4281 4097 
L 3078 897 
L 2444 897 
L 1241 4097 
L 1241 0 
L 628 0 
L 628 4666 
z
" transform="scale(0.015625)"/>
       <path id="DejaVuSans-64" d="M 2906 2969 
L 2906 4863 
L 3481 4863 
L 3481 0 
L 2906 0 
L 2906 525 
Q 2725 213 2448 61 
Q 2172 -91 1784 -91 
Q 1150 -91 751 415 
Q 353 922 353 1747 
Q 353 2572 751 3078 
Q 1150 3584 1784 3584 
Q 2172 3584 2448 3432 
Q 2725 3281 2906 2969 
z
M 947 1747 
Q 947 1113 1208 752 
Q 1469 391 1925 391 
Q 2381 391 2643 752 
Q 2906 1113 2906 1747 
Q 2906 2381 2643 2742 
Q 2381 3103 1925 3103 
Q 1469 3103 1208 2742 
Q 947 2381 947 1747 
z
" transform="scale(0.015625)"/>
      </defs>
      <use xlink:href="#DejaVuSans-4d"/>
      <use xlink:href="#DejaVuSans-65" x="86.279297"/>
      <use xlink:href="#DejaVuSans-64" x="147.802734"/>
      <use xlink:href="#DejaVuSans-69" x="211.279297"/>
      <use xlink:href="#DejaVuSans-75" x="239.0625"/>
      <use xlink:href="#DejaVuSans-6d" x="302.441406"/>
     </g>
    </g>
    <g id="patch_63">
     <path d="M 619.822295 77.950938 
L 639.822295 77.950938 
L 639.822295 70.950938 
L 619.822295 70.950938 
z
" style="fill: #808080"/>
    </g>
    <g id="text_23">
     <!-- Hard -->
     <g transform="translate(647.822295 77.950938) scale(0.1 -0.1)">
      <defs>
       <path id="DejaVuSans-48" d="M 628 4666 
L 1259 4666 
L 1259 2753 
L 3553 2753 
L 3553 4666 
L 4184 4666 
L 4184 0 
L 3553 0 
L 3553 2222 
L 1259 2222 
L 1259 0 
L 628 0 
L 628 4666 
z
" transform="scale(0.015625)"/>
      </defs>
      <use xlink:href="#DejaVuSans-48"/>
      <use xlink:href="#DejaVuSans-61" x="75.195312"/>
      <use xlink:href="#DejaVuSans-72" x="136.474609"/>
      <use xlink:href="#DejaVuSans-64" x="175.837891"/>
     </g>
    </g>
    <g id="PathCollection_2">
     <g>
      <use xlink:href="#m29505d8ac0" x="629.822295" y="90.004063" style="fill: #1f77b4; stroke: #ffffff; stroke-width: 0.565685"/>
     </g>
    </g>
    <g id="text_24">
     <!-- model f1_score -->
     <g transform="translate(647.822295 92.629063) scale(0.1 -0.1)">
      <defs>
       <path id="DejaVuSans-5f" d="M 3263 -1063 
L 3263 -1509 
L -63 -1509 
L -63 -1063 
L 3263 -1063 
z
" transform="scale(0.015625)"/>
       <path id="DejaVuSans-73" d="M 2834 3397 
L 2834 2853 
Q 2591 2978 2328 3040 
Q 2066 3103 1784 3103 
Q 1356 3103 1142 2972 
Q 928 2841 928 2578 
Q 928 2378 1081 2264 
Q 1234 2150 1697 2047 
L 1894 2003 
Q 2506 1872 2764 1633 
Q 3022 1394 3022 966 
Q 3022 478 2636 193 
Q 2250 -91 1575 -91 
Q 1294 -91 989 -36 
Q 684 19 347 128 
L 347 722 
Q 666 556 975 473 
Q 1284 391 1588 391 
Q 1994 391 2212 530 
Q 2431 669 2431 922 
Q 2431 1156 2273 1281 
Q 2116 1406 1581 1522 
L 1381 1569 
Q 847 1681 609 1914 
Q 372 2147 372 2553 
Q 372 3047 722 3315 
Q 1072 3584 1716 3584 
Q 2034 3584 2315 3537 
Q 2597 3491 2834 3397 
z
" transform="scale(0.015625)"/>
       <path id="DejaVuSans-63" d="M 3122 3366 
L 3122 2828 
Q 2878 2963 2633 3030 
Q 2388 3097 2138 3097 
Q 1578 3097 1268 2742 
Q 959 2388 959 1747 
Q 959 1106 1268 751 
Q 1578 397 2138 397 
Q 2388 397 2633 464 
Q 2878 531 3122 666 
L 3122 134 
Q 2881 22 2623 -34 
Q 2366 -91 2075 -91 
Q 1284 -91 818 406 
Q 353 903 353 1747 
Q 353 2603 823 3093 
Q 1294 3584 2113 3584 
Q 2378 3584 2631 3529 
Q 2884 3475 3122 3366 
z
" transform="scale(0.015625)"/>
      </defs>
      <use xlink:href="#DejaVuSans-6d"/>
      <use xlink:href="#DejaVuSans-6f" x="97.412109"/>
      <use xlink:href="#DejaVuSans-64" x="158.59375"/>
      <use xlink:href="#DejaVuSans-65" x="222.070312"/>
      <use xlink:href="#DejaVuSans-6c" x="283.59375"/>
      <use xlink:href="#DejaVuSans-20" x="311.376953"/>
      <use xlink:href="#DejaVuSans-66" x="343.164062"/>
      <use xlink:href="#DejaVuSans-31" x="378.369141"/>
      <use xlink:href="#DejaVuSans-5f" x="441.992188"/>
      <use xlink:href="#DejaVuSans-73" x="491.992188"/>
      <use xlink:href="#DejaVuSans-63" x="544.091797"/>
      <use xlink:href="#DejaVuSans-6f" x="599.072266"/>
      <use xlink:href="#DejaVuSans-72" x="660.253906"/>
      <use xlink:href="#DejaVuSans-65" x="699.117188"/>
     </g>
    </g>
   </g>
  </g>
  <g id="axes_2">
   <g id="patch_64">
    <path d="M 741.67125 457.478125 
L 1308.048523 457.478125 
L 1308.048523 22.318125 
L 741.67125 22.318125 
z
" style="fill: #ffffff"/>
   </g>
   <g id="patch_65">
    <path d="M 730.11253 26.669725 
L 730.11253 22.318125 
L 741.67125 22.318125 
L 741.67125 26.669725 
z
" clip-path="url(#pc02a79044d)" style="fill: #ffff00"/>
   </g>
   <g id="patch_66">
    <path d="M 741.67125 26.669725 
L 741.67125 22.318125 
L 753.22997 22.318125 
L 753.22997 26.669725 
z
" clip-path="url(#pc02a79044d)" style="fill: #ffff00"/>
   </g>
   <g id="patch_67">
    <path d="M 753.22997 26.669725 
L 753.22997 22.318125 
L 764.78869 22.318125 
L 764.78869 26.669725 
z
" clip-path="url(#pc02a79044d)" style="fill: #ffff00"/>
   </g>
   <g id="patch_68">
    <path d="M 764.78869 26.669725 
L 764.78869 22.318125 
L 776.34741 22.318125 
L 776.34741 26.669725 
z
" clip-path="url(#pc02a79044d)" style="fill: #ffff00"/>
   </g>
   <g id="patch_69">
    <path d="M 776.34741 26.669725 
L 776.34741 22.318125 
L 787.906129 22.318125 
L 787.906129 26.669725 
z
" clip-path="url(#pc02a79044d)" style="fill: #ffff00"/>
   </g>
   <g id="patch_70">
    <path d="M 787.906129 26.669725 
L 787.906129 22.318125 
L 799.464849 22.318125 
L 799.464849 26.669725 
z
" clip-path="url(#pc02a79044d)" style="fill: #ffff00"/>
   </g>
   <g id="patch_71">
    <path d="M 799.464849 26.669725 
L 799.464849 22.318125 
L 811.023569 22.318125 
L 811.023569 26.669725 
z
" clip-path="url(#pc02a79044d)" style="fill: #ffff00"/>
   </g>
   <g id="patch_72">
    <path d="M 811.023569 26.669725 
L 811.023569 22.318125 
L 822.582289 22.318125 
L 822.582289 26.669725 
z
" clip-path="url(#pc02a79044d)" style="fill: #808080"/>
   </g>
   <g id="patch_73">
    <path d="M 822.582289 26.669725 
L 822.582289 22.318125 
L 834.141009 22.318125 
L 834.141009 26.669725 
z
" clip-path="url(#pc02a79044d)" style="fill: #808080"/>
   </g>
   <g id="patch_74">
    <path d="M 845.699729 26.669725 
L 845.699729 22.318125 
L 857.258449 22.318125 
L 857.258449 26.669725 
z
" clip-path="url(#pc02a79044d)" style="fill: #808080"/>
   </g>
   <g id="patch_75">
    <path d="M 857.258449 26.669725 
L 857.258449 22.318125 
L 868.817168 22.318125 
L 868.817168 26.669725 
z
" clip-path="url(#pc02a79044d)" style="fill: #808080"/>
   </g>
   <g id="patch_76">
    <path d="M 868.817168 26.669725 
L 868.817168 22.318125 
L 880.375888 22.318125 
L 880.375888 26.669725 
z
" clip-path="url(#pc02a79044d)" style="fill: #808080"/>
   </g>
   <g id="patch_77">
    <path d="M 880.375888 26.669725 
L 880.375888 22.318125 
L 891.934608 22.318125 
L 891.934608 26.669725 
z
" clip-path="url(#pc02a79044d)" style="fill: #808080"/>
   </g>
   <g id="patch_78">
    <path d="M 891.934608 26.669725 
L 891.934608 22.318125 
L 903.493328 22.318125 
L 903.493328 26.669725 
z
" clip-path="url(#pc02a79044d)" style="fill: #808080"/>
   </g>
   <g id="patch_79">
    <path d="M 903.493328 26.669725 
L 903.493328 22.318125 
L 915.052048 22.318125 
L 915.052048 26.669725 
z
" clip-path="url(#pc02a79044d)" style="fill: #808080"/>
   </g>
   <g id="patch_80">
    <path d="M 915.052048 26.669725 
L 915.052048 22.318125 
L 926.610768 22.318125 
L 926.610768 26.669725 
z
" clip-path="url(#pc02a79044d)" style="fill: #808080"/>
   </g>
   <g id="patch_81">
    <path d="M 926.610768 26.669725 
L 926.610768 22.318125 
L 938.169487 22.318125 
L 938.169487 26.669725 
z
" clip-path="url(#pc02a79044d)" style="fill: #808080"/>
   </g>
   <g id="patch_82">
    <path d="M 938.169487 26.669725 
L 938.169487 22.318125 
L 949.728207 22.318125 
L 949.728207 26.669725 
z
" clip-path="url(#pc02a79044d)" style="fill: #808080"/>
   </g>
   <g id="patch_83">
    <path d="M 949.728207 26.669725 
L 949.728207 22.318125 
L 961.286927 22.318125 
L 961.286927 26.669725 
z
" clip-path="url(#pc02a79044d)" style="fill: #808080"/>
   </g>
   <g id="patch_84">
    <path d="M 961.286927 26.669725 
L 961.286927 22.318125 
L 972.845647 22.318125 
L 972.845647 26.669725 
z
" clip-path="url(#pc02a79044d)" style="fill: #808080"/>
   </g>
   <g id="patch_85">
    <path d="M 972.845647 26.669725 
L 972.845647 22.318125 
L 984.404367 22.318125 
L 984.404367 26.669725 
z
" clip-path="url(#pc02a79044d)" style="fill: #808080"/>
   </g>
   <g id="patch_86">
    <path d="M 984.404367 26.669725 
L 984.404367 22.318125 
L 995.963087 22.318125 
L 995.963087 26.669725 
z
" clip-path="url(#pc02a79044d)" style="fill: #808080"/>
   </g>
   <g id="patch_87">
    <path d="M 995.963087 26.669725 
L 995.963087 22.318125 
L 1007.521807 22.318125 
L 1007.521807 26.669725 
z
" clip-path="url(#pc02a79044d)" style="fill: #808080"/>
   </g>
   <g id="patch_88">
    <path d="M 1007.521807 26.669725 
L 1007.521807 22.318125 
L 1019.080526 22.318125 
L 1019.080526 26.669725 
z
" clip-path="url(#pc02a79044d)" style="fill: #808080"/>
   </g>
   <g id="patch_89">
    <path d="M 1019.080526 26.669725 
L 1019.080526 22.318125 
L 1030.639246 22.318125 
L 1030.639246 26.669725 
z
" clip-path="url(#pc02a79044d)" style="fill: #808080"/>
   </g>
   <g id="patch_90">
    <path d="M 1030.639246 26.669725 
L 1030.639246 22.318125 
L 1042.197966 22.318125 
L 1042.197966 26.669725 
z
" clip-path="url(#pc02a79044d)" style="fill: #808080"/>
   </g>
   <g id="patch_91">
    <path d="M 1042.197966 26.669725 
L 1042.197966 22.318125 
L 1053.756686 22.318125 
L 1053.756686 26.669725 
z
" clip-path="url(#pc02a79044d)" style="fill: #808080"/>
   </g>
   <g id="patch_92">
    <path d="M 1053.756686 26.669725 
L 1053.756686 22.318125 
L 1065.315406 22.318125 
L 1065.315406 26.669725 
z
" clip-path="url(#pc02a79044d)" style="fill: #808080"/>
   </g>
   <g id="patch_93">
    <path d="M 1065.315406 26.669725 
L 1065.315406 22.318125 
L 1076.874126 22.318125 
L 1076.874126 26.669725 
z
" clip-path="url(#pc02a79044d)" style="fill: #808080"/>
   </g>
   <g id="patch_94">
    <path d="M 1076.874126 26.669725 
L 1076.874126 22.318125 
L 1088.432846 22.318125 
L 1088.432846 26.669725 
z
" clip-path="url(#pc02a79044d)" style="fill: #808080"/>
   </g>
   <g id="patch_95">
    <path d="M 1088.432846 26.669725 
L 1088.432846 22.318125 
L 1099.991565 22.318125 
L 1099.991565 26.669725 
z
" clip-path="url(#pc02a79044d)" style="fill: #808080"/>
   </g>
   <g id="patch_96">
    <path d="M 1099.991565 26.669725 
L 1099.991565 22.318125 
L 1111.550285 22.318125 
L 1111.550285 26.669725 
z
" clip-path="url(#pc02a79044d)" style="fill: #808080"/>
   </g>
   <g id="patch_97">
    <path d="M 1111.550285 26.669725 
L 1111.550285 22.318125 
L 1123.109005 22.318125 
L 1123.109005 26.669725 
z
" clip-path="url(#pc02a79044d)" style="fill: #808080"/>
   </g>
   <g id="patch_98">
    <path d="M 1123.109005 26.669725 
L 1123.109005 22.318125 
L 1134.667725 22.318125 
L 1134.667725 26.669725 
z
" clip-path="url(#pc02a79044d)" style="fill: #808080"/>
   </g>
   <g id="patch_99">
    <path d="M 1134.667725 26.669725 
L 1134.667725 22.318125 
L 1146.226445 22.318125 
L 1146.226445 26.669725 
z
" clip-path="url(#pc02a79044d)" style="fill: #808080"/>
   </g>
   <g id="patch_100">
    <path d="M 1146.226445 26.669725 
L 1146.226445 22.318125 
L 1157.785165 22.318125 
L 1157.785165 26.669725 
z
" clip-path="url(#pc02a79044d)" style="fill: #808080"/>
   </g>
   <g id="patch_101">
    <path d="M 1169.343885 26.669725 
L 1169.343885 22.318125 
L 1180.902604 22.318125 
L 1180.902604 26.669725 
z
" clip-path="url(#pc02a79044d)" style="fill: #808080"/>
   </g>
   <g id="patch_102">
    <path d="M 1180.902604 26.669725 
L 1180.902604 22.318125 
L 1192.461324 22.318125 
L 1192.461324 26.669725 
z
" clip-path="url(#pc02a79044d)" style="fill: #808080"/>
   </g>
   <g id="patch_103">
    <path d="M 1192.461324 26.669725 
L 1192.461324 22.318125 
L 1204.020044 22.318125 
L 1204.020044 26.669725 
z
" clip-path="url(#pc02a79044d)" style="fill: #808080"/>
   </g>
   <g id="patch_104">
    <path d="M 1204.020044 26.669725 
L 1204.020044 22.318125 
L 1215.578764 22.318125 
L 1215.578764 26.669725 
z
" clip-path="url(#pc02a79044d)" style="fill: #808080"/>
   </g>
   <g id="patch_105">
    <path d="M 1215.578764 26.669725 
L 1215.578764 22.318125 
L 1227.137484 22.318125 
L 1227.137484 26.669725 
z
" clip-path="url(#pc02a79044d)" style="fill: #808080"/>
   </g>
   <g id="patch_106">
    <path d="M 1227.137484 26.669725 
L 1227.137484 22.318125 
L 1238.696204 22.318125 
L 1238.696204 26.669725 
z
" clip-path="url(#pc02a79044d)" style="fill: #808080"/>
   </g>
   <g id="patch_107">
    <path d="M 1238.696204 26.669725 
L 1238.696204 22.318125 
L 1250.254923 22.318125 
L 1250.254923 26.669725 
z
" clip-path="url(#pc02a79044d)" style="fill: #808080"/>
   </g>
   <g id="patch_108">
    <path d="M 1250.254923 26.669725 
L 1250.254923 22.318125 
L 1261.813643 22.318125 
L 1261.813643 26.669725 
z
" clip-path="url(#pc02a79044d)" style="fill: #808080"/>
   </g>
   <g id="patch_109">
    <path d="M 1261.813643 26.669725 
L 1261.813643 22.318125 
L 1273.372363 22.318125 
L 1273.372363 26.669725 
z
" clip-path="url(#pc02a79044d)" style="fill: #808080"/>
   </g>
   <g id="patch_110">
    <path d="M 1273.372363 26.669725 
L 1273.372363 22.318125 
L 1284.931083 22.318125 
L 1284.931083 26.669725 
z
" clip-path="url(#pc02a79044d)" style="fill: #808080"/>
   </g>
   <g id="patch_111">
    <path d="M 1284.931083 26.669725 
L 1284.931083 22.318125 
L 1296.489803 22.318125 
L 1296.489803 26.669725 
z
" clip-path="url(#pc02a79044d)" style="fill: #808080"/>
   </g>
   <g id="patch_112">
    <path d="M 1296.489803 26.669725 
L 1296.489803 22.318125 
L 1308.048523 22.318125 
L 1308.048523 26.669725 
z
" clip-path="url(#pc02a79044d)" style="fill: #808080"/>
   </g>
   <g id="patch_113">
    <path d="M 834.141009 457.478125 
L 834.141009 22.318125 
L 845.699729 22.318125 
L 845.699729 457.478125 
z
" clip-path="url(#pc02a79044d)" style="fill: url(#haff72b5384); opacity: 0.3; stroke: #000000; stroke-linejoin: miter"/>
   </g>
   <g id="patch_114">
    <path d="M 857.258449 457.478125 
L 857.258449 22.318125 
L 868.817168 22.318125 
L 868.817168 457.478125 
z
" clip-path="url(#pc02a79044d)" style="fill: url(#haff72b5384); opacity: 0.3; stroke: #000000; stroke-linejoin: miter"/>
   </g>
   <g id="patch_115">
    <path d="M 868.817168 457.478125 
L 868.817168 22.318125 
L 880.375888 22.318125 
L 880.375888 457.478125 
z
" clip-path="url(#pc02a79044d)" style="fill: url(#haff72b5384); opacity: 0.3; stroke: #000000; stroke-linejoin: miter"/>
   </g>
   <g id="patch_116">
    <path d="M 915.052048 457.478125 
L 915.052048 22.318125 
L 926.610768 22.318125 
L 926.610768 457.478125 
z
" clip-path="url(#pc02a79044d)" style="fill: #ffff00; opacity: 0.3"/>
   </g>
   <g id="patch_117">
    <path d="M 1273.372363 457.478125 
L 1273.372363 22.318125 
L 1284.931083 22.318125 
L 1284.931083 457.478125 
z
" clip-path="url(#pc02a79044d)" style="fill: #ffff00; opacity: 0.3"/>
   </g>
   <g id="LineCollection_3">
    <path d="M 741.67125 239.898125 
L 1308.048523 239.898125 
" clip-path="url(#pc02a79044d)" style="fill: none; stroke-dasharray: 1,1.65; stroke-dashoffset: 0; stroke: #000000"/>
   </g>
   <g id="LineCollection_4">
    <path d="M 799.464849 457.478125 
L 799.464849 22.318125 
" clip-path="url(#pc02a79044d)" style="fill: none; stroke-dasharray: 3.7,1.6; stroke-dashoffset: 0; stroke: #ff0000"/>
   </g>
   <g id="line2d_34">
    <path d="M 741.67125 325.565228 
L 753.22997 323.425902 
L 764.78869 322.926258 
L 776.34741 315.350943 
L 787.906129 282.2894 
L 799.464849 276.37891 
L 811.023569 249.059443 
L 822.582289 322.551289 
L 834.141009 299.658007 
L 857.258449 309.647565 
L 868.817168 318.497343 
L 880.375888 329.082328 
L 891.934608 329.802238 
L 903.493328 328.843865 
L 915.052048 302.026163 
L 926.610768 324.563888 
L 938.169487 302.144267 
L 949.728207 282.871274 
L 961.286927 270.517518 
L 972.845647 267.920105 
L 984.404367 261.588989 
L 995.963087 260.193659 
L 1007.521807 257.430543 
L 1019.080526 255.299852 
L 1030.639246 254.44934 
L 1042.197966 253.402069 
L 1053.756686 252.580445 
L 1065.315406 253.223716 
L 1076.874126 253.249625 
L 1088.432846 252.88123 
L 1099.991565 253.564785 
L 1111.550285 253.228286 
L 1123.109005 253.455761 
L 1134.667725 253.694076 
L 1146.226445 238.917967 
L 1157.785165 238.930963 
L 1180.902604 239.145013 
L 1192.461324 239.288228 
L 1204.020044 239.089936 
L 1215.578764 251.910974 
L 1227.137484 243.048395 
L 1238.696204 239.453421 
L 1250.254923 239.323491 
L 1261.813643 248.467281 
L 1273.372363 234.646707 
L 1284.931083 254.85521 
L 1296.489803 256.500394 
L 1308.048523 262.532969 
" clip-path="url(#pc02a79044d)" style="fill: none; stroke-dasharray: 3.7,1.6; stroke-dashoffset: 0; stroke: #1f77b4"/>
   </g>
   <g id="PathCollection_3">
    <g clip-path="url(#pc02a79044d)">
     <use xlink:href="#m29505d8ac0" x="741.67125" y="325.565228" style="fill: #1f77b4; stroke: #ffffff; stroke-width: 0.565685"/>
     <use xlink:href="#m29505d8ac0" x="753.22997" y="323.425902" style="fill: #1f77b4; stroke: #ffffff; stroke-width: 0.565685"/>
     <use xlink:href="#m29505d8ac0" x="764.78869" y="322.926258" style="fill: #1f77b4; stroke: #ffffff; stroke-width: 0.565685"/>
     <use xlink:href="#m29505d8ac0" x="776.34741" y="315.350943" style="fill: #1f77b4; stroke: #ffffff; stroke-width: 0.565685"/>
     <use xlink:href="#m29505d8ac0" x="787.906129" y="282.2894" style="fill: #1f77b4; stroke: #ffffff; stroke-width: 0.565685"/>
     <use xlink:href="#m29505d8ac0" x="799.464849" y="276.37891" style="fill: #1f77b4; stroke: #ffffff; stroke-width: 0.565685"/>
     <use xlink:href="#m29505d8ac0" x="811.023569" y="249.059443" style="fill: #1f77b4; stroke: #ffffff; stroke-width: 0.565685"/>
     <use xlink:href="#m29505d8ac0" x="822.582289" y="322.551289" style="fill: #1f77b4; stroke: #ffffff; stroke-width: 0.565685"/>
     <use xlink:href="#m29505d8ac0" x="834.141009" y="299.658007" style="fill: #1f77b4; stroke: #ffffff; stroke-width: 0.565685"/>
     <use xlink:href="#m29505d8ac0" x="857.258449" y="309.647565" style="fill: #1f77b4; stroke: #ffffff; stroke-width: 0.565685"/>
     <use xlink:href="#m29505d8ac0" x="868.817168" y="318.497343" style="fill: #1f77b4; stroke: #ffffff; stroke-width: 0.565685"/>
     <use xlink:href="#m29505d8ac0" x="880.375888" y="329.082328" style="fill: #1f77b4; stroke: #ffffff; stroke-width: 0.565685"/>
     <use xlink:href="#m29505d8ac0" x="891.934608" y="329.802238" style="fill: #1f77b4; stroke: #ffffff; stroke-width: 0.565685"/>
     <use xlink:href="#m29505d8ac0" x="903.493328" y="328.843865" style="fill: #1f77b4; stroke: #ffffff; stroke-width: 0.565685"/>
     <use xlink:href="#m29505d8ac0" x="915.052048" y="302.026163" style="fill: #1f77b4; stroke: #ffffff; stroke-width: 0.565685"/>
     <use xlink:href="#m29505d8ac0" x="926.610768" y="324.563888" style="fill: #1f77b4; stroke: #ffffff; stroke-width: 0.565685"/>
     <use xlink:href="#m29505d8ac0" x="938.169487" y="302.144267" style="fill: #1f77b4; stroke: #ffffff; stroke-width: 0.565685"/>
     <use xlink:href="#m29505d8ac0" x="949.728207" y="282.871274" style="fill: #1f77b4; stroke: #ffffff; stroke-width: 0.565685"/>
     <use xlink:href="#m29505d8ac0" x="961.286927" y="270.517518" style="fill: #1f77b4; stroke: #ffffff; stroke-width: 0.565685"/>
     <use xlink:href="#m29505d8ac0" x="972.845647" y="267.920105" style="fill: #1f77b4; stroke: #ffffff; stroke-width: 0.565685"/>
     <use xlink:href="#m29505d8ac0" x="984.404367" y="261.588989" style="fill: #1f77b4; stroke: #ffffff; stroke-width: 0.565685"/>
     <use xlink:href="#m29505d8ac0" x="995.963087" y="260.193659" style="fill: #1f77b4; stroke: #ffffff; stroke-width: 0.565685"/>
     <use xlink:href="#m29505d8ac0" x="1007.521807" y="257.430543" style="fill: #1f77b4; stroke: #ffffff; stroke-width: 0.565685"/>
     <use xlink:href="#m29505d8ac0" x="1019.080526" y="255.299852" style="fill: #1f77b4; stroke: #ffffff; stroke-width: 0.565685"/>
     <use xlink:href="#m29505d8ac0" x="1030.639246" y="254.44934" style="fill: #1f77b4; stroke: #ffffff; stroke-width: 0.565685"/>
     <use xlink:href="#m29505d8ac0" x="1042.197966" y="253.402069" style="fill: #1f77b4; stroke: #ffffff; stroke-width: 0.565685"/>
     <use xlink:href="#m29505d8ac0" x="1053.756686" y="252.580445" style="fill: #1f77b4; stroke: #ffffff; stroke-width: 0.565685"/>
     <use xlink:href="#m29505d8ac0" x="1065.315406" y="253.223716" style="fill: #1f77b4; stroke: #ffffff; stroke-width: 0.565685"/>
     <use xlink:href="#m29505d8ac0" x="1076.874126" y="253.249625" style="fill: #1f77b4; stroke: #ffffff; stroke-width: 0.565685"/>
     <use xlink:href="#m29505d8ac0" x="1088.432846" y="252.88123" style="fill: #1f77b4; stroke: #ffffff; stroke-width: 0.565685"/>
     <use xlink:href="#m29505d8ac0" x="1099.991565" y="253.564785" style="fill: #1f77b4; stroke: #ffffff; stroke-width: 0.565685"/>
     <use xlink:href="#m29505d8ac0" x="1111.550285" y="253.228286" style="fill: #1f77b4; stroke: #ffffff; stroke-width: 0.565685"/>
     <use xlink:href="#m29505d8ac0" x="1123.109005" y="253.455761" style="fill: #1f77b4; stroke: #ffffff; stroke-width: 0.565685"/>
     <use xlink:href="#m29505d8ac0" x="1134.667725" y="253.694076" style="fill: #1f77b4; stroke: #ffffff; stroke-width: 0.565685"/>
     <use xlink:href="#m29505d8ac0" x="1146.226445" y="238.917967" style="fill: #1f77b4; stroke: #ffffff; stroke-width: 0.565685"/>
     <use xlink:href="#m29505d8ac0" x="1157.785165" y="238.930963" style="fill: #1f77b4; stroke: #ffffff; stroke-width: 0.565685"/>
     <use xlink:href="#m29505d8ac0" x="1180.902604" y="239.145013" style="fill: #1f77b4; stroke: #ffffff; stroke-width: 0.565685"/>
     <use xlink:href="#m29505d8ac0" x="1192.461324" y="239.288228" style="fill: #1f77b4; stroke: #ffffff; stroke-width: 0.565685"/>
     <use xlink:href="#m29505d8ac0" x="1204.020044" y="239.089936" style="fill: #1f77b4; stroke: #ffffff; stroke-width: 0.565685"/>
     <use xlink:href="#m29505d8ac0" x="1215.578764" y="251.910974" style="fill: #1f77b4; stroke: #ffffff; stroke-width: 0.565685"/>
     <use xlink:href="#m29505d8ac0" x="1227.137484" y="243.048395" style="fill: #1f77b4; stroke: #ffffff; stroke-width: 0.565685"/>
     <use xlink:href="#m29505d8ac0" x="1238.696204" y="239.453421" style="fill: #1f77b4; stroke: #ffffff; stroke-width: 0.565685"/>
     <use xlink:href="#m29505d8ac0" x="1250.254923" y="239.323491" style="fill: #1f77b4; stroke: #ffffff; stroke-width: 0.565685"/>
     <use xlink:href="#m29505d8ac0" x="1261.813643" y="248.467281" style="fill: #1f77b4; stroke: #ffffff; stroke-width: 0.565685"/>
     <use xlink:href="#m29505d8ac0" x="1273.372363" y="234.646707" style="fill: #1f77b4; stroke: #ffffff; stroke-width: 0.565685"/>
     <use xlink:href="#m29505d8ac0" x="1284.931083" y="254.85521" style="fill: #1f77b4; stroke: #ffffff; stroke-width: 0.565685"/>
     <use xlink:href="#m29505d8ac0" x="1296.489803" y="256.500394" style="fill: #1f77b4; stroke: #ffffff; stroke-width: 0.565685"/>
     <use xlink:href="#m29505d8ac0" x="1308.048523" y="262.532969" style="fill: #1f77b4; stroke: #ffffff; stroke-width: 0.565685"/>
    </g>
   </g>
   <g id="PolyCollection_2"/>
   <g id="matplotlib.axis_3">
    <g id="xtick_11">
     <g id="line2d_35">
      <path d="M 776.34741 457.478125 
L 776.34741 22.318125 
" clip-path="url(#pc02a79044d)" style="fill: none; stroke: #b0b0b0; stroke-width: 0.8; stroke-linecap: square"/>
     </g>
     <g id="line2d_36">
      <g>
       <use xlink:href="#mb06f3bca17" x="776.34741" y="457.478125" style="stroke: #000000; stroke-width: 0.8"/>
      </g>
     </g>
     <g id="text_25">
      <!-- 5 -->
      <g transform="translate(773.16616 472.076563) scale(0.1 -0.1)">
       <use xlink:href="#DejaVuSans-35"/>
      </g>
     </g>
    </g>
    <g id="xtick_12">
     <g id="line2d_37">
      <path d="M 834.141009 457.478125 
L 834.141009 22.318125 
" clip-path="url(#pc02a79044d)" style="fill: none; stroke: #b0b0b0; stroke-width: 0.8; stroke-linecap: square"/>
     </g>
     <g id="line2d_38">
      <g>
       <use xlink:href="#mb06f3bca17" x="834.141009" y="457.478125" style="stroke: #000000; stroke-width: 0.8"/>
      </g>
     </g>
     <g id="text_26">
      <!-- 10 -->
      <g transform="translate(827.778509 472.076563) scale(0.1 -0.1)">
       <use xlink:href="#DejaVuSans-31"/>
       <use xlink:href="#DejaVuSans-30" x="63.623047"/>
      </g>
     </g>
    </g>
    <g id="xtick_13">
     <g id="line2d_39">
      <path d="M 891.934608 457.478125 
L 891.934608 22.318125 
" clip-path="url(#pc02a79044d)" style="fill: none; stroke: #b0b0b0; stroke-width: 0.8; stroke-linecap: square"/>
     </g>
     <g id="line2d_40">
      <g>
       <use xlink:href="#mb06f3bca17" x="891.934608" y="457.478125" style="stroke: #000000; stroke-width: 0.8"/>
      </g>
     </g>
     <g id="text_27">
      <!-- 15 -->
      <g transform="translate(885.572108 472.076563) scale(0.1 -0.1)">
       <use xlink:href="#DejaVuSans-31"/>
       <use xlink:href="#DejaVuSans-35" x="63.623047"/>
      </g>
     </g>
    </g>
    <g id="xtick_14">
     <g id="line2d_41">
      <path d="M 949.728207 457.478125 
L 949.728207 22.318125 
" clip-path="url(#pc02a79044d)" style="fill: none; stroke: #b0b0b0; stroke-width: 0.8; stroke-linecap: square"/>
     </g>
     <g id="line2d_42">
      <g>
       <use xlink:href="#mb06f3bca17" x="949.728207" y="457.478125" style="stroke: #000000; stroke-width: 0.8"/>
      </g>
     </g>
     <g id="text_28">
      <!-- 20 -->
      <g transform="translate(943.365707 472.076563) scale(0.1 -0.1)">
       <use xlink:href="#DejaVuSans-32"/>
       <use xlink:href="#DejaVuSans-30" x="63.623047"/>
      </g>
     </g>
    </g>
    <g id="xtick_15">
     <g id="line2d_43">
      <path d="M 1007.521807 457.478125 
L 1007.521807 22.318125 
" clip-path="url(#pc02a79044d)" style="fill: none; stroke: #b0b0b0; stroke-width: 0.8; stroke-linecap: square"/>
     </g>
     <g id="line2d_44">
      <g>
       <use xlink:href="#mb06f3bca17" x="1007.521807" y="457.478125" style="stroke: #000000; stroke-width: 0.8"/>
      </g>
     </g>
     <g id="text_29">
      <!-- 25 -->
      <g transform="translate(1001.159307 472.076563) scale(0.1 -0.1)">
       <use xlink:href="#DejaVuSans-32"/>
       <use xlink:href="#DejaVuSans-35" x="63.623047"/>
      </g>
     </g>
    </g>
    <g id="xtick_16">
     <g id="line2d_45">
      <path d="M 1065.315406 457.478125 
L 1065.315406 22.318125 
" clip-path="url(#pc02a79044d)" style="fill: none; stroke: #b0b0b0; stroke-width: 0.8; stroke-linecap: square"/>
     </g>
     <g id="line2d_46">
      <g>
       <use xlink:href="#mb06f3bca17" x="1065.315406" y="457.478125" style="stroke: #000000; stroke-width: 0.8"/>
      </g>
     </g>
     <g id="text_30">
      <!-- 30 -->
      <g transform="translate(1058.952906 472.076563) scale(0.1 -0.1)">
       <use xlink:href="#DejaVuSans-33"/>
       <use xlink:href="#DejaVuSans-30" x="63.623047"/>
      </g>
     </g>
    </g>
    <g id="xtick_17">
     <g id="line2d_47">
      <path d="M 1123.109005 457.478125 
L 1123.109005 22.318125 
" clip-path="url(#pc02a79044d)" style="fill: none; stroke: #b0b0b0; stroke-width: 0.8; stroke-linecap: square"/>
     </g>
     <g id="line2d_48">
      <g>
       <use xlink:href="#mb06f3bca17" x="1123.109005" y="457.478125" style="stroke: #000000; stroke-width: 0.8"/>
      </g>
     </g>
     <g id="text_31">
      <!-- 35 -->
      <g transform="translate(1116.746505 472.076563) scale(0.1 -0.1)">
       <use xlink:href="#DejaVuSans-33"/>
       <use xlink:href="#DejaVuSans-35" x="63.623047"/>
      </g>
     </g>
    </g>
    <g id="xtick_18">
     <g id="line2d_49">
      <path d="M 1180.902604 457.478125 
L 1180.902604 22.318125 
" clip-path="url(#pc02a79044d)" style="fill: none; stroke: #b0b0b0; stroke-width: 0.8; stroke-linecap: square"/>
     </g>
     <g id="line2d_50">
      <g>
       <use xlink:href="#mb06f3bca17" x="1180.902604" y="457.478125" style="stroke: #000000; stroke-width: 0.8"/>
      </g>
     </g>
     <g id="text_32">
      <!-- 40 -->
      <g transform="translate(1174.540104 472.076563) scale(0.1 -0.1)">
       <use xlink:href="#DejaVuSans-34"/>
       <use xlink:href="#DejaVuSans-30" x="63.623047"/>
      </g>
     </g>
    </g>
    <g id="xtick_19">
     <g id="line2d_51">
      <path d="M 1238.696204 457.478125 
L 1238.696204 22.318125 
" clip-path="url(#pc02a79044d)" style="fill: none; stroke: #b0b0b0; stroke-width: 0.8; stroke-linecap: square"/>
     </g>
     <g id="line2d_52">
      <g>
       <use xlink:href="#mb06f3bca17" x="1238.696204" y="457.478125" style="stroke: #000000; stroke-width: 0.8"/>
      </g>
     </g>
     <g id="text_33">
      <!-- 45 -->
      <g transform="translate(1232.333704 472.076563) scale(0.1 -0.1)">
       <use xlink:href="#DejaVuSans-34"/>
       <use xlink:href="#DejaVuSans-35" x="63.623047"/>
      </g>
     </g>
    </g>
    <g id="xtick_20">
     <g id="line2d_53">
      <path d="M 1296.489803 457.478125 
L 1296.489803 22.318125 
" clip-path="url(#pc02a79044d)" style="fill: none; stroke: #b0b0b0; stroke-width: 0.8; stroke-linecap: square"/>
     </g>
     <g id="line2d_54">
      <g>
       <use xlink:href="#mb06f3bca17" x="1296.489803" y="457.478125" style="stroke: #000000; stroke-width: 0.8"/>
      </g>
     </g>
     <g id="text_34">
      <!-- 50 -->
      <g transform="translate(1290.127303 472.076563) scale(0.1 -0.1)">
       <use xlink:href="#DejaVuSans-35"/>
       <use xlink:href="#DejaVuSans-30" x="63.623047"/>
      </g>
     </g>
    </g>
    <g id="text_35">
     <!-- Lap Number -->
     <g transform="translate(994.160668 485.754688) scale(0.1 -0.1)">
      <use xlink:href="#DejaVuSans-4c"/>
      <use xlink:href="#DejaVuSans-61" x="55.712891"/>
      <use xlink:href="#DejaVuSans-70" x="116.992188"/>
      <use xlink:href="#DejaVuSans-20" x="180.46875"/>
      <use xlink:href="#DejaVuSans-4e" x="212.255859"/>
      <use xlink:href="#DejaVuSans-75" x="287.060547"/>
      <use xlink:href="#DejaVuSans-6d" x="350.439453"/>
      <use xlink:href="#DejaVuSans-62" x="447.851562"/>
      <use xlink:href="#DejaVuSans-65" x="511.328125"/>
      <use xlink:href="#DejaVuSans-72" x="572.851562"/>
     </g>
    </g>
   </g>
   <g id="matplotlib.axis_4">
    <g id="ytick_7">
     <g id="line2d_55">
      <path d="M 741.67125 457.478125 
L 1308.048523 457.478125 
" clip-path="url(#pc02a79044d)" style="fill: none; stroke: #b0b0b0; stroke-width: 0.8; stroke-linecap: square"/>
     </g>
     <g id="line2d_56">
      <g>
       <use xlink:href="#m04c1f36a2f" x="741.67125" y="457.478125" style="stroke: #000000; stroke-width: 0.8"/>
      </g>
     </g>
    </g>
    <g id="ytick_8">
     <g id="line2d_57">
      <path d="M 741.67125 370.446125 
L 1308.048523 370.446125 
" clip-path="url(#pc02a79044d)" style="fill: none; stroke: #b0b0b0; stroke-width: 0.8; stroke-linecap: square"/>
     </g>
     <g id="line2d_58">
      <g>
       <use xlink:href="#m04c1f36a2f" x="741.67125" y="370.446125" style="stroke: #000000; stroke-width: 0.8"/>
      </g>
     </g>
    </g>
    <g id="ytick_9">
     <g id="line2d_59">
      <path d="M 741.67125 283.414125 
L 1308.048523 283.414125 
" clip-path="url(#pc02a79044d)" style="fill: none; stroke: #b0b0b0; stroke-width: 0.8; stroke-linecap: square"/>
     </g>
     <g id="line2d_60">
      <g>
       <use xlink:href="#m04c1f36a2f" x="741.67125" y="283.414125" style="stroke: #000000; stroke-width: 0.8"/>
      </g>
     </g>
    </g>
    <g id="ytick_10">
     <g id="line2d_61">
      <path d="M 741.67125 196.382125 
L 1308.048523 196.382125 
" clip-path="url(#pc02a79044d)" style="fill: none; stroke: #b0b0b0; stroke-width: 0.8; stroke-linecap: square"/>
     </g>
     <g id="line2d_62">
      <g>
       <use xlink:href="#m04c1f36a2f" x="741.67125" y="196.382125" style="stroke: #000000; stroke-width: 0.8"/>
      </g>
     </g>
    </g>
    <g id="ytick_11">
     <g id="line2d_63">
      <path d="M 741.67125 109.350125 
L 1308.048523 109.350125 
" clip-path="url(#pc02a79044d)" style="fill: none; stroke: #b0b0b0; stroke-width: 0.8; stroke-linecap: square"/>
     </g>
     <g id="line2d_64">
      <g>
       <use xlink:href="#m04c1f36a2f" x="741.67125" y="109.350125" style="stroke: #000000; stroke-width: 0.8"/>
      </g>
     </g>
    </g>
    <g id="ytick_12">
     <g id="line2d_65">
      <path d="M 741.67125 22.318125 
L 1308.048523 22.318125 
" clip-path="url(#pc02a79044d)" style="fill: none; stroke: #b0b0b0; stroke-width: 0.8; stroke-linecap: square"/>
     </g>
     <g id="line2d_66">
      <g>
       <use xlink:href="#m04c1f36a2f" x="741.67125" y="22.318125" style="stroke: #000000; stroke-width: 0.8"/>
      </g>
     </g>
    </g>
   </g>
   <g id="patch_118">
    <path d="M 741.67125 457.478125 
L 741.67125 22.318125 
" style="fill: none; stroke: #000000; stroke-width: 0.8; stroke-linejoin: miter; stroke-linecap: square"/>
   </g>
   <g id="patch_119">
    <path d="M 1308.048523 457.478125 
L 1308.048523 22.318125 
" style="fill: none; stroke: #000000; stroke-width: 0.8; stroke-linejoin: miter; stroke-linecap: square"/>
   </g>
   <g id="patch_120">
    <path d="M 741.67125 457.478125 
L 1308.048523 457.478125 
" style="fill: none; stroke: #000000; stroke-width: 0.8; stroke-linejoin: miter; stroke-linecap: square"/>
   </g>
   <g id="patch_121">
    <path d="M 741.67125 22.318125 
L 1308.048523 22.318125 
" style="fill: none; stroke: #000000; stroke-width: 0.8; stroke-linejoin: miter; stroke-linecap: square"/>
   </g>
   <g id="text_36">
    <!-- Baku - Driver 2 -->
    <g transform="translate(979.811136 16.318125) scale(0.12 -0.12)">
     <use xlink:href="#DejaVuSans-42"/>
     <use xlink:href="#DejaVuSans-61" x="68.603516"/>
     <use xlink:href="#DejaVuSans-6b" x="129.882812"/>
     <use xlink:href="#DejaVuSans-75" x="184.667969"/>
     <use xlink:href="#DejaVuSans-20" x="248.046875"/>
     <use xlink:href="#DejaVuSans-2d" x="279.833984"/>
     <use xlink:href="#DejaVuSans-20" x="315.917969"/>
     <use xlink:href="#DejaVuSans-44" x="347.705078"/>
     <use xlink:href="#DejaVuSans-72" x="424.707031"/>
     <use xlink:href="#DejaVuSans-69" x="465.820312"/>
     <use xlink:href="#DejaVuSans-76" x="493.603516"/>
     <use xlink:href="#DejaVuSans-65" x="552.783203"/>
     <use xlink:href="#DejaVuSans-72" x="614.306641"/>
     <use xlink:href="#DejaVuSans-20" x="655.419922"/>
     <use xlink:href="#DejaVuSans-32" x="687.207031"/>
    </g>
   </g>
   <g id="legend_2">
    <g id="patch_122">
     <path d="M 1315.712295 98.986875 
L 1423.77792 98.986875 
Q 1425.77792 98.986875 1425.77792 96.986875 
L 1425.77792 24.318125 
Q 1425.77792 22.318125 1423.77792 22.318125 
L 1315.712295 22.318125 
Q 1313.712295 22.318125 1313.712295 24.318125 
L 1313.712295 96.986875 
Q 1313.712295 98.986875 1315.712295 98.986875 
z
" style="fill: #ffffff; opacity: 0.8; stroke: #cccccc; stroke-linejoin: miter"/>
    </g>
    <g id="patch_123">
     <path d="M 1317.712295 33.916562 
L 1337.712295 33.916562 
L 1337.712295 26.916562 
L 1317.712295 26.916562 
z
" style="fill: url(#haff72b5384); opacity: 0.3; stroke: #000000; stroke-linejoin: miter"/>
    </g>
    <g id="text_37">
     <!-- Safety Car -->
     <g transform="translate(1345.712295 33.916562) scale(0.1 -0.1)">
      <use xlink:href="#DejaVuSans-53"/>
      <use xlink:href="#DejaVuSans-61" x="63.476562"/>
      <use xlink:href="#DejaVuSans-66" x="124.755859"/>
      <use xlink:href="#DejaVuSans-65" x="159.960938"/>
      <use xlink:href="#DejaVuSans-74" x="221.484375"/>
      <use xlink:href="#DejaVuSans-79" x="260.693359"/>
      <use xlink:href="#DejaVuSans-20" x="319.873047"/>
      <use xlink:href="#DejaVuSans-43" x="351.660156"/>
      <use xlink:href="#DejaVuSans-61" x="421.484375"/>
      <use xlink:href="#DejaVuSans-72" x="482.763672"/>
     </g>
    </g>
    <g id="patch_124">
     <path d="M 1317.712295 48.594688 
L 1337.712295 48.594688 
L 1337.712295 41.594688 
L 1317.712295 41.594688 
z
" style="fill: #ffff00; opacity: 0.3"/>
    </g>
    <g id="text_38">
     <!-- Yellow Flag -->
     <g transform="translate(1345.712295 48.594688) scale(0.1 -0.1)">
      <use xlink:href="#DejaVuSans-59"/>
      <use xlink:href="#DejaVuSans-65" x="47.833984"/>
      <use xlink:href="#DejaVuSans-6c" x="109.357422"/>
      <use xlink:href="#DejaVuSans-6c" x="137.140625"/>
      <use xlink:href="#DejaVuSans-6f" x="164.923828"/>
      <use xlink:href="#DejaVuSans-77" x="226.105469"/>
      <use xlink:href="#DejaVuSans-20" x="307.892578"/>
      <use xlink:href="#DejaVuSans-46" x="339.679688"/>
      <use xlink:href="#DejaVuSans-6c" x="397.199219"/>
      <use xlink:href="#DejaVuSans-61" x="424.982422"/>
      <use xlink:href="#DejaVuSans-67" x="486.261719"/>
     </g>
    </g>
    <g id="patch_125">
     <path d="M 1317.712295 63.272812 
L 1337.712295 63.272812 
L 1337.712295 56.272812 
L 1317.712295 56.272812 
z
" style="fill: #ffff00"/>
    </g>
    <g id="text_39">
     <!-- Medium -->
     <g transform="translate(1345.712295 63.272812) scale(0.1 -0.1)">
      <use xlink:href="#DejaVuSans-4d"/>
      <use xlink:href="#DejaVuSans-65" x="86.279297"/>
      <use xlink:href="#DejaVuSans-64" x="147.802734"/>
      <use xlink:href="#DejaVuSans-69" x="211.279297"/>
      <use xlink:href="#DejaVuSans-75" x="239.0625"/>
      <use xlink:href="#DejaVuSans-6d" x="302.441406"/>
     </g>
    </g>
    <g id="patch_126">
     <path d="M 1317.712295 77.950938 
L 1337.712295 77.950938 
L 1337.712295 70.950938 
L 1317.712295 70.950938 
z
" style="fill: #808080"/>
    </g>
    <g id="text_40">
     <!-- Hard -->
     <g transform="translate(1345.712295 77.950938) scale(0.1 -0.1)">
      <use xlink:href="#DejaVuSans-48"/>
      <use xlink:href="#DejaVuSans-61" x="75.195312"/>
      <use xlink:href="#DejaVuSans-72" x="136.474609"/>
      <use xlink:href="#DejaVuSans-64" x="175.837891"/>
     </g>
    </g>
    <g id="PathCollection_4">
     <g>
      <use xlink:href="#m29505d8ac0" x="1327.712295" y="90.004063" style="fill: #1f77b4; stroke: #ffffff; stroke-width: 0.565685"/>
     </g>
    </g>
    <g id="text_41">
     <!-- model f1_score -->
     <g transform="translate(1345.712295 92.629063) scale(0.1 -0.1)">
      <use xlink:href="#DejaVuSans-6d"/>
      <use xlink:href="#DejaVuSans-6f" x="97.412109"/>
      <use xlink:href="#DejaVuSans-64" x="158.59375"/>
      <use xlink:href="#DejaVuSans-65" x="222.070312"/>
      <use xlink:href="#DejaVuSans-6c" x="283.59375"/>
      <use xlink:href="#DejaVuSans-20" x="311.376953"/>
      <use xlink:href="#DejaVuSans-66" x="343.164062"/>
      <use xlink:href="#DejaVuSans-31" x="378.369141"/>
      <use xlink:href="#DejaVuSans-5f" x="441.992188"/>
      <use xlink:href="#DejaVuSans-73" x="491.992188"/>
      <use xlink:href="#DejaVuSans-63" x="544.091797"/>
      <use xlink:href="#DejaVuSans-6f" x="599.072266"/>
      <use xlink:href="#DejaVuSans-72" x="660.253906"/>
      <use xlink:href="#DejaVuSans-65" x="699.117188"/>
     </g>
    </g>
   </g>
  </g>
 </g>
 <defs>
  <clipPath id="pba0825ec00">
   <rect x="43.78125" y="22.318125" width="566.377273" height="435.16"/>
  </clipPath>
  <clipPath id="pc02a79044d">
   <rect x="741.67125" y="22.318125" width="566.377273" height="435.16"/>
  </clipPath>
 </defs>
 <defs>
  <pattern id="haff72b5384" patternUnits="userSpaceOnUse" x="0" y="0" width="72" height="72">
   <rect x="0" y="0" width="73" height="73" fill="#ffff00"/>
   <path d="M -36 36 
L 36 108 
M -24 24 
L 48 96 
M -12 12 
L 60 84 
M 0 0 
L 72 72 
M 12 -12 
L 84 60 
M 24 -24 
L 96 48 
M 36 -36 
L 108 36 
" style="fill: #000000; stroke: #000000; stroke-width: 1.0; stroke-linecap: butt; stroke-linejoin: miter; stroke-opacity: 0.3"/>
  </pattern>
 </defs>
</svg>
