<?xml version="1.0" encoding="utf-8" standalone="no"?>
<!DOCTYPE svg PUBLIC "-//W3C//DTD SVG 1.1//EN"
  "http://www.w3.org/Graphics/SVG/1.1/DTD/svg11.dtd">
<svg xmlns:xlink="http://www.w3.org/1999/xlink" width="712.244475pt" height="999.034375pt" viewBox="0 0 712.244475 999.034375" xmlns="http://www.w3.org/2000/svg" version="1.1">
 <metadata>
  <rdf:RDF xmlns:dc="http://purl.org/dc/elements/1.1/" xmlns:cc="http://creativecommons.org/ns#" xmlns:rdf="http://www.w3.org/1999/02/22-rdf-syntax-ns#">
   <cc:Work>
    <dc:type rdf:resource="http://purl.org/dc/dcmitype/StillImage"/>
    <dc:date>2023-07-17T11:59:52.113485</dc:date>
    <dc:format>image/svg+xml</dc:format>
    <dc:creator>
     <cc:Agent>
      <dc:title>Matplotlib v3.7.2, https://matplotlib.org/</dc:title>
     </cc:Agent>
    </dc:creator>
   </cc:Work>
  </rdf:RDF>
 </metadata>
 <defs>
  <style type="text/css">*{stroke-linejoin: round; stroke-linecap: butt}</style>
 </defs>
 <g id="figure_1">
  <g id="patch_1">
   <path d="M 0 999.034375 
L 712.244475 999.034375 
L 712.244475 0 
L 0 0 
z
" style="fill: #ffffff"/>
  </g>
  <g id="axes_1">
   <g id="patch_2">
    <path d="M 43.78125 462.878125 
L 587.54125 462.878125 
L 587.54125 22.318125 
L 43.78125 22.318125 
z
" style="fill: #ffffff"/>
   </g>
   <g id="patch_3">
    <path d="M 32.452917 26.723725 
L 32.452917 22.318125 
L 43.78125 22.318125 
L 43.78125 26.723725 
z
" clip-path="url(#p2a3717ade0)" style="fill: #ffff00"/>
   </g>
   <g id="patch_4">
    <path d="M 43.78125 26.723725 
L 43.78125 22.318125 
L 55.109583 22.318125 
L 55.109583 26.723725 
z
" clip-path="url(#p2a3717ade0)" style="fill: #ffff00"/>
   </g>
   <g id="patch_5">
    <path d="M 55.109583 26.723725 
L 55.109583 22.318125 
L 66.437917 22.318125 
L 66.437917 26.723725 
z
" clip-path="url(#p2a3717ade0)" style="fill: #ffff00"/>
   </g>
   <g id="patch_6">
    <path d="M 66.437917 26.723725 
L 66.437917 22.318125 
L 77.76625 22.318125 
L 77.76625 26.723725 
z
" clip-path="url(#p2a3717ade0)" style="fill: #ffff00"/>
   </g>
   <g id="patch_7">
    <path d="M 77.76625 26.723725 
L 77.76625 22.318125 
L 89.094583 22.318125 
L 89.094583 26.723725 
z
" clip-path="url(#p2a3717ade0)" style="fill: #ffff00"/>
   </g>
   <g id="patch_8">
    <path d="M 89.094583 26.723725 
L 89.094583 22.318125 
L 100.422917 22.318125 
L 100.422917 26.723725 
z
" clip-path="url(#p2a3717ade0)" style="fill: #ffff00"/>
   </g>
   <g id="patch_9">
    <path d="M 100.422917 26.723725 
L 100.422917 22.318125 
L 111.75125 22.318125 
L 111.75125 26.723725 
z
" clip-path="url(#p2a3717ade0)" style="fill: #ffff00"/>
   </g>
   <g id="patch_10">
    <path d="M 111.75125 26.723725 
L 111.75125 22.318125 
L 123.079583 22.318125 
L 123.079583 26.723725 
z
" clip-path="url(#p2a3717ade0)" style="fill: #ffff00"/>
   </g>
   <g id="patch_11">
    <path d="M 123.079583 26.723725 
L 123.079583 22.318125 
L 134.407917 22.318125 
L 134.407917 26.723725 
z
" clip-path="url(#p2a3717ade0)" style="fill: #ffff00"/>
   </g>
   <g id="patch_12">
    <path d="M 134.407917 26.723725 
L 134.407917 22.318125 
L 145.73625 22.318125 
L 145.73625 26.723725 
z
" clip-path="url(#p2a3717ade0)" style="fill: #ffff00"/>
   </g>
   <g id="patch_13">
    <path d="M 145.73625 26.723725 
L 145.73625 22.318125 
L 157.064583 22.318125 
L 157.064583 26.723725 
z
" clip-path="url(#p2a3717ade0)" style="fill: #ffff00"/>
   </g>
   <g id="patch_14">
    <path d="M 157.064583 26.723725 
L 157.064583 22.318125 
L 168.392917 22.318125 
L 168.392917 26.723725 
z
" clip-path="url(#p2a3717ade0)" style="fill: #ffff00"/>
   </g>
   <g id="patch_15">
    <path d="M 168.392917 26.723725 
L 168.392917 22.318125 
L 179.72125 22.318125 
L 179.72125 26.723725 
z
" clip-path="url(#p2a3717ade0)" style="fill: #ffff00"/>
   </g>
   <g id="patch_16">
    <path d="M 179.72125 26.723725 
L 179.72125 22.318125 
L 191.049583 22.318125 
L 191.049583 26.723725 
z
" clip-path="url(#p2a3717ade0)" style="fill: #ffff00"/>
   </g>
   <g id="patch_17">
    <path d="M 191.049583 26.723725 
L 191.049583 22.318125 
L 202.377917 22.318125 
L 202.377917 26.723725 
z
" clip-path="url(#p2a3717ade0)" style="fill: #ffff00"/>
   </g>
   <g id="patch_18">
    <path d="M 202.377917 26.723725 
L 202.377917 22.318125 
L 213.70625 22.318125 
L 213.70625 26.723725 
z
" clip-path="url(#p2a3717ade0)" style="fill: #ffff00"/>
   </g>
   <g id="patch_19">
    <path d="M 213.70625 26.723725 
L 213.70625 22.318125 
L 225.034583 22.318125 
L 225.034583 26.723725 
z
" clip-path="url(#p2a3717ade0)" style="fill: #ffff00"/>
   </g>
   <g id="patch_20">
    <path d="M 247.69125 26.723725 
L 247.69125 22.318125 
L 259.019583 22.318125 
L 259.019583 26.723725 
z
" clip-path="url(#p2a3717ade0)" style="fill: #808080"/>
   </g>
   <g id="patch_21">
    <path d="M 259.019583 26.723725 
L 259.019583 22.318125 
L 270.347917 22.318125 
L 270.347917 26.723725 
z
" clip-path="url(#p2a3717ade0)" style="fill: #808080"/>
   </g>
   <g id="patch_22">
    <path d="M 270.347917 26.723725 
L 270.347917 22.318125 
L 281.67625 22.318125 
L 281.67625 26.723725 
z
" clip-path="url(#p2a3717ade0)" style="fill: #808080"/>
   </g>
   <g id="patch_23">
    <path d="M 281.67625 26.723725 
L 281.67625 22.318125 
L 293.004583 22.318125 
L 293.004583 26.723725 
z
" clip-path="url(#p2a3717ade0)" style="fill: #808080"/>
   </g>
   <g id="patch_24">
    <path d="M 293.004583 26.723725 
L 293.004583 22.318125 
L 304.332917 22.318125 
L 304.332917 26.723725 
z
" clip-path="url(#p2a3717ade0)" style="fill: #808080"/>
   </g>
   <g id="patch_25">
    <path d="M 304.332917 26.723725 
L 304.332917 22.318125 
L 315.66125 22.318125 
L 315.66125 26.723725 
z
" clip-path="url(#p2a3717ade0)" style="fill: #808080"/>
   </g>
   <g id="patch_26">
    <path d="M 315.66125 26.723725 
L 315.66125 22.318125 
L 326.989583 22.318125 
L 326.989583 26.723725 
z
" clip-path="url(#p2a3717ade0)" style="fill: #808080"/>
   </g>
   <g id="patch_27">
    <path d="M 326.989583 26.723725 
L 326.989583 22.318125 
L 338.317917 22.318125 
L 338.317917 26.723725 
z
" clip-path="url(#p2a3717ade0)" style="fill: #808080"/>
   </g>
   <g id="patch_28">
    <path d="M 338.317917 26.723725 
L 338.317917 22.318125 
L 349.64625 22.318125 
L 349.64625 26.723725 
z
" clip-path="url(#p2a3717ade0)" style="fill: #808080"/>
   </g>
   <g id="patch_29">
    <path d="M 349.64625 26.723725 
L 349.64625 22.318125 
L 360.974583 22.318125 
L 360.974583 26.723725 
z
" clip-path="url(#p2a3717ade0)" style="fill: #808080"/>
   </g>
   <g id="patch_30">
    <path d="M 360.974583 26.723725 
L 360.974583 22.318125 
L 372.302917 22.318125 
L 372.302917 26.723725 
z
" clip-path="url(#p2a3717ade0)" style="fill: #808080"/>
   </g>
   <g id="patch_31">
    <path d="M 372.302917 26.723725 
L 372.302917 22.318125 
L 383.63125 22.318125 
L 383.63125 26.723725 
z
" clip-path="url(#p2a3717ade0)" style="fill: #808080"/>
   </g>
   <g id="patch_32">
    <path d="M 383.63125 26.723725 
L 383.63125 22.318125 
L 394.959583 22.318125 
L 394.959583 26.723725 
z
" clip-path="url(#p2a3717ade0)" style="fill: #808080"/>
   </g>
   <g id="patch_33">
    <path d="M 394.959583 26.723725 
L 394.959583 22.318125 
L 406.287917 22.318125 
L 406.287917 26.723725 
z
" clip-path="url(#p2a3717ade0)" style="fill: #808080"/>
   </g>
   <g id="patch_34">
    <path d="M 406.287917 26.723725 
L 406.287917 22.318125 
L 417.61625 22.318125 
L 417.61625 26.723725 
z
" clip-path="url(#p2a3717ade0)" style="fill: #808080"/>
   </g>
   <g id="patch_35">
    <path d="M 417.61625 26.723725 
L 417.61625 22.318125 
L 428.944583 22.318125 
L 428.944583 26.723725 
z
" clip-path="url(#p2a3717ade0)" style="fill: #808080"/>
   </g>
   <g id="patch_36">
    <path d="M 428.944583 26.723725 
L 428.944583 22.318125 
L 440.272917 22.318125 
L 440.272917 26.723725 
z
" clip-path="url(#p2a3717ade0)" style="fill: #808080"/>
   </g>
   <g id="patch_37">
    <path d="M 440.272917 26.723725 
L 440.272917 22.318125 
L 451.60125 22.318125 
L 451.60125 26.723725 
z
" clip-path="url(#p2a3717ade0)" style="fill: #808080"/>
   </g>
   <g id="patch_38">
    <path d="M 451.60125 26.723725 
L 451.60125 22.318125 
L 462.929583 22.318125 
L 462.929583 26.723725 
z
" clip-path="url(#p2a3717ade0)" style="fill: #808080"/>
   </g>
   <g id="patch_39">
    <path d="M 462.929583 26.723725 
L 462.929583 22.318125 
L 474.257917 22.318125 
L 474.257917 26.723725 
z
" clip-path="url(#p2a3717ade0)" style="fill: #808080"/>
   </g>
   <g id="patch_40">
    <path d="M 474.257917 26.723725 
L 474.257917 22.318125 
L 485.58625 22.318125 
L 485.58625 26.723725 
z
" clip-path="url(#p2a3717ade0)" style="fill: #808080"/>
   </g>
   <g id="patch_41">
    <path d="M 485.58625 26.723725 
L 485.58625 22.318125 
L 496.914583 22.318125 
L 496.914583 26.723725 
z
" clip-path="url(#p2a3717ade0)" style="fill: #808080"/>
   </g>
   <g id="patch_42">
    <path d="M 496.914583 26.723725 
L 496.914583 22.318125 
L 508.242917 22.318125 
L 508.242917 26.723725 
z
" clip-path="url(#p2a3717ade0)" style="fill: #808080"/>
   </g>
   <g id="patch_43">
    <path d="M 508.242917 26.723725 
L 508.242917 22.318125 
L 519.57125 22.318125 
L 519.57125 26.723725 
z
" clip-path="url(#p2a3717ade0)" style="fill: #808080"/>
   </g>
   <g id="patch_44">
    <path d="M 519.57125 26.723725 
L 519.57125 22.318125 
L 530.899583 22.318125 
L 530.899583 26.723725 
z
" clip-path="url(#p2a3717ade0)" style="fill: #808080"/>
   </g>
   <g id="patch_45">
    <path d="M 530.899583 26.723725 
L 530.899583 22.318125 
L 542.227917 22.318125 
L 542.227917 26.723725 
z
" clip-path="url(#p2a3717ade0)" style="fill: #808080"/>
   </g>
   <g id="patch_46">
    <path d="M 542.227917 26.723725 
L 542.227917 22.318125 
L 553.55625 22.318125 
L 553.55625 26.723725 
z
" clip-path="url(#p2a3717ade0)" style="fill: #808080"/>
   </g>
   <g id="patch_47">
    <path d="M 553.55625 26.723725 
L 553.55625 22.318125 
L 564.884583 22.318125 
L 564.884583 26.723725 
z
" clip-path="url(#p2a3717ade0)" style="fill: #808080"/>
   </g>
   <g id="patch_48">
    <path d="M 564.884583 26.723725 
L 564.884583 22.318125 
L 576.212917 22.318125 
L 576.212917 26.723725 
z
" clip-path="url(#p2a3717ade0)" style="fill: #808080"/>
   </g>
   <g id="patch_49">
    <path d="M 576.212917 26.723725 
L 576.212917 22.318125 
L 587.54125 22.318125 
L 587.54125 26.723725 
z
" clip-path="url(#p2a3717ade0)" style="fill: #808080"/>
   </g>
   <g id="patch_50">
    <path d="M 213.70625 462.878125 
L 213.70625 22.318125 
L 225.034583 22.318125 
L 225.034583 462.878125 
z
" clip-path="url(#p2a3717ade0)" style="fill: #ffff00; opacity: 0.3"/>
   </g>
   <g id="patch_51">
    <path d="M 225.034583 462.878125 
L 225.034583 22.318125 
L 236.362917 22.318125 
L 236.362917 462.878125 
z
" clip-path="url(#p2a3717ade0)" style="fill: url(#hae2ff19452); opacity: 0.3; stroke: #000000; stroke-linejoin: miter"/>
   </g>
   <g id="LineCollection_1">
    <path d="M 43.78125 242.598125 
L 587.54125 242.598125 
" clip-path="url(#p2a3717ade0)" style="fill: none; stroke-dasharray: 1,1.65; stroke-dashoffset: 0; stroke: #000000"/>
   </g>
   <g id="LineCollection_2">
    <path d="M 213.70625 462.878125 
L 213.70625 22.318125 
" clip-path="url(#p2a3717ade0)" style="fill: none; stroke-dasharray: 3.7,1.6; stroke-dashoffset: 0; stroke: #ff0000"/>
   </g>
   <g id="line2d_1">
    <path d="M 43.78125 333.000994 
L 55.109583 329.386064 
L 66.437917 327.173757 
L 77.76625 321.294528 
L 89.094583 289.428463 
L 100.422917 288.818081 
L 111.75125 273.334793 
L 123.079583 271.230768 
L 134.407917 268.883427 
L 145.73625 249.09293 
L 157.064583 227.145502 
L 168.392917 216.027843 
L 179.72125 210.797211 
L 191.049583 206.965647 
L 202.377917 205.798263 
L 213.70625 159.037719 
L 225.034583 156.287674 
L 259.019583 327.276103 
L 270.347917 325.763514 
L 281.67625 324.097317 
L 293.004583 322.705547 
L 304.332917 321.113447 
L 315.66125 321.140388 
L 326.989583 321.055029 
L 338.317917 319.836842 
L 349.64625 298.632749 
L 360.974583 275.528394 
L 372.302917 261.71462 
L 383.63125 258.467673 
L 394.959583 253.517701 
L 406.287917 252.502953 
L 417.61625 251.638897 
L 428.944583 249.622959 
L 440.272917 248.484965 
L 451.60125 248.003015 
L 462.929583 248.795783 
L 474.257917 248.722907 
L 485.58625 249.202285 
L 496.914583 250.164821 
L 508.242917 250.163485 
L 519.57125 250.116992 
L 530.899583 249.997631 
L 542.227917 249.992848 
L 553.55625 257.701986 
L 564.884583 260.622362 
L 576.212917 262.142611 
L 587.54125 262.492922 
" clip-path="url(#p2a3717ade0)" style="fill: none; stroke-dasharray: 3.7,1.6; stroke-dashoffset: 0; stroke: #1f77b4"/>
   </g>
   <g id="PathCollection_1">
    <defs>
     <path id="m507cd15a73" d="M -1.767767 3.535534 
L 0 1.767767 
L 1.767767 3.535534 
L 3.535534 1.767767 
L 1.767767 0 
L 3.535534 -1.767767 
L 1.767767 -3.535534 
L 0 -1.767767 
L -1.767767 -3.535534 
L -3.535534 -1.767767 
L -1.767767 0 
L -3.535534 1.767767 
z
" style="stroke: #ffffff; stroke-width: 0.565685"/>
    </defs>
    <g clip-path="url(#p2a3717ade0)">
     <use xlink:href="#m507cd15a73" x="43.78125" y="333.000994" style="fill: #1f77b4; stroke: #ffffff; stroke-width: 0.565685"/>
     <use xlink:href="#m507cd15a73" x="55.109583" y="329.386064" style="fill: #1f77b4; stroke: #ffffff; stroke-width: 0.565685"/>
     <use xlink:href="#m507cd15a73" x="66.437917" y="327.173757" style="fill: #1f77b4; stroke: #ffffff; stroke-width: 0.565685"/>
     <use xlink:href="#m507cd15a73" x="77.76625" y="321.294528" style="fill: #1f77b4; stroke: #ffffff; stroke-width: 0.565685"/>
     <use xlink:href="#m507cd15a73" x="89.094583" y="289.428463" style="fill: #1f77b4; stroke: #ffffff; stroke-width: 0.565685"/>
     <use xlink:href="#m507cd15a73" x="100.422917" y="288.818081" style="fill: #1f77b4; stroke: #ffffff; stroke-width: 0.565685"/>
     <use xlink:href="#m507cd15a73" x="111.75125" y="273.334793" style="fill: #1f77b4; stroke: #ffffff; stroke-width: 0.565685"/>
     <use xlink:href="#m507cd15a73" x="123.079583" y="271.230768" style="fill: #1f77b4; stroke: #ffffff; stroke-width: 0.565685"/>
     <use xlink:href="#m507cd15a73" x="134.407917" y="268.883427" style="fill: #1f77b4; stroke: #ffffff; stroke-width: 0.565685"/>
     <use xlink:href="#m507cd15a73" x="145.73625" y="249.09293" style="fill: #1f77b4; stroke: #ffffff; stroke-width: 0.565685"/>
     <use xlink:href="#m507cd15a73" x="157.064583" y="227.145502" style="fill: #1f77b4; stroke: #ffffff; stroke-width: 0.565685"/>
     <use xlink:href="#m507cd15a73" x="168.392917" y="216.027843" style="fill: #1f77b4; stroke: #ffffff; stroke-width: 0.565685"/>
     <use xlink:href="#m507cd15a73" x="179.72125" y="210.797211" style="fill: #1f77b4; stroke: #ffffff; stroke-width: 0.565685"/>
     <use xlink:href="#m507cd15a73" x="191.049583" y="206.965647" style="fill: #1f77b4; stroke: #ffffff; stroke-width: 0.565685"/>
     <use xlink:href="#m507cd15a73" x="202.377917" y="205.798263" style="fill: #1f77b4; stroke: #ffffff; stroke-width: 0.565685"/>
     <use xlink:href="#m507cd15a73" x="213.70625" y="159.037719" style="fill: #1f77b4; stroke: #ffffff; stroke-width: 0.565685"/>
     <use xlink:href="#m507cd15a73" x="225.034583" y="156.287674" style="fill: #1f77b4; stroke: #ffffff; stroke-width: 0.565685"/>
     <use xlink:href="#m507cd15a73" x="259.019583" y="327.276103" style="fill: #1f77b4; stroke: #ffffff; stroke-width: 0.565685"/>
     <use xlink:href="#m507cd15a73" x="270.347917" y="325.763514" style="fill: #1f77b4; stroke: #ffffff; stroke-width: 0.565685"/>
     <use xlink:href="#m507cd15a73" x="281.67625" y="324.097317" style="fill: #1f77b4; stroke: #ffffff; stroke-width: 0.565685"/>
     <use xlink:href="#m507cd15a73" x="293.004583" y="322.705547" style="fill: #1f77b4; stroke: #ffffff; stroke-width: 0.565685"/>
     <use xlink:href="#m507cd15a73" x="304.332917" y="321.113447" style="fill: #1f77b4; stroke: #ffffff; stroke-width: 0.565685"/>
     <use xlink:href="#m507cd15a73" x="315.66125" y="321.140388" style="fill: #1f77b4; stroke: #ffffff; stroke-width: 0.565685"/>
     <use xlink:href="#m507cd15a73" x="326.989583" y="321.055029" style="fill: #1f77b4; stroke: #ffffff; stroke-width: 0.565685"/>
     <use xlink:href="#m507cd15a73" x="338.317917" y="319.836842" style="fill: #1f77b4; stroke: #ffffff; stroke-width: 0.565685"/>
     <use xlink:href="#m507cd15a73" x="349.64625" y="298.632749" style="fill: #1f77b4; stroke: #ffffff; stroke-width: 0.565685"/>
     <use xlink:href="#m507cd15a73" x="360.974583" y="275.528394" style="fill: #1f77b4; stroke: #ffffff; stroke-width: 0.565685"/>
     <use xlink:href="#m507cd15a73" x="372.302917" y="261.71462" style="fill: #1f77b4; stroke: #ffffff; stroke-width: 0.565685"/>
     <use xlink:href="#m507cd15a73" x="383.63125" y="258.467673" style="fill: #1f77b4; stroke: #ffffff; stroke-width: 0.565685"/>
     <use xlink:href="#m507cd15a73" x="394.959583" y="253.517701" style="fill: #1f77b4; stroke: #ffffff; stroke-width: 0.565685"/>
     <use xlink:href="#m507cd15a73" x="406.287917" y="252.502953" style="fill: #1f77b4; stroke: #ffffff; stroke-width: 0.565685"/>
     <use xlink:href="#m507cd15a73" x="417.61625" y="251.638897" style="fill: #1f77b4; stroke: #ffffff; stroke-width: 0.565685"/>
     <use xlink:href="#m507cd15a73" x="428.944583" y="249.622959" style="fill: #1f77b4; stroke: #ffffff; stroke-width: 0.565685"/>
     <use xlink:href="#m507cd15a73" x="440.272917" y="248.484965" style="fill: #1f77b4; stroke: #ffffff; stroke-width: 0.565685"/>
     <use xlink:href="#m507cd15a73" x="451.60125" y="248.003015" style="fill: #1f77b4; stroke: #ffffff; stroke-width: 0.565685"/>
     <use xlink:href="#m507cd15a73" x="462.929583" y="248.795783" style="fill: #1f77b4; stroke: #ffffff; stroke-width: 0.565685"/>
     <use xlink:href="#m507cd15a73" x="474.257917" y="248.722907" style="fill: #1f77b4; stroke: #ffffff; stroke-width: 0.565685"/>
     <use xlink:href="#m507cd15a73" x="485.58625" y="249.202285" style="fill: #1f77b4; stroke: #ffffff; stroke-width: 0.565685"/>
     <use xlink:href="#m507cd15a73" x="496.914583" y="250.164821" style="fill: #1f77b4; stroke: #ffffff; stroke-width: 0.565685"/>
     <use xlink:href="#m507cd15a73" x="508.242917" y="250.163485" style="fill: #1f77b4; stroke: #ffffff; stroke-width: 0.565685"/>
     <use xlink:href="#m507cd15a73" x="519.57125" y="250.116992" style="fill: #1f77b4; stroke: #ffffff; stroke-width: 0.565685"/>
     <use xlink:href="#m507cd15a73" x="530.899583" y="249.997631" style="fill: #1f77b4; stroke: #ffffff; stroke-width: 0.565685"/>
     <use xlink:href="#m507cd15a73" x="542.227917" y="249.992848" style="fill: #1f77b4; stroke: #ffffff; stroke-width: 0.565685"/>
     <use xlink:href="#m507cd15a73" x="553.55625" y="257.701986" style="fill: #1f77b4; stroke: #ffffff; stroke-width: 0.565685"/>
     <use xlink:href="#m507cd15a73" x="564.884583" y="260.622362" style="fill: #1f77b4; stroke: #ffffff; stroke-width: 0.565685"/>
     <use xlink:href="#m507cd15a73" x="576.212917" y="262.142611" style="fill: #1f77b4; stroke: #ffffff; stroke-width: 0.565685"/>
     <use xlink:href="#m507cd15a73" x="587.54125" y="262.492922" style="fill: #1f77b4; stroke: #ffffff; stroke-width: 0.565685"/>
    </g>
   </g>
   <g id="PolyCollection_1"/>
   <g id="matplotlib.axis_1">
    <g id="xtick_1">
     <g id="line2d_2">
      <path d="M 77.76625 462.878125 
L 77.76625 22.318125 
" clip-path="url(#p2a3717ade0)" style="fill: none; stroke: #b0b0b0; stroke-width: 0.8; stroke-linecap: square"/>
     </g>
     <g id="line2d_3">
      <defs>
       <path id="m2e8b51865f" d="M 0 0 
L 0 3.5 
" style="stroke: #000000; stroke-width: 0.8"/>
      </defs>
      <g>
       <use xlink:href="#m2e8b51865f" x="77.76625" y="462.878125" style="stroke: #000000; stroke-width: 0.8"/>
      </g>
     </g>
     <g id="text_1">
      <!-- 5 -->
      <g transform="translate(74.585 477.476562) scale(0.1 -0.1)">
       <defs>
        <path id="DejaVuSans-35" d="M 691 4666 
L 3169 4666 
L 3169 4134 
L 1269 4134 
L 1269 2991 
Q 1406 3038 1543 3061 
Q 1681 3084 1819 3084 
Q 2600 3084 3056 2656 
Q 3513 2228 3513 1497 
Q 3513 744 3044 326 
Q 2575 -91 1722 -91 
Q 1428 -91 1123 -41 
Q 819 9 494 109 
L 494 744 
Q 775 591 1075 516 
Q 1375 441 1709 441 
Q 2250 441 2565 725 
Q 2881 1009 2881 1497 
Q 2881 1984 2565 2268 
Q 2250 2553 1709 2553 
Q 1456 2553 1204 2497 
Q 953 2441 691 2322 
L 691 4666 
z
" transform="scale(0.015625)"/>
       </defs>
       <use xlink:href="#DejaVuSans-35"/>
      </g>
     </g>
    </g>
    <g id="xtick_2">
     <g id="line2d_4">
      <path d="M 134.407917 462.878125 
L 134.407917 22.318125 
" clip-path="url(#p2a3717ade0)" style="fill: none; stroke: #b0b0b0; stroke-width: 0.8; stroke-linecap: square"/>
     </g>
     <g id="line2d_5">
      <g>
       <use xlink:href="#m2e8b51865f" x="134.407917" y="462.878125" style="stroke: #000000; stroke-width: 0.8"/>
      </g>
     </g>
     <g id="text_2">
      <!-- 10 -->
      <g transform="translate(128.045417 477.476562) scale(0.1 -0.1)">
       <defs>
        <path id="DejaVuSans-31" d="M 794 531 
L 1825 531 
L 1825 4091 
L 703 3866 
L 703 4441 
L 1819 4666 
L 2450 4666 
L 2450 531 
L 3481 531 
L 3481 0 
L 794 0 
L 794 531 
z
" transform="scale(0.015625)"/>
        <path id="DejaVuSans-30" d="M 2034 4250 
Q 1547 4250 1301 3770 
Q 1056 3291 1056 2328 
Q 1056 1369 1301 889 
Q 1547 409 2034 409 
Q 2525 409 2770 889 
Q 3016 1369 3016 2328 
Q 3016 3291 2770 3770 
Q 2525 4250 2034 4250 
z
M 2034 4750 
Q 2819 4750 3233 4129 
Q 3647 3509 3647 2328 
Q 3647 1150 3233 529 
Q 2819 -91 2034 -91 
Q 1250 -91 836 529 
Q 422 1150 422 2328 
Q 422 3509 836 4129 
Q 1250 4750 2034 4750 
z
" transform="scale(0.015625)"/>
       </defs>
       <use xlink:href="#DejaVuSans-31"/>
       <use xlink:href="#DejaVuSans-30" x="63.623047"/>
      </g>
     </g>
    </g>
    <g id="xtick_3">
     <g id="line2d_6">
      <path d="M 191.049583 462.878125 
L 191.049583 22.318125 
" clip-path="url(#p2a3717ade0)" style="fill: none; stroke: #b0b0b0; stroke-width: 0.8; stroke-linecap: square"/>
     </g>
     <g id="line2d_7">
      <g>
       <use xlink:href="#m2e8b51865f" x="191.049583" y="462.878125" style="stroke: #000000; stroke-width: 0.8"/>
      </g>
     </g>
     <g id="text_3">
      <!-- 15 -->
      <g transform="translate(184.687083 477.476562) scale(0.1 -0.1)">
       <use xlink:href="#DejaVuSans-31"/>
       <use xlink:href="#DejaVuSans-35" x="63.623047"/>
      </g>
     </g>
    </g>
    <g id="xtick_4">
     <g id="line2d_8">
      <path d="M 247.69125 462.878125 
L 247.69125 22.318125 
" clip-path="url(#p2a3717ade0)" style="fill: none; stroke: #b0b0b0; stroke-width: 0.8; stroke-linecap: square"/>
     </g>
     <g id="line2d_9">
      <g>
       <use xlink:href="#m2e8b51865f" x="247.69125" y="462.878125" style="stroke: #000000; stroke-width: 0.8"/>
      </g>
     </g>
     <g id="text_4">
      <!-- 20 -->
      <g transform="translate(241.32875 477.476562) scale(0.1 -0.1)">
       <defs>
        <path id="DejaVuSans-32" d="M 1228 531 
L 3431 531 
L 3431 0 
L 469 0 
L 469 531 
Q 828 903 1448 1529 
Q 2069 2156 2228 2338 
Q 2531 2678 2651 2914 
Q 2772 3150 2772 3378 
Q 2772 3750 2511 3984 
Q 2250 4219 1831 4219 
Q 1534 4219 1204 4116 
Q 875 4013 500 3803 
L 500 4441 
Q 881 4594 1212 4672 
Q 1544 4750 1819 4750 
Q 2544 4750 2975 4387 
Q 3406 4025 3406 3419 
Q 3406 3131 3298 2873 
Q 3191 2616 2906 2266 
Q 2828 2175 2409 1742 
Q 1991 1309 1228 531 
z
" transform="scale(0.015625)"/>
       </defs>
       <use xlink:href="#DejaVuSans-32"/>
       <use xlink:href="#DejaVuSans-30" x="63.623047"/>
      </g>
     </g>
    </g>
    <g id="xtick_5">
     <g id="line2d_10">
      <path d="M 304.332917 462.878125 
L 304.332917 22.318125 
" clip-path="url(#p2a3717ade0)" style="fill: none; stroke: #b0b0b0; stroke-width: 0.8; stroke-linecap: square"/>
     </g>
     <g id="line2d_11">
      <g>
       <use xlink:href="#m2e8b51865f" x="304.332917" y="462.878125" style="stroke: #000000; stroke-width: 0.8"/>
      </g>
     </g>
     <g id="text_5">
      <!-- 25 -->
      <g transform="translate(297.970417 477.476562) scale(0.1 -0.1)">
       <use xlink:href="#DejaVuSans-32"/>
       <use xlink:href="#DejaVuSans-35" x="63.623047"/>
      </g>
     </g>
    </g>
    <g id="xtick_6">
     <g id="line2d_12">
      <path d="M 360.974583 462.878125 
L 360.974583 22.318125 
" clip-path="url(#p2a3717ade0)" style="fill: none; stroke: #b0b0b0; stroke-width: 0.8; stroke-linecap: square"/>
     </g>
     <g id="line2d_13">
      <g>
       <use xlink:href="#m2e8b51865f" x="360.974583" y="462.878125" style="stroke: #000000; stroke-width: 0.8"/>
      </g>
     </g>
     <g id="text_6">
      <!-- 30 -->
      <g transform="translate(354.612083 477.476562) scale(0.1 -0.1)">
       <defs>
        <path id="DejaVuSans-33" d="M 2597 2516 
Q 3050 2419 3304 2112 
Q 3559 1806 3559 1356 
Q 3559 666 3084 287 
Q 2609 -91 1734 -91 
Q 1441 -91 1130 -33 
Q 819 25 488 141 
L 488 750 
Q 750 597 1062 519 
Q 1375 441 1716 441 
Q 2309 441 2620 675 
Q 2931 909 2931 1356 
Q 2931 1769 2642 2001 
Q 2353 2234 1838 2234 
L 1294 2234 
L 1294 2753 
L 1863 2753 
Q 2328 2753 2575 2939 
Q 2822 3125 2822 3475 
Q 2822 3834 2567 4026 
Q 2313 4219 1838 4219 
Q 1578 4219 1281 4162 
Q 984 4106 628 3988 
L 628 4550 
Q 988 4650 1302 4700 
Q 1616 4750 1894 4750 
Q 2613 4750 3031 4423 
Q 3450 4097 3450 3541 
Q 3450 3153 3228 2886 
Q 3006 2619 2597 2516 
z
" transform="scale(0.015625)"/>
       </defs>
       <use xlink:href="#DejaVuSans-33"/>
       <use xlink:href="#DejaVuSans-30" x="63.623047"/>
      </g>
     </g>
    </g>
    <g id="xtick_7">
     <g id="line2d_14">
      <path d="M 417.61625 462.878125 
L 417.61625 22.318125 
" clip-path="url(#p2a3717ade0)" style="fill: none; stroke: #b0b0b0; stroke-width: 0.8; stroke-linecap: square"/>
     </g>
     <g id="line2d_15">
      <g>
       <use xlink:href="#m2e8b51865f" x="417.61625" y="462.878125" style="stroke: #000000; stroke-width: 0.8"/>
      </g>
     </g>
     <g id="text_7">
      <!-- 35 -->
      <g transform="translate(411.25375 477.476562) scale(0.1 -0.1)">
       <use xlink:href="#DejaVuSans-33"/>
       <use xlink:href="#DejaVuSans-35" x="63.623047"/>
      </g>
     </g>
    </g>
    <g id="xtick_8">
     <g id="line2d_16">
      <path d="M 474.257917 462.878125 
L 474.257917 22.318125 
" clip-path="url(#p2a3717ade0)" style="fill: none; stroke: #b0b0b0; stroke-width: 0.8; stroke-linecap: square"/>
     </g>
     <g id="line2d_17">
      <g>
       <use xlink:href="#m2e8b51865f" x="474.257917" y="462.878125" style="stroke: #000000; stroke-width: 0.8"/>
      </g>
     </g>
     <g id="text_8">
      <!-- 40 -->
      <g transform="translate(467.895417 477.476562) scale(0.1 -0.1)">
       <defs>
        <path id="DejaVuSans-34" d="M 2419 4116 
L 825 1625 
L 2419 1625 
L 2419 4116 
z
M 2253 4666 
L 3047 4666 
L 3047 1625 
L 3713 1625 
L 3713 1100 
L 3047 1100 
L 3047 0 
L 2419 0 
L 2419 1100 
L 313 1100 
L 313 1709 
L 2253 4666 
z
" transform="scale(0.015625)"/>
       </defs>
       <use xlink:href="#DejaVuSans-34"/>
       <use xlink:href="#DejaVuSans-30" x="63.623047"/>
      </g>
     </g>
    </g>
    <g id="xtick_9">
     <g id="line2d_18">
      <path d="M 530.899583 462.878125 
L 530.899583 22.318125 
" clip-path="url(#p2a3717ade0)" style="fill: none; stroke: #b0b0b0; stroke-width: 0.8; stroke-linecap: square"/>
     </g>
     <g id="line2d_19">
      <g>
       <use xlink:href="#m2e8b51865f" x="530.899583" y="462.878125" style="stroke: #000000; stroke-width: 0.8"/>
      </g>
     </g>
     <g id="text_9">
      <!-- 45 -->
      <g transform="translate(524.537083 477.476562) scale(0.1 -0.1)">
       <use xlink:href="#DejaVuSans-34"/>
       <use xlink:href="#DejaVuSans-35" x="63.623047"/>
      </g>
     </g>
    </g>
    <g id="text_10">
     <!-- Lap Number -->
     <g transform="translate(284.962031 491.154687) scale(0.1 -0.1)">
      <defs>
       <path id="DejaVuSans-4c" d="M 628 4666 
L 1259 4666 
L 1259 531 
L 3531 531 
L 3531 0 
L 628 0 
L 628 4666 
z
" transform="scale(0.015625)"/>
       <path id="DejaVuSans-61" d="M 2194 1759 
Q 1497 1759 1228 1600 
Q 959 1441 959 1056 
Q 959 750 1161 570 
Q 1363 391 1709 391 
Q 2188 391 2477 730 
Q 2766 1069 2766 1631 
L 2766 1759 
L 2194 1759 
z
M 3341 1997 
L 3341 0 
L 2766 0 
L 2766 531 
Q 2569 213 2275 61 
Q 1981 -91 1556 -91 
Q 1019 -91 701 211 
Q 384 513 384 1019 
Q 384 1609 779 1909 
Q 1175 2209 1959 2209 
L 2766 2209 
L 2766 2266 
Q 2766 2663 2505 2880 
Q 2244 3097 1772 3097 
Q 1472 3097 1187 3025 
Q 903 2953 641 2809 
L 641 3341 
Q 956 3463 1253 3523 
Q 1550 3584 1831 3584 
Q 2591 3584 2966 3190 
Q 3341 2797 3341 1997 
z
" transform="scale(0.015625)"/>
       <path id="DejaVuSans-70" d="M 1159 525 
L 1159 -1331 
L 581 -1331 
L 581 3500 
L 1159 3500 
L 1159 2969 
Q 1341 3281 1617 3432 
Q 1894 3584 2278 3584 
Q 2916 3584 3314 3078 
Q 3713 2572 3713 1747 
Q 3713 922 3314 415 
Q 2916 -91 2278 -91 
Q 1894 -91 1617 61 
Q 1341 213 1159 525 
z
M 3116 1747 
Q 3116 2381 2855 2742 
Q 2594 3103 2138 3103 
Q 1681 3103 1420 2742 
Q 1159 2381 1159 1747 
Q 1159 1113 1420 752 
Q 1681 391 2138 391 
Q 2594 391 2855 752 
Q 3116 1113 3116 1747 
z
" transform="scale(0.015625)"/>
       <path id="DejaVuSans-20" transform="scale(0.015625)"/>
       <path id="DejaVuSans-4e" d="M 628 4666 
L 1478 4666 
L 3547 763 
L 3547 4666 
L 4159 4666 
L 4159 0 
L 3309 0 
L 1241 3903 
L 1241 0 
L 628 0 
L 628 4666 
z
" transform="scale(0.015625)"/>
       <path id="DejaVuSans-75" d="M 544 1381 
L 544 3500 
L 1119 3500 
L 1119 1403 
Q 1119 906 1312 657 
Q 1506 409 1894 409 
Q 2359 409 2629 706 
Q 2900 1003 2900 1516 
L 2900 3500 
L 3475 3500 
L 3475 0 
L 2900 0 
L 2900 538 
Q 2691 219 2414 64 
Q 2138 -91 1772 -91 
Q 1169 -91 856 284 
Q 544 659 544 1381 
z
M 1991 3584 
L 1991 3584 
z
" transform="scale(0.015625)"/>
       <path id="DejaVuSans-6d" d="M 3328 2828 
Q 3544 3216 3844 3400 
Q 4144 3584 4550 3584 
Q 5097 3584 5394 3201 
Q 5691 2819 5691 2113 
L 5691 0 
L 5113 0 
L 5113 2094 
Q 5113 2597 4934 2840 
Q 4756 3084 4391 3084 
Q 3944 3084 3684 2787 
Q 3425 2491 3425 1978 
L 3425 0 
L 2847 0 
L 2847 2094 
Q 2847 2600 2669 2842 
Q 2491 3084 2119 3084 
Q 1678 3084 1418 2786 
Q 1159 2488 1159 1978 
L 1159 0 
L 581 0 
L 581 3500 
L 1159 3500 
L 1159 2956 
Q 1356 3278 1631 3431 
Q 1906 3584 2284 3584 
Q 2666 3584 2933 3390 
Q 3200 3197 3328 2828 
z
" transform="scale(0.015625)"/>
       <path id="DejaVuSans-62" d="M 3116 1747 
Q 3116 2381 2855 2742 
Q 2594 3103 2138 3103 
Q 1681 3103 1420 2742 
Q 1159 2381 1159 1747 
Q 1159 1113 1420 752 
Q 1681 391 2138 391 
Q 2594 391 2855 752 
Q 3116 1113 3116 1747 
z
M 1159 2969 
Q 1341 3281 1617 3432 
Q 1894 3584 2278 3584 
Q 2916 3584 3314 3078 
Q 3713 2572 3713 1747 
Q 3713 922 3314 415 
Q 2916 -91 2278 -91 
Q 1894 -91 1617 61 
Q 1341 213 1159 525 
L 1159 0 
L 581 0 
L 581 4863 
L 1159 4863 
L 1159 2969 
z
" transform="scale(0.015625)"/>
       <path id="DejaVuSans-65" d="M 3597 1894 
L 3597 1613 
L 953 1613 
Q 991 1019 1311 708 
Q 1631 397 2203 397 
Q 2534 397 2845 478 
Q 3156 559 3463 722 
L 3463 178 
Q 3153 47 2828 -22 
Q 2503 -91 2169 -91 
Q 1331 -91 842 396 
Q 353 884 353 1716 
Q 353 2575 817 3079 
Q 1281 3584 2069 3584 
Q 2775 3584 3186 3129 
Q 3597 2675 3597 1894 
z
M 3022 2063 
Q 3016 2534 2758 2815 
Q 2500 3097 2075 3097 
Q 1594 3097 1305 2825 
Q 1016 2553 972 2059 
L 3022 2063 
z
" transform="scale(0.015625)"/>
       <path id="DejaVuSans-72" d="M 2631 2963 
Q 2534 3019 2420 3045 
Q 2306 3072 2169 3072 
Q 1681 3072 1420 2755 
Q 1159 2438 1159 1844 
L 1159 0 
L 581 0 
L 581 3500 
L 1159 3500 
L 1159 2956 
Q 1341 3275 1631 3429 
Q 1922 3584 2338 3584 
Q 2397 3584 2469 3576 
Q 2541 3569 2628 3553 
L 2631 2963 
z
" transform="scale(0.015625)"/>
      </defs>
      <use xlink:href="#DejaVuSans-4c"/>
      <use xlink:href="#DejaVuSans-61" x="55.712891"/>
      <use xlink:href="#DejaVuSans-70" x="116.992188"/>
      <use xlink:href="#DejaVuSans-20" x="180.46875"/>
      <use xlink:href="#DejaVuSans-4e" x="212.255859"/>
      <use xlink:href="#DejaVuSans-75" x="287.060547"/>
      <use xlink:href="#DejaVuSans-6d" x="350.439453"/>
      <use xlink:href="#DejaVuSans-62" x="447.851562"/>
      <use xlink:href="#DejaVuSans-65" x="511.328125"/>
      <use xlink:href="#DejaVuSans-72" x="572.851562"/>
     </g>
    </g>
   </g>
   <g id="matplotlib.axis_2">
    <g id="ytick_1">
     <g id="line2d_20">
      <path d="M 43.78125 462.878125 
L 587.54125 462.878125 
" clip-path="url(#p2a3717ade0)" style="fill: none; stroke: #b0b0b0; stroke-width: 0.8; stroke-linecap: square"/>
     </g>
     <g id="line2d_21">
      <defs>
       <path id="m09ece14be7" d="M 0 0 
L -3.5 0 
" style="stroke: #000000; stroke-width: 0.8"/>
      </defs>
      <g>
       <use xlink:href="#m09ece14be7" x="43.78125" y="462.878125" style="stroke: #000000; stroke-width: 0.8"/>
      </g>
     </g>
     <g id="text_11">
      <!-- 0.0 -->
      <g transform="translate(20.878125 466.677344) scale(0.1 -0.1)">
       <defs>
        <path id="DejaVuSans-2e" d="M 684 794 
L 1344 794 
L 1344 0 
L 684 0 
L 684 794 
z
" transform="scale(0.015625)"/>
       </defs>
       <use xlink:href="#DejaVuSans-30"/>
       <use xlink:href="#DejaVuSans-2e" x="63.623047"/>
       <use xlink:href="#DejaVuSans-30" x="95.410156"/>
      </g>
     </g>
    </g>
    <g id="ytick_2">
     <g id="line2d_22">
      <path d="M 43.78125 374.766125 
L 587.54125 374.766125 
" clip-path="url(#p2a3717ade0)" style="fill: none; stroke: #b0b0b0; stroke-width: 0.8; stroke-linecap: square"/>
     </g>
     <g id="line2d_23">
      <g>
       <use xlink:href="#m09ece14be7" x="43.78125" y="374.766125" style="stroke: #000000; stroke-width: 0.8"/>
      </g>
     </g>
     <g id="text_12">
      <!-- 0.2 -->
      <g transform="translate(20.878125 378.565344) scale(0.1 -0.1)">
       <use xlink:href="#DejaVuSans-30"/>
       <use xlink:href="#DejaVuSans-2e" x="63.623047"/>
       <use xlink:href="#DejaVuSans-32" x="95.410156"/>
      </g>
     </g>
    </g>
    <g id="ytick_3">
     <g id="line2d_24">
      <path d="M 43.78125 286.654125 
L 587.54125 286.654125 
" clip-path="url(#p2a3717ade0)" style="fill: none; stroke: #b0b0b0; stroke-width: 0.8; stroke-linecap: square"/>
     </g>
     <g id="line2d_25">
      <g>
       <use xlink:href="#m09ece14be7" x="43.78125" y="286.654125" style="stroke: #000000; stroke-width: 0.8"/>
      </g>
     </g>
     <g id="text_13">
      <!-- 0.4 -->
      <g transform="translate(20.878125 290.453344) scale(0.1 -0.1)">
       <use xlink:href="#DejaVuSans-30"/>
       <use xlink:href="#DejaVuSans-2e" x="63.623047"/>
       <use xlink:href="#DejaVuSans-34" x="95.410156"/>
      </g>
     </g>
    </g>
    <g id="ytick_4">
     <g id="line2d_26">
      <path d="M 43.78125 198.542125 
L 587.54125 198.542125 
" clip-path="url(#p2a3717ade0)" style="fill: none; stroke: #b0b0b0; stroke-width: 0.8; stroke-linecap: square"/>
     </g>
     <g id="line2d_27">
      <g>
       <use xlink:href="#m09ece14be7" x="43.78125" y="198.542125" style="stroke: #000000; stroke-width: 0.8"/>
      </g>
     </g>
     <g id="text_14">
      <!-- 0.6 -->
      <g transform="translate(20.878125 202.341344) scale(0.1 -0.1)">
       <defs>
        <path id="DejaVuSans-36" d="M 2113 2584 
Q 1688 2584 1439 2293 
Q 1191 2003 1191 1497 
Q 1191 994 1439 701 
Q 1688 409 2113 409 
Q 2538 409 2786 701 
Q 3034 994 3034 1497 
Q 3034 2003 2786 2293 
Q 2538 2584 2113 2584 
z
M 3366 4563 
L 3366 3988 
Q 3128 4100 2886 4159 
Q 2644 4219 2406 4219 
Q 1781 4219 1451 3797 
Q 1122 3375 1075 2522 
Q 1259 2794 1537 2939 
Q 1816 3084 2150 3084 
Q 2853 3084 3261 2657 
Q 3669 2231 3669 1497 
Q 3669 778 3244 343 
Q 2819 -91 2113 -91 
Q 1303 -91 875 529 
Q 447 1150 447 2328 
Q 447 3434 972 4092 
Q 1497 4750 2381 4750 
Q 2619 4750 2861 4703 
Q 3103 4656 3366 4563 
z
" transform="scale(0.015625)"/>
       </defs>
       <use xlink:href="#DejaVuSans-30"/>
       <use xlink:href="#DejaVuSans-2e" x="63.623047"/>
       <use xlink:href="#DejaVuSans-36" x="95.410156"/>
      </g>
     </g>
    </g>
    <g id="ytick_5">
     <g id="line2d_28">
      <path d="M 43.78125 110.430125 
L 587.54125 110.430125 
" clip-path="url(#p2a3717ade0)" style="fill: none; stroke: #b0b0b0; stroke-width: 0.8; stroke-linecap: square"/>
     </g>
     <g id="line2d_29">
      <g>
       <use xlink:href="#m09ece14be7" x="43.78125" y="110.430125" style="stroke: #000000; stroke-width: 0.8"/>
      </g>
     </g>
     <g id="text_15">
      <!-- 0.8 -->
      <g transform="translate(20.878125 114.229344) scale(0.1 -0.1)">
       <defs>
        <path id="DejaVuSans-38" d="M 2034 2216 
Q 1584 2216 1326 1975 
Q 1069 1734 1069 1313 
Q 1069 891 1326 650 
Q 1584 409 2034 409 
Q 2484 409 2743 651 
Q 3003 894 3003 1313 
Q 3003 1734 2745 1975 
Q 2488 2216 2034 2216 
z
M 1403 2484 
Q 997 2584 770 2862 
Q 544 3141 544 3541 
Q 544 4100 942 4425 
Q 1341 4750 2034 4750 
Q 2731 4750 3128 4425 
Q 3525 4100 3525 3541 
Q 3525 3141 3298 2862 
Q 3072 2584 2669 2484 
Q 3125 2378 3379 2068 
Q 3634 1759 3634 1313 
Q 3634 634 3220 271 
Q 2806 -91 2034 -91 
Q 1263 -91 848 271 
Q 434 634 434 1313 
Q 434 1759 690 2068 
Q 947 2378 1403 2484 
z
M 1172 3481 
Q 1172 3119 1398 2916 
Q 1625 2713 2034 2713 
Q 2441 2713 2670 2916 
Q 2900 3119 2900 3481 
Q 2900 3844 2670 4047 
Q 2441 4250 2034 4250 
Q 1625 4250 1398 4047 
Q 1172 3844 1172 3481 
z
" transform="scale(0.015625)"/>
       </defs>
       <use xlink:href="#DejaVuSans-30"/>
       <use xlink:href="#DejaVuSans-2e" x="63.623047"/>
       <use xlink:href="#DejaVuSans-38" x="95.410156"/>
      </g>
     </g>
    </g>
    <g id="ytick_6">
     <g id="line2d_30">
      <path d="M 43.78125 22.318125 
L 587.54125 22.318125 
" clip-path="url(#p2a3717ade0)" style="fill: none; stroke: #b0b0b0; stroke-width: 0.8; stroke-linecap: square"/>
     </g>
     <g id="line2d_31">
      <g>
       <use xlink:href="#m09ece14be7" x="43.78125" y="22.318125" style="stroke: #000000; stroke-width: 0.8"/>
      </g>
     </g>
     <g id="text_16">
      <!-- 1.0 -->
      <g transform="translate(20.878125 26.117344) scale(0.1 -0.1)">
       <use xlink:href="#DejaVuSans-31"/>
       <use xlink:href="#DejaVuSans-2e" x="63.623047"/>
       <use xlink:href="#DejaVuSans-30" x="95.410156"/>
      </g>
     </g>
    </g>
    <g id="text_17">
     <!-- Probability of pitting -->
     <g transform="translate(14.798438 293.240312) rotate(-90) scale(0.1 -0.1)">
      <defs>
       <path id="DejaVuSans-50" d="M 1259 4147 
L 1259 2394 
L 2053 2394 
Q 2494 2394 2734 2622 
Q 2975 2850 2975 3272 
Q 2975 3691 2734 3919 
Q 2494 4147 2053 4147 
L 1259 4147 
z
M 628 4666 
L 2053 4666 
Q 2838 4666 3239 4311 
Q 3641 3956 3641 3272 
Q 3641 2581 3239 2228 
Q 2838 1875 2053 1875 
L 1259 1875 
L 1259 0 
L 628 0 
L 628 4666 
z
" transform="scale(0.015625)"/>
       <path id="DejaVuSans-6f" d="M 1959 3097 
Q 1497 3097 1228 2736 
Q 959 2375 959 1747 
Q 959 1119 1226 758 
Q 1494 397 1959 397 
Q 2419 397 2687 759 
Q 2956 1122 2956 1747 
Q 2956 2369 2687 2733 
Q 2419 3097 1959 3097 
z
M 1959 3584 
Q 2709 3584 3137 3096 
Q 3566 2609 3566 1747 
Q 3566 888 3137 398 
Q 2709 -91 1959 -91 
Q 1206 -91 779 398 
Q 353 888 353 1747 
Q 353 2609 779 3096 
Q 1206 3584 1959 3584 
z
" transform="scale(0.015625)"/>
       <path id="DejaVuSans-69" d="M 603 3500 
L 1178 3500 
L 1178 0 
L 603 0 
L 603 3500 
z
M 603 4863 
L 1178 4863 
L 1178 4134 
L 603 4134 
L 603 4863 
z
" transform="scale(0.015625)"/>
       <path id="DejaVuSans-6c" d="M 603 4863 
L 1178 4863 
L 1178 0 
L 603 0 
L 603 4863 
z
" transform="scale(0.015625)"/>
       <path id="DejaVuSans-74" d="M 1172 4494 
L 1172 3500 
L 2356 3500 
L 2356 3053 
L 1172 3053 
L 1172 1153 
Q 1172 725 1289 603 
Q 1406 481 1766 481 
L 2356 481 
L 2356 0 
L 1766 0 
Q 1100 0 847 248 
Q 594 497 594 1153 
L 594 3053 
L 172 3053 
L 172 3500 
L 594 3500 
L 594 4494 
L 1172 4494 
z
" transform="scale(0.015625)"/>
       <path id="DejaVuSans-79" d="M 2059 -325 
Q 1816 -950 1584 -1140 
Q 1353 -1331 966 -1331 
L 506 -1331 
L 506 -850 
L 844 -850 
Q 1081 -850 1212 -737 
Q 1344 -625 1503 -206 
L 1606 56 
L 191 3500 
L 800 3500 
L 1894 763 
L 2988 3500 
L 3597 3500 
L 2059 -325 
z
" transform="scale(0.015625)"/>
       <path id="DejaVuSans-66" d="M 2375 4863 
L 2375 4384 
L 1825 4384 
Q 1516 4384 1395 4259 
Q 1275 4134 1275 3809 
L 1275 3500 
L 2222 3500 
L 2222 3053 
L 1275 3053 
L 1275 0 
L 697 0 
L 697 3053 
L 147 3053 
L 147 3500 
L 697 3500 
L 697 3744 
Q 697 4328 969 4595 
Q 1241 4863 1831 4863 
L 2375 4863 
z
" transform="scale(0.015625)"/>
       <path id="DejaVuSans-6e" d="M 3513 2113 
L 3513 0 
L 2938 0 
L 2938 2094 
Q 2938 2591 2744 2837 
Q 2550 3084 2163 3084 
Q 1697 3084 1428 2787 
Q 1159 2491 1159 1978 
L 1159 0 
L 581 0 
L 581 3500 
L 1159 3500 
L 1159 2956 
Q 1366 3272 1645 3428 
Q 1925 3584 2291 3584 
Q 2894 3584 3203 3211 
Q 3513 2838 3513 2113 
z
" transform="scale(0.015625)"/>
       <path id="DejaVuSans-67" d="M 2906 1791 
Q 2906 2416 2648 2759 
Q 2391 3103 1925 3103 
Q 1463 3103 1205 2759 
Q 947 2416 947 1791 
Q 947 1169 1205 825 
Q 1463 481 1925 481 
Q 2391 481 2648 825 
Q 2906 1169 2906 1791 
z
M 3481 434 
Q 3481 -459 3084 -895 
Q 2688 -1331 1869 -1331 
Q 1566 -1331 1297 -1286 
Q 1028 -1241 775 -1147 
L 775 -588 
Q 1028 -725 1275 -790 
Q 1522 -856 1778 -856 
Q 2344 -856 2625 -561 
Q 2906 -266 2906 331 
L 2906 616 
Q 2728 306 2450 153 
Q 2172 0 1784 0 
Q 1141 0 747 490 
Q 353 981 353 1791 
Q 353 2603 747 3093 
Q 1141 3584 1784 3584 
Q 2172 3584 2450 3431 
Q 2728 3278 2906 2969 
L 2906 3500 
L 3481 3500 
L 3481 434 
z
" transform="scale(0.015625)"/>
      </defs>
      <use xlink:href="#DejaVuSans-50"/>
      <use xlink:href="#DejaVuSans-72" x="58.552734"/>
      <use xlink:href="#DejaVuSans-6f" x="97.416016"/>
      <use xlink:href="#DejaVuSans-62" x="158.597656"/>
      <use xlink:href="#DejaVuSans-61" x="222.074219"/>
      <use xlink:href="#DejaVuSans-62" x="283.353516"/>
      <use xlink:href="#DejaVuSans-69" x="346.830078"/>
      <use xlink:href="#DejaVuSans-6c" x="374.613281"/>
      <use xlink:href="#DejaVuSans-69" x="402.396484"/>
      <use xlink:href="#DejaVuSans-74" x="430.179688"/>
      <use xlink:href="#DejaVuSans-79" x="469.388672"/>
      <use xlink:href="#DejaVuSans-20" x="528.568359"/>
      <use xlink:href="#DejaVuSans-6f" x="560.355469"/>
      <use xlink:href="#DejaVuSans-66" x="621.537109"/>
      <use xlink:href="#DejaVuSans-20" x="656.742188"/>
      <use xlink:href="#DejaVuSans-70" x="688.529297"/>
      <use xlink:href="#DejaVuSans-69" x="752.005859"/>
      <use xlink:href="#DejaVuSans-74" x="779.789062"/>
      <use xlink:href="#DejaVuSans-74" x="818.998047"/>
      <use xlink:href="#DejaVuSans-69" x="858.207031"/>
      <use xlink:href="#DejaVuSans-6e" x="885.990234"/>
      <use xlink:href="#DejaVuSans-67" x="949.369141"/>
     </g>
    </g>
   </g>
   <g id="patch_52">
    <path d="M 43.78125 462.878125 
L 43.78125 22.318125 
" style="fill: none; stroke: #000000; stroke-width: 0.8; stroke-linejoin: miter; stroke-linecap: square"/>
   </g>
   <g id="patch_53">
    <path d="M 587.54125 462.878125 
L 587.54125 22.318125 
" style="fill: none; stroke: #000000; stroke-width: 0.8; stroke-linejoin: miter; stroke-linecap: square"/>
   </g>
   <g id="patch_54">
    <path d="M 43.78125 462.878125 
L 587.54125 462.878125 
" style="fill: none; stroke: #000000; stroke-width: 0.8; stroke-linejoin: miter; stroke-linecap: square"/>
   </g>
   <g id="patch_55">
    <path d="M 43.78125 22.318125 
L 587.54125 22.318125 
" style="fill: none; stroke: #000000; stroke-width: 0.8; stroke-linejoin: miter; stroke-linecap: square"/>
   </g>
   <g id="text_18">
    <!-- Jeddah - Driver 11 -->
    <g transform="translate(261.118437 16.318125) scale(0.12 -0.12)">
     <defs>
      <path id="DejaVuSans-4a" d="M 628 4666 
L 1259 4666 
L 1259 325 
Q 1259 -519 939 -900 
Q 619 -1281 -91 -1281 
L -331 -1281 
L -331 -750 
L -134 -750 
Q 284 -750 456 -515 
Q 628 -281 628 325 
L 628 4666 
z
" transform="scale(0.015625)"/>
      <path id="DejaVuSans-64" d="M 2906 2969 
L 2906 4863 
L 3481 4863 
L 3481 0 
L 2906 0 
L 2906 525 
Q 2725 213 2448 61 
Q 2172 -91 1784 -91 
Q 1150 -91 751 415 
Q 353 922 353 1747 
Q 353 2572 751 3078 
Q 1150 3584 1784 3584 
Q 2172 3584 2448 3432 
Q 2725 3281 2906 2969 
z
M 947 1747 
Q 947 1113 1208 752 
Q 1469 391 1925 391 
Q 2381 391 2643 752 
Q 2906 1113 2906 1747 
Q 2906 2381 2643 2742 
Q 2381 3103 1925 3103 
Q 1469 3103 1208 2742 
Q 947 2381 947 1747 
z
" transform="scale(0.015625)"/>
      <path id="DejaVuSans-68" d="M 3513 2113 
L 3513 0 
L 2938 0 
L 2938 2094 
Q 2938 2591 2744 2837 
Q 2550 3084 2163 3084 
Q 1697 3084 1428 2787 
Q 1159 2491 1159 1978 
L 1159 0 
L 581 0 
L 581 4863 
L 1159 4863 
L 1159 2956 
Q 1366 3272 1645 3428 
Q 1925 3584 2291 3584 
Q 2894 3584 3203 3211 
Q 3513 2838 3513 2113 
z
" transform="scale(0.015625)"/>
      <path id="DejaVuSans-2d" d="M 313 2009 
L 1997 2009 
L 1997 1497 
L 313 1497 
L 313 2009 
z
" transform="scale(0.015625)"/>
      <path id="DejaVuSans-44" d="M 1259 4147 
L 1259 519 
L 2022 519 
Q 2988 519 3436 956 
Q 3884 1394 3884 2338 
Q 3884 3275 3436 3711 
Q 2988 4147 2022 4147 
L 1259 4147 
z
M 628 4666 
L 1925 4666 
Q 3281 4666 3915 4102 
Q 4550 3538 4550 2338 
Q 4550 1131 3912 565 
Q 3275 0 1925 0 
L 628 0 
L 628 4666 
z
" transform="scale(0.015625)"/>
      <path id="DejaVuSans-76" d="M 191 3500 
L 800 3500 
L 1894 563 
L 2988 3500 
L 3597 3500 
L 2284 0 
L 1503 0 
L 191 3500 
z
" transform="scale(0.015625)"/>
     </defs>
     <use xlink:href="#DejaVuSans-4a"/>
     <use xlink:href="#DejaVuSans-65" x="29.492188"/>
     <use xlink:href="#DejaVuSans-64" x="91.015625"/>
     <use xlink:href="#DejaVuSans-64" x="154.492188"/>
     <use xlink:href="#DejaVuSans-61" x="217.96875"/>
     <use xlink:href="#DejaVuSans-68" x="279.248047"/>
     <use xlink:href="#DejaVuSans-20" x="342.626953"/>
     <use xlink:href="#DejaVuSans-2d" x="374.414062"/>
     <use xlink:href="#DejaVuSans-20" x="410.498047"/>
     <use xlink:href="#DejaVuSans-44" x="442.285156"/>
     <use xlink:href="#DejaVuSans-72" x="519.287109"/>
     <use xlink:href="#DejaVuSans-69" x="560.400391"/>
     <use xlink:href="#DejaVuSans-76" x="588.183594"/>
     <use xlink:href="#DejaVuSans-65" x="647.363281"/>
     <use xlink:href="#DejaVuSans-72" x="708.886719"/>
     <use xlink:href="#DejaVuSans-20" x="750"/>
     <use xlink:href="#DejaVuSans-31" x="781.787109"/>
     <use xlink:href="#DejaVuSans-31" x="845.410156"/>
    </g>
   </g>
   <g id="legend_1">
    <g id="patch_56">
     <path d="M 594.97885 98.986875 
L 703.044475 98.986875 
Q 705.044475 98.986875 705.044475 96.986875 
L 705.044475 24.318125 
Q 705.044475 22.318125 703.044475 22.318125 
L 594.97885 22.318125 
Q 592.97885 22.318125 592.97885 24.318125 
L 592.97885 96.986875 
Q 592.97885 98.986875 594.97885 98.986875 
z
" style="fill: #ffffff; opacity: 0.8; stroke: #cccccc; stroke-linejoin: miter"/>
    </g>
    <g id="patch_57">
     <path d="M 596.97885 33.916562 
L 616.97885 33.916562 
L 616.97885 26.916562 
L 596.97885 26.916562 
z
" style="fill: #ffff00; opacity: 0.3"/>
    </g>
    <g id="text_19">
     <!-- Yellow Flag -->
     <g transform="translate(624.97885 33.916562) scale(0.1 -0.1)">
      <defs>
       <path id="DejaVuSans-59" d="M -13 4666 
L 666 4666 
L 1959 2747 
L 3244 4666 
L 3922 4666 
L 2272 2222 
L 2272 0 
L 1638 0 
L 1638 2222 
L -13 4666 
z
" transform="scale(0.015625)"/>
       <path id="DejaVuSans-77" d="M 269 3500 
L 844 3500 
L 1563 769 
L 2278 3500 
L 2956 3500 
L 3675 769 
L 4391 3500 
L 4966 3500 
L 4050 0 
L 3372 0 
L 2619 2869 
L 1863 0 
L 1184 0 
L 269 3500 
z
" transform="scale(0.015625)"/>
       <path id="DejaVuSans-46" d="M 628 4666 
L 3309 4666 
L 3309 4134 
L 1259 4134 
L 1259 2759 
L 3109 2759 
L 3109 2228 
L 1259 2228 
L 1259 0 
L 628 0 
L 628 4666 
z
" transform="scale(0.015625)"/>
      </defs>
      <use xlink:href="#DejaVuSans-59"/>
      <use xlink:href="#DejaVuSans-65" x="47.833984"/>
      <use xlink:href="#DejaVuSans-6c" x="109.357422"/>
      <use xlink:href="#DejaVuSans-6c" x="137.140625"/>
      <use xlink:href="#DejaVuSans-6f" x="164.923828"/>
      <use xlink:href="#DejaVuSans-77" x="226.105469"/>
      <use xlink:href="#DejaVuSans-20" x="307.892578"/>
      <use xlink:href="#DejaVuSans-46" x="339.679688"/>
      <use xlink:href="#DejaVuSans-6c" x="397.199219"/>
      <use xlink:href="#DejaVuSans-61" x="424.982422"/>
      <use xlink:href="#DejaVuSans-67" x="486.261719"/>
     </g>
    </g>
    <g id="patch_58">
     <path d="M 596.97885 48.594687 
L 616.97885 48.594687 
L 616.97885 41.594687 
L 596.97885 41.594687 
z
" style="fill: url(#hae2ff19452); opacity: 0.3; stroke: #000000; stroke-linejoin: miter"/>
    </g>
    <g id="text_20">
     <!-- Safety Car -->
     <g transform="translate(624.97885 48.594687) scale(0.1 -0.1)">
      <defs>
       <path id="DejaVuSans-53" d="M 3425 4513 
L 3425 3897 
Q 3066 4069 2747 4153 
Q 2428 4238 2131 4238 
Q 1616 4238 1336 4038 
Q 1056 3838 1056 3469 
Q 1056 3159 1242 3001 
Q 1428 2844 1947 2747 
L 2328 2669 
Q 3034 2534 3370 2195 
Q 3706 1856 3706 1288 
Q 3706 609 3251 259 
Q 2797 -91 1919 -91 
Q 1588 -91 1214 -16 
Q 841 59 441 206 
L 441 856 
Q 825 641 1194 531 
Q 1563 422 1919 422 
Q 2459 422 2753 634 
Q 3047 847 3047 1241 
Q 3047 1584 2836 1778 
Q 2625 1972 2144 2069 
L 1759 2144 
Q 1053 2284 737 2584 
Q 422 2884 422 3419 
Q 422 4038 858 4394 
Q 1294 4750 2059 4750 
Q 2388 4750 2728 4690 
Q 3069 4631 3425 4513 
z
" transform="scale(0.015625)"/>
       <path id="DejaVuSans-43" d="M 4122 4306 
L 4122 3641 
Q 3803 3938 3442 4084 
Q 3081 4231 2675 4231 
Q 1875 4231 1450 3742 
Q 1025 3253 1025 2328 
Q 1025 1406 1450 917 
Q 1875 428 2675 428 
Q 3081 428 3442 575 
Q 3803 722 4122 1019 
L 4122 359 
Q 3791 134 3420 21 
Q 3050 -91 2638 -91 
Q 1578 -91 968 557 
Q 359 1206 359 2328 
Q 359 3453 968 4101 
Q 1578 4750 2638 4750 
Q 3056 4750 3426 4639 
Q 3797 4528 4122 4306 
z
" transform="scale(0.015625)"/>
      </defs>
      <use xlink:href="#DejaVuSans-53"/>
      <use xlink:href="#DejaVuSans-61" x="63.476562"/>
      <use xlink:href="#DejaVuSans-66" x="124.755859"/>
      <use xlink:href="#DejaVuSans-65" x="159.960938"/>
      <use xlink:href="#DejaVuSans-74" x="221.484375"/>
      <use xlink:href="#DejaVuSans-79" x="260.693359"/>
      <use xlink:href="#DejaVuSans-20" x="319.873047"/>
      <use xlink:href="#DejaVuSans-43" x="351.660156"/>
      <use xlink:href="#DejaVuSans-61" x="421.484375"/>
      <use xlink:href="#DejaVuSans-72" x="482.763672"/>
     </g>
    </g>
    <g id="patch_59">
     <path d="M 596.97885 63.272812 
L 616.97885 63.272812 
L 616.97885 56.272812 
L 596.97885 56.272812 
z
" style="fill: #ffff00"/>
    </g>
    <g id="text_21">
     <!-- Medium -->
     <g transform="translate(624.97885 63.272812) scale(0.1 -0.1)">
      <defs>
       <path id="DejaVuSans-4d" d="M 628 4666 
L 1569 4666 
L 2759 1491 
L 3956 4666 
L 4897 4666 
L 4897 0 
L 4281 0 
L 4281 4097 
L 3078 897 
L 2444 897 
L 1241 4097 
L 1241 0 
L 628 0 
L 628 4666 
z
" transform="scale(0.015625)"/>
      </defs>
      <use xlink:href="#DejaVuSans-4d"/>
      <use xlink:href="#DejaVuSans-65" x="86.279297"/>
      <use xlink:href="#DejaVuSans-64" x="147.802734"/>
      <use xlink:href="#DejaVuSans-69" x="211.279297"/>
      <use xlink:href="#DejaVuSans-75" x="239.0625"/>
      <use xlink:href="#DejaVuSans-6d" x="302.441406"/>
     </g>
    </g>
    <g id="patch_60">
     <path d="M 596.97885 77.950937 
L 616.97885 77.950937 
L 616.97885 70.950937 
L 596.97885 70.950937 
z
" style="fill: #808080"/>
    </g>
    <g id="text_22">
     <!-- Hard -->
     <g transform="translate(624.97885 77.950937) scale(0.1 -0.1)">
      <defs>
       <path id="DejaVuSans-48" d="M 628 4666 
L 1259 4666 
L 1259 2753 
L 3553 2753 
L 3553 4666 
L 4184 4666 
L 4184 0 
L 3553 0 
L 3553 2222 
L 1259 2222 
L 1259 0 
L 628 0 
L 628 4666 
z
" transform="scale(0.015625)"/>
      </defs>
      <use xlink:href="#DejaVuSans-48"/>
      <use xlink:href="#DejaVuSans-61" x="75.195312"/>
      <use xlink:href="#DejaVuSans-72" x="136.474609"/>
      <use xlink:href="#DejaVuSans-64" x="175.837891"/>
     </g>
    </g>
    <g id="PathCollection_2">
     <g>
      <use xlink:href="#m507cd15a73" x="606.97885" y="90.004062" style="fill: #1f77b4; stroke: #ffffff; stroke-width: 0.565685"/>
     </g>
    </g>
    <g id="text_23">
     <!-- model f1_score -->
     <g transform="translate(624.97885 92.629062) scale(0.1 -0.1)">
      <defs>
       <path id="DejaVuSans-5f" d="M 3263 -1063 
L 3263 -1509 
L -63 -1509 
L -63 -1063 
L 3263 -1063 
z
" transform="scale(0.015625)"/>
       <path id="DejaVuSans-73" d="M 2834 3397 
L 2834 2853 
Q 2591 2978 2328 3040 
Q 2066 3103 1784 3103 
Q 1356 3103 1142 2972 
Q 928 2841 928 2578 
Q 928 2378 1081 2264 
Q 1234 2150 1697 2047 
L 1894 2003 
Q 2506 1872 2764 1633 
Q 3022 1394 3022 966 
Q 3022 478 2636 193 
Q 2250 -91 1575 -91 
Q 1294 -91 989 -36 
Q 684 19 347 128 
L 347 722 
Q 666 556 975 473 
Q 1284 391 1588 391 
Q 1994 391 2212 530 
Q 2431 669 2431 922 
Q 2431 1156 2273 1281 
Q 2116 1406 1581 1522 
L 1381 1569 
Q 847 1681 609 1914 
Q 372 2147 372 2553 
Q 372 3047 722 3315 
Q 1072 3584 1716 3584 
Q 2034 3584 2315 3537 
Q 2597 3491 2834 3397 
z
" transform="scale(0.015625)"/>
       <path id="DejaVuSans-63" d="M 3122 3366 
L 3122 2828 
Q 2878 2963 2633 3030 
Q 2388 3097 2138 3097 
Q 1578 3097 1268 2742 
Q 959 2388 959 1747 
Q 959 1106 1268 751 
Q 1578 397 2138 397 
Q 2388 397 2633 464 
Q 2878 531 3122 666 
L 3122 134 
Q 2881 22 2623 -34 
Q 2366 -91 2075 -91 
Q 1284 -91 818 406 
Q 353 903 353 1747 
Q 353 2603 823 3093 
Q 1294 3584 2113 3584 
Q 2378 3584 2631 3529 
Q 2884 3475 3122 3366 
z
" transform="scale(0.015625)"/>
      </defs>
      <use xlink:href="#DejaVuSans-6d"/>
      <use xlink:href="#DejaVuSans-6f" x="97.412109"/>
      <use xlink:href="#DejaVuSans-64" x="158.59375"/>
      <use xlink:href="#DejaVuSans-65" x="222.070312"/>
      <use xlink:href="#DejaVuSans-6c" x="283.59375"/>
      <use xlink:href="#DejaVuSans-20" x="311.376953"/>
      <use xlink:href="#DejaVuSans-66" x="343.164062"/>
      <use xlink:href="#DejaVuSans-31" x="378.369141"/>
      <use xlink:href="#DejaVuSans-5f" x="441.992188"/>
      <use xlink:href="#DejaVuSans-73" x="491.992188"/>
      <use xlink:href="#DejaVuSans-63" x="544.091797"/>
      <use xlink:href="#DejaVuSans-6f" x="599.072266"/>
      <use xlink:href="#DejaVuSans-72" x="660.253906"/>
      <use xlink:href="#DejaVuSans-65" x="699.117188"/>
     </g>
    </g>
   </g>
  </g>
  <g id="axes_2">
   <g id="patch_61">
    <path d="M 43.78125 961.478125 
L 587.54125 961.478125 
L 587.54125 520.918125 
L 43.78125 520.918125 
z
" style="fill: #ffffff"/>
   </g>
   <g id="patch_62">
    <path d="M 32.452917 525.323725 
L 32.452917 520.918125 
L 43.78125 520.918125 
L 43.78125 525.323725 
z
" clip-path="url(#p6d87e6bcdd)" style="fill: #ff0000"/>
   </g>
   <g id="patch_63">
    <path d="M 43.78125 525.323725 
L 43.78125 520.918125 
L 55.109583 520.918125 
L 55.109583 525.323725 
z
" clip-path="url(#p6d87e6bcdd)" style="fill: #808080"/>
   </g>
   <g id="patch_64">
    <path d="M 55.109583 525.323725 
L 55.109583 520.918125 
L 66.437917 520.918125 
L 66.437917 525.323725 
z
" clip-path="url(#p6d87e6bcdd)" style="fill: #808080"/>
   </g>
   <g id="patch_65">
    <path d="M 66.437917 525.323725 
L 66.437917 520.918125 
L 77.76625 520.918125 
L 77.76625 525.323725 
z
" clip-path="url(#p6d87e6bcdd)" style="fill: #808080"/>
   </g>
   <g id="patch_66">
    <path d="M 77.76625 525.323725 
L 77.76625 520.918125 
L 89.094583 520.918125 
L 89.094583 525.323725 
z
" clip-path="url(#p6d87e6bcdd)" style="fill: #808080"/>
   </g>
   <g id="patch_67">
    <path d="M 89.094583 525.323725 
L 89.094583 520.918125 
L 100.422917 520.918125 
L 100.422917 525.323725 
z
" clip-path="url(#p6d87e6bcdd)" style="fill: #808080"/>
   </g>
   <g id="patch_68">
    <path d="M 100.422917 525.323725 
L 100.422917 520.918125 
L 111.75125 520.918125 
L 111.75125 525.323725 
z
" clip-path="url(#p6d87e6bcdd)" style="fill: #808080"/>
   </g>
   <g id="patch_69">
    <path d="M 111.75125 525.323725 
L 111.75125 520.918125 
L 123.079583 520.918125 
L 123.079583 525.323725 
z
" clip-path="url(#p6d87e6bcdd)" style="fill: #808080"/>
   </g>
   <g id="patch_70">
    <path d="M 123.079583 525.323725 
L 123.079583 520.918125 
L 134.407917 520.918125 
L 134.407917 525.323725 
z
" clip-path="url(#p6d87e6bcdd)" style="fill: #808080"/>
   </g>
   <g id="patch_71">
    <path d="M 134.407917 525.323725 
L 134.407917 520.918125 
L 145.73625 520.918125 
L 145.73625 525.323725 
z
" clip-path="url(#p6d87e6bcdd)" style="fill: #808080"/>
   </g>
   <g id="patch_72">
    <path d="M 145.73625 525.323725 
L 145.73625 520.918125 
L 157.064583 520.918125 
L 157.064583 525.323725 
z
" clip-path="url(#p6d87e6bcdd)" style="fill: #808080"/>
   </g>
   <g id="patch_73">
    <path d="M 157.064583 525.323725 
L 157.064583 520.918125 
L 168.392917 520.918125 
L 168.392917 525.323725 
z
" clip-path="url(#p6d87e6bcdd)" style="fill: #808080"/>
   </g>
   <g id="patch_74">
    <path d="M 168.392917 525.323725 
L 168.392917 520.918125 
L 179.72125 520.918125 
L 179.72125 525.323725 
z
" clip-path="url(#p6d87e6bcdd)" style="fill: #808080"/>
   </g>
   <g id="patch_75">
    <path d="M 179.72125 525.323725 
L 179.72125 520.918125 
L 191.049583 520.918125 
L 191.049583 525.323725 
z
" clip-path="url(#p6d87e6bcdd)" style="fill: #808080"/>
   </g>
   <g id="patch_76">
    <path d="M 191.049583 525.323725 
L 191.049583 520.918125 
L 202.377917 520.918125 
L 202.377917 525.323725 
z
" clip-path="url(#p6d87e6bcdd)" style="fill: #808080"/>
   </g>
   <g id="patch_77">
    <path d="M 202.377917 525.323725 
L 202.377917 520.918125 
L 213.70625 520.918125 
L 213.70625 525.323725 
z
" clip-path="url(#p6d87e6bcdd)" style="fill: #808080"/>
   </g>
   <g id="patch_78">
    <path d="M 213.70625 525.323725 
L 213.70625 520.918125 
L 225.034583 520.918125 
L 225.034583 525.323725 
z
" clip-path="url(#p6d87e6bcdd)" style="fill: #808080"/>
   </g>
   <g id="patch_79">
    <path d="M 225.034583 525.323725 
L 225.034583 520.918125 
L 236.362917 520.918125 
L 236.362917 525.323725 
z
" clip-path="url(#p6d87e6bcdd)" style="fill: #808080"/>
   </g>
   <g id="patch_80">
    <path d="M 236.362917 525.323725 
L 236.362917 520.918125 
L 247.69125 520.918125 
L 247.69125 525.323725 
z
" clip-path="url(#p6d87e6bcdd)" style="fill: #ffff00"/>
   </g>
   <g id="patch_81">
    <path d="M 247.69125 525.323725 
L 247.69125 520.918125 
L 259.019583 520.918125 
L 259.019583 525.323725 
z
" clip-path="url(#p6d87e6bcdd)" style="fill: #ffff00"/>
   </g>
   <g id="patch_82">
    <path d="M 259.019583 525.323725 
L 259.019583 520.918125 
L 270.347917 520.918125 
L 270.347917 525.323725 
z
" clip-path="url(#p6d87e6bcdd)" style="fill: #ffff00"/>
   </g>
   <g id="patch_83">
    <path d="M 270.347917 525.323725 
L 270.347917 520.918125 
L 281.67625 520.918125 
L 281.67625 525.323725 
z
" clip-path="url(#p6d87e6bcdd)" style="fill: #ffff00"/>
   </g>
   <g id="patch_84">
    <path d="M 281.67625 525.323725 
L 281.67625 520.918125 
L 293.004583 520.918125 
L 293.004583 525.323725 
z
" clip-path="url(#p6d87e6bcdd)" style="fill: #ffff00"/>
   </g>
   <g id="patch_85">
    <path d="M 293.004583 525.323725 
L 293.004583 520.918125 
L 304.332917 520.918125 
L 304.332917 525.323725 
z
" clip-path="url(#p6d87e6bcdd)" style="fill: #ffff00"/>
   </g>
   <g id="patch_86">
    <path d="M 304.332917 525.323725 
L 304.332917 520.918125 
L 315.66125 520.918125 
L 315.66125 525.323725 
z
" clip-path="url(#p6d87e6bcdd)" style="fill: #ffff00"/>
   </g>
   <g id="patch_87">
    <path d="M 315.66125 525.323725 
L 315.66125 520.918125 
L 326.989583 520.918125 
L 326.989583 525.323725 
z
" clip-path="url(#p6d87e6bcdd)" style="fill: #ffff00"/>
   </g>
   <g id="patch_88">
    <path d="M 326.989583 525.323725 
L 326.989583 520.918125 
L 338.317917 520.918125 
L 338.317917 525.323725 
z
" clip-path="url(#p6d87e6bcdd)" style="fill: #ffff00"/>
   </g>
   <g id="patch_89">
    <path d="M 338.317917 525.323725 
L 338.317917 520.918125 
L 349.64625 520.918125 
L 349.64625 525.323725 
z
" clip-path="url(#p6d87e6bcdd)" style="fill: #ffff00"/>
   </g>
   <g id="patch_90">
    <path d="M 349.64625 525.323725 
L 349.64625 520.918125 
L 360.974583 520.918125 
L 360.974583 525.323725 
z
" clip-path="url(#p6d87e6bcdd)" style="fill: #ffff00"/>
   </g>
   <g id="patch_91">
    <path d="M 360.974583 525.323725 
L 360.974583 520.918125 
L 372.302917 520.918125 
L 372.302917 525.323725 
z
" clip-path="url(#p6d87e6bcdd)" style="fill: #ffff00"/>
   </g>
   <g id="patch_92">
    <path d="M 372.302917 525.323725 
L 372.302917 520.918125 
L 383.63125 520.918125 
L 383.63125 525.323725 
z
" clip-path="url(#p6d87e6bcdd)" style="fill: #ffff00"/>
   </g>
   <g id="patch_93">
    <path d="M 383.63125 525.323725 
L 383.63125 520.918125 
L 394.959583 520.918125 
L 394.959583 525.323725 
z
" clip-path="url(#p6d87e6bcdd)" style="fill: #ffff00"/>
   </g>
   <g id="patch_94">
    <path d="M 394.959583 525.323725 
L 394.959583 520.918125 
L 406.287917 520.918125 
L 406.287917 525.323725 
z
" clip-path="url(#p6d87e6bcdd)" style="fill: #ffff00"/>
   </g>
   <g id="patch_95">
    <path d="M 406.287917 525.323725 
L 406.287917 520.918125 
L 417.61625 520.918125 
L 417.61625 525.323725 
z
" clip-path="url(#p6d87e6bcdd)" style="fill: #ffff00"/>
   </g>
   <g id="patch_96">
    <path d="M 417.61625 525.323725 
L 417.61625 520.918125 
L 428.944583 520.918125 
L 428.944583 525.323725 
z
" clip-path="url(#p6d87e6bcdd)" style="fill: #ffff00"/>
   </g>
   <g id="patch_97">
    <path d="M 428.944583 525.323725 
L 428.944583 520.918125 
L 440.272917 520.918125 
L 440.272917 525.323725 
z
" clip-path="url(#p6d87e6bcdd)" style="fill: #ffff00"/>
   </g>
   <g id="patch_98">
    <path d="M 440.272917 525.323725 
L 440.272917 520.918125 
L 451.60125 520.918125 
L 451.60125 525.323725 
z
" clip-path="url(#p6d87e6bcdd)" style="fill: #ffff00"/>
   </g>
   <g id="patch_99">
    <path d="M 451.60125 525.323725 
L 451.60125 520.918125 
L 462.929583 520.918125 
L 462.929583 525.323725 
z
" clip-path="url(#p6d87e6bcdd)" style="fill: #ffff00"/>
   </g>
   <g id="patch_100">
    <path d="M 462.929583 525.323725 
L 462.929583 520.918125 
L 474.257917 520.918125 
L 474.257917 525.323725 
z
" clip-path="url(#p6d87e6bcdd)" style="fill: #ffff00"/>
   </g>
   <g id="patch_101">
    <path d="M 474.257917 525.323725 
L 474.257917 520.918125 
L 485.58625 520.918125 
L 485.58625 525.323725 
z
" clip-path="url(#p6d87e6bcdd)" style="fill: #ffff00"/>
   </g>
   <g id="patch_102">
    <path d="M 485.58625 525.323725 
L 485.58625 520.918125 
L 496.914583 520.918125 
L 496.914583 525.323725 
z
" clip-path="url(#p6d87e6bcdd)" style="fill: #ffff00"/>
   </g>
   <g id="patch_103">
    <path d="M 496.914583 525.323725 
L 496.914583 520.918125 
L 508.242917 520.918125 
L 508.242917 525.323725 
z
" clip-path="url(#p6d87e6bcdd)" style="fill: #ffff00"/>
   </g>
   <g id="patch_104">
    <path d="M 508.242917 525.323725 
L 508.242917 520.918125 
L 519.57125 520.918125 
L 519.57125 525.323725 
z
" clip-path="url(#p6d87e6bcdd)" style="fill: #ffff00"/>
   </g>
   <g id="patch_105">
    <path d="M 519.57125 525.323725 
L 519.57125 520.918125 
L 530.899583 520.918125 
L 530.899583 525.323725 
z
" clip-path="url(#p6d87e6bcdd)" style="fill: #ffff00"/>
   </g>
   <g id="patch_106">
    <path d="M 530.899583 525.323725 
L 530.899583 520.918125 
L 542.227917 520.918125 
L 542.227917 525.323725 
z
" clip-path="url(#p6d87e6bcdd)" style="fill: #ffff00"/>
   </g>
   <g id="patch_107">
    <path d="M 542.227917 525.323725 
L 542.227917 520.918125 
L 553.55625 520.918125 
L 553.55625 525.323725 
z
" clip-path="url(#p6d87e6bcdd)" style="fill: #ffff00"/>
   </g>
   <g id="patch_108">
    <path d="M 553.55625 525.323725 
L 553.55625 520.918125 
L 564.884583 520.918125 
L 564.884583 525.323725 
z
" clip-path="url(#p6d87e6bcdd)" style="fill: #ffff00"/>
   </g>
   <g id="patch_109">
    <path d="M 564.884583 525.323725 
L 564.884583 520.918125 
L 576.212917 520.918125 
L 576.212917 525.323725 
z
" clip-path="url(#p6d87e6bcdd)" style="fill: #ffff00"/>
   </g>
   <g id="patch_110">
    <path d="M 576.212917 525.323725 
L 576.212917 520.918125 
L 587.54125 520.918125 
L 587.54125 525.323725 
z
" clip-path="url(#p6d87e6bcdd)" style="fill: #ffff00"/>
   </g>
   <g id="patch_111">
    <path d="M 213.70625 961.478125 
L 213.70625 520.918125 
L 225.034583 520.918125 
L 225.034583 961.478125 
z
" clip-path="url(#p6d87e6bcdd)" style="fill: url(#hae2ff19452); opacity: 0.3; stroke: #000000; stroke-linejoin: miter"/>
   </g>
   <g id="patch_112">
    <path d="M 225.034583 961.478125 
L 225.034583 520.918125 
L 236.362917 520.918125 
L 236.362917 961.478125 
z
" clip-path="url(#p6d87e6bcdd)" style="fill: url(#hae2ff19452); opacity: 0.3; stroke: #000000; stroke-linejoin: miter"/>
   </g>
   <g id="patch_113">
    <path d="M 236.362917 961.478125 
L 236.362917 520.918125 
L 247.69125 520.918125 
L 247.69125 961.478125 
z
" clip-path="url(#p6d87e6bcdd)" style="fill: url(#hae2ff19452); opacity: 0.3; stroke: #000000; stroke-linejoin: miter"/>
   </g>
   <g id="patch_114">
    <path d="M 247.69125 961.478125 
L 247.69125 520.918125 
L 259.019583 520.918125 
L 259.019583 961.478125 
z
" clip-path="url(#p6d87e6bcdd)" style="fill: url(#hae2ff19452); opacity: 0.3; stroke: #000000; stroke-linejoin: miter"/>
   </g>
   <g id="LineCollection_3">
    <path d="M 43.78125 741.198125 
L 587.54125 741.198125 
" clip-path="url(#p6d87e6bcdd)" style="fill: none; stroke-dasharray: 1,1.65; stroke-dashoffset: 0; stroke: #000000"/>
   </g>
   <g id="LineCollection_4">
    <path d="M 225.034583 961.478125 
L 225.034583 520.918125 
" clip-path="url(#p6d87e6bcdd)" style="fill: none; stroke-dasharray: 3.7,1.6; stroke-dashoffset: 0; stroke: #ff0000"/>
   </g>
   <g id="line2d_32">
    <path d="M 43.78125 829.703017 
L 55.109583 828.532078 
L 66.437917 832.413735 
L 77.76625 825.989641 
L 89.094583 823.404688 
L 100.422917 822.775689 
L 111.75125 821.33381 
L 123.079583 820.462402 
L 134.407917 826.956073 
L 145.73625 827.730381 
L 157.064583 827.84983 
L 168.392917 806.736833 
L 179.72125 787.351903 
L 191.049583 775.050952 
L 202.377917 771.065123 
L 213.70625 720.534363 
L 225.034583 733.583653 
L 236.362917 733.019295 
L 247.69125 825.938172 
L 259.019583 837.28931 
L 270.347917 832.972205 
L 281.67625 832.378081 
L 293.004583 831.643377 
L 304.332917 826.961345 
L 315.66125 827.318854 
L 326.989583 825.416346 
L 338.317917 824.673297 
L 349.64625 823.40788 
L 360.974583 800.141104 
L 372.302917 782.220239 
L 383.63125 769.643979 
L 394.959583 767.051589 
L 406.287917 761.222386 
L 417.61625 759.358726 
L 428.944583 757.516477 
L 440.272917 755.75393 
L 451.60125 756.751901 
L 462.929583 758.238665 
L 474.257917 757.125186 
L 485.58625 757.231351 
L 496.914583 759.289318 
L 508.242917 759.373104 
L 519.57125 758.550032 
L 530.899583 758.969191 
L 542.227917 758.476424 
L 553.55625 768.259973 
L 564.884583 769.676519 
L 576.212917 771.605102 
L 587.54125 772.649821 
" clip-path="url(#p6d87e6bcdd)" style="fill: none; stroke-dasharray: 3.7,1.6; stroke-dashoffset: 0; stroke: #1f77b4"/>
   </g>
   <g id="PathCollection_3">
    <g clip-path="url(#p6d87e6bcdd)">
     <use xlink:href="#m507cd15a73" x="43.78125" y="829.703017" style="fill: #1f77b4; stroke: #ffffff; stroke-width: 0.565685"/>
     <use xlink:href="#m507cd15a73" x="55.109583" y="828.532078" style="fill: #1f77b4; stroke: #ffffff; stroke-width: 0.565685"/>
     <use xlink:href="#m507cd15a73" x="66.437917" y="832.413735" style="fill: #1f77b4; stroke: #ffffff; stroke-width: 0.565685"/>
     <use xlink:href="#m507cd15a73" x="77.76625" y="825.989641" style="fill: #1f77b4; stroke: #ffffff; stroke-width: 0.565685"/>
     <use xlink:href="#m507cd15a73" x="89.094583" y="823.404688" style="fill: #1f77b4; stroke: #ffffff; stroke-width: 0.565685"/>
     <use xlink:href="#m507cd15a73" x="100.422917" y="822.775689" style="fill: #1f77b4; stroke: #ffffff; stroke-width: 0.565685"/>
     <use xlink:href="#m507cd15a73" x="111.75125" y="821.33381" style="fill: #1f77b4; stroke: #ffffff; stroke-width: 0.565685"/>
     <use xlink:href="#m507cd15a73" x="123.079583" y="820.462402" style="fill: #1f77b4; stroke: #ffffff; stroke-width: 0.565685"/>
     <use xlink:href="#m507cd15a73" x="134.407917" y="826.956073" style="fill: #1f77b4; stroke: #ffffff; stroke-width: 0.565685"/>
     <use xlink:href="#m507cd15a73" x="145.73625" y="827.730381" style="fill: #1f77b4; stroke: #ffffff; stroke-width: 0.565685"/>
     <use xlink:href="#m507cd15a73" x="157.064583" y="827.84983" style="fill: #1f77b4; stroke: #ffffff; stroke-width: 0.565685"/>
     <use xlink:href="#m507cd15a73" x="168.392917" y="806.736833" style="fill: #1f77b4; stroke: #ffffff; stroke-width: 0.565685"/>
     <use xlink:href="#m507cd15a73" x="179.72125" y="787.351903" style="fill: #1f77b4; stroke: #ffffff; stroke-width: 0.565685"/>
     <use xlink:href="#m507cd15a73" x="191.049583" y="775.050952" style="fill: #1f77b4; stroke: #ffffff; stroke-width: 0.565685"/>
     <use xlink:href="#m507cd15a73" x="202.377917" y="771.065123" style="fill: #1f77b4; stroke: #ffffff; stroke-width: 0.565685"/>
     <use xlink:href="#m507cd15a73" x="213.70625" y="720.534363" style="fill: #1f77b4; stroke: #ffffff; stroke-width: 0.565685"/>
     <use xlink:href="#m507cd15a73" x="225.034583" y="733.583653" style="fill: #1f77b4; stroke: #ffffff; stroke-width: 0.565685"/>
     <use xlink:href="#m507cd15a73" x="236.362917" y="733.019295" style="fill: #1f77b4; stroke: #ffffff; stroke-width: 0.565685"/>
     <use xlink:href="#m507cd15a73" x="247.69125" y="825.938172" style="fill: #1f77b4; stroke: #ffffff; stroke-width: 0.565685"/>
     <use xlink:href="#m507cd15a73" x="259.019583" y="837.28931" style="fill: #1f77b4; stroke: #ffffff; stroke-width: 0.565685"/>
     <use xlink:href="#m507cd15a73" x="270.347917" y="832.972205" style="fill: #1f77b4; stroke: #ffffff; stroke-width: 0.565685"/>
     <use xlink:href="#m507cd15a73" x="281.67625" y="832.378081" style="fill: #1f77b4; stroke: #ffffff; stroke-width: 0.565685"/>
     <use xlink:href="#m507cd15a73" x="293.004583" y="831.643377" style="fill: #1f77b4; stroke: #ffffff; stroke-width: 0.565685"/>
     <use xlink:href="#m507cd15a73" x="304.332917" y="826.961345" style="fill: #1f77b4; stroke: #ffffff; stroke-width: 0.565685"/>
     <use xlink:href="#m507cd15a73" x="315.66125" y="827.318854" style="fill: #1f77b4; stroke: #ffffff; stroke-width: 0.565685"/>
     <use xlink:href="#m507cd15a73" x="326.989583" y="825.416346" style="fill: #1f77b4; stroke: #ffffff; stroke-width: 0.565685"/>
     <use xlink:href="#m507cd15a73" x="338.317917" y="824.673297" style="fill: #1f77b4; stroke: #ffffff; stroke-width: 0.565685"/>
     <use xlink:href="#m507cd15a73" x="349.64625" y="823.40788" style="fill: #1f77b4; stroke: #ffffff; stroke-width: 0.565685"/>
     <use xlink:href="#m507cd15a73" x="360.974583" y="800.141104" style="fill: #1f77b4; stroke: #ffffff; stroke-width: 0.565685"/>
     <use xlink:href="#m507cd15a73" x="372.302917" y="782.220239" style="fill: #1f77b4; stroke: #ffffff; stroke-width: 0.565685"/>
     <use xlink:href="#m507cd15a73" x="383.63125" y="769.643979" style="fill: #1f77b4; stroke: #ffffff; stroke-width: 0.565685"/>
     <use xlink:href="#m507cd15a73" x="394.959583" y="767.051589" style="fill: #1f77b4; stroke: #ffffff; stroke-width: 0.565685"/>
     <use xlink:href="#m507cd15a73" x="406.287917" y="761.222386" style="fill: #1f77b4; stroke: #ffffff; stroke-width: 0.565685"/>
     <use xlink:href="#m507cd15a73" x="417.61625" y="759.358726" style="fill: #1f77b4; stroke: #ffffff; stroke-width: 0.565685"/>
     <use xlink:href="#m507cd15a73" x="428.944583" y="757.516477" style="fill: #1f77b4; stroke: #ffffff; stroke-width: 0.565685"/>
     <use xlink:href="#m507cd15a73" x="440.272917" y="755.75393" style="fill: #1f77b4; stroke: #ffffff; stroke-width: 0.565685"/>
     <use xlink:href="#m507cd15a73" x="451.60125" y="756.751901" style="fill: #1f77b4; stroke: #ffffff; stroke-width: 0.565685"/>
     <use xlink:href="#m507cd15a73" x="462.929583" y="758.238665" style="fill: #1f77b4; stroke: #ffffff; stroke-width: 0.565685"/>
     <use xlink:href="#m507cd15a73" x="474.257917" y="757.125186" style="fill: #1f77b4; stroke: #ffffff; stroke-width: 0.565685"/>
     <use xlink:href="#m507cd15a73" x="485.58625" y="757.231351" style="fill: #1f77b4; stroke: #ffffff; stroke-width: 0.565685"/>
     <use xlink:href="#m507cd15a73" x="496.914583" y="759.289318" style="fill: #1f77b4; stroke: #ffffff; stroke-width: 0.565685"/>
     <use xlink:href="#m507cd15a73" x="508.242917" y="759.373104" style="fill: #1f77b4; stroke: #ffffff; stroke-width: 0.565685"/>
     <use xlink:href="#m507cd15a73" x="519.57125" y="758.550032" style="fill: #1f77b4; stroke: #ffffff; stroke-width: 0.565685"/>
     <use xlink:href="#m507cd15a73" x="530.899583" y="758.969191" style="fill: #1f77b4; stroke: #ffffff; stroke-width: 0.565685"/>
     <use xlink:href="#m507cd15a73" x="542.227917" y="758.476424" style="fill: #1f77b4; stroke: #ffffff; stroke-width: 0.565685"/>
     <use xlink:href="#m507cd15a73" x="553.55625" y="768.259973" style="fill: #1f77b4; stroke: #ffffff; stroke-width: 0.565685"/>
     <use xlink:href="#m507cd15a73" x="564.884583" y="769.676519" style="fill: #1f77b4; stroke: #ffffff; stroke-width: 0.565685"/>
     <use xlink:href="#m507cd15a73" x="576.212917" y="771.605102" style="fill: #1f77b4; stroke: #ffffff; stroke-width: 0.565685"/>
     <use xlink:href="#m507cd15a73" x="587.54125" y="772.649821" style="fill: #1f77b4; stroke: #ffffff; stroke-width: 0.565685"/>
    </g>
   </g>
   <g id="PolyCollection_2"/>
   <g id="matplotlib.axis_3">
    <g id="xtick_10">
     <g id="line2d_33">
      <path d="M 77.76625 961.478125 
L 77.76625 520.918125 
" clip-path="url(#p6d87e6bcdd)" style="fill: none; stroke: #b0b0b0; stroke-width: 0.8; stroke-linecap: square"/>
     </g>
     <g id="line2d_34">
      <g>
       <use xlink:href="#m2e8b51865f" x="77.76625" y="961.478125" style="stroke: #000000; stroke-width: 0.8"/>
      </g>
     </g>
     <g id="text_24">
      <!-- 5 -->
      <g transform="translate(74.585 976.076562) scale(0.1 -0.1)">
       <use xlink:href="#DejaVuSans-35"/>
      </g>
     </g>
    </g>
    <g id="xtick_11">
     <g id="line2d_35">
      <path d="M 134.407917 961.478125 
L 134.407917 520.918125 
" clip-path="url(#p6d87e6bcdd)" style="fill: none; stroke: #b0b0b0; stroke-width: 0.8; stroke-linecap: square"/>
     </g>
     <g id="line2d_36">
      <g>
       <use xlink:href="#m2e8b51865f" x="134.407917" y="961.478125" style="stroke: #000000; stroke-width: 0.8"/>
      </g>
     </g>
     <g id="text_25">
      <!-- 10 -->
      <g transform="translate(128.045417 976.076562) scale(0.1 -0.1)">
       <use xlink:href="#DejaVuSans-31"/>
       <use xlink:href="#DejaVuSans-30" x="63.623047"/>
      </g>
     </g>
    </g>
    <g id="xtick_12">
     <g id="line2d_37">
      <path d="M 191.049583 961.478125 
L 191.049583 520.918125 
" clip-path="url(#p6d87e6bcdd)" style="fill: none; stroke: #b0b0b0; stroke-width: 0.8; stroke-linecap: square"/>
     </g>
     <g id="line2d_38">
      <g>
       <use xlink:href="#m2e8b51865f" x="191.049583" y="961.478125" style="stroke: #000000; stroke-width: 0.8"/>
      </g>
     </g>
     <g id="text_26">
      <!-- 15 -->
      <g transform="translate(184.687083 976.076562) scale(0.1 -0.1)">
       <use xlink:href="#DejaVuSans-31"/>
       <use xlink:href="#DejaVuSans-35" x="63.623047"/>
      </g>
     </g>
    </g>
    <g id="xtick_13">
     <g id="line2d_39">
      <path d="M 247.69125 961.478125 
L 247.69125 520.918125 
" clip-path="url(#p6d87e6bcdd)" style="fill: none; stroke: #b0b0b0; stroke-width: 0.8; stroke-linecap: square"/>
     </g>
     <g id="line2d_40">
      <g>
       <use xlink:href="#m2e8b51865f" x="247.69125" y="961.478125" style="stroke: #000000; stroke-width: 0.8"/>
      </g>
     </g>
     <g id="text_27">
      <!-- 20 -->
      <g transform="translate(241.32875 976.076562) scale(0.1 -0.1)">
       <use xlink:href="#DejaVuSans-32"/>
       <use xlink:href="#DejaVuSans-30" x="63.623047"/>
      </g>
     </g>
    </g>
    <g id="xtick_14">
     <g id="line2d_41">
      <path d="M 304.332917 961.478125 
L 304.332917 520.918125 
" clip-path="url(#p6d87e6bcdd)" style="fill: none; stroke: #b0b0b0; stroke-width: 0.8; stroke-linecap: square"/>
     </g>
     <g id="line2d_42">
      <g>
       <use xlink:href="#m2e8b51865f" x="304.332917" y="961.478125" style="stroke: #000000; stroke-width: 0.8"/>
      </g>
     </g>
     <g id="text_28">
      <!-- 25 -->
      <g transform="translate(297.970417 976.076562) scale(0.1 -0.1)">
       <use xlink:href="#DejaVuSans-32"/>
       <use xlink:href="#DejaVuSans-35" x="63.623047"/>
      </g>
     </g>
    </g>
    <g id="xtick_15">
     <g id="line2d_43">
      <path d="M 360.974583 961.478125 
L 360.974583 520.918125 
" clip-path="url(#p6d87e6bcdd)" style="fill: none; stroke: #b0b0b0; stroke-width: 0.8; stroke-linecap: square"/>
     </g>
     <g id="line2d_44">
      <g>
       <use xlink:href="#m2e8b51865f" x="360.974583" y="961.478125" style="stroke: #000000; stroke-width: 0.8"/>
      </g>
     </g>
     <g id="text_29">
      <!-- 30 -->
      <g transform="translate(354.612083 976.076562) scale(0.1 -0.1)">
       <use xlink:href="#DejaVuSans-33"/>
       <use xlink:href="#DejaVuSans-30" x="63.623047"/>
      </g>
     </g>
    </g>
    <g id="xtick_16">
     <g id="line2d_45">
      <path d="M 417.61625 961.478125 
L 417.61625 520.918125 
" clip-path="url(#p6d87e6bcdd)" style="fill: none; stroke: #b0b0b0; stroke-width: 0.8; stroke-linecap: square"/>
     </g>
     <g id="line2d_46">
      <g>
       <use xlink:href="#m2e8b51865f" x="417.61625" y="961.478125" style="stroke: #000000; stroke-width: 0.8"/>
      </g>
     </g>
     <g id="text_30">
      <!-- 35 -->
      <g transform="translate(411.25375 976.076562) scale(0.1 -0.1)">
       <use xlink:href="#DejaVuSans-33"/>
       <use xlink:href="#DejaVuSans-35" x="63.623047"/>
      </g>
     </g>
    </g>
    <g id="xtick_17">
     <g id="line2d_47">
      <path d="M 474.257917 961.478125 
L 474.257917 520.918125 
" clip-path="url(#p6d87e6bcdd)" style="fill: none; stroke: #b0b0b0; stroke-width: 0.8; stroke-linecap: square"/>
     </g>
     <g id="line2d_48">
      <g>
       <use xlink:href="#m2e8b51865f" x="474.257917" y="961.478125" style="stroke: #000000; stroke-width: 0.8"/>
      </g>
     </g>
     <g id="text_31">
      <!-- 40 -->
      <g transform="translate(467.895417 976.076562) scale(0.1 -0.1)">
       <use xlink:href="#DejaVuSans-34"/>
       <use xlink:href="#DejaVuSans-30" x="63.623047"/>
      </g>
     </g>
    </g>
    <g id="xtick_18">
     <g id="line2d_49">
      <path d="M 530.899583 961.478125 
L 530.899583 520.918125 
" clip-path="url(#p6d87e6bcdd)" style="fill: none; stroke: #b0b0b0; stroke-width: 0.8; stroke-linecap: square"/>
     </g>
     <g id="line2d_50">
      <g>
       <use xlink:href="#m2e8b51865f" x="530.899583" y="961.478125" style="stroke: #000000; stroke-width: 0.8"/>
      </g>
     </g>
     <g id="text_32">
      <!-- 45 -->
      <g transform="translate(524.537083 976.076562) scale(0.1 -0.1)">
       <use xlink:href="#DejaVuSans-34"/>
       <use xlink:href="#DejaVuSans-35" x="63.623047"/>
      </g>
     </g>
    </g>
    <g id="text_33">
     <!-- Lap Number -->
     <g transform="translate(284.962031 989.754687) scale(0.1 -0.1)">
      <use xlink:href="#DejaVuSans-4c"/>
      <use xlink:href="#DejaVuSans-61" x="55.712891"/>
      <use xlink:href="#DejaVuSans-70" x="116.992188"/>
      <use xlink:href="#DejaVuSans-20" x="180.46875"/>
      <use xlink:href="#DejaVuSans-4e" x="212.255859"/>
      <use xlink:href="#DejaVuSans-75" x="287.060547"/>
      <use xlink:href="#DejaVuSans-6d" x="350.439453"/>
      <use xlink:href="#DejaVuSans-62" x="447.851562"/>
      <use xlink:href="#DejaVuSans-65" x="511.328125"/>
      <use xlink:href="#DejaVuSans-72" x="572.851562"/>
     </g>
    </g>
   </g>
   <g id="matplotlib.axis_4">
    <g id="ytick_7">
     <g id="line2d_51">
      <path d="M 43.78125 961.478125 
L 587.54125 961.478125 
" clip-path="url(#p6d87e6bcdd)" style="fill: none; stroke: #b0b0b0; stroke-width: 0.8; stroke-linecap: square"/>
     </g>
     <g id="line2d_52">
      <g>
       <use xlink:href="#m09ece14be7" x="43.78125" y="961.478125" style="stroke: #000000; stroke-width: 0.8"/>
      </g>
     </g>
     <g id="text_34">
      <!-- 0.0 -->
      <g transform="translate(20.878125 965.277344) scale(0.1 -0.1)">
       <use xlink:href="#DejaVuSans-30"/>
       <use xlink:href="#DejaVuSans-2e" x="63.623047"/>
       <use xlink:href="#DejaVuSans-30" x="95.410156"/>
      </g>
     </g>
    </g>
    <g id="ytick_8">
     <g id="line2d_53">
      <path d="M 43.78125 873.366125 
L 587.54125 873.366125 
" clip-path="url(#p6d87e6bcdd)" style="fill: none; stroke: #b0b0b0; stroke-width: 0.8; stroke-linecap: square"/>
     </g>
     <g id="line2d_54">
      <g>
       <use xlink:href="#m09ece14be7" x="43.78125" y="873.366125" style="stroke: #000000; stroke-width: 0.8"/>
      </g>
     </g>
     <g id="text_35">
      <!-- 0.2 -->
      <g transform="translate(20.878125 877.165344) scale(0.1 -0.1)">
       <use xlink:href="#DejaVuSans-30"/>
       <use xlink:href="#DejaVuSans-2e" x="63.623047"/>
       <use xlink:href="#DejaVuSans-32" x="95.410156"/>
      </g>
     </g>
    </g>
    <g id="ytick_9">
     <g id="line2d_55">
      <path d="M 43.78125 785.254125 
L 587.54125 785.254125 
" clip-path="url(#p6d87e6bcdd)" style="fill: none; stroke: #b0b0b0; stroke-width: 0.8; stroke-linecap: square"/>
     </g>
     <g id="line2d_56">
      <g>
       <use xlink:href="#m09ece14be7" x="43.78125" y="785.254125" style="stroke: #000000; stroke-width: 0.8"/>
      </g>
     </g>
     <g id="text_36">
      <!-- 0.4 -->
      <g transform="translate(20.878125 789.053344) scale(0.1 -0.1)">
       <use xlink:href="#DejaVuSans-30"/>
       <use xlink:href="#DejaVuSans-2e" x="63.623047"/>
       <use xlink:href="#DejaVuSans-34" x="95.410156"/>
      </g>
     </g>
    </g>
    <g id="ytick_10">
     <g id="line2d_57">
      <path d="M 43.78125 697.142125 
L 587.54125 697.142125 
" clip-path="url(#p6d87e6bcdd)" style="fill: none; stroke: #b0b0b0; stroke-width: 0.8; stroke-linecap: square"/>
     </g>
     <g id="line2d_58">
      <g>
       <use xlink:href="#m09ece14be7" x="43.78125" y="697.142125" style="stroke: #000000; stroke-width: 0.8"/>
      </g>
     </g>
     <g id="text_37">
      <!-- 0.6 -->
      <g transform="translate(20.878125 700.941344) scale(0.1 -0.1)">
       <use xlink:href="#DejaVuSans-30"/>
       <use xlink:href="#DejaVuSans-2e" x="63.623047"/>
       <use xlink:href="#DejaVuSans-36" x="95.410156"/>
      </g>
     </g>
    </g>
    <g id="ytick_11">
     <g id="line2d_59">
      <path d="M 43.78125 609.030125 
L 587.54125 609.030125 
" clip-path="url(#p6d87e6bcdd)" style="fill: none; stroke: #b0b0b0; stroke-width: 0.8; stroke-linecap: square"/>
     </g>
     <g id="line2d_60">
      <g>
       <use xlink:href="#m09ece14be7" x="43.78125" y="609.030125" style="stroke: #000000; stroke-width: 0.8"/>
      </g>
     </g>
     <g id="text_38">
      <!-- 0.8 -->
      <g transform="translate(20.878125 612.829344) scale(0.1 -0.1)">
       <use xlink:href="#DejaVuSans-30"/>
       <use xlink:href="#DejaVuSans-2e" x="63.623047"/>
       <use xlink:href="#DejaVuSans-38" x="95.410156"/>
      </g>
     </g>
    </g>
    <g id="ytick_12">
     <g id="line2d_61">
      <path d="M 43.78125 520.918125 
L 587.54125 520.918125 
" clip-path="url(#p6d87e6bcdd)" style="fill: none; stroke: #b0b0b0; stroke-width: 0.8; stroke-linecap: square"/>
     </g>
     <g id="line2d_62">
      <g>
       <use xlink:href="#m09ece14be7" x="43.78125" y="520.918125" style="stroke: #000000; stroke-width: 0.8"/>
      </g>
     </g>
     <g id="text_39">
      <!-- 1.0 -->
      <g transform="translate(20.878125 524.717344) scale(0.1 -0.1)">
       <use xlink:href="#DejaVuSans-31"/>
       <use xlink:href="#DejaVuSans-2e" x="63.623047"/>
       <use xlink:href="#DejaVuSans-30" x="95.410156"/>
      </g>
     </g>
    </g>
    <g id="text_40">
     <!-- Probability of pitting -->
     <g transform="translate(14.798438 791.840312) rotate(-90) scale(0.1 -0.1)">
      <use xlink:href="#DejaVuSans-50"/>
      <use xlink:href="#DejaVuSans-72" x="58.552734"/>
      <use xlink:href="#DejaVuSans-6f" x="97.416016"/>
      <use xlink:href="#DejaVuSans-62" x="158.597656"/>
      <use xlink:href="#DejaVuSans-61" x="222.074219"/>
      <use xlink:href="#DejaVuSans-62" x="283.353516"/>
      <use xlink:href="#DejaVuSans-69" x="346.830078"/>
      <use xlink:href="#DejaVuSans-6c" x="374.613281"/>
      <use xlink:href="#DejaVuSans-69" x="402.396484"/>
      <use xlink:href="#DejaVuSans-74" x="430.179688"/>
      <use xlink:href="#DejaVuSans-79" x="469.388672"/>
      <use xlink:href="#DejaVuSans-20" x="528.568359"/>
      <use xlink:href="#DejaVuSans-6f" x="560.355469"/>
      <use xlink:href="#DejaVuSans-66" x="621.537109"/>
      <use xlink:href="#DejaVuSans-20" x="656.742188"/>
      <use xlink:href="#DejaVuSans-70" x="688.529297"/>
      <use xlink:href="#DejaVuSans-69" x="752.005859"/>
      <use xlink:href="#DejaVuSans-74" x="779.789062"/>
      <use xlink:href="#DejaVuSans-74" x="818.998047"/>
      <use xlink:href="#DejaVuSans-69" x="858.207031"/>
      <use xlink:href="#DejaVuSans-6e" x="885.990234"/>
      <use xlink:href="#DejaVuSans-67" x="949.369141"/>
     </g>
    </g>
   </g>
   <g id="patch_115">
    <path d="M 43.78125 961.478125 
L 43.78125 520.918125 
" style="fill: none; stroke: #000000; stroke-width: 0.8; stroke-linejoin: miter; stroke-linecap: square"/>
   </g>
   <g id="patch_116">
    <path d="M 587.54125 961.478125 
L 587.54125 520.918125 
" style="fill: none; stroke: #000000; stroke-width: 0.8; stroke-linejoin: miter; stroke-linecap: square"/>
   </g>
   <g id="patch_117">
    <path d="M 43.78125 961.478125 
L 587.54125 961.478125 
" style="fill: none; stroke: #000000; stroke-width: 0.8; stroke-linejoin: miter; stroke-linecap: square"/>
   </g>
   <g id="patch_118">
    <path d="M 43.78125 520.918125 
L 587.54125 520.918125 
" style="fill: none; stroke: #000000; stroke-width: 0.8; stroke-linejoin: miter; stroke-linecap: square"/>
   </g>
   <g id="text_41">
    <!-- Jeddah - Driver 4 -->
    <g transform="translate(264.935937 514.918125) scale(0.12 -0.12)">
     <use xlink:href="#DejaVuSans-4a"/>
     <use xlink:href="#DejaVuSans-65" x="29.492188"/>
     <use xlink:href="#DejaVuSans-64" x="91.015625"/>
     <use xlink:href="#DejaVuSans-64" x="154.492188"/>
     <use xlink:href="#DejaVuSans-61" x="217.96875"/>
     <use xlink:href="#DejaVuSans-68" x="279.248047"/>
     <use xlink:href="#DejaVuSans-20" x="342.626953"/>
     <use xlink:href="#DejaVuSans-2d" x="374.414062"/>
     <use xlink:href="#DejaVuSans-20" x="410.498047"/>
     <use xlink:href="#DejaVuSans-44" x="442.285156"/>
     <use xlink:href="#DejaVuSans-72" x="519.287109"/>
     <use xlink:href="#DejaVuSans-69" x="560.400391"/>
     <use xlink:href="#DejaVuSans-76" x="588.183594"/>
     <use xlink:href="#DejaVuSans-65" x="647.363281"/>
     <use xlink:href="#DejaVuSans-72" x="708.886719"/>
     <use xlink:href="#DejaVuSans-20" x="750"/>
     <use xlink:href="#DejaVuSans-34" x="781.787109"/>
    </g>
   </g>
   <g id="legend_2">
    <g id="patch_119">
     <path d="M 594.97885 597.586875 
L 703.044475 597.586875 
Q 705.044475 597.586875 705.044475 595.586875 
L 705.044475 522.918125 
Q 705.044475 520.918125 703.044475 520.918125 
L 594.97885 520.918125 
Q 592.97885 520.918125 592.97885 522.918125 
L 592.97885 595.586875 
Q 592.97885 597.586875 594.97885 597.586875 
z
" style="fill: #ffffff; opacity: 0.8; stroke: #cccccc; stroke-linejoin: miter"/>
    </g>
    <g id="patch_120">
     <path d="M 596.97885 532.516562 
L 616.97885 532.516562 
L 616.97885 525.516562 
L 596.97885 525.516562 
z
" style="fill: url(#hae2ff19452); opacity: 0.3; stroke: #000000; stroke-linejoin: miter"/>
    </g>
    <g id="text_42">
     <!-- Safety Car -->
     <g transform="translate(624.97885 532.516562) scale(0.1 -0.1)">
      <use xlink:href="#DejaVuSans-53"/>
      <use xlink:href="#DejaVuSans-61" x="63.476562"/>
      <use xlink:href="#DejaVuSans-66" x="124.755859"/>
      <use xlink:href="#DejaVuSans-65" x="159.960938"/>
      <use xlink:href="#DejaVuSans-74" x="221.484375"/>
      <use xlink:href="#DejaVuSans-79" x="260.693359"/>
      <use xlink:href="#DejaVuSans-20" x="319.873047"/>
      <use xlink:href="#DejaVuSans-43" x="351.660156"/>
      <use xlink:href="#DejaVuSans-61" x="421.484375"/>
      <use xlink:href="#DejaVuSans-72" x="482.763672"/>
     </g>
    </g>
    <g id="patch_121">
     <path d="M 596.97885 547.194687 
L 616.97885 547.194687 
L 616.97885 540.194687 
L 596.97885 540.194687 
z
" style="fill: #ff0000"/>
    </g>
    <g id="text_43">
     <!-- Soft -->
     <g transform="translate(624.97885 547.194687) scale(0.1 -0.1)">
      <use xlink:href="#DejaVuSans-53"/>
      <use xlink:href="#DejaVuSans-6f" x="63.476562"/>
      <use xlink:href="#DejaVuSans-66" x="124.658203"/>
      <use xlink:href="#DejaVuSans-74" x="158.113281"/>
     </g>
    </g>
    <g id="patch_122">
     <path d="M 596.97885 561.872812 
L 616.97885 561.872812 
L 616.97885 554.872812 
L 596.97885 554.872812 
z
" style="fill: #808080"/>
    </g>
    <g id="text_44">
     <!-- Hard -->
     <g transform="translate(624.97885 561.872812) scale(0.1 -0.1)">
      <use xlink:href="#DejaVuSans-48"/>
      <use xlink:href="#DejaVuSans-61" x="75.195312"/>
      <use xlink:href="#DejaVuSans-72" x="136.474609"/>
      <use xlink:href="#DejaVuSans-64" x="175.837891"/>
     </g>
    </g>
    <g id="patch_123">
     <path d="M 596.97885 576.550937 
L 616.97885 576.550937 
L 616.97885 569.550937 
L 596.97885 569.550937 
z
" style="fill: #ffff00"/>
    </g>
    <g id="text_45">
     <!-- Medium -->
     <g transform="translate(624.97885 576.550937) scale(0.1 -0.1)">
      <use xlink:href="#DejaVuSans-4d"/>
      <use xlink:href="#DejaVuSans-65" x="86.279297"/>
      <use xlink:href="#DejaVuSans-64" x="147.802734"/>
      <use xlink:href="#DejaVuSans-69" x="211.279297"/>
      <use xlink:href="#DejaVuSans-75" x="239.0625"/>
      <use xlink:href="#DejaVuSans-6d" x="302.441406"/>
     </g>
    </g>
    <g id="PathCollection_4">
     <g>
      <use xlink:href="#m507cd15a73" x="606.97885" y="588.604062" style="fill: #1f77b4; stroke: #ffffff; stroke-width: 0.565685"/>
     </g>
    </g>
    <g id="text_46">
     <!-- model f1_score -->
     <g transform="translate(624.97885 591.229062) scale(0.1 -0.1)">
      <use xlink:href="#DejaVuSans-6d"/>
      <use xlink:href="#DejaVuSans-6f" x="97.412109"/>
      <use xlink:href="#DejaVuSans-64" x="158.59375"/>
      <use xlink:href="#DejaVuSans-65" x="222.070312"/>
      <use xlink:href="#DejaVuSans-6c" x="283.59375"/>
      <use xlink:href="#DejaVuSans-20" x="311.376953"/>
      <use xlink:href="#DejaVuSans-66" x="343.164062"/>
      <use xlink:href="#DejaVuSans-31" x="378.369141"/>
      <use xlink:href="#DejaVuSans-5f" x="441.992188"/>
      <use xlink:href="#DejaVuSans-73" x="491.992188"/>
      <use xlink:href="#DejaVuSans-63" x="544.091797"/>
      <use xlink:href="#DejaVuSans-6f" x="599.072266"/>
      <use xlink:href="#DejaVuSans-72" x="660.253906"/>
      <use xlink:href="#DejaVuSans-65" x="699.117188"/>
     </g>
    </g>
   </g>
  </g>
 </g>
 <defs>
  <clipPath id="p2a3717ade0">
   <rect x="43.78125" y="22.318125" width="543.76" height="440.56"/>
  </clipPath>
  <clipPath id="p6d87e6bcdd">
   <rect x="43.78125" y="520.918125" width="543.76" height="440.56"/>
  </clipPath>
 </defs>
 <defs>
  <pattern id="hae2ff19452" patternUnits="userSpaceOnUse" x="0" y="0" width="72" height="72">
   <rect x="0" y="0" width="73" height="73" fill="#ffff00"/>
   <path d="M -36 36 
L 36 108 
M -24 24 
L 48 96 
M -12 12 
L 60 84 
M 0 0 
L 72 72 
M 12 -12 
L 84 60 
M 24 -24 
L 96 48 
M 36 -36 
L 108 36 
" style="fill: #000000; stroke: #000000; stroke-width: 1.0; stroke-linecap: butt; stroke-linejoin: miter; stroke-opacity: 0.3"/>
  </pattern>
 </defs>
</svg>
