<?xml version="1.0" encoding="utf-8" standalone="no"?>
<!DOCTYPE svg PUBLIC "-//W3C//DTD SVG 1.1//EN"
  "http://www.w3.org/Graphics/SVG/1.1/DTD/svg11.dtd">
<svg xmlns:xlink="http://www.w3.org/1999/xlink" width="712.244475pt" height="999.034375pt" viewBox="0 0 712.244475 999.034375" xmlns="http://www.w3.org/2000/svg" version="1.1">
 <metadata>
  <rdf:RDF xmlns:dc="http://purl.org/dc/elements/1.1/" xmlns:cc="http://creativecommons.org/ns#" xmlns:rdf="http://www.w3.org/1999/02/22-rdf-syntax-ns#">
   <cc:Work>
    <dc:type rdf:resource="http://purl.org/dc/dcmitype/StillImage"/>
    <dc:date>2023-07-24T11:08:31.685035</dc:date>
    <dc:format>image/svg+xml</dc:format>
    <dc:creator>
     <cc:Agent>
      <dc:title>Matplotlib v3.7.2, https://matplotlib.org/</dc:title>
     </cc:Agent>
    </dc:creator>
   </cc:Work>
  </rdf:RDF>
 </metadata>
 <defs>
  <style type="text/css">*{stroke-linejoin: round; stroke-linecap: butt}</style>
 </defs>
 <g id="figure_1">
  <g id="patch_1">
   <path d="M 0 999.034375 
L 712.244475 999.034375 
L 712.244475 0 
L 0 0 
z
" style="fill: #ffffff"/>
  </g>
  <g id="axes_1">
   <g id="patch_2">
    <path d="M 43.78125 462.878125 
L 587.54125 462.878125 
L 587.54125 22.318125 
L 43.78125 22.318125 
z
" style="fill: #ffffff"/>
   </g>
   <g id="patch_3">
    <path d="M 33.894705 26.723725 
L 33.894705 22.318125 
L 43.78125 22.318125 
L 43.78125 26.723725 
z
" clip-path="url(#p2c0ae74e96)" style="fill: #808080"/>
   </g>
   <g id="patch_4">
    <path d="M 43.78125 26.723725 
L 43.78125 22.318125 
L 53.667795 22.318125 
L 53.667795 26.723725 
z
" clip-path="url(#p2c0ae74e96)" style="fill: #808080"/>
   </g>
   <g id="patch_5">
    <path d="M 53.667795 26.723725 
L 53.667795 22.318125 
L 63.554341 22.318125 
L 63.554341 26.723725 
z
" clip-path="url(#p2c0ae74e96)" style="fill: #808080"/>
   </g>
   <g id="patch_6">
    <path d="M 63.554341 26.723725 
L 63.554341 22.318125 
L 73.440886 22.318125 
L 73.440886 26.723725 
z
" clip-path="url(#p2c0ae74e96)" style="fill: #808080"/>
   </g>
   <g id="patch_7">
    <path d="M 73.440886 26.723725 
L 73.440886 22.318125 
L 83.327432 22.318125 
L 83.327432 26.723725 
z
" clip-path="url(#p2c0ae74e96)" style="fill: #808080"/>
   </g>
   <g id="patch_8">
    <path d="M 83.327432 26.723725 
L 83.327432 22.318125 
L 93.213977 22.318125 
L 93.213977 26.723725 
z
" clip-path="url(#p2c0ae74e96)" style="fill: #808080"/>
   </g>
   <g id="patch_9">
    <path d="M 93.213977 26.723725 
L 93.213977 22.318125 
L 103.100523 22.318125 
L 103.100523 26.723725 
z
" clip-path="url(#p2c0ae74e96)" style="fill: #808080"/>
   </g>
   <g id="patch_10">
    <path d="M 103.100523 26.723725 
L 103.100523 22.318125 
L 112.987068 22.318125 
L 112.987068 26.723725 
z
" clip-path="url(#p2c0ae74e96)" style="fill: #808080"/>
   </g>
   <g id="patch_11">
    <path d="M 112.987068 26.723725 
L 112.987068 22.318125 
L 122.873614 22.318125 
L 122.873614 26.723725 
z
" clip-path="url(#p2c0ae74e96)" style="fill: #808080"/>
   </g>
   <g id="patch_12">
    <path d="M 122.873614 26.723725 
L 122.873614 22.318125 
L 132.760159 22.318125 
L 132.760159 26.723725 
z
" clip-path="url(#p2c0ae74e96)" style="fill: #808080"/>
   </g>
   <g id="patch_13">
    <path d="M 132.760159 26.723725 
L 132.760159 22.318125 
L 142.646705 22.318125 
L 142.646705 26.723725 
z
" clip-path="url(#p2c0ae74e96)" style="fill: #808080"/>
   </g>
   <g id="patch_14">
    <path d="M 142.646705 26.723725 
L 142.646705 22.318125 
L 152.53325 22.318125 
L 152.53325 26.723725 
z
" clip-path="url(#p2c0ae74e96)" style="fill: #808080"/>
   </g>
   <g id="patch_15">
    <path d="M 152.53325 26.723725 
L 152.53325 22.318125 
L 162.419795 22.318125 
L 162.419795 26.723725 
z
" clip-path="url(#p2c0ae74e96)" style="fill: #808080"/>
   </g>
   <g id="patch_16">
    <path d="M 162.419795 26.723725 
L 162.419795 22.318125 
L 172.306341 22.318125 
L 172.306341 26.723725 
z
" clip-path="url(#p2c0ae74e96)" style="fill: #808080"/>
   </g>
   <g id="patch_17">
    <path d="M 172.306341 26.723725 
L 172.306341 22.318125 
L 182.192886 22.318125 
L 182.192886 26.723725 
z
" clip-path="url(#p2c0ae74e96)" style="fill: #808080"/>
   </g>
   <g id="patch_18">
    <path d="M 182.192886 26.723725 
L 182.192886 22.318125 
L 192.079432 22.318125 
L 192.079432 26.723725 
z
" clip-path="url(#p2c0ae74e96)" style="fill: #808080"/>
   </g>
   <g id="patch_19">
    <path d="M 192.079432 26.723725 
L 192.079432 22.318125 
L 201.965977 22.318125 
L 201.965977 26.723725 
z
" clip-path="url(#p2c0ae74e96)" style="fill: #808080"/>
   </g>
   <g id="patch_20">
    <path d="M 201.965977 26.723725 
L 201.965977 22.318125 
L 211.852523 22.318125 
L 211.852523 26.723725 
z
" clip-path="url(#p2c0ae74e96)" style="fill: #808080"/>
   </g>
   <g id="patch_21">
    <path d="M 211.852523 26.723725 
L 211.852523 22.318125 
L 221.739068 22.318125 
L 221.739068 26.723725 
z
" clip-path="url(#p2c0ae74e96)" style="fill: #808080"/>
   </g>
   <g id="patch_22">
    <path d="M 221.739068 26.723725 
L 221.739068 22.318125 
L 231.625614 22.318125 
L 231.625614 26.723725 
z
" clip-path="url(#p2c0ae74e96)" style="fill: #808080"/>
   </g>
   <g id="patch_23">
    <path d="M 231.625614 26.723725 
L 231.625614 22.318125 
L 241.512159 22.318125 
L 241.512159 26.723725 
z
" clip-path="url(#p2c0ae74e96)" style="fill: #808080"/>
   </g>
   <g id="patch_24">
    <path d="M 241.512159 26.723725 
L 241.512159 22.318125 
L 251.398705 22.318125 
L 251.398705 26.723725 
z
" clip-path="url(#p2c0ae74e96)" style="fill: #808080"/>
   </g>
   <g id="patch_25">
    <path d="M 251.398705 26.723725 
L 251.398705 22.318125 
L 261.28525 22.318125 
L 261.28525 26.723725 
z
" clip-path="url(#p2c0ae74e96)" style="fill: #808080"/>
   </g>
   <g id="patch_26">
    <path d="M 261.28525 26.723725 
L 261.28525 22.318125 
L 271.171795 22.318125 
L 271.171795 26.723725 
z
" clip-path="url(#p2c0ae74e96)" style="fill: #808080"/>
   </g>
   <g id="patch_27">
    <path d="M 271.171795 26.723725 
L 271.171795 22.318125 
L 281.058341 22.318125 
L 281.058341 26.723725 
z
" clip-path="url(#p2c0ae74e96)" style="fill: #808080"/>
   </g>
   <g id="patch_28">
    <path d="M 281.058341 26.723725 
L 281.058341 22.318125 
L 290.944886 22.318125 
L 290.944886 26.723725 
z
" clip-path="url(#p2c0ae74e96)" style="fill: #808080"/>
   </g>
   <g id="patch_29">
    <path d="M 290.944886 26.723725 
L 290.944886 22.318125 
L 300.831432 22.318125 
L 300.831432 26.723725 
z
" clip-path="url(#p2c0ae74e96)" style="fill: #808080"/>
   </g>
   <g id="patch_30">
    <path d="M 300.831432 26.723725 
L 300.831432 22.318125 
L 310.717977 22.318125 
L 310.717977 26.723725 
z
" clip-path="url(#p2c0ae74e96)" style="fill: #808080"/>
   </g>
   <g id="patch_31">
    <path d="M 310.717977 26.723725 
L 310.717977 22.318125 
L 320.604523 22.318125 
L 320.604523 26.723725 
z
" clip-path="url(#p2c0ae74e96)" style="fill: #808080"/>
   </g>
   <g id="patch_32">
    <path d="M 320.604523 26.723725 
L 320.604523 22.318125 
L 330.491068 22.318125 
L 330.491068 26.723725 
z
" clip-path="url(#p2c0ae74e96)" style="fill: #808080"/>
   </g>
   <g id="patch_33">
    <path d="M 330.491068 26.723725 
L 330.491068 22.318125 
L 340.377614 22.318125 
L 340.377614 26.723725 
z
" clip-path="url(#p2c0ae74e96)" style="fill: #808080"/>
   </g>
   <g id="patch_34">
    <path d="M 340.377614 26.723725 
L 340.377614 22.318125 
L 350.264159 22.318125 
L 350.264159 26.723725 
z
" clip-path="url(#p2c0ae74e96)" style="fill: #808080"/>
   </g>
   <g id="patch_35">
    <path d="M 350.264159 26.723725 
L 350.264159 22.318125 
L 360.150705 22.318125 
L 360.150705 26.723725 
z
" clip-path="url(#p2c0ae74e96)" style="fill: #808080"/>
   </g>
   <g id="patch_36">
    <path d="M 360.150705 26.723725 
L 360.150705 22.318125 
L 370.03725 22.318125 
L 370.03725 26.723725 
z
" clip-path="url(#p2c0ae74e96)" style="fill: #808080"/>
   </g>
   <g id="patch_37">
    <path d="M 370.03725 26.723725 
L 370.03725 22.318125 
L 379.923795 22.318125 
L 379.923795 26.723725 
z
" clip-path="url(#p2c0ae74e96)" style="fill: #808080"/>
   </g>
   <g id="patch_38">
    <path d="M 379.923795 26.723725 
L 379.923795 22.318125 
L 389.810341 22.318125 
L 389.810341 26.723725 
z
" clip-path="url(#p2c0ae74e96)" style="fill: #808080"/>
   </g>
   <g id="patch_39">
    <path d="M 389.810341 26.723725 
L 389.810341 22.318125 
L 399.696886 22.318125 
L 399.696886 26.723725 
z
" clip-path="url(#p2c0ae74e96)" style="fill: #808080"/>
   </g>
   <g id="patch_40">
    <path d="M 399.696886 26.723725 
L 399.696886 22.318125 
L 409.583432 22.318125 
L 409.583432 26.723725 
z
" clip-path="url(#p2c0ae74e96)" style="fill: #808080"/>
   </g>
   <g id="patch_41">
    <path d="M 409.583432 26.723725 
L 409.583432 22.318125 
L 419.469977 22.318125 
L 419.469977 26.723725 
z
" clip-path="url(#p2c0ae74e96)" style="fill: #808080"/>
   </g>
   <g id="patch_42">
    <path d="M 419.469977 26.723725 
L 419.469977 22.318125 
L 429.356523 22.318125 
L 429.356523 26.723725 
z
" clip-path="url(#p2c0ae74e96)" style="fill: #808080"/>
   </g>
   <g id="patch_43">
    <path d="M 429.356523 26.723725 
L 429.356523 22.318125 
L 439.243068 22.318125 
L 439.243068 26.723725 
z
" clip-path="url(#p2c0ae74e96)" style="fill: #808080"/>
   </g>
   <g id="patch_44">
    <path d="M 439.243068 26.723725 
L 439.243068 22.318125 
L 449.129614 22.318125 
L 449.129614 26.723725 
z
" clip-path="url(#p2c0ae74e96)" style="fill: #808080"/>
   </g>
   <g id="patch_45">
    <path d="M 449.129614 26.723725 
L 449.129614 22.318125 
L 459.016159 22.318125 
L 459.016159 26.723725 
z
" clip-path="url(#p2c0ae74e96)" style="fill: #808080"/>
   </g>
   <g id="patch_46">
    <path d="M 459.016159 26.723725 
L 459.016159 22.318125 
L 468.902705 22.318125 
L 468.902705 26.723725 
z
" clip-path="url(#p2c0ae74e96)" style="fill: #808080"/>
   </g>
   <g id="patch_47">
    <path d="M 468.902705 26.723725 
L 468.902705 22.318125 
L 478.78925 22.318125 
L 478.78925 26.723725 
z
" clip-path="url(#p2c0ae74e96)" style="fill: #ffff00"/>
   </g>
   <g id="patch_48">
    <path d="M 478.78925 26.723725 
L 478.78925 22.318125 
L 488.675795 22.318125 
L 488.675795 26.723725 
z
" clip-path="url(#p2c0ae74e96)" style="fill: #ffff00"/>
   </g>
   <g id="patch_49">
    <path d="M 488.675795 26.723725 
L 488.675795 22.318125 
L 498.562341 22.318125 
L 498.562341 26.723725 
z
" clip-path="url(#p2c0ae74e96)" style="fill: #ffff00"/>
   </g>
   <g id="patch_50">
    <path d="M 498.562341 26.723725 
L 498.562341 22.318125 
L 508.448886 22.318125 
L 508.448886 26.723725 
z
" clip-path="url(#p2c0ae74e96)" style="fill: #ffff00"/>
   </g>
   <g id="patch_51">
    <path d="M 508.448886 26.723725 
L 508.448886 22.318125 
L 518.335432 22.318125 
L 518.335432 26.723725 
z
" clip-path="url(#p2c0ae74e96)" style="fill: #ffff00"/>
   </g>
   <g id="patch_52">
    <path d="M 518.335432 26.723725 
L 518.335432 22.318125 
L 528.221977 22.318125 
L 528.221977 26.723725 
z
" clip-path="url(#p2c0ae74e96)" style="fill: #ffff00"/>
   </g>
   <g id="patch_53">
    <path d="M 528.221977 26.723725 
L 528.221977 22.318125 
L 538.108523 22.318125 
L 538.108523 26.723725 
z
" clip-path="url(#p2c0ae74e96)" style="fill: #ffff00"/>
   </g>
   <g id="patch_54">
    <path d="M 538.108523 26.723725 
L 538.108523 22.318125 
L 547.995068 22.318125 
L 547.995068 26.723725 
z
" clip-path="url(#p2c0ae74e96)" style="fill: #ffff00"/>
   </g>
   <g id="patch_55">
    <path d="M 547.995068 26.723725 
L 547.995068 22.318125 
L 557.881614 22.318125 
L 557.881614 26.723725 
z
" clip-path="url(#p2c0ae74e96)" style="fill: #ffff00"/>
   </g>
   <g id="patch_56">
    <path d="M 557.881614 26.723725 
L 557.881614 22.318125 
L 567.768159 22.318125 
L 567.768159 26.723725 
z
" clip-path="url(#p2c0ae74e96)" style="fill: #ffff00"/>
   </g>
   <g id="patch_57">
    <path d="M 567.768159 26.723725 
L 567.768159 22.318125 
L 577.654705 22.318125 
L 577.654705 26.723725 
z
" clip-path="url(#p2c0ae74e96)" style="fill: #ffff00"/>
   </g>
   <g id="patch_58">
    <path d="M 577.654705 26.723725 
L 577.654705 22.318125 
L 587.54125 22.318125 
L 587.54125 26.723725 
z
" clip-path="url(#p2c0ae74e96)" style="fill: #ffff00"/>
   </g>
   <g id="LineCollection_1">
    <path d="M 43.78125 242.598125 
L 587.54125 242.598125 
" clip-path="url(#p2c0ae74e96)" style="fill: none; stroke-dasharray: 1,1.65; stroke-dashoffset: 0; stroke: #000000"/>
   </g>
   <g id="LineCollection_2">
    <path d="M 468.902705 462.878125 
L 468.902705 22.318125 
" clip-path="url(#p2c0ae74e96)" style="fill: none; stroke-dasharray: 3.7,1.6; stroke-dashoffset: 0; stroke: #ff0000"/>
   </g>
   <g id="line2d_1">
    <path d="M 43.78125 332.47855 
L 53.667795 330.681633 
L 63.554341 327.853857 
L 73.440886 323.088844 
L 83.327432 292.665846 
L 93.213977 291.207927 
L 103.100523 279.723203 
L 112.987068 270.832365 
L 122.873614 273.818979 
L 132.760159 255.390365 
L 142.646705 234.84103 
L 152.53325 223.619903 
L 162.419795 217.411933 
L 172.306341 195.953621 
L 182.192886 199.547075 
L 192.079432 191.764875 
L 201.965977 196.451981 
L 211.852523 199.719018 
L 221.739068 195.290145 
L 231.625614 192.697905 
L 241.512159 191.922381 
L 251.398705 189.920556 
L 261.28525 189.808597 
L 271.171795 186.170035 
L 281.058341 186.03999 
L 290.944886 185.988627 
L 300.831432 185.718028 
L 310.717977 185.475267 
L 320.604523 184.997736 
L 330.491068 184.991661 
L 340.377614 184.576764 
L 350.264159 184.442981 
L 360.150705 184.217456 
L 370.03725 184.322754 
L 379.923795 184.336429 
L 389.810341 184.489248 
L 399.696886 184.356556 
L 409.583432 185.068231 
L 419.469977 185.272418 
L 429.356523 185.557133 
L 439.243068 186.191805 
L 449.129614 186.700391 
L 459.016159 186.410063 
L 468.902705 186.348596 
L 478.78925 329.584757 
L 488.675795 334.587101 
L 498.562341 327.503331 
L 508.448886 327.291094 
L 518.335432 326.455333 
L 528.221977 326.667979 
L 538.108523 326.602882 
L 547.995068 327.842348 
L 557.881614 332.243042 
L 567.768159 331.712015 
L 577.654705 319.670092 
L 587.54125 306.691341 
" clip-path="url(#p2c0ae74e96)" style="fill: none; stroke-dasharray: 3.7,1.6; stroke-dashoffset: 0; stroke: #1f77b4"/>
   </g>
   <g id="PathCollection_1">
    <defs>
     <path id="m6028b58f35" d="M -1.767767 3.535534 
L 0 1.767767 
L 1.767767 3.535534 
L 3.535534 1.767767 
L 1.767767 0 
L 3.535534 -1.767767 
L 1.767767 -3.535534 
L 0 -1.767767 
L -1.767767 -3.535534 
L -3.535534 -1.767767 
L -1.767767 0 
L -3.535534 1.767767 
z
" style="stroke: #ffffff; stroke-width: 0.565685"/>
    </defs>
    <g clip-path="url(#p2c0ae74e96)">
     <use xlink:href="#m6028b58f35" x="43.78125" y="332.47855" style="fill: #1f77b4; stroke: #ffffff; stroke-width: 0.565685"/>
     <use xlink:href="#m6028b58f35" x="53.667795" y="330.681633" style="fill: #1f77b4; stroke: #ffffff; stroke-width: 0.565685"/>
     <use xlink:href="#m6028b58f35" x="63.554341" y="327.853857" style="fill: #1f77b4; stroke: #ffffff; stroke-width: 0.565685"/>
     <use xlink:href="#m6028b58f35" x="73.440886" y="323.088844" style="fill: #1f77b4; stroke: #ffffff; stroke-width: 0.565685"/>
     <use xlink:href="#m6028b58f35" x="83.327432" y="292.665846" style="fill: #1f77b4; stroke: #ffffff; stroke-width: 0.565685"/>
     <use xlink:href="#m6028b58f35" x="93.213977" y="291.207927" style="fill: #1f77b4; stroke: #ffffff; stroke-width: 0.565685"/>
     <use xlink:href="#m6028b58f35" x="103.100523" y="279.723203" style="fill: #1f77b4; stroke: #ffffff; stroke-width: 0.565685"/>
     <use xlink:href="#m6028b58f35" x="112.987068" y="270.832365" style="fill: #1f77b4; stroke: #ffffff; stroke-width: 0.565685"/>
     <use xlink:href="#m6028b58f35" x="122.873614" y="273.818979" style="fill: #1f77b4; stroke: #ffffff; stroke-width: 0.565685"/>
     <use xlink:href="#m6028b58f35" x="132.760159" y="255.390365" style="fill: #1f77b4; stroke: #ffffff; stroke-width: 0.565685"/>
     <use xlink:href="#m6028b58f35" x="142.646705" y="234.84103" style="fill: #1f77b4; stroke: #ffffff; stroke-width: 0.565685"/>
     <use xlink:href="#m6028b58f35" x="152.53325" y="223.619903" style="fill: #1f77b4; stroke: #ffffff; stroke-width: 0.565685"/>
     <use xlink:href="#m6028b58f35" x="162.419795" y="217.411933" style="fill: #1f77b4; stroke: #ffffff; stroke-width: 0.565685"/>
     <use xlink:href="#m6028b58f35" x="172.306341" y="195.953621" style="fill: #1f77b4; stroke: #ffffff; stroke-width: 0.565685"/>
     <use xlink:href="#m6028b58f35" x="182.192886" y="199.547075" style="fill: #1f77b4; stroke: #ffffff; stroke-width: 0.565685"/>
     <use xlink:href="#m6028b58f35" x="192.079432" y="191.764875" style="fill: #1f77b4; stroke: #ffffff; stroke-width: 0.565685"/>
     <use xlink:href="#m6028b58f35" x="201.965977" y="196.451981" style="fill: #1f77b4; stroke: #ffffff; stroke-width: 0.565685"/>
     <use xlink:href="#m6028b58f35" x="211.852523" y="199.719018" style="fill: #1f77b4; stroke: #ffffff; stroke-width: 0.565685"/>
     <use xlink:href="#m6028b58f35" x="221.739068" y="195.290145" style="fill: #1f77b4; stroke: #ffffff; stroke-width: 0.565685"/>
     <use xlink:href="#m6028b58f35" x="231.625614" y="192.697905" style="fill: #1f77b4; stroke: #ffffff; stroke-width: 0.565685"/>
     <use xlink:href="#m6028b58f35" x="241.512159" y="191.922381" style="fill: #1f77b4; stroke: #ffffff; stroke-width: 0.565685"/>
     <use xlink:href="#m6028b58f35" x="251.398705" y="189.920556" style="fill: #1f77b4; stroke: #ffffff; stroke-width: 0.565685"/>
     <use xlink:href="#m6028b58f35" x="261.28525" y="189.808597" style="fill: #1f77b4; stroke: #ffffff; stroke-width: 0.565685"/>
     <use xlink:href="#m6028b58f35" x="271.171795" y="186.170035" style="fill: #1f77b4; stroke: #ffffff; stroke-width: 0.565685"/>
     <use xlink:href="#m6028b58f35" x="281.058341" y="186.03999" style="fill: #1f77b4; stroke: #ffffff; stroke-width: 0.565685"/>
     <use xlink:href="#m6028b58f35" x="290.944886" y="185.988627" style="fill: #1f77b4; stroke: #ffffff; stroke-width: 0.565685"/>
     <use xlink:href="#m6028b58f35" x="300.831432" y="185.718028" style="fill: #1f77b4; stroke: #ffffff; stroke-width: 0.565685"/>
     <use xlink:href="#m6028b58f35" x="310.717977" y="185.475267" style="fill: #1f77b4; stroke: #ffffff; stroke-width: 0.565685"/>
     <use xlink:href="#m6028b58f35" x="320.604523" y="184.997736" style="fill: #1f77b4; stroke: #ffffff; stroke-width: 0.565685"/>
     <use xlink:href="#m6028b58f35" x="330.491068" y="184.991661" style="fill: #1f77b4; stroke: #ffffff; stroke-width: 0.565685"/>
     <use xlink:href="#m6028b58f35" x="340.377614" y="184.576764" style="fill: #1f77b4; stroke: #ffffff; stroke-width: 0.565685"/>
     <use xlink:href="#m6028b58f35" x="350.264159" y="184.442981" style="fill: #1f77b4; stroke: #ffffff; stroke-width: 0.565685"/>
     <use xlink:href="#m6028b58f35" x="360.150705" y="184.217456" style="fill: #1f77b4; stroke: #ffffff; stroke-width: 0.565685"/>
     <use xlink:href="#m6028b58f35" x="370.03725" y="184.322754" style="fill: #1f77b4; stroke: #ffffff; stroke-width: 0.565685"/>
     <use xlink:href="#m6028b58f35" x="379.923795" y="184.336429" style="fill: #1f77b4; stroke: #ffffff; stroke-width: 0.565685"/>
     <use xlink:href="#m6028b58f35" x="389.810341" y="184.489248" style="fill: #1f77b4; stroke: #ffffff; stroke-width: 0.565685"/>
     <use xlink:href="#m6028b58f35" x="399.696886" y="184.356556" style="fill: #1f77b4; stroke: #ffffff; stroke-width: 0.565685"/>
     <use xlink:href="#m6028b58f35" x="409.583432" y="185.068231" style="fill: #1f77b4; stroke: #ffffff; stroke-width: 0.565685"/>
     <use xlink:href="#m6028b58f35" x="419.469977" y="185.272418" style="fill: #1f77b4; stroke: #ffffff; stroke-width: 0.565685"/>
     <use xlink:href="#m6028b58f35" x="429.356523" y="185.557133" style="fill: #1f77b4; stroke: #ffffff; stroke-width: 0.565685"/>
     <use xlink:href="#m6028b58f35" x="439.243068" y="186.191805" style="fill: #1f77b4; stroke: #ffffff; stroke-width: 0.565685"/>
     <use xlink:href="#m6028b58f35" x="449.129614" y="186.700391" style="fill: #1f77b4; stroke: #ffffff; stroke-width: 0.565685"/>
     <use xlink:href="#m6028b58f35" x="459.016159" y="186.410063" style="fill: #1f77b4; stroke: #ffffff; stroke-width: 0.565685"/>
     <use xlink:href="#m6028b58f35" x="468.902705" y="186.348596" style="fill: #1f77b4; stroke: #ffffff; stroke-width: 0.565685"/>
     <use xlink:href="#m6028b58f35" x="478.78925" y="329.584757" style="fill: #1f77b4; stroke: #ffffff; stroke-width: 0.565685"/>
     <use xlink:href="#m6028b58f35" x="488.675795" y="334.587101" style="fill: #1f77b4; stroke: #ffffff; stroke-width: 0.565685"/>
     <use xlink:href="#m6028b58f35" x="498.562341" y="327.503331" style="fill: #1f77b4; stroke: #ffffff; stroke-width: 0.565685"/>
     <use xlink:href="#m6028b58f35" x="508.448886" y="327.291094" style="fill: #1f77b4; stroke: #ffffff; stroke-width: 0.565685"/>
     <use xlink:href="#m6028b58f35" x="518.335432" y="326.455333" style="fill: #1f77b4; stroke: #ffffff; stroke-width: 0.565685"/>
     <use xlink:href="#m6028b58f35" x="528.221977" y="326.667979" style="fill: #1f77b4; stroke: #ffffff; stroke-width: 0.565685"/>
     <use xlink:href="#m6028b58f35" x="538.108523" y="326.602882" style="fill: #1f77b4; stroke: #ffffff; stroke-width: 0.565685"/>
     <use xlink:href="#m6028b58f35" x="547.995068" y="327.842348" style="fill: #1f77b4; stroke: #ffffff; stroke-width: 0.565685"/>
     <use xlink:href="#m6028b58f35" x="557.881614" y="332.243042" style="fill: #1f77b4; stroke: #ffffff; stroke-width: 0.565685"/>
     <use xlink:href="#m6028b58f35" x="567.768159" y="331.712015" style="fill: #1f77b4; stroke: #ffffff; stroke-width: 0.565685"/>
     <use xlink:href="#m6028b58f35" x="577.654705" y="319.670092" style="fill: #1f77b4; stroke: #ffffff; stroke-width: 0.565685"/>
     <use xlink:href="#m6028b58f35" x="587.54125" y="306.691341" style="fill: #1f77b4; stroke: #ffffff; stroke-width: 0.565685"/>
    </g>
   </g>
   <g id="PolyCollection_1"/>
   <g id="matplotlib.axis_1">
    <g id="xtick_1">
     <g id="line2d_2">
      <path d="M 73.440886 462.878125 
L 73.440886 22.318125 
" clip-path="url(#p2c0ae74e96)" style="fill: none; stroke: #b0b0b0; stroke-width: 0.8; stroke-linecap: square"/>
     </g>
     <g id="line2d_3">
      <defs>
       <path id="md3eb834c41" d="M 0 0 
L 0 3.5 
" style="stroke: #000000; stroke-width: 0.8"/>
      </defs>
      <g>
       <use xlink:href="#md3eb834c41" x="73.440886" y="462.878125" style="stroke: #000000; stroke-width: 0.8"/>
      </g>
     </g>
     <g id="text_1">
      <!-- 5 -->
      <g transform="translate(70.259636 477.476562) scale(0.1 -0.1)">
       <defs>
        <path id="DejaVuSans-35" d="M 691 4666 
L 3169 4666 
L 3169 4134 
L 1269 4134 
L 1269 2991 
Q 1406 3038 1543 3061 
Q 1681 3084 1819 3084 
Q 2600 3084 3056 2656 
Q 3513 2228 3513 1497 
Q 3513 744 3044 326 
Q 2575 -91 1722 -91 
Q 1428 -91 1123 -41 
Q 819 9 494 109 
L 494 744 
Q 775 591 1075 516 
Q 1375 441 1709 441 
Q 2250 441 2565 725 
Q 2881 1009 2881 1497 
Q 2881 1984 2565 2268 
Q 2250 2553 1709 2553 
Q 1456 2553 1204 2497 
Q 953 2441 691 2322 
L 691 4666 
z
" transform="scale(0.015625)"/>
       </defs>
       <use xlink:href="#DejaVuSans-35"/>
      </g>
     </g>
    </g>
    <g id="xtick_2">
     <g id="line2d_4">
      <path d="M 122.873614 462.878125 
L 122.873614 22.318125 
" clip-path="url(#p2c0ae74e96)" style="fill: none; stroke: #b0b0b0; stroke-width: 0.8; stroke-linecap: square"/>
     </g>
     <g id="line2d_5">
      <g>
       <use xlink:href="#md3eb834c41" x="122.873614" y="462.878125" style="stroke: #000000; stroke-width: 0.8"/>
      </g>
     </g>
     <g id="text_2">
      <!-- 10 -->
      <g transform="translate(116.511114 477.476562) scale(0.1 -0.1)">
       <defs>
        <path id="DejaVuSans-31" d="M 794 531 
L 1825 531 
L 1825 4091 
L 703 3866 
L 703 4441 
L 1819 4666 
L 2450 4666 
L 2450 531 
L 3481 531 
L 3481 0 
L 794 0 
L 794 531 
z
" transform="scale(0.015625)"/>
        <path id="DejaVuSans-30" d="M 2034 4250 
Q 1547 4250 1301 3770 
Q 1056 3291 1056 2328 
Q 1056 1369 1301 889 
Q 1547 409 2034 409 
Q 2525 409 2770 889 
Q 3016 1369 3016 2328 
Q 3016 3291 2770 3770 
Q 2525 4250 2034 4250 
z
M 2034 4750 
Q 2819 4750 3233 4129 
Q 3647 3509 3647 2328 
Q 3647 1150 3233 529 
Q 2819 -91 2034 -91 
Q 1250 -91 836 529 
Q 422 1150 422 2328 
Q 422 3509 836 4129 
Q 1250 4750 2034 4750 
z
" transform="scale(0.015625)"/>
       </defs>
       <use xlink:href="#DejaVuSans-31"/>
       <use xlink:href="#DejaVuSans-30" x="63.623047"/>
      </g>
     </g>
    </g>
    <g id="xtick_3">
     <g id="line2d_6">
      <path d="M 172.306341 462.878125 
L 172.306341 22.318125 
" clip-path="url(#p2c0ae74e96)" style="fill: none; stroke: #b0b0b0; stroke-width: 0.8; stroke-linecap: square"/>
     </g>
     <g id="line2d_7">
      <g>
       <use xlink:href="#md3eb834c41" x="172.306341" y="462.878125" style="stroke: #000000; stroke-width: 0.8"/>
      </g>
     </g>
     <g id="text_3">
      <!-- 15 -->
      <g transform="translate(165.943841 477.476562) scale(0.1 -0.1)">
       <use xlink:href="#DejaVuSans-31"/>
       <use xlink:href="#DejaVuSans-35" x="63.623047"/>
      </g>
     </g>
    </g>
    <g id="xtick_4">
     <g id="line2d_8">
      <path d="M 221.739068 462.878125 
L 221.739068 22.318125 
" clip-path="url(#p2c0ae74e96)" style="fill: none; stroke: #b0b0b0; stroke-width: 0.8; stroke-linecap: square"/>
     </g>
     <g id="line2d_9">
      <g>
       <use xlink:href="#md3eb834c41" x="221.739068" y="462.878125" style="stroke: #000000; stroke-width: 0.8"/>
      </g>
     </g>
     <g id="text_4">
      <!-- 20 -->
      <g transform="translate(215.376568 477.476562) scale(0.1 -0.1)">
       <defs>
        <path id="DejaVuSans-32" d="M 1228 531 
L 3431 531 
L 3431 0 
L 469 0 
L 469 531 
Q 828 903 1448 1529 
Q 2069 2156 2228 2338 
Q 2531 2678 2651 2914 
Q 2772 3150 2772 3378 
Q 2772 3750 2511 3984 
Q 2250 4219 1831 4219 
Q 1534 4219 1204 4116 
Q 875 4013 500 3803 
L 500 4441 
Q 881 4594 1212 4672 
Q 1544 4750 1819 4750 
Q 2544 4750 2975 4387 
Q 3406 4025 3406 3419 
Q 3406 3131 3298 2873 
Q 3191 2616 2906 2266 
Q 2828 2175 2409 1742 
Q 1991 1309 1228 531 
z
" transform="scale(0.015625)"/>
       </defs>
       <use xlink:href="#DejaVuSans-32"/>
       <use xlink:href="#DejaVuSans-30" x="63.623047"/>
      </g>
     </g>
    </g>
    <g id="xtick_5">
     <g id="line2d_10">
      <path d="M 271.171795 462.878125 
L 271.171795 22.318125 
" clip-path="url(#p2c0ae74e96)" style="fill: none; stroke: #b0b0b0; stroke-width: 0.8; stroke-linecap: square"/>
     </g>
     <g id="line2d_11">
      <g>
       <use xlink:href="#md3eb834c41" x="271.171795" y="462.878125" style="stroke: #000000; stroke-width: 0.8"/>
      </g>
     </g>
     <g id="text_5">
      <!-- 25 -->
      <g transform="translate(264.809295 477.476562) scale(0.1 -0.1)">
       <use xlink:href="#DejaVuSans-32"/>
       <use xlink:href="#DejaVuSans-35" x="63.623047"/>
      </g>
     </g>
    </g>
    <g id="xtick_6">
     <g id="line2d_12">
      <path d="M 320.604523 462.878125 
L 320.604523 22.318125 
" clip-path="url(#p2c0ae74e96)" style="fill: none; stroke: #b0b0b0; stroke-width: 0.8; stroke-linecap: square"/>
     </g>
     <g id="line2d_13">
      <g>
       <use xlink:href="#md3eb834c41" x="320.604523" y="462.878125" style="stroke: #000000; stroke-width: 0.8"/>
      </g>
     </g>
     <g id="text_6">
      <!-- 30 -->
      <g transform="translate(314.242023 477.476562) scale(0.1 -0.1)">
       <defs>
        <path id="DejaVuSans-33" d="M 2597 2516 
Q 3050 2419 3304 2112 
Q 3559 1806 3559 1356 
Q 3559 666 3084 287 
Q 2609 -91 1734 -91 
Q 1441 -91 1130 -33 
Q 819 25 488 141 
L 488 750 
Q 750 597 1062 519 
Q 1375 441 1716 441 
Q 2309 441 2620 675 
Q 2931 909 2931 1356 
Q 2931 1769 2642 2001 
Q 2353 2234 1838 2234 
L 1294 2234 
L 1294 2753 
L 1863 2753 
Q 2328 2753 2575 2939 
Q 2822 3125 2822 3475 
Q 2822 3834 2567 4026 
Q 2313 4219 1838 4219 
Q 1578 4219 1281 4162 
Q 984 4106 628 3988 
L 628 4550 
Q 988 4650 1302 4700 
Q 1616 4750 1894 4750 
Q 2613 4750 3031 4423 
Q 3450 4097 3450 3541 
Q 3450 3153 3228 2886 
Q 3006 2619 2597 2516 
z
" transform="scale(0.015625)"/>
       </defs>
       <use xlink:href="#DejaVuSans-33"/>
       <use xlink:href="#DejaVuSans-30" x="63.623047"/>
      </g>
     </g>
    </g>
    <g id="xtick_7">
     <g id="line2d_14">
      <path d="M 370.03725 462.878125 
L 370.03725 22.318125 
" clip-path="url(#p2c0ae74e96)" style="fill: none; stroke: #b0b0b0; stroke-width: 0.8; stroke-linecap: square"/>
     </g>
     <g id="line2d_15">
      <g>
       <use xlink:href="#md3eb834c41" x="370.03725" y="462.878125" style="stroke: #000000; stroke-width: 0.8"/>
      </g>
     </g>
     <g id="text_7">
      <!-- 35 -->
      <g transform="translate(363.67475 477.476562) scale(0.1 -0.1)">
       <use xlink:href="#DejaVuSans-33"/>
       <use xlink:href="#DejaVuSans-35" x="63.623047"/>
      </g>
     </g>
    </g>
    <g id="xtick_8">
     <g id="line2d_16">
      <path d="M 419.469977 462.878125 
L 419.469977 22.318125 
" clip-path="url(#p2c0ae74e96)" style="fill: none; stroke: #b0b0b0; stroke-width: 0.8; stroke-linecap: square"/>
     </g>
     <g id="line2d_17">
      <g>
       <use xlink:href="#md3eb834c41" x="419.469977" y="462.878125" style="stroke: #000000; stroke-width: 0.8"/>
      </g>
     </g>
     <g id="text_8">
      <!-- 40 -->
      <g transform="translate(413.107477 477.476562) scale(0.1 -0.1)">
       <defs>
        <path id="DejaVuSans-34" d="M 2419 4116 
L 825 1625 
L 2419 1625 
L 2419 4116 
z
M 2253 4666 
L 3047 4666 
L 3047 1625 
L 3713 1625 
L 3713 1100 
L 3047 1100 
L 3047 0 
L 2419 0 
L 2419 1100 
L 313 1100 
L 313 1709 
L 2253 4666 
z
" transform="scale(0.015625)"/>
       </defs>
       <use xlink:href="#DejaVuSans-34"/>
       <use xlink:href="#DejaVuSans-30" x="63.623047"/>
      </g>
     </g>
    </g>
    <g id="xtick_9">
     <g id="line2d_18">
      <path d="M 468.902705 462.878125 
L 468.902705 22.318125 
" clip-path="url(#p2c0ae74e96)" style="fill: none; stroke: #b0b0b0; stroke-width: 0.8; stroke-linecap: square"/>
     </g>
     <g id="line2d_19">
      <g>
       <use xlink:href="#md3eb834c41" x="468.902705" y="462.878125" style="stroke: #000000; stroke-width: 0.8"/>
      </g>
     </g>
     <g id="text_9">
      <!-- 45 -->
      <g transform="translate(462.540205 477.476562) scale(0.1 -0.1)">
       <use xlink:href="#DejaVuSans-34"/>
       <use xlink:href="#DejaVuSans-35" x="63.623047"/>
      </g>
     </g>
    </g>
    <g id="xtick_10">
     <g id="line2d_20">
      <path d="M 518.335432 462.878125 
L 518.335432 22.318125 
" clip-path="url(#p2c0ae74e96)" style="fill: none; stroke: #b0b0b0; stroke-width: 0.8; stroke-linecap: square"/>
     </g>
     <g id="line2d_21">
      <g>
       <use xlink:href="#md3eb834c41" x="518.335432" y="462.878125" style="stroke: #000000; stroke-width: 0.8"/>
      </g>
     </g>
     <g id="text_10">
      <!-- 50 -->
      <g transform="translate(511.972932 477.476562) scale(0.1 -0.1)">
       <use xlink:href="#DejaVuSans-35"/>
       <use xlink:href="#DejaVuSans-30" x="63.623047"/>
      </g>
     </g>
    </g>
    <g id="xtick_11">
     <g id="line2d_22">
      <path d="M 567.768159 462.878125 
L 567.768159 22.318125 
" clip-path="url(#p2c0ae74e96)" style="fill: none; stroke: #b0b0b0; stroke-width: 0.8; stroke-linecap: square"/>
     </g>
     <g id="line2d_23">
      <g>
       <use xlink:href="#md3eb834c41" x="567.768159" y="462.878125" style="stroke: #000000; stroke-width: 0.8"/>
      </g>
     </g>
     <g id="text_11">
      <!-- 55 -->
      <g transform="translate(561.405659 477.476562) scale(0.1 -0.1)">
       <use xlink:href="#DejaVuSans-35"/>
       <use xlink:href="#DejaVuSans-35" x="63.623047"/>
      </g>
     </g>
    </g>
    <g id="text_12">
     <!-- Lap Number -->
     <g transform="translate(284.962031 491.154687) scale(0.1 -0.1)">
      <defs>
       <path id="DejaVuSans-4c" d="M 628 4666 
L 1259 4666 
L 1259 531 
L 3531 531 
L 3531 0 
L 628 0 
L 628 4666 
z
" transform="scale(0.015625)"/>
       <path id="DejaVuSans-61" d="M 2194 1759 
Q 1497 1759 1228 1600 
Q 959 1441 959 1056 
Q 959 750 1161 570 
Q 1363 391 1709 391 
Q 2188 391 2477 730 
Q 2766 1069 2766 1631 
L 2766 1759 
L 2194 1759 
z
M 3341 1997 
L 3341 0 
L 2766 0 
L 2766 531 
Q 2569 213 2275 61 
Q 1981 -91 1556 -91 
Q 1019 -91 701 211 
Q 384 513 384 1019 
Q 384 1609 779 1909 
Q 1175 2209 1959 2209 
L 2766 2209 
L 2766 2266 
Q 2766 2663 2505 2880 
Q 2244 3097 1772 3097 
Q 1472 3097 1187 3025 
Q 903 2953 641 2809 
L 641 3341 
Q 956 3463 1253 3523 
Q 1550 3584 1831 3584 
Q 2591 3584 2966 3190 
Q 3341 2797 3341 1997 
z
" transform="scale(0.015625)"/>
       <path id="DejaVuSans-70" d="M 1159 525 
L 1159 -1331 
L 581 -1331 
L 581 3500 
L 1159 3500 
L 1159 2969 
Q 1341 3281 1617 3432 
Q 1894 3584 2278 3584 
Q 2916 3584 3314 3078 
Q 3713 2572 3713 1747 
Q 3713 922 3314 415 
Q 2916 -91 2278 -91 
Q 1894 -91 1617 61 
Q 1341 213 1159 525 
z
M 3116 1747 
Q 3116 2381 2855 2742 
Q 2594 3103 2138 3103 
Q 1681 3103 1420 2742 
Q 1159 2381 1159 1747 
Q 1159 1113 1420 752 
Q 1681 391 2138 391 
Q 2594 391 2855 752 
Q 3116 1113 3116 1747 
z
" transform="scale(0.015625)"/>
       <path id="DejaVuSans-20" transform="scale(0.015625)"/>
       <path id="DejaVuSans-4e" d="M 628 4666 
L 1478 4666 
L 3547 763 
L 3547 4666 
L 4159 4666 
L 4159 0 
L 3309 0 
L 1241 3903 
L 1241 0 
L 628 0 
L 628 4666 
z
" transform="scale(0.015625)"/>
       <path id="DejaVuSans-75" d="M 544 1381 
L 544 3500 
L 1119 3500 
L 1119 1403 
Q 1119 906 1312 657 
Q 1506 409 1894 409 
Q 2359 409 2629 706 
Q 2900 1003 2900 1516 
L 2900 3500 
L 3475 3500 
L 3475 0 
L 2900 0 
L 2900 538 
Q 2691 219 2414 64 
Q 2138 -91 1772 -91 
Q 1169 -91 856 284 
Q 544 659 544 1381 
z
M 1991 3584 
L 1991 3584 
z
" transform="scale(0.015625)"/>
       <path id="DejaVuSans-6d" d="M 3328 2828 
Q 3544 3216 3844 3400 
Q 4144 3584 4550 3584 
Q 5097 3584 5394 3201 
Q 5691 2819 5691 2113 
L 5691 0 
L 5113 0 
L 5113 2094 
Q 5113 2597 4934 2840 
Q 4756 3084 4391 3084 
Q 3944 3084 3684 2787 
Q 3425 2491 3425 1978 
L 3425 0 
L 2847 0 
L 2847 2094 
Q 2847 2600 2669 2842 
Q 2491 3084 2119 3084 
Q 1678 3084 1418 2786 
Q 1159 2488 1159 1978 
L 1159 0 
L 581 0 
L 581 3500 
L 1159 3500 
L 1159 2956 
Q 1356 3278 1631 3431 
Q 1906 3584 2284 3584 
Q 2666 3584 2933 3390 
Q 3200 3197 3328 2828 
z
" transform="scale(0.015625)"/>
       <path id="DejaVuSans-62" d="M 3116 1747 
Q 3116 2381 2855 2742 
Q 2594 3103 2138 3103 
Q 1681 3103 1420 2742 
Q 1159 2381 1159 1747 
Q 1159 1113 1420 752 
Q 1681 391 2138 391 
Q 2594 391 2855 752 
Q 3116 1113 3116 1747 
z
M 1159 2969 
Q 1341 3281 1617 3432 
Q 1894 3584 2278 3584 
Q 2916 3584 3314 3078 
Q 3713 2572 3713 1747 
Q 3713 922 3314 415 
Q 2916 -91 2278 -91 
Q 1894 -91 1617 61 
Q 1341 213 1159 525 
L 1159 0 
L 581 0 
L 581 4863 
L 1159 4863 
L 1159 2969 
z
" transform="scale(0.015625)"/>
       <path id="DejaVuSans-65" d="M 3597 1894 
L 3597 1613 
L 953 1613 
Q 991 1019 1311 708 
Q 1631 397 2203 397 
Q 2534 397 2845 478 
Q 3156 559 3463 722 
L 3463 178 
Q 3153 47 2828 -22 
Q 2503 -91 2169 -91 
Q 1331 -91 842 396 
Q 353 884 353 1716 
Q 353 2575 817 3079 
Q 1281 3584 2069 3584 
Q 2775 3584 3186 3129 
Q 3597 2675 3597 1894 
z
M 3022 2063 
Q 3016 2534 2758 2815 
Q 2500 3097 2075 3097 
Q 1594 3097 1305 2825 
Q 1016 2553 972 2059 
L 3022 2063 
z
" transform="scale(0.015625)"/>
       <path id="DejaVuSans-72" d="M 2631 2963 
Q 2534 3019 2420 3045 
Q 2306 3072 2169 3072 
Q 1681 3072 1420 2755 
Q 1159 2438 1159 1844 
L 1159 0 
L 581 0 
L 581 3500 
L 1159 3500 
L 1159 2956 
Q 1341 3275 1631 3429 
Q 1922 3584 2338 3584 
Q 2397 3584 2469 3576 
Q 2541 3569 2628 3553 
L 2631 2963 
z
" transform="scale(0.015625)"/>
      </defs>
      <use xlink:href="#DejaVuSans-4c"/>
      <use xlink:href="#DejaVuSans-61" x="55.712891"/>
      <use xlink:href="#DejaVuSans-70" x="116.992188"/>
      <use xlink:href="#DejaVuSans-20" x="180.46875"/>
      <use xlink:href="#DejaVuSans-4e" x="212.255859"/>
      <use xlink:href="#DejaVuSans-75" x="287.060547"/>
      <use xlink:href="#DejaVuSans-6d" x="350.439453"/>
      <use xlink:href="#DejaVuSans-62" x="447.851562"/>
      <use xlink:href="#DejaVuSans-65" x="511.328125"/>
      <use xlink:href="#DejaVuSans-72" x="572.851562"/>
     </g>
    </g>
   </g>
   <g id="matplotlib.axis_2">
    <g id="ytick_1">
     <g id="line2d_24">
      <path d="M 43.78125 462.878125 
L 587.54125 462.878125 
" clip-path="url(#p2c0ae74e96)" style="fill: none; stroke: #b0b0b0; stroke-width: 0.8; stroke-linecap: square"/>
     </g>
     <g id="line2d_25">
      <defs>
       <path id="mbf0bf32f71" d="M 0 0 
L -3.5 0 
" style="stroke: #000000; stroke-width: 0.8"/>
      </defs>
      <g>
       <use xlink:href="#mbf0bf32f71" x="43.78125" y="462.878125" style="stroke: #000000; stroke-width: 0.8"/>
      </g>
     </g>
     <g id="text_13">
      <!-- 0.0 -->
      <g transform="translate(20.878125 466.677344) scale(0.1 -0.1)">
       <defs>
        <path id="DejaVuSans-2e" d="M 684 794 
L 1344 794 
L 1344 0 
L 684 0 
L 684 794 
z
" transform="scale(0.015625)"/>
       </defs>
       <use xlink:href="#DejaVuSans-30"/>
       <use xlink:href="#DejaVuSans-2e" x="63.623047"/>
       <use xlink:href="#DejaVuSans-30" x="95.410156"/>
      </g>
     </g>
    </g>
    <g id="ytick_2">
     <g id="line2d_26">
      <path d="M 43.78125 374.766125 
L 587.54125 374.766125 
" clip-path="url(#p2c0ae74e96)" style="fill: none; stroke: #b0b0b0; stroke-width: 0.8; stroke-linecap: square"/>
     </g>
     <g id="line2d_27">
      <g>
       <use xlink:href="#mbf0bf32f71" x="43.78125" y="374.766125" style="stroke: #000000; stroke-width: 0.8"/>
      </g>
     </g>
     <g id="text_14">
      <!-- 0.2 -->
      <g transform="translate(20.878125 378.565344) scale(0.1 -0.1)">
       <use xlink:href="#DejaVuSans-30"/>
       <use xlink:href="#DejaVuSans-2e" x="63.623047"/>
       <use xlink:href="#DejaVuSans-32" x="95.410156"/>
      </g>
     </g>
    </g>
    <g id="ytick_3">
     <g id="line2d_28">
      <path d="M 43.78125 286.654125 
L 587.54125 286.654125 
" clip-path="url(#p2c0ae74e96)" style="fill: none; stroke: #b0b0b0; stroke-width: 0.8; stroke-linecap: square"/>
     </g>
     <g id="line2d_29">
      <g>
       <use xlink:href="#mbf0bf32f71" x="43.78125" y="286.654125" style="stroke: #000000; stroke-width: 0.8"/>
      </g>
     </g>
     <g id="text_15">
      <!-- 0.4 -->
      <g transform="translate(20.878125 290.453344) scale(0.1 -0.1)">
       <use xlink:href="#DejaVuSans-30"/>
       <use xlink:href="#DejaVuSans-2e" x="63.623047"/>
       <use xlink:href="#DejaVuSans-34" x="95.410156"/>
      </g>
     </g>
    </g>
    <g id="ytick_4">
     <g id="line2d_30">
      <path d="M 43.78125 198.542125 
L 587.54125 198.542125 
" clip-path="url(#p2c0ae74e96)" style="fill: none; stroke: #b0b0b0; stroke-width: 0.8; stroke-linecap: square"/>
     </g>
     <g id="line2d_31">
      <g>
       <use xlink:href="#mbf0bf32f71" x="43.78125" y="198.542125" style="stroke: #000000; stroke-width: 0.8"/>
      </g>
     </g>
     <g id="text_16">
      <!-- 0.6 -->
      <g transform="translate(20.878125 202.341344) scale(0.1 -0.1)">
       <defs>
        <path id="DejaVuSans-36" d="M 2113 2584 
Q 1688 2584 1439 2293 
Q 1191 2003 1191 1497 
Q 1191 994 1439 701 
Q 1688 409 2113 409 
Q 2538 409 2786 701 
Q 3034 994 3034 1497 
Q 3034 2003 2786 2293 
Q 2538 2584 2113 2584 
z
M 3366 4563 
L 3366 3988 
Q 3128 4100 2886 4159 
Q 2644 4219 2406 4219 
Q 1781 4219 1451 3797 
Q 1122 3375 1075 2522 
Q 1259 2794 1537 2939 
Q 1816 3084 2150 3084 
Q 2853 3084 3261 2657 
Q 3669 2231 3669 1497 
Q 3669 778 3244 343 
Q 2819 -91 2113 -91 
Q 1303 -91 875 529 
Q 447 1150 447 2328 
Q 447 3434 972 4092 
Q 1497 4750 2381 4750 
Q 2619 4750 2861 4703 
Q 3103 4656 3366 4563 
z
" transform="scale(0.015625)"/>
       </defs>
       <use xlink:href="#DejaVuSans-30"/>
       <use xlink:href="#DejaVuSans-2e" x="63.623047"/>
       <use xlink:href="#DejaVuSans-36" x="95.410156"/>
      </g>
     </g>
    </g>
    <g id="ytick_5">
     <g id="line2d_32">
      <path d="M 43.78125 110.430125 
L 587.54125 110.430125 
" clip-path="url(#p2c0ae74e96)" style="fill: none; stroke: #b0b0b0; stroke-width: 0.8; stroke-linecap: square"/>
     </g>
     <g id="line2d_33">
      <g>
       <use xlink:href="#mbf0bf32f71" x="43.78125" y="110.430125" style="stroke: #000000; stroke-width: 0.8"/>
      </g>
     </g>
     <g id="text_17">
      <!-- 0.8 -->
      <g transform="translate(20.878125 114.229344) scale(0.1 -0.1)">
       <defs>
        <path id="DejaVuSans-38" d="M 2034 2216 
Q 1584 2216 1326 1975 
Q 1069 1734 1069 1313 
Q 1069 891 1326 650 
Q 1584 409 2034 409 
Q 2484 409 2743 651 
Q 3003 894 3003 1313 
Q 3003 1734 2745 1975 
Q 2488 2216 2034 2216 
z
M 1403 2484 
Q 997 2584 770 2862 
Q 544 3141 544 3541 
Q 544 4100 942 4425 
Q 1341 4750 2034 4750 
Q 2731 4750 3128 4425 
Q 3525 4100 3525 3541 
Q 3525 3141 3298 2862 
Q 3072 2584 2669 2484 
Q 3125 2378 3379 2068 
Q 3634 1759 3634 1313 
Q 3634 634 3220 271 
Q 2806 -91 2034 -91 
Q 1263 -91 848 271 
Q 434 634 434 1313 
Q 434 1759 690 2068 
Q 947 2378 1403 2484 
z
M 1172 3481 
Q 1172 3119 1398 2916 
Q 1625 2713 2034 2713 
Q 2441 2713 2670 2916 
Q 2900 3119 2900 3481 
Q 2900 3844 2670 4047 
Q 2441 4250 2034 4250 
Q 1625 4250 1398 4047 
Q 1172 3844 1172 3481 
z
" transform="scale(0.015625)"/>
       </defs>
       <use xlink:href="#DejaVuSans-30"/>
       <use xlink:href="#DejaVuSans-2e" x="63.623047"/>
       <use xlink:href="#DejaVuSans-38" x="95.410156"/>
      </g>
     </g>
    </g>
    <g id="ytick_6">
     <g id="line2d_34">
      <path d="M 43.78125 22.318125 
L 587.54125 22.318125 
" clip-path="url(#p2c0ae74e96)" style="fill: none; stroke: #b0b0b0; stroke-width: 0.8; stroke-linecap: square"/>
     </g>
     <g id="line2d_35">
      <g>
       <use xlink:href="#mbf0bf32f71" x="43.78125" y="22.318125" style="stroke: #000000; stroke-width: 0.8"/>
      </g>
     </g>
     <g id="text_18">
      <!-- 1.0 -->
      <g transform="translate(20.878125 26.117344) scale(0.1 -0.1)">
       <use xlink:href="#DejaVuSans-31"/>
       <use xlink:href="#DejaVuSans-2e" x="63.623047"/>
       <use xlink:href="#DejaVuSans-30" x="95.410156"/>
      </g>
     </g>
    </g>
    <g id="text_19">
     <!-- Probability of pitting -->
     <g transform="translate(14.798438 293.240312) rotate(-90) scale(0.1 -0.1)">
      <defs>
       <path id="DejaVuSans-50" d="M 1259 4147 
L 1259 2394 
L 2053 2394 
Q 2494 2394 2734 2622 
Q 2975 2850 2975 3272 
Q 2975 3691 2734 3919 
Q 2494 4147 2053 4147 
L 1259 4147 
z
M 628 4666 
L 2053 4666 
Q 2838 4666 3239 4311 
Q 3641 3956 3641 3272 
Q 3641 2581 3239 2228 
Q 2838 1875 2053 1875 
L 1259 1875 
L 1259 0 
L 628 0 
L 628 4666 
z
" transform="scale(0.015625)"/>
       <path id="DejaVuSans-6f" d="M 1959 3097 
Q 1497 3097 1228 2736 
Q 959 2375 959 1747 
Q 959 1119 1226 758 
Q 1494 397 1959 397 
Q 2419 397 2687 759 
Q 2956 1122 2956 1747 
Q 2956 2369 2687 2733 
Q 2419 3097 1959 3097 
z
M 1959 3584 
Q 2709 3584 3137 3096 
Q 3566 2609 3566 1747 
Q 3566 888 3137 398 
Q 2709 -91 1959 -91 
Q 1206 -91 779 398 
Q 353 888 353 1747 
Q 353 2609 779 3096 
Q 1206 3584 1959 3584 
z
" transform="scale(0.015625)"/>
       <path id="DejaVuSans-69" d="M 603 3500 
L 1178 3500 
L 1178 0 
L 603 0 
L 603 3500 
z
M 603 4863 
L 1178 4863 
L 1178 4134 
L 603 4134 
L 603 4863 
z
" transform="scale(0.015625)"/>
       <path id="DejaVuSans-6c" d="M 603 4863 
L 1178 4863 
L 1178 0 
L 603 0 
L 603 4863 
z
" transform="scale(0.015625)"/>
       <path id="DejaVuSans-74" d="M 1172 4494 
L 1172 3500 
L 2356 3500 
L 2356 3053 
L 1172 3053 
L 1172 1153 
Q 1172 725 1289 603 
Q 1406 481 1766 481 
L 2356 481 
L 2356 0 
L 1766 0 
Q 1100 0 847 248 
Q 594 497 594 1153 
L 594 3053 
L 172 3053 
L 172 3500 
L 594 3500 
L 594 4494 
L 1172 4494 
z
" transform="scale(0.015625)"/>
       <path id="DejaVuSans-79" d="M 2059 -325 
Q 1816 -950 1584 -1140 
Q 1353 -1331 966 -1331 
L 506 -1331 
L 506 -850 
L 844 -850 
Q 1081 -850 1212 -737 
Q 1344 -625 1503 -206 
L 1606 56 
L 191 3500 
L 800 3500 
L 1894 763 
L 2988 3500 
L 3597 3500 
L 2059 -325 
z
" transform="scale(0.015625)"/>
       <path id="DejaVuSans-66" d="M 2375 4863 
L 2375 4384 
L 1825 4384 
Q 1516 4384 1395 4259 
Q 1275 4134 1275 3809 
L 1275 3500 
L 2222 3500 
L 2222 3053 
L 1275 3053 
L 1275 0 
L 697 0 
L 697 3053 
L 147 3053 
L 147 3500 
L 697 3500 
L 697 3744 
Q 697 4328 969 4595 
Q 1241 4863 1831 4863 
L 2375 4863 
z
" transform="scale(0.015625)"/>
       <path id="DejaVuSans-6e" d="M 3513 2113 
L 3513 0 
L 2938 0 
L 2938 2094 
Q 2938 2591 2744 2837 
Q 2550 3084 2163 3084 
Q 1697 3084 1428 2787 
Q 1159 2491 1159 1978 
L 1159 0 
L 581 0 
L 581 3500 
L 1159 3500 
L 1159 2956 
Q 1366 3272 1645 3428 
Q 1925 3584 2291 3584 
Q 2894 3584 3203 3211 
Q 3513 2838 3513 2113 
z
" transform="scale(0.015625)"/>
       <path id="DejaVuSans-67" d="M 2906 1791 
Q 2906 2416 2648 2759 
Q 2391 3103 1925 3103 
Q 1463 3103 1205 2759 
Q 947 2416 947 1791 
Q 947 1169 1205 825 
Q 1463 481 1925 481 
Q 2391 481 2648 825 
Q 2906 1169 2906 1791 
z
M 3481 434 
Q 3481 -459 3084 -895 
Q 2688 -1331 1869 -1331 
Q 1566 -1331 1297 -1286 
Q 1028 -1241 775 -1147 
L 775 -588 
Q 1028 -725 1275 -790 
Q 1522 -856 1778 -856 
Q 2344 -856 2625 -561 
Q 2906 -266 2906 331 
L 2906 616 
Q 2728 306 2450 153 
Q 2172 0 1784 0 
Q 1141 0 747 490 
Q 353 981 353 1791 
Q 353 2603 747 3093 
Q 1141 3584 1784 3584 
Q 2172 3584 2450 3431 
Q 2728 3278 2906 2969 
L 2906 3500 
L 3481 3500 
L 3481 434 
z
" transform="scale(0.015625)"/>
      </defs>
      <use xlink:href="#DejaVuSans-50"/>
      <use xlink:href="#DejaVuSans-72" x="58.552734"/>
      <use xlink:href="#DejaVuSans-6f" x="97.416016"/>
      <use xlink:href="#DejaVuSans-62" x="158.597656"/>
      <use xlink:href="#DejaVuSans-61" x="222.074219"/>
      <use xlink:href="#DejaVuSans-62" x="283.353516"/>
      <use xlink:href="#DejaVuSans-69" x="346.830078"/>
      <use xlink:href="#DejaVuSans-6c" x="374.613281"/>
      <use xlink:href="#DejaVuSans-69" x="402.396484"/>
      <use xlink:href="#DejaVuSans-74" x="430.179688"/>
      <use xlink:href="#DejaVuSans-79" x="469.388672"/>
      <use xlink:href="#DejaVuSans-20" x="528.568359"/>
      <use xlink:href="#DejaVuSans-6f" x="560.355469"/>
      <use xlink:href="#DejaVuSans-66" x="621.537109"/>
      <use xlink:href="#DejaVuSans-20" x="656.742188"/>
      <use xlink:href="#DejaVuSans-70" x="688.529297"/>
      <use xlink:href="#DejaVuSans-69" x="752.005859"/>
      <use xlink:href="#DejaVuSans-74" x="779.789062"/>
      <use xlink:href="#DejaVuSans-74" x="818.998047"/>
      <use xlink:href="#DejaVuSans-69" x="858.207031"/>
      <use xlink:href="#DejaVuSans-6e" x="885.990234"/>
      <use xlink:href="#DejaVuSans-67" x="949.369141"/>
     </g>
    </g>
   </g>
   <g id="patch_59">
    <path d="M 43.78125 462.878125 
L 43.78125 22.318125 
" style="fill: none; stroke: #000000; stroke-width: 0.8; stroke-linejoin: miter; stroke-linecap: square"/>
   </g>
   <g id="patch_60">
    <path d="M 587.54125 462.878125 
L 587.54125 22.318125 
" style="fill: none; stroke: #000000; stroke-width: 0.8; stroke-linejoin: miter; stroke-linecap: square"/>
   </g>
   <g id="patch_61">
    <path d="M 43.78125 462.878125 
L 587.54125 462.878125 
" style="fill: none; stroke: #000000; stroke-width: 0.8; stroke-linejoin: miter; stroke-linecap: square"/>
   </g>
   <g id="patch_62">
    <path d="M 43.78125 22.318125 
L 587.54125 22.318125 
" style="fill: none; stroke: #000000; stroke-width: 0.8; stroke-linejoin: miter; stroke-linecap: square"/>
   </g>
   <g id="text_20">
    <!-- Miami - Driver 1 -->
    <g transform="translate(267.463437 16.318125) scale(0.12 -0.12)">
     <defs>
      <path id="DejaVuSans-4d" d="M 628 4666 
L 1569 4666 
L 2759 1491 
L 3956 4666 
L 4897 4666 
L 4897 0 
L 4281 0 
L 4281 4097 
L 3078 897 
L 2444 897 
L 1241 4097 
L 1241 0 
L 628 0 
L 628 4666 
z
" transform="scale(0.015625)"/>
      <path id="DejaVuSans-2d" d="M 313 2009 
L 1997 2009 
L 1997 1497 
L 313 1497 
L 313 2009 
z
" transform="scale(0.015625)"/>
      <path id="DejaVuSans-44" d="M 1259 4147 
L 1259 519 
L 2022 519 
Q 2988 519 3436 956 
Q 3884 1394 3884 2338 
Q 3884 3275 3436 3711 
Q 2988 4147 2022 4147 
L 1259 4147 
z
M 628 4666 
L 1925 4666 
Q 3281 4666 3915 4102 
Q 4550 3538 4550 2338 
Q 4550 1131 3912 565 
Q 3275 0 1925 0 
L 628 0 
L 628 4666 
z
" transform="scale(0.015625)"/>
      <path id="DejaVuSans-76" d="M 191 3500 
L 800 3500 
L 1894 563 
L 2988 3500 
L 3597 3500 
L 2284 0 
L 1503 0 
L 191 3500 
z
" transform="scale(0.015625)"/>
     </defs>
     <use xlink:href="#DejaVuSans-4d"/>
     <use xlink:href="#DejaVuSans-69" x="86.279297"/>
     <use xlink:href="#DejaVuSans-61" x="114.0625"/>
     <use xlink:href="#DejaVuSans-6d" x="175.341797"/>
     <use xlink:href="#DejaVuSans-69" x="272.753906"/>
     <use xlink:href="#DejaVuSans-20" x="300.537109"/>
     <use xlink:href="#DejaVuSans-2d" x="332.324219"/>
     <use xlink:href="#DejaVuSans-20" x="368.408203"/>
     <use xlink:href="#DejaVuSans-44" x="400.195312"/>
     <use xlink:href="#DejaVuSans-72" x="477.197266"/>
     <use xlink:href="#DejaVuSans-69" x="518.310547"/>
     <use xlink:href="#DejaVuSans-76" x="546.09375"/>
     <use xlink:href="#DejaVuSans-65" x="605.273438"/>
     <use xlink:href="#DejaVuSans-72" x="666.796875"/>
     <use xlink:href="#DejaVuSans-20" x="707.910156"/>
     <use xlink:href="#DejaVuSans-31" x="739.697266"/>
    </g>
   </g>
   <g id="legend_1">
    <g id="patch_63">
     <path d="M 594.97885 69.630625 
L 703.044475 69.630625 
Q 705.044475 69.630625 705.044475 67.630625 
L 705.044475 24.318125 
Q 705.044475 22.318125 703.044475 22.318125 
L 594.97885 22.318125 
Q 592.97885 22.318125 592.97885 24.318125 
L 592.97885 67.630625 
Q 592.97885 69.630625 594.97885 69.630625 
z
" style="fill: #ffffff; opacity: 0.8; stroke: #cccccc; stroke-linejoin: miter"/>
    </g>
    <g id="patch_64">
     <path d="M 596.97885 33.916562 
L 616.97885 33.916562 
L 616.97885 26.916562 
L 596.97885 26.916562 
z
" style="fill: #808080"/>
    </g>
    <g id="text_21">
     <!-- Hard -->
     <g transform="translate(624.97885 33.916562) scale(0.1 -0.1)">
      <defs>
       <path id="DejaVuSans-48" d="M 628 4666 
L 1259 4666 
L 1259 2753 
L 3553 2753 
L 3553 4666 
L 4184 4666 
L 4184 0 
L 3553 0 
L 3553 2222 
L 1259 2222 
L 1259 0 
L 628 0 
L 628 4666 
z
" transform="scale(0.015625)"/>
       <path id="DejaVuSans-64" d="M 2906 2969 
L 2906 4863 
L 3481 4863 
L 3481 0 
L 2906 0 
L 2906 525 
Q 2725 213 2448 61 
Q 2172 -91 1784 -91 
Q 1150 -91 751 415 
Q 353 922 353 1747 
Q 353 2572 751 3078 
Q 1150 3584 1784 3584 
Q 2172 3584 2448 3432 
Q 2725 3281 2906 2969 
z
M 947 1747 
Q 947 1113 1208 752 
Q 1469 391 1925 391 
Q 2381 391 2643 752 
Q 2906 1113 2906 1747 
Q 2906 2381 2643 2742 
Q 2381 3103 1925 3103 
Q 1469 3103 1208 2742 
Q 947 2381 947 1747 
z
" transform="scale(0.015625)"/>
      </defs>
      <use xlink:href="#DejaVuSans-48"/>
      <use xlink:href="#DejaVuSans-61" x="75.195312"/>
      <use xlink:href="#DejaVuSans-72" x="136.474609"/>
      <use xlink:href="#DejaVuSans-64" x="175.837891"/>
     </g>
    </g>
    <g id="patch_65">
     <path d="M 596.97885 48.594687 
L 616.97885 48.594687 
L 616.97885 41.594687 
L 596.97885 41.594687 
z
" style="fill: #ffff00"/>
    </g>
    <g id="text_22">
     <!-- Medium -->
     <g transform="translate(624.97885 48.594687) scale(0.1 -0.1)">
      <use xlink:href="#DejaVuSans-4d"/>
      <use xlink:href="#DejaVuSans-65" x="86.279297"/>
      <use xlink:href="#DejaVuSans-64" x="147.802734"/>
      <use xlink:href="#DejaVuSans-69" x="211.279297"/>
      <use xlink:href="#DejaVuSans-75" x="239.0625"/>
      <use xlink:href="#DejaVuSans-6d" x="302.441406"/>
     </g>
    </g>
    <g id="PathCollection_2">
     <g>
      <use xlink:href="#m6028b58f35" x="606.97885" y="60.647812" style="fill: #1f77b4; stroke: #ffffff; stroke-width: 0.565685"/>
     </g>
    </g>
    <g id="text_23">
     <!-- model f1_score -->
     <g transform="translate(624.97885 63.272812) scale(0.1 -0.1)">
      <defs>
       <path id="DejaVuSans-5f" d="M 3263 -1063 
L 3263 -1509 
L -63 -1509 
L -63 -1063 
L 3263 -1063 
z
" transform="scale(0.015625)"/>
       <path id="DejaVuSans-73" d="M 2834 3397 
L 2834 2853 
Q 2591 2978 2328 3040 
Q 2066 3103 1784 3103 
Q 1356 3103 1142 2972 
Q 928 2841 928 2578 
Q 928 2378 1081 2264 
Q 1234 2150 1697 2047 
L 1894 2003 
Q 2506 1872 2764 1633 
Q 3022 1394 3022 966 
Q 3022 478 2636 193 
Q 2250 -91 1575 -91 
Q 1294 -91 989 -36 
Q 684 19 347 128 
L 347 722 
Q 666 556 975 473 
Q 1284 391 1588 391 
Q 1994 391 2212 530 
Q 2431 669 2431 922 
Q 2431 1156 2273 1281 
Q 2116 1406 1581 1522 
L 1381 1569 
Q 847 1681 609 1914 
Q 372 2147 372 2553 
Q 372 3047 722 3315 
Q 1072 3584 1716 3584 
Q 2034 3584 2315 3537 
Q 2597 3491 2834 3397 
z
" transform="scale(0.015625)"/>
       <path id="DejaVuSans-63" d="M 3122 3366 
L 3122 2828 
Q 2878 2963 2633 3030 
Q 2388 3097 2138 3097 
Q 1578 3097 1268 2742 
Q 959 2388 959 1747 
Q 959 1106 1268 751 
Q 1578 397 2138 397 
Q 2388 397 2633 464 
Q 2878 531 3122 666 
L 3122 134 
Q 2881 22 2623 -34 
Q 2366 -91 2075 -91 
Q 1284 -91 818 406 
Q 353 903 353 1747 
Q 353 2603 823 3093 
Q 1294 3584 2113 3584 
Q 2378 3584 2631 3529 
Q 2884 3475 3122 3366 
z
" transform="scale(0.015625)"/>
      </defs>
      <use xlink:href="#DejaVuSans-6d"/>
      <use xlink:href="#DejaVuSans-6f" x="97.412109"/>
      <use xlink:href="#DejaVuSans-64" x="158.59375"/>
      <use xlink:href="#DejaVuSans-65" x="222.070312"/>
      <use xlink:href="#DejaVuSans-6c" x="283.59375"/>
      <use xlink:href="#DejaVuSans-20" x="311.376953"/>
      <use xlink:href="#DejaVuSans-66" x="343.164062"/>
      <use xlink:href="#DejaVuSans-31" x="378.369141"/>
      <use xlink:href="#DejaVuSans-5f" x="441.992188"/>
      <use xlink:href="#DejaVuSans-73" x="491.992188"/>
      <use xlink:href="#DejaVuSans-63" x="544.091797"/>
      <use xlink:href="#DejaVuSans-6f" x="599.072266"/>
      <use xlink:href="#DejaVuSans-72" x="660.253906"/>
      <use xlink:href="#DejaVuSans-65" x="699.117188"/>
     </g>
    </g>
   </g>
  </g>
  <g id="axes_2">
   <g id="patch_66">
    <path d="M 43.78125 961.478125 
L 587.54125 961.478125 
L 587.54125 520.918125 
L 43.78125 520.918125 
z
" style="fill: #ffffff"/>
   </g>
   <g id="patch_67">
    <path d="M 33.894705 525.323725 
L 33.894705 520.918125 
L 43.78125 520.918125 
L 43.78125 525.323725 
z
" clip-path="url(#p5a4882447a)" style="fill: #ffff00"/>
   </g>
   <g id="patch_68">
    <path d="M 43.78125 525.323725 
L 43.78125 520.918125 
L 53.667795 520.918125 
L 53.667795 525.323725 
z
" clip-path="url(#p5a4882447a)" style="fill: #ffff00"/>
   </g>
   <g id="patch_69">
    <path d="M 53.667795 525.323725 
L 53.667795 520.918125 
L 63.554341 520.918125 
L 63.554341 525.323725 
z
" clip-path="url(#p5a4882447a)" style="fill: #ffff00"/>
   </g>
   <g id="patch_70">
    <path d="M 63.554341 525.323725 
L 63.554341 520.918125 
L 73.440886 520.918125 
L 73.440886 525.323725 
z
" clip-path="url(#p5a4882447a)" style="fill: #ffff00"/>
   </g>
   <g id="patch_71">
    <path d="M 73.440886 525.323725 
L 73.440886 520.918125 
L 83.327432 520.918125 
L 83.327432 525.323725 
z
" clip-path="url(#p5a4882447a)" style="fill: #ffff00"/>
   </g>
   <g id="patch_72">
    <path d="M 83.327432 525.323725 
L 83.327432 520.918125 
L 93.213977 520.918125 
L 93.213977 525.323725 
z
" clip-path="url(#p5a4882447a)" style="fill: #ffff00"/>
   </g>
   <g id="patch_73">
    <path d="M 93.213977 525.323725 
L 93.213977 520.918125 
L 103.100523 520.918125 
L 103.100523 525.323725 
z
" clip-path="url(#p5a4882447a)" style="fill: #ffff00"/>
   </g>
   <g id="patch_74">
    <path d="M 103.100523 525.323725 
L 103.100523 520.918125 
L 112.987068 520.918125 
L 112.987068 525.323725 
z
" clip-path="url(#p5a4882447a)" style="fill: #ffff00"/>
   </g>
   <g id="patch_75">
    <path d="M 112.987068 525.323725 
L 112.987068 520.918125 
L 122.873614 520.918125 
L 122.873614 525.323725 
z
" clip-path="url(#p5a4882447a)" style="fill: #ffff00"/>
   </g>
   <g id="patch_76">
    <path d="M 122.873614 525.323725 
L 122.873614 520.918125 
L 132.760159 520.918125 
L 132.760159 525.323725 
z
" clip-path="url(#p5a4882447a)" style="fill: #ffff00"/>
   </g>
   <g id="patch_77">
    <path d="M 132.760159 525.323725 
L 132.760159 520.918125 
L 142.646705 520.918125 
L 142.646705 525.323725 
z
" clip-path="url(#p5a4882447a)" style="fill: #ffff00"/>
   </g>
   <g id="patch_78">
    <path d="M 142.646705 525.323725 
L 142.646705 520.918125 
L 152.53325 520.918125 
L 152.53325 525.323725 
z
" clip-path="url(#p5a4882447a)" style="fill: #ffff00"/>
   </g>
   <g id="patch_79">
    <path d="M 152.53325 525.323725 
L 152.53325 520.918125 
L 162.419795 520.918125 
L 162.419795 525.323725 
z
" clip-path="url(#p5a4882447a)" style="fill: #ffff00"/>
   </g>
   <g id="patch_80">
    <path d="M 162.419795 525.323725 
L 162.419795 520.918125 
L 172.306341 520.918125 
L 172.306341 525.323725 
z
" clip-path="url(#p5a4882447a)" style="fill: #ffff00"/>
   </g>
   <g id="patch_81">
    <path d="M 172.306341 525.323725 
L 172.306341 520.918125 
L 182.192886 520.918125 
L 182.192886 525.323725 
z
" clip-path="url(#p5a4882447a)" style="fill: #ffff00"/>
   </g>
   <g id="patch_82">
    <path d="M 182.192886 525.323725 
L 182.192886 520.918125 
L 192.079432 520.918125 
L 192.079432 525.323725 
z
" clip-path="url(#p5a4882447a)" style="fill: #ffff00"/>
   </g>
   <g id="patch_83">
    <path d="M 192.079432 525.323725 
L 192.079432 520.918125 
L 201.965977 520.918125 
L 201.965977 525.323725 
z
" clip-path="url(#p5a4882447a)" style="fill: #808080"/>
   </g>
   <g id="patch_84">
    <path d="M 201.965977 525.323725 
L 201.965977 520.918125 
L 211.852523 520.918125 
L 211.852523 525.323725 
z
" clip-path="url(#p5a4882447a)" style="fill: #808080"/>
   </g>
   <g id="patch_85">
    <path d="M 211.852523 525.323725 
L 211.852523 520.918125 
L 221.739068 520.918125 
L 221.739068 525.323725 
z
" clip-path="url(#p5a4882447a)" style="fill: #808080"/>
   </g>
   <g id="patch_86">
    <path d="M 221.739068 525.323725 
L 221.739068 520.918125 
L 231.625614 520.918125 
L 231.625614 525.323725 
z
" clip-path="url(#p5a4882447a)" style="fill: #808080"/>
   </g>
   <g id="patch_87">
    <path d="M 231.625614 525.323725 
L 231.625614 520.918125 
L 241.512159 520.918125 
L 241.512159 525.323725 
z
" clip-path="url(#p5a4882447a)" style="fill: #808080"/>
   </g>
   <g id="patch_88">
    <path d="M 241.512159 525.323725 
L 241.512159 520.918125 
L 251.398705 520.918125 
L 251.398705 525.323725 
z
" clip-path="url(#p5a4882447a)" style="fill: #808080"/>
   </g>
   <g id="patch_89">
    <path d="M 251.398705 525.323725 
L 251.398705 520.918125 
L 261.28525 520.918125 
L 261.28525 525.323725 
z
" clip-path="url(#p5a4882447a)" style="fill: #808080"/>
   </g>
   <g id="patch_90">
    <path d="M 261.28525 525.323725 
L 261.28525 520.918125 
L 271.171795 520.918125 
L 271.171795 525.323725 
z
" clip-path="url(#p5a4882447a)" style="fill: #808080"/>
   </g>
   <g id="patch_91">
    <path d="M 271.171795 525.323725 
L 271.171795 520.918125 
L 281.058341 520.918125 
L 281.058341 525.323725 
z
" clip-path="url(#p5a4882447a)" style="fill: #808080"/>
   </g>
   <g id="patch_92">
    <path d="M 281.058341 525.323725 
L 281.058341 520.918125 
L 290.944886 520.918125 
L 290.944886 525.323725 
z
" clip-path="url(#p5a4882447a)" style="fill: #808080"/>
   </g>
   <g id="patch_93">
    <path d="M 290.944886 525.323725 
L 290.944886 520.918125 
L 300.831432 520.918125 
L 300.831432 525.323725 
z
" clip-path="url(#p5a4882447a)" style="fill: #808080"/>
   </g>
   <g id="patch_94">
    <path d="M 300.831432 525.323725 
L 300.831432 520.918125 
L 310.717977 520.918125 
L 310.717977 525.323725 
z
" clip-path="url(#p5a4882447a)" style="fill: #808080"/>
   </g>
   <g id="patch_95">
    <path d="M 310.717977 525.323725 
L 310.717977 520.918125 
L 320.604523 520.918125 
L 320.604523 525.323725 
z
" clip-path="url(#p5a4882447a)" style="fill: #808080"/>
   </g>
   <g id="patch_96">
    <path d="M 320.604523 525.323725 
L 320.604523 520.918125 
L 330.491068 520.918125 
L 330.491068 525.323725 
z
" clip-path="url(#p5a4882447a)" style="fill: #808080"/>
   </g>
   <g id="patch_97">
    <path d="M 330.491068 525.323725 
L 330.491068 520.918125 
L 340.377614 520.918125 
L 340.377614 525.323725 
z
" clip-path="url(#p5a4882447a)" style="fill: #808080"/>
   </g>
   <g id="patch_98">
    <path d="M 340.377614 525.323725 
L 340.377614 520.918125 
L 350.264159 520.918125 
L 350.264159 525.323725 
z
" clip-path="url(#p5a4882447a)" style="fill: #808080"/>
   </g>
   <g id="patch_99">
    <path d="M 350.264159 525.323725 
L 350.264159 520.918125 
L 360.150705 520.918125 
L 360.150705 525.323725 
z
" clip-path="url(#p5a4882447a)" style="fill: #808080"/>
   </g>
   <g id="patch_100">
    <path d="M 360.150705 525.323725 
L 360.150705 520.918125 
L 370.03725 520.918125 
L 370.03725 525.323725 
z
" clip-path="url(#p5a4882447a)" style="fill: #808080"/>
   </g>
   <g id="patch_101">
    <path d="M 370.03725 525.323725 
L 370.03725 520.918125 
L 379.923795 520.918125 
L 379.923795 525.323725 
z
" clip-path="url(#p5a4882447a)" style="fill: #808080"/>
   </g>
   <g id="patch_102">
    <path d="M 379.923795 525.323725 
L 379.923795 520.918125 
L 389.810341 520.918125 
L 389.810341 525.323725 
z
" clip-path="url(#p5a4882447a)" style="fill: #808080"/>
   </g>
   <g id="patch_103">
    <path d="M 389.810341 525.323725 
L 389.810341 520.918125 
L 399.696886 520.918125 
L 399.696886 525.323725 
z
" clip-path="url(#p5a4882447a)" style="fill: #808080"/>
   </g>
   <g id="patch_104">
    <path d="M 399.696886 525.323725 
L 399.696886 520.918125 
L 409.583432 520.918125 
L 409.583432 525.323725 
z
" clip-path="url(#p5a4882447a)" style="fill: #808080"/>
   </g>
   <g id="patch_105">
    <path d="M 409.583432 525.323725 
L 409.583432 520.918125 
L 419.469977 520.918125 
L 419.469977 525.323725 
z
" clip-path="url(#p5a4882447a)" style="fill: #808080"/>
   </g>
   <g id="patch_106">
    <path d="M 419.469977 525.323725 
L 419.469977 520.918125 
L 429.356523 520.918125 
L 429.356523 525.323725 
z
" clip-path="url(#p5a4882447a)" style="fill: #808080"/>
   </g>
   <g id="patch_107">
    <path d="M 429.356523 525.323725 
L 429.356523 520.918125 
L 439.243068 520.918125 
L 439.243068 525.323725 
z
" clip-path="url(#p5a4882447a)" style="fill: #808080"/>
   </g>
   <g id="patch_108">
    <path d="M 439.243068 525.323725 
L 439.243068 520.918125 
L 449.129614 520.918125 
L 449.129614 525.323725 
z
" clip-path="url(#p5a4882447a)" style="fill: #808080"/>
   </g>
   <g id="patch_109">
    <path d="M 449.129614 525.323725 
L 449.129614 520.918125 
L 459.016159 520.918125 
L 459.016159 525.323725 
z
" clip-path="url(#p5a4882447a)" style="fill: #808080"/>
   </g>
   <g id="patch_110">
    <path d="M 459.016159 525.323725 
L 459.016159 520.918125 
L 468.902705 520.918125 
L 468.902705 525.323725 
z
" clip-path="url(#p5a4882447a)" style="fill: #808080"/>
   </g>
   <g id="patch_111">
    <path d="M 468.902705 525.323725 
L 468.902705 520.918125 
L 478.78925 520.918125 
L 478.78925 525.323725 
z
" clip-path="url(#p5a4882447a)" style="fill: #808080"/>
   </g>
   <g id="patch_112">
    <path d="M 478.78925 525.323725 
L 478.78925 520.918125 
L 488.675795 520.918125 
L 488.675795 525.323725 
z
" clip-path="url(#p5a4882447a)" style="fill: #808080"/>
   </g>
   <g id="patch_113">
    <path d="M 488.675795 525.323725 
L 488.675795 520.918125 
L 498.562341 520.918125 
L 498.562341 525.323725 
z
" clip-path="url(#p5a4882447a)" style="fill: #808080"/>
   </g>
   <g id="patch_114">
    <path d="M 498.562341 525.323725 
L 498.562341 520.918125 
L 508.448886 520.918125 
L 508.448886 525.323725 
z
" clip-path="url(#p5a4882447a)" style="fill: #808080"/>
   </g>
   <g id="patch_115">
    <path d="M 508.448886 525.323725 
L 508.448886 520.918125 
L 518.335432 520.918125 
L 518.335432 525.323725 
z
" clip-path="url(#p5a4882447a)" style="fill: #808080"/>
   </g>
   <g id="patch_116">
    <path d="M 518.335432 525.323725 
L 518.335432 520.918125 
L 528.221977 520.918125 
L 528.221977 525.323725 
z
" clip-path="url(#p5a4882447a)" style="fill: #808080"/>
   </g>
   <g id="patch_117">
    <path d="M 528.221977 525.323725 
L 528.221977 520.918125 
L 538.108523 520.918125 
L 538.108523 525.323725 
z
" clip-path="url(#p5a4882447a)" style="fill: #808080"/>
   </g>
   <g id="patch_118">
    <path d="M 538.108523 525.323725 
L 538.108523 520.918125 
L 547.995068 520.918125 
L 547.995068 525.323725 
z
" clip-path="url(#p5a4882447a)" style="fill: #808080"/>
   </g>
   <g id="patch_119">
    <path d="M 547.995068 525.323725 
L 547.995068 520.918125 
L 557.881614 520.918125 
L 557.881614 525.323725 
z
" clip-path="url(#p5a4882447a)" style="fill: #808080"/>
   </g>
   <g id="patch_120">
    <path d="M 557.881614 525.323725 
L 557.881614 520.918125 
L 567.768159 520.918125 
L 567.768159 525.323725 
z
" clip-path="url(#p5a4882447a)" style="fill: #808080"/>
   </g>
   <g id="patch_121">
    <path d="M 567.768159 525.323725 
L 567.768159 520.918125 
L 577.654705 520.918125 
L 577.654705 525.323725 
z
" clip-path="url(#p5a4882447a)" style="fill: #808080"/>
   </g>
   <g id="patch_122">
    <path d="M 577.654705 525.323725 
L 577.654705 520.918125 
L 587.54125 520.918125 
L 587.54125 525.323725 
z
" clip-path="url(#p5a4882447a)" style="fill: #808080"/>
   </g>
   <g id="LineCollection_3">
    <path d="M 43.78125 741.198125 
L 587.54125 741.198125 
" clip-path="url(#p5a4882447a)" style="fill: none; stroke-dasharray: 1,1.65; stroke-dashoffset: 0; stroke: #000000"/>
   </g>
   <g id="LineCollection_4">
    <path d="M 192.079432 961.478125 
L 192.079432 520.918125 
" clip-path="url(#p5a4882447a)" style="fill: none; stroke-dasharray: 3.7,1.6; stroke-dashoffset: 0; stroke: #ff0000"/>
   </g>
   <g id="line2d_36">
    <path d="M 43.78125 832.223454 
L 53.667795 828.234126 
L 63.554341 828.154164 
L 73.440886 820.771089 
L 83.327432 788.363191 
L 93.213977 789.73427 
L 103.100523 777.057417 
L 112.987068 774.294491 
L 122.873614 773.3092 
L 132.760159 748.538626 
L 142.646705 722.06677 
L 152.53325 701.210406 
L 162.419795 698.086527 
L 172.306341 696.021743 
L 182.192886 697.413205 
L 192.079432 687.088898 
L 201.965977 828.920219 
L 211.852523 837.011706 
L 221.739068 832.091463 
L 231.625614 832.979296 
L 241.512159 830.911501 
L 251.398705 828.983578 
L 261.28525 826.257963 
L 271.171795 824.758983 
L 281.058341 824.58128 
L 290.944886 824.135212 
L 300.831432 793.943128 
L 310.717977 775.837768 
L 320.604523 762.693222 
L 330.491068 760.006389 
L 340.377614 752.569719 
L 350.264159 752.51255 
L 360.150705 751.495661 
L 370.03725 750.344803 
L 379.923795 749.89024 
L 389.810341 733.657197 
L 399.696886 733.915585 
L 409.583432 733.657935 
L 419.469977 734.147011 
L 429.356523 733.843156 
L 439.243068 734.47544 
L 449.129614 734.537657 
L 459.016159 734.389294 
L 468.902705 734.23323 
L 478.78925 735.121277 
L 488.675795 744.036817 
L 498.562341 747.57678 
L 508.448886 749.208728 
L 518.335432 749.454084 
L 528.221977 752.332398 
L 538.108523 752.215544 
L 547.995068 756.123296 
L 557.881614 769.333058 
L 567.768159 772.012741 
L 577.654705 776.453904 
L 587.54125 781.688632 
" clip-path="url(#p5a4882447a)" style="fill: none; stroke-dasharray: 3.7,1.6; stroke-dashoffset: 0; stroke: #1f77b4"/>
   </g>
   <g id="PathCollection_3">
    <g clip-path="url(#p5a4882447a)">
     <use xlink:href="#m6028b58f35" x="43.78125" y="832.223454" style="fill: #1f77b4; stroke: #ffffff; stroke-width: 0.565685"/>
     <use xlink:href="#m6028b58f35" x="53.667795" y="828.234126" style="fill: #1f77b4; stroke: #ffffff; stroke-width: 0.565685"/>
     <use xlink:href="#m6028b58f35" x="63.554341" y="828.154164" style="fill: #1f77b4; stroke: #ffffff; stroke-width: 0.565685"/>
     <use xlink:href="#m6028b58f35" x="73.440886" y="820.771089" style="fill: #1f77b4; stroke: #ffffff; stroke-width: 0.565685"/>
     <use xlink:href="#m6028b58f35" x="83.327432" y="788.363191" style="fill: #1f77b4; stroke: #ffffff; stroke-width: 0.565685"/>
     <use xlink:href="#m6028b58f35" x="93.213977" y="789.73427" style="fill: #1f77b4; stroke: #ffffff; stroke-width: 0.565685"/>
     <use xlink:href="#m6028b58f35" x="103.100523" y="777.057417" style="fill: #1f77b4; stroke: #ffffff; stroke-width: 0.565685"/>
     <use xlink:href="#m6028b58f35" x="112.987068" y="774.294491" style="fill: #1f77b4; stroke: #ffffff; stroke-width: 0.565685"/>
     <use xlink:href="#m6028b58f35" x="122.873614" y="773.3092" style="fill: #1f77b4; stroke: #ffffff; stroke-width: 0.565685"/>
     <use xlink:href="#m6028b58f35" x="132.760159" y="748.538626" style="fill: #1f77b4; stroke: #ffffff; stroke-width: 0.565685"/>
     <use xlink:href="#m6028b58f35" x="142.646705" y="722.06677" style="fill: #1f77b4; stroke: #ffffff; stroke-width: 0.565685"/>
     <use xlink:href="#m6028b58f35" x="152.53325" y="701.210406" style="fill: #1f77b4; stroke: #ffffff; stroke-width: 0.565685"/>
     <use xlink:href="#m6028b58f35" x="162.419795" y="698.086527" style="fill: #1f77b4; stroke: #ffffff; stroke-width: 0.565685"/>
     <use xlink:href="#m6028b58f35" x="172.306341" y="696.021743" style="fill: #1f77b4; stroke: #ffffff; stroke-width: 0.565685"/>
     <use xlink:href="#m6028b58f35" x="182.192886" y="697.413205" style="fill: #1f77b4; stroke: #ffffff; stroke-width: 0.565685"/>
     <use xlink:href="#m6028b58f35" x="192.079432" y="687.088898" style="fill: #1f77b4; stroke: #ffffff; stroke-width: 0.565685"/>
     <use xlink:href="#m6028b58f35" x="201.965977" y="828.920219" style="fill: #1f77b4; stroke: #ffffff; stroke-width: 0.565685"/>
     <use xlink:href="#m6028b58f35" x="211.852523" y="837.011706" style="fill: #1f77b4; stroke: #ffffff; stroke-width: 0.565685"/>
     <use xlink:href="#m6028b58f35" x="221.739068" y="832.091463" style="fill: #1f77b4; stroke: #ffffff; stroke-width: 0.565685"/>
     <use xlink:href="#m6028b58f35" x="231.625614" y="832.979296" style="fill: #1f77b4; stroke: #ffffff; stroke-width: 0.565685"/>
     <use xlink:href="#m6028b58f35" x="241.512159" y="830.911501" style="fill: #1f77b4; stroke: #ffffff; stroke-width: 0.565685"/>
     <use xlink:href="#m6028b58f35" x="251.398705" y="828.983578" style="fill: #1f77b4; stroke: #ffffff; stroke-width: 0.565685"/>
     <use xlink:href="#m6028b58f35" x="261.28525" y="826.257963" style="fill: #1f77b4; stroke: #ffffff; stroke-width: 0.565685"/>
     <use xlink:href="#m6028b58f35" x="271.171795" y="824.758983" style="fill: #1f77b4; stroke: #ffffff; stroke-width: 0.565685"/>
     <use xlink:href="#m6028b58f35" x="281.058341" y="824.58128" style="fill: #1f77b4; stroke: #ffffff; stroke-width: 0.565685"/>
     <use xlink:href="#m6028b58f35" x="290.944886" y="824.135212" style="fill: #1f77b4; stroke: #ffffff; stroke-width: 0.565685"/>
     <use xlink:href="#m6028b58f35" x="300.831432" y="793.943128" style="fill: #1f77b4; stroke: #ffffff; stroke-width: 0.565685"/>
     <use xlink:href="#m6028b58f35" x="310.717977" y="775.837768" style="fill: #1f77b4; stroke: #ffffff; stroke-width: 0.565685"/>
     <use xlink:href="#m6028b58f35" x="320.604523" y="762.693222" style="fill: #1f77b4; stroke: #ffffff; stroke-width: 0.565685"/>
     <use xlink:href="#m6028b58f35" x="330.491068" y="760.006389" style="fill: #1f77b4; stroke: #ffffff; stroke-width: 0.565685"/>
     <use xlink:href="#m6028b58f35" x="340.377614" y="752.569719" style="fill: #1f77b4; stroke: #ffffff; stroke-width: 0.565685"/>
     <use xlink:href="#m6028b58f35" x="350.264159" y="752.51255" style="fill: #1f77b4; stroke: #ffffff; stroke-width: 0.565685"/>
     <use xlink:href="#m6028b58f35" x="360.150705" y="751.495661" style="fill: #1f77b4; stroke: #ffffff; stroke-width: 0.565685"/>
     <use xlink:href="#m6028b58f35" x="370.03725" y="750.344803" style="fill: #1f77b4; stroke: #ffffff; stroke-width: 0.565685"/>
     <use xlink:href="#m6028b58f35" x="379.923795" y="749.89024" style="fill: #1f77b4; stroke: #ffffff; stroke-width: 0.565685"/>
     <use xlink:href="#m6028b58f35" x="389.810341" y="733.657197" style="fill: #1f77b4; stroke: #ffffff; stroke-width: 0.565685"/>
     <use xlink:href="#m6028b58f35" x="399.696886" y="733.915585" style="fill: #1f77b4; stroke: #ffffff; stroke-width: 0.565685"/>
     <use xlink:href="#m6028b58f35" x="409.583432" y="733.657935" style="fill: #1f77b4; stroke: #ffffff; stroke-width: 0.565685"/>
     <use xlink:href="#m6028b58f35" x="419.469977" y="734.147011" style="fill: #1f77b4; stroke: #ffffff; stroke-width: 0.565685"/>
     <use xlink:href="#m6028b58f35" x="429.356523" y="733.843156" style="fill: #1f77b4; stroke: #ffffff; stroke-width: 0.565685"/>
     <use xlink:href="#m6028b58f35" x="439.243068" y="734.47544" style="fill: #1f77b4; stroke: #ffffff; stroke-width: 0.565685"/>
     <use xlink:href="#m6028b58f35" x="449.129614" y="734.537657" style="fill: #1f77b4; stroke: #ffffff; stroke-width: 0.565685"/>
     <use xlink:href="#m6028b58f35" x="459.016159" y="734.389294" style="fill: #1f77b4; stroke: #ffffff; stroke-width: 0.565685"/>
     <use xlink:href="#m6028b58f35" x="468.902705" y="734.23323" style="fill: #1f77b4; stroke: #ffffff; stroke-width: 0.565685"/>
     <use xlink:href="#m6028b58f35" x="478.78925" y="735.121277" style="fill: #1f77b4; stroke: #ffffff; stroke-width: 0.565685"/>
     <use xlink:href="#m6028b58f35" x="488.675795" y="744.036817" style="fill: #1f77b4; stroke: #ffffff; stroke-width: 0.565685"/>
     <use xlink:href="#m6028b58f35" x="498.562341" y="747.57678" style="fill: #1f77b4; stroke: #ffffff; stroke-width: 0.565685"/>
     <use xlink:href="#m6028b58f35" x="508.448886" y="749.208728" style="fill: #1f77b4; stroke: #ffffff; stroke-width: 0.565685"/>
     <use xlink:href="#m6028b58f35" x="518.335432" y="749.454084" style="fill: #1f77b4; stroke: #ffffff; stroke-width: 0.565685"/>
     <use xlink:href="#m6028b58f35" x="528.221977" y="752.332398" style="fill: #1f77b4; stroke: #ffffff; stroke-width: 0.565685"/>
     <use xlink:href="#m6028b58f35" x="538.108523" y="752.215544" style="fill: #1f77b4; stroke: #ffffff; stroke-width: 0.565685"/>
     <use xlink:href="#m6028b58f35" x="547.995068" y="756.123296" style="fill: #1f77b4; stroke: #ffffff; stroke-width: 0.565685"/>
     <use xlink:href="#m6028b58f35" x="557.881614" y="769.333058" style="fill: #1f77b4; stroke: #ffffff; stroke-width: 0.565685"/>
     <use xlink:href="#m6028b58f35" x="567.768159" y="772.012741" style="fill: #1f77b4; stroke: #ffffff; stroke-width: 0.565685"/>
     <use xlink:href="#m6028b58f35" x="577.654705" y="776.453904" style="fill: #1f77b4; stroke: #ffffff; stroke-width: 0.565685"/>
     <use xlink:href="#m6028b58f35" x="587.54125" y="781.688632" style="fill: #1f77b4; stroke: #ffffff; stroke-width: 0.565685"/>
    </g>
   </g>
   <g id="PolyCollection_2"/>
   <g id="matplotlib.axis_3">
    <g id="xtick_12">
     <g id="line2d_37">
      <path d="M 73.440886 961.478125 
L 73.440886 520.918125 
" clip-path="url(#p5a4882447a)" style="fill: none; stroke: #b0b0b0; stroke-width: 0.8; stroke-linecap: square"/>
     </g>
     <g id="line2d_38">
      <g>
       <use xlink:href="#md3eb834c41" x="73.440886" y="961.478125" style="stroke: #000000; stroke-width: 0.8"/>
      </g>
     </g>
     <g id="text_24">
      <!-- 5 -->
      <g transform="translate(70.259636 976.076562) scale(0.1 -0.1)">
       <use xlink:href="#DejaVuSans-35"/>
      </g>
     </g>
    </g>
    <g id="xtick_13">
     <g id="line2d_39">
      <path d="M 122.873614 961.478125 
L 122.873614 520.918125 
" clip-path="url(#p5a4882447a)" style="fill: none; stroke: #b0b0b0; stroke-width: 0.8; stroke-linecap: square"/>
     </g>
     <g id="line2d_40">
      <g>
       <use xlink:href="#md3eb834c41" x="122.873614" y="961.478125" style="stroke: #000000; stroke-width: 0.8"/>
      </g>
     </g>
     <g id="text_25">
      <!-- 10 -->
      <g transform="translate(116.511114 976.076562) scale(0.1 -0.1)">
       <use xlink:href="#DejaVuSans-31"/>
       <use xlink:href="#DejaVuSans-30" x="63.623047"/>
      </g>
     </g>
    </g>
    <g id="xtick_14">
     <g id="line2d_41">
      <path d="M 172.306341 961.478125 
L 172.306341 520.918125 
" clip-path="url(#p5a4882447a)" style="fill: none; stroke: #b0b0b0; stroke-width: 0.8; stroke-linecap: square"/>
     </g>
     <g id="line2d_42">
      <g>
       <use xlink:href="#md3eb834c41" x="172.306341" y="961.478125" style="stroke: #000000; stroke-width: 0.8"/>
      </g>
     </g>
     <g id="text_26">
      <!-- 15 -->
      <g transform="translate(165.943841 976.076562) scale(0.1 -0.1)">
       <use xlink:href="#DejaVuSans-31"/>
       <use xlink:href="#DejaVuSans-35" x="63.623047"/>
      </g>
     </g>
    </g>
    <g id="xtick_15">
     <g id="line2d_43">
      <path d="M 221.739068 961.478125 
L 221.739068 520.918125 
" clip-path="url(#p5a4882447a)" style="fill: none; stroke: #b0b0b0; stroke-width: 0.8; stroke-linecap: square"/>
     </g>
     <g id="line2d_44">
      <g>
       <use xlink:href="#md3eb834c41" x="221.739068" y="961.478125" style="stroke: #000000; stroke-width: 0.8"/>
      </g>
     </g>
     <g id="text_27">
      <!-- 20 -->
      <g transform="translate(215.376568 976.076562) scale(0.1 -0.1)">
       <use xlink:href="#DejaVuSans-32"/>
       <use xlink:href="#DejaVuSans-30" x="63.623047"/>
      </g>
     </g>
    </g>
    <g id="xtick_16">
     <g id="line2d_45">
      <path d="M 271.171795 961.478125 
L 271.171795 520.918125 
" clip-path="url(#p5a4882447a)" style="fill: none; stroke: #b0b0b0; stroke-width: 0.8; stroke-linecap: square"/>
     </g>
     <g id="line2d_46">
      <g>
       <use xlink:href="#md3eb834c41" x="271.171795" y="961.478125" style="stroke: #000000; stroke-width: 0.8"/>
      </g>
     </g>
     <g id="text_28">
      <!-- 25 -->
      <g transform="translate(264.809295 976.076562) scale(0.1 -0.1)">
       <use xlink:href="#DejaVuSans-32"/>
       <use xlink:href="#DejaVuSans-35" x="63.623047"/>
      </g>
     </g>
    </g>
    <g id="xtick_17">
     <g id="line2d_47">
      <path d="M 320.604523 961.478125 
L 320.604523 520.918125 
" clip-path="url(#p5a4882447a)" style="fill: none; stroke: #b0b0b0; stroke-width: 0.8; stroke-linecap: square"/>
     </g>
     <g id="line2d_48">
      <g>
       <use xlink:href="#md3eb834c41" x="320.604523" y="961.478125" style="stroke: #000000; stroke-width: 0.8"/>
      </g>
     </g>
     <g id="text_29">
      <!-- 30 -->
      <g transform="translate(314.242023 976.076562) scale(0.1 -0.1)">
       <use xlink:href="#DejaVuSans-33"/>
       <use xlink:href="#DejaVuSans-30" x="63.623047"/>
      </g>
     </g>
    </g>
    <g id="xtick_18">
     <g id="line2d_49">
      <path d="M 370.03725 961.478125 
L 370.03725 520.918125 
" clip-path="url(#p5a4882447a)" style="fill: none; stroke: #b0b0b0; stroke-width: 0.8; stroke-linecap: square"/>
     </g>
     <g id="line2d_50">
      <g>
       <use xlink:href="#md3eb834c41" x="370.03725" y="961.478125" style="stroke: #000000; stroke-width: 0.8"/>
      </g>
     </g>
     <g id="text_30">
      <!-- 35 -->
      <g transform="translate(363.67475 976.076562) scale(0.1 -0.1)">
       <use xlink:href="#DejaVuSans-33"/>
       <use xlink:href="#DejaVuSans-35" x="63.623047"/>
      </g>
     </g>
    </g>
    <g id="xtick_19">
     <g id="line2d_51">
      <path d="M 419.469977 961.478125 
L 419.469977 520.918125 
" clip-path="url(#p5a4882447a)" style="fill: none; stroke: #b0b0b0; stroke-width: 0.8; stroke-linecap: square"/>
     </g>
     <g id="line2d_52">
      <g>
       <use xlink:href="#md3eb834c41" x="419.469977" y="961.478125" style="stroke: #000000; stroke-width: 0.8"/>
      </g>
     </g>
     <g id="text_31">
      <!-- 40 -->
      <g transform="translate(413.107477 976.076562) scale(0.1 -0.1)">
       <use xlink:href="#DejaVuSans-34"/>
       <use xlink:href="#DejaVuSans-30" x="63.623047"/>
      </g>
     </g>
    </g>
    <g id="xtick_20">
     <g id="line2d_53">
      <path d="M 468.902705 961.478125 
L 468.902705 520.918125 
" clip-path="url(#p5a4882447a)" style="fill: none; stroke: #b0b0b0; stroke-width: 0.8; stroke-linecap: square"/>
     </g>
     <g id="line2d_54">
      <g>
       <use xlink:href="#md3eb834c41" x="468.902705" y="961.478125" style="stroke: #000000; stroke-width: 0.8"/>
      </g>
     </g>
     <g id="text_32">
      <!-- 45 -->
      <g transform="translate(462.540205 976.076562) scale(0.1 -0.1)">
       <use xlink:href="#DejaVuSans-34"/>
       <use xlink:href="#DejaVuSans-35" x="63.623047"/>
      </g>
     </g>
    </g>
    <g id="xtick_21">
     <g id="line2d_55">
      <path d="M 518.335432 961.478125 
L 518.335432 520.918125 
" clip-path="url(#p5a4882447a)" style="fill: none; stroke: #b0b0b0; stroke-width: 0.8; stroke-linecap: square"/>
     </g>
     <g id="line2d_56">
      <g>
       <use xlink:href="#md3eb834c41" x="518.335432" y="961.478125" style="stroke: #000000; stroke-width: 0.8"/>
      </g>
     </g>
     <g id="text_33">
      <!-- 50 -->
      <g transform="translate(511.972932 976.076562) scale(0.1 -0.1)">
       <use xlink:href="#DejaVuSans-35"/>
       <use xlink:href="#DejaVuSans-30" x="63.623047"/>
      </g>
     </g>
    </g>
    <g id="xtick_22">
     <g id="line2d_57">
      <path d="M 567.768159 961.478125 
L 567.768159 520.918125 
" clip-path="url(#p5a4882447a)" style="fill: none; stroke: #b0b0b0; stroke-width: 0.8; stroke-linecap: square"/>
     </g>
     <g id="line2d_58">
      <g>
       <use xlink:href="#md3eb834c41" x="567.768159" y="961.478125" style="stroke: #000000; stroke-width: 0.8"/>
      </g>
     </g>
     <g id="text_34">
      <!-- 55 -->
      <g transform="translate(561.405659 976.076562) scale(0.1 -0.1)">
       <use xlink:href="#DejaVuSans-35"/>
       <use xlink:href="#DejaVuSans-35" x="63.623047"/>
      </g>
     </g>
    </g>
    <g id="text_35">
     <!-- Lap Number -->
     <g transform="translate(284.962031 989.754687) scale(0.1 -0.1)">
      <use xlink:href="#DejaVuSans-4c"/>
      <use xlink:href="#DejaVuSans-61" x="55.712891"/>
      <use xlink:href="#DejaVuSans-70" x="116.992188"/>
      <use xlink:href="#DejaVuSans-20" x="180.46875"/>
      <use xlink:href="#DejaVuSans-4e" x="212.255859"/>
      <use xlink:href="#DejaVuSans-75" x="287.060547"/>
      <use xlink:href="#DejaVuSans-6d" x="350.439453"/>
      <use xlink:href="#DejaVuSans-62" x="447.851562"/>
      <use xlink:href="#DejaVuSans-65" x="511.328125"/>
      <use xlink:href="#DejaVuSans-72" x="572.851562"/>
     </g>
    </g>
   </g>
   <g id="matplotlib.axis_4">
    <g id="ytick_7">
     <g id="line2d_59">
      <path d="M 43.78125 961.478125 
L 587.54125 961.478125 
" clip-path="url(#p5a4882447a)" style="fill: none; stroke: #b0b0b0; stroke-width: 0.8; stroke-linecap: square"/>
     </g>
     <g id="line2d_60">
      <g>
       <use xlink:href="#mbf0bf32f71" x="43.78125" y="961.478125" style="stroke: #000000; stroke-width: 0.8"/>
      </g>
     </g>
     <g id="text_36">
      <!-- 0.0 -->
      <g transform="translate(20.878125 965.277344) scale(0.1 -0.1)">
       <use xlink:href="#DejaVuSans-30"/>
       <use xlink:href="#DejaVuSans-2e" x="63.623047"/>
       <use xlink:href="#DejaVuSans-30" x="95.410156"/>
      </g>
     </g>
    </g>
    <g id="ytick_8">
     <g id="line2d_61">
      <path d="M 43.78125 873.366125 
L 587.54125 873.366125 
" clip-path="url(#p5a4882447a)" style="fill: none; stroke: #b0b0b0; stroke-width: 0.8; stroke-linecap: square"/>
     </g>
     <g id="line2d_62">
      <g>
       <use xlink:href="#mbf0bf32f71" x="43.78125" y="873.366125" style="stroke: #000000; stroke-width: 0.8"/>
      </g>
     </g>
     <g id="text_37">
      <!-- 0.2 -->
      <g transform="translate(20.878125 877.165344) scale(0.1 -0.1)">
       <use xlink:href="#DejaVuSans-30"/>
       <use xlink:href="#DejaVuSans-2e" x="63.623047"/>
       <use xlink:href="#DejaVuSans-32" x="95.410156"/>
      </g>
     </g>
    </g>
    <g id="ytick_9">
     <g id="line2d_63">
      <path d="M 43.78125 785.254125 
L 587.54125 785.254125 
" clip-path="url(#p5a4882447a)" style="fill: none; stroke: #b0b0b0; stroke-width: 0.8; stroke-linecap: square"/>
     </g>
     <g id="line2d_64">
      <g>
       <use xlink:href="#mbf0bf32f71" x="43.78125" y="785.254125" style="stroke: #000000; stroke-width: 0.8"/>
      </g>
     </g>
     <g id="text_38">
      <!-- 0.4 -->
      <g transform="translate(20.878125 789.053344) scale(0.1 -0.1)">
       <use xlink:href="#DejaVuSans-30"/>
       <use xlink:href="#DejaVuSans-2e" x="63.623047"/>
       <use xlink:href="#DejaVuSans-34" x="95.410156"/>
      </g>
     </g>
    </g>
    <g id="ytick_10">
     <g id="line2d_65">
      <path d="M 43.78125 697.142125 
L 587.54125 697.142125 
" clip-path="url(#p5a4882447a)" style="fill: none; stroke: #b0b0b0; stroke-width: 0.8; stroke-linecap: square"/>
     </g>
     <g id="line2d_66">
      <g>
       <use xlink:href="#mbf0bf32f71" x="43.78125" y="697.142125" style="stroke: #000000; stroke-width: 0.8"/>
      </g>
     </g>
     <g id="text_39">
      <!-- 0.6 -->
      <g transform="translate(20.878125 700.941344) scale(0.1 -0.1)">
       <use xlink:href="#DejaVuSans-30"/>
       <use xlink:href="#DejaVuSans-2e" x="63.623047"/>
       <use xlink:href="#DejaVuSans-36" x="95.410156"/>
      </g>
     </g>
    </g>
    <g id="ytick_11">
     <g id="line2d_67">
      <path d="M 43.78125 609.030125 
L 587.54125 609.030125 
" clip-path="url(#p5a4882447a)" style="fill: none; stroke: #b0b0b0; stroke-width: 0.8; stroke-linecap: square"/>
     </g>
     <g id="line2d_68">
      <g>
       <use xlink:href="#mbf0bf32f71" x="43.78125" y="609.030125" style="stroke: #000000; stroke-width: 0.8"/>
      </g>
     </g>
     <g id="text_40">
      <!-- 0.8 -->
      <g transform="translate(20.878125 612.829344) scale(0.1 -0.1)">
       <use xlink:href="#DejaVuSans-30"/>
       <use xlink:href="#DejaVuSans-2e" x="63.623047"/>
       <use xlink:href="#DejaVuSans-38" x="95.410156"/>
      </g>
     </g>
    </g>
    <g id="ytick_12">
     <g id="line2d_69">
      <path d="M 43.78125 520.918125 
L 587.54125 520.918125 
" clip-path="url(#p5a4882447a)" style="fill: none; stroke: #b0b0b0; stroke-width: 0.8; stroke-linecap: square"/>
     </g>
     <g id="line2d_70">
      <g>
       <use xlink:href="#mbf0bf32f71" x="43.78125" y="520.918125" style="stroke: #000000; stroke-width: 0.8"/>
      </g>
     </g>
     <g id="text_41">
      <!-- 1.0 -->
      <g transform="translate(20.878125 524.717344) scale(0.1 -0.1)">
       <use xlink:href="#DejaVuSans-31"/>
       <use xlink:href="#DejaVuSans-2e" x="63.623047"/>
       <use xlink:href="#DejaVuSans-30" x="95.410156"/>
      </g>
     </g>
    </g>
    <g id="text_42">
     <!-- Probability of pitting -->
     <g transform="translate(14.798438 791.840312) rotate(-90) scale(0.1 -0.1)">
      <use xlink:href="#DejaVuSans-50"/>
      <use xlink:href="#DejaVuSans-72" x="58.552734"/>
      <use xlink:href="#DejaVuSans-6f" x="97.416016"/>
      <use xlink:href="#DejaVuSans-62" x="158.597656"/>
      <use xlink:href="#DejaVuSans-61" x="222.074219"/>
      <use xlink:href="#DejaVuSans-62" x="283.353516"/>
      <use xlink:href="#DejaVuSans-69" x="346.830078"/>
      <use xlink:href="#DejaVuSans-6c" x="374.613281"/>
      <use xlink:href="#DejaVuSans-69" x="402.396484"/>
      <use xlink:href="#DejaVuSans-74" x="430.179688"/>
      <use xlink:href="#DejaVuSans-79" x="469.388672"/>
      <use xlink:href="#DejaVuSans-20" x="528.568359"/>
      <use xlink:href="#DejaVuSans-6f" x="560.355469"/>
      <use xlink:href="#DejaVuSans-66" x="621.537109"/>
      <use xlink:href="#DejaVuSans-20" x="656.742188"/>
      <use xlink:href="#DejaVuSans-70" x="688.529297"/>
      <use xlink:href="#DejaVuSans-69" x="752.005859"/>
      <use xlink:href="#DejaVuSans-74" x="779.789062"/>
      <use xlink:href="#DejaVuSans-74" x="818.998047"/>
      <use xlink:href="#DejaVuSans-69" x="858.207031"/>
      <use xlink:href="#DejaVuSans-6e" x="885.990234"/>
      <use xlink:href="#DejaVuSans-67" x="949.369141"/>
     </g>
    </g>
   </g>
   <g id="patch_123">
    <path d="M 43.78125 961.478125 
L 43.78125 520.918125 
" style="fill: none; stroke: #000000; stroke-width: 0.8; stroke-linejoin: miter; stroke-linecap: square"/>
   </g>
   <g id="patch_124">
    <path d="M 587.54125 961.478125 
L 587.54125 520.918125 
" style="fill: none; stroke: #000000; stroke-width: 0.8; stroke-linejoin: miter; stroke-linecap: square"/>
   </g>
   <g id="patch_125">
    <path d="M 43.78125 961.478125 
L 587.54125 961.478125 
" style="fill: none; stroke: #000000; stroke-width: 0.8; stroke-linejoin: miter; stroke-linecap: square"/>
   </g>
   <g id="patch_126">
    <path d="M 43.78125 520.918125 
L 587.54125 520.918125 
" style="fill: none; stroke: #000000; stroke-width: 0.8; stroke-linejoin: miter; stroke-linecap: square"/>
   </g>
   <g id="text_43">
    <!-- Miami - Driver 63 -->
    <g transform="translate(263.645937 514.918125) scale(0.12 -0.12)">
     <use xlink:href="#DejaVuSans-4d"/>
     <use xlink:href="#DejaVuSans-69" x="86.279297"/>
     <use xlink:href="#DejaVuSans-61" x="114.0625"/>
     <use xlink:href="#DejaVuSans-6d" x="175.341797"/>
     <use xlink:href="#DejaVuSans-69" x="272.753906"/>
     <use xlink:href="#DejaVuSans-20" x="300.537109"/>
     <use xlink:href="#DejaVuSans-2d" x="332.324219"/>
     <use xlink:href="#DejaVuSans-20" x="368.408203"/>
     <use xlink:href="#DejaVuSans-44" x="400.195312"/>
     <use xlink:href="#DejaVuSans-72" x="477.197266"/>
     <use xlink:href="#DejaVuSans-69" x="518.310547"/>
     <use xlink:href="#DejaVuSans-76" x="546.09375"/>
     <use xlink:href="#DejaVuSans-65" x="605.273438"/>
     <use xlink:href="#DejaVuSans-72" x="666.796875"/>
     <use xlink:href="#DejaVuSans-20" x="707.910156"/>
     <use xlink:href="#DejaVuSans-36" x="739.697266"/>
     <use xlink:href="#DejaVuSans-33" x="803.320312"/>
    </g>
   </g>
   <g id="legend_2">
    <g id="patch_127">
     <path d="M 594.97885 568.230625 
L 703.044475 568.230625 
Q 705.044475 568.230625 705.044475 566.230625 
L 705.044475 522.918125 
Q 705.044475 520.918125 703.044475 520.918125 
L 594.97885 520.918125 
Q 592.97885 520.918125 592.97885 522.918125 
L 592.97885 566.230625 
Q 592.97885 568.230625 594.97885 568.230625 
z
" style="fill: #ffffff; opacity: 0.8; stroke: #cccccc; stroke-linejoin: miter"/>
    </g>
    <g id="patch_128">
     <path d="M 596.97885 532.516562 
L 616.97885 532.516562 
L 616.97885 525.516562 
L 596.97885 525.516562 
z
" style="fill: #ffff00"/>
    </g>
    <g id="text_44">
     <!-- Medium -->
     <g transform="translate(624.97885 532.516562) scale(0.1 -0.1)">
      <use xlink:href="#DejaVuSans-4d"/>
      <use xlink:href="#DejaVuSans-65" x="86.279297"/>
      <use xlink:href="#DejaVuSans-64" x="147.802734"/>
      <use xlink:href="#DejaVuSans-69" x="211.279297"/>
      <use xlink:href="#DejaVuSans-75" x="239.0625"/>
      <use xlink:href="#DejaVuSans-6d" x="302.441406"/>
     </g>
    </g>
    <g id="patch_129">
     <path d="M 596.97885 547.194687 
L 616.97885 547.194687 
L 616.97885 540.194687 
L 596.97885 540.194687 
z
" style="fill: #808080"/>
    </g>
    <g id="text_45">
     <!-- Hard -->
     <g transform="translate(624.97885 547.194687) scale(0.1 -0.1)">
      <use xlink:href="#DejaVuSans-48"/>
      <use xlink:href="#DejaVuSans-61" x="75.195312"/>
      <use xlink:href="#DejaVuSans-72" x="136.474609"/>
      <use xlink:href="#DejaVuSans-64" x="175.837891"/>
     </g>
    </g>
    <g id="PathCollection_4">
     <g>
      <use xlink:href="#m6028b58f35" x="606.97885" y="559.247812" style="fill: #1f77b4; stroke: #ffffff; stroke-width: 0.565685"/>
     </g>
    </g>
    <g id="text_46">
     <!-- model f1_score -->
     <g transform="translate(624.97885 561.872812) scale(0.1 -0.1)">
      <use xlink:href="#DejaVuSans-6d"/>
      <use xlink:href="#DejaVuSans-6f" x="97.412109"/>
      <use xlink:href="#DejaVuSans-64" x="158.59375"/>
      <use xlink:href="#DejaVuSans-65" x="222.070312"/>
      <use xlink:href="#DejaVuSans-6c" x="283.59375"/>
      <use xlink:href="#DejaVuSans-20" x="311.376953"/>
      <use xlink:href="#DejaVuSans-66" x="343.164062"/>
      <use xlink:href="#DejaVuSans-31" x="378.369141"/>
      <use xlink:href="#DejaVuSans-5f" x="441.992188"/>
      <use xlink:href="#DejaVuSans-73" x="491.992188"/>
      <use xlink:href="#DejaVuSans-63" x="544.091797"/>
      <use xlink:href="#DejaVuSans-6f" x="599.072266"/>
      <use xlink:href="#DejaVuSans-72" x="660.253906"/>
      <use xlink:href="#DejaVuSans-65" x="699.117188"/>
     </g>
    </g>
   </g>
  </g>
 </g>
 <defs>
  <clipPath id="p2c0ae74e96">
   <rect x="43.78125" y="22.318125" width="543.76" height="440.56"/>
  </clipPath>
  <clipPath id="p5a4882447a">
   <rect x="43.78125" y="520.918125" width="543.76" height="440.56"/>
  </clipPath>
 </defs>
</svg>
