<?xml version="1.0" encoding="utf-8" standalone="no"?>
<!DOCTYPE svg PUBLIC "-//W3C//DTD SVG 1.1//EN"
  "http://www.w3.org/Graphics/SVG/1.1/DTD/svg11.dtd">
<svg xmlns:xlink="http://www.w3.org/1999/xlink" width="720pt" height="720pt" viewBox="0 0 720 720" xmlns="http://www.w3.org/2000/svg" version="1.1">
 <metadata>
  <rdf:RDF xmlns:dc="http://purl.org/dc/elements/1.1/" xmlns:cc="http://creativecommons.org/ns#" xmlns:rdf="http://www.w3.org/1999/02/22-rdf-syntax-ns#">
   <cc:Work>
    <dc:type rdf:resource="http://purl.org/dc/dcmitype/StillImage"/>
    <dc:date>2023-05-19T16:12:42.815684</dc:date>
    <dc:format>image/svg+xml</dc:format>
    <dc:creator>
     <cc:Agent>
      <dc:title>Matplotlib v3.5.1, https://matplotlib.org/</dc:title>
     </cc:Agent>
    </dc:creator>
   </cc:Work>
  </rdf:RDF>
 </metadata>
 <defs>
  <style type="text/css">*{stroke-linejoin: round; stroke-linecap: butt}</style>
 </defs>
 <g id="figure_1">
  <g id="patch_1">
   <path d="M 0 720 
L 720 720 
L 720 0 
L 0 0 
L 0 720 
z
" style="fill: none"/>
  </g>
  <g id="axes_1">
   <g id="patch_2">
    <path d="M 54.175 223.733333 
L 350.0375 223.733333 
L 350.0375 26.8 
L 54.175 26.8 
z
" style="fill: #ffffff"/>
   </g>
   <g id="matplotlib.axis_1">
    <g id="xtick_1">
     <g id="line2d_1">
      <defs>
       <path id="m2eb35a546d" d="M 0 0 
L 0 3.5 
" style="stroke: #000000; stroke-width: 0.8"/>
      </defs>
      <g>
       <use xlink:href="#m2eb35a546d" x="66.947502" y="223.733333" style="stroke: #000000; stroke-width: 0.8"/>
      </g>
     </g>
    </g>
    <g id="xtick_2">
     <g id="line2d_2">
      <g>
       <use xlink:href="#m2eb35a546d" x="100.737189" y="223.733333" style="stroke: #000000; stroke-width: 0.8"/>
      </g>
     </g>
    </g>
    <g id="xtick_3">
     <g id="line2d_3">
      <g>
       <use xlink:href="#m2eb35a546d" x="134.526876" y="223.733333" style="stroke: #000000; stroke-width: 0.8"/>
      </g>
     </g>
    </g>
    <g id="xtick_4">
     <g id="line2d_4">
      <g>
       <use xlink:href="#m2eb35a546d" x="168.316563" y="223.733333" style="stroke: #000000; stroke-width: 0.8"/>
      </g>
     </g>
    </g>
    <g id="xtick_5">
     <g id="line2d_5">
      <g>
       <use xlink:href="#m2eb35a546d" x="202.10625" y="223.733333" style="stroke: #000000; stroke-width: 0.8"/>
      </g>
     </g>
    </g>
    <g id="xtick_6">
     <g id="line2d_6">
      <g>
       <use xlink:href="#m2eb35a546d" x="235.895937" y="223.733333" style="stroke: #000000; stroke-width: 0.8"/>
      </g>
     </g>
    </g>
    <g id="xtick_7">
     <g id="line2d_7">
      <g>
       <use xlink:href="#m2eb35a546d" x="269.685624" y="223.733333" style="stroke: #000000; stroke-width: 0.8"/>
      </g>
     </g>
    </g>
    <g id="xtick_8">
     <g id="line2d_8">
      <g>
       <use xlink:href="#m2eb35a546d" x="303.475311" y="223.733333" style="stroke: #000000; stroke-width: 0.8"/>
      </g>
     </g>
    </g>
    <g id="xtick_9">
     <g id="line2d_9">
      <g>
       <use xlink:href="#m2eb35a546d" x="337.264998" y="223.733333" style="stroke: #000000; stroke-width: 0.8"/>
      </g>
     </g>
    </g>
   </g>
   <g id="matplotlib.axis_2">
    <g id="ytick_1">
     <g id="line2d_10">
      <defs>
       <path id="m7883fbfbb0" d="M 0 0 
L -3.5 0 
" style="stroke: #000000; stroke-width: 0.8"/>
      </defs>
      <g>
       <use xlink:href="#m7883fbfbb0" x="54.175" y="200.307028" style="stroke: #000000; stroke-width: 0.8"/>
      </g>
     </g>
     <g id="text_1">
      <!-- 100 -->
      <g transform="translate(28.0875 204.106246)scale(0.1 -0.1)">
       <defs>
        <path id="DejaVuSans-31" d="M 794 531 
L 1825 531 
L 1825 4091 
L 703 3866 
L 703 4441 
L 1819 4666 
L 2450 4666 
L 2450 531 
L 3481 531 
L 3481 0 
L 794 0 
L 794 531 
z
" transform="scale(0.015625)"/>
        <path id="DejaVuSans-30" d="M 2034 4250 
Q 1547 4250 1301 3770 
Q 1056 3291 1056 2328 
Q 1056 1369 1301 889 
Q 1547 409 2034 409 
Q 2525 409 2770 889 
Q 3016 1369 3016 2328 
Q 3016 3291 2770 3770 
Q 2525 4250 2034 4250 
z
M 2034 4750 
Q 2819 4750 3233 4129 
Q 3647 3509 3647 2328 
Q 3647 1150 3233 529 
Q 2819 -91 2034 -91 
Q 1250 -91 836 529 
Q 422 1150 422 2328 
Q 422 3509 836 4129 
Q 1250 4750 2034 4750 
z
" transform="scale(0.015625)"/>
       </defs>
       <use xlink:href="#DejaVuSans-31"/>
       <use xlink:href="#DejaVuSans-30" x="63.623047"/>
       <use xlink:href="#DejaVuSans-30" x="127.246094"/>
      </g>
     </g>
    </g>
    <g id="ytick_2">
     <g id="line2d_11">
      <g>
       <use xlink:href="#m7883fbfbb0" x="54.175" y="162.215474" style="stroke: #000000; stroke-width: 0.8"/>
      </g>
     </g>
     <g id="text_2">
      <!-- 150 -->
      <g transform="translate(28.0875 166.014693)scale(0.1 -0.1)">
       <defs>
        <path id="DejaVuSans-35" d="M 691 4666 
L 3169 4666 
L 3169 4134 
L 1269 4134 
L 1269 2991 
Q 1406 3038 1543 3061 
Q 1681 3084 1819 3084 
Q 2600 3084 3056 2656 
Q 3513 2228 3513 1497 
Q 3513 744 3044 326 
Q 2575 -91 1722 -91 
Q 1428 -91 1123 -41 
Q 819 9 494 109 
L 494 744 
Q 775 591 1075 516 
Q 1375 441 1709 441 
Q 2250 441 2565 725 
Q 2881 1009 2881 1497 
Q 2881 1984 2565 2268 
Q 2250 2553 1709 2553 
Q 1456 2553 1204 2497 
Q 953 2441 691 2322 
L 691 4666 
z
" transform="scale(0.015625)"/>
       </defs>
       <use xlink:href="#DejaVuSans-31"/>
       <use xlink:href="#DejaVuSans-35" x="63.623047"/>
       <use xlink:href="#DejaVuSans-30" x="127.246094"/>
      </g>
     </g>
    </g>
    <g id="ytick_3">
     <g id="line2d_12">
      <g>
       <use xlink:href="#m7883fbfbb0" x="54.175" y="124.12392" style="stroke: #000000; stroke-width: 0.8"/>
      </g>
     </g>
     <g id="text_3">
      <!-- 200 -->
      <g transform="translate(28.0875 127.923139)scale(0.1 -0.1)">
       <defs>
        <path id="DejaVuSans-32" d="M 1228 531 
L 3431 531 
L 3431 0 
L 469 0 
L 469 531 
Q 828 903 1448 1529 
Q 2069 2156 2228 2338 
Q 2531 2678 2651 2914 
Q 2772 3150 2772 3378 
Q 2772 3750 2511 3984 
Q 2250 4219 1831 4219 
Q 1534 4219 1204 4116 
Q 875 4013 500 3803 
L 500 4441 
Q 881 4594 1212 4672 
Q 1544 4750 1819 4750 
Q 2544 4750 2975 4387 
Q 3406 4025 3406 3419 
Q 3406 3131 3298 2873 
Q 3191 2616 2906 2266 
Q 2828 2175 2409 1742 
Q 1991 1309 1228 531 
z
" transform="scale(0.015625)"/>
       </defs>
       <use xlink:href="#DejaVuSans-32"/>
       <use xlink:href="#DejaVuSans-30" x="63.623047"/>
       <use xlink:href="#DejaVuSans-30" x="127.246094"/>
      </g>
     </g>
    </g>
    <g id="ytick_4">
     <g id="line2d_13">
      <g>
       <use xlink:href="#m7883fbfbb0" x="54.175" y="86.032366" style="stroke: #000000; stroke-width: 0.8"/>
      </g>
     </g>
     <g id="text_4">
      <!-- 250 -->
      <g transform="translate(28.0875 89.831585)scale(0.1 -0.1)">
       <use xlink:href="#DejaVuSans-32"/>
       <use xlink:href="#DejaVuSans-35" x="63.623047"/>
       <use xlink:href="#DejaVuSans-30" x="127.246094"/>
      </g>
     </g>
    </g>
    <g id="ytick_5">
     <g id="line2d_14">
      <g>
       <use xlink:href="#m7883fbfbb0" x="54.175" y="47.940812" style="stroke: #000000; stroke-width: 0.8"/>
      </g>
     </g>
     <g id="text_5">
      <!-- 300 -->
      <g transform="translate(28.0875 51.740031)scale(0.1 -0.1)">
       <defs>
        <path id="DejaVuSans-33" d="M 2597 2516 
Q 3050 2419 3304 2112 
Q 3559 1806 3559 1356 
Q 3559 666 3084 287 
Q 2609 -91 1734 -91 
Q 1441 -91 1130 -33 
Q 819 25 488 141 
L 488 750 
Q 750 597 1062 519 
Q 1375 441 1716 441 
Q 2309 441 2620 675 
Q 2931 909 2931 1356 
Q 2931 1769 2642 2001 
Q 2353 2234 1838 2234 
L 1294 2234 
L 1294 2753 
L 1863 2753 
Q 2328 2753 2575 2939 
Q 2822 3125 2822 3475 
Q 2822 3834 2567 4026 
Q 2313 4219 1838 4219 
Q 1578 4219 1281 4162 
Q 984 4106 628 3988 
L 628 4550 
Q 988 4650 1302 4700 
Q 1616 4750 1894 4750 
Q 2613 4750 3031 4423 
Q 3450 4097 3450 3541 
Q 3450 3153 3228 2886 
Q 3006 2619 2597 2516 
z
" transform="scale(0.015625)"/>
       </defs>
       <use xlink:href="#DejaVuSans-33"/>
       <use xlink:href="#DejaVuSans-30" x="63.623047"/>
       <use xlink:href="#DejaVuSans-30" x="127.246094"/>
      </g>
     </g>
    </g>
    <g id="text_6">
     <!-- km/h -->
     <g transform="translate(22.007812 137.885417)rotate(-90)scale(0.1 -0.1)">
      <defs>
       <path id="DejaVuSans-6b" d="M 581 4863 
L 1159 4863 
L 1159 1991 
L 2875 3500 
L 3609 3500 
L 1753 1863 
L 3688 0 
L 2938 0 
L 1159 1709 
L 1159 0 
L 581 0 
L 581 4863 
z
" transform="scale(0.015625)"/>
       <path id="DejaVuSans-6d" d="M 3328 2828 
Q 3544 3216 3844 3400 
Q 4144 3584 4550 3584 
Q 5097 3584 5394 3201 
Q 5691 2819 5691 2113 
L 5691 0 
L 5113 0 
L 5113 2094 
Q 5113 2597 4934 2840 
Q 4756 3084 4391 3084 
Q 3944 3084 3684 2787 
Q 3425 2491 3425 1978 
L 3425 0 
L 2847 0 
L 2847 2094 
Q 2847 2600 2669 2842 
Q 2491 3084 2119 3084 
Q 1678 3084 1418 2786 
Q 1159 2488 1159 1978 
L 1159 0 
L 581 0 
L 581 3500 
L 1159 3500 
L 1159 2956 
Q 1356 3278 1631 3431 
Q 1906 3584 2284 3584 
Q 2666 3584 2933 3390 
Q 3200 3197 3328 2828 
z
" transform="scale(0.015625)"/>
       <path id="DejaVuSans-2f" d="M 1625 4666 
L 2156 4666 
L 531 -594 
L 0 -594 
L 1625 4666 
z
" transform="scale(0.015625)"/>
       <path id="DejaVuSans-68" d="M 3513 2113 
L 3513 0 
L 2938 0 
L 2938 2094 
Q 2938 2591 2744 2837 
Q 2550 3084 2163 3084 
Q 1697 3084 1428 2787 
Q 1159 2491 1159 1978 
L 1159 0 
L 581 0 
L 581 4863 
L 1159 4863 
L 1159 2956 
Q 1366 3272 1645 3428 
Q 1925 3584 2291 3584 
Q 2894 3584 3203 3211 
Q 3513 2838 3513 2113 
z
" transform="scale(0.015625)"/>
      </defs>
      <use xlink:href="#DejaVuSans-6b"/>
      <use xlink:href="#DejaVuSans-6d" x="57.910156"/>
      <use xlink:href="#DejaVuSans-2f" x="155.322266"/>
      <use xlink:href="#DejaVuSans-68" x="189.013672"/>
     </g>
    </g>
   </g>
   <g id="line2d_15">
    <path d="M 67.623295 81.46138 
L 67.961192 79.937718 
L 68.974883 77.652224 
L 71.678058 65.462927 
L 72.015955 64.701096 
L 72.353852 63.177434 
L 72.691749 63.177434 
L 73.029645 62.415603 
L 73.705439 59.368279 
L 74.043336 59.368279 
L 74.381233 58.606447 
L 75.057027 55.559123 
L 75.73282 55.559123 
L 76.070717 54.797292 
L 76.746511 51.749968 
L 77.084408 51.749968 
L 78.773892 47.940812 
L 79.111789 47.940812 
L 80.12548 45.655319 
L 80.463377 45.655319 
L 80.801273 44.893488 
L 81.13917 45.655319 
L 81.477067 45.655319 
L 81.814964 46.41715 
L 82.490758 46.41715 
L 82.828655 47.178981 
L 83.166552 47.178981 
L 83.504448 48.702643 
L 83.842345 49.464475 
L 84.180242 49.464475 
L 84.518139 48.702643 
L 84.856036 49.464475 
L 85.193933 49.464475 
L 85.53183 50.226306 
L 85.869726 50.226306 
L 86.207623 50.988137 
L 87.559211 50.988137 
L 87.897108 50.226306 
L 88.235005 50.226306 
L 88.572901 49.464475 
L 88.910798 50.226306 
L 89.248695 50.226306 
L 89.586592 50.988137 
L 90.600283 50.988137 
L 91.276076 52.511799 
L 91.613973 52.511799 
L 91.95187 53.27363 
L 93.641354 53.27363 
L 93.979251 54.035461 
L 94.992942 54.035461 
L 95.330839 56.320954 
L 95.668736 57.844616 
L 96.682426 82.985042 
L 97.35822 96.698001 
L 98.034014 121.838427 
L 98.709808 121.838427 
L 99.385601 152.31167 
L 100.061395 160.691812 
L 101.412983 175.928433 
L 102.088776 180.49942 
L 102.76457 187.355899 
L 103.102467 189.641393 
L 103.778261 192.688717 
L 104.454054 197.259703 
L 105.129848 202.592521 
L 105.805642 204.116183 
L 106.143539 204.116183 
L 106.481436 203.354352 
L 107.495126 198.783366 
L 107.833023 196.497872 
L 108.17092 194.97421 
L 108.846714 190.403224 
L 109.184611 187.355899 
L 109.522507 185.832237 
L 111.549889 172.119278 
L 112.225682 175.166602 
L 112.901476 183.546744 
L 113.57727 188.879562 
L 114.928857 198.021534 
L 115.604651 203.354352 
L 115.942548 204.878014 
L 117.294135 207.925338 
L 117.969929 210.972663 
L 119.659414 214.781818 
L 119.99731 214.781818 
L 120.335207 214.019987 
L 121.011001 210.972663 
L 122.362589 201.83069 
L 122.700485 198.783366 
L 123.038382 198.021534 
L 123.376279 196.497872 
L 124.052073 188.879562 
L 124.38997 187.355899 
L 125.065763 182.784913 
L 126.079454 169.833785 
L 127.093145 159.16815 
L 127.768938 159.16815 
L 128.444732 140.122373 
L 130.472113 118.029271 
L 130.81001 116.505609 
L 131.147907 114.220116 
L 131.485804 113.458285 
L 131.823701 111.934623 
L 132.499495 104.316312 
L 133.175288 102.79265 
L 133.513185 101.268988 
L 133.851082 98.983495 
L 134.188979 95.93617 
L 134.526876 94.412508 
L 134.864773 92.127015 
L 135.878463 89.841522 
L 136.21636 88.317859 
L 137.230051 79.937718 
L 137.567948 77.652224 
L 137.905845 76.890393 
L 140.271123 66.224758 
L 140.946916 64.701096 
L 141.284813 63.177434 
L 141.62271 62.415603 
L 141.960607 60.891941 
L 142.636401 59.368279 
L 142.974298 57.844616 
L 143.312194 55.559123 
L 143.650091 55.559123 
L 144.325885 54.035461 
L 144.663782 52.511799 
L 145.677473 50.226306 
L 146.015369 48.702643 
L 146.353266 48.702643 
L 146.691163 47.940812 
L 147.02906 47.940812 
L 147.366957 47.178981 
L 147.704854 47.178981 
L 148.042751 46.41715 
L 148.380648 46.41715 
L 148.718544 45.655319 
L 150.745926 45.655319 
L 151.083823 44.893488 
L 151.421719 45.655319 
L 152.097513 45.655319 
L 152.43541 44.893488 
L 152.773307 44.893488 
L 153.111204 44.131657 
L 153.786997 45.655319 
L 155.138585 45.655319 
L 156.828069 86.032366 
L 157.503863 97.459832 
L 158.179657 114.981947 
L 158.855451 124.12392 
L 159.531244 136.313217 
L 161.558626 154.597163 
L 161.896522 156.120825 
L 162.234419 156.882656 
L 162.910213 161.453643 
L 163.24811 162.215474 
L 163.586007 162.215474 
L 164.2618 163.739136 
L 164.599697 163.739136 
L 164.937594 162.977305 
L 165.951285 158.406319 
L 166.289182 156.120825 
L 166.627079 153.073501 
L 167.302872 150.026177 
L 167.978666 143.931528 
L 168.316563 143.169697 
L 168.65446 141.646035 
L 169.66815 154.597163 
L 170.343944 161.453643 
L 170.681841 163.739136 
L 171.357635 169.071954 
L 172.033429 173.64294 
L 172.371325 175.166602 
L 173.047119 180.49942 
L 173.722913 182.023082 
L 174.06081 183.546744 
L 174.398707 184.308575 
L 174.736603 185.832237 
L 175.0745 186.594068 
L 175.412397 188.11773 
L 176.426088 190.403224 
L 176.763985 191.926886 
L 177.439778 193.450548 
L 178.453469 193.450548 
L 179.129263 191.926886 
L 179.46716 190.403224 
L 179.805057 189.641393 
L 180.142953 188.11773 
L 180.48085 185.832237 
L 180.818747 182.784913 
L 181.494541 179.737589 
L 183.859819 157.644487 
L 184.197716 153.073501 
L 184.87351 146.978852 
L 185.211406 145.45519 
L 185.549303 143.169697 
L 186.225097 130.9804 
L 186.562994 128.694907 
L 188.252478 114.220116 
L 188.590375 111.934623 
L 188.928272 110.410961 
L 189.266169 108.125467 
L 190.27986 99.745326 
L 190.955653 95.174339 
L 191.29355 92.127015 
L 191.631447 90.603353 
L 191.969344 88.317859 
L 192.983034 83.746873 
L 193.320931 81.46138 
L 193.658828 80.699549 
L 193.996725 79.175887 
L 194.672519 77.652224 
L 195.010416 76.128562 
L 195.348313 75.366731 
L 195.686209 73.843069 
L 196.024106 73.081238 
L 196.6999 70.033914 
L 197.037797 67.74842 
L 198.389384 64.701096 
L 199.065178 61.653772 
L 200.754663 57.844616 
L 201.092559 56.320954 
L 201.768353 54.797292 
L 202.10625 54.797292 
L 203.457837 51.749968 
L 203.795734 51.749968 
L 204.133631 50.988137 
L 204.471528 50.988137 
L 205.147322 49.464475 
L 205.485219 47.940812 
L 205.823116 47.940812 
L 206.161012 47.178981 
L 206.498909 47.178981 
L 206.836806 46.41715 
L 207.174703 46.41715 
L 207.5126 45.655319 
L 208.188394 45.655319 
L 208.526291 44.893488 
L 208.864187 43.369826 
L 209.877878 43.369826 
L 210.553672 41.846164 
L 210.891569 42.607995 
L 211.229466 42.607995 
L 211.905259 41.084333 
L 212.243156 41.084333 
L 212.581053 40.322502 
L 213.93264 57.844616 
L 214.608434 62.415603 
L 215.284228 65.462927 
L 215.622125 66.224758 
L 216.297919 66.224758 
L 216.973712 64.701096 
L 217.649506 64.701096 
L 218.3253 63.177434 
L 219.001094 63.177434 
L 220.352681 60.13011 
L 221.028475 60.13011 
L 221.366372 59.368279 
L 221.704269 57.844616 
L 222.042165 57.844616 
L 222.717959 56.320954 
L 223.055856 54.797292 
L 224.069547 54.797292 
L 224.74534 51.749968 
L 225.083237 51.749968 
L 225.759031 50.226306 
L 226.096928 48.702643 
L 226.772722 47.178981 
L 227.110618 47.178981 
L 227.448515 46.41715 
L 227.786412 46.41715 
L 228.462206 44.893488 
L 228.800103 43.369826 
L 229.138 43.369826 
L 229.475897 42.607995 
L 230.489587 42.607995 
L 231.165381 41.084333 
L 231.841175 41.084333 
L 232.516968 39.560671 
L 233.192762 41.084333 
L 233.530659 41.084333 
L 233.868556 40.322502 
L 234.206453 40.322502 
L 234.54435 39.560671 
L 235.220143 41.084333 
L 235.895937 41.084333 
L 236.571731 48.702643 
L 237.585421 55.559123 
L 238.261215 63.939265 
L 238.937009 63.939265 
L 239.274906 64.701096 
L 240.288596 64.701096 
L 240.626493 66.224758 
L 240.96439 66.986589 
L 241.302287 68.510251 
L 241.640184 69.272083 
L 242.315978 79.937718 
L 242.653874 82.223211 
L 243.667565 86.794197 
L 244.005462 87.556028 
L 244.681256 92.888846 
L 245.019153 94.412508 
L 245.357049 95.174339 
L 246.032843 100.507157 
L 246.708637 103.554481 
L 247.046534 105.839974 
L 247.384431 107.363636 
L 248.736018 121.838427 
L 249.411812 127.171244 
L 249.749709 127.933075 
L 250.087606 127.933075 
L 251.101296 130.218569 
L 251.439193 129.456738 
L 251.77709 127.933075 
L 252.452884 126.409413 
L 253.128677 121.838427 
L 253.466574 120.314765 
L 254.818162 111.172792 
L 255.156059 108.125467 
L 255.493956 106.601805 
L 255.831852 104.316312 
L 256.169749 102.79265 
L 257.18344 95.93617 
L 257.859234 94.412508 
L 258.535027 91.365184 
L 258.872924 89.079691 
L 259.210821 87.556028 
L 260.224512 80.699549 
L 260.562409 79.937718 
L 260.900306 78.414055 
L 261.238202 77.652224 
L 261.576099 76.128562 
L 261.913996 75.366731 
L 262.58979 72.319407 
L 262.927687 70.033914 
L 263.265584 69.272083 
L 263.941377 66.224758 
L 264.279274 63.939265 
L 264.617171 63.177434 
L 264.955068 61.653772 
L 265.630862 60.13011 
L 266.306655 57.082785 
L 267.658243 54.035461 
L 267.99614 52.511799 
L 268.334037 51.749968 
L 268.671934 50.226306 
L 271.037212 44.893488 
L 271.375108 43.369826 
L 271.713005 43.369826 
L 272.050902 42.607995 
L 272.388799 42.607995 
L 272.726696 41.846164 
L 273.740387 41.846164 
L 275.429871 38.037008 
L 275.767768 36.513346 
L 276.443562 36.513346 
L 276.781458 37.275177 
L 277.457252 37.275177 
L 277.795149 36.513346 
L 278.133046 37.275177 
L 278.80884 37.275177 
L 279.146737 36.513346 
L 281.174118 36.513346 
L 281.512015 35.751515 
L 283.539396 35.751515 
L 283.877293 36.513346 
L 284.21519 36.513346 
L 285.22888 59.368279 
L 287.256261 95.174339 
L 287.594158 98.221663 
L 288.607849 102.79265 
L 289.283643 102.79265 
L 289.959436 114.220116 
L 290.63523 122.600258 
L 291.986818 122.600258 
L 292.324714 123.362089 
L 292.662611 123.362089 
L 293.338405 118.791103 
L 294.689993 112.696454 
L 295.027889 110.410961 
L 295.365786 108.887299 
L 296.379477 102.030819 
L 296.717374 100.507157 
L 297.731064 93.650677 
L 299.420549 86.032366 
L 299.758446 83.746873 
L 300.096343 82.985042 
L 300.434239 81.46138 
L 300.772136 80.699549 
L 301.110033 79.175887 
L 301.785827 77.652224 
L 302.123724 77.652224 
L 304.826899 71.557576 
L 305.164796 71.557576 
L 306.178486 69.272083 
L 306.85428 92.127015 
L 307.530074 121.838427 
L 308.543764 144.693359 
L 309.557455 163.739136 
L 310.909042 183.546744 
L 311.246939 188.11773 
L 311.922733 188.11773 
L 312.598527 197.259703 
L 313.612217 201.83069 
L 313.950114 202.592521 
L 314.625908 207.925338 
L 314.963805 207.925338 
L 315.977495 205.639845 
L 316.315392 204.116183 
L 316.653289 201.83069 
L 316.991186 201.83069 
L 317.66698 200.307028 
L 318.342774 188.11773 
L 318.68067 186.594068 
L 319.018567 184.308575 
L 319.356464 185.070406 
L 319.694361 185.070406 
L 320.708052 187.355899 
L 321.721742 187.355899 
L 322.397536 185.832237 
L 323.07333 178.975758 
L 323.411227 178.213926 
L 324.08702 175.166602 
L 324.762814 167.548291 
L 325.100711 165.262798 
L 325.438608 162.215474 
L 326.114402 153.073501 
L 326.790195 146.217021 
L 327.465989 136.313217 
L 327.803886 134.027724 
L 328.47968 127.171244 
L 328.817577 122.600258 
L 329.831267 118.029271 
L 330.507061 113.458285 
L 331.182855 110.410961 
L 332.534442 98.983495 
L 333.210236 95.93617 
L 333.548133 95.174339 
L 333.88603 93.650677 
L 334.223926 91.365184 
L 334.561823 88.317859 
L 334.89972 87.556028 
L 335.237617 86.032366 
L 335.913411 81.46138 
L 336.589205 79.937718 
L 336.589205 79.937718 
" clip-path="url(#p84be454f15)" style="fill: none; stroke: #1f77b4; stroke-width: 1.5; stroke-linecap: square"/>
   </g>
   <g id="patch_3">
    <path d="M 54.175 223.733333 
L 54.175 26.8 
" style="fill: none; stroke: #000000; stroke-width: 0.8; stroke-linejoin: miter; stroke-linecap: square"/>
   </g>
   <g id="patch_4">
    <path d="M 350.0375 223.733333 
L 350.0375 26.8 
" style="fill: none; stroke: #000000; stroke-width: 0.8; stroke-linejoin: miter; stroke-linecap: square"/>
   </g>
   <g id="patch_5">
    <path d="M 54.175 223.733333 
L 350.0375 223.733333 
" style="fill: none; stroke: #000000; stroke-width: 0.8; stroke-linejoin: miter; stroke-linecap: square"/>
   </g>
   <g id="patch_6">
    <path d="M 54.175 26.8 
L 350.0375 26.8 
" style="fill: none; stroke: #000000; stroke-width: 0.8; stroke-linejoin: miter; stroke-linecap: square"/>
   </g>
   <g id="text_7">
    <!-- Speed -->
    <g transform="translate(183.295312 20.8)scale(0.12 -0.12)">
     <defs>
      <path id="DejaVuSans-53" d="M 3425 4513 
L 3425 3897 
Q 3066 4069 2747 4153 
Q 2428 4238 2131 4238 
Q 1616 4238 1336 4038 
Q 1056 3838 1056 3469 
Q 1056 3159 1242 3001 
Q 1428 2844 1947 2747 
L 2328 2669 
Q 3034 2534 3370 2195 
Q 3706 1856 3706 1288 
Q 3706 609 3251 259 
Q 2797 -91 1919 -91 
Q 1588 -91 1214 -16 
Q 841 59 441 206 
L 441 856 
Q 825 641 1194 531 
Q 1563 422 1919 422 
Q 2459 422 2753 634 
Q 3047 847 3047 1241 
Q 3047 1584 2836 1778 
Q 2625 1972 2144 2069 
L 1759 2144 
Q 1053 2284 737 2584 
Q 422 2884 422 3419 
Q 422 4038 858 4394 
Q 1294 4750 2059 4750 
Q 2388 4750 2728 4690 
Q 3069 4631 3425 4513 
z
" transform="scale(0.015625)"/>
      <path id="DejaVuSans-70" d="M 1159 525 
L 1159 -1331 
L 581 -1331 
L 581 3500 
L 1159 3500 
L 1159 2969 
Q 1341 3281 1617 3432 
Q 1894 3584 2278 3584 
Q 2916 3584 3314 3078 
Q 3713 2572 3713 1747 
Q 3713 922 3314 415 
Q 2916 -91 2278 -91 
Q 1894 -91 1617 61 
Q 1341 213 1159 525 
z
M 3116 1747 
Q 3116 2381 2855 2742 
Q 2594 3103 2138 3103 
Q 1681 3103 1420 2742 
Q 1159 2381 1159 1747 
Q 1159 1113 1420 752 
Q 1681 391 2138 391 
Q 2594 391 2855 752 
Q 3116 1113 3116 1747 
z
" transform="scale(0.015625)"/>
      <path id="DejaVuSans-65" d="M 3597 1894 
L 3597 1613 
L 953 1613 
Q 991 1019 1311 708 
Q 1631 397 2203 397 
Q 2534 397 2845 478 
Q 3156 559 3463 722 
L 3463 178 
Q 3153 47 2828 -22 
Q 2503 -91 2169 -91 
Q 1331 -91 842 396 
Q 353 884 353 1716 
Q 353 2575 817 3079 
Q 1281 3584 2069 3584 
Q 2775 3584 3186 3129 
Q 3597 2675 3597 1894 
z
M 3022 2063 
Q 3016 2534 2758 2815 
Q 2500 3097 2075 3097 
Q 1594 3097 1305 2825 
Q 1016 2553 972 2059 
L 3022 2063 
z
" transform="scale(0.015625)"/>
      <path id="DejaVuSans-64" d="M 2906 2969 
L 2906 4863 
L 3481 4863 
L 3481 0 
L 2906 0 
L 2906 525 
Q 2725 213 2448 61 
Q 2172 -91 1784 -91 
Q 1150 -91 751 415 
Q 353 922 353 1747 
Q 353 2572 751 3078 
Q 1150 3584 1784 3584 
Q 2172 3584 2448 3432 
Q 2725 3281 2906 2969 
z
M 947 1747 
Q 947 1113 1208 752 
Q 1469 391 1925 391 
Q 2381 391 2643 752 
Q 2906 1113 2906 1747 
Q 2906 2381 2643 2742 
Q 2381 3103 1925 3103 
Q 1469 3103 1208 2742 
Q 947 2381 947 1747 
z
" transform="scale(0.015625)"/>
     </defs>
     <use xlink:href="#DejaVuSans-53"/>
     <use xlink:href="#DejaVuSans-70" x="63.476562"/>
     <use xlink:href="#DejaVuSans-65" x="126.953125"/>
     <use xlink:href="#DejaVuSans-65" x="188.476562"/>
     <use xlink:href="#DejaVuSans-64" x="250"/>
    </g>
   </g>
  </g>
  <g id="axes_2">
   <g id="patch_7">
    <path d="M 413.3375 223.733333 
L 709.2 223.733333 
L 709.2 26.8 
L 413.3375 26.8 
z
" style="fill: #ffffff"/>
   </g>
   <g id="matplotlib.axis_3">
    <g id="xtick_10">
     <g id="line2d_16">
      <g>
       <use xlink:href="#m2eb35a546d" x="426.110002" y="223.733333" style="stroke: #000000; stroke-width: 0.8"/>
      </g>
     </g>
    </g>
    <g id="xtick_11">
     <g id="line2d_17">
      <g>
       <use xlink:href="#m2eb35a546d" x="459.899689" y="223.733333" style="stroke: #000000; stroke-width: 0.8"/>
      </g>
     </g>
    </g>
    <g id="xtick_12">
     <g id="line2d_18">
      <g>
       <use xlink:href="#m2eb35a546d" x="493.689376" y="223.733333" style="stroke: #000000; stroke-width: 0.8"/>
      </g>
     </g>
    </g>
    <g id="xtick_13">
     <g id="line2d_19">
      <g>
       <use xlink:href="#m2eb35a546d" x="527.479063" y="223.733333" style="stroke: #000000; stroke-width: 0.8"/>
      </g>
     </g>
    </g>
    <g id="xtick_14">
     <g id="line2d_20">
      <g>
       <use xlink:href="#m2eb35a546d" x="561.26875" y="223.733333" style="stroke: #000000; stroke-width: 0.8"/>
      </g>
     </g>
    </g>
    <g id="xtick_15">
     <g id="line2d_21">
      <g>
       <use xlink:href="#m2eb35a546d" x="595.058437" y="223.733333" style="stroke: #000000; stroke-width: 0.8"/>
      </g>
     </g>
    </g>
    <g id="xtick_16">
     <g id="line2d_22">
      <g>
       <use xlink:href="#m2eb35a546d" x="628.848124" y="223.733333" style="stroke: #000000; stroke-width: 0.8"/>
      </g>
     </g>
    </g>
    <g id="xtick_17">
     <g id="line2d_23">
      <g>
       <use xlink:href="#m2eb35a546d" x="662.637811" y="223.733333" style="stroke: #000000; stroke-width: 0.8"/>
      </g>
     </g>
    </g>
    <g id="xtick_18">
     <g id="line2d_24">
      <g>
       <use xlink:href="#m2eb35a546d" x="696.427498" y="223.733333" style="stroke: #000000; stroke-width: 0.8"/>
      </g>
     </g>
    </g>
   </g>
   <g id="matplotlib.axis_4">
    <g id="ytick_6">
     <g id="line2d_25">
      <g>
       <use xlink:href="#m7883fbfbb0" x="413.3375" y="219.356801" style="stroke: #000000; stroke-width: 0.8"/>
      </g>
     </g>
     <g id="text_8">
      <!-- 6000 -->
      <g transform="translate(380.8875 223.15602)scale(0.1 -0.1)">
       <defs>
        <path id="DejaVuSans-36" d="M 2113 2584 
Q 1688 2584 1439 2293 
Q 1191 2003 1191 1497 
Q 1191 994 1439 701 
Q 1688 409 2113 409 
Q 2538 409 2786 701 
Q 3034 994 3034 1497 
Q 3034 2003 2786 2293 
Q 2538 2584 2113 2584 
z
M 3366 4563 
L 3366 3988 
Q 3128 4100 2886 4159 
Q 2644 4219 2406 4219 
Q 1781 4219 1451 3797 
Q 1122 3375 1075 2522 
Q 1259 2794 1537 2939 
Q 1816 3084 2150 3084 
Q 2853 3084 3261 2657 
Q 3669 2231 3669 1497 
Q 3669 778 3244 343 
Q 2819 -91 2113 -91 
Q 1303 -91 875 529 
Q 447 1150 447 2328 
Q 447 3434 972 4092 
Q 1497 4750 2381 4750 
Q 2619 4750 2861 4703 
Q 3103 4656 3366 4563 
z
" transform="scale(0.015625)"/>
       </defs>
       <use xlink:href="#DejaVuSans-36"/>
       <use xlink:href="#DejaVuSans-30" x="63.623047"/>
       <use xlink:href="#DejaVuSans-30" x="127.246094"/>
       <use xlink:href="#DejaVuSans-30" x="190.869141"/>
      </g>
     </g>
    </g>
    <g id="ytick_7">
     <g id="line2d_26">
      <g>
       <use xlink:href="#m7883fbfbb0" x="413.3375" y="189.058899" style="stroke: #000000; stroke-width: 0.8"/>
      </g>
     </g>
     <g id="text_9">
      <!-- 7000 -->
      <g transform="translate(380.8875 192.858118)scale(0.1 -0.1)">
       <defs>
        <path id="DejaVuSans-37" d="M 525 4666 
L 3525 4666 
L 3525 4397 
L 1831 0 
L 1172 0 
L 2766 4134 
L 525 4134 
L 525 4666 
z
" transform="scale(0.015625)"/>
       </defs>
       <use xlink:href="#DejaVuSans-37"/>
       <use xlink:href="#DejaVuSans-30" x="63.623047"/>
       <use xlink:href="#DejaVuSans-30" x="127.246094"/>
       <use xlink:href="#DejaVuSans-30" x="190.869141"/>
      </g>
     </g>
    </g>
    <g id="ytick_8">
     <g id="line2d_27">
      <g>
       <use xlink:href="#m7883fbfbb0" x="413.3375" y="158.760997" style="stroke: #000000; stroke-width: 0.8"/>
      </g>
     </g>
     <g id="text_10">
      <!-- 8000 -->
      <g transform="translate(380.8875 162.560216)scale(0.1 -0.1)">
       <defs>
        <path id="DejaVuSans-38" d="M 2034 2216 
Q 1584 2216 1326 1975 
Q 1069 1734 1069 1313 
Q 1069 891 1326 650 
Q 1584 409 2034 409 
Q 2484 409 2743 651 
Q 3003 894 3003 1313 
Q 3003 1734 2745 1975 
Q 2488 2216 2034 2216 
z
M 1403 2484 
Q 997 2584 770 2862 
Q 544 3141 544 3541 
Q 544 4100 942 4425 
Q 1341 4750 2034 4750 
Q 2731 4750 3128 4425 
Q 3525 4100 3525 3541 
Q 3525 3141 3298 2862 
Q 3072 2584 2669 2484 
Q 3125 2378 3379 2068 
Q 3634 1759 3634 1313 
Q 3634 634 3220 271 
Q 2806 -91 2034 -91 
Q 1263 -91 848 271 
Q 434 634 434 1313 
Q 434 1759 690 2068 
Q 947 2378 1403 2484 
z
M 1172 3481 
Q 1172 3119 1398 2916 
Q 1625 2713 2034 2713 
Q 2441 2713 2670 2916 
Q 2900 3119 2900 3481 
Q 2900 3844 2670 4047 
Q 2441 4250 2034 4250 
Q 1625 4250 1398 4047 
Q 1172 3844 1172 3481 
z
" transform="scale(0.015625)"/>
       </defs>
       <use xlink:href="#DejaVuSans-38"/>
       <use xlink:href="#DejaVuSans-30" x="63.623047"/>
       <use xlink:href="#DejaVuSans-30" x="127.246094"/>
       <use xlink:href="#DejaVuSans-30" x="190.869141"/>
      </g>
     </g>
    </g>
    <g id="ytick_9">
     <g id="line2d_28">
      <g>
       <use xlink:href="#m7883fbfbb0" x="413.3375" y="128.463095" style="stroke: #000000; stroke-width: 0.8"/>
      </g>
     </g>
     <g id="text_11">
      <!-- 9000 -->
      <g transform="translate(380.8875 132.262314)scale(0.1 -0.1)">
       <defs>
        <path id="DejaVuSans-39" d="M 703 97 
L 703 672 
Q 941 559 1184 500 
Q 1428 441 1663 441 
Q 2288 441 2617 861 
Q 2947 1281 2994 2138 
Q 2813 1869 2534 1725 
Q 2256 1581 1919 1581 
Q 1219 1581 811 2004 
Q 403 2428 403 3163 
Q 403 3881 828 4315 
Q 1253 4750 1959 4750 
Q 2769 4750 3195 4129 
Q 3622 3509 3622 2328 
Q 3622 1225 3098 567 
Q 2575 -91 1691 -91 
Q 1453 -91 1209 -44 
Q 966 3 703 97 
z
M 1959 2075 
Q 2384 2075 2632 2365 
Q 2881 2656 2881 3163 
Q 2881 3666 2632 3958 
Q 2384 4250 1959 4250 
Q 1534 4250 1286 3958 
Q 1038 3666 1038 3163 
Q 1038 2656 1286 2365 
Q 1534 2075 1959 2075 
z
" transform="scale(0.015625)"/>
       </defs>
       <use xlink:href="#DejaVuSans-39"/>
       <use xlink:href="#DejaVuSans-30" x="63.623047"/>
       <use xlink:href="#DejaVuSans-30" x="127.246094"/>
       <use xlink:href="#DejaVuSans-30" x="190.869141"/>
      </g>
     </g>
    </g>
    <g id="ytick_10">
     <g id="line2d_29">
      <g>
       <use xlink:href="#m7883fbfbb0" x="413.3375" y="98.165193" style="stroke: #000000; stroke-width: 0.8"/>
      </g>
     </g>
     <g id="text_12">
      <!-- 10000 -->
      <g transform="translate(374.525 101.964412)scale(0.1 -0.1)">
       <use xlink:href="#DejaVuSans-31"/>
       <use xlink:href="#DejaVuSans-30" x="63.623047"/>
       <use xlink:href="#DejaVuSans-30" x="127.246094"/>
       <use xlink:href="#DejaVuSans-30" x="190.869141"/>
       <use xlink:href="#DejaVuSans-30" x="254.492188"/>
      </g>
     </g>
    </g>
    <g id="ytick_11">
     <g id="line2d_30">
      <g>
       <use xlink:href="#m7883fbfbb0" x="413.3375" y="67.867291" style="stroke: #000000; stroke-width: 0.8"/>
      </g>
     </g>
     <g id="text_13">
      <!-- 11000 -->
      <g transform="translate(374.525 71.66651)scale(0.1 -0.1)">
       <use xlink:href="#DejaVuSans-31"/>
       <use xlink:href="#DejaVuSans-31" x="63.623047"/>
       <use xlink:href="#DejaVuSans-30" x="127.246094"/>
       <use xlink:href="#DejaVuSans-30" x="190.869141"/>
       <use xlink:href="#DejaVuSans-30" x="254.492188"/>
      </g>
     </g>
    </g>
    <g id="ytick_12">
     <g id="line2d_31">
      <g>
       <use xlink:href="#m7883fbfbb0" x="413.3375" y="37.569389" style="stroke: #000000; stroke-width: 0.8"/>
      </g>
     </g>
     <g id="text_14">
      <!-- 12000 -->
      <g transform="translate(374.525 41.368608)scale(0.1 -0.1)">
       <use xlink:href="#DejaVuSans-31"/>
       <use xlink:href="#DejaVuSans-32" x="63.623047"/>
       <use xlink:href="#DejaVuSans-30" x="127.246094"/>
       <use xlink:href="#DejaVuSans-30" x="190.869141"/>
       <use xlink:href="#DejaVuSans-30" x="254.492188"/>
      </g>
     </g>
    </g>
    <g id="text_15">
     <!-- Rotation per minute -->
     <g transform="translate(368.445312 175.294792)rotate(-90)scale(0.1 -0.1)">
      <defs>
       <path id="DejaVuSans-52" d="M 2841 2188 
Q 3044 2119 3236 1894 
Q 3428 1669 3622 1275 
L 4263 0 
L 3584 0 
L 2988 1197 
Q 2756 1666 2539 1819 
Q 2322 1972 1947 1972 
L 1259 1972 
L 1259 0 
L 628 0 
L 628 4666 
L 2053 4666 
Q 2853 4666 3247 4331 
Q 3641 3997 3641 3322 
Q 3641 2881 3436 2590 
Q 3231 2300 2841 2188 
z
M 1259 4147 
L 1259 2491 
L 2053 2491 
Q 2509 2491 2742 2702 
Q 2975 2913 2975 3322 
Q 2975 3731 2742 3939 
Q 2509 4147 2053 4147 
L 1259 4147 
z
" transform="scale(0.015625)"/>
       <path id="DejaVuSans-6f" d="M 1959 3097 
Q 1497 3097 1228 2736 
Q 959 2375 959 1747 
Q 959 1119 1226 758 
Q 1494 397 1959 397 
Q 2419 397 2687 759 
Q 2956 1122 2956 1747 
Q 2956 2369 2687 2733 
Q 2419 3097 1959 3097 
z
M 1959 3584 
Q 2709 3584 3137 3096 
Q 3566 2609 3566 1747 
Q 3566 888 3137 398 
Q 2709 -91 1959 -91 
Q 1206 -91 779 398 
Q 353 888 353 1747 
Q 353 2609 779 3096 
Q 1206 3584 1959 3584 
z
" transform="scale(0.015625)"/>
       <path id="DejaVuSans-74" d="M 1172 4494 
L 1172 3500 
L 2356 3500 
L 2356 3053 
L 1172 3053 
L 1172 1153 
Q 1172 725 1289 603 
Q 1406 481 1766 481 
L 2356 481 
L 2356 0 
L 1766 0 
Q 1100 0 847 248 
Q 594 497 594 1153 
L 594 3053 
L 172 3053 
L 172 3500 
L 594 3500 
L 594 4494 
L 1172 4494 
z
" transform="scale(0.015625)"/>
       <path id="DejaVuSans-61" d="M 2194 1759 
Q 1497 1759 1228 1600 
Q 959 1441 959 1056 
Q 959 750 1161 570 
Q 1363 391 1709 391 
Q 2188 391 2477 730 
Q 2766 1069 2766 1631 
L 2766 1759 
L 2194 1759 
z
M 3341 1997 
L 3341 0 
L 2766 0 
L 2766 531 
Q 2569 213 2275 61 
Q 1981 -91 1556 -91 
Q 1019 -91 701 211 
Q 384 513 384 1019 
Q 384 1609 779 1909 
Q 1175 2209 1959 2209 
L 2766 2209 
L 2766 2266 
Q 2766 2663 2505 2880 
Q 2244 3097 1772 3097 
Q 1472 3097 1187 3025 
Q 903 2953 641 2809 
L 641 3341 
Q 956 3463 1253 3523 
Q 1550 3584 1831 3584 
Q 2591 3584 2966 3190 
Q 3341 2797 3341 1997 
z
" transform="scale(0.015625)"/>
       <path id="DejaVuSans-69" d="M 603 3500 
L 1178 3500 
L 1178 0 
L 603 0 
L 603 3500 
z
M 603 4863 
L 1178 4863 
L 1178 4134 
L 603 4134 
L 603 4863 
z
" transform="scale(0.015625)"/>
       <path id="DejaVuSans-6e" d="M 3513 2113 
L 3513 0 
L 2938 0 
L 2938 2094 
Q 2938 2591 2744 2837 
Q 2550 3084 2163 3084 
Q 1697 3084 1428 2787 
Q 1159 2491 1159 1978 
L 1159 0 
L 581 0 
L 581 3500 
L 1159 3500 
L 1159 2956 
Q 1366 3272 1645 3428 
Q 1925 3584 2291 3584 
Q 2894 3584 3203 3211 
Q 3513 2838 3513 2113 
z
" transform="scale(0.015625)"/>
       <path id="DejaVuSans-20" transform="scale(0.015625)"/>
       <path id="DejaVuSans-72" d="M 2631 2963 
Q 2534 3019 2420 3045 
Q 2306 3072 2169 3072 
Q 1681 3072 1420 2755 
Q 1159 2438 1159 1844 
L 1159 0 
L 581 0 
L 581 3500 
L 1159 3500 
L 1159 2956 
Q 1341 3275 1631 3429 
Q 1922 3584 2338 3584 
Q 2397 3584 2469 3576 
Q 2541 3569 2628 3553 
L 2631 2963 
z
" transform="scale(0.015625)"/>
       <path id="DejaVuSans-75" d="M 544 1381 
L 544 3500 
L 1119 3500 
L 1119 1403 
Q 1119 906 1312 657 
Q 1506 409 1894 409 
Q 2359 409 2629 706 
Q 2900 1003 2900 1516 
L 2900 3500 
L 3475 3500 
L 3475 0 
L 2900 0 
L 2900 538 
Q 2691 219 2414 64 
Q 2138 -91 1772 -91 
Q 1169 -91 856 284 
Q 544 659 544 1381 
z
M 1991 3584 
L 1991 3584 
z
" transform="scale(0.015625)"/>
      </defs>
      <use xlink:href="#DejaVuSans-52"/>
      <use xlink:href="#DejaVuSans-6f" x="64.982422"/>
      <use xlink:href="#DejaVuSans-74" x="126.164062"/>
      <use xlink:href="#DejaVuSans-61" x="165.373047"/>
      <use xlink:href="#DejaVuSans-74" x="226.652344"/>
      <use xlink:href="#DejaVuSans-69" x="265.861328"/>
      <use xlink:href="#DejaVuSans-6f" x="293.644531"/>
      <use xlink:href="#DejaVuSans-6e" x="354.826172"/>
      <use xlink:href="#DejaVuSans-20" x="418.205078"/>
      <use xlink:href="#DejaVuSans-70" x="449.992188"/>
      <use xlink:href="#DejaVuSans-65" x="513.46875"/>
      <use xlink:href="#DejaVuSans-72" x="574.992188"/>
      <use xlink:href="#DejaVuSans-20" x="616.105469"/>
      <use xlink:href="#DejaVuSans-6d" x="647.892578"/>
      <use xlink:href="#DejaVuSans-69" x="745.304688"/>
      <use xlink:href="#DejaVuSans-6e" x="773.087891"/>
      <use xlink:href="#DejaVuSans-75" x="836.466797"/>
      <use xlink:href="#DejaVuSans-74" x="899.845703"/>
      <use xlink:href="#DejaVuSans-65" x="939.054688"/>
     </g>
    </g>
   </g>
   <g id="line2d_32">
    <path d="M 426.785795 69.47308 
L 427.123692 76.896066 
L 428.137383 76.25981 
L 429.151074 69.927549 
L 429.48897 68.352058 
L 430.502661 61.838009 
L 430.840558 60.171624 
L 431.516352 58.262856 
L 432.192145 53.203107 
L 432.867939 51.748807 
L 434.219527 44.537907 
L 435.233217 64.776905 
L 435.909011 83.531307 
L 436.584805 76.956662 
L 437.260598 76.017427 
L 437.936392 73.623893 
L 438.612186 72.351381 
L 439.28798 69.866953 
L 439.963773 68.594441 
L 440.639567 69.018612 
L 441.653258 70.04874 
L 442.329052 69.685165 
L 443.004845 75.047894 
L 443.680639 73.169424 
L 444.356433 75.472065 
L 445.370123 76.229512 
L 446.045917 77.077854 
L 446.383814 77.56262 
L 447.059608 77.441428 
L 447.735401 74.926702 
L 448.411195 75.562958 
L 449.086989 76.865768 
L 450.776473 78.380663 
L 451.452267 78.835132 
L 453.141751 81.501347 
L 453.479648 81.683135 
L 454.155442 83.107136 
L 455.507029 123.070069 
L 456.52072 152.762013 
L 457.196514 162.487639 
L 457.872308 164.79028 
L 459.223895 129.281139 
L 460.237586 117.222574 
L 460.575483 112.496101 
L 461.251276 120.009981 
L 461.92707 145.551112 
L 462.940761 157.973252 
L 463.616554 175.18246 
L 464.292348 184.908087 
L 465.643936 169.54705 
L 466.319729 165.820409 
L 467.33342 146.035879 
L 468.009214 133.795526 
L 468.347111 127.069392 
L 469.022904 107.042479 
L 469.698698 99.346811 
L 470.712389 95.408084 
L 471.388182 107.193968 
L 474.091357 184.756597 
L 474.767151 188.483239 
L 475.442945 196.542481 
L 476.456635 203.05653 
L 477.808223 214.781818 
L 479.15981 206.752874 
L 479.835604 199.663165 
L 481.187192 174.273523 
L 481.862985 148.6112 
L 482.538779 147.914348 
L 483.214573 117.343765 
L 484.228263 105.133711 
L 484.904057 66.988652 
L 485.579851 90.227143 
L 486.255645 84.622031 
L 486.931438 60.111028 
L 487.607232 44.295524 
L 488.283026 47.991868 
L 488.95882 75.623554 
L 489.97251 54.293831 
L 490.986201 36.660452 
L 491.661995 49.385571 
L 492.675685 76.290108 
L 493.351479 65.71614 
L 494.027273 63.201414 
L 494.703066 53.627277 
L 495.37886 49.658252 
L 496.054654 89.287908 
L 496.730448 78.744238 
L 497.406241 74.835809 
L 498.082035 68.958016 
L 498.757829 65.504055 
L 499.433623 59.898943 
L 500.447313 56.566174 
L 501.123107 55.778428 
L 501.798901 49.355273 
L 502.812591 44.507609 
L 503.150488 43.204799 
L 503.826282 79.259302 
L 504.502076 76.502193 
L 505.177869 75.896235 
L 505.853663 75.896235 
L 506.529457 73.108828 
L 507.205251 73.108828 
L 507.881044 72.199891 
L 508.894735 71.684827 
L 509.570529 71.50304 
L 510.246323 70.927379 
L 510.922116 71.200061 
L 512.273704 70.897081 
L 512.949497 70.260826 
L 513.625291 70.351719 
L 514.301085 71.139465 
L 514.976879 79.380494 
L 515.652672 117.555851 
L 516.666363 131.492886 
L 518.017951 97.377448 
L 518.693744 89.98476 
L 519.369538 74.441936 
L 520.383229 90.075653 
L 520.721126 94.135572 
L 521.396919 107.648437 
L 522.072713 112.435505 
L 522.748507 120.009981 
L 525.113785 97.438044 
L 525.789579 80.077346 
L 526.465372 72.199891 
L 527.141166 55.32396 
L 529.844341 129.432628 
L 530.858032 141.127618 
L 531.533825 156.609846 
L 533.899103 172.72833 
L 534.237 174.364417 
L 534.912794 179.424167 
L 535.588588 192.08869 
L 536.940175 185.483747 
L 537.953866 186.150301 
L 539.305453 166.729346 
L 539.981247 155.943292 
L 540.657041 140.400469 
L 541.332835 136.673827 
L 543.022319 86.80348 
L 544.03601 60.383709 
L 544.711803 57.05094 
L 545.387597 82.743561 
L 546.063391 73.987467 
L 547.077081 54.081746 
L 547.752875 48.203953 
L 548.428669 39.478157 
L 549.104463 71.745423 
L 549.780256 70.836486 
L 550.793947 60.626093 
L 551.131844 57.929579 
L 551.807638 46.598164 
L 552.483431 41.901989 
L 553.159225 60.504901 
L 554.172916 72.866445 
L 554.848709 72.199891 
L 555.524503 68.74593 
L 556.200297 63.898266 
L 556.876091 62.080392 
L 557.889781 56.323791 
L 558.227678 54.869491 
L 558.903472 50.930764 
L 560.255059 45.840717 
L 560.930853 53.566682 
L 561.944544 82.834455 
L 562.620337 78.107982 
L 563.296131 78.107982 
L 563.971925 76.320406 
L 564.647719 73.563297 
L 565.323512 73.169424 
L 566.337203 70.897081 
L 567.012997 69.866953 
L 567.350894 69.412484 
L 568.026687 67.443121 
L 568.702481 67.01895 
L 569.716172 65.473757 
L 570.391966 65.019289 
L 571.067759 65.14048 
L 571.743553 73.139126 
L 572.419347 38.235943 
L 573.09514 48.597826 
L 574.108831 54.566512 
L 574.784625 57.232728 
L 575.460419 58.020473 
L 576.474109 56.657068 
L 576.812006 56.142003 
L 577.4878 54.687704 
L 578.163594 54.081746 
L 578.839387 53.899958 
L 579.515181 50.900466 
L 580.190975 52.14268 
L 580.866769 47.355612 
L 581.880459 75.653852 
L 582.218356 81.501347 
L 583.232047 81.955816 
L 583.90784 81.955816 
L 584.583634 76.714279 
L 585.259428 75.290277 
L 585.935222 72.472572 
L 586.948912 70.139634 
L 587.624706 68.806526 
L 588.638397 66.412992 
L 589.31419 66.412992 
L 590.327881 64.110351 
L 592.017365 63.140819 
L 592.693159 63.231712 
L 593.70685 63.4135 
L 594.382643 62.383371 
L 595.058437 67.200737 
L 595.734231 82.107305 
L 596.747921 90.742207 
L 597.423715 93.408423 
L 598.099509 92.43889 
L 598.775303 96.832086 
L 599.451096 97.953108 
L 600.12689 100.982898 
L 600.802684 82.501178 
L 601.478478 52.203276 
L 602.154271 54.505917 
L 603.167962 62.171286 
L 603.843756 64.322437 
L 604.519549 60.929072 
L 605.53324 85.137095 
L 605.871137 92.014719 
L 606.546931 53.839363 
L 607.560621 72.472572 
L 608.236415 80.925687 
L 608.574312 84.531137 
L 609.250106 85.924841 
L 610.263796 83.470711 
L 610.93959 79.259302 
L 611.615384 78.441259 
L 612.629074 62.595456 
L 613.642765 43.901651 
L 614.318559 40.871861 
L 614.994352 62.080392 
L 615.670146 71.381848 
L 616.34594 66.837163 
L 617.021734 56.687365 
L 618.035424 52.688042 
L 618.711218 43.295693 
L 619.387012 52.809234 
L 620.062806 78.895728 
L 622.090187 66.806865 
L 622.76598 64.655714 
L 623.441774 57.596303 
L 624.455465 52.082084 
L 624.793362 49.930933 
L 625.469155 47.476803 
L 626.144949 46.295185 
L 627.15864 75.623554 
L 627.834434 77.805003 
L 628.848124 73.684488 
L 629.523918 70.957677 
L 630.875505 66.746269 
L 631.213402 66.140311 
L 631.889196 65.534353 
L 632.56499 65.534353 
L 633.916577 60.838178 
L 634.254474 59.868645 
L 635.606062 59.0809 
L 636.281855 59.50507 
L 636.957649 58.656729 
L 637.633443 58.414346 
L 638.309237 58.838516 
L 639.322927 58.232558 
L 639.998721 57.505409 
L 640.674515 57.20243 
L 641.350308 57.838686 
L 642.026102 57.959877 
L 642.701896 58.868814 
L 643.37769 74.775213 
L 644.053483 82.652667 
L 644.729277 105.406392 
L 645.405071 93.862891 
L 646.080865 70.77589 
L 646.756658 77.199045 
L 647.770349 47.597995 
L 648.446143 47.597995 
L 649.121936 65.473757 
L 649.79773 72.442274 
L 650.473524 74.078361 
L 651.149318 69.321591 
L 651.825111 72.836147 
L 652.500905 59.595964 
L 653.176699 54.718002 
L 654.190389 41.962585 
L 654.866183 37.811772 
L 655.541977 74.108659 
L 656.217771 70.109336 
L 656.893564 59.959539 
L 657.569358 57.535707 
L 658.245152 47.779782 
L 658.920946 45.749823 
L 659.596739 42.17467 
L 660.61043 71.412146 
L 660.948327 79.44109 
L 661.962017 77.835301 
L 662.637811 73.80568 
L 663.313605 72.65436 
L 663.989399 70.260826 
L 664.665192 68.958016 
L 666.01678 114.192783 
L 666.692574 158.639806 
L 667.368367 156.549251 
L 668.044161 157.549081 
L 669.057852 149.823116 
L 669.733646 126.402838 
L 670.409439 138.734084 
L 671.761027 175.727822 
L 672.43682 187.574302 
L 673.112614 194.724607 
L 673.788408 188.362048 
L 674.464202 190.78588 
L 675.139995 182.69634 
L 675.815789 168.335134 
L 676.82948 154.186014 
L 677.505274 160.275892 
L 678.181067 171.152839 
L 678.856861 175.697525 
L 679.532655 172.334457 
L 680.208448 172.15267 
L 680.884242 171.455818 
L 681.560036 165.456834 
L 682.23583 145.490516 
L 683.24952 130.008288 
L 683.925314 112.102228 
L 684.601108 102.83107 
L 685.952695 54.202937 
L 686.628489 46.295185 
L 687.304283 49.264379 
L 687.980077 64.473926 
L 688.993767 61.050263 
L 689.669561 44.598503 
L 690.345355 35.751515 
L 691.359045 59.323283 
L 691.696942 66.049417 
L 692.372736 65.473757 
L 693.04853 57.77809 
L 693.724323 54.445321 
L 694.400117 49.567358 
L 695.075911 42.083777 
L 695.413808 50.567189 
L 695.751705 54.808896 
L 695.751705 54.808896 
" clip-path="url(#pe78bf1b372)" style="fill: none; stroke: #1f77b4; stroke-width: 1.5; stroke-linecap: square"/>
   </g>
   <g id="patch_8">
    <path d="M 413.3375 223.733333 
L 413.3375 26.8 
" style="fill: none; stroke: #000000; stroke-width: 0.8; stroke-linejoin: miter; stroke-linecap: square"/>
   </g>
   <g id="patch_9">
    <path d="M 709.2 223.733333 
L 709.2 26.8 
" style="fill: none; stroke: #000000; stroke-width: 0.8; stroke-linejoin: miter; stroke-linecap: square"/>
   </g>
   <g id="patch_10">
    <path d="M 413.3375 223.733333 
L 709.2 223.733333 
" style="fill: none; stroke: #000000; stroke-width: 0.8; stroke-linejoin: miter; stroke-linecap: square"/>
   </g>
   <g id="patch_11">
    <path d="M 413.3375 26.8 
L 709.2 26.8 
" style="fill: none; stroke: #000000; stroke-width: 0.8; stroke-linejoin: miter; stroke-linecap: square"/>
   </g>
   <g id="text_16">
    <!-- RPM -->
    <g transform="translate(548.305 20.8)scale(0.12 -0.12)">
     <defs>
      <path id="DejaVuSans-50" d="M 1259 4147 
L 1259 2394 
L 2053 2394 
Q 2494 2394 2734 2622 
Q 2975 2850 2975 3272 
Q 2975 3691 2734 3919 
Q 2494 4147 2053 4147 
L 1259 4147 
z
M 628 4666 
L 2053 4666 
Q 2838 4666 3239 4311 
Q 3641 3956 3641 3272 
Q 3641 2581 3239 2228 
Q 2838 1875 2053 1875 
L 1259 1875 
L 1259 0 
L 628 0 
L 628 4666 
z
" transform="scale(0.015625)"/>
      <path id="DejaVuSans-4d" d="M 628 4666 
L 1569 4666 
L 2759 1491 
L 3956 4666 
L 4897 4666 
L 4897 0 
L 4281 0 
L 4281 4097 
L 3078 897 
L 2444 897 
L 1241 4097 
L 1241 0 
L 628 0 
L 628 4666 
z
" transform="scale(0.015625)"/>
     </defs>
     <use xlink:href="#DejaVuSans-52"/>
     <use xlink:href="#DejaVuSans-50" x="69.482422"/>
     <use xlink:href="#DejaVuSans-4d" x="129.785156"/>
    </g>
   </g>
  </g>
  <g id="axes_3">
   <g id="patch_12">
    <path d="M 54.175 450.966667 
L 350.0375 450.966667 
L 350.0375 254.033333 
L 54.175 254.033333 
z
" style="fill: #ffffff"/>
   </g>
   <g id="matplotlib.axis_5">
    <g id="xtick_19">
     <g id="line2d_33">
      <g>
       <use xlink:href="#m2eb35a546d" x="66.947502" y="450.966667" style="stroke: #000000; stroke-width: 0.8"/>
      </g>
     </g>
    </g>
    <g id="xtick_20">
     <g id="line2d_34">
      <g>
       <use xlink:href="#m2eb35a546d" x="100.737189" y="450.966667" style="stroke: #000000; stroke-width: 0.8"/>
      </g>
     </g>
    </g>
    <g id="xtick_21">
     <g id="line2d_35">
      <g>
       <use xlink:href="#m2eb35a546d" x="134.526876" y="450.966667" style="stroke: #000000; stroke-width: 0.8"/>
      </g>
     </g>
    </g>
    <g id="xtick_22">
     <g id="line2d_36">
      <g>
       <use xlink:href="#m2eb35a546d" x="168.316563" y="450.966667" style="stroke: #000000; stroke-width: 0.8"/>
      </g>
     </g>
    </g>
    <g id="xtick_23">
     <g id="line2d_37">
      <g>
       <use xlink:href="#m2eb35a546d" x="202.10625" y="450.966667" style="stroke: #000000; stroke-width: 0.8"/>
      </g>
     </g>
    </g>
    <g id="xtick_24">
     <g id="line2d_38">
      <g>
       <use xlink:href="#m2eb35a546d" x="235.895937" y="450.966667" style="stroke: #000000; stroke-width: 0.8"/>
      </g>
     </g>
    </g>
    <g id="xtick_25">
     <g id="line2d_39">
      <g>
       <use xlink:href="#m2eb35a546d" x="269.685624" y="450.966667" style="stroke: #000000; stroke-width: 0.8"/>
      </g>
     </g>
    </g>
    <g id="xtick_26">
     <g id="line2d_40">
      <g>
       <use xlink:href="#m2eb35a546d" x="303.475311" y="450.966667" style="stroke: #000000; stroke-width: 0.8"/>
      </g>
     </g>
    </g>
    <g id="xtick_27">
     <g id="line2d_41">
      <g>
       <use xlink:href="#m2eb35a546d" x="337.264998" y="450.966667" style="stroke: #000000; stroke-width: 0.8"/>
      </g>
     </g>
    </g>
   </g>
   <g id="matplotlib.axis_6">
    <g id="ytick_13">
     <g id="line2d_42">
      <g>
       <use xlink:href="#m7883fbfbb0" x="54.175" y="442.015152" style="stroke: #000000; stroke-width: 0.8"/>
      </g>
     </g>
     <g id="text_17">
      <!-- 0 -->
      <g transform="translate(40.8125 445.81437)scale(0.1 -0.1)">
       <use xlink:href="#DejaVuSans-30"/>
      </g>
     </g>
    </g>
    <g id="ytick_14">
     <g id="line2d_43">
      <g>
       <use xlink:href="#m7883fbfbb0" x="54.175" y="406.209091" style="stroke: #000000; stroke-width: 0.8"/>
      </g>
     </g>
     <g id="text_18">
      <!-- 20 -->
      <g transform="translate(34.45 410.00831)scale(0.1 -0.1)">
       <use xlink:href="#DejaVuSans-32"/>
       <use xlink:href="#DejaVuSans-30" x="63.623047"/>
      </g>
     </g>
    </g>
    <g id="ytick_15">
     <g id="line2d_44">
      <g>
       <use xlink:href="#m7883fbfbb0" x="54.175" y="370.40303" style="stroke: #000000; stroke-width: 0.8"/>
      </g>
     </g>
     <g id="text_19">
      <!-- 40 -->
      <g transform="translate(34.45 374.202249)scale(0.1 -0.1)">
       <defs>
        <path id="DejaVuSans-34" d="M 2419 4116 
L 825 1625 
L 2419 1625 
L 2419 4116 
z
M 2253 4666 
L 3047 4666 
L 3047 1625 
L 3713 1625 
L 3713 1100 
L 3047 1100 
L 3047 0 
L 2419 0 
L 2419 1100 
L 313 1100 
L 313 1709 
L 2253 4666 
z
" transform="scale(0.015625)"/>
       </defs>
       <use xlink:href="#DejaVuSans-34"/>
       <use xlink:href="#DejaVuSans-30" x="63.623047"/>
      </g>
     </g>
    </g>
    <g id="ytick_16">
     <g id="line2d_45">
      <g>
       <use xlink:href="#m7883fbfbb0" x="54.175" y="334.59697" style="stroke: #000000; stroke-width: 0.8"/>
      </g>
     </g>
     <g id="text_20">
      <!-- 60 -->
      <g transform="translate(34.45 338.396188)scale(0.1 -0.1)">
       <use xlink:href="#DejaVuSans-36"/>
       <use xlink:href="#DejaVuSans-30" x="63.623047"/>
      </g>
     </g>
    </g>
    <g id="ytick_17">
     <g id="line2d_46">
      <g>
       <use xlink:href="#m7883fbfbb0" x="54.175" y="298.790909" style="stroke: #000000; stroke-width: 0.8"/>
      </g>
     </g>
     <g id="text_21">
      <!-- 80 -->
      <g transform="translate(34.45 302.590128)scale(0.1 -0.1)">
       <use xlink:href="#DejaVuSans-38"/>
       <use xlink:href="#DejaVuSans-30" x="63.623047"/>
      </g>
     </g>
    </g>
    <g id="ytick_18">
     <g id="line2d_47">
      <g>
       <use xlink:href="#m7883fbfbb0" x="54.175" y="262.984848" style="stroke: #000000; stroke-width: 0.8"/>
      </g>
     </g>
     <g id="text_22">
      <!-- 100 -->
      <g transform="translate(28.0875 266.784067)scale(0.1 -0.1)">
       <use xlink:href="#DejaVuSans-31"/>
       <use xlink:href="#DejaVuSans-30" x="63.623047"/>
       <use xlink:href="#DejaVuSans-30" x="127.246094"/>
      </g>
     </g>
    </g>
    <g id="text_23">
     <!-- Percentage of brake -->
     <g transform="translate(22.007812 402.704687)rotate(-90)scale(0.1 -0.1)">
      <defs>
       <path id="DejaVuSans-63" d="M 3122 3366 
L 3122 2828 
Q 2878 2963 2633 3030 
Q 2388 3097 2138 3097 
Q 1578 3097 1268 2742 
Q 959 2388 959 1747 
Q 959 1106 1268 751 
Q 1578 397 2138 397 
Q 2388 397 2633 464 
Q 2878 531 3122 666 
L 3122 134 
Q 2881 22 2623 -34 
Q 2366 -91 2075 -91 
Q 1284 -91 818 406 
Q 353 903 353 1747 
Q 353 2603 823 3093 
Q 1294 3584 2113 3584 
Q 2378 3584 2631 3529 
Q 2884 3475 3122 3366 
z
" transform="scale(0.015625)"/>
       <path id="DejaVuSans-67" d="M 2906 1791 
Q 2906 2416 2648 2759 
Q 2391 3103 1925 3103 
Q 1463 3103 1205 2759 
Q 947 2416 947 1791 
Q 947 1169 1205 825 
Q 1463 481 1925 481 
Q 2391 481 2648 825 
Q 2906 1169 2906 1791 
z
M 3481 434 
Q 3481 -459 3084 -895 
Q 2688 -1331 1869 -1331 
Q 1566 -1331 1297 -1286 
Q 1028 -1241 775 -1147 
L 775 -588 
Q 1028 -725 1275 -790 
Q 1522 -856 1778 -856 
Q 2344 -856 2625 -561 
Q 2906 -266 2906 331 
L 2906 616 
Q 2728 306 2450 153 
Q 2172 0 1784 0 
Q 1141 0 747 490 
Q 353 981 353 1791 
Q 353 2603 747 3093 
Q 1141 3584 1784 3584 
Q 2172 3584 2450 3431 
Q 2728 3278 2906 2969 
L 2906 3500 
L 3481 3500 
L 3481 434 
z
" transform="scale(0.015625)"/>
       <path id="DejaVuSans-66" d="M 2375 4863 
L 2375 4384 
L 1825 4384 
Q 1516 4384 1395 4259 
Q 1275 4134 1275 3809 
L 1275 3500 
L 2222 3500 
L 2222 3053 
L 1275 3053 
L 1275 0 
L 697 0 
L 697 3053 
L 147 3053 
L 147 3500 
L 697 3500 
L 697 3744 
Q 697 4328 969 4595 
Q 1241 4863 1831 4863 
L 2375 4863 
z
" transform="scale(0.015625)"/>
       <path id="DejaVuSans-62" d="M 3116 1747 
Q 3116 2381 2855 2742 
Q 2594 3103 2138 3103 
Q 1681 3103 1420 2742 
Q 1159 2381 1159 1747 
Q 1159 1113 1420 752 
Q 1681 391 2138 391 
Q 2594 391 2855 752 
Q 3116 1113 3116 1747 
z
M 1159 2969 
Q 1341 3281 1617 3432 
Q 1894 3584 2278 3584 
Q 2916 3584 3314 3078 
Q 3713 2572 3713 1747 
Q 3713 922 3314 415 
Q 2916 -91 2278 -91 
Q 1894 -91 1617 61 
Q 1341 213 1159 525 
L 1159 0 
L 581 0 
L 581 4863 
L 1159 4863 
L 1159 2969 
z
" transform="scale(0.015625)"/>
      </defs>
      <use xlink:href="#DejaVuSans-50"/>
      <use xlink:href="#DejaVuSans-65" x="56.677734"/>
      <use xlink:href="#DejaVuSans-72" x="118.201172"/>
      <use xlink:href="#DejaVuSans-63" x="157.064453"/>
      <use xlink:href="#DejaVuSans-65" x="212.044922"/>
      <use xlink:href="#DejaVuSans-6e" x="273.568359"/>
      <use xlink:href="#DejaVuSans-74" x="336.947266"/>
      <use xlink:href="#DejaVuSans-61" x="376.15625"/>
      <use xlink:href="#DejaVuSans-67" x="437.435547"/>
      <use xlink:href="#DejaVuSans-65" x="500.912109"/>
      <use xlink:href="#DejaVuSans-20" x="562.435547"/>
      <use xlink:href="#DejaVuSans-6f" x="594.222656"/>
      <use xlink:href="#DejaVuSans-66" x="655.404297"/>
      <use xlink:href="#DejaVuSans-20" x="690.609375"/>
      <use xlink:href="#DejaVuSans-62" x="722.396484"/>
      <use xlink:href="#DejaVuSans-72" x="785.873047"/>
      <use xlink:href="#DejaVuSans-61" x="826.986328"/>
      <use xlink:href="#DejaVuSans-6b" x="888.265625"/>
      <use xlink:href="#DejaVuSans-65" x="942.550781"/>
     </g>
    </g>
   </g>
   <g id="line2d_48">
    <path d="M 67.623295 442.015152 
L 94.992942 442.015152 
L 95.668736 262.984848 
L 104.454054 262.984848 
L 105.129848 442.015152 
L 111.549889 442.015152 
L 112.225682 262.984848 
L 114.253064 262.984848 
L 114.928857 442.015152 
L 154.462791 442.015152 
L 155.138585 262.984848 
L 160.207038 262.984848 
L 160.882832 442.015152 
L 167.978666 442.015152 
L 168.65446 262.984848 
L 171.695532 262.984848 
L 172.371325 442.015152 
L 211.229466 442.015152 
L 211.905259 262.984848 
L 213.93264 262.984848 
L 214.946331 442.015152 
L 235.220143 442.015152 
L 235.895937 262.984848 
L 237.585421 262.984848 
L 238.261215 442.015152 
L 240.96439 442.015152 
L 241.640184 262.984848 
L 242.315978 442.015152 
L 246.032843 442.015152 
L 246.708637 262.984848 
L 248.060224 262.984848 
L 248.736018 442.015152 
L 283.539396 442.015152 
L 284.21519 262.984848 
L 286.918365 262.984848 
L 287.594158 442.015152 
L 305.502692 442.015152 
L 306.178486 262.984848 
L 313.27432 262.984848 
L 313.950114 442.015152 
L 336.589205 442.015152 
L 336.589205 442.015152 
" clip-path="url(#pdceab87453)" style="fill: none; stroke: #1f77b4; stroke-width: 1.5; stroke-linecap: square"/>
   </g>
   <g id="patch_13">
    <path d="M 54.175 450.966667 
L 54.175 254.033333 
" style="fill: none; stroke: #000000; stroke-width: 0.8; stroke-linejoin: miter; stroke-linecap: square"/>
   </g>
   <g id="patch_14">
    <path d="M 350.0375 450.966667 
L 350.0375 254.033333 
" style="fill: none; stroke: #000000; stroke-width: 0.8; stroke-linejoin: miter; stroke-linecap: square"/>
   </g>
   <g id="patch_15">
    <path d="M 54.175 450.966667 
L 350.0375 450.966667 
" style="fill: none; stroke: #000000; stroke-width: 0.8; stroke-linejoin: miter; stroke-linecap: square"/>
   </g>
   <g id="patch_16">
    <path d="M 54.175 254.033333 
L 350.0375 254.033333 
" style="fill: none; stroke: #000000; stroke-width: 0.8; stroke-linejoin: miter; stroke-linecap: square"/>
   </g>
   <g id="text_24">
    <!-- Brake -->
    <g transform="translate(184.8975 248.033333)scale(0.12 -0.12)">
     <defs>
      <path id="DejaVuSans-42" d="M 1259 2228 
L 1259 519 
L 2272 519 
Q 2781 519 3026 730 
Q 3272 941 3272 1375 
Q 3272 1813 3026 2020 
Q 2781 2228 2272 2228 
L 1259 2228 
z
M 1259 4147 
L 1259 2741 
L 2194 2741 
Q 2656 2741 2882 2914 
Q 3109 3088 3109 3444 
Q 3109 3797 2882 3972 
Q 2656 4147 2194 4147 
L 1259 4147 
z
M 628 4666 
L 2241 4666 
Q 2963 4666 3353 4366 
Q 3744 4066 3744 3513 
Q 3744 3084 3544 2831 
Q 3344 2578 2956 2516 
Q 3422 2416 3680 2098 
Q 3938 1781 3938 1306 
Q 3938 681 3513 340 
Q 3088 0 2303 0 
L 628 0 
L 628 4666 
z
" transform="scale(0.015625)"/>
     </defs>
     <use xlink:href="#DejaVuSans-42"/>
     <use xlink:href="#DejaVuSans-72" x="68.603516"/>
     <use xlink:href="#DejaVuSans-61" x="109.716797"/>
     <use xlink:href="#DejaVuSans-6b" x="170.996094"/>
     <use xlink:href="#DejaVuSans-65" x="225.28125"/>
    </g>
   </g>
  </g>
  <g id="axes_4">
   <g id="patch_17">
    <path d="M 413.3375 450.966667 
L 709.2 450.966667 
L 709.2 254.033333 
L 413.3375 254.033333 
z
" style="fill: #ffffff"/>
   </g>
   <g id="matplotlib.axis_7">
    <g id="xtick_28">
     <g id="line2d_49">
      <g>
       <use xlink:href="#m2eb35a546d" x="426.110002" y="450.966667" style="stroke: #000000; stroke-width: 0.8"/>
      </g>
     </g>
    </g>
    <g id="xtick_29">
     <g id="line2d_50">
      <g>
       <use xlink:href="#m2eb35a546d" x="459.899689" y="450.966667" style="stroke: #000000; stroke-width: 0.8"/>
      </g>
     </g>
    </g>
    <g id="xtick_30">
     <g id="line2d_51">
      <g>
       <use xlink:href="#m2eb35a546d" x="493.689376" y="450.966667" style="stroke: #000000; stroke-width: 0.8"/>
      </g>
     </g>
    </g>
    <g id="xtick_31">
     <g id="line2d_52">
      <g>
       <use xlink:href="#m2eb35a546d" x="527.479063" y="450.966667" style="stroke: #000000; stroke-width: 0.8"/>
      </g>
     </g>
    </g>
    <g id="xtick_32">
     <g id="line2d_53">
      <g>
       <use xlink:href="#m2eb35a546d" x="561.26875" y="450.966667" style="stroke: #000000; stroke-width: 0.8"/>
      </g>
     </g>
    </g>
    <g id="xtick_33">
     <g id="line2d_54">
      <g>
       <use xlink:href="#m2eb35a546d" x="595.058437" y="450.966667" style="stroke: #000000; stroke-width: 0.8"/>
      </g>
     </g>
    </g>
    <g id="xtick_34">
     <g id="line2d_55">
      <g>
       <use xlink:href="#m2eb35a546d" x="628.848124" y="450.966667" style="stroke: #000000; stroke-width: 0.8"/>
      </g>
     </g>
    </g>
    <g id="xtick_35">
     <g id="line2d_56">
      <g>
       <use xlink:href="#m2eb35a546d" x="662.637811" y="450.966667" style="stroke: #000000; stroke-width: 0.8"/>
      </g>
     </g>
    </g>
    <g id="xtick_36">
     <g id="line2d_57">
      <g>
       <use xlink:href="#m2eb35a546d" x="696.427498" y="450.966667" style="stroke: #000000; stroke-width: 0.8"/>
      </g>
     </g>
    </g>
   </g>
   <g id="matplotlib.axis_8">
    <g id="ytick_19">
     <g id="line2d_58">
      <g>
       <use xlink:href="#m7883fbfbb0" x="413.3375" y="442.015152" style="stroke: #000000; stroke-width: 0.8"/>
      </g>
     </g>
     <g id="text_25">
      <!-- 0 -->
      <g transform="translate(399.975 445.81437)scale(0.1 -0.1)">
       <use xlink:href="#DejaVuSans-30"/>
      </g>
     </g>
    </g>
    <g id="ytick_20">
     <g id="line2d_59">
      <g>
       <use xlink:href="#m7883fbfbb0" x="413.3375" y="406.209091" style="stroke: #000000; stroke-width: 0.8"/>
      </g>
     </g>
     <g id="text_26">
      <!-- 20 -->
      <g transform="translate(393.6125 410.00831)scale(0.1 -0.1)">
       <use xlink:href="#DejaVuSans-32"/>
       <use xlink:href="#DejaVuSans-30" x="63.623047"/>
      </g>
     </g>
    </g>
    <g id="ytick_21">
     <g id="line2d_60">
      <g>
       <use xlink:href="#m7883fbfbb0" x="413.3375" y="370.40303" style="stroke: #000000; stroke-width: 0.8"/>
      </g>
     </g>
     <g id="text_27">
      <!-- 40 -->
      <g transform="translate(393.6125 374.202249)scale(0.1 -0.1)">
       <use xlink:href="#DejaVuSans-34"/>
       <use xlink:href="#DejaVuSans-30" x="63.623047"/>
      </g>
     </g>
    </g>
    <g id="ytick_22">
     <g id="line2d_61">
      <g>
       <use xlink:href="#m7883fbfbb0" x="413.3375" y="334.59697" style="stroke: #000000; stroke-width: 0.8"/>
      </g>
     </g>
     <g id="text_28">
      <!-- 60 -->
      <g transform="translate(393.6125 338.396188)scale(0.1 -0.1)">
       <use xlink:href="#DejaVuSans-36"/>
       <use xlink:href="#DejaVuSans-30" x="63.623047"/>
      </g>
     </g>
    </g>
    <g id="ytick_23">
     <g id="line2d_62">
      <g>
       <use xlink:href="#m7883fbfbb0" x="413.3375" y="298.790909" style="stroke: #000000; stroke-width: 0.8"/>
      </g>
     </g>
     <g id="text_29">
      <!-- 80 -->
      <g transform="translate(393.6125 302.590128)scale(0.1 -0.1)">
       <use xlink:href="#DejaVuSans-38"/>
       <use xlink:href="#DejaVuSans-30" x="63.623047"/>
      </g>
     </g>
    </g>
    <g id="ytick_24">
     <g id="line2d_63">
      <g>
       <use xlink:href="#m7883fbfbb0" x="413.3375" y="262.984848" style="stroke: #000000; stroke-width: 0.8"/>
      </g>
     </g>
     <g id="text_30">
      <!-- 100 -->
      <g transform="translate(387.25 266.784067)scale(0.1 -0.1)">
       <use xlink:href="#DejaVuSans-31"/>
       <use xlink:href="#DejaVuSans-30" x="63.623047"/>
       <use xlink:href="#DejaVuSans-30" x="127.246094"/>
      </g>
     </g>
    </g>
    <g id="text_31">
     <!-- Percentage of throttle -->
     <g transform="translate(381.170313 407.1375)rotate(-90)scale(0.1 -0.1)">
      <defs>
       <path id="DejaVuSans-6c" d="M 603 4863 
L 1178 4863 
L 1178 0 
L 603 0 
L 603 4863 
z
" transform="scale(0.015625)"/>
      </defs>
      <use xlink:href="#DejaVuSans-50"/>
      <use xlink:href="#DejaVuSans-65" x="56.677734"/>
      <use xlink:href="#DejaVuSans-72" x="118.201172"/>
      <use xlink:href="#DejaVuSans-63" x="157.064453"/>
      <use xlink:href="#DejaVuSans-65" x="212.044922"/>
      <use xlink:href="#DejaVuSans-6e" x="273.568359"/>
      <use xlink:href="#DejaVuSans-74" x="336.947266"/>
      <use xlink:href="#DejaVuSans-61" x="376.15625"/>
      <use xlink:href="#DejaVuSans-67" x="437.435547"/>
      <use xlink:href="#DejaVuSans-65" x="500.912109"/>
      <use xlink:href="#DejaVuSans-20" x="562.435547"/>
      <use xlink:href="#DejaVuSans-6f" x="594.222656"/>
      <use xlink:href="#DejaVuSans-66" x="655.404297"/>
      <use xlink:href="#DejaVuSans-20" x="690.609375"/>
      <use xlink:href="#DejaVuSans-74" x="722.396484"/>
      <use xlink:href="#DejaVuSans-68" x="761.605469"/>
      <use xlink:href="#DejaVuSans-72" x="824.984375"/>
      <use xlink:href="#DejaVuSans-6f" x="863.847656"/>
      <use xlink:href="#DejaVuSans-74" x="925.029297"/>
      <use xlink:href="#DejaVuSans-74" x="964.238281"/>
      <use xlink:href="#DejaVuSans-6c" x="1003.447266"/>
      <use xlink:href="#DejaVuSans-65" x="1031.230469"/>
     </g>
    </g>
   </g>
   <g id="line2d_64">
    <path d="M 426.785795 262.984848 
L 454.155442 262.984848 
L 455.169133 393.67697 
L 455.507029 442.015152 
L 464.292348 442.015152 
L 464.968142 393.67697 
L 465.643936 366.822424 
L 466.319729 363.241818 
L 466.657626 363.241818 
L 466.995523 361.451515 
L 467.33342 357.870909 
L 467.671317 352.5 
L 468.347111 345.338788 
L 469.022904 334.59697 
L 469.360801 334.59697 
L 469.698698 332.806667 
L 470.374492 336.387273 
L 470.712389 336.387273 
L 471.388182 442.015152 
L 477.808223 442.015152 
L 478.14612 438.434545 
L 478.484017 433.063636 
L 479.15981 384.725455 
L 479.835604 373.983636 
L 480.511398 370.40303 
L 480.849295 365.032121 
L 481.187192 357.870909 
L 481.525089 354.290303 
L 481.862985 348.919394 
L 482.200882 347.129091 
L 482.538779 343.548485 
L 483.214573 322.064848 
L 483.55247 320.274545 
L 484.228263 313.113333 
L 484.56616 307.742424 
L 484.904057 300.581212 
L 485.241954 298.790909 
L 485.579851 295.210303 
L 486.255645 262.984848 
L 514.301085 262.984848 
L 514.976879 433.063636 
L 515.652672 440.224848 
L 515.990569 442.015152 
L 517.00426 442.015152 
L 517.342157 440.224848 
L 517.680054 442.015152 
L 521.396919 442.015152 
L 521.734816 436.644242 
L 522.072713 429.48303 
L 522.748507 390.096364 
L 523.762197 357.870909 
L 524.100094 356.080606 
L 524.437991 352.5 
L 525.451682 322.064848 
L 525.789579 314.903636 
L 526.127475 314.903636 
L 526.465372 313.113333 
L 527.141166 262.984848 
L 527.81696 418.741212 
L 528.492754 442.015152 
L 531.533825 442.015152 
L 532.209619 438.434545 
L 532.547516 433.063636 
L 532.885413 425.902424 
L 533.22331 424.112121 
L 534.237 413.370303 
L 534.574897 411.58 
L 535.250691 404.418788 
L 535.588588 399.047879 
L 536.264382 418.741212 
L 536.940175 384.725455 
L 537.953866 368.612727 
L 538.291763 366.822424 
L 538.62966 363.241818 
L 538.967557 357.870909 
L 539.981247 336.387273 
L 540.657041 339.967879 
L 541.332835 329.226061 
L 542.008628 298.790909 
L 542.684422 295.210303 
L 543.022319 291.629697 
L 543.360216 286.258788 
L 544.03601 262.984848 
L 570.391966 262.984848 
L 571.067759 284.468485 
L 571.743553 372.193333 
L 572.08145 368.612727 
L 573.09514 352.5 
L 573.770934 345.338788 
L 574.108831 339.967879 
L 574.784625 311.32303 
L 575.460419 262.984848 
L 594.382643 262.984848 
L 595.058437 356.080606 
L 595.734231 384.725455 
L 596.072128 382.935152 
L 596.747921 375.773939 
L 597.423715 350.709697 
L 598.099509 262.984848 
L 600.12689 262.984848 
L 600.802684 427.692727 
L 601.478478 440.224848 
L 602.154271 399.047879 
L 602.830065 395.467273 
L 603.167962 391.886667 
L 603.843756 370.40303 
L 604.181653 365.032121 
L 604.519549 357.870909 
L 605.195343 390.096364 
L 605.871137 436.644242 
L 606.546931 440.224848 
L 607.222724 436.644242 
L 607.560621 436.644242 
L 607.898518 434.853939 
L 608.912209 382.935152 
L 609.250106 365.032121 
L 609.925899 354.290303 
L 610.601693 341.758182 
L 610.93959 336.387273 
L 611.615384 295.210303 
L 611.953281 295.210303 
L 612.291177 293.42 
L 612.966971 262.984848 
L 642.701896 262.984848 
L 643.37769 404.418788 
L 644.053483 436.644242 
L 644.39138 438.434545 
L 644.729277 438.434545 
L 645.067174 440.224848 
L 648.446143 440.224848 
L 649.121936 436.644242 
L 649.79773 370.40303 
L 650.473524 359.661212 
L 651.149318 359.661212 
L 651.825111 314.903636 
L 652.500905 298.790909 
L 653.176699 262.984848 
L 664.665192 262.984848 
L 665.340986 429.48303 
L 666.01678 442.015152 
L 673.112614 442.015152 
L 673.788408 420.531515 
L 674.464202 388.306061 
L 675.815789 350.709697 
L 676.153686 347.129091 
L 676.82948 336.387273 
L 677.505274 336.387273 
L 678.181067 359.661212 
L 678.856861 442.015152 
L 680.208448 400.838182 
L 680.884242 365.032121 
L 681.560036 345.338788 
L 681.897933 341.758182 
L 682.23583 336.387273 
L 683.24952 314.903636 
L 683.587417 313.113333 
L 683.925314 309.532727 
L 684.601108 286.258788 
L 685.276902 289.839394 
L 685.952695 262.984848 
L 695.751705 262.984848 
L 695.751705 262.984848 
" clip-path="url(#pd7edf34c7e)" style="fill: none; stroke: #1f77b4; stroke-width: 1.5; stroke-linecap: square"/>
   </g>
   <g id="patch_18">
    <path d="M 413.3375 450.966667 
L 413.3375 254.033333 
" style="fill: none; stroke: #000000; stroke-width: 0.8; stroke-linejoin: miter; stroke-linecap: square"/>
   </g>
   <g id="patch_19">
    <path d="M 709.2 450.966667 
L 709.2 254.033333 
" style="fill: none; stroke: #000000; stroke-width: 0.8; stroke-linejoin: miter; stroke-linecap: square"/>
   </g>
   <g id="patch_20">
    <path d="M 413.3375 450.966667 
L 709.2 450.966667 
" style="fill: none; stroke: #000000; stroke-width: 0.8; stroke-linejoin: miter; stroke-linecap: square"/>
   </g>
   <g id="patch_21">
    <path d="M 413.3375 254.033333 
L 709.2 254.033333 
" style="fill: none; stroke: #000000; stroke-width: 0.8; stroke-linejoin: miter; stroke-linecap: square"/>
   </g>
   <g id="text_32">
    <!-- Throttle -->
    <g transform="translate(537.735625 248.033333)scale(0.12 -0.12)">
     <defs>
      <path id="DejaVuSans-54" d="M -19 4666 
L 3928 4666 
L 3928 4134 
L 2272 4134 
L 2272 0 
L 1638 0 
L 1638 4134 
L -19 4134 
L -19 4666 
z
" transform="scale(0.015625)"/>
     </defs>
     <use xlink:href="#DejaVuSans-54"/>
     <use xlink:href="#DejaVuSans-68" x="61.083984"/>
     <use xlink:href="#DejaVuSans-72" x="124.462891"/>
     <use xlink:href="#DejaVuSans-6f" x="163.326172"/>
     <use xlink:href="#DejaVuSans-74" x="224.507812"/>
     <use xlink:href="#DejaVuSans-74" x="263.716797"/>
     <use xlink:href="#DejaVuSans-6c" x="302.925781"/>
     <use xlink:href="#DejaVuSans-65" x="330.708984"/>
    </g>
   </g>
  </g>
  <g id="axes_5">
   <g id="patch_22">
    <path d="M 54.175 678.2 
L 350.0375 678.2 
L 350.0375 481.266667 
L 54.175 481.266667 
z
" style="fill: #ffffff"/>
   </g>
   <g id="matplotlib.axis_9">
    <g id="xtick_37">
     <g id="line2d_65">
      <g>
       <use xlink:href="#m2eb35a546d" x="66.947502" y="678.2" style="stroke: #000000; stroke-width: 0.8"/>
      </g>
     </g>
     <g id="text_33">
      <!-- 0 -->
      <g transform="translate(63.766252 692.798437)scale(0.1 -0.1)">
       <use xlink:href="#DejaVuSans-30"/>
      </g>
     </g>
    </g>
    <g id="xtick_38">
     <g id="line2d_66">
      <g>
       <use xlink:href="#m2eb35a546d" x="100.737189" y="678.2" style="stroke: #000000; stroke-width: 0.8"/>
      </g>
     </g>
     <g id="text_34">
      <!-- 100 -->
      <g transform="translate(91.193439 692.798437)scale(0.1 -0.1)">
       <use xlink:href="#DejaVuSans-31"/>
       <use xlink:href="#DejaVuSans-30" x="63.623047"/>
       <use xlink:href="#DejaVuSans-30" x="127.246094"/>
      </g>
     </g>
    </g>
    <g id="xtick_39">
     <g id="line2d_67">
      <g>
       <use xlink:href="#m2eb35a546d" x="134.526876" y="678.2" style="stroke: #000000; stroke-width: 0.8"/>
      </g>
     </g>
     <g id="text_35">
      <!-- 200 -->
      <g transform="translate(124.983126 692.798437)scale(0.1 -0.1)">
       <use xlink:href="#DejaVuSans-32"/>
       <use xlink:href="#DejaVuSans-30" x="63.623047"/>
       <use xlink:href="#DejaVuSans-30" x="127.246094"/>
      </g>
     </g>
    </g>
    <g id="xtick_40">
     <g id="line2d_68">
      <g>
       <use xlink:href="#m2eb35a546d" x="168.316563" y="678.2" style="stroke: #000000; stroke-width: 0.8"/>
      </g>
     </g>
     <g id="text_36">
      <!-- 300 -->
      <g transform="translate(158.772813 692.798437)scale(0.1 -0.1)">
       <use xlink:href="#DejaVuSans-33"/>
       <use xlink:href="#DejaVuSans-30" x="63.623047"/>
       <use xlink:href="#DejaVuSans-30" x="127.246094"/>
      </g>
     </g>
    </g>
    <g id="xtick_41">
     <g id="line2d_69">
      <g>
       <use xlink:href="#m2eb35a546d" x="202.10625" y="678.2" style="stroke: #000000; stroke-width: 0.8"/>
      </g>
     </g>
     <g id="text_37">
      <!-- 400 -->
      <g transform="translate(192.5625 692.798437)scale(0.1 -0.1)">
       <use xlink:href="#DejaVuSans-34"/>
       <use xlink:href="#DejaVuSans-30" x="63.623047"/>
       <use xlink:href="#DejaVuSans-30" x="127.246094"/>
      </g>
     </g>
    </g>
    <g id="xtick_42">
     <g id="line2d_70">
      <g>
       <use xlink:href="#m2eb35a546d" x="235.895937" y="678.2" style="stroke: #000000; stroke-width: 0.8"/>
      </g>
     </g>
     <g id="text_38">
      <!-- 500 -->
      <g transform="translate(226.352187 692.798437)scale(0.1 -0.1)">
       <use xlink:href="#DejaVuSans-35"/>
       <use xlink:href="#DejaVuSans-30" x="63.623047"/>
       <use xlink:href="#DejaVuSans-30" x="127.246094"/>
      </g>
     </g>
    </g>
    <g id="xtick_43">
     <g id="line2d_71">
      <g>
       <use xlink:href="#m2eb35a546d" x="269.685624" y="678.2" style="stroke: #000000; stroke-width: 0.8"/>
      </g>
     </g>
     <g id="text_39">
      <!-- 600 -->
      <g transform="translate(260.141874 692.798437)scale(0.1 -0.1)">
       <use xlink:href="#DejaVuSans-36"/>
       <use xlink:href="#DejaVuSans-30" x="63.623047"/>
       <use xlink:href="#DejaVuSans-30" x="127.246094"/>
      </g>
     </g>
    </g>
    <g id="xtick_44">
     <g id="line2d_72">
      <g>
       <use xlink:href="#m2eb35a546d" x="303.475311" y="678.2" style="stroke: #000000; stroke-width: 0.8"/>
      </g>
     </g>
     <g id="text_40">
      <!-- 700 -->
      <g transform="translate(293.931561 692.798437)scale(0.1 -0.1)">
       <use xlink:href="#DejaVuSans-37"/>
       <use xlink:href="#DejaVuSans-30" x="63.623047"/>
       <use xlink:href="#DejaVuSans-30" x="127.246094"/>
      </g>
     </g>
    </g>
    <g id="xtick_45">
     <g id="line2d_73">
      <g>
       <use xlink:href="#m2eb35a546d" x="337.264998" y="678.2" style="stroke: #000000; stroke-width: 0.8"/>
      </g>
     </g>
     <g id="text_41">
      <!-- 800 -->
      <g transform="translate(327.721248 692.798437)scale(0.1 -0.1)">
       <use xlink:href="#DejaVuSans-38"/>
       <use xlink:href="#DejaVuSans-30" x="63.623047"/>
       <use xlink:href="#DejaVuSans-30" x="127.246094"/>
      </g>
     </g>
    </g>
    <g id="text_42">
     <!-- Sample -->
     <g transform="translate(183.357812 706.476562)scale(0.1 -0.1)">
      <use xlink:href="#DejaVuSans-53"/>
      <use xlink:href="#DejaVuSans-61" x="63.476562"/>
      <use xlink:href="#DejaVuSans-6d" x="124.755859"/>
      <use xlink:href="#DejaVuSans-70" x="222.167969"/>
      <use xlink:href="#DejaVuSans-6c" x="285.644531"/>
      <use xlink:href="#DejaVuSans-65" x="313.427734"/>
     </g>
    </g>
   </g>
   <g id="matplotlib.axis_10">
    <g id="ytick_25">
     <g id="line2d_74">
      <g>
       <use xlink:href="#m7883fbfbb0" x="54.175" y="669.248485" style="stroke: #000000; stroke-width: 0.8"/>
      </g>
     </g>
     <g id="text_43">
      <!-- 0 -->
      <g transform="translate(40.8125 673.047704)scale(0.1 -0.1)">
       <use xlink:href="#DejaVuSans-30"/>
      </g>
     </g>
    </g>
    <g id="ytick_26">
     <g id="line2d_75">
      <g>
       <use xlink:href="#m7883fbfbb0" x="54.175" y="643.672727" style="stroke: #000000; stroke-width: 0.8"/>
      </g>
     </g>
     <g id="text_44">
      <!-- 2 -->
      <g transform="translate(40.8125 647.471946)scale(0.1 -0.1)">
       <use xlink:href="#DejaVuSans-32"/>
      </g>
     </g>
    </g>
    <g id="ytick_27">
     <g id="line2d_76">
      <g>
       <use xlink:href="#m7883fbfbb0" x="54.175" y="618.09697" style="stroke: #000000; stroke-width: 0.8"/>
      </g>
     </g>
     <g id="text_45">
      <!-- 4 -->
      <g transform="translate(40.8125 621.896188)scale(0.1 -0.1)">
       <use xlink:href="#DejaVuSans-34"/>
      </g>
     </g>
    </g>
    <g id="ytick_28">
     <g id="line2d_77">
      <g>
       <use xlink:href="#m7883fbfbb0" x="54.175" y="592.521212" style="stroke: #000000; stroke-width: 0.8"/>
      </g>
     </g>
     <g id="text_46">
      <!-- 6 -->
      <g transform="translate(40.8125 596.320431)scale(0.1 -0.1)">
       <use xlink:href="#DejaVuSans-36"/>
      </g>
     </g>
    </g>
    <g id="ytick_29">
     <g id="line2d_78">
      <g>
       <use xlink:href="#m7883fbfbb0" x="54.175" y="566.945455" style="stroke: #000000; stroke-width: 0.8"/>
      </g>
     </g>
     <g id="text_47">
      <!-- 8 -->
      <g transform="translate(40.8125 570.744673)scale(0.1 -0.1)">
       <use xlink:href="#DejaVuSans-38"/>
      </g>
     </g>
    </g>
    <g id="ytick_30">
     <g id="line2d_79">
      <g>
       <use xlink:href="#m7883fbfbb0" x="54.175" y="541.369697" style="stroke: #000000; stroke-width: 0.8"/>
      </g>
     </g>
     <g id="text_48">
      <!-- 10 -->
      <g transform="translate(34.45 545.168916)scale(0.1 -0.1)">
       <use xlink:href="#DejaVuSans-31"/>
       <use xlink:href="#DejaVuSans-30" x="63.623047"/>
      </g>
     </g>
    </g>
    <g id="ytick_31">
     <g id="line2d_80">
      <g>
       <use xlink:href="#m7883fbfbb0" x="54.175" y="515.793939" style="stroke: #000000; stroke-width: 0.8"/>
      </g>
     </g>
     <g id="text_49">
      <!-- 12 -->
      <g transform="translate(34.45 519.593158)scale(0.1 -0.1)">
       <use xlink:href="#DejaVuSans-31"/>
       <use xlink:href="#DejaVuSans-32" x="63.623047"/>
      </g>
     </g>
    </g>
    <g id="ytick_32">
     <g id="line2d_81">
      <g>
       <use xlink:href="#m7883fbfbb0" x="54.175" y="490.218182" style="stroke: #000000; stroke-width: 0.8"/>
      </g>
     </g>
     <g id="text_50">
      <!-- 14 -->
      <g transform="translate(34.45 494.017401)scale(0.1 -0.1)">
       <use xlink:href="#DejaVuSans-31"/>
       <use xlink:href="#DejaVuSans-34" x="63.623047"/>
      </g>
     </g>
    </g>
    <g id="text_51">
     <!-- DRS Status -->
     <g transform="translate(28.370312 607.752865)rotate(-90)scale(0.1 -0.1)">
      <defs>
       <path id="DejaVuSans-44" d="M 1259 4147 
L 1259 519 
L 2022 519 
Q 2988 519 3436 956 
Q 3884 1394 3884 2338 
Q 3884 3275 3436 3711 
Q 2988 4147 2022 4147 
L 1259 4147 
z
M 628 4666 
L 1925 4666 
Q 3281 4666 3915 4102 
Q 4550 3538 4550 2338 
Q 4550 1131 3912 565 
Q 3275 0 1925 0 
L 628 0 
L 628 4666 
z
" transform="scale(0.015625)"/>
       <path id="DejaVuSans-73" d="M 2834 3397 
L 2834 2853 
Q 2591 2978 2328 3040 
Q 2066 3103 1784 3103 
Q 1356 3103 1142 2972 
Q 928 2841 928 2578 
Q 928 2378 1081 2264 
Q 1234 2150 1697 2047 
L 1894 2003 
Q 2506 1872 2764 1633 
Q 3022 1394 3022 966 
Q 3022 478 2636 193 
Q 2250 -91 1575 -91 
Q 1294 -91 989 -36 
Q 684 19 347 128 
L 347 722 
Q 666 556 975 473 
Q 1284 391 1588 391 
Q 1994 391 2212 530 
Q 2431 669 2431 922 
Q 2431 1156 2273 1281 
Q 2116 1406 1581 1522 
L 1381 1569 
Q 847 1681 609 1914 
Q 372 2147 372 2553 
Q 372 3047 722 3315 
Q 1072 3584 1716 3584 
Q 2034 3584 2315 3537 
Q 2597 3491 2834 3397 
z
" transform="scale(0.015625)"/>
      </defs>
      <use xlink:href="#DejaVuSans-44"/>
      <use xlink:href="#DejaVuSans-52" x="77.001953"/>
      <use xlink:href="#DejaVuSans-53" x="146.484375"/>
      <use xlink:href="#DejaVuSans-20" x="209.960938"/>
      <use xlink:href="#DejaVuSans-53" x="241.748047"/>
      <use xlink:href="#DejaVuSans-74" x="305.224609"/>
      <use xlink:href="#DejaVuSans-61" x="344.433594"/>
      <use xlink:href="#DejaVuSans-74" x="405.712891"/>
      <use xlink:href="#DejaVuSans-75" x="444.921875"/>
      <use xlink:href="#DejaVuSans-73" x="508.300781"/>
     </g>
    </g>
   </g>
   <g id="line2d_82">
    <path d="M 67.623295 669.248485 
L 111.887786 669.248485 
L 112.225682 566.945455 
L 135.20267 566.945455 
L 135.540566 490.218182 
L 136.554257 490.218182 
L 136.892154 515.793939 
L 155.476482 515.793939 
L 155.814379 669.248485 
L 248.398121 669.248485 
L 248.736018 566.945455 
L 259.210821 566.945455 
L 259.548718 490.218182 
L 259.886615 490.218182 
L 260.224512 515.793939 
L 283.877293 515.793939 
L 284.21519 669.248485 
L 336.589205 669.248485 
L 336.589205 669.248485 
" clip-path="url(#pb6075b3b1d)" style="fill: none; stroke: #1f77b4; stroke-width: 1.5; stroke-linecap: square"/>
   </g>
   <g id="patch_23">
    <path d="M 54.175 678.2 
L 54.175 481.266667 
" style="fill: none; stroke: #000000; stroke-width: 0.8; stroke-linejoin: miter; stroke-linecap: square"/>
   </g>
   <g id="patch_24">
    <path d="M 350.0375 678.2 
L 350.0375 481.266667 
" style="fill: none; stroke: #000000; stroke-width: 0.8; stroke-linejoin: miter; stroke-linecap: square"/>
   </g>
   <g id="patch_25">
    <path d="M 54.175 678.2 
L 350.0375 678.2 
" style="fill: none; stroke: #000000; stroke-width: 0.8; stroke-linejoin: miter; stroke-linecap: square"/>
   </g>
   <g id="patch_26">
    <path d="M 54.175 481.266667 
L 350.0375 481.266667 
" style="fill: none; stroke: #000000; stroke-width: 0.8; stroke-linejoin: miter; stroke-linecap: square"/>
   </g>
   <g id="text_52">
    <!-- DRS -->
    <g transform="translate(189.508125 475.266667)scale(0.12 -0.12)">
     <use xlink:href="#DejaVuSans-44"/>
     <use xlink:href="#DejaVuSans-52" x="77.001953"/>
     <use xlink:href="#DejaVuSans-53" x="146.484375"/>
    </g>
   </g>
  </g>
  <g id="axes_6">
   <g id="patch_27">
    <path d="M 413.3375 678.2 
L 709.2 678.2 
L 709.2 481.266667 
L 413.3375 481.266667 
z
" style="fill: #ffffff"/>
   </g>
   <g id="matplotlib.axis_11">
    <g id="xtick_46">
     <g id="line2d_83">
      <g>
       <use xlink:href="#m2eb35a546d" x="426.110002" y="678.2" style="stroke: #000000; stroke-width: 0.8"/>
      </g>
     </g>
     <g id="text_53">
      <!-- 0 -->
      <g transform="translate(422.928752 692.798437)scale(0.1 -0.1)">
       <use xlink:href="#DejaVuSans-30"/>
      </g>
     </g>
    </g>
    <g id="xtick_47">
     <g id="line2d_84">
      <g>
       <use xlink:href="#m2eb35a546d" x="459.899689" y="678.2" style="stroke: #000000; stroke-width: 0.8"/>
      </g>
     </g>
     <g id="text_54">
      <!-- 100 -->
      <g transform="translate(450.355939 692.798437)scale(0.1 -0.1)">
       <use xlink:href="#DejaVuSans-31"/>
       <use xlink:href="#DejaVuSans-30" x="63.623047"/>
       <use xlink:href="#DejaVuSans-30" x="127.246094"/>
      </g>
     </g>
    </g>
    <g id="xtick_48">
     <g id="line2d_85">
      <g>
       <use xlink:href="#m2eb35a546d" x="493.689376" y="678.2" style="stroke: #000000; stroke-width: 0.8"/>
      </g>
     </g>
     <g id="text_55">
      <!-- 200 -->
      <g transform="translate(484.145626 692.798437)scale(0.1 -0.1)">
       <use xlink:href="#DejaVuSans-32"/>
       <use xlink:href="#DejaVuSans-30" x="63.623047"/>
       <use xlink:href="#DejaVuSans-30" x="127.246094"/>
      </g>
     </g>
    </g>
    <g id="xtick_49">
     <g id="line2d_86">
      <g>
       <use xlink:href="#m2eb35a546d" x="527.479063" y="678.2" style="stroke: #000000; stroke-width: 0.8"/>
      </g>
     </g>
     <g id="text_56">
      <!-- 300 -->
      <g transform="translate(517.935313 692.798437)scale(0.1 -0.1)">
       <use xlink:href="#DejaVuSans-33"/>
       <use xlink:href="#DejaVuSans-30" x="63.623047"/>
       <use xlink:href="#DejaVuSans-30" x="127.246094"/>
      </g>
     </g>
    </g>
    <g id="xtick_50">
     <g id="line2d_87">
      <g>
       <use xlink:href="#m2eb35a546d" x="561.26875" y="678.2" style="stroke: #000000; stroke-width: 0.8"/>
      </g>
     </g>
     <g id="text_57">
      <!-- 400 -->
      <g transform="translate(551.725 692.798437)scale(0.1 -0.1)">
       <use xlink:href="#DejaVuSans-34"/>
       <use xlink:href="#DejaVuSans-30" x="63.623047"/>
       <use xlink:href="#DejaVuSans-30" x="127.246094"/>
      </g>
     </g>
    </g>
    <g id="xtick_51">
     <g id="line2d_88">
      <g>
       <use xlink:href="#m2eb35a546d" x="595.058437" y="678.2" style="stroke: #000000; stroke-width: 0.8"/>
      </g>
     </g>
     <g id="text_58">
      <!-- 500 -->
      <g transform="translate(585.514687 692.798437)scale(0.1 -0.1)">
       <use xlink:href="#DejaVuSans-35"/>
       <use xlink:href="#DejaVuSans-30" x="63.623047"/>
       <use xlink:href="#DejaVuSans-30" x="127.246094"/>
      </g>
     </g>
    </g>
    <g id="xtick_52">
     <g id="line2d_89">
      <g>
       <use xlink:href="#m2eb35a546d" x="628.848124" y="678.2" style="stroke: #000000; stroke-width: 0.8"/>
      </g>
     </g>
     <g id="text_59">
      <!-- 600 -->
      <g transform="translate(619.304374 692.798437)scale(0.1 -0.1)">
       <use xlink:href="#DejaVuSans-36"/>
       <use xlink:href="#DejaVuSans-30" x="63.623047"/>
       <use xlink:href="#DejaVuSans-30" x="127.246094"/>
      </g>
     </g>
    </g>
    <g id="xtick_53">
     <g id="line2d_90">
      <g>
       <use xlink:href="#m2eb35a546d" x="662.637811" y="678.2" style="stroke: #000000; stroke-width: 0.8"/>
      </g>
     </g>
     <g id="text_60">
      <!-- 700 -->
      <g transform="translate(653.094061 692.798437)scale(0.1 -0.1)">
       <use xlink:href="#DejaVuSans-37"/>
       <use xlink:href="#DejaVuSans-30" x="63.623047"/>
       <use xlink:href="#DejaVuSans-30" x="127.246094"/>
      </g>
     </g>
    </g>
    <g id="xtick_54">
     <g id="line2d_91">
      <g>
       <use xlink:href="#m2eb35a546d" x="696.427498" y="678.2" style="stroke: #000000; stroke-width: 0.8"/>
      </g>
     </g>
     <g id="text_61">
      <!-- 800 -->
      <g transform="translate(686.883748 692.798437)scale(0.1 -0.1)">
       <use xlink:href="#DejaVuSans-38"/>
       <use xlink:href="#DejaVuSans-30" x="63.623047"/>
       <use xlink:href="#DejaVuSans-30" x="127.246094"/>
      </g>
     </g>
    </g>
    <g id="text_62">
     <!-- Sample -->
     <g transform="translate(542.520312 706.476562)scale(0.1 -0.1)">
      <use xlink:href="#DejaVuSans-53"/>
      <use xlink:href="#DejaVuSans-61" x="63.476562"/>
      <use xlink:href="#DejaVuSans-6d" x="124.755859"/>
      <use xlink:href="#DejaVuSans-70" x="222.167969"/>
      <use xlink:href="#DejaVuSans-6c" x="285.644531"/>
      <use xlink:href="#DejaVuSans-65" x="313.427734"/>
     </g>
    </g>
   </g>
   <g id="matplotlib.axis_12">
    <g id="ytick_33">
     <g id="line2d_92">
      <g>
       <use xlink:href="#m7883fbfbb0" x="413.3375" y="669.248485" style="stroke: #000000; stroke-width: 0.8"/>
      </g>
     </g>
     <g id="text_63">
      <!-- 3 -->
      <g transform="translate(399.975 673.047704)scale(0.1 -0.1)">
       <use xlink:href="#DejaVuSans-33"/>
      </g>
     </g>
    </g>
    <g id="ytick_34">
     <g id="line2d_93">
      <g>
       <use xlink:href="#m7883fbfbb0" x="413.3375" y="633.442424" style="stroke: #000000; stroke-width: 0.8"/>
      </g>
     </g>
     <g id="text_64">
      <!-- 4 -->
      <g transform="translate(399.975 637.241643)scale(0.1 -0.1)">
       <use xlink:href="#DejaVuSans-34"/>
      </g>
     </g>
    </g>
    <g id="ytick_35">
     <g id="line2d_94">
      <g>
       <use xlink:href="#m7883fbfbb0" x="413.3375" y="597.636364" style="stroke: #000000; stroke-width: 0.8"/>
      </g>
     </g>
     <g id="text_65">
      <!-- 5 -->
      <g transform="translate(399.975 601.435582)scale(0.1 -0.1)">
       <use xlink:href="#DejaVuSans-35"/>
      </g>
     </g>
    </g>
    <g id="ytick_36">
     <g id="line2d_95">
      <g>
       <use xlink:href="#m7883fbfbb0" x="413.3375" y="561.830303" style="stroke: #000000; stroke-width: 0.8"/>
      </g>
     </g>
     <g id="text_66">
      <!-- 6 -->
      <g transform="translate(399.975 565.629522)scale(0.1 -0.1)">
       <use xlink:href="#DejaVuSans-36"/>
      </g>
     </g>
    </g>
    <g id="ytick_37">
     <g id="line2d_96">
      <g>
       <use xlink:href="#m7883fbfbb0" x="413.3375" y="526.024242" style="stroke: #000000; stroke-width: 0.8"/>
      </g>
     </g>
     <g id="text_67">
      <!-- 7 -->
      <g transform="translate(399.975 529.823461)scale(0.1 -0.1)">
       <use xlink:href="#DejaVuSans-37"/>
      </g>
     </g>
    </g>
    <g id="ytick_38">
     <g id="line2d_97">
      <g>
       <use xlink:href="#m7883fbfbb0" x="413.3375" y="490.218182" style="stroke: #000000; stroke-width: 0.8"/>
      </g>
     </g>
     <g id="text_68">
      <!-- 8 -->
      <g transform="translate(399.975 494.017401)scale(0.1 -0.1)">
       <use xlink:href="#DejaVuSans-38"/>
      </g>
     </g>
    </g>
    <g id="text_69">
     <!-- Gear -->
     <g transform="translate(393.895312 591.803646)rotate(-90)scale(0.1 -0.1)">
      <defs>
       <path id="DejaVuSans-47" d="M 3809 666 
L 3809 1919 
L 2778 1919 
L 2778 2438 
L 4434 2438 
L 4434 434 
Q 4069 175 3628 42 
Q 3188 -91 2688 -91 
Q 1594 -91 976 548 
Q 359 1188 359 2328 
Q 359 3472 976 4111 
Q 1594 4750 2688 4750 
Q 3144 4750 3555 4637 
Q 3966 4525 4313 4306 
L 4313 3634 
Q 3963 3931 3569 4081 
Q 3175 4231 2741 4231 
Q 1884 4231 1454 3753 
Q 1025 3275 1025 2328 
Q 1025 1384 1454 906 
Q 1884 428 2741 428 
Q 3075 428 3337 486 
Q 3600 544 3809 666 
z
" transform="scale(0.015625)"/>
      </defs>
      <use xlink:href="#DejaVuSans-47"/>
      <use xlink:href="#DejaVuSans-65" x="77.490234"/>
      <use xlink:href="#DejaVuSans-61" x="139.013672"/>
      <use xlink:href="#DejaVuSans-72" x="200.292969"/>
     </g>
    </g>
   </g>
   <g id="line2d_98">
    <path d="M 426.785795 561.830303 
L 427.799486 561.830303 
L 428.137383 526.024242 
L 435.571114 526.024242 
L 435.909011 490.218182 
L 457.534411 490.218182 
L 457.872308 526.024242 
L 459.561792 526.024242 
L 459.899689 597.636364 
L 460.237586 597.636364 
L 460.575483 633.442424 
L 460.913379 633.442424 
L 461.251276 669.248485 
L 485.917748 669.248485 
L 486.255645 633.442424 
L 488.620923 633.442424 
L 488.95882 597.636364 
L 492.337788 597.636364 
L 492.675685 561.830303 
L 495.716757 561.830303 
L 496.054654 526.024242 
L 503.488385 526.024242 
L 503.826282 490.218182 
L 518.355847 490.218182 
L 518.693744 561.830303 
L 519.031641 561.830303 
L 519.369538 633.442424 
L 545.725494 633.442424 
L 546.063391 597.636364 
L 548.766566 597.636364 
L 549.104463 561.830303 
L 553.835019 561.830303 
L 554.172916 526.024242 
L 561.606647 526.024242 
L 561.944544 490.218182 
L 572.08145 490.218182 
L 572.419347 526.024242 
L 581.542562 526.024242 
L 581.880459 490.218182 
L 601.140581 490.218182 
L 601.478478 526.024242 
L 601.816374 526.024242 
L 602.154271 561.830303 
L 606.884828 561.830303 
L 607.222724 597.636364 
L 614.656456 597.636364 
L 614.994352 561.830303 
L 619.724909 561.830303 
L 620.062806 526.024242 
L 626.820743 526.024242 
L 627.15864 490.218182 
L 645.067174 490.218182 
L 645.405071 526.024242 
L 646.418761 526.024242 
L 646.756658 561.830303 
L 648.78404 561.830303 
L 649.121936 597.636364 
L 655.20408 597.636364 
L 655.541977 561.830303 
L 660.61043 561.830303 
L 660.948327 526.024242 
L 667.706264 526.024242 
L 668.044161 561.830303 
L 670.071542 561.830303 
L 670.409439 633.442424 
L 670.747336 633.442424 
L 671.085233 669.248485 
L 677.84317 669.248485 
L 678.181067 633.442424 
L 687.64218 633.442424 
L 687.980077 597.636364 
L 691.359045 597.636364 
L 691.696942 561.830303 
L 695.751705 561.830303 
L 695.751705 561.830303 
" clip-path="url(#p407cadf54a)" style="fill: none; stroke: #1f77b4; stroke-width: 1.5; stroke-linecap: square"/>
   </g>
   <g id="patch_28">
    <path d="M 413.3375 678.2 
L 413.3375 481.266667 
" style="fill: none; stroke: #000000; stroke-width: 0.8; stroke-linejoin: miter; stroke-linecap: square"/>
   </g>
   <g id="patch_29">
    <path d="M 709.2 678.2 
L 709.2 481.266667 
" style="fill: none; stroke: #000000; stroke-width: 0.8; stroke-linejoin: miter; stroke-linecap: square"/>
   </g>
   <g id="patch_30">
    <path d="M 413.3375 678.2 
L 709.2 678.2 
" style="fill: none; stroke: #000000; stroke-width: 0.8; stroke-linejoin: miter; stroke-linecap: square"/>
   </g>
   <g id="patch_31">
    <path d="M 413.3375 481.266667 
L 709.2 481.266667 
" style="fill: none; stroke: #000000; stroke-width: 0.8; stroke-linejoin: miter; stroke-linecap: square"/>
   </g>
   <g id="text_70">
    <!-- Gear -->
    <g transform="translate(546.784375 475.266667)scale(0.12 -0.12)">
     <use xlink:href="#DejaVuSans-47"/>
     <use xlink:href="#DejaVuSans-65" x="77.490234"/>
     <use xlink:href="#DejaVuSans-61" x="139.013672"/>
     <use xlink:href="#DejaVuSans-72" x="200.292969"/>
    </g>
   </g>
  </g>
 </g>
 <defs>
  <clipPath id="p84be454f15">
   <rect x="54.175" y="26.8" width="295.8625" height="196.933333"/>
  </clipPath>
  <clipPath id="pe78bf1b372">
   <rect x="413.3375" y="26.8" width="295.8625" height="196.933333"/>
  </clipPath>
  <clipPath id="pdceab87453">
   <rect x="54.175" y="254.033333" width="295.8625" height="196.933333"/>
  </clipPath>
  <clipPath id="pd7edf34c7e">
   <rect x="413.3375" y="254.033333" width="295.8625" height="196.933333"/>
  </clipPath>
  <clipPath id="pb6075b3b1d">
   <rect x="54.175" y="481.266667" width="295.8625" height="196.933333"/>
  </clipPath>
  <clipPath id="p407cadf54a">
   <rect x="413.3375" y="481.266667" width="295.8625" height="196.933333"/>
  </clipPath>
 </defs>
</svg>
