<?xml version="1.0" encoding="utf-8" standalone="no"?>
<!DOCTYPE svg PUBLIC "-//W3C//DTD SVG 1.1//EN"
  "http://www.w3.org/Graphics/SVG/1.1/DTD/svg11.dtd">
<svg xmlns:xlink="http://www.w3.org/1999/xlink" width="460.8pt" height="345.6pt" viewBox="0 0 460.8 345.6" xmlns="http://www.w3.org/2000/svg" version="1.1">
 <metadata>
  <rdf:RDF xmlns:dc="http://purl.org/dc/elements/1.1/" xmlns:cc="http://creativecommons.org/ns#" xmlns:rdf="http://www.w3.org/1999/02/22-rdf-syntax-ns#">
   <cc:Work>
    <dc:type rdf:resource="http://purl.org/dc/dcmitype/StillImage"/>
    <dc:date>2023-07-04T09:55:06.657176</dc:date>
    <dc:format>image/svg+xml</dc:format>
    <dc:creator>
     <cc:Agent>
      <dc:title>Matplotlib v3.7.1, https://matplotlib.org/</dc:title>
     </cc:Agent>
    </dc:creator>
   </cc:Work>
  </rdf:RDF>
 </metadata>
 <defs>
  <style type="text/css">*{stroke-linejoin: round; stroke-linecap: butt}</style>
 </defs>
 <g id="figure_1">
  <g id="patch_1">
   <path d="M 0 345.6 
L 460.8 345.6 
L 460.8 0 
L 0 0 
z
" style="fill: #ffffff"/>
  </g>
  <g id="axes_1">
   <g id="patch_2">
    <path d="M 57.6 307.584 
L 414.72 307.584 
L 414.72 41.472 
L 57.6 41.472 
z
" style="fill: #ffffff"/>
   </g>
   <g id="matplotlib.axis_1">
    <g id="xtick_1">
     <g id="line2d_1">
      <defs>
       <path id="m4bbee5c2da" d="M 0 0 
L 0 3.5 
" style="stroke: #000000; stroke-width: 0.8"/>
      </defs>
      <g>
       <use xlink:href="#m4bbee5c2da" x="73.832727" y="307.584" style="stroke: #000000; stroke-width: 0.8"/>
      </g>
     </g>
     <g id="text_1">
      <!-- 0 -->
      <g transform="translate(70.651477 322.182437) scale(0.1 -0.1)">
       <defs>
        <path id="DejaVuSans-30" d="M 2034 4250 
Q 1547 4250 1301 3770 
Q 1056 3291 1056 2328 
Q 1056 1369 1301 889 
Q 1547 409 2034 409 
Q 2525 409 2770 889 
Q 3016 1369 3016 2328 
Q 3016 3291 2770 3770 
Q 2525 4250 2034 4250 
z
M 2034 4750 
Q 2819 4750 3233 4129 
Q 3647 3509 3647 2328 
Q 3647 1150 3233 529 
Q 2819 -91 2034 -91 
Q 1250 -91 836 529 
Q 422 1150 422 2328 
Q 422 3509 836 4129 
Q 1250 4750 2034 4750 
z
" transform="scale(0.015625)"/>
       </defs>
       <use xlink:href="#DejaVuSans-30"/>
      </g>
     </g>
    </g>
    <g id="xtick_2">
     <g id="line2d_2">
      <g>
       <use xlink:href="#m4bbee5c2da" x="114.465336" y="307.584" style="stroke: #000000; stroke-width: 0.8"/>
      </g>
     </g>
     <g id="text_2">
      <!-- 100 -->
      <g transform="translate(104.921586 322.182437) scale(0.1 -0.1)">
       <defs>
        <path id="DejaVuSans-31" d="M 794 531 
L 1825 531 
L 1825 4091 
L 703 3866 
L 703 4441 
L 1819 4666 
L 2450 4666 
L 2450 531 
L 3481 531 
L 3481 0 
L 794 0 
L 794 531 
z
" transform="scale(0.015625)"/>
       </defs>
       <use xlink:href="#DejaVuSans-31"/>
       <use xlink:href="#DejaVuSans-30" x="63.623047"/>
       <use xlink:href="#DejaVuSans-30" x="127.246094"/>
      </g>
     </g>
    </g>
    <g id="xtick_3">
     <g id="line2d_3">
      <g>
       <use xlink:href="#m4bbee5c2da" x="155.097945" y="307.584" style="stroke: #000000; stroke-width: 0.8"/>
      </g>
     </g>
     <g id="text_3">
      <!-- 200 -->
      <g transform="translate(145.554195 322.182437) scale(0.1 -0.1)">
       <defs>
        <path id="DejaVuSans-32" d="M 1228 531 
L 3431 531 
L 3431 0 
L 469 0 
L 469 531 
Q 828 903 1448 1529 
Q 2069 2156 2228 2338 
Q 2531 2678 2651 2914 
Q 2772 3150 2772 3378 
Q 2772 3750 2511 3984 
Q 2250 4219 1831 4219 
Q 1534 4219 1204 4116 
Q 875 4013 500 3803 
L 500 4441 
Q 881 4594 1212 4672 
Q 1544 4750 1819 4750 
Q 2544 4750 2975 4387 
Q 3406 4025 3406 3419 
Q 3406 3131 3298 2873 
Q 3191 2616 2906 2266 
Q 2828 2175 2409 1742 
Q 1991 1309 1228 531 
z
" transform="scale(0.015625)"/>
       </defs>
       <use xlink:href="#DejaVuSans-32"/>
       <use xlink:href="#DejaVuSans-30" x="63.623047"/>
       <use xlink:href="#DejaVuSans-30" x="127.246094"/>
      </g>
     </g>
    </g>
    <g id="xtick_4">
     <g id="line2d_4">
      <g>
       <use xlink:href="#m4bbee5c2da" x="195.730554" y="307.584" style="stroke: #000000; stroke-width: 0.8"/>
      </g>
     </g>
     <g id="text_4">
      <!-- 300 -->
      <g transform="translate(186.186804 322.182437) scale(0.1 -0.1)">
       <defs>
        <path id="DejaVuSans-33" d="M 2597 2516 
Q 3050 2419 3304 2112 
Q 3559 1806 3559 1356 
Q 3559 666 3084 287 
Q 2609 -91 1734 -91 
Q 1441 -91 1130 -33 
Q 819 25 488 141 
L 488 750 
Q 750 597 1062 519 
Q 1375 441 1716 441 
Q 2309 441 2620 675 
Q 2931 909 2931 1356 
Q 2931 1769 2642 2001 
Q 2353 2234 1838 2234 
L 1294 2234 
L 1294 2753 
L 1863 2753 
Q 2328 2753 2575 2939 
Q 2822 3125 2822 3475 
Q 2822 3834 2567 4026 
Q 2313 4219 1838 4219 
Q 1578 4219 1281 4162 
Q 984 4106 628 3988 
L 628 4550 
Q 988 4650 1302 4700 
Q 1616 4750 1894 4750 
Q 2613 4750 3031 4423 
Q 3450 4097 3450 3541 
Q 3450 3153 3228 2886 
Q 3006 2619 2597 2516 
z
" transform="scale(0.015625)"/>
       </defs>
       <use xlink:href="#DejaVuSans-33"/>
       <use xlink:href="#DejaVuSans-30" x="63.623047"/>
       <use xlink:href="#DejaVuSans-30" x="127.246094"/>
      </g>
     </g>
    </g>
    <g id="xtick_5">
     <g id="line2d_5">
      <g>
       <use xlink:href="#m4bbee5c2da" x="236.363163" y="307.584" style="stroke: #000000; stroke-width: 0.8"/>
      </g>
     </g>
     <g id="text_5">
      <!-- 400 -->
      <g transform="translate(226.819413 322.182437) scale(0.1 -0.1)">
       <defs>
        <path id="DejaVuSans-34" d="M 2419 4116 
L 825 1625 
L 2419 1625 
L 2419 4116 
z
M 2253 4666 
L 3047 4666 
L 3047 1625 
L 3713 1625 
L 3713 1100 
L 3047 1100 
L 3047 0 
L 2419 0 
L 2419 1100 
L 313 1100 
L 313 1709 
L 2253 4666 
z
" transform="scale(0.015625)"/>
       </defs>
       <use xlink:href="#DejaVuSans-34"/>
       <use xlink:href="#DejaVuSans-30" x="63.623047"/>
       <use xlink:href="#DejaVuSans-30" x="127.246094"/>
      </g>
     </g>
    </g>
    <g id="xtick_6">
     <g id="line2d_6">
      <g>
       <use xlink:href="#m4bbee5c2da" x="276.995772" y="307.584" style="stroke: #000000; stroke-width: 0.8"/>
      </g>
     </g>
     <g id="text_6">
      <!-- 500 -->
      <g transform="translate(267.452022 322.182437) scale(0.1 -0.1)">
       <defs>
        <path id="DejaVuSans-35" d="M 691 4666 
L 3169 4666 
L 3169 4134 
L 1269 4134 
L 1269 2991 
Q 1406 3038 1543 3061 
Q 1681 3084 1819 3084 
Q 2600 3084 3056 2656 
Q 3513 2228 3513 1497 
Q 3513 744 3044 326 
Q 2575 -91 1722 -91 
Q 1428 -91 1123 -41 
Q 819 9 494 109 
L 494 744 
Q 775 591 1075 516 
Q 1375 441 1709 441 
Q 2250 441 2565 725 
Q 2881 1009 2881 1497 
Q 2881 1984 2565 2268 
Q 2250 2553 1709 2553 
Q 1456 2553 1204 2497 
Q 953 2441 691 2322 
L 691 4666 
z
" transform="scale(0.015625)"/>
       </defs>
       <use xlink:href="#DejaVuSans-35"/>
       <use xlink:href="#DejaVuSans-30" x="63.623047"/>
       <use xlink:href="#DejaVuSans-30" x="127.246094"/>
      </g>
     </g>
    </g>
    <g id="xtick_7">
     <g id="line2d_7">
      <g>
       <use xlink:href="#m4bbee5c2da" x="317.628381" y="307.584" style="stroke: #000000; stroke-width: 0.8"/>
      </g>
     </g>
     <g id="text_7">
      <!-- 600 -->
      <g transform="translate(308.084631 322.182437) scale(0.1 -0.1)">
       <defs>
        <path id="DejaVuSans-36" d="M 2113 2584 
Q 1688 2584 1439 2293 
Q 1191 2003 1191 1497 
Q 1191 994 1439 701 
Q 1688 409 2113 409 
Q 2538 409 2786 701 
Q 3034 994 3034 1497 
Q 3034 2003 2786 2293 
Q 2538 2584 2113 2584 
z
M 3366 4563 
L 3366 3988 
Q 3128 4100 2886 4159 
Q 2644 4219 2406 4219 
Q 1781 4219 1451 3797 
Q 1122 3375 1075 2522 
Q 1259 2794 1537 2939 
Q 1816 3084 2150 3084 
Q 2853 3084 3261 2657 
Q 3669 2231 3669 1497 
Q 3669 778 3244 343 
Q 2819 -91 2113 -91 
Q 1303 -91 875 529 
Q 447 1150 447 2328 
Q 447 3434 972 4092 
Q 1497 4750 2381 4750 
Q 2619 4750 2861 4703 
Q 3103 4656 3366 4563 
z
" transform="scale(0.015625)"/>
       </defs>
       <use xlink:href="#DejaVuSans-36"/>
       <use xlink:href="#DejaVuSans-30" x="63.623047"/>
       <use xlink:href="#DejaVuSans-30" x="127.246094"/>
      </g>
     </g>
    </g>
    <g id="xtick_8">
     <g id="line2d_8">
      <g>
       <use xlink:href="#m4bbee5c2da" x="358.26099" y="307.584" style="stroke: #000000; stroke-width: 0.8"/>
      </g>
     </g>
     <g id="text_8">
      <!-- 700 -->
      <g transform="translate(348.71724 322.182437) scale(0.1 -0.1)">
       <defs>
        <path id="DejaVuSans-37" d="M 525 4666 
L 3525 4666 
L 3525 4397 
L 1831 0 
L 1172 0 
L 2766 4134 
L 525 4134 
L 525 4666 
z
" transform="scale(0.015625)"/>
       </defs>
       <use xlink:href="#DejaVuSans-37"/>
       <use xlink:href="#DejaVuSans-30" x="63.623047"/>
       <use xlink:href="#DejaVuSans-30" x="127.246094"/>
      </g>
     </g>
    </g>
    <g id="xtick_9">
     <g id="line2d_9">
      <g>
       <use xlink:href="#m4bbee5c2da" x="398.893599" y="307.584" style="stroke: #000000; stroke-width: 0.8"/>
      </g>
     </g>
     <g id="text_9">
      <!-- 800 -->
      <g transform="translate(389.349849 322.182437) scale(0.1 -0.1)">
       <defs>
        <path id="DejaVuSans-38" d="M 2034 2216 
Q 1584 2216 1326 1975 
Q 1069 1734 1069 1313 
Q 1069 891 1326 650 
Q 1584 409 2034 409 
Q 2484 409 2743 651 
Q 3003 894 3003 1313 
Q 3003 1734 2745 1975 
Q 2488 2216 2034 2216 
z
M 1403 2484 
Q 997 2584 770 2862 
Q 544 3141 544 3541 
Q 544 4100 942 4425 
Q 1341 4750 2034 4750 
Q 2731 4750 3128 4425 
Q 3525 4100 3525 3541 
Q 3525 3141 3298 2862 
Q 3072 2584 2669 2484 
Q 3125 2378 3379 2068 
Q 3634 1759 3634 1313 
Q 3634 634 3220 271 
Q 2806 -91 2034 -91 
Q 1263 -91 848 271 
Q 434 634 434 1313 
Q 434 1759 690 2068 
Q 947 2378 1403 2484 
z
M 1172 3481 
Q 1172 3119 1398 2916 
Q 1625 2713 2034 2713 
Q 2441 2713 2670 2916 
Q 2900 3119 2900 3481 
Q 2900 3844 2670 4047 
Q 2441 4250 2034 4250 
Q 1625 4250 1398 4047 
Q 1172 3844 1172 3481 
z
" transform="scale(0.015625)"/>
       </defs>
       <use xlink:href="#DejaVuSans-38"/>
       <use xlink:href="#DejaVuSans-30" x="63.623047"/>
       <use xlink:href="#DejaVuSans-30" x="127.246094"/>
      </g>
     </g>
    </g>
    <g id="text_10">
     <!-- Epoch -->
     <g transform="translate(220.849063 335.860562) scale(0.1 -0.1)">
      <defs>
       <path id="DejaVuSans-45" d="M 628 4666 
L 3578 4666 
L 3578 4134 
L 1259 4134 
L 1259 2753 
L 3481 2753 
L 3481 2222 
L 1259 2222 
L 1259 531 
L 3634 531 
L 3634 0 
L 628 0 
L 628 4666 
z
" transform="scale(0.015625)"/>
       <path id="DejaVuSans-70" d="M 1159 525 
L 1159 -1331 
L 581 -1331 
L 581 3500 
L 1159 3500 
L 1159 2969 
Q 1341 3281 1617 3432 
Q 1894 3584 2278 3584 
Q 2916 3584 3314 3078 
Q 3713 2572 3713 1747 
Q 3713 922 3314 415 
Q 2916 -91 2278 -91 
Q 1894 -91 1617 61 
Q 1341 213 1159 525 
z
M 3116 1747 
Q 3116 2381 2855 2742 
Q 2594 3103 2138 3103 
Q 1681 3103 1420 2742 
Q 1159 2381 1159 1747 
Q 1159 1113 1420 752 
Q 1681 391 2138 391 
Q 2594 391 2855 752 
Q 3116 1113 3116 1747 
z
" transform="scale(0.015625)"/>
       <path id="DejaVuSans-6f" d="M 1959 3097 
Q 1497 3097 1228 2736 
Q 959 2375 959 1747 
Q 959 1119 1226 758 
Q 1494 397 1959 397 
Q 2419 397 2687 759 
Q 2956 1122 2956 1747 
Q 2956 2369 2687 2733 
Q 2419 3097 1959 3097 
z
M 1959 3584 
Q 2709 3584 3137 3096 
Q 3566 2609 3566 1747 
Q 3566 888 3137 398 
Q 2709 -91 1959 -91 
Q 1206 -91 779 398 
Q 353 888 353 1747 
Q 353 2609 779 3096 
Q 1206 3584 1959 3584 
z
" transform="scale(0.015625)"/>
       <path id="DejaVuSans-63" d="M 3122 3366 
L 3122 2828 
Q 2878 2963 2633 3030 
Q 2388 3097 2138 3097 
Q 1578 3097 1268 2742 
Q 959 2388 959 1747 
Q 959 1106 1268 751 
Q 1578 397 2138 397 
Q 2388 397 2633 464 
Q 2878 531 3122 666 
L 3122 134 
Q 2881 22 2623 -34 
Q 2366 -91 2075 -91 
Q 1284 -91 818 406 
Q 353 903 353 1747 
Q 353 2603 823 3093 
Q 1294 3584 2113 3584 
Q 2378 3584 2631 3529 
Q 2884 3475 3122 3366 
z
" transform="scale(0.015625)"/>
       <path id="DejaVuSans-68" d="M 3513 2113 
L 3513 0 
L 2938 0 
L 2938 2094 
Q 2938 2591 2744 2837 
Q 2550 3084 2163 3084 
Q 1697 3084 1428 2787 
Q 1159 2491 1159 1978 
L 1159 0 
L 581 0 
L 581 4863 
L 1159 4863 
L 1159 2956 
Q 1366 3272 1645 3428 
Q 1925 3584 2291 3584 
Q 2894 3584 3203 3211 
Q 3513 2838 3513 2113 
z
" transform="scale(0.015625)"/>
      </defs>
      <use xlink:href="#DejaVuSans-45"/>
      <use xlink:href="#DejaVuSans-70" x="63.183594"/>
      <use xlink:href="#DejaVuSans-6f" x="126.660156"/>
      <use xlink:href="#DejaVuSans-63" x="187.841797"/>
      <use xlink:href="#DejaVuSans-68" x="242.822266"/>
     </g>
    </g>
   </g>
   <g id="matplotlib.axis_2">
    <g id="ytick_1">
     <g id="line2d_10">
      <defs>
       <path id="m4ce10c26e7" d="M 0 0 
L -3.5 0 
" style="stroke: #000000; stroke-width: 0.8"/>
      </defs>
      <g>
       <use xlink:href="#m4ce10c26e7" x="57.6" y="288.215815" style="stroke: #000000; stroke-width: 0.8"/>
      </g>
     </g>
     <g id="text_11">
      <!-- 0.50 -->
      <g transform="translate(28.334375 292.015034) scale(0.1 -0.1)">
       <defs>
        <path id="DejaVuSans-2e" d="M 684 794 
L 1344 794 
L 1344 0 
L 684 0 
L 684 794 
z
" transform="scale(0.015625)"/>
       </defs>
       <use xlink:href="#DejaVuSans-30"/>
       <use xlink:href="#DejaVuSans-2e" x="63.623047"/>
       <use xlink:href="#DejaVuSans-35" x="95.410156"/>
       <use xlink:href="#DejaVuSans-30" x="159.033203"/>
      </g>
     </g>
    </g>
    <g id="ytick_2">
     <g id="line2d_11">
      <g>
       <use xlink:href="#m4ce10c26e7" x="57.6" y="238.979928" style="stroke: #000000; stroke-width: 0.8"/>
      </g>
     </g>
     <g id="text_12">
      <!-- 0.55 -->
      <g transform="translate(28.334375 242.779147) scale(0.1 -0.1)">
       <use xlink:href="#DejaVuSans-30"/>
       <use xlink:href="#DejaVuSans-2e" x="63.623047"/>
       <use xlink:href="#DejaVuSans-35" x="95.410156"/>
       <use xlink:href="#DejaVuSans-35" x="159.033203"/>
      </g>
     </g>
    </g>
    <g id="ytick_3">
     <g id="line2d_12">
      <g>
       <use xlink:href="#m4ce10c26e7" x="57.6" y="189.744041" style="stroke: #000000; stroke-width: 0.8"/>
      </g>
     </g>
     <g id="text_13">
      <!-- 0.60 -->
      <g transform="translate(28.334375 193.54326) scale(0.1 -0.1)">
       <use xlink:href="#DejaVuSans-30"/>
       <use xlink:href="#DejaVuSans-2e" x="63.623047"/>
       <use xlink:href="#DejaVuSans-36" x="95.410156"/>
       <use xlink:href="#DejaVuSans-30" x="159.033203"/>
      </g>
     </g>
    </g>
    <g id="ytick_4">
     <g id="line2d_13">
      <g>
       <use xlink:href="#m4ce10c26e7" x="57.6" y="140.508154" style="stroke: #000000; stroke-width: 0.8"/>
      </g>
     </g>
     <g id="text_14">
      <!-- 0.65 -->
      <g transform="translate(28.334375 144.307373) scale(0.1 -0.1)">
       <use xlink:href="#DejaVuSans-30"/>
       <use xlink:href="#DejaVuSans-2e" x="63.623047"/>
       <use xlink:href="#DejaVuSans-36" x="95.410156"/>
       <use xlink:href="#DejaVuSans-35" x="159.033203"/>
      </g>
     </g>
    </g>
    <g id="ytick_5">
     <g id="line2d_14">
      <g>
       <use xlink:href="#m4ce10c26e7" x="57.6" y="91.272267" style="stroke: #000000; stroke-width: 0.8"/>
      </g>
     </g>
     <g id="text_15">
      <!-- 0.70 -->
      <g transform="translate(28.334375 95.071486) scale(0.1 -0.1)">
       <use xlink:href="#DejaVuSans-30"/>
       <use xlink:href="#DejaVuSans-2e" x="63.623047"/>
       <use xlink:href="#DejaVuSans-37" x="95.410156"/>
       <use xlink:href="#DejaVuSans-30" x="159.033203"/>
      </g>
     </g>
    </g>
    <g id="ytick_6">
     <g id="line2d_15">
      <g>
       <use xlink:href="#m4ce10c26e7" x="57.6" y="42.03638" style="stroke: #000000; stroke-width: 0.8"/>
      </g>
     </g>
     <g id="text_16">
      <!-- 0.75 -->
      <g transform="translate(28.334375 45.835599) scale(0.1 -0.1)">
       <use xlink:href="#DejaVuSans-30"/>
       <use xlink:href="#DejaVuSans-2e" x="63.623047"/>
       <use xlink:href="#DejaVuSans-37" x="95.410156"/>
       <use xlink:href="#DejaVuSans-35" x="159.033203"/>
      </g>
     </g>
    </g>
    <g id="text_17">
     <!-- Balanced accuracy -->
     <g transform="translate(22.254687 221.792844) rotate(-90) scale(0.1 -0.1)">
      <defs>
       <path id="DejaVuSans-42" d="M 1259 2228 
L 1259 519 
L 2272 519 
Q 2781 519 3026 730 
Q 3272 941 3272 1375 
Q 3272 1813 3026 2020 
Q 2781 2228 2272 2228 
L 1259 2228 
z
M 1259 4147 
L 1259 2741 
L 2194 2741 
Q 2656 2741 2882 2914 
Q 3109 3088 3109 3444 
Q 3109 3797 2882 3972 
Q 2656 4147 2194 4147 
L 1259 4147 
z
M 628 4666 
L 2241 4666 
Q 2963 4666 3353 4366 
Q 3744 4066 3744 3513 
Q 3744 3084 3544 2831 
Q 3344 2578 2956 2516 
Q 3422 2416 3680 2098 
Q 3938 1781 3938 1306 
Q 3938 681 3513 340 
Q 3088 0 2303 0 
L 628 0 
L 628 4666 
z
" transform="scale(0.015625)"/>
       <path id="DejaVuSans-61" d="M 2194 1759 
Q 1497 1759 1228 1600 
Q 959 1441 959 1056 
Q 959 750 1161 570 
Q 1363 391 1709 391 
Q 2188 391 2477 730 
Q 2766 1069 2766 1631 
L 2766 1759 
L 2194 1759 
z
M 3341 1997 
L 3341 0 
L 2766 0 
L 2766 531 
Q 2569 213 2275 61 
Q 1981 -91 1556 -91 
Q 1019 -91 701 211 
Q 384 513 384 1019 
Q 384 1609 779 1909 
Q 1175 2209 1959 2209 
L 2766 2209 
L 2766 2266 
Q 2766 2663 2505 2880 
Q 2244 3097 1772 3097 
Q 1472 3097 1187 3025 
Q 903 2953 641 2809 
L 641 3341 
Q 956 3463 1253 3523 
Q 1550 3584 1831 3584 
Q 2591 3584 2966 3190 
Q 3341 2797 3341 1997 
z
" transform="scale(0.015625)"/>
       <path id="DejaVuSans-6c" d="M 603 4863 
L 1178 4863 
L 1178 0 
L 603 0 
L 603 4863 
z
" transform="scale(0.015625)"/>
       <path id="DejaVuSans-6e" d="M 3513 2113 
L 3513 0 
L 2938 0 
L 2938 2094 
Q 2938 2591 2744 2837 
Q 2550 3084 2163 3084 
Q 1697 3084 1428 2787 
Q 1159 2491 1159 1978 
L 1159 0 
L 581 0 
L 581 3500 
L 1159 3500 
L 1159 2956 
Q 1366 3272 1645 3428 
Q 1925 3584 2291 3584 
Q 2894 3584 3203 3211 
Q 3513 2838 3513 2113 
z
" transform="scale(0.015625)"/>
       <path id="DejaVuSans-65" d="M 3597 1894 
L 3597 1613 
L 953 1613 
Q 991 1019 1311 708 
Q 1631 397 2203 397 
Q 2534 397 2845 478 
Q 3156 559 3463 722 
L 3463 178 
Q 3153 47 2828 -22 
Q 2503 -91 2169 -91 
Q 1331 -91 842 396 
Q 353 884 353 1716 
Q 353 2575 817 3079 
Q 1281 3584 2069 3584 
Q 2775 3584 3186 3129 
Q 3597 2675 3597 1894 
z
M 3022 2063 
Q 3016 2534 2758 2815 
Q 2500 3097 2075 3097 
Q 1594 3097 1305 2825 
Q 1016 2553 972 2059 
L 3022 2063 
z
" transform="scale(0.015625)"/>
       <path id="DejaVuSans-64" d="M 2906 2969 
L 2906 4863 
L 3481 4863 
L 3481 0 
L 2906 0 
L 2906 525 
Q 2725 213 2448 61 
Q 2172 -91 1784 -91 
Q 1150 -91 751 415 
Q 353 922 353 1747 
Q 353 2572 751 3078 
Q 1150 3584 1784 3584 
Q 2172 3584 2448 3432 
Q 2725 3281 2906 2969 
z
M 947 1747 
Q 947 1113 1208 752 
Q 1469 391 1925 391 
Q 2381 391 2643 752 
Q 2906 1113 2906 1747 
Q 2906 2381 2643 2742 
Q 2381 3103 1925 3103 
Q 1469 3103 1208 2742 
Q 947 2381 947 1747 
z
" transform="scale(0.015625)"/>
       <path id="DejaVuSans-20" transform="scale(0.015625)"/>
       <path id="DejaVuSans-75" d="M 544 1381 
L 544 3500 
L 1119 3500 
L 1119 1403 
Q 1119 906 1312 657 
Q 1506 409 1894 409 
Q 2359 409 2629 706 
Q 2900 1003 2900 1516 
L 2900 3500 
L 3475 3500 
L 3475 0 
L 2900 0 
L 2900 538 
Q 2691 219 2414 64 
Q 2138 -91 1772 -91 
Q 1169 -91 856 284 
Q 544 659 544 1381 
z
M 1991 3584 
L 1991 3584 
z
" transform="scale(0.015625)"/>
       <path id="DejaVuSans-72" d="M 2631 2963 
Q 2534 3019 2420 3045 
Q 2306 3072 2169 3072 
Q 1681 3072 1420 2755 
Q 1159 2438 1159 1844 
L 1159 0 
L 581 0 
L 581 3500 
L 1159 3500 
L 1159 2956 
Q 1341 3275 1631 3429 
Q 1922 3584 2338 3584 
Q 2397 3584 2469 3576 
Q 2541 3569 2628 3553 
L 2631 2963 
z
" transform="scale(0.015625)"/>
       <path id="DejaVuSans-79" d="M 2059 -325 
Q 1816 -950 1584 -1140 
Q 1353 -1331 966 -1331 
L 506 -1331 
L 506 -850 
L 844 -850 
Q 1081 -850 1212 -737 
Q 1344 -625 1503 -206 
L 1606 56 
L 191 3500 
L 800 3500 
L 1894 763 
L 2988 3500 
L 3597 3500 
L 2059 -325 
z
" transform="scale(0.015625)"/>
      </defs>
      <use xlink:href="#DejaVuSans-42"/>
      <use xlink:href="#DejaVuSans-61" x="68.603516"/>
      <use xlink:href="#DejaVuSans-6c" x="129.882812"/>
      <use xlink:href="#DejaVuSans-61" x="157.666016"/>
      <use xlink:href="#DejaVuSans-6e" x="218.945312"/>
      <use xlink:href="#DejaVuSans-63" x="282.324219"/>
      <use xlink:href="#DejaVuSans-65" x="337.304688"/>
      <use xlink:href="#DejaVuSans-64" x="398.828125"/>
      <use xlink:href="#DejaVuSans-20" x="462.304688"/>
      <use xlink:href="#DejaVuSans-61" x="494.091797"/>
      <use xlink:href="#DejaVuSans-63" x="555.371094"/>
      <use xlink:href="#DejaVuSans-63" x="610.351562"/>
      <use xlink:href="#DejaVuSans-75" x="665.332031"/>
      <use xlink:href="#DejaVuSans-72" x="728.710938"/>
      <use xlink:href="#DejaVuSans-61" x="769.824219"/>
      <use xlink:href="#DejaVuSans-63" x="831.103516"/>
      <use xlink:href="#DejaVuSans-79" x="886.083984"/>
     </g>
    </g>
   </g>
   <g id="line2d_16">
    <path d="M 73.832727 290.084653 
L 74.239053 280.044647 
L 74.645379 289.963597 
L 75.051706 292.300078 
L 75.864358 283.731143 
L 76.270684 295.488 
L 76.67701 283.786139 
L 77.083336 287.653998 
L 77.489662 288.284017 
L 77.895988 287.822097 
L 78.302314 288.156652 
L 78.70864 284.130495 
L 79.114966 291.196724 
L 79.521293 288.203841 
L 79.927619 287.032901 
L 80.333945 288.543561 
L 80.740271 288.367127 
L 81.146597 287.662802 
L 81.552923 287.220017 
L 81.959249 288.308463 
L 82.365575 287.766456 
L 82.771901 287.747028 
L 83.178227 286.002708 
L 83.584553 286.37242 
L 83.99088 285.954756 
L 84.397206 287.530976 
L 84.803532 287.305181 
L 85.616184 288.235683 
L 86.02251 287.691621 
L 86.428836 286.878478 
L 86.835162 289.134783 
L 87.241488 288.000409 
L 87.647814 288.477442 
L 88.05414 288.302447 
L 88.460466 287.386883 
L 88.866793 287.111433 
L 89.273119 286.339787 
L 89.679445 287.056672 
L 90.085771 288.559203 
L 90.492097 289.439315 
L 90.898423 286.829234 
L 91.711075 288.365631 
L 92.523727 286.151967 
L 93.33638 288.921783 
L 93.742706 287.419165 
L 94.555358 287.079563 
L 94.961684 286.636777 
L 95.36801 286.793196 
L 95.774336 287.413765 
L 96.180662 286.560123 
L 96.586988 286.746886 
L 96.993314 287.503038 
L 97.39964 286.181196 
L 97.805967 285.722798 
L 98.212293 287.463948 
L 98.618619 287.62248 
L 99.024945 287.953336 
L 99.431271 287.67953 
L 99.837597 287.251946 
L 100.243923 287.089247 
L 100.650249 287.769273 
L 101.056575 287.372386 
L 101.462901 286.809454 
L 101.869227 285.53533 
L 102.275554 286.607254 
L 102.68188 286.841559 
L 103.088206 286.072554 
L 103.494532 285.720861 
L 103.900858 285.899994 
L 104.307184 285.321098 
L 104.71351 286.973268 
L 105.932488 282.788639 
L 106.338814 280.03731 
L 106.745141 272.494987 
L 107.151467 272.648237 
L 108.370445 249.714299 
L 109.183097 227.981294 
L 109.589423 217.070243 
L 110.808401 199.870568 
L 111.214728 188.507751 
L 111.621054 181.414729 
L 112.02738 180.617139 
L 112.433706 174.816964 
L 112.840032 170.911306 
L 113.246358 170.710573 
L 113.652684 165.893166 
L 114.05901 168.704714 
L 114.465336 162.110236 
L 114.871662 162.355224 
L 115.277988 159.399289 
L 115.684314 158.96519 
L 116.090641 157.760266 
L 116.496967 150.59241 
L 116.903293 161.545016 
L 117.309619 154.142971 
L 118.122271 149.348043 
L 118.528597 146.419343 
L 118.934923 148.483426 
L 119.341249 142.543266 
L 119.747575 147.73197 
L 120.560228 140.994983 
L 120.966554 140.660253 
L 121.37288 141.941538 
L 121.779206 139.211809 
L 122.185532 138.338798 
L 122.998184 134.085262 
L 123.40451 130.21617 
L 123.810836 133.165824 
L 124.217162 129.892356 
L 124.623488 131.707636 
L 125.029815 129.155104 
L 125.436141 127.855272 
L 125.842467 124.757122 
L 126.248793 124.766044 
L 126.655119 128.225864 
L 127.061445 129.742217 
L 127.467771 125.236474 
L 127.874097 126.556849 
L 128.280423 124.259752 
L 128.686749 120.962395 
L 129.093075 122.520773 
L 129.499402 119.505206 
L 129.905728 126.802952 
L 130.312054 120.692052 
L 130.71838 122.836956 
L 131.124706 119.216726 
L 131.531032 117.973357 
L 131.937358 120.46297 
L 132.343684 117.668619 
L 132.75001 120.039847 
L 133.156336 118.855935 
L 133.562662 120.903408 
L 133.968989 116.865043 
L 134.375315 118.778107 
L 134.781641 118.693764 
L 135.187967 115.385139 
L 135.594293 116.783752 
L 136.000619 112.150879 
L 136.406945 123.398245 
L 136.813271 116.304166 
L 137.219597 116.258737 
L 137.625923 116.683973 
L 138.032249 112.432491 
L 138.438575 113.274747 
L 138.844902 114.625525 
L 139.251228 114.04158 
L 139.657554 114.194712 
L 140.06388 113.671047 
L 140.470206 114.419744 
L 140.876532 108.179483 
L 141.282858 109.701177 
L 142.09551 113.505354 
L 142.501836 110.006561 
L 142.908162 110.440132 
L 143.720815 107.891473 
L 144.127141 112.294443 
L 144.533467 111.132014 
L 144.939793 107.044992 
L 145.346119 107.254939 
L 145.752445 109.521164 
L 146.158771 106.456059 
L 146.565097 107.378548 
L 146.971423 107.590668 
L 147.377749 106.567401 
L 147.784076 108.999552 
L 148.190402 104.561483 
L 148.596728 103.070075 
L 149.003054 107.848157 
L 149.40938 100.171132 
L 149.815706 104.813045 
L 150.222032 106.683497 
L 150.628358 102.538427 
L 151.034684 103.817951 
L 151.44101 102.705176 
L 151.847336 104.777593 
L 152.253663 104.497155 
L 152.659989 102.131562 
L 153.066315 103.04425 
L 153.472641 103.038263 
L 153.878967 100.986858 
L 154.691619 98.439784 
L 155.097945 100.19097 
L 155.504271 95.416997 
L 155.910597 100.287052 
L 156.316923 97.209797 
L 156.72325 96.601847 
L 157.129576 96.720878 
L 157.535902 97.609502 
L 157.942228 97.202402 
L 158.348554 99.690313 
L 158.75488 94.215594 
L 159.161206 97.873741 
L 159.567532 97.865993 
L 159.973858 98.452168 
L 160.78651 93.116847 
L 161.192837 98.312007 
L 162.005489 96.407571 
L 162.411815 96.643109 
L 162.818141 94.816853 
L 163.224467 96.450594 
L 163.630793 94.733684 
L 164.037119 96.589287 
L 164.443445 94.645056 
L 164.849771 95.240915 
L 165.256097 89.911992 
L 165.662423 96.405693 
L 166.06875 95.674075 
L 166.475076 99.118518 
L 166.881402 94.246526 
L 167.287728 94.82284 
L 167.694054 96.376581 
L 168.10038 98.423819 
L 168.506706 93.497887 
L 168.913032 93.150361 
L 169.319358 91.109462 
L 169.725684 101.921908 
L 170.13201 96.483932 
L 170.944663 93.400455 
L 171.350989 92.793503 
L 171.757315 94.104722 
L 172.163641 92.39556 
L 172.569967 94.258558 
L 172.976293 91.431104 
L 173.382619 89.870555 
L 173.788945 91.052177 
L 174.195271 90.324786 
L 174.601597 90.315101 
L 175.007924 92.217659 
L 175.41425 91.351574 
L 175.820576 93.632413 
L 176.226902 88.304077 
L 176.633228 91.499247 
L 177.039554 89.894384 
L 177.44588 91.79747 
L 177.852206 91.2336 
L 178.258532 87.776772 
L 178.664858 89.378994 
L 179.071184 91.580538 
L 179.477511 90.430493 
L 179.883837 86.029694 
L 180.290163 88.436842 
L 180.696489 87.929552 
L 181.102815 89.340315 
L 181.509141 87.248881 
L 181.915467 87.986955 
L 182.321793 86.15119 
L 182.728119 83.548181 
L 183.134445 80.145117 
L 183.540771 87.372725 
L 183.947098 88.820582 
L 185.166076 84.258199 
L 185.572402 86.718641 
L 185.978728 86.049944 
L 186.385054 85.633864 
L 186.79138 86.430455 
L 187.197706 86.691114 
L 187.604032 88.965614 
L 188.010358 85.446102 
L 188.416684 85.993187 
L 188.823011 85.268847 
L 189.229337 86.370411 
L 189.635663 84.053358 
L 190.041989 86.329971 
L 190.448315 86.655076 
L 190.854641 85.180748 
L 191.260967 85.691853 
L 191.667293 88.504986 
L 192.073619 86.237294 
L 192.479945 83.171895 
L 192.886271 84.038626 
L 193.292598 88.066896 
L 193.698924 88.250138 
L 194.10525 87.37789 
L 194.511576 85.364107 
L 194.917902 85.092355 
L 195.324228 82.917399 
L 195.730554 83.653889 
L 196.13688 81.731081 
L 196.543206 86.007978 
L 196.949532 86.649911 
L 197.355858 85.831309 
L 197.762185 87.066578 
L 198.168511 79.786792 
L 198.574837 83.654593 
L 198.981163 84.439504 
L 199.387489 82.336273 
L 199.793815 80.999111 
L 200.200141 85.856078 
L 200.606467 85.56484 
L 201.419119 82.9039 
L 201.825445 82.778178 
L 202.231772 86.73531 
L 202.638098 82.385047 
L 203.044424 84.804462 
L 203.45075 86.546962 
L 204.263402 79.602024 
L 204.669728 82.949798 
L 205.076054 82.413866 
L 205.888706 82.533718 
L 206.295032 83.261169 
L 206.701359 84.39296 
L 207.107685 80.56466 
L 207.514011 82.184432 
L 208.326663 77.163357 
L 208.732989 86.2586 
L 209.139315 82.47479 
L 209.545641 82.145283 
L 209.951967 82.881479 
L 210.358293 84.602145 
L 210.764619 77.197576 
L 211.170946 79.6822 
L 211.577272 77.432234 
L 211.983598 78.583922 
L 212.389924 77.425542 
L 212.79625 79.463448 
L 213.202576 79.935992 
L 213.608902 79.0702 
L 214.015228 85.658808 
L 214.421554 78.710994 
L 214.82788 77.385572 
L 215.234206 73.37855 
L 215.640532 79.331739 
L 216.046859 78.053624 
L 216.453185 83.268036 
L 216.859511 81.281898 
L 217.265837 75.605214 
L 217.672163 77.579203 
L 218.078489 77.435696 
L 218.484815 77.449137 
L 218.891141 74.010916 
L 219.703793 82.797958 
L 220.110119 79.46427 
L 220.516446 86.795589 
L 221.329098 81.04454 
L 221.735424 76.254661 
L 222.14175 76.934628 
L 222.548076 78.313462 
L 222.954402 76.166033 
L 223.360728 78.909497 
L 223.767054 79.942917 
L 224.579706 74.236007 
L 224.986033 77.364971 
L 225.392359 71.811485 
L 225.798685 81.791771 
L 226.205011 77.4077 
L 226.611337 78.044351 
L 227.017663 72.792316 
L 227.423989 80.749311 
L 227.830315 83.266099 
L 228.236641 81.540855 
L 228.642967 79.048777 
L 229.049293 77.822488 
L 229.45562 85.085723 
L 229.861946 75.585259 
L 230.268272 76.508159 
L 230.674598 74.77282 
L 231.080924 75.970231 
L 231.48725 74.599614 
L 231.893576 70.868687 
L 232.706228 73.778195 
L 233.112554 76.498592 
L 233.925207 71.271855 
L 234.331533 71.717458 
L 234.737859 72.801121 
L 235.144185 68.354717 
L 235.550511 71.951822 
L 235.956837 72.645817 
L 236.363163 77.140643 
L 236.769489 73.423744 
L 237.175815 72.549676 
L 237.582141 69.98517 
L 237.988467 74.9013 
L 238.394793 69.702912 
L 238.80112 76.635759 
L 239.207446 74.578426 
L 239.613772 74.276857 
L 240.020098 77.431177 
L 240.426424 76.371403 
L 240.83275 71.751441 
L 241.239076 71.110095 
L 241.645402 73.837476 
L 242.051728 67.364025 
L 242.458054 73.725195 
L 242.86438 69.019247 
L 243.270707 69.122724 
L 243.677033 74.386028 
L 244.083359 71.516314 
L 244.489685 75.839813 
L 244.896011 71.514495 
L 245.302337 69.746404 
L 246.114989 75.460006 
L 246.521315 75.476088 
L 246.927641 79.004991 
L 247.740294 67.3166 
L 248.14662 67.073315 
L 248.552946 79.20232 
L 248.959272 73.692737 
L 249.365598 75.140066 
L 249.771924 69.177838 
L 250.17825 81.669335 
L 250.584576 71.129464 
L 250.990902 69.764423 
L 251.397228 73.222952 
L 251.803554 71.671207 
L 252.209881 72.681914 
L 252.616207 74.511104 
L 253.022533 75.72043 
L 253.428859 73.065066 
L 254.241511 74.201143 
L 254.647837 75.346434 
L 255.054163 72.839976 
L 255.460489 74.624501 
L 255.866815 73.404081 
L 256.273141 75.610262 
L 256.679468 77.095742 
L 257.085794 74.337664 
L 257.49212 70.791564 
L 257.898446 70.287854 
L 258.304772 71.788536 
L 258.711098 72.405935 
L 259.52375 71.351854 
L 259.930076 68.531209 
L 260.336402 67.612769 
L 260.742728 71.173543 
L 261.149054 71.540437 
L 261.555381 68.335993 
L 261.961707 73.023805 
L 262.368033 69.176429 
L 262.774359 76.533926 
L 263.180685 70.109719 
L 263.587011 69.775692 
L 263.993337 78.90304 
L 264.399663 68.62911 
L 264.805989 76.108337 
L 265.212315 71.698676 
L 265.618641 76.695744 
L 266.024968 78.850568 
L 266.431294 78.529924 
L 266.83762 76.494131 
L 267.243946 68.468348 
L 267.650272 70.376775 
L 268.056598 71.176536 
L 268.462924 72.497791 
L 268.86925 71.829211 
L 269.275576 69.700212 
L 269.681902 66.369166 
L 270.088228 68.238973 
L 270.494555 71.888609 
L 270.900881 67.00388 
L 271.307207 70.070335 
L 271.713533 68.828258 
L 272.119859 70.248001 
L 272.526185 70.271772 
L 272.932511 71.552294 
L 273.338837 73.44323 
L 273.745163 67.559475 
L 274.151489 66.547419 
L 274.557815 68.543476 
L 274.964142 66.170018 
L 275.370468 67.079067 
L 275.776794 65.099209 
L 276.18312 70.68392 
L 276.589446 61.031908 
L 276.995772 66.428681 
L 277.402098 68.002554 
L 277.808424 72.176854 
L 278.21475 69.228549 
L 278.621076 74.407745 
L 279.027402 71.537444 
L 279.433729 73.385886 
L 279.840055 76.796756 
L 280.246381 70.90989 
L 280.652707 70.01663 
L 281.059033 70.479196 
L 281.465359 72.877422 
L 281.871685 73.454969 
L 282.278011 70.821967 
L 282.684337 69.797468 
L 283.090663 73.57353 
L 283.496989 73.860249 
L 283.903316 71.916077 
L 284.309642 73.859134 
L 284.715968 72.639537 
L 285.122294 70.91934 
L 285.52862 66.809193 
L 285.934946 68.649183 
L 286.341272 60.745483 
L 286.747598 67.236483 
L 287.153924 71.405207 
L 287.56025 72.603499 
L 287.966576 70.568352 
L 288.372902 67.508705 
L 288.779229 73.487485 
L 289.185555 68.80748 
L 289.591881 65.848376 
L 289.998207 70.2085 
L 290.404533 67.06991 
L 290.810859 71.439367 
L 291.217185 67.472784 
L 291.623511 65.572457 
L 292.029837 70.052668 
L 292.436163 70.646766 
L 292.842489 67.334561 
L 293.248816 66.853037 
L 293.655142 65.951384 
L 294.061468 66.426862 
L 294.467794 67.694588 
L 294.87412 64.719226 
L 295.280446 66.984276 
L 295.686772 67.430642 
L 296.093098 66.195198 
L 296.499424 63.223768 
L 296.90575 62.818722 
L 297.312076 66.471352 
L 297.718403 63.500215 
L 298.124729 64.67996 
L 298.531055 64.556116 
L 298.937381 68.354658 
L 299.343707 66.704366 
L 299.750033 65.526676 
L 300.156359 61.561502 
L 300.562685 61.163852 
L 300.969011 59.952061 
L 301.375337 64.48357 
L 301.781663 63.146585 
L 302.18799 64.759959 
L 302.594316 68.495288 
L 303.000642 66.698496 
L 303.406968 63.422505 
L 303.813294 62.447954 
L 304.21962 65.135247 
L 304.625946 62.799588 
L 305.032272 62.700748 
L 305.438598 69.88275 
L 305.844924 65.036583 
L 306.25125 72.370895 
L 306.657577 66.375387 
L 307.063903 67.236836 
L 307.470229 62.118153 
L 307.876555 66.015947 
L 308.282881 62.795303 
L 308.689207 61.724964 
L 309.095533 62.252562 
L 309.501859 62.239356 
L 309.908185 64.839137 
L 310.314511 62.988523 
L 310.720837 68.463652 
L 311.127163 64.170909 
L 311.53349 66.127054 
L 311.939816 66.091368 
L 312.346142 65.420557 
L 313.158794 59.398109 
L 313.56512 59.402981 
L 313.971446 66.092073 
L 314.377772 66.407317 
L 314.784098 58.169003 
L 315.190424 61.124175 
L 315.59675 63.246776 
L 316.003077 61.055738 
L 316.409403 57.151782 
L 316.815729 65.554555 
L 317.222055 62.365137 
L 317.628381 66.010488 
L 318.034707 65.297477 
L 318.441033 63.665203 
L 318.847359 58.809528 
L 319.253685 63.61772 
L 320.066337 58.830716 
L 320.472664 63.123167 
L 320.87899 55.188065 
L 321.285316 59.083276 
L 321.691642 65.159546 
L 322.097968 62.424417 
L 322.504294 63.235565 
L 322.91062 56.180752 
L 323.316946 63.158676 
L 323.723272 67.586533 
L 324.129598 60.915753 
L 324.535924 61.584334 
L 324.942251 59.875465 
L 325.348577 62.148087 
L 325.754903 77.521213 
L 326.161229 72.7544 
L 326.567555 64.860971 
L 326.973881 62.305387 
L 327.380207 64.002106 
L 327.786533 59.997607 
L 328.192859 60.680978 
L 328.599185 63.644954 
L 329.005511 65.034353 
L 329.411838 55.831172 
L 330.22449 70.901321 
L 330.630816 58.703762 
L 331.037142 59.359136 
L 331.443468 58.02714 
L 331.849794 62.466677 
L 332.25612 64.549777 
L 332.662446 64.723452 
L 333.068772 55.127786 
L 333.475098 61.122473 
L 333.881425 58.442575 
L 334.287751 61.894119 
L 334.694077 62.728745 
L 335.100403 65.508128 
L 335.506729 70.152448 
L 335.913055 64.774222 
L 336.319381 71.567378 
L 336.725707 61.079626 
L 337.132033 65.545869 
L 337.538359 55.47138 
L 337.944685 67.995511 
L 338.351011 64.054871 
L 338.757338 58.394798 
L 339.163664 60.061583 
L 339.56999 66.988913 
L 339.976316 60.161186 
L 340.382642 66.287758 
L 340.788968 64.451934 
L 341.195294 60.853714 
L 341.60162 60.397194 
L 342.007946 64.382676 
L 342.414272 56.892649 
L 342.820598 57.122494 
L 343.226925 63.726304 
L 343.633251 65.638253 
L 344.445903 71.24468 
L 344.852229 72.474901 
L 345.258555 62.045197 
L 346.071207 71.296976 
L 346.477533 62.543801 
L 346.883859 61.097997 
L 347.290185 75.119758 
L 347.696512 78.014476 
L 348.102838 71.628126 
L 348.509164 70.471272 
L 348.91549 57.62051 
L 349.321816 66.140201 
L 349.728142 64.020535 
L 350.134468 67.088399 
L 350.540794 64.073066 
L 350.94712 57.767303 
L 351.353446 64.523952 
L 351.759772 74.01432 
L 352.166099 68.468524 
L 352.572425 69.918788 
L 352.978751 67.148384 
L 353.385077 63.597295 
L 353.791403 67.390437 
L 354.197729 64.18118 
L 354.604055 62.077009 
L 355.010381 63.962194 
L 355.416707 63.92909 
L 355.823033 67.60015 
L 356.229359 67.433342 
L 356.635686 56.29274 
L 357.042012 61.267153 
L 357.448338 60.230621 
L 357.854664 56.817697 
L 358.26099 69.188344 
L 358.667316 65.763094 
L 359.073642 67.475308 
L 359.479968 59.66182 
L 359.886294 57.920259 
L 360.29262 58.362223 
L 360.698946 57.642227 
L 361.105272 61.652066 
L 361.511599 59.886734 
L 361.917925 55.674167 
L 362.324251 60.705923 
L 362.730577 53.568 
L 363.136903 58.887004 
L 363.543229 58.1197 
L 363.949555 59.906573 
L 364.355881 58.978742 
L 364.762207 66.055624 
L 365.168533 60.916868 
L 365.981186 57.37834 
L 366.387512 57.682197 
L 366.793838 54.564268 
L 367.200164 57.823297 
L 367.60649 62.959235 
L 368.012816 65.187837 
L 368.419142 61.76828 
L 368.825468 61.562382 
L 369.231794 67.449483 
L 369.63812 59.180414 
L 370.044446 63.427083 
L 370.450773 62.945853 
L 370.857099 66.154112 
L 371.263425 63.299893 
L 371.669751 72.047082 
L 372.076077 63.662386 
L 372.482403 66.926111 
L 373.295055 60.270005 
L 373.701381 60.719423 
L 374.107707 62.451123 
L 374.514033 67.064393 
L 374.92036 60.955841 
L 375.326686 57.297166 
L 375.733012 65.831179 
L 376.139338 68.390989 
L 376.545664 74.22374 
L 376.95199 74.675036 
L 377.764642 77.457296 
L 378.170968 72.011337 
L 378.577294 72.576793 
L 378.98362 65.667599 
L 379.389947 61.655529 
L 379.796273 61.718038 
L 380.202599 62.393192 
L 380.608925 63.678938 
L 381.015251 61.12664 
L 381.421577 64.777215 
L 382.234229 58.274358 
L 382.640555 61.464422 
L 383.046881 68.386998 
L 383.453207 59.521953 
L 383.859534 62.03023 
L 384.26586 57.105414 
L 384.672186 75.150573 
L 385.078512 65.206677 
L 385.484838 64.526417 
L 385.891164 64.343351 
L 386.29749 69.528298 
L 386.703816 64.791067 
L 387.110142 67.956245 
L 387.516468 66.588446 
L 387.922794 60.767845 
L 388.735447 71.519249 
L 389.141773 67.96499 
L 389.548099 72.124616 
L 389.954425 65.048909 
L 390.360751 69.675267 
L 390.767077 67.14363 
L 391.173403 69.50711 
L 391.579729 68.220719 
L 391.986055 70.587427 
L 392.392381 70.605505 
L 392.798707 63.993947 
L 393.205034 62.958296 
L 393.61136 59.611109 
L 394.017686 62.214763 
L 394.424012 63.302417 
L 394.830338 67.104599 
L 395.236664 62.971326 
L 395.64299 64.425405 
L 396.049316 62.89837 
L 396.455642 59.243686 
L 396.861968 57.670341 
L 397.268294 61.948646 
L 397.674621 69.145556 
L 398.080947 72.257969 
L 398.487273 64.206125 
L 398.487273 64.206125 
" clip-path="url(#p5ad721abfb)" style="fill: none; stroke: #1f77b4; stroke-width: 1.5; stroke-linecap: square"/>
   </g>
   <g id="line2d_17">
    <path d="M 73.832727 284.177685 
L 74.239053 285.44412 
L 74.645379 283.988926 
L 75.051706 281.144568 
L 75.458032 291.022961 
L 75.864358 289.718081 
L 76.270684 287.468761 
L 76.67701 288.472747 
L 77.489662 287.474924 
L 77.895988 288.643839 
L 78.302314 288.137752 
L 78.70864 286.811097 
L 79.114966 288.019954 
L 79.521293 288.247216 
L 79.927619 288.288654 
L 80.333945 288.038736 
L 80.740271 288.083989 
L 81.146597 286.978081 
L 81.552923 287.871752 
L 81.959249 287.684108 
L 82.365575 287.755245 
L 82.771901 287.052329 
L 83.178227 287.892999 
L 83.584553 287.871752 
L 83.99088 287.414176 
L 84.397206 287.409656 
L 84.803532 288.254083 
L 85.209858 287.552341 
L 85.616184 288.668872 
L 86.02251 288.61235 
L 86.428836 287.822508 
L 86.835162 287.702714 
L 87.241488 288.297575 
L 87.647814 287.415232 
L 88.05414 288.29109 
L 88.460466 287.152167 
L 88.866793 287.139958 
L 89.273119 287.510375 
L 89.679445 287.611798 
L 90.492097 287.418226 
L 90.898423 287.552165 
L 91.304749 287.562495 
L 91.711075 287.811943 
L 92.523727 288.066087 
L 92.930053 287.971884 
L 93.33638 288.033864 
L 93.742706 288.356122 
L 94.555358 287.745971 
L 94.961684 285.785659 
L 95.36801 286.149091 
L 96.180662 287.617549 
L 96.586988 287.544711 
L 96.993314 288.111164 
L 97.39964 287.113429 
L 97.805967 287.44722 
L 98.618619 288.57282 
L 99.024945 287.9487 
L 99.431271 286.757803 
L 99.837597 287.409128 
L 100.243923 285.447113 
L 100.650249 287.495877 
L 101.056575 286.053831 
L 101.462901 286.544745 
L 101.869227 285.619966 
L 102.275554 286.99698 
L 102.68188 286.949145 
L 103.088206 286.746417 
L 103.494532 285.963207 
L 103.900858 287.635158 
L 104.307184 287.837945 
L 104.71351 286.455589 
L 105.119836 286.495384 
L 105.526162 280.010018 
L 105.932488 279.271885 
L 106.338814 279.369728 
L 106.745141 266.603543 
L 107.151467 257.943104 
L 107.557793 257.941872 
L 108.370445 234.496946 
L 108.776771 236.913427 
L 109.183097 213.238187 
L 109.589423 197.105623 
L 109.995749 191.957594 
L 110.402075 198.420539 
L 110.808401 178.755021 
L 111.214728 165.35917 
L 111.621054 170.501858 
L 112.02738 173.042593 
L 112.433706 169.024889 
L 112.840032 181.369124 
L 113.652684 147.836268 
L 114.05901 160.990594 
L 114.465336 157.715777 
L 114.871662 157.464274 
L 115.277988 155.749184 
L 115.684314 156.30877 
L 116.090641 167.617471 
L 116.496967 166.460148 
L 116.903293 156.076108 
L 117.309619 154.821881 
L 117.715945 162.910232 
L 118.528597 136.684632 
L 118.934923 145.86633 
L 119.341249 151.81817 
L 119.747575 150.836399 
L 120.153901 146.915187 
L 120.560228 158.969475 
L 120.966554 146.429027 
L 121.37288 158.004843 
L 121.779206 150.8921 
L 122.591858 142.001523 
L 122.998184 141.158446 
L 123.40451 144.514848 
L 123.810836 163.211859 
L 124.217162 142.327155 
L 124.623488 147.382507 
L 125.029815 143.447854 
L 125.436141 152.35915 
L 125.842467 133.002186 
L 126.248793 127.039253 
L 126.655119 147.010095 
L 127.061445 144.937325 
L 127.467771 157.716129 
L 127.874097 129.23434 
L 128.280423 144.72908 
L 128.686749 137.562279 
L 129.093075 125.459804 
L 129.499402 142.305498 
L 129.905728 131.58884 
L 130.312054 143.175515 
L 130.71838 138.309157 
L 131.124706 139.375858 
L 131.531032 143.649937 
L 131.937358 129.565432 
L 132.343684 147.119383 
L 132.75001 123.913224 
L 133.156336 143.508015 
L 133.562662 131.614196 
L 133.968989 146.833779 
L 134.375315 139.250957 
L 134.781641 139.111794 
L 135.187967 118.929889 
L 135.594293 122.897059 
L 136.000619 149.420706 
L 136.813271 137.207945 
L 137.219597 126.230453 
L 137.625923 127.866013 
L 138.032249 137.250557 
L 138.438575 118.703097 
L 138.844902 134.426038 
L 139.251228 135.499898 
L 139.657554 125.505644 
L 140.06388 122.842943 
L 140.470206 131.847151 
L 140.876532 136.166131 
L 141.282858 131.600051 
L 142.09551 140.172508 
L 142.501836 130.441554 
L 142.908162 133.417738 
L 143.314489 127.782316 
L 143.720815 129.634162 
L 144.127141 126.771962 
L 144.533467 130.206015 
L 144.939793 125.655372 
L 145.346119 118.004759 
L 145.752445 120.286302 
L 146.158771 126.860178 
L 146.565097 119.296373 
L 146.971423 138.403243 
L 147.377749 119.708345 
L 147.784076 121.092989 
L 148.190402 124.386178 
L 148.596728 117.224953 
L 149.003054 118.813324 
L 149.40938 137.418186 
L 149.815706 115.829451 
L 150.222032 116.432177 
L 150.628358 104.892046 
L 151.034684 120.17003 
L 151.44101 122.427744 
L 151.847336 127.565618 
L 152.253663 129.185625 
L 152.659989 130.196859 
L 153.066315 115.353679 
L 153.472641 126.904844 
L 153.878967 113.51856 
L 154.285293 123.111232 
L 154.691619 120.224145 
L 155.097945 111.759567 
L 155.504271 115.692753 
L 155.910597 110.224961 
L 156.316923 122.293804 
L 156.72325 106.979431 
L 157.129576 112.648073 
L 157.535902 125.878995 
L 157.942228 113.177726 
L 158.348554 108.192924 
L 158.75488 127.367527 
L 159.161206 119.901036 
L 159.567532 116.239074 
L 159.973858 113.749051 
L 160.380184 112.561383 
L 160.78651 113.104593 
L 161.192837 117.010897 
L 161.599163 113.262949 
L 162.005489 119.055142 
L 162.411815 111.703867 
L 162.818141 118.919853 
L 163.224467 107.988024 
L 164.037119 125.894431 
L 164.443445 118.497493 
L 164.849771 116.787626 
L 165.256097 109.529792 
L 165.662423 112.945592 
L 166.06875 129.107973 
L 166.475076 109.34608 
L 166.881402 118.681674 
L 167.287728 119.817926 
L 167.694054 112.226241 
L 168.10038 121.804475 
L 168.913032 107.780424 
L 169.319358 114.359701 
L 169.725684 123.566168 
L 170.13201 114.759288 
L 170.538337 118.743185 
L 171.350989 106.065041 
L 171.757315 112.098876 
L 172.163641 109.371847 
L 172.569967 105.457502 
L 172.976293 95.419168 
L 173.382619 107.103509 
L 173.788945 109.970993 
L 174.195271 99.900788 
L 174.601597 104.717198 
L 175.007924 111.233202 
L 175.41425 119.715329 
L 175.820576 112.632989 
L 176.226902 113.372648 
L 176.633228 115.841894 
L 177.039554 124.518356 
L 177.44588 106.049663 
L 177.852206 113.544151 
L 178.258532 128.027949 
L 179.071184 109.496336 
L 179.477511 94.943749 
L 179.883837 109.28721 
L 180.290163 103.676616 
L 180.696489 112.77943 
L 181.102815 111.70733 
L 181.509141 116.609139 
L 181.915467 119.271839 
L 182.321793 114.41141 
L 182.728119 106.943804 
L 183.134445 115.886384 
L 183.540771 119.766569 
L 183.947098 120.271276 
L 184.353424 110.937855 
L 184.75975 118.623391 
L 185.166076 108.436679 
L 185.572402 108.953713 
L 185.978728 107.966542 
L 186.79138 102.928564 
L 187.197706 130.358737 
L 187.604032 105.070299 
L 188.010358 106.24165 
L 188.416684 115.194326 
L 188.823011 104.701292 
L 189.229337 115.488323 
L 189.635663 95.108268 
L 190.041989 103.517028 
L 190.448315 105.782783 
L 190.854641 106.596337 
L 191.260967 109.841456 
L 191.667293 108.63794 
L 192.073619 107.012417 
L 192.479945 110.958339 
L 193.292598 100.996483 
L 193.698924 115.953588 
L 194.10525 102.824559 
L 194.511576 99.628097 
L 194.917902 113.191871 
L 195.324228 106.417203 
L 195.730554 95.659637 
L 196.13688 107.17582 
L 196.543206 110.870064 
L 196.949532 108.713773 
L 197.355858 99.222582 
L 197.762185 108.613876 
L 198.168511 103.6998 
L 198.574837 112.011305 
L 198.981163 98.636349 
L 199.387489 119.89053 
L 199.793815 106.875073 
L 200.200141 106.773944 
L 200.606467 121.557315 
L 201.012793 99.81533 
L 201.419119 114.495694 
L 201.825445 113.98048 
L 202.231772 107.247427 
L 202.638098 108.055639 
L 203.044424 97.294258 
L 203.45075 101.04473 
L 203.857076 101.643288 
L 204.263402 93.483742 
L 204.669728 101.839502 
L 205.076054 101.572797 
L 205.48238 104.084127 
L 205.888706 102.982504 
L 206.295032 112.406842 
L 206.701359 102.082905 
L 207.107685 112.522762 
L 207.514011 96.006693 
L 207.920337 115.866076 
L 208.326663 109.664142 
L 208.732989 106.489397 
L 209.139315 116.571692 
L 209.545641 102.983384 
L 209.951967 108.662826 
L 210.358293 104.071742 
L 210.764619 102.526982 
L 211.170946 99.857179 
L 211.577272 94.584837 
L 211.983598 114.822325 
L 212.389924 107.934906 
L 212.79625 96.413851 
L 213.202576 96.117154 
L 213.608902 92.245597 
L 214.015228 89.465216 
L 214.421554 87.92022 
L 214.82788 90.755598 
L 215.234206 108.126248 
L 215.640532 82.137653 
L 216.046859 108.587053 
L 217.265837 103.041726 
L 217.672163 92.121166 
L 218.078489 106.56517 
L 218.484815 91.547142 
L 218.891141 103.311189 
L 219.297467 104.351066 
L 219.703793 120.838904 
L 220.110119 95.372566 
L 220.516446 99.221467 
L 220.922772 94.012866 
L 221.329098 118.057348 
L 221.735424 98.611756 
L 222.14175 100.228945 
L 222.548076 96.926776 
L 222.954402 102.073396 
L 223.360728 92.402486 
L 223.767054 103.756674 
L 224.17338 98.210584 
L 224.579706 110.190449 
L 224.986033 92.177571 
L 225.392359 105.690047 
L 225.798685 89.526551 
L 226.205011 98.648675 
L 226.611337 92.793679 
L 227.017663 100.231469 
L 227.423989 101.212829 
L 227.830315 98.343408 
L 228.236641 86.728502 
L 228.642967 110.34675 
L 229.049293 97.581329 
L 229.45562 99.727114 
L 229.861946 100.780432 
L 230.268272 119.441758 
L 230.674598 94.120863 
L 231.080924 83.477396 
L 231.48725 92.094343 
L 231.893576 94.953962 
L 232.299902 99.973803 
L 232.706228 97.581916 
L 233.112554 97.890821 
L 233.51888 93.021998 
L 233.925207 92.089765 
L 234.331533 92.239963 
L 234.737859 92.893165 
L 235.144185 97.164251 
L 235.550511 95.091716 
L 235.956837 97.146408 
L 236.363163 96.880173 
L 236.769489 103.73126 
L 237.175815 93.904224 
L 237.582141 91.234773 
L 237.988467 90.292445 
L 238.394793 96.360851 
L 238.80112 109.409 
L 239.207446 98.99262 
L 239.613772 104.759105 
L 240.020098 92.111893 
L 240.426424 98.542791 
L 240.83275 90.174295 
L 241.239076 101.526899 
L 241.645402 98.966384 
L 242.051728 103.424409 
L 242.458054 92.147813 
L 242.86438 96.597269 
L 243.270707 96.170566 
L 243.677033 103.323867 
L 244.083359 107.459898 
L 244.489685 102.215494 
L 244.896011 84.781454 
L 245.302337 93.727262 
L 245.708663 95.54131 
L 246.114989 105.856795 
L 246.521315 98.985577 
L 246.927641 100.771745 
L 247.333967 93.129995 
L 247.740294 101.250334 
L 248.14662 96.426353 
L 248.552946 99.501025 
L 248.959272 108.845833 
L 249.365598 86.954532 
L 249.771924 104.88917 
L 250.17825 92.519756 
L 250.584576 85.394041 
L 250.990902 93.628481 
L 251.397228 89.943276 
L 251.803554 95.449806 
L 252.209881 93.915787 
L 252.616207 88.03344 
L 253.022533 92.257747 
L 253.428859 97.900153 
L 253.835185 94.531132 
L 254.241511 98.487091 
L 254.647837 91.658073 
L 255.054163 92.649058 
L 255.460489 104.879603 
L 255.866815 88.181231 
L 256.273141 100.392642 
L 256.679468 82.53636 
L 257.085794 93.62179 
L 257.49212 87.621762 
L 258.304772 101.263188 
L 258.711098 90.435306 
L 259.117424 105.401156 
L 259.52375 90.313927 
L 259.930076 96.802697 
L 260.336402 95.037894 
L 260.742728 85.186089 
L 261.149054 87.637962 
L 261.555381 85.51542 
L 262.368033 96.826175 
L 262.774359 93.976476 
L 263.180685 85.205869 
L 263.587011 98.570495 
L 264.399663 85.04452 
L 264.805989 92.510834 
L 265.212315 90.966484 
L 265.618641 100.356017 
L 266.024968 87.749245 
L 266.431294 98.20765 
L 266.83762 99.262553 
L 267.243946 83.266745 
L 267.650272 92.424613 
L 268.056598 94.130664 
L 268.462924 91.771469 
L 268.86925 85.053382 
L 269.275576 84.591991 
L 269.681902 94.903779 
L 270.088228 91.512277 
L 270.494555 83.886785 
L 270.900881 87.259035 
L 271.307207 78.567136 
L 271.713533 91.712717 
L 272.119859 90.873044 
L 272.526185 94.454478 
L 272.932511 95.867119 
L 273.338837 102.61379 
L 273.745163 82.544988 
L 274.151489 86.063032 
L 274.557815 87.733163 
L 274.964142 84.699342 
L 275.370468 96.495905 
L 276.18312 83.035139 
L 276.589446 94.432174 
L 277.402098 80.594653 
L 277.808424 90.345504 
L 278.21475 86.586228 
L 278.621076 96.405928 
L 279.027402 91.401522 
L 279.433729 83.186334 
L 279.840055 98.834088 
L 280.246381 94.506187 
L 280.652707 93.681246 
L 281.059033 99.150213 
L 281.465359 94.882825 
L 281.871685 94.211662 
L 282.278011 87.879076 
L 282.684337 92.010529 
L 283.090663 91.802929 
L 283.496989 82.154615 
L 283.903316 103.966974 
L 284.309642 96.039092 
L 284.715968 102.121643 
L 285.122294 86.556177 
L 285.52862 91.202903 
L 285.934946 90.713984 
L 286.341272 99.374834 
L 286.747598 76.047002 
L 287.153924 103.9101 
L 287.56025 88.498764 
L 287.966576 80.90708 
L 288.372902 96.969622 
L 288.779229 90.081383 
L 289.185555 75.898566 
L 289.591881 100.546889 
L 289.998207 84.892914 
L 290.404533 84.404347 
L 290.810859 96.987348 
L 291.217185 84.396658 
L 291.623511 87.834703 
L 292.029837 80.943294 
L 292.436163 83.058264 
L 292.842489 88.861668 
L 293.248816 88.000806 
L 293.655142 83.435313 
L 294.061468 82.715845 
L 294.467794 81.598375 
L 294.87412 70.446503 
L 295.280446 90.185975 
L 296.093098 84.207371 
L 296.499424 93.638693 
L 296.90575 93.890548 
L 297.312076 85.922109 
L 297.718403 85.103037 
L 298.124729 87.115646 
L 298.531055 86.289238 
L 298.937381 92.631861 
L 299.343707 88.898762 
L 299.750033 83.0396 
L 300.156359 81.833443 
L 300.562685 81.399344 
L 300.969011 87.88066 
L 301.375337 78.075165 
L 302.18799 85.165663 
L 302.594316 85.805601 
L 303.000642 83.213509 
L 303.406968 79.448423 
L 303.813294 85.250124 
L 304.21962 81.425522 
L 304.625946 84.940456 
L 305.032272 84.175911 
L 305.438598 86.992389 
L 305.844924 84.317891 
L 306.25125 88.681713 
L 306.657577 82.348481 
L 307.063903 81.418537 
L 307.470229 96.813791 
L 307.876555 90.598709 
L 308.282881 80.946346 
L 308.689207 78.693034 
L 309.501859 86.108226 
L 309.908185 79.878589 
L 310.720837 82.385282 
L 311.127163 74.091209 
L 311.53349 86.8571 
L 311.939816 83.033143 
L 312.346142 95.887016 
L 312.752468 81.781264 
L 313.158794 75.190954 
L 313.56512 88.525059 
L 313.971446 82.150624 
L 314.377772 78.18639 
L 314.784098 85.042465 
L 315.190424 87.601337 
L 315.59675 79.405635 
L 316.003077 78.623423 
L 316.409403 73.297787 
L 316.815729 87.549158 
L 317.222055 77.002243 
L 317.628381 88.345515 
L 318.034707 77.476723 
L 318.441033 85.53966 
L 318.847359 80.878848 
L 319.253685 82.928669 
L 319.660011 72.244176 
L 320.066337 81.357496 
L 320.472664 67.622806 
L 320.87899 73.906383 
L 321.285316 77.236373 
L 321.691642 71.016478 
L 322.097968 83.143722 
L 322.504294 77.130137 
L 322.91062 69.292408 
L 323.316946 95.032787 
L 323.723272 72.779521 
L 324.129598 77.777588 
L 324.535924 80.074568 
L 324.942251 77.402476 
L 325.348577 85.799791 
L 325.754903 91.377223 
L 326.161229 83.298674 
L 326.567555 81.582117 
L 326.973881 83.736999 
L 327.380207 84.677038 
L 327.786533 78.966899 
L 328.192859 82.472794 
L 328.599185 76.423288 
L 329.005511 75.677643 
L 329.411838 76.968553 
L 329.818164 90.249716 
L 330.22449 77.555314 
L 330.630816 81.642688 
L 331.037142 75.479434 
L 331.443468 75.735808 
L 331.849794 73.584741 
L 332.25612 79.997092 
L 332.662446 81.968732 
L 333.068772 78.602646 
L 333.475098 83.078807 
L 333.881425 78.914838 
L 334.287751 83.311352 
L 334.694077 76.411784 
L 335.100403 94.202388 
L 335.506729 81.832621 
L 335.913055 85.598178 
L 336.319381 82.13284 
L 336.725707 89.36749 
L 337.132033 76.501762 
L 337.538359 72.933475 
L 337.944685 86.960753 
L 338.757338 69.910629 
L 339.163664 82.744722 
L 339.56999 87.561718 
L 339.976316 89.135181 
L 340.788968 78.307005 
L 341.195294 84.122617 
L 341.60162 82.117932 
L 342.007946 72.58143 
L 342.414272 76.379268 
L 342.820598 68.678824 
L 343.226925 73.628292 
L 343.633251 85.719791 
L 344.039577 84.809627 
L 344.445903 85.34826 
L 344.852229 79.903593 
L 345.258555 85.718089 
L 345.664881 87.978796 
L 346.477533 70.466459 
L 346.883859 82.63068 
L 347.290185 88.28506 
L 347.696512 101.956009 
L 348.102838 82.971632 
L 348.509164 75.773489 
L 348.91549 89.659198 
L 349.321816 82.531899 
L 349.728142 85.316859 
L 350.134468 78.096706 
L 350.540794 76.545312 
L 350.94712 71.654538 
L 351.353446 83.871232 
L 351.759772 100.660462 
L 352.166099 89.520681 
L 352.572425 90.726309 
L 352.978751 82.061879 
L 353.385077 78.831375 
L 353.791403 80.88953 
L 354.197729 70.81733 
L 354.604055 89.800709 
L 355.010381 79.447131 
L 355.416707 78.816291 
L 355.823033 83.082505 
L 356.229359 72.427946 
L 356.635686 80.295608 
L 357.042012 75.188841 
L 357.448338 86.08469 
L 357.854664 73.078448 
L 358.667316 86.038146 
L 359.073642 72.817907 
L 359.479968 76.830799 
L 359.886294 71.012898 
L 360.29262 73.821629 
L 360.698946 77.884293 
L 361.105272 80.256107 
L 361.511599 77.450722 
L 361.917925 75.858478 
L 362.324251 78.435251 
L 362.730577 79.960878 
L 363.136903 79.773293 
L 363.543229 88.765938 
L 363.949555 82.024902 
L 364.355881 88.594435 
L 364.762207 79.811972 
L 365.168533 80.51929 
L 365.574859 79.395129 
L 365.981186 74.485396 
L 366.387512 71.249551 
L 366.793838 71.110095 
L 367.200164 69.530176 
L 367.60649 83.160157 
L 368.419142 70.40712 
L 369.231794 94.619642 
L 369.63812 81.638697 
L 370.044446 78.696203 
L 370.450773 79.614643 
L 370.857099 71.513849 
L 371.263425 69.804511 
L 371.669751 88.115024 
L 372.076077 62.247338 
L 372.482403 80.946228 
L 372.888729 69.01643 
L 373.295055 75.260682 
L 373.701381 72.53336 
L 374.107707 80.837645 
L 374.514033 82.026193 
L 374.92036 75.536778 
L 375.326686 76.687116 
L 375.733012 78.406491 
L 376.139338 83.280479 
L 376.545664 96.377226 
L 376.95199 77.720537 
L 377.358316 97.927328 
L 377.764642 82.355407 
L 378.170968 94.10302 
L 378.577294 81.252434 
L 378.98362 82.900848 
L 379.389947 92.586432 
L 379.796273 73.896698 
L 380.202599 81.225552 
L 380.608925 85.243433 
L 381.015251 75.962542 
L 381.827903 73.192314 
L 382.234229 78.289514 
L 382.640555 80.780947 
L 383.046881 72.674107 
L 383.453207 72.958009 
L 383.859534 73.733001 
L 384.26586 81.455455 
L 384.672186 80.185088 
L 385.078512 80.796677 
L 385.484838 86.75961 
L 385.891164 82.845206 
L 386.29749 90.894232 
L 386.703816 84.95824 
L 387.110142 70.049499 
L 387.516468 69.430984 
L 387.922794 81.26294 
L 388.32912 81.602777 
L 388.735447 91.244634 
L 389.141773 84.348705 
L 389.548099 79.427469 
L 389.954425 79.6687 
L 390.360751 90.408248 
L 390.767077 80.342094 
L 391.173403 74.127365 
L 391.579729 84.995276 
L 391.986055 85.270138 
L 392.392381 75.059069 
L 392.798707 69.483221 
L 393.205034 74.970031 
L 393.61136 76.725267 
L 394.017686 67.664889 
L 394.424012 101.01192 
L 394.830338 80.060011 
L 395.236664 78.541311 
L 395.64299 79.047544 
L 396.049316 76.685414 
L 396.455642 78.211628 
L 396.861968 80.595944 
L 397.268294 80.754535 
L 397.674621 83.038485 
L 398.080947 72.35857 
L 398.487273 79.150963 
L 398.487273 79.150963 
" clip-path="url(#p5ad721abfb)" style="fill: none; stroke: #ff7f0e; stroke-width: 1.5; stroke-linecap: square"/>
   </g>
   <g id="patch_3">
    <path d="M 57.6 307.584 
L 57.6 41.472 
" style="fill: none; stroke: #000000; stroke-width: 0.8; stroke-linejoin: miter; stroke-linecap: square"/>
   </g>
   <g id="patch_4">
    <path d="M 414.72 307.584 
L 414.72 41.472 
" style="fill: none; stroke: #000000; stroke-width: 0.8; stroke-linejoin: miter; stroke-linecap: square"/>
   </g>
   <g id="patch_5">
    <path d="M 57.6 307.584 
L 414.72 307.584 
" style="fill: none; stroke: #000000; stroke-width: 0.8; stroke-linejoin: miter; stroke-linecap: square"/>
   </g>
   <g id="patch_6">
    <path d="M 57.6 41.472 
L 414.72 41.472 
" style="fill: none; stroke: #000000; stroke-width: 0.8; stroke-linejoin: miter; stroke-linecap: square"/>
   </g>
   <g id="text_18">
    <!-- Model balanced accuracy -->
    <g transform="translate(159.826875 35.472) scale(0.12 -0.12)">
     <defs>
      <path id="DejaVuSans-4d" d="M 628 4666 
L 1569 4666 
L 2759 1491 
L 3956 4666 
L 4897 4666 
L 4897 0 
L 4281 0 
L 4281 4097 
L 3078 897 
L 2444 897 
L 1241 4097 
L 1241 0 
L 628 0 
L 628 4666 
z
" transform="scale(0.015625)"/>
      <path id="DejaVuSans-62" d="M 3116 1747 
Q 3116 2381 2855 2742 
Q 2594 3103 2138 3103 
Q 1681 3103 1420 2742 
Q 1159 2381 1159 1747 
Q 1159 1113 1420 752 
Q 1681 391 2138 391 
Q 2594 391 2855 752 
Q 3116 1113 3116 1747 
z
M 1159 2969 
Q 1341 3281 1617 3432 
Q 1894 3584 2278 3584 
Q 2916 3584 3314 3078 
Q 3713 2572 3713 1747 
Q 3713 922 3314 415 
Q 2916 -91 2278 -91 
Q 1894 -91 1617 61 
Q 1341 213 1159 525 
L 1159 0 
L 581 0 
L 581 4863 
L 1159 4863 
L 1159 2969 
z
" transform="scale(0.015625)"/>
     </defs>
     <use xlink:href="#DejaVuSans-4d"/>
     <use xlink:href="#DejaVuSans-6f" x="86.279297"/>
     <use xlink:href="#DejaVuSans-64" x="147.460938"/>
     <use xlink:href="#DejaVuSans-65" x="210.9375"/>
     <use xlink:href="#DejaVuSans-6c" x="272.460938"/>
     <use xlink:href="#DejaVuSans-20" x="300.244141"/>
     <use xlink:href="#DejaVuSans-62" x="332.03125"/>
     <use xlink:href="#DejaVuSans-61" x="395.507812"/>
     <use xlink:href="#DejaVuSans-6c" x="456.787109"/>
     <use xlink:href="#DejaVuSans-61" x="484.570312"/>
     <use xlink:href="#DejaVuSans-6e" x="545.849609"/>
     <use xlink:href="#DejaVuSans-63" x="609.228516"/>
     <use xlink:href="#DejaVuSans-65" x="664.208984"/>
     <use xlink:href="#DejaVuSans-64" x="725.732422"/>
     <use xlink:href="#DejaVuSans-20" x="789.208984"/>
     <use xlink:href="#DejaVuSans-61" x="820.996094"/>
     <use xlink:href="#DejaVuSans-63" x="882.275391"/>
     <use xlink:href="#DejaVuSans-63" x="937.255859"/>
     <use xlink:href="#DejaVuSans-75" x="992.236328"/>
     <use xlink:href="#DejaVuSans-72" x="1055.615234"/>
     <use xlink:href="#DejaVuSans-61" x="1096.728516"/>
     <use xlink:href="#DejaVuSans-63" x="1158.007812"/>
     <use xlink:href="#DejaVuSans-79" x="1212.988281"/>
    </g>
   </g>
   <g id="legend_1">
    <g id="patch_7">
     <path d="M 64.6 78.82825 
L 120.5875 78.82825 
Q 122.5875 78.82825 122.5875 76.82825 
L 122.5875 48.472 
Q 122.5875 46.472 120.5875 46.472 
L 64.6 46.472 
Q 62.6 46.472 62.6 48.472 
L 62.6 76.82825 
Q 62.6 78.82825 64.6 78.82825 
z
" style="fill: #ffffff; opacity: 0.8; stroke: #cccccc; stroke-linejoin: miter"/>
    </g>
    <g id="line2d_18">
     <path d="M 66.6 54.570437 
L 76.6 54.570437 
L 86.6 54.570437 
" style="fill: none; stroke: #1f77b4; stroke-width: 1.5; stroke-linecap: square"/>
    </g>
    <g id="text_19">
     <!-- Train -->
     <g transform="translate(94.6 58.070437) scale(0.1 -0.1)">
      <defs>
       <path id="DejaVuSans-54" d="M -19 4666 
L 3928 4666 
L 3928 4134 
L 2272 4134 
L 2272 0 
L 1638 0 
L 1638 4134 
L -19 4134 
L -19 4666 
z
" transform="scale(0.015625)"/>
       <path id="DejaVuSans-69" d="M 603 3500 
L 1178 3500 
L 1178 0 
L 603 0 
L 603 3500 
z
M 603 4863 
L 1178 4863 
L 1178 4134 
L 603 4134 
L 603 4863 
z
" transform="scale(0.015625)"/>
      </defs>
      <use xlink:href="#DejaVuSans-54"/>
      <use xlink:href="#DejaVuSans-72" x="46.333984"/>
      <use xlink:href="#DejaVuSans-61" x="87.447266"/>
      <use xlink:href="#DejaVuSans-69" x="148.726562"/>
      <use xlink:href="#DejaVuSans-6e" x="176.509766"/>
     </g>
    </g>
    <g id="line2d_19">
     <path d="M 66.6 69.248562 
L 76.6 69.248562 
L 86.6 69.248562 
" style="fill: none; stroke: #ff7f0e; stroke-width: 1.5; stroke-linecap: square"/>
    </g>
    <g id="text_20">
     <!-- Test -->
     <g transform="translate(94.6 72.748562) scale(0.1 -0.1)">
      <defs>
       <path id="DejaVuSans-73" d="M 2834 3397 
L 2834 2853 
Q 2591 2978 2328 3040 
Q 2066 3103 1784 3103 
Q 1356 3103 1142 2972 
Q 928 2841 928 2578 
Q 928 2378 1081 2264 
Q 1234 2150 1697 2047 
L 1894 2003 
Q 2506 1872 2764 1633 
Q 3022 1394 3022 966 
Q 3022 478 2636 193 
Q 2250 -91 1575 -91 
Q 1294 -91 989 -36 
Q 684 19 347 128 
L 347 722 
Q 666 556 975 473 
Q 1284 391 1588 391 
Q 1994 391 2212 530 
Q 2431 669 2431 922 
Q 2431 1156 2273 1281 
Q 2116 1406 1581 1522 
L 1381 1569 
Q 847 1681 609 1914 
Q 372 2147 372 2553 
Q 372 3047 722 3315 
Q 1072 3584 1716 3584 
Q 2034 3584 2315 3537 
Q 2597 3491 2834 3397 
z
" transform="scale(0.015625)"/>
       <path id="DejaVuSans-74" d="M 1172 4494 
L 1172 3500 
L 2356 3500 
L 2356 3053 
L 1172 3053 
L 1172 1153 
Q 1172 725 1289 603 
Q 1406 481 1766 481 
L 2356 481 
L 2356 0 
L 1766 0 
Q 1100 0 847 248 
Q 594 497 594 1153 
L 594 3053 
L 172 3053 
L 172 3500 
L 594 3500 
L 594 4494 
L 1172 4494 
z
" transform="scale(0.015625)"/>
      </defs>
      <use xlink:href="#DejaVuSans-54"/>
      <use xlink:href="#DejaVuSans-65" x="44.083984"/>
      <use xlink:href="#DejaVuSans-73" x="105.607422"/>
      <use xlink:href="#DejaVuSans-74" x="157.707031"/>
     </g>
    </g>
   </g>
  </g>
 </g>
 <defs>
  <clipPath id="p5ad721abfb">
   <rect x="57.6" y="41.472" width="357.12" height="266.112"/>
  </clipPath>
 </defs>
</svg>
