<?xml version="1.0" encoding="utf-8" standalone="no"?>
<!DOCTYPE svg PUBLIC "-//W3C//DTD SVG 1.1//EN"
  "http://www.w3.org/Graphics/SVG/1.1/DTD/svg11.dtd">
<svg xmlns:xlink="http://www.w3.org/1999/xlink" width="460.8pt" height="345.6pt" viewBox="0 0 460.8 345.6" xmlns="http://www.w3.org/2000/svg" version="1.1">
 <metadata>
  <rdf:RDF xmlns:dc="http://purl.org/dc/elements/1.1/" xmlns:cc="http://creativecommons.org/ns#" xmlns:rdf="http://www.w3.org/1999/02/22-rdf-syntax-ns#">
   <cc:Work>
    <dc:type rdf:resource="http://purl.org/dc/dcmitype/StillImage"/>
    <dc:date>2023-06-28T14:53:11.686598</dc:date>
    <dc:format>image/svg+xml</dc:format>
    <dc:creator>
     <cc:Agent>
      <dc:title>Matplotlib v3.6.2, https://matplotlib.org/</dc:title>
     </cc:Agent>
    </dc:creator>
   </cc:Work>
  </rdf:RDF>
 </metadata>
 <defs>
  <style type="text/css">*{stroke-linejoin: round; stroke-linecap: butt}</style>
 </defs>
 <g id="figure_1">
  <g id="patch_1">
   <path d="M 0 345.6 
L 460.8 345.6 
L 460.8 0 
L 0 0 
z
" style="fill: #ffffff"/>
  </g>
  <g id="axes_1">
   <g id="patch_2">
    <path d="M 57.6 307.584 
L 414.72 307.584 
L 414.72 41.472 
L 57.6 41.472 
z
" style="fill: #ffffff"/>
   </g>
   <g id="matplotlib.axis_1">
    <g id="xtick_1">
     <g id="line2d_1">
      <defs>
       <path id="m80fb472d07" d="M 0 0 
L 0 3.5 
" style="stroke: #000000; stroke-width: 0.8"/>
      </defs>
      <g>
       <use xlink:href="#m80fb472d07" x="73.832727" y="307.584" style="stroke: #000000; stroke-width: 0.8"/>
      </g>
     </g>
     <g id="text_1">
      <!-- 0 -->
      <g transform="translate(70.651477 322.182437) scale(0.1 -0.1)">
       <defs>
        <path id="DejaVuSans-30" d="M 2034 4250 
Q 1547 4250 1301 3770 
Q 1056 3291 1056 2328 
Q 1056 1369 1301 889 
Q 1547 409 2034 409 
Q 2525 409 2770 889 
Q 3016 1369 3016 2328 
Q 3016 3291 2770 3770 
Q 2525 4250 2034 4250 
z
M 2034 4750 
Q 2819 4750 3233 4129 
Q 3647 3509 3647 2328 
Q 3647 1150 3233 529 
Q 2819 -91 2034 -91 
Q 1250 -91 836 529 
Q 422 1150 422 2328 
Q 422 3509 836 4129 
Q 1250 4750 2034 4750 
z
" transform="scale(0.015625)"/>
       </defs>
       <use xlink:href="#DejaVuSans-30"/>
      </g>
     </g>
    </g>
    <g id="xtick_2">
     <g id="line2d_2">
      <g>
       <use xlink:href="#m80fb472d07" x="114.516254" y="307.584" style="stroke: #000000; stroke-width: 0.8"/>
      </g>
     </g>
     <g id="text_2">
      <!-- 50 -->
      <g transform="translate(108.153754 322.182437) scale(0.1 -0.1)">
       <defs>
        <path id="DejaVuSans-35" d="M 691 4666 
L 3169 4666 
L 3169 4134 
L 1269 4134 
L 1269 2991 
Q 1406 3038 1543 3061 
Q 1681 3084 1819 3084 
Q 2600 3084 3056 2656 
Q 3513 2228 3513 1497 
Q 3513 744 3044 326 
Q 2575 -91 1722 -91 
Q 1428 -91 1123 -41 
Q 819 9 494 109 
L 494 744 
Q 775 591 1075 516 
Q 1375 441 1709 441 
Q 2250 441 2565 725 
Q 2881 1009 2881 1497 
Q 2881 1984 2565 2268 
Q 2250 2553 1709 2553 
Q 1456 2553 1204 2497 
Q 953 2441 691 2322 
L 691 4666 
z
" transform="scale(0.015625)"/>
       </defs>
       <use xlink:href="#DejaVuSans-35"/>
       <use xlink:href="#DejaVuSans-30" x="63.623047"/>
      </g>
     </g>
    </g>
    <g id="xtick_3">
     <g id="line2d_3">
      <g>
       <use xlink:href="#m80fb472d07" x="155.199781" y="307.584" style="stroke: #000000; stroke-width: 0.8"/>
      </g>
     </g>
     <g id="text_3">
      <!-- 100 -->
      <g transform="translate(145.656031 322.182437) scale(0.1 -0.1)">
       <defs>
        <path id="DejaVuSans-31" d="M 794 531 
L 1825 531 
L 1825 4091 
L 703 3866 
L 703 4441 
L 1819 4666 
L 2450 4666 
L 2450 531 
L 3481 531 
L 3481 0 
L 794 0 
L 794 531 
z
" transform="scale(0.015625)"/>
       </defs>
       <use xlink:href="#DejaVuSans-31"/>
       <use xlink:href="#DejaVuSans-30" x="63.623047"/>
       <use xlink:href="#DejaVuSans-30" x="127.246094"/>
      </g>
     </g>
    </g>
    <g id="xtick_4">
     <g id="line2d_4">
      <g>
       <use xlink:href="#m80fb472d07" x="195.883308" y="307.584" style="stroke: #000000; stroke-width: 0.8"/>
      </g>
     </g>
     <g id="text_4">
      <!-- 150 -->
      <g transform="translate(186.339558 322.182437) scale(0.1 -0.1)">
       <use xlink:href="#DejaVuSans-31"/>
       <use xlink:href="#DejaVuSans-35" x="63.623047"/>
       <use xlink:href="#DejaVuSans-30" x="127.246094"/>
      </g>
     </g>
    </g>
    <g id="xtick_5">
     <g id="line2d_5">
      <g>
       <use xlink:href="#m80fb472d07" x="236.566835" y="307.584" style="stroke: #000000; stroke-width: 0.8"/>
      </g>
     </g>
     <g id="text_5">
      <!-- 200 -->
      <g transform="translate(227.023085 322.182437) scale(0.1 -0.1)">
       <defs>
        <path id="DejaVuSans-32" d="M 1228 531 
L 3431 531 
L 3431 0 
L 469 0 
L 469 531 
Q 828 903 1448 1529 
Q 2069 2156 2228 2338 
Q 2531 2678 2651 2914 
Q 2772 3150 2772 3378 
Q 2772 3750 2511 3984 
Q 2250 4219 1831 4219 
Q 1534 4219 1204 4116 
Q 875 4013 500 3803 
L 500 4441 
Q 881 4594 1212 4672 
Q 1544 4750 1819 4750 
Q 2544 4750 2975 4387 
Q 3406 4025 3406 3419 
Q 3406 3131 3298 2873 
Q 3191 2616 2906 2266 
Q 2828 2175 2409 1742 
Q 1991 1309 1228 531 
z
" transform="scale(0.015625)"/>
       </defs>
       <use xlink:href="#DejaVuSans-32"/>
       <use xlink:href="#DejaVuSans-30" x="63.623047"/>
       <use xlink:href="#DejaVuSans-30" x="127.246094"/>
      </g>
     </g>
    </g>
    <g id="xtick_6">
     <g id="line2d_6">
      <g>
       <use xlink:href="#m80fb472d07" x="277.250362" y="307.584" style="stroke: #000000; stroke-width: 0.8"/>
      </g>
     </g>
     <g id="text_6">
      <!-- 250 -->
      <g transform="translate(267.706612 322.182437) scale(0.1 -0.1)">
       <use xlink:href="#DejaVuSans-32"/>
       <use xlink:href="#DejaVuSans-35" x="63.623047"/>
       <use xlink:href="#DejaVuSans-30" x="127.246094"/>
      </g>
     </g>
    </g>
    <g id="xtick_7">
     <g id="line2d_7">
      <g>
       <use xlink:href="#m80fb472d07" x="317.933889" y="307.584" style="stroke: #000000; stroke-width: 0.8"/>
      </g>
     </g>
     <g id="text_7">
      <!-- 300 -->
      <g transform="translate(308.390139 322.182437) scale(0.1 -0.1)">
       <defs>
        <path id="DejaVuSans-33" d="M 2597 2516 
Q 3050 2419 3304 2112 
Q 3559 1806 3559 1356 
Q 3559 666 3084 287 
Q 2609 -91 1734 -91 
Q 1441 -91 1130 -33 
Q 819 25 488 141 
L 488 750 
Q 750 597 1062 519 
Q 1375 441 1716 441 
Q 2309 441 2620 675 
Q 2931 909 2931 1356 
Q 2931 1769 2642 2001 
Q 2353 2234 1838 2234 
L 1294 2234 
L 1294 2753 
L 1863 2753 
Q 2328 2753 2575 2939 
Q 2822 3125 2822 3475 
Q 2822 3834 2567 4026 
Q 2313 4219 1838 4219 
Q 1578 4219 1281 4162 
Q 984 4106 628 3988 
L 628 4550 
Q 988 4650 1302 4700 
Q 1616 4750 1894 4750 
Q 2613 4750 3031 4423 
Q 3450 4097 3450 3541 
Q 3450 3153 3228 2886 
Q 3006 2619 2597 2516 
z
" transform="scale(0.015625)"/>
       </defs>
       <use xlink:href="#DejaVuSans-33"/>
       <use xlink:href="#DejaVuSans-30" x="63.623047"/>
       <use xlink:href="#DejaVuSans-30" x="127.246094"/>
      </g>
     </g>
    </g>
    <g id="xtick_8">
     <g id="line2d_8">
      <g>
       <use xlink:href="#m80fb472d07" x="358.617416" y="307.584" style="stroke: #000000; stroke-width: 0.8"/>
      </g>
     </g>
     <g id="text_8">
      <!-- 350 -->
      <g transform="translate(349.073666 322.182437) scale(0.1 -0.1)">
       <use xlink:href="#DejaVuSans-33"/>
       <use xlink:href="#DejaVuSans-35" x="63.623047"/>
       <use xlink:href="#DejaVuSans-30" x="127.246094"/>
      </g>
     </g>
    </g>
    <g id="xtick_9">
     <g id="line2d_9">
      <g>
       <use xlink:href="#m80fb472d07" x="399.300943" y="307.584" style="stroke: #000000; stroke-width: 0.8"/>
      </g>
     </g>
     <g id="text_9">
      <!-- 400 -->
      <g transform="translate(389.757193 322.182437) scale(0.1 -0.1)">
       <defs>
        <path id="DejaVuSans-34" d="M 2419 4116 
L 825 1625 
L 2419 1625 
L 2419 4116 
z
M 2253 4666 
L 3047 4666 
L 3047 1625 
L 3713 1625 
L 3713 1100 
L 3047 1100 
L 3047 0 
L 2419 0 
L 2419 1100 
L 313 1100 
L 313 1709 
L 2253 4666 
z
" transform="scale(0.015625)"/>
       </defs>
       <use xlink:href="#DejaVuSans-34"/>
       <use xlink:href="#DejaVuSans-30" x="63.623047"/>
       <use xlink:href="#DejaVuSans-30" x="127.246094"/>
      </g>
     </g>
    </g>
    <g id="text_10">
     <!-- Epoch -->
     <g transform="translate(220.849063 335.860562) scale(0.1 -0.1)">
      <defs>
       <path id="DejaVuSans-45" d="M 628 4666 
L 3578 4666 
L 3578 4134 
L 1259 4134 
L 1259 2753 
L 3481 2753 
L 3481 2222 
L 1259 2222 
L 1259 531 
L 3634 531 
L 3634 0 
L 628 0 
L 628 4666 
z
" transform="scale(0.015625)"/>
       <path id="DejaVuSans-70" d="M 1159 525 
L 1159 -1331 
L 581 -1331 
L 581 3500 
L 1159 3500 
L 1159 2969 
Q 1341 3281 1617 3432 
Q 1894 3584 2278 3584 
Q 2916 3584 3314 3078 
Q 3713 2572 3713 1747 
Q 3713 922 3314 415 
Q 2916 -91 2278 -91 
Q 1894 -91 1617 61 
Q 1341 213 1159 525 
z
M 3116 1747 
Q 3116 2381 2855 2742 
Q 2594 3103 2138 3103 
Q 1681 3103 1420 2742 
Q 1159 2381 1159 1747 
Q 1159 1113 1420 752 
Q 1681 391 2138 391 
Q 2594 391 2855 752 
Q 3116 1113 3116 1747 
z
" transform="scale(0.015625)"/>
       <path id="DejaVuSans-6f" d="M 1959 3097 
Q 1497 3097 1228 2736 
Q 959 2375 959 1747 
Q 959 1119 1226 758 
Q 1494 397 1959 397 
Q 2419 397 2687 759 
Q 2956 1122 2956 1747 
Q 2956 2369 2687 2733 
Q 2419 3097 1959 3097 
z
M 1959 3584 
Q 2709 3584 3137 3096 
Q 3566 2609 3566 1747 
Q 3566 888 3137 398 
Q 2709 -91 1959 -91 
Q 1206 -91 779 398 
Q 353 888 353 1747 
Q 353 2609 779 3096 
Q 1206 3584 1959 3584 
z
" transform="scale(0.015625)"/>
       <path id="DejaVuSans-63" d="M 3122 3366 
L 3122 2828 
Q 2878 2963 2633 3030 
Q 2388 3097 2138 3097 
Q 1578 3097 1268 2742 
Q 959 2388 959 1747 
Q 959 1106 1268 751 
Q 1578 397 2138 397 
Q 2388 397 2633 464 
Q 2878 531 3122 666 
L 3122 134 
Q 2881 22 2623 -34 
Q 2366 -91 2075 -91 
Q 1284 -91 818 406 
Q 353 903 353 1747 
Q 353 2603 823 3093 
Q 1294 3584 2113 3584 
Q 2378 3584 2631 3529 
Q 2884 3475 3122 3366 
z
" transform="scale(0.015625)"/>
       <path id="DejaVuSans-68" d="M 3513 2113 
L 3513 0 
L 2938 0 
L 2938 2094 
Q 2938 2591 2744 2837 
Q 2550 3084 2163 3084 
Q 1697 3084 1428 2787 
Q 1159 2491 1159 1978 
L 1159 0 
L 581 0 
L 581 4863 
L 1159 4863 
L 1159 2956 
Q 1366 3272 1645 3428 
Q 1925 3584 2291 3584 
Q 2894 3584 3203 3211 
Q 3513 2838 3513 2113 
z
" transform="scale(0.015625)"/>
      </defs>
      <use xlink:href="#DejaVuSans-45"/>
      <use xlink:href="#DejaVuSans-70" x="63.183594"/>
      <use xlink:href="#DejaVuSans-6f" x="126.660156"/>
      <use xlink:href="#DejaVuSans-63" x="187.841797"/>
      <use xlink:href="#DejaVuSans-68" x="242.822266"/>
     </g>
    </g>
   </g>
   <g id="matplotlib.axis_2">
    <g id="ytick_1">
     <g id="line2d_10">
      <defs>
       <path id="medf493145d" d="M 0 0 
L -3.5 0 
" style="stroke: #000000; stroke-width: 0.8"/>
      </defs>
      <g>
       <use xlink:href="#medf493145d" x="57.6" y="298.673073" style="stroke: #000000; stroke-width: 0.8"/>
      </g>
     </g>
     <g id="text_11">
      <!-- 0.350 -->
      <g transform="translate(21.971875 302.472292) scale(0.1 -0.1)">
       <defs>
        <path id="DejaVuSans-2e" d="M 684 794 
L 1344 794 
L 1344 0 
L 684 0 
L 684 794 
z
" transform="scale(0.015625)"/>
       </defs>
       <use xlink:href="#DejaVuSans-30"/>
       <use xlink:href="#DejaVuSans-2e" x="63.623047"/>
       <use xlink:href="#DejaVuSans-33" x="95.410156"/>
       <use xlink:href="#DejaVuSans-35" x="159.033203"/>
       <use xlink:href="#DejaVuSans-30" x="222.65625"/>
      </g>
     </g>
    </g>
    <g id="ytick_2">
     <g id="line2d_11">
      <g>
       <use xlink:href="#medf493145d" x="57.6" y="263.514045" style="stroke: #000000; stroke-width: 0.8"/>
      </g>
     </g>
     <g id="text_12">
      <!-- 0.375 -->
      <g transform="translate(21.971875 267.313264) scale(0.1 -0.1)">
       <defs>
        <path id="DejaVuSans-37" d="M 525 4666 
L 3525 4666 
L 3525 4397 
L 1831 0 
L 1172 0 
L 2766 4134 
L 525 4134 
L 525 4666 
z
" transform="scale(0.015625)"/>
       </defs>
       <use xlink:href="#DejaVuSans-30"/>
       <use xlink:href="#DejaVuSans-2e" x="63.623047"/>
       <use xlink:href="#DejaVuSans-33" x="95.410156"/>
       <use xlink:href="#DejaVuSans-37" x="159.033203"/>
       <use xlink:href="#DejaVuSans-35" x="222.65625"/>
      </g>
     </g>
    </g>
    <g id="ytick_3">
     <g id="line2d_12">
      <g>
       <use xlink:href="#medf493145d" x="57.6" y="228.355018" style="stroke: #000000; stroke-width: 0.8"/>
      </g>
     </g>
     <g id="text_13">
      <!-- 0.400 -->
      <g transform="translate(21.971875 232.154236) scale(0.1 -0.1)">
       <use xlink:href="#DejaVuSans-30"/>
       <use xlink:href="#DejaVuSans-2e" x="63.623047"/>
       <use xlink:href="#DejaVuSans-34" x="95.410156"/>
       <use xlink:href="#DejaVuSans-30" x="159.033203"/>
       <use xlink:href="#DejaVuSans-30" x="222.65625"/>
      </g>
     </g>
    </g>
    <g id="ytick_4">
     <g id="line2d_13">
      <g>
       <use xlink:href="#medf493145d" x="57.6" y="193.19599" style="stroke: #000000; stroke-width: 0.8"/>
      </g>
     </g>
     <g id="text_14">
      <!-- 0.425 -->
      <g transform="translate(21.971875 196.995209) scale(0.1 -0.1)">
       <use xlink:href="#DejaVuSans-30"/>
       <use xlink:href="#DejaVuSans-2e" x="63.623047"/>
       <use xlink:href="#DejaVuSans-34" x="95.410156"/>
       <use xlink:href="#DejaVuSans-32" x="159.033203"/>
       <use xlink:href="#DejaVuSans-35" x="222.65625"/>
      </g>
     </g>
    </g>
    <g id="ytick_5">
     <g id="line2d_14">
      <g>
       <use xlink:href="#medf493145d" x="57.6" y="158.036962" style="stroke: #000000; stroke-width: 0.8"/>
      </g>
     </g>
     <g id="text_15">
      <!-- 0.450 -->
      <g transform="translate(21.971875 161.836181) scale(0.1 -0.1)">
       <use xlink:href="#DejaVuSans-30"/>
       <use xlink:href="#DejaVuSans-2e" x="63.623047"/>
       <use xlink:href="#DejaVuSans-34" x="95.410156"/>
       <use xlink:href="#DejaVuSans-35" x="159.033203"/>
       <use xlink:href="#DejaVuSans-30" x="222.65625"/>
      </g>
     </g>
    </g>
    <g id="ytick_6">
     <g id="line2d_15">
      <g>
       <use xlink:href="#medf493145d" x="57.6" y="122.877935" style="stroke: #000000; stroke-width: 0.8"/>
      </g>
     </g>
     <g id="text_16">
      <!-- 0.475 -->
      <g transform="translate(21.971875 126.677153) scale(0.1 -0.1)">
       <use xlink:href="#DejaVuSans-30"/>
       <use xlink:href="#DejaVuSans-2e" x="63.623047"/>
       <use xlink:href="#DejaVuSans-34" x="95.410156"/>
       <use xlink:href="#DejaVuSans-37" x="159.033203"/>
       <use xlink:href="#DejaVuSans-35" x="222.65625"/>
      </g>
     </g>
    </g>
    <g id="ytick_7">
     <g id="line2d_16">
      <g>
       <use xlink:href="#medf493145d" x="57.6" y="87.718907" style="stroke: #000000; stroke-width: 0.8"/>
      </g>
     </g>
     <g id="text_17">
      <!-- 0.500 -->
      <g transform="translate(21.971875 91.518126) scale(0.1 -0.1)">
       <use xlink:href="#DejaVuSans-30"/>
       <use xlink:href="#DejaVuSans-2e" x="63.623047"/>
       <use xlink:href="#DejaVuSans-35" x="95.410156"/>
       <use xlink:href="#DejaVuSans-30" x="159.033203"/>
       <use xlink:href="#DejaVuSans-30" x="222.65625"/>
      </g>
     </g>
    </g>
    <g id="ytick_8">
     <g id="line2d_17">
      <g>
       <use xlink:href="#medf493145d" x="57.6" y="52.559879" style="stroke: #000000; stroke-width: 0.8"/>
      </g>
     </g>
     <g id="text_18">
      <!-- 0.525 -->
      <g transform="translate(21.971875 56.359098) scale(0.1 -0.1)">
       <use xlink:href="#DejaVuSans-30"/>
       <use xlink:href="#DejaVuSans-2e" x="63.623047"/>
       <use xlink:href="#DejaVuSans-35" x="95.410156"/>
       <use xlink:href="#DejaVuSans-32" x="159.033203"/>
       <use xlink:href="#DejaVuSans-35" x="222.65625"/>
      </g>
     </g>
    </g>
    <g id="text_19">
     <!-- Balanced accuracy -->
     <g transform="translate(15.892187 221.792844) rotate(-90) scale(0.1 -0.1)">
      <defs>
       <path id="DejaVuSans-42" d="M 1259 2228 
L 1259 519 
L 2272 519 
Q 2781 519 3026 730 
Q 3272 941 3272 1375 
Q 3272 1813 3026 2020 
Q 2781 2228 2272 2228 
L 1259 2228 
z
M 1259 4147 
L 1259 2741 
L 2194 2741 
Q 2656 2741 2882 2914 
Q 3109 3088 3109 3444 
Q 3109 3797 2882 3972 
Q 2656 4147 2194 4147 
L 1259 4147 
z
M 628 4666 
L 2241 4666 
Q 2963 4666 3353 4366 
Q 3744 4066 3744 3513 
Q 3744 3084 3544 2831 
Q 3344 2578 2956 2516 
Q 3422 2416 3680 2098 
Q 3938 1781 3938 1306 
Q 3938 681 3513 340 
Q 3088 0 2303 0 
L 628 0 
L 628 4666 
z
" transform="scale(0.015625)"/>
       <path id="DejaVuSans-61" d="M 2194 1759 
Q 1497 1759 1228 1600 
Q 959 1441 959 1056 
Q 959 750 1161 570 
Q 1363 391 1709 391 
Q 2188 391 2477 730 
Q 2766 1069 2766 1631 
L 2766 1759 
L 2194 1759 
z
M 3341 1997 
L 3341 0 
L 2766 0 
L 2766 531 
Q 2569 213 2275 61 
Q 1981 -91 1556 -91 
Q 1019 -91 701 211 
Q 384 513 384 1019 
Q 384 1609 779 1909 
Q 1175 2209 1959 2209 
L 2766 2209 
L 2766 2266 
Q 2766 2663 2505 2880 
Q 2244 3097 1772 3097 
Q 1472 3097 1187 3025 
Q 903 2953 641 2809 
L 641 3341 
Q 956 3463 1253 3523 
Q 1550 3584 1831 3584 
Q 2591 3584 2966 3190 
Q 3341 2797 3341 1997 
z
" transform="scale(0.015625)"/>
       <path id="DejaVuSans-6c" d="M 603 4863 
L 1178 4863 
L 1178 0 
L 603 0 
L 603 4863 
z
" transform="scale(0.015625)"/>
       <path id="DejaVuSans-6e" d="M 3513 2113 
L 3513 0 
L 2938 0 
L 2938 2094 
Q 2938 2591 2744 2837 
Q 2550 3084 2163 3084 
Q 1697 3084 1428 2787 
Q 1159 2491 1159 1978 
L 1159 0 
L 581 0 
L 581 3500 
L 1159 3500 
L 1159 2956 
Q 1366 3272 1645 3428 
Q 1925 3584 2291 3584 
Q 2894 3584 3203 3211 
Q 3513 2838 3513 2113 
z
" transform="scale(0.015625)"/>
       <path id="DejaVuSans-65" d="M 3597 1894 
L 3597 1613 
L 953 1613 
Q 991 1019 1311 708 
Q 1631 397 2203 397 
Q 2534 397 2845 478 
Q 3156 559 3463 722 
L 3463 178 
Q 3153 47 2828 -22 
Q 2503 -91 2169 -91 
Q 1331 -91 842 396 
Q 353 884 353 1716 
Q 353 2575 817 3079 
Q 1281 3584 2069 3584 
Q 2775 3584 3186 3129 
Q 3597 2675 3597 1894 
z
M 3022 2063 
Q 3016 2534 2758 2815 
Q 2500 3097 2075 3097 
Q 1594 3097 1305 2825 
Q 1016 2553 972 2059 
L 3022 2063 
z
" transform="scale(0.015625)"/>
       <path id="DejaVuSans-64" d="M 2906 2969 
L 2906 4863 
L 3481 4863 
L 3481 0 
L 2906 0 
L 2906 525 
Q 2725 213 2448 61 
Q 2172 -91 1784 -91 
Q 1150 -91 751 415 
Q 353 922 353 1747 
Q 353 2572 751 3078 
Q 1150 3584 1784 3584 
Q 2172 3584 2448 3432 
Q 2725 3281 2906 2969 
z
M 947 1747 
Q 947 1113 1208 752 
Q 1469 391 1925 391 
Q 2381 391 2643 752 
Q 2906 1113 2906 1747 
Q 2906 2381 2643 2742 
Q 2381 3103 1925 3103 
Q 1469 3103 1208 2742 
Q 947 2381 947 1747 
z
" transform="scale(0.015625)"/>
       <path id="DejaVuSans-20" transform="scale(0.015625)"/>
       <path id="DejaVuSans-75" d="M 544 1381 
L 544 3500 
L 1119 3500 
L 1119 1403 
Q 1119 906 1312 657 
Q 1506 409 1894 409 
Q 2359 409 2629 706 
Q 2900 1003 2900 1516 
L 2900 3500 
L 3475 3500 
L 3475 0 
L 2900 0 
L 2900 538 
Q 2691 219 2414 64 
Q 2138 -91 1772 -91 
Q 1169 -91 856 284 
Q 544 659 544 1381 
z
M 1991 3584 
L 1991 3584 
z
" transform="scale(0.015625)"/>
       <path id="DejaVuSans-72" d="M 2631 2963 
Q 2534 3019 2420 3045 
Q 2306 3072 2169 3072 
Q 1681 3072 1420 2755 
Q 1159 2438 1159 1844 
L 1159 0 
L 581 0 
L 581 3500 
L 1159 3500 
L 1159 2956 
Q 1341 3275 1631 3429 
Q 1922 3584 2338 3584 
Q 2397 3584 2469 3576 
Q 2541 3569 2628 3553 
L 2631 2963 
z
" transform="scale(0.015625)"/>
       <path id="DejaVuSans-79" d="M 2059 -325 
Q 1816 -950 1584 -1140 
Q 1353 -1331 966 -1331 
L 506 -1331 
L 506 -850 
L 844 -850 
Q 1081 -850 1212 -737 
Q 1344 -625 1503 -206 
L 1606 56 
L 191 3500 
L 800 3500 
L 1894 763 
L 2988 3500 
L 3597 3500 
L 2059 -325 
z
" transform="scale(0.015625)"/>
      </defs>
      <use xlink:href="#DejaVuSans-42"/>
      <use xlink:href="#DejaVuSans-61" x="68.603516"/>
      <use xlink:href="#DejaVuSans-6c" x="129.882812"/>
      <use xlink:href="#DejaVuSans-61" x="157.666016"/>
      <use xlink:href="#DejaVuSans-6e" x="218.945312"/>
      <use xlink:href="#DejaVuSans-63" x="282.324219"/>
      <use xlink:href="#DejaVuSans-65" x="337.304688"/>
      <use xlink:href="#DejaVuSans-64" x="398.828125"/>
      <use xlink:href="#DejaVuSans-20" x="462.304688"/>
      <use xlink:href="#DejaVuSans-61" x="494.091797"/>
      <use xlink:href="#DejaVuSans-63" x="555.371094"/>
      <use xlink:href="#DejaVuSans-63" x="610.351562"/>
      <use xlink:href="#DejaVuSans-75" x="665.332031"/>
      <use xlink:href="#DejaVuSans-72" x="728.710938"/>
      <use xlink:href="#DejaVuSans-61" x="769.824219"/>
      <use xlink:href="#DejaVuSans-63" x="831.103516"/>
      <use xlink:href="#DejaVuSans-79" x="886.083984"/>
     </g>
    </g>
   </g>
   <g id="line2d_18">
    <path d="M 73.832727 262.625871 
L 74.646398 215.572854 
L 75.460068 208.177001 
L 76.273739 215.605798 
L 77.087409 213.95678 
L 77.90108 220.430425 
L 78.714751 210.937002 
L 79.528421 209.444235 
L 81.155762 196.611827 
L 81.969433 183.867393 
L 82.783103 184.656696 
L 83.596774 183.940364 
L 84.410444 179.697109 
L 85.224115 181.831855 
L 86.037785 177.504104 
L 86.851456 174.092987 
L 87.665126 175.496102 
L 88.478797 168.15331 
L 90.106138 160.372655 
L 90.919809 162.416241 
L 91.733479 158.025788 
L 92.54715 151.029699 
L 93.36082 156.769829 
L 94.174491 156.903782 
L 94.988161 154.104718 
L 95.801832 155.593587 
L 96.615502 147.485341 
L 97.429173 149.401595 
L 98.242843 147.36086 
L 99.056514 152.202378 
L 99.870185 148.4744 
L 100.683855 147.202346 
L 101.497526 147.931293 
L 102.311196 146.4866 
L 103.124867 142.311202 
L 103.938537 147.092031 
L 104.752208 145.380018 
L 105.565878 140.157973 
L 106.379549 141.173143 
L 107.193219 144.38069 
L 108.82056 136.71014 
L 109.634231 145.949487 
L 110.447902 147.746584 
L 111.261572 143.04036 
L 112.075243 142.711805 
L 112.888913 138.542778 
L 113.702584 139.331242 
L 114.516254 145.87899 
L 115.329925 137.916181 
L 116.143595 139.696219 
L 116.957266 137.046574 
L 117.770936 144.634347 
L 118.584607 138.363349 
L 119.398278 142.673162 
L 120.211948 133.607208 
L 121.025619 136.170764 
L 121.839289 135.455521 
L 122.65296 141.122722 
L 123.46663 135.342566 
L 124.280301 134.393828 
L 125.093971 133.165907 
L 125.907642 130.528668 
L 126.721312 136.23816 
L 127.534983 133.750508 
L 128.348653 132.687934 
L 129.162324 140.578903 
L 129.975995 133.488469 
L 130.789665 135.005881 
L 131.603336 131.73077 
L 132.417006 132.703148 
L 133.230677 135.280242 
L 134.044347 127.544056 
L 134.858018 132.745899 
L 135.671688 132.803739 
L 136.485359 138.179604 
L 137.299029 135.988275 
L 138.1127 130.234357 
L 138.92637 137.661813 
L 139.740041 137.857713 
L 140.553712 126.794864 
L 141.367382 132.698621 
L 142.181053 132.110962 
L 142.994723 132.171148 
L 143.808394 129.891594 
L 144.622064 129.331429 
L 145.435735 132.116913 
L 146.249405 126.463669 
L 147.063076 132.775867 
L 147.876746 130.570078 
L 148.690417 130.878389 
L 149.504087 135.630591 
L 150.317758 134.268466 
L 151.131429 123.856105 
L 151.945099 129.71753 
L 152.75877 129.757724 
L 153.57244 127.8693 
L 154.386111 131.695941 
L 155.199781 125.340363 
L 156.013452 124.907027 
L 156.827122 126.590916 
L 157.640793 128.86431 
L 158.454463 133.153543 
L 159.268134 128.635718 
L 160.081805 127.685512 
L 160.895475 127.790504 
L 161.709146 127.762506 
L 162.522816 125.046219 
L 163.336487 128.535923 
L 164.150157 123.864236 
L 164.963828 129.632237 
L 165.777498 124.564725 
L 166.591169 124.417485 
L 167.404839 129.926381 
L 168.21851 129.772016 
L 169.03218 126.917124 
L 169.845851 120.498803 
L 170.659522 129.118637 
L 171.473192 125.146056 
L 172.286863 124.343006 
L 173.100533 126.489739 
L 173.914204 127.72688 
L 174.727874 122.89081 
L 175.541545 128.606085 
L 176.355215 133.006848 
L 177.168886 124.788749 
L 177.982556 124.663178 
L 178.796227 125.44108 
L 179.609897 124.926558 
L 180.423568 126.084148 
L 181.237239 121.150087 
L 182.050909 133.340768 
L 182.86458 122.297492 
L 183.67825 124.045089 
L 184.491921 119.092293 
L 185.305591 127.572515 
L 186.119262 119.275368 
L 186.932932 117.162877 
L 187.746603 135.779759 
L 188.560273 121.147907 
L 189.373944 119.672115 
L 190.187614 121.470929 
L 191.001285 121.908751 
L 191.814956 117.928499 
L 192.628626 128.446649 
L 193.442297 119.132822 
L 194.255967 118.097575 
L 195.069638 123.419079 
L 195.883308 120.50903 
L 196.696979 123.441545 
L 197.510649 119.177543 
L 198.32432 112.456654 
L 199.13799 129.586468 
L 199.951661 114.962999 
L 200.765332 113.435109 
L 201.579002 115.908301 
L 202.392673 114.674345 
L 203.206343 115.73583 
L 204.020014 126.821018 
L 204.833684 117.766925 
L 205.647355 124.038677 
L 206.461025 115.719777 
L 207.274696 124.532368 
L 208.088366 115.61906 
L 208.902037 116.051685 
L 209.715707 119.76667 
L 210.529378 124.028073 
L 211.343049 115.702174 
L 212.156719 115.573459 
L 212.97039 126.12275 
L 213.78406 112.450535 
L 214.597731 113.86417 
L 215.411401 118.49537 
L 216.225072 114.321775 
L 217.038742 112.117328 
L 217.852413 115.062793 
L 218.666083 126.009166 
L 219.479754 107.820927 
L 220.293424 108.578963 
L 221.107095 120.40911 
L 221.920766 115.18388 
L 222.734436 116.433008 
L 223.548107 116.096196 
L 224.361777 111.859145 
L 225.175448 108.476234 
L 225.989118 110.075041 
L 226.802789 113.827622 
L 227.616459 100.336889 
L 228.43013 108.002871 
L 229.2438 112.217793 
L 230.057471 108.554989 
L 230.871141 112.772844 
L 231.684812 109.732278 
L 232.498483 108.509807 
L 233.312153 111.286448 
L 234.125824 109.298774 
L 234.939494 108.242445 
L 235.753165 123.360276 
L 236.566835 103.814355 
L 237.380506 121.274274 
L 238.194176 106.739409 
L 239.007847 112.010659 
L 239.821517 105.818123 
L 240.635188 107.716816 
L 241.448859 116.806199 
L 242.262529 106.129158 
L 243.0762 110.687807 
L 243.88987 104.897298 
L 244.703541 111.991631 
L 245.517211 111.753189 
L 246.330882 104.387512 
L 247.144552 114.852181 
L 247.958223 114.039492 
L 248.771893 112.905456 
L 249.585564 102.698426 
L 250.399234 111.766936 
L 251.212905 108.567102 
L 252.026576 118.459157 
L 252.840246 119.844712 
L 253.653917 111.537925 
L 254.467587 110.659348 
L 255.281258 112.63931 
L 256.094928 113.286486 
L 256.908599 103.151629 
L 257.722269 106.938201 
L 258.53594 104.881665 
L 259.34961 110.244369 
L 260.163281 108.033593 
L 260.976951 108.674943 
L 261.790622 105.308798 
L 262.604293 109.172826 
L 263.417963 111.34215 
L 264.231634 111.631055 
L 265.045304 111.226428 
L 265.858975 106.296181 
L 266.672645 103.591378 
L 267.486316 112.76794 
L 268.299986 108.620163 
L 269.113657 115.337783 
L 269.927327 106.34283 
L 270.740998 116.487494 
L 271.554668 100.34502 
L 272.368339 104.603657 
L 273.18201 106.398197 
L 273.99568 113.177429 
L 274.809351 102.701485 
L 275.623021 109.400287 
L 276.436692 106.639614 
L 277.250362 108.409509 
L 278.064033 110.694471 
L 278.877703 105.942562 
L 279.691374 111.931947 
L 280.505044 98.474157 
L 281.318715 108.294417 
L 282.132386 110.609346 
L 282.946056 103.59557 
L 283.759727 106.415884 
L 284.573397 105.716359 
L 285.387068 111.402965 
L 286.200738 103.034441 
L 287.014409 100.121164 
L 287.828079 104.955054 
L 288.64175 106.848089 
L 289.45542 104.684549 
L 290.269091 107.111553 
L 291.082761 98.47596 
L 291.896432 114.98274 
L 292.710103 102.402647 
L 293.523773 100.960762 
L 295.151114 107.080537 
L 295.964785 101.883221 
L 296.778455 112.671792 
L 297.592126 101.644989 
L 298.405796 94.908256 
L 299.219467 108.056897 
L 300.033137 114.215903 
L 300.846808 115.072433 
L 301.660478 103.690209 
L 302.474149 102.233906 
L 303.28782 101.405624 
L 304.10149 97.378388 
L 305.728831 105.381643 
L 306.542502 96.566411 
L 307.356172 99.678858 
L 308.169843 100.624118 
L 308.983513 107.04969 
L 309.797184 101.179086 
L 310.610854 105.159463 
L 312.238195 99.202016 
L 313.051866 97.449221 
L 313.865537 93.517463 
L 314.679207 98.990523 
L 315.492878 97.727522 
L 316.306548 96.810637 
L 317.120219 99.462043 
L 317.933889 105.669835 
L 318.74756 100.894623 
L 319.56123 106.201206 
L 320.374901 98.429311 
L 321.188571 101.063406 
L 322.002242 103.024382 
L 322.815913 97.542058 
L 323.629583 101.715318 
L 324.443254 100.545573 
L 325.256924 95.227506 
L 326.070595 103.753707 
L 326.884265 97.594449 
L 327.697936 98.07959 
L 328.511606 101.945462 
L 329.325277 103.814145 
L 330.138947 96.990024 
L 330.952618 103.346775 
L 331.766288 100.481782 
L 332.579959 96.277422 
L 333.39363 95.964585 
L 334.2073 99.67475 
L 335.020971 98.200341 
L 335.834641 98.693152 
L 336.648312 107.333775 
L 337.461982 96.816799 
L 338.275653 98.47026 
L 339.089323 95.204412 
L 339.902994 100.738121 
L 340.716664 97.597299 
L 341.530335 99.398838 
L 342.344005 100.920358 
L 343.157676 97.233663 
L 343.971347 106.76506 
L 344.785017 97.516407 
L 345.598688 101.571725 
L 346.412358 109.646273 
L 347.226029 94.359114 
L 348.039699 94.802803 
L 348.85337 98.134999 
L 349.66704 96.429021 
L 350.480711 99.822828 
L 351.294381 97.947732 
L 352.108052 95.268161 
L 352.921722 103.485045 
L 353.735393 94.753975 
L 354.549064 96.90536 
L 355.362734 94.498097 
L 356.176405 97.05063 
L 356.990075 92.982906 
L 357.803746 114.047581 
L 358.617416 99.852754 
L 359.431087 95.065723 
L 360.244757 96.911815 
L 361.058428 98.194473 
L 361.872098 89.432387 
L 363.49944 95.864749 
L 364.31311 92.197921 
L 365.126781 99.196399 
L 365.940451 91.556445 
L 366.754122 104.101499 
L 367.567792 95.849031 
L 368.381463 103.015454 
L 369.195133 95.226961 
L 370.008804 91.455184 
L 370.822474 107.399117 
L 371.636145 95.543235 
L 372.449815 94.503797 
L 373.263486 86.843348 
L 374.077157 94.142048 
L 374.890827 98.849068 
L 375.704498 90.747402 
L 376.518168 92.390385 
L 377.331839 93.172101 
L 378.145509 97.269834 
L 378.95918 93.585152 
L 379.77285 92.660471 
L 380.586521 86.453559 
L 381.400191 105.931455 
L 382.213862 85.085608 
L 383.027532 94.913579 
L 383.841203 94.449059 
L 384.654874 95.908254 
L 385.468544 94.426761 
L 386.282215 89.554521 
L 387.095885 92.417335 
L 387.909556 98.17117 
L 388.723226 101.847092 
L 389.536897 87.869583 
L 390.350567 87.374719 
L 391.164238 91.366957 
L 391.977908 89.13292 
L 392.791579 94.780757 
L 393.605249 96.360661 
L 394.41892 112.75763 
L 395.232591 92.852138 
L 396.046261 89.868071 
L 396.859932 91.416498 
L 397.673602 99.75384 
L 398.487273 93.83206 
L 398.487273 93.83206 
" clip-path="url(#pfde57590e9)" style="fill: none; stroke: #1f77b4; stroke-width: 1.5; stroke-linecap: square"/>
   </g>
   <g id="line2d_19">
    <path d="M 73.832727 165.759334 
L 74.646398 255.817677 
L 75.460068 141.359865 
L 76.273739 220.656419 
L 77.087409 216.296018 
L 77.90108 157.099473 
L 78.714751 232.013119 
L 79.528421 96.635903 
L 80.342092 134.463067 
L 81.969433 266.89947 
L 82.783103 210.662599 
L 83.596774 180.906252 
L 84.410444 131.96762 
L 85.224115 205.671452 
L 86.037785 91.19763 
L 86.851456 146.336636 
L 87.665126 191.126611 
L 88.478797 211.913445 
L 89.292468 137.942419 
L 90.106138 112.041801 
L 90.919809 146.624577 
L 91.733479 104.248991 
L 92.54715 122.589331 
L 93.36082 153.668782 
L 94.174491 90.662277 
L 94.988161 120.970658 
L 95.801832 142.553501 
L 96.615502 142.026321 
L 97.429173 155.707213 
L 98.242843 201.315871 
L 99.056514 135.203877 
L 99.870185 158.589683 
L 100.683855 158.883157 
L 101.497526 202.444835 
L 102.311196 121.507393 
L 103.124867 157.881776 
L 103.938537 84.952409 
L 104.752208 137.154709 
L 105.565878 94.379987 
L 106.379549 94.716128 
L 108.00689 177.291061 
L 108.82056 105.474354 
L 109.634231 166.665531 
L 110.447902 176.662075 
L 111.261572 138.87083 
L 112.075243 181.845309 
L 112.888913 137.152111 
L 114.516254 101.674789 
L 115.329925 107.114235 
L 116.143595 252.317537 
L 116.957266 106.887571 
L 117.770936 188.624751 
L 118.584607 295.488 
L 119.398278 109.413489 
L 120.211948 172.018553 
L 121.025619 174.779519 
L 121.839289 128.431057 
L 122.65296 143.563767 
L 123.46663 118.401108 
L 124.280301 159.192683 
L 125.093971 112.292523 
L 125.907642 158.874691 
L 126.721312 115.379403 
L 127.534983 200.258662 
L 128.348653 120.282785 
L 129.162324 93.615036 
L 129.975995 140.43246 
L 130.789665 261.916412 
L 131.603336 129.881702 
L 132.417006 92.457068 
L 133.230677 130.648916 
L 134.044347 137.034336 
L 135.671688 81.790673 
L 136.485359 119.349889 
L 137.299029 177.550166 
L 138.1127 101.873581 
L 138.92637 103.112315 
L 139.740041 155.45079 
L 140.553712 169.858492 
L 141.367382 127.974417 
L 142.181053 104.289269 
L 142.994723 99.837414 
L 143.808394 83.216799 
L 144.622064 112.154965 
L 145.435735 103.949523 
L 146.249405 139.215144 
L 147.063076 85.389224 
L 147.876746 121.045095 
L 148.690417 119.43275 
L 149.504087 101.541673 
L 150.317758 148.363918 
L 151.131429 79.087882 
L 151.945099 157.381379 
L 152.75877 132.777669 
L 153.57244 115.903439 
L 154.386111 107.349408 
L 155.199781 121.072171 
L 156.013452 110.967743 
L 156.827122 183.184508 
L 157.640793 73.683139 
L 159.268134 185.982524 
L 160.081805 85.54975 
L 160.895475 124.027486 
L 161.709146 83.780191 
L 162.522816 112.636376 
L 163.336487 145.783932 
L 164.150157 86.452637 
L 164.963828 109.953913 
L 165.777498 115.539133 
L 166.591169 99.423148 
L 167.404839 111.120473 
L 168.21851 89.654483 
L 169.03218 113.797697 
L 169.845851 133.791414 
L 170.659522 147.502022 
L 171.473192 107.159753 
L 172.286863 166.918684 
L 173.100533 159.480708 
L 173.914204 74.347625 
L 174.727874 115.94531 
L 175.541545 134.708006 
L 176.355215 123.464303 
L 177.168886 149.66179 
L 177.982556 119.312209 
L 178.796227 194.68237 
L 179.609897 106.797542 
L 180.423568 84.637141 
L 181.237239 96.667254 
L 182.050909 115.359075 
L 182.86458 97.014501 
L 183.67825 147.030293 
L 184.491921 96.527726 
L 185.305591 114.35191 
L 186.119262 129.592084 
L 186.932932 130.279664 
L 187.746603 153.02542 
L 188.560273 140.371142 
L 189.373944 98.076321 
L 190.187614 84.956852 
L 191.001285 99.819685 
L 191.814956 131.161762 
L 192.628626 142.776435 
L 193.442297 93.475759 
L 194.255967 143.583047 
L 195.069638 147.943322 
L 195.883308 168.18332 
L 196.696979 103.291618 
L 197.510649 104.881413 
L 198.32432 141.198836 
L 199.13799 125.613258 
L 199.951661 89.891961 
L 200.765332 102.805764 
L 201.579002 126.671934 
L 202.392673 69.915176 
L 203.206343 115.909181 
L 204.020014 112.259286 
L 204.833684 114.965011 
L 205.647355 107.704913 
L 206.461025 91.90604 
L 207.274696 91.50527 
L 208.088366 100.556429 
L 208.902037 112.74384 
L 209.715707 194.642301 
L 210.529378 108.40033 
L 211.343049 134.241852 
L 212.156719 126.961384 
L 212.97039 137.859515 
L 213.78406 71.559081 
L 214.597731 102.786526 
L 215.411401 102.998312 
L 216.225072 117.192803 
L 217.038742 115.33464 
L 217.852413 89.060285 
L 218.666083 105.664219 
L 219.479754 91.784661 
L 220.293424 128.338807 
L 221.107095 183.247628 
L 221.920766 109.265243 
L 222.734436 104.440071 
L 223.548107 126.555374 
L 224.361777 139.980472 
L 225.175448 124.586938 
L 225.989118 96.849826 
L 226.802789 84.05078 
L 227.616459 135.181202 
L 228.43013 157.435362 
L 229.2438 146.454118 
L 230.057471 148.07933 
L 230.871141 115.448433 
L 231.684812 127.056275 
L 232.498483 125.568202 
L 233.312153 93.163802 
L 234.125824 112.965727 
L 234.939494 82.46899 
L 236.566835 162.327427 
L 237.380506 94.088818 
L 238.194176 108.281675 
L 239.007847 94.200516 
L 239.821517 67.761863 
L 240.635188 61.741337 
L 241.448859 108.004045 
L 242.262529 83.255358 
L 243.0762 104.818167 
L 243.88987 177.398693 
L 244.703541 88.981531 
L 245.517211 115.522451 
L 246.330882 133.294999 
L 247.144552 71.21221 
L 248.771893 95.060106 
L 249.585564 194.858487 
L 250.399234 96.114465 
L 251.212905 118.236055 
L 252.026576 145.333578 
L 252.840246 112.195621 
L 253.653917 140.034791 
L 254.467587 74.557106 
L 255.281258 128.577207 
L 256.094928 109.151744 
L 256.908599 108.03879 
L 257.722269 140.395786 
L 258.53594 87.60021 
L 259.34961 120.208808 
L 260.163281 114.118414 
L 260.976951 83.725704 
L 261.790622 148.798386 
L 262.604293 109.11134 
L 263.417963 83.009414 
L 264.231634 109.708178 
L 265.045304 82.052376 
L 265.858975 64.5785 
L 266.672645 80.022538 
L 267.486316 65.454226 
L 268.299986 94.037643 
L 269.113657 106.822187 
L 269.927327 106.645231 
L 270.740998 107.691962 
L 271.554668 78.544189 
L 272.368339 86.31927 
L 273.18201 81.83728 
L 273.99568 82.554157 
L 274.809351 108.398402 
L 275.623021 105.252635 
L 276.436692 129.225515 
L 277.250362 104.979112 
L 278.064033 72.376884 
L 278.877703 73.944172 
L 279.691374 108.749967 
L 280.505044 113.909352 
L 281.318715 113.537837 
L 282.132386 83.505159 
L 282.946056 74.087263 
L 283.759727 101.631283 
L 284.573397 109.496141 
L 285.387068 138.935585 
L 286.200738 97.084789 
L 287.014409 99.558484 
L 287.828079 113.693879 
L 288.64175 89.541486 
L 289.45542 95.705019 
L 290.269091 140.458278 
L 291.082761 102.198154 
L 291.896432 101.477086 
L 292.710103 75.105912 
L 293.523773 121.641556 
L 294.337444 88.232968 
L 295.151114 82.214914 
L 295.964785 110.975622 
L 296.778455 86.230331 
L 297.592126 95.232494 
L 298.405796 112.263771 
L 299.219467 103.168185 
L 300.033137 125.850107 
L 300.846808 90.407531 
L 301.660478 88.954455 
L 302.474149 96.559454 
L 303.28782 106.979066 
L 304.10149 110.401668 
L 304.915161 128.396605 
L 305.728831 77.035746 
L 306.542502 105.292075 
L 307.356172 97.705183 
L 308.169843 130.758518 
L 308.983513 104.581192 
L 309.797184 97.067898 
L 310.610854 196.098017 
L 311.424525 99.258095 
L 312.238195 141.945178 
L 313.051866 90.183674 
L 313.865537 107.811539 
L 314.679207 79.752871 
L 315.492878 99.84148 
L 316.306548 135.648195 
L 317.120219 113.318214 
L 317.933889 152.102626 
L 319.56123 103.719464 
L 320.374901 140.571569 
L 321.188571 65.230747 
L 322.002242 128.159169 
L 322.815913 112.861532 
L 323.629583 109.171904 
L 324.443254 89.427358 
L 325.256924 113.501457 
L 326.070595 82.999439 
L 327.697936 123.309729 
L 328.511606 72.555097 
L 329.325277 92.999588 
L 330.138947 109.86401 
L 330.952618 101.519753 
L 331.766288 142.944673 
L 332.579959 101.8512 
L 333.39363 83.632406 
L 334.2073 113.194822 
L 335.020971 69.131071 
L 335.834641 95.39302 
L 336.648312 107.335367 
L 337.461982 83.641795 
L 338.275653 71.222773 
L 339.089323 97.240663 
L 339.902994 74.525419 
L 340.716664 180.784034 
L 341.530335 82.537643 
L 342.344005 110.998926 
L 343.157676 132.064019 
L 343.971347 108.602518 
L 344.785017 88.862959 
L 345.598688 142.746048 
L 346.412358 139.983113 
L 347.226029 101.775924 
L 348.039699 95.02536 
L 348.85337 80.165796 
L 349.66704 80.613341 
L 350.480711 78.345019 
L 351.294381 142.63347 
L 352.108052 101.181684 
L 352.921722 94.018908 
L 353.735393 93.143223 
L 354.549064 121.810004 
L 355.362734 70.323491 
L 356.176405 65.034595 
L 356.990075 53.568 
L 357.803746 103.248531 
L 358.617416 99.0163 
L 359.431087 155.537047 
L 360.244757 72.84723 
L 361.058428 92.882902 
L 361.872098 86.310971 
L 362.685769 81.745407 
L 363.49944 92.61881 
L 364.31311 66.487797 
L 365.126781 105.027102 
L 365.940451 80.936489 
L 366.754122 109.088078 
L 367.567792 60.322504 
L 368.381463 92.310289 
L 369.195133 77.717668 
L 370.008804 69.532093 
L 370.822474 123.068982 
L 371.636145 98.756859 
L 372.449815 70.872297 
L 373.263486 99.273435 
L 374.077157 96.742487 
L 374.890827 55.436558 
L 375.704498 82.643766 
L 376.518168 117.469847 
L 377.331839 70.411592 
L 378.145509 111.038575 
L 378.95918 122.6237 
L 379.77285 60.588231 
L 380.586521 79.117556 
L 381.400191 80.486849 
L 382.213862 93.135302 
L 383.027532 110.017327 
L 383.841203 108.00635 
L 384.654874 134.045741 
L 385.468544 96.191627 
L 386.282215 112.865471 
L 387.095885 101.680279 
L 387.909556 106.056188 
L 388.723226 86.495304 
L 389.536897 99.509865 
L 390.350567 87.765933 
L 391.164238 88.836261 
L 391.977908 118.976362 
L 392.791579 105.719041 
L 393.605249 126.453442 
L 394.41892 84.253051 
L 395.232591 99.165929 
L 396.046261 102.157289 
L 396.859932 101.97434 
L 397.673602 112.219469 
L 398.487273 77.608611 
L 398.487273 77.608611 
" clip-path="url(#pfde57590e9)" style="fill: none; stroke: #ff7f0e; stroke-width: 1.5; stroke-linecap: square"/>
   </g>
   <g id="patch_3">
    <path d="M 57.6 307.584 
L 57.6 41.472 
" style="fill: none; stroke: #000000; stroke-width: 0.8; stroke-linejoin: miter; stroke-linecap: square"/>
   </g>
   <g id="patch_4">
    <path d="M 414.72 307.584 
L 414.72 41.472 
" style="fill: none; stroke: #000000; stroke-width: 0.8; stroke-linejoin: miter; stroke-linecap: square"/>
   </g>
   <g id="patch_5">
    <path d="M 57.6 307.584 
L 414.72 307.584 
" style="fill: none; stroke: #000000; stroke-width: 0.8; stroke-linejoin: miter; stroke-linecap: square"/>
   </g>
   <g id="patch_6">
    <path d="M 57.6 41.472 
L 414.72 41.472 
" style="fill: none; stroke: #000000; stroke-width: 0.8; stroke-linejoin: miter; stroke-linecap: square"/>
   </g>
   <g id="text_20">
    <!-- Model balanced accuracy -->
    <g transform="translate(159.826875 35.472) scale(0.12 -0.12)">
     <defs>
      <path id="DejaVuSans-4d" d="M 628 4666 
L 1569 4666 
L 2759 1491 
L 3956 4666 
L 4897 4666 
L 4897 0 
L 4281 0 
L 4281 4097 
L 3078 897 
L 2444 897 
L 1241 4097 
L 1241 0 
L 628 0 
L 628 4666 
z
" transform="scale(0.015625)"/>
      <path id="DejaVuSans-62" d="M 3116 1747 
Q 3116 2381 2855 2742 
Q 2594 3103 2138 3103 
Q 1681 3103 1420 2742 
Q 1159 2381 1159 1747 
Q 1159 1113 1420 752 
Q 1681 391 2138 391 
Q 2594 391 2855 752 
Q 3116 1113 3116 1747 
z
M 1159 2969 
Q 1341 3281 1617 3432 
Q 1894 3584 2278 3584 
Q 2916 3584 3314 3078 
Q 3713 2572 3713 1747 
Q 3713 922 3314 415 
Q 2916 -91 2278 -91 
Q 1894 -91 1617 61 
Q 1341 213 1159 525 
L 1159 0 
L 581 0 
L 581 4863 
L 1159 4863 
L 1159 2969 
z
" transform="scale(0.015625)"/>
     </defs>
     <use xlink:href="#DejaVuSans-4d"/>
     <use xlink:href="#DejaVuSans-6f" x="86.279297"/>
     <use xlink:href="#DejaVuSans-64" x="147.460938"/>
     <use xlink:href="#DejaVuSans-65" x="210.9375"/>
     <use xlink:href="#DejaVuSans-6c" x="272.460938"/>
     <use xlink:href="#DejaVuSans-20" x="300.244141"/>
     <use xlink:href="#DejaVuSans-62" x="332.03125"/>
     <use xlink:href="#DejaVuSans-61" x="395.507812"/>
     <use xlink:href="#DejaVuSans-6c" x="456.787109"/>
     <use xlink:href="#DejaVuSans-61" x="484.570312"/>
     <use xlink:href="#DejaVuSans-6e" x="545.849609"/>
     <use xlink:href="#DejaVuSans-63" x="609.228516"/>
     <use xlink:href="#DejaVuSans-65" x="664.208984"/>
     <use xlink:href="#DejaVuSans-64" x="725.732422"/>
     <use xlink:href="#DejaVuSans-20" x="789.208984"/>
     <use xlink:href="#DejaVuSans-61" x="820.996094"/>
     <use xlink:href="#DejaVuSans-63" x="882.275391"/>
     <use xlink:href="#DejaVuSans-63" x="937.255859"/>
     <use xlink:href="#DejaVuSans-75" x="992.236328"/>
     <use xlink:href="#DejaVuSans-72" x="1055.615234"/>
     <use xlink:href="#DejaVuSans-61" x="1096.728516"/>
     <use xlink:href="#DejaVuSans-63" x="1158.007812"/>
     <use xlink:href="#DejaVuSans-79" x="1212.988281"/>
    </g>
   </g>
   <g id="legend_1">
    <g id="patch_7">
     <path d="M 64.6 78.82825 
L 120.5875 78.82825 
Q 122.5875 78.82825 122.5875 76.82825 
L 122.5875 48.472 
Q 122.5875 46.472 120.5875 46.472 
L 64.6 46.472 
Q 62.6 46.472 62.6 48.472 
L 62.6 76.82825 
Q 62.6 78.82825 64.6 78.82825 
z
" style="fill: #ffffff; opacity: 0.8; stroke: #cccccc; stroke-linejoin: miter"/>
    </g>
    <g id="line2d_20">
     <path d="M 66.6 54.570437 
L 76.6 54.570437 
L 86.6 54.570437 
" style="fill: none; stroke: #1f77b4; stroke-width: 1.5; stroke-linecap: square"/>
    </g>
    <g id="text_21">
     <!-- Train -->
     <g transform="translate(94.6 58.070437) scale(0.1 -0.1)">
      <defs>
       <path id="DejaVuSans-54" d="M -19 4666 
L 3928 4666 
L 3928 4134 
L 2272 4134 
L 2272 0 
L 1638 0 
L 1638 4134 
L -19 4134 
L -19 4666 
z
" transform="scale(0.015625)"/>
       <path id="DejaVuSans-69" d="M 603 3500 
L 1178 3500 
L 1178 0 
L 603 0 
L 603 3500 
z
M 603 4863 
L 1178 4863 
L 1178 4134 
L 603 4134 
L 603 4863 
z
" transform="scale(0.015625)"/>
      </defs>
      <use xlink:href="#DejaVuSans-54"/>
      <use xlink:href="#DejaVuSans-72" x="46.333984"/>
      <use xlink:href="#DejaVuSans-61" x="87.447266"/>
      <use xlink:href="#DejaVuSans-69" x="148.726562"/>
      <use xlink:href="#DejaVuSans-6e" x="176.509766"/>
     </g>
    </g>
    <g id="line2d_21">
     <path d="M 66.6 69.248562 
L 76.6 69.248562 
L 86.6 69.248562 
" style="fill: none; stroke: #ff7f0e; stroke-width: 1.5; stroke-linecap: square"/>
    </g>
    <g id="text_22">
     <!-- Test -->
     <g transform="translate(94.6 72.748562) scale(0.1 -0.1)">
      <defs>
       <path id="DejaVuSans-73" d="M 2834 3397 
L 2834 2853 
Q 2591 2978 2328 3040 
Q 2066 3103 1784 3103 
Q 1356 3103 1142 2972 
Q 928 2841 928 2578 
Q 928 2378 1081 2264 
Q 1234 2150 1697 2047 
L 1894 2003 
Q 2506 1872 2764 1633 
Q 3022 1394 3022 966 
Q 3022 478 2636 193 
Q 2250 -91 1575 -91 
Q 1294 -91 989 -36 
Q 684 19 347 128 
L 347 722 
Q 666 556 975 473 
Q 1284 391 1588 391 
Q 1994 391 2212 530 
Q 2431 669 2431 922 
Q 2431 1156 2273 1281 
Q 2116 1406 1581 1522 
L 1381 1569 
Q 847 1681 609 1914 
Q 372 2147 372 2553 
Q 372 3047 722 3315 
Q 1072 3584 1716 3584 
Q 2034 3584 2315 3537 
Q 2597 3491 2834 3397 
z
" transform="scale(0.015625)"/>
       <path id="DejaVuSans-74" d="M 1172 4494 
L 1172 3500 
L 2356 3500 
L 2356 3053 
L 1172 3053 
L 1172 1153 
Q 1172 725 1289 603 
Q 1406 481 1766 481 
L 2356 481 
L 2356 0 
L 1766 0 
Q 1100 0 847 248 
Q 594 497 594 1153 
L 594 3053 
L 172 3053 
L 172 3500 
L 594 3500 
L 594 4494 
L 1172 4494 
z
" transform="scale(0.015625)"/>
      </defs>
      <use xlink:href="#DejaVuSans-54"/>
      <use xlink:href="#DejaVuSans-65" x="44.083984"/>
      <use xlink:href="#DejaVuSans-73" x="105.607422"/>
      <use xlink:href="#DejaVuSans-74" x="157.707031"/>
     </g>
    </g>
   </g>
  </g>
 </g>
 <defs>
  <clipPath id="pfde57590e9">
   <rect x="57.6" y="41.472" width="357.12" height="266.112"/>
  </clipPath>
 </defs>
</svg>
