<?xml version="1.0" encoding="utf-8" standalone="no"?>
<!DOCTYPE svg PUBLIC "-//W3C//DTD SVG 1.1//EN"
  "http://www.w3.org/Graphics/SVG/1.1/DTD/svg11.dtd">
<svg xmlns:xlink="http://www.w3.org/1999/xlink" width="460.8pt" height="345.6pt" viewBox="0 0 460.8 345.6" xmlns="http://www.w3.org/2000/svg" version="1.1">
 <metadata>
  <rdf:RDF xmlns:dc="http://purl.org/dc/elements/1.1/" xmlns:cc="http://creativecommons.org/ns#" xmlns:rdf="http://www.w3.org/1999/02/22-rdf-syntax-ns#">
   <cc:Work>
    <dc:type rdf:resource="http://purl.org/dc/dcmitype/StillImage"/>
    <dc:date>2023-07-04T10:22:41.545145</dc:date>
    <dc:format>image/svg+xml</dc:format>
    <dc:creator>
     <cc:Agent>
      <dc:title>Matplotlib v3.7.1, https://matplotlib.org/</dc:title>
     </cc:Agent>
    </dc:creator>
   </cc:Work>
  </rdf:RDF>
 </metadata>
 <defs>
  <style type="text/css">*{stroke-linejoin: round; stroke-linecap: butt}</style>
 </defs>
 <g id="figure_1">
  <g id="patch_1">
   <path d="M 0 345.6 
L 460.8 345.6 
L 460.8 0 
L 0 0 
z
" style="fill: #ffffff"/>
  </g>
  <g id="axes_1">
   <g id="patch_2">
    <path d="M 57.6 307.584 
L 414.72 307.584 
L 414.72 41.472 
L 57.6 41.472 
z
" style="fill: #ffffff"/>
   </g>
   <g id="matplotlib.axis_1">
    <g id="xtick_1">
     <g id="line2d_1">
      <defs>
       <path id="m8729ed1ec0" d="M 0 0 
L 0 3.5 
" style="stroke: #000000; stroke-width: 0.8"/>
      </defs>
      <g>
       <use xlink:href="#m8729ed1ec0" x="73.832727" y="307.584" style="stroke: #000000; stroke-width: 0.8"/>
      </g>
     </g>
     <g id="text_1">
      <!-- 0 -->
      <g transform="translate(70.651477 322.182437) scale(0.1 -0.1)">
       <defs>
        <path id="DejaVuSans-30" d="M 2034 4250 
Q 1547 4250 1301 3770 
Q 1056 3291 1056 2328 
Q 1056 1369 1301 889 
Q 1547 409 2034 409 
Q 2525 409 2770 889 
Q 3016 1369 3016 2328 
Q 3016 3291 2770 3770 
Q 2525 4250 2034 4250 
z
M 2034 4750 
Q 2819 4750 3233 4129 
Q 3647 3509 3647 2328 
Q 3647 1150 3233 529 
Q 2819 -91 2034 -91 
Q 1250 -91 836 529 
Q 422 1150 422 2328 
Q 422 3509 836 4129 
Q 1250 4750 2034 4750 
z
" transform="scale(0.015625)"/>
       </defs>
       <use xlink:href="#DejaVuSans-30"/>
      </g>
     </g>
    </g>
    <g id="xtick_2">
     <g id="line2d_2">
      <g>
       <use xlink:href="#m8729ed1ec0" x="114.465336" y="307.584" style="stroke: #000000; stroke-width: 0.8"/>
      </g>
     </g>
     <g id="text_2">
      <!-- 100 -->
      <g transform="translate(104.921586 322.182437) scale(0.1 -0.1)">
       <defs>
        <path id="DejaVuSans-31" d="M 794 531 
L 1825 531 
L 1825 4091 
L 703 3866 
L 703 4441 
L 1819 4666 
L 2450 4666 
L 2450 531 
L 3481 531 
L 3481 0 
L 794 0 
L 794 531 
z
" transform="scale(0.015625)"/>
       </defs>
       <use xlink:href="#DejaVuSans-31"/>
       <use xlink:href="#DejaVuSans-30" x="63.623047"/>
       <use xlink:href="#DejaVuSans-30" x="127.246094"/>
      </g>
     </g>
    </g>
    <g id="xtick_3">
     <g id="line2d_3">
      <g>
       <use xlink:href="#m8729ed1ec0" x="155.097945" y="307.584" style="stroke: #000000; stroke-width: 0.8"/>
      </g>
     </g>
     <g id="text_3">
      <!-- 200 -->
      <g transform="translate(145.554195 322.182437) scale(0.1 -0.1)">
       <defs>
        <path id="DejaVuSans-32" d="M 1228 531 
L 3431 531 
L 3431 0 
L 469 0 
L 469 531 
Q 828 903 1448 1529 
Q 2069 2156 2228 2338 
Q 2531 2678 2651 2914 
Q 2772 3150 2772 3378 
Q 2772 3750 2511 3984 
Q 2250 4219 1831 4219 
Q 1534 4219 1204 4116 
Q 875 4013 500 3803 
L 500 4441 
Q 881 4594 1212 4672 
Q 1544 4750 1819 4750 
Q 2544 4750 2975 4387 
Q 3406 4025 3406 3419 
Q 3406 3131 3298 2873 
Q 3191 2616 2906 2266 
Q 2828 2175 2409 1742 
Q 1991 1309 1228 531 
z
" transform="scale(0.015625)"/>
       </defs>
       <use xlink:href="#DejaVuSans-32"/>
       <use xlink:href="#DejaVuSans-30" x="63.623047"/>
       <use xlink:href="#DejaVuSans-30" x="127.246094"/>
      </g>
     </g>
    </g>
    <g id="xtick_4">
     <g id="line2d_4">
      <g>
       <use xlink:href="#m8729ed1ec0" x="195.730554" y="307.584" style="stroke: #000000; stroke-width: 0.8"/>
      </g>
     </g>
     <g id="text_4">
      <!-- 300 -->
      <g transform="translate(186.186804 322.182437) scale(0.1 -0.1)">
       <defs>
        <path id="DejaVuSans-33" d="M 2597 2516 
Q 3050 2419 3304 2112 
Q 3559 1806 3559 1356 
Q 3559 666 3084 287 
Q 2609 -91 1734 -91 
Q 1441 -91 1130 -33 
Q 819 25 488 141 
L 488 750 
Q 750 597 1062 519 
Q 1375 441 1716 441 
Q 2309 441 2620 675 
Q 2931 909 2931 1356 
Q 2931 1769 2642 2001 
Q 2353 2234 1838 2234 
L 1294 2234 
L 1294 2753 
L 1863 2753 
Q 2328 2753 2575 2939 
Q 2822 3125 2822 3475 
Q 2822 3834 2567 4026 
Q 2313 4219 1838 4219 
Q 1578 4219 1281 4162 
Q 984 4106 628 3988 
L 628 4550 
Q 988 4650 1302 4700 
Q 1616 4750 1894 4750 
Q 2613 4750 3031 4423 
Q 3450 4097 3450 3541 
Q 3450 3153 3228 2886 
Q 3006 2619 2597 2516 
z
" transform="scale(0.015625)"/>
       </defs>
       <use xlink:href="#DejaVuSans-33"/>
       <use xlink:href="#DejaVuSans-30" x="63.623047"/>
       <use xlink:href="#DejaVuSans-30" x="127.246094"/>
      </g>
     </g>
    </g>
    <g id="xtick_5">
     <g id="line2d_5">
      <g>
       <use xlink:href="#m8729ed1ec0" x="236.363163" y="307.584" style="stroke: #000000; stroke-width: 0.8"/>
      </g>
     </g>
     <g id="text_5">
      <!-- 400 -->
      <g transform="translate(226.819413 322.182437) scale(0.1 -0.1)">
       <defs>
        <path id="DejaVuSans-34" d="M 2419 4116 
L 825 1625 
L 2419 1625 
L 2419 4116 
z
M 2253 4666 
L 3047 4666 
L 3047 1625 
L 3713 1625 
L 3713 1100 
L 3047 1100 
L 3047 0 
L 2419 0 
L 2419 1100 
L 313 1100 
L 313 1709 
L 2253 4666 
z
" transform="scale(0.015625)"/>
       </defs>
       <use xlink:href="#DejaVuSans-34"/>
       <use xlink:href="#DejaVuSans-30" x="63.623047"/>
       <use xlink:href="#DejaVuSans-30" x="127.246094"/>
      </g>
     </g>
    </g>
    <g id="xtick_6">
     <g id="line2d_6">
      <g>
       <use xlink:href="#m8729ed1ec0" x="276.995772" y="307.584" style="stroke: #000000; stroke-width: 0.8"/>
      </g>
     </g>
     <g id="text_6">
      <!-- 500 -->
      <g transform="translate(267.452022 322.182437) scale(0.1 -0.1)">
       <defs>
        <path id="DejaVuSans-35" d="M 691 4666 
L 3169 4666 
L 3169 4134 
L 1269 4134 
L 1269 2991 
Q 1406 3038 1543 3061 
Q 1681 3084 1819 3084 
Q 2600 3084 3056 2656 
Q 3513 2228 3513 1497 
Q 3513 744 3044 326 
Q 2575 -91 1722 -91 
Q 1428 -91 1123 -41 
Q 819 9 494 109 
L 494 744 
Q 775 591 1075 516 
Q 1375 441 1709 441 
Q 2250 441 2565 725 
Q 2881 1009 2881 1497 
Q 2881 1984 2565 2268 
Q 2250 2553 1709 2553 
Q 1456 2553 1204 2497 
Q 953 2441 691 2322 
L 691 4666 
z
" transform="scale(0.015625)"/>
       </defs>
       <use xlink:href="#DejaVuSans-35"/>
       <use xlink:href="#DejaVuSans-30" x="63.623047"/>
       <use xlink:href="#DejaVuSans-30" x="127.246094"/>
      </g>
     </g>
    </g>
    <g id="xtick_7">
     <g id="line2d_7">
      <g>
       <use xlink:href="#m8729ed1ec0" x="317.628381" y="307.584" style="stroke: #000000; stroke-width: 0.8"/>
      </g>
     </g>
     <g id="text_7">
      <!-- 600 -->
      <g transform="translate(308.084631 322.182437) scale(0.1 -0.1)">
       <defs>
        <path id="DejaVuSans-36" d="M 2113 2584 
Q 1688 2584 1439 2293 
Q 1191 2003 1191 1497 
Q 1191 994 1439 701 
Q 1688 409 2113 409 
Q 2538 409 2786 701 
Q 3034 994 3034 1497 
Q 3034 2003 2786 2293 
Q 2538 2584 2113 2584 
z
M 3366 4563 
L 3366 3988 
Q 3128 4100 2886 4159 
Q 2644 4219 2406 4219 
Q 1781 4219 1451 3797 
Q 1122 3375 1075 2522 
Q 1259 2794 1537 2939 
Q 1816 3084 2150 3084 
Q 2853 3084 3261 2657 
Q 3669 2231 3669 1497 
Q 3669 778 3244 343 
Q 2819 -91 2113 -91 
Q 1303 -91 875 529 
Q 447 1150 447 2328 
Q 447 3434 972 4092 
Q 1497 4750 2381 4750 
Q 2619 4750 2861 4703 
Q 3103 4656 3366 4563 
z
" transform="scale(0.015625)"/>
       </defs>
       <use xlink:href="#DejaVuSans-36"/>
       <use xlink:href="#DejaVuSans-30" x="63.623047"/>
       <use xlink:href="#DejaVuSans-30" x="127.246094"/>
      </g>
     </g>
    </g>
    <g id="xtick_8">
     <g id="line2d_8">
      <g>
       <use xlink:href="#m8729ed1ec0" x="358.26099" y="307.584" style="stroke: #000000; stroke-width: 0.8"/>
      </g>
     </g>
     <g id="text_8">
      <!-- 700 -->
      <g transform="translate(348.71724 322.182437) scale(0.1 -0.1)">
       <defs>
        <path id="DejaVuSans-37" d="M 525 4666 
L 3525 4666 
L 3525 4397 
L 1831 0 
L 1172 0 
L 2766 4134 
L 525 4134 
L 525 4666 
z
" transform="scale(0.015625)"/>
       </defs>
       <use xlink:href="#DejaVuSans-37"/>
       <use xlink:href="#DejaVuSans-30" x="63.623047"/>
       <use xlink:href="#DejaVuSans-30" x="127.246094"/>
      </g>
     </g>
    </g>
    <g id="xtick_9">
     <g id="line2d_9">
      <g>
       <use xlink:href="#m8729ed1ec0" x="398.893599" y="307.584" style="stroke: #000000; stroke-width: 0.8"/>
      </g>
     </g>
     <g id="text_9">
      <!-- 800 -->
      <g transform="translate(389.349849 322.182437) scale(0.1 -0.1)">
       <defs>
        <path id="DejaVuSans-38" d="M 2034 2216 
Q 1584 2216 1326 1975 
Q 1069 1734 1069 1313 
Q 1069 891 1326 650 
Q 1584 409 2034 409 
Q 2484 409 2743 651 
Q 3003 894 3003 1313 
Q 3003 1734 2745 1975 
Q 2488 2216 2034 2216 
z
M 1403 2484 
Q 997 2584 770 2862 
Q 544 3141 544 3541 
Q 544 4100 942 4425 
Q 1341 4750 2034 4750 
Q 2731 4750 3128 4425 
Q 3525 4100 3525 3541 
Q 3525 3141 3298 2862 
Q 3072 2584 2669 2484 
Q 3125 2378 3379 2068 
Q 3634 1759 3634 1313 
Q 3634 634 3220 271 
Q 2806 -91 2034 -91 
Q 1263 -91 848 271 
Q 434 634 434 1313 
Q 434 1759 690 2068 
Q 947 2378 1403 2484 
z
M 1172 3481 
Q 1172 3119 1398 2916 
Q 1625 2713 2034 2713 
Q 2441 2713 2670 2916 
Q 2900 3119 2900 3481 
Q 2900 3844 2670 4047 
Q 2441 4250 2034 4250 
Q 1625 4250 1398 4047 
Q 1172 3844 1172 3481 
z
" transform="scale(0.015625)"/>
       </defs>
       <use xlink:href="#DejaVuSans-38"/>
       <use xlink:href="#DejaVuSans-30" x="63.623047"/>
       <use xlink:href="#DejaVuSans-30" x="127.246094"/>
      </g>
     </g>
    </g>
    <g id="text_10">
     <!-- Epoch -->
     <g transform="translate(220.849063 335.860562) scale(0.1 -0.1)">
      <defs>
       <path id="DejaVuSans-45" d="M 628 4666 
L 3578 4666 
L 3578 4134 
L 1259 4134 
L 1259 2753 
L 3481 2753 
L 3481 2222 
L 1259 2222 
L 1259 531 
L 3634 531 
L 3634 0 
L 628 0 
L 628 4666 
z
" transform="scale(0.015625)"/>
       <path id="DejaVuSans-70" d="M 1159 525 
L 1159 -1331 
L 581 -1331 
L 581 3500 
L 1159 3500 
L 1159 2969 
Q 1341 3281 1617 3432 
Q 1894 3584 2278 3584 
Q 2916 3584 3314 3078 
Q 3713 2572 3713 1747 
Q 3713 922 3314 415 
Q 2916 -91 2278 -91 
Q 1894 -91 1617 61 
Q 1341 213 1159 525 
z
M 3116 1747 
Q 3116 2381 2855 2742 
Q 2594 3103 2138 3103 
Q 1681 3103 1420 2742 
Q 1159 2381 1159 1747 
Q 1159 1113 1420 752 
Q 1681 391 2138 391 
Q 2594 391 2855 752 
Q 3116 1113 3116 1747 
z
" transform="scale(0.015625)"/>
       <path id="DejaVuSans-6f" d="M 1959 3097 
Q 1497 3097 1228 2736 
Q 959 2375 959 1747 
Q 959 1119 1226 758 
Q 1494 397 1959 397 
Q 2419 397 2687 759 
Q 2956 1122 2956 1747 
Q 2956 2369 2687 2733 
Q 2419 3097 1959 3097 
z
M 1959 3584 
Q 2709 3584 3137 3096 
Q 3566 2609 3566 1747 
Q 3566 888 3137 398 
Q 2709 -91 1959 -91 
Q 1206 -91 779 398 
Q 353 888 353 1747 
Q 353 2609 779 3096 
Q 1206 3584 1959 3584 
z
" transform="scale(0.015625)"/>
       <path id="DejaVuSans-63" d="M 3122 3366 
L 3122 2828 
Q 2878 2963 2633 3030 
Q 2388 3097 2138 3097 
Q 1578 3097 1268 2742 
Q 959 2388 959 1747 
Q 959 1106 1268 751 
Q 1578 397 2138 397 
Q 2388 397 2633 464 
Q 2878 531 3122 666 
L 3122 134 
Q 2881 22 2623 -34 
Q 2366 -91 2075 -91 
Q 1284 -91 818 406 
Q 353 903 353 1747 
Q 353 2603 823 3093 
Q 1294 3584 2113 3584 
Q 2378 3584 2631 3529 
Q 2884 3475 3122 3366 
z
" transform="scale(0.015625)"/>
       <path id="DejaVuSans-68" d="M 3513 2113 
L 3513 0 
L 2938 0 
L 2938 2094 
Q 2938 2591 2744 2837 
Q 2550 3084 2163 3084 
Q 1697 3084 1428 2787 
Q 1159 2491 1159 1978 
L 1159 0 
L 581 0 
L 581 4863 
L 1159 4863 
L 1159 2956 
Q 1366 3272 1645 3428 
Q 1925 3584 2291 3584 
Q 2894 3584 3203 3211 
Q 3513 2838 3513 2113 
z
" transform="scale(0.015625)"/>
      </defs>
      <use xlink:href="#DejaVuSans-45"/>
      <use xlink:href="#DejaVuSans-70" x="63.183594"/>
      <use xlink:href="#DejaVuSans-6f" x="126.660156"/>
      <use xlink:href="#DejaVuSans-63" x="187.841797"/>
      <use xlink:href="#DejaVuSans-68" x="242.822266"/>
     </g>
    </g>
   </g>
   <g id="matplotlib.axis_2">
    <g id="ytick_1">
     <g id="line2d_10">
      <defs>
       <path id="mddb86502cf" d="M 0 0 
L -3.5 0 
" style="stroke: #000000; stroke-width: 0.8"/>
      </defs>
      <g>
       <use xlink:href="#mddb86502cf" x="57.6" y="292.671475" style="stroke: #000000; stroke-width: 0.8"/>
      </g>
     </g>
     <g id="text_11">
      <!-- 0.50 -->
      <g transform="translate(28.334375 296.470693) scale(0.1 -0.1)">
       <defs>
        <path id="DejaVuSans-2e" d="M 684 794 
L 1344 794 
L 1344 0 
L 684 0 
L 684 794 
z
" transform="scale(0.015625)"/>
       </defs>
       <use xlink:href="#DejaVuSans-30"/>
       <use xlink:href="#DejaVuSans-2e" x="63.623047"/>
       <use xlink:href="#DejaVuSans-35" x="95.410156"/>
       <use xlink:href="#DejaVuSans-30" x="159.033203"/>
      </g>
     </g>
    </g>
    <g id="ytick_2">
     <g id="line2d_11">
      <g>
       <use xlink:href="#mddb86502cf" x="57.6" y="239.582477" style="stroke: #000000; stroke-width: 0.8"/>
      </g>
     </g>
     <g id="text_12">
      <!-- 0.55 -->
      <g transform="translate(28.334375 243.381696) scale(0.1 -0.1)">
       <use xlink:href="#DejaVuSans-30"/>
       <use xlink:href="#DejaVuSans-2e" x="63.623047"/>
       <use xlink:href="#DejaVuSans-35" x="95.410156"/>
       <use xlink:href="#DejaVuSans-35" x="159.033203"/>
      </g>
     </g>
    </g>
    <g id="ytick_3">
     <g id="line2d_12">
      <g>
       <use xlink:href="#mddb86502cf" x="57.6" y="186.49348" style="stroke: #000000; stroke-width: 0.8"/>
      </g>
     </g>
     <g id="text_13">
      <!-- 0.60 -->
      <g transform="translate(28.334375 190.292699) scale(0.1 -0.1)">
       <use xlink:href="#DejaVuSans-30"/>
       <use xlink:href="#DejaVuSans-2e" x="63.623047"/>
       <use xlink:href="#DejaVuSans-36" x="95.410156"/>
       <use xlink:href="#DejaVuSans-30" x="159.033203"/>
      </g>
     </g>
    </g>
    <g id="ytick_4">
     <g id="line2d_13">
      <g>
       <use xlink:href="#mddb86502cf" x="57.6" y="133.404483" style="stroke: #000000; stroke-width: 0.8"/>
      </g>
     </g>
     <g id="text_14">
      <!-- 0.65 -->
      <g transform="translate(28.334375 137.203701) scale(0.1 -0.1)">
       <use xlink:href="#DejaVuSans-30"/>
       <use xlink:href="#DejaVuSans-2e" x="63.623047"/>
       <use xlink:href="#DejaVuSans-36" x="95.410156"/>
       <use xlink:href="#DejaVuSans-35" x="159.033203"/>
      </g>
     </g>
    </g>
    <g id="ytick_5">
     <g id="line2d_14">
      <g>
       <use xlink:href="#mddb86502cf" x="57.6" y="80.315485" style="stroke: #000000; stroke-width: 0.8"/>
      </g>
     </g>
     <g id="text_15">
      <!-- 0.70 -->
      <g transform="translate(28.334375 84.114704) scale(0.1 -0.1)">
       <use xlink:href="#DejaVuSans-30"/>
       <use xlink:href="#DejaVuSans-2e" x="63.623047"/>
       <use xlink:href="#DejaVuSans-37" x="95.410156"/>
       <use xlink:href="#DejaVuSans-30" x="159.033203"/>
      </g>
     </g>
    </g>
    <g id="text_16">
     <!-- Balanced accuracy -->
     <g transform="translate(22.254687 221.792844) rotate(-90) scale(0.1 -0.1)">
      <defs>
       <path id="DejaVuSans-42" d="M 1259 2228 
L 1259 519 
L 2272 519 
Q 2781 519 3026 730 
Q 3272 941 3272 1375 
Q 3272 1813 3026 2020 
Q 2781 2228 2272 2228 
L 1259 2228 
z
M 1259 4147 
L 1259 2741 
L 2194 2741 
Q 2656 2741 2882 2914 
Q 3109 3088 3109 3444 
Q 3109 3797 2882 3972 
Q 2656 4147 2194 4147 
L 1259 4147 
z
M 628 4666 
L 2241 4666 
Q 2963 4666 3353 4366 
Q 3744 4066 3744 3513 
Q 3744 3084 3544 2831 
Q 3344 2578 2956 2516 
Q 3422 2416 3680 2098 
Q 3938 1781 3938 1306 
Q 3938 681 3513 340 
Q 3088 0 2303 0 
L 628 0 
L 628 4666 
z
" transform="scale(0.015625)"/>
       <path id="DejaVuSans-61" d="M 2194 1759 
Q 1497 1759 1228 1600 
Q 959 1441 959 1056 
Q 959 750 1161 570 
Q 1363 391 1709 391 
Q 2188 391 2477 730 
Q 2766 1069 2766 1631 
L 2766 1759 
L 2194 1759 
z
M 3341 1997 
L 3341 0 
L 2766 0 
L 2766 531 
Q 2569 213 2275 61 
Q 1981 -91 1556 -91 
Q 1019 -91 701 211 
Q 384 513 384 1019 
Q 384 1609 779 1909 
Q 1175 2209 1959 2209 
L 2766 2209 
L 2766 2266 
Q 2766 2663 2505 2880 
Q 2244 3097 1772 3097 
Q 1472 3097 1187 3025 
Q 903 2953 641 2809 
L 641 3341 
Q 956 3463 1253 3523 
Q 1550 3584 1831 3584 
Q 2591 3584 2966 3190 
Q 3341 2797 3341 1997 
z
" transform="scale(0.015625)"/>
       <path id="DejaVuSans-6c" d="M 603 4863 
L 1178 4863 
L 1178 0 
L 603 0 
L 603 4863 
z
" transform="scale(0.015625)"/>
       <path id="DejaVuSans-6e" d="M 3513 2113 
L 3513 0 
L 2938 0 
L 2938 2094 
Q 2938 2591 2744 2837 
Q 2550 3084 2163 3084 
Q 1697 3084 1428 2787 
Q 1159 2491 1159 1978 
L 1159 0 
L 581 0 
L 581 3500 
L 1159 3500 
L 1159 2956 
Q 1366 3272 1645 3428 
Q 1925 3584 2291 3584 
Q 2894 3584 3203 3211 
Q 3513 2838 3513 2113 
z
" transform="scale(0.015625)"/>
       <path id="DejaVuSans-65" d="M 3597 1894 
L 3597 1613 
L 953 1613 
Q 991 1019 1311 708 
Q 1631 397 2203 397 
Q 2534 397 2845 478 
Q 3156 559 3463 722 
L 3463 178 
Q 3153 47 2828 -22 
Q 2503 -91 2169 -91 
Q 1331 -91 842 396 
Q 353 884 353 1716 
Q 353 2575 817 3079 
Q 1281 3584 2069 3584 
Q 2775 3584 3186 3129 
Q 3597 2675 3597 1894 
z
M 3022 2063 
Q 3016 2534 2758 2815 
Q 2500 3097 2075 3097 
Q 1594 3097 1305 2825 
Q 1016 2553 972 2059 
L 3022 2063 
z
" transform="scale(0.015625)"/>
       <path id="DejaVuSans-64" d="M 2906 2969 
L 2906 4863 
L 3481 4863 
L 3481 0 
L 2906 0 
L 2906 525 
Q 2725 213 2448 61 
Q 2172 -91 1784 -91 
Q 1150 -91 751 415 
Q 353 922 353 1747 
Q 353 2572 751 3078 
Q 1150 3584 1784 3584 
Q 2172 3584 2448 3432 
Q 2725 3281 2906 2969 
z
M 947 1747 
Q 947 1113 1208 752 
Q 1469 391 1925 391 
Q 2381 391 2643 752 
Q 2906 1113 2906 1747 
Q 2906 2381 2643 2742 
Q 2381 3103 1925 3103 
Q 1469 3103 1208 2742 
Q 947 2381 947 1747 
z
" transform="scale(0.015625)"/>
       <path id="DejaVuSans-20" transform="scale(0.015625)"/>
       <path id="DejaVuSans-75" d="M 544 1381 
L 544 3500 
L 1119 3500 
L 1119 1403 
Q 1119 906 1312 657 
Q 1506 409 1894 409 
Q 2359 409 2629 706 
Q 2900 1003 2900 1516 
L 2900 3500 
L 3475 3500 
L 3475 0 
L 2900 0 
L 2900 538 
Q 2691 219 2414 64 
Q 2138 -91 1772 -91 
Q 1169 -91 856 284 
Q 544 659 544 1381 
z
M 1991 3584 
L 1991 3584 
z
" transform="scale(0.015625)"/>
       <path id="DejaVuSans-72" d="M 2631 2963 
Q 2534 3019 2420 3045 
Q 2306 3072 2169 3072 
Q 1681 3072 1420 2755 
Q 1159 2438 1159 1844 
L 1159 0 
L 581 0 
L 581 3500 
L 1159 3500 
L 1159 2956 
Q 1341 3275 1631 3429 
Q 1922 3584 2338 3584 
Q 2397 3584 2469 3576 
Q 2541 3569 2628 3553 
L 2631 2963 
z
" transform="scale(0.015625)"/>
       <path id="DejaVuSans-79" d="M 2059 -325 
Q 1816 -950 1584 -1140 
Q 1353 -1331 966 -1331 
L 506 -1331 
L 506 -850 
L 844 -850 
Q 1081 -850 1212 -737 
Q 1344 -625 1503 -206 
L 1606 56 
L 191 3500 
L 800 3500 
L 1894 763 
L 2988 3500 
L 3597 3500 
L 2059 -325 
z
" transform="scale(0.015625)"/>
      </defs>
      <use xlink:href="#DejaVuSans-42"/>
      <use xlink:href="#DejaVuSans-61" x="68.603516"/>
      <use xlink:href="#DejaVuSans-6c" x="129.882812"/>
      <use xlink:href="#DejaVuSans-61" x="157.666016"/>
      <use xlink:href="#DejaVuSans-6e" x="218.945312"/>
      <use xlink:href="#DejaVuSans-63" x="282.324219"/>
      <use xlink:href="#DejaVuSans-65" x="337.304688"/>
      <use xlink:href="#DejaVuSans-64" x="398.828125"/>
      <use xlink:href="#DejaVuSans-20" x="462.304688"/>
      <use xlink:href="#DejaVuSans-61" x="494.091797"/>
      <use xlink:href="#DejaVuSans-63" x="555.371094"/>
      <use xlink:href="#DejaVuSans-63" x="610.351562"/>
      <use xlink:href="#DejaVuSans-75" x="665.332031"/>
      <use xlink:href="#DejaVuSans-72" x="728.710938"/>
      <use xlink:href="#DejaVuSans-61" x="769.824219"/>
      <use xlink:href="#DejaVuSans-63" x="831.103516"/>
      <use xlink:href="#DejaVuSans-79" x="886.083984"/>
     </g>
    </g>
   </g>
   <g id="line2d_15">
    <path d="M 73.832727 295.488 
L 74.239053 294.26096 
L 74.645379 293.759473 
L 75.051706 290.890958 
L 75.458032 289.731033 
L 75.864358 292.164419 
L 76.67701 294.001072 
L 77.489662 292.760393 
L 77.895988 292.717959 
L 78.302314 293.043064 
L 78.70864 291.78938 
L 79.114966 293.785421 
L 79.521293 291.171572 
L 79.927619 294.200584 
L 80.333945 292.168533 
L 80.740271 292.220744 
L 81.146597 291.695083 
L 81.959249 291.974938 
L 82.365575 292.752324 
L 82.771901 292.194923 
L 83.178227 293.040659 
L 83.99088 291.535409 
L 84.397206 292.065944 
L 84.803532 293.050247 
L 85.209858 292.40415 
L 85.616184 293.039299 
L 86.02251 292.121131 
L 86.428836 292.892821 
L 86.835162 292.019239 
L 87.241488 292.700966 
L 87.647814 292.377063 
L 88.05414 292.547559 
L 88.460466 292.506928 
L 88.866793 292.629072 
L 89.273119 292.115308 
L 89.679445 292.901523 
L 90.085771 292.425794 
L 90.492097 292.330547 
L 90.898423 292.110625 
L 91.304749 292.480221 
L 91.711075 291.482312 
L 92.117401 292.32713 
L 92.523727 292.2865 
L 92.930053 292.918515 
L 93.33638 292.890701 
L 94.149032 292.311435 
L 94.555358 293.026989 
L 94.961684 292.348837 
L 95.774336 292.356812 
L 96.180662 292.945887 
L 96.586988 292.300106 
L 96.993314 292.553065 
L 97.39964 292.440414 
L 97.805967 292.173849 
L 98.212293 292.159926 
L 98.618619 292.396682 
L 99.431271 292.179734 
L 99.837597 291.532372 
L 100.243923 291.553763 
L 100.650249 292.233592 
L 101.056575 292.200303 
L 101.462901 292.566355 
L 102.275554 291.754509 
L 102.68188 290.024495 
L 103.088206 289.067659 
L 103.494532 287.575541 
L 103.900858 285.192531 
L 104.307184 280.709659 
L 104.71351 267.104722 
L 105.119836 259.025375 
L 105.932488 219.376313 
L 106.745141 209.682957 
L 107.151467 186.924376 
L 107.557793 178.382654 
L 107.964119 172.519049 
L 108.370445 168.347738 
L 108.776771 167.061176 
L 109.183097 165.200854 
L 109.589423 159.722034 
L 109.995749 159.864936 
L 110.402075 158.27466 
L 110.808401 155.175305 
L 111.214728 155.053794 
L 111.621054 149.074183 
L 112.433706 142.387847 
L 112.840032 149.366633 
L 113.246358 140.161979 
L 113.652684 139.443735 
L 114.05901 141.692829 
L 114.465336 136.428425 
L 114.871662 138.704796 
L 115.277988 138.141541 
L 115.684314 135.885043 
L 116.090641 131.48843 
L 116.496967 133.927196 
L 116.903293 130.352365 
L 117.309619 133.51545 
L 117.715945 129.067512 
L 118.122271 121.389784 
L 118.528597 131.900935 
L 118.934923 119.442633 
L 119.341249 130.881761 
L 119.747575 118.806029 
L 120.153901 118.041965 
L 120.560228 118.309099 
L 120.966554 123.293964 
L 121.37288 119.258404 
L 121.779206 113.755851 
L 122.591858 116.684838 
L 122.998184 112.868314 
L 123.40451 117.360743 
L 123.810836 114.816478 
L 124.217162 116.548074 
L 124.623488 110.528024 
L 125.029815 112.97875 
L 125.436141 108.303865 
L 125.842467 116.836157 
L 126.248793 107.687449 
L 126.655119 115.454412 
L 127.061445 108.311459 
L 127.467771 107.299943 
L 127.874097 112.049507 
L 128.280423 112.557385 
L 128.686749 112.283352 
L 129.905728 103.820866 
L 130.312054 106.263365 
L 130.71838 110.421385 
L 131.124706 108.718205 
L 131.531032 104.91744 
L 131.937358 104.930477 
L 132.343684 108.918128 
L 132.75001 103.280141 
L 133.156336 107.304183 
L 133.562662 105.54107 
L 133.968989 110.746933 
L 134.375315 106.081604 
L 134.781641 105.812192 
L 135.187967 108.704788 
L 135.594293 104.728591 
L 136.000619 103.982817 
L 136.406945 102.929595 
L 136.813271 103.813524 
L 137.219597 103.608411 
L 137.625923 107.251781 
L 138.032249 100.18528 
L 138.438575 102.265587 
L 138.844902 105.54531 
L 139.251228 104.061736 
L 139.657554 104.661823 
L 140.470206 96.447359 
L 140.876532 94.489195 
L 141.282858 98.055355 
L 142.09551 98.678036 
L 142.501836 95.51128 
L 142.908162 100.182368 
L 143.314489 98.698794 
L 143.720815 96.2899 
L 144.127141 92.609191 
L 144.533467 94.169722 
L 144.939793 96.998145 
L 145.346119 97.015423 
L 145.752445 103.481647 
L 146.158771 95.741582 
L 146.565097 97.573867 
L 146.971423 92.322627 
L 147.377749 98.130793 
L 147.784076 98.286606 
L 148.190402 98.055102 
L 149.003054 92.217824 
L 149.40938 92.297439 
L 149.815706 92.084225 
L 150.222032 91.373385 
L 150.628358 91.46667 
L 151.034684 92.933474 
L 151.44101 94.870942 
L 151.847336 93.786329 
L 152.253663 97.66633 
L 152.659989 90.741528 
L 153.066315 97.423181 
L 153.472641 92.141247 
L 153.878967 90.243775 
L 154.285293 92.991128 
L 154.691619 94.296676 
L 155.504271 93.018848 
L 155.910597 91.239913 
L 156.316923 94.177823 
L 156.72325 89.174288 
L 157.129576 90.087646 
L 157.535902 93.993848 
L 157.942228 86.934181 
L 158.348554 92.249341 
L 158.75488 86.877855 
L 159.161206 87.450097 
L 159.567532 85.03209 
L 159.973858 87.308713 
L 160.380184 87.522307 
L 160.78651 86.714512 
L 161.599163 88.812096 
L 162.005489 89.734631 
L 162.818141 87.725142 
L 163.224467 87.020378 
L 163.630793 87.770012 
L 164.037119 85.455923 
L 164.443445 86.790709 
L 164.849771 87.039744 
L 165.662423 80.977164 
L 166.06875 86.400481 
L 166.475076 87.239288 
L 166.881402 85.38656 
L 167.287728 85.243152 
L 167.694054 87.772291 
L 168.10038 87.591733 
L 168.506706 83.806916 
L 168.913032 87.515978 
L 169.319358 82.983679 
L 169.725684 86.724574 
L 170.13201 85.059303 
L 170.538337 82.328658 
L 170.944663 87.006012 
L 171.350989 83.255053 
L 171.757315 84.81685 
L 172.569967 83.551363 
L 172.976293 89.105369 
L 173.382619 83.957096 
L 173.788945 93.928662 
L 174.195271 85.080378 
L 174.601597 85.608634 
L 175.007924 90.996891 
L 175.41425 80.70522 
L 175.820576 88.659575 
L 176.633228 80.303537 
L 177.039554 79.944826 
L 177.44588 89.6547 
L 177.852206 86.962344 
L 178.258532 89.890001 
L 178.664858 87.933989 
L 179.071184 83.463141 
L 179.477511 86.683881 
L 179.883837 82.183351 
L 180.696489 87.805643 
L 181.102815 80.877424 
L 181.509141 82.684394 
L 181.915467 83.041207 
L 182.321793 84.162779 
L 183.134445 81.253602 
L 183.540771 84.755968 
L 183.947098 86.280616 
L 184.353424 84.017662 
L 184.75975 82.538391 
L 185.166076 75.868066 
L 185.572402 83.384096 
L 185.978728 83.531238 
L 186.385054 84.809446 
L 186.79138 84.282202 
L 187.604032 77.300821 
L 188.010358 84.475987 
L 188.416684 87.289094 
L 188.823011 87.388771 
L 189.229337 79.319044 
L 189.635663 80.076147 
L 190.041989 82.321886 
L 190.448315 81.313218 
L 190.854641 83.314163 
L 191.260967 84.199422 
L 191.667293 79.969888 
L 192.073619 78.784459 
L 192.479945 85.308717 
L 192.886271 82.621171 
L 193.292598 80.923053 
L 193.698924 81.682055 
L 194.10525 81.52504 
L 194.511576 82.30847 
L 194.917902 83.540351 
L 195.324228 83.226195 
L 195.730554 90.786082 
L 196.13688 79.917866 
L 196.543206 78.10349 
L 196.949532 75.575427 
L 197.355858 84.655912 
L 197.762185 78.819963 
L 198.168511 81.940392 
L 198.574837 73.305638 
L 198.981163 77.482392 
L 199.793815 76.102355 
L 200.200141 74.43759 
L 200.606467 79.27487 
L 201.012793 78.167347 
L 201.419119 80.183924 
L 201.825445 77.645988 
L 202.231772 73.912814 
L 202.638098 73.89041 
L 203.044424 72.174446 
L 203.45075 74.862625 
L 203.857076 81.913242 
L 204.263402 77.227914 
L 204.669728 77.365121 
L 205.076054 80.215568 
L 205.48238 82.000198 
L 205.888706 75.184313 
L 206.295032 74.734153 
L 206.701359 82.819955 
L 207.107685 74.737064 
L 207.514011 79.509348 
L 207.920337 79.272338 
L 208.326663 82.019185 
L 208.732989 71.997749 
L 209.139315 73.279121 
L 209.545641 77.690669 
L 209.951967 75.386009 
L 210.358293 77.710098 
L 210.764619 75.727379 
L 211.170946 75.282978 
L 211.577272 74.171215 
L 211.983598 78.042039 
L 212.389924 73.82744 
L 213.202576 77.772689 
L 213.608902 79.059124 
L 214.015228 73.935028 
L 214.421554 80.388658 
L 214.82788 74.864587 
L 215.234206 76.775096 
L 215.640532 72.741245 
L 216.046859 75.17115 
L 216.453185 75.91705 
L 216.859511 75.944454 
L 217.265837 78.460999 
L 217.672163 76.790032 
L 218.078489 72.860541 
L 218.484815 75.89933 
L 218.891141 77.608143 
L 219.297467 72.709854 
L 219.703793 80.735724 
L 220.110119 83.523454 
L 220.516446 78.989192 
L 220.922772 84.471936 
L 221.329098 84.983295 
L 221.735424 81.100763 
L 222.14175 78.530488 
L 222.548076 78.646936 
L 222.954402 77.296644 
L 223.360728 77.631053 
L 223.767054 72.060846 
L 224.17338 74.125079 
L 224.579706 74.025528 
L 224.986033 75.611754 
L 225.392359 69.380704 
L 225.798685 76.528909 
L 226.205011 71.722134 
L 226.611337 73.250072 
L 227.017663 73.65878 
L 227.423989 77.872809 
L 227.830315 78.54998 
L 228.236641 78.878377 
L 228.642967 69.609297 
L 229.049293 73.821807 
L 229.861946 78.883882 
L 230.268272 73.65897 
L 230.674598 76.320125 
L 231.080924 71.8551 
L 231.48725 76.091786 
L 231.893576 75.924898 
L 232.299902 82.156074 
L 233.112554 72.449681 
L 233.925207 78.766928 
L 234.331533 79.807177 
L 234.737859 78.176334 
L 235.144185 71.035027 
L 236.363163 80.162344 
L 236.769489 82.010388 
L 237.175815 72.427531 
L 237.582141 73.481133 
L 237.988467 75.111723 
L 238.394793 68.134076 
L 238.80112 71.49525 
L 239.207446 69.472217 
L 239.613772 77.453912 
L 240.020098 74.381264 
L 240.426424 76.46923 
L 240.83275 74.551823 
L 241.239076 75.941796 
L 241.645402 75.070017 
L 242.051728 70.006866 
L 242.458054 72.195837 
L 242.86438 77.701871 
L 243.270707 71.268492 
L 243.677033 71.643152 
L 244.083359 69.890671 
L 244.489685 71.911489 
L 244.896011 75.337848 
L 245.302337 73.397658 
L 245.708663 75.521 
L 246.114989 76.55549 
L 246.521315 76.460623 
L 246.927641 74.684029 
L 247.333967 74.803895 
L 247.740294 82.867231 
L 248.14662 73.785101 
L 248.959272 79.013874 
L 249.365598 68.331785 
L 250.17825 73.713017 
L 250.584576 71.946803 
L 250.990902 80.792872 
L 251.397228 76.386134 
L 251.803554 75.722633 
L 252.209881 76.176337 
L 252.616207 79.833124 
L 253.022533 75.104192 
L 253.428859 84.752931 
L 253.835185 79.021911 
L 254.241511 76.506822 
L 254.647837 89.860572 
L 255.054163 85.15841 
L 255.460489 84.629141 
L 255.866815 79.178041 
L 256.273141 77.537768 
L 256.679468 80.137345 
L 257.085794 77.377841 
L 257.49212 72.068883 
L 257.898446 75.441322 
L 258.304772 75.947048 
L 258.711098 72.724727 
L 259.117424 72.490565 
L 259.52375 76.918251 
L 259.930076 76.146656 
L 260.336402 74.35095 
L 261.149054 75.797628 
L 261.555381 76.201715 
L 261.961707 74.60549 
L 262.368033 77.799333 
L 262.774359 77.674278 
L 263.180685 78.552512 
L 263.587011 75.45746 
L 263.993337 78.803761 
L 264.399663 77.148299 
L 264.805989 77.97698 
L 265.212315 76.436637 
L 265.618641 84.732046 
L 266.024968 79.920904 
L 266.431294 81.232527 
L 266.83762 71.487086 
L 267.650272 76.092166 
L 268.462924 78.250569 
L 268.86925 75.498407 
L 269.275576 77.988434 
L 269.681902 75.529671 
L 270.088228 75.453093 
L 270.494555 71.415192 
L 270.900881 74.274752 
L 271.307207 81.143988 
L 271.713533 77.526566 
L 272.119859 79.936789 
L 272.526185 78.213167 
L 272.932511 79.524094 
L 273.338837 75.413286 
L 273.745163 77.780347 
L 274.557815 80.993745 
L 275.370468 75.907684 
L 275.776794 78.02609 
L 276.18312 82.006337 
L 276.589446 80.912864 
L 277.402098 76.306645 
L 277.808424 77.490745 
L 278.21475 75.823196 
L 278.621076 76.721745 
L 279.027402 78.228799 
L 279.433729 76.60093 
L 279.840055 78.908881 
L 280.246381 72.742194 
L 280.652707 70.855102 
L 281.059033 73.244313 
L 281.465359 71.128059 
L 281.871685 67.607845 
L 282.278011 69.064079 
L 282.684337 76.925909 
L 283.090663 76.467268 
L 283.496989 71.778269 
L 283.903316 76.005589 
L 284.309642 76.257028 
L 284.715968 75.074321 
L 285.122294 78.173802 
L 285.52862 73.865285 
L 285.934946 74.844842 
L 286.341272 75.291711 
L 286.747598 73.214948 
L 287.153924 68.5169 
L 287.56025 68.486332 
L 287.966576 71.849404 
L 288.372902 66.546205 
L 288.779229 79.037797 
L 289.185555 75.472839 
L 289.591881 69.869849 
L 289.998207 67.950734 
L 290.404533 74.417528 
L 290.810859 78.33221 
L 291.217185 75.923759 
L 291.623511 72.346524 
L 292.029837 73.857121 
L 292.436163 73.970089 
L 292.842489 73.275577 
L 293.248816 75.292534 
L 293.655142 75.185199 
L 294.061468 71.516894 
L 294.467794 72.414304 
L 294.87412 76.745288 
L 295.280446 73.559482 
L 296.093098 80.810149 
L 296.499424 73.676563 
L 296.90575 73.992429 
L 297.312076 78.421634 
L 297.718403 78.611305 
L 298.124729 70.081798 
L 298.531055 80.463906 
L 298.937381 76.408917 
L 299.343707 82.100825 
L 299.750033 80.305942 
L 300.156359 72.558535 
L 300.562685 75.791995 
L 300.969011 68.54848 
L 301.375337 74.853702 
L 301.781663 69.822764 
L 302.18799 76.149883 
L 302.594316 75.82212 
L 303.000642 69.438105 
L 303.406968 74.019136 
L 303.813294 71.746816 
L 304.21962 75.574098 
L 304.625946 72.51145 
L 305.032272 68.250145 
L 305.438598 73.368419 
L 305.844924 75.214944 
L 306.25125 79.599342 
L 306.657577 80.010138 
L 307.063903 70.563728 
L 307.470229 69.285837 
L 307.876555 79.890399 
L 308.282881 74.069133 
L 308.689207 73.627453 
L 309.095533 83.831282 
L 309.501859 78.867365 
L 309.908185 76.292912 
L 310.314511 75.26165 
L 310.720837 73.769975 
L 311.127163 70.795169 
L 311.53349 75.656498 
L 311.939816 78.660859 
L 312.346142 69.371148 
L 312.752468 67.848842 
L 313.158794 69.644927 
L 313.56512 70.037117 
L 313.971446 74.876612 
L 314.377772 77.278987 
L 314.784098 74.031161 
L 315.190424 73.883955 
L 315.59675 70.53797 
L 316.003077 74.084701 
L 316.409403 74.250703 
L 316.815729 77.543906 
L 317.222055 74.447779 
L 317.628381 69.123316 
L 318.034707 74.57005 
L 318.441033 74.451386 
L 318.847359 76.42765 
L 319.253685 72.878451 
L 319.660011 74.412718 
L 320.066337 71.699287 
L 320.472664 80.934129 
L 320.87899 70.158881 
L 321.285316 72.056542 
L 321.691642 71.705742 
L 322.097968 73.715612 
L 322.504294 72.432024 
L 322.91062 83.671545 
L 323.316946 67.821439 
L 323.723272 72.06939 
L 324.129598 72.37823 
L 324.535924 67.209896 
L 324.942251 74.99711 
L 325.348577 76.856293 
L 325.754903 75.544859 
L 326.161229 72.610557 
L 326.567555 70.933704 
L 326.973881 75.436639 
L 327.380207 65.465643 
L 327.786533 74.748329 
L 328.192859 66.449123 
L 328.599185 77.253293 
L 329.005511 75.052993 
L 329.411838 79.710791 
L 329.818164 81.901597 
L 330.22449 74.876042 
L 331.037142 69.485824 
L 331.443468 66.697714 
L 331.849794 73.367976 
L 332.25612 72.94332 
L 332.662446 73.36766 
L 333.068772 70.914528 
L 333.475098 65.279769 
L 333.881425 76.074129 
L 334.287751 75.910975 
L 334.694077 72.114513 
L 335.100403 71.822191 
L 335.506729 68.183693 
L 335.913055 71.283998 
L 336.319381 68.926177 
L 336.725707 64.40413 
L 337.132033 68.4114 
L 337.538359 65.895678 
L 337.944685 68.23426 
L 338.351011 73.657134 
L 338.757338 72.94775 
L 339.163664 76.176654 
L 339.56999 69.686064 
L 339.976316 67.901876 
L 340.382642 69.865293 
L 340.788968 77.112542 
L 341.195294 69.43127 
L 341.60162 67.384252 
L 342.007946 69.41393 
L 342.414272 66.437415 
L 342.820598 72.853959 
L 343.226925 68.441968 
L 343.633251 71.638848 
L 344.039577 68.681003 
L 344.852229 72.536954 
L 345.258555 72.241341 
L 345.664881 71.611761 
L 346.071207 67.877448 
L 346.477533 70.128187 
L 346.883859 83.857103 
L 347.290185 73.638401 
L 347.696512 71.848771 
L 348.102838 75.15653 
L 348.509164 71.039963 
L 348.91549 65.582724 
L 349.728142 71.107364 
L 350.134468 70.675683 
L 350.540794 68.003136 
L 350.94712 68.636955 
L 351.353446 68.942568 
L 351.759772 63.450078 
L 352.166099 68.102116 
L 352.572425 67.753595 
L 352.978751 69.481837 
L 353.385077 70.243876 
L 353.791403 65.261479 
L 354.197729 65.731132 
L 354.604055 67.920862 
L 355.010381 64.893971 
L 355.416707 72.946295 
L 355.823033 71.240077 
L 356.229359 68.410514 
L 356.635686 70.399182 
L 357.042012 67.957189 
L 357.448338 72.749662 
L 357.854664 67.344001 
L 358.26099 72.467465 
L 358.667316 69.465256 
L 359.073642 67.827641 
L 359.479968 64.837139 
L 359.886294 62.712278 
L 360.29262 67.897826 
L 360.698946 64.010484 
L 361.105272 67.17205 
L 361.511599 68.166543 
L 361.917925 66.347294 
L 362.324251 61.781389 
L 362.730577 70.500884 
L 363.136903 67.80644 
L 363.543229 68.208818 
L 363.949555 65.097565 
L 364.355881 62.926757 
L 364.762207 72.326208 
L 365.168533 71.475821 
L 365.574859 63.669177 
L 366.387512 66.693411 
L 366.793838 63.943527 
L 367.200164 73.295196 
L 367.60649 67.780049 
L 368.012816 64.481213 
L 368.419142 70.842065 
L 368.825468 67.724609 
L 369.231794 53.568 
L 369.63812 72.827252 
L 370.044446 65.299894 
L 370.450773 65.60595 
L 370.857099 67.390517 
L 371.263425 64.814989 
L 371.669751 64.530324 
L 372.076077 72.712196 
L 372.482403 67.748152 
L 372.888729 57.610711 
L 373.295055 65.892134 
L 373.701381 67.949152 
L 374.107707 64.366094 
L 374.514033 64.487289 
L 374.92036 65.726512 
L 375.326686 63.859228 
L 375.733012 66.795683 
L 376.139338 66.45811 
L 376.545664 67.342419 
L 376.95199 65.320969 
L 377.358316 70.011233 
L 377.764642 71.456075 
L 378.170968 69.348618 
L 378.577294 69.047182 
L 378.98362 66.425707 
L 379.389947 67.62316 
L 379.796273 63.96574 
L 380.202599 61.897141 
L 380.608925 68.724544 
L 381.015251 66.5076 
L 381.421577 62.39445 
L 381.827903 61.523305 
L 382.234229 66.185153 
L 382.640555 67.332863 
L 383.046881 64.154146 
L 383.453207 65.7386 
L 384.26586 61.689876 
L 384.672186 65.778027 
L 385.078512 67.34609 
L 385.484838 70.128503 
L 385.891164 68.06541 
L 386.29749 73.991163 
L 386.703816 66.998264 
L 387.110142 71.317667 
L 387.516468 67.406149 
L 387.922794 70.590246 
L 388.32912 68.263625 
L 388.735447 72.56056 
L 389.141773 70.230016 
L 389.548099 64.965739 
L 389.954425 70.805548 
L 390.360751 62.356605 
L 390.767077 70.905858 
L 391.173403 67.307295 
L 391.986055 65.254517 
L 392.392381 62.157567 
L 392.798707 68.972883 
L 393.205034 64.539057 
L 393.61136 65.712968 
L 394.017686 67.398555 
L 394.424012 67.168317 
L 394.830338 70.755804 
L 395.236664 77.736236 
L 395.64299 69.92858 
L 396.049316 67.935861 
L 396.455642 64.997002 
L 396.861968 68.253689 
L 397.268294 66.191545 
L 397.674621 70.640306 
L 398.080947 70.500378 
L 398.487273 69.735111 
L 398.487273 69.735111 
" clip-path="url(#pa75e8c3da3)" style="fill: none; stroke: #1f77b4; stroke-width: 1.5; stroke-linecap: square"/>
   </g>
   <g id="line2d_16">
    <path d="M 73.832727 290.480225 
L 74.239053 291.754572 
L 74.645379 294.26308 
L 75.051706 292.212517 
L 75.458032 292.904497 
L 75.864358 292.82849 
L 76.270684 291.977153 
L 76.67701 291.740649 
L 77.083336 291.97633 
L 77.489662 291.759825 
L 77.895988 292.014809 
L 78.302314 292.09417 
L 78.70864 292.301878 
L 79.114966 293.049899 
L 79.521293 292.292006 
L 79.927619 292.075691 
L 80.333945 292.568823 
L 80.740271 292.731629 
L 81.146597 292.202518 
L 81.552923 292.388265 
L 81.959249 292.196063 
L 82.365575 292.768272 
L 82.771901 292.963544 
L 83.178227 292.123472 
L 83.584553 292.525725 
L 83.99088 292.155559 
L 84.397206 292.361621 
L 84.803532 292.142458 
L 85.209858 292.833394 
L 85.616184 292.391303 
L 86.02251 292.95981 
L 86.428836 292.070944 
L 86.835162 293.012908 
L 87.241488 291.916587 
L 87.647814 292.371178 
L 88.05414 291.913106 
L 88.460466 291.908866 
L 88.866793 292.430351 
L 89.273119 292.463513 
L 89.679445 292.151635 
L 90.085771 292.106258 
L 90.492097 293.063095 
L 90.898423 292.837287 
L 91.304749 291.826593 
L 92.117401 291.920384 
L 92.523727 292.424402 
L 92.930053 292.074741 
L 93.33638 292.171444 
L 93.742706 291.870831 
L 94.149032 291.892158 
L 94.555358 291.677236 
L 94.961684 292.191506 
L 95.36801 291.938168 
L 95.774336 292.047971 
L 96.180662 292.539015 
L 96.586988 291.849313 
L 96.993314 292.294854 
L 97.39964 292.239667 
L 97.805967 292.707074 
L 98.212293 291.847161 
L 99.431271 291.894437 
L 99.837597 291.184609 
L 100.243923 291.430416 
L 100.650249 291.942471 
L 101.056575 292.21739 
L 101.462901 292.117966 
L 101.869227 292.178026 
L 102.275554 290.70097 
L 102.68188 288.281318 
L 103.088206 289.453203 
L 103.494532 285.820529 
L 103.900858 280.894963 
L 104.307184 277.79257 
L 104.71351 254.415739 
L 105.119836 267.903784 
L 105.526162 217.173418 
L 105.932488 188.622683 
L 106.338814 246.927113 
L 106.745141 166.449697 
L 107.151467 176.503283 
L 107.557793 163.994984 
L 107.964119 161.897019 
L 108.370445 164.325468 
L 108.776771 158.609005 
L 109.183097 171.250334 
L 109.589423 171.557529 
L 109.995749 146.340121 
L 110.402075 146.900464 
L 110.808401 164.916886 
L 111.621054 141.852312 
L 112.02738 136.560695 
L 112.433706 157.954428 
L 112.840032 138.371969 
L 113.246358 149.285246 
L 113.652684 146.937234 
L 114.05901 139.887693 
L 114.465336 137.762832 
L 114.871662 145.223865 
L 115.277988 140.873072 
L 115.684314 141.783076 
L 116.090641 147.907044 
L 116.496967 126.25567 
L 116.903293 127.418632 
L 117.309619 125.493694 
L 117.715945 124.991512 
L 118.122271 145.452331 
L 118.528597 141.310449 
L 118.934923 142.267285 
L 119.341249 118.886277 
L 119.747575 115.354102 
L 120.153901 126.024546 
L 120.560228 143.325571 
L 120.966554 107.387026 
L 121.37288 147.176269 
L 121.779206 132.874226 
L 122.185532 128.589948 
L 122.591858 131.524441 
L 122.998184 121.656413 
L 123.40451 126.586155 
L 123.810836 158.680899 
L 124.217162 109.7401 
L 124.623488 123.874749 
L 125.029815 110.906607 
L 125.436141 127.911322 
L 125.842467 116.941213 
L 126.248793 145.141592 
L 126.655119 132.332869 
L 127.061445 125.663557 
L 127.467771 131.983968 
L 127.874097 141.403734 
L 128.280423 118.426939 
L 128.686749 118.43023 
L 129.093075 111.20722 
L 129.499402 129.467423 
L 129.905728 94.20972 
L 130.312054 112.019762 
L 130.71838 112.600547 
L 131.124706 119.019875 
L 131.531032 115.592377 
L 131.937358 103.983703 
L 132.343684 122.591288 
L 132.75001 112.231963 
L 133.156336 119.782168 
L 133.562662 106.135905 
L 134.375315 122.70723 
L 134.781641 126.363448 
L 135.187967 126.583876 
L 135.594293 131.913846 
L 136.000619 121.863614 
L 136.406945 124.024486 
L 136.813271 114.126334 
L 137.219597 117.902986 
L 137.625923 131.649939 
L 138.032249 111.785157 
L 138.438575 115.162912 
L 138.844902 106.481831 
L 139.251228 131.378374 
L 139.657554 110.123303 
L 140.06388 108.181594 
L 140.470206 124.033156 
L 140.876532 110.426132 
L 141.282858 120.596482 
L 141.689184 108.341584 
L 142.09551 108.862816 
L 142.501836 122.717736 
L 142.908162 112.52783 
L 143.314489 119.977535 
L 143.720815 109.232792 
L 144.127141 115.381505 
L 144.533467 117.121645 
L 144.939793 110.294115 
L 145.752445 119.171385 
L 146.158771 112.828127 
L 146.565097 109.239943 
L 146.971423 117.230878 
L 147.377749 115.06507 
L 147.784076 108.406643 
L 148.190402 121.739762 
L 148.596728 111.761424 
L 149.003054 105.610876 
L 149.40938 101.320396 
L 149.815706 124.235042 
L 150.222032 117.529656 
L 150.628358 112.920083 
L 151.034684 105.087492 
L 151.44101 138.355515 
L 151.847336 117.610284 
L 152.659989 103.124898 
L 153.066315 122.19777 
L 153.472641 112.588269 
L 153.878967 108.846045 
L 154.285293 111.268165 
L 154.691619 115.013111 
L 155.097945 107.057933 
L 155.504271 94.959291 
L 155.910597 116.736417 
L 156.316923 100.306411 
L 156.72325 113.487641 
L 157.129576 121.349724 
L 157.535902 100.028581 
L 157.942228 93.74494 
L 158.348554 90.150997 
L 158.75488 113.040771 
L 159.161206 94.138015 
L 159.567532 111.535426 
L 159.973858 108.471575 
L 160.380184 111.006284 
L 160.78651 115.229743 
L 161.192837 107.880285 
L 161.599163 115.606807 
L 162.005489 92.641024 
L 162.818141 113.586242 
L 163.224467 93.622986 
L 163.630793 104.155401 
L 164.037119 99.655188 
L 164.443445 109.233171 
L 164.849771 109.350379 
L 165.256097 116.091206 
L 165.662423 117.544718 
L 166.06875 102.048892 
L 166.475076 102.860295 
L 166.881402 96.537606 
L 167.287728 103.706316 
L 167.694054 114.923876 
L 168.10038 109.534797 
L 168.506706 113.244112 
L 168.913032 94.73247 
L 169.319358 109.921734 
L 169.725684 112.309553 
L 170.13201 106.653466 
L 170.538337 105.454747 
L 170.944663 116.50004 
L 171.350989 109.301142 
L 171.757315 91.799813 
L 172.163641 96.777654 
L 172.569967 123.543252 
L 172.976293 95.417236 
L 173.382619 113.208039 
L 173.788945 114.173609 
L 174.195271 116.236259 
L 174.601597 119.933677 
L 175.007924 97.935553 
L 175.41425 107.385887 
L 175.820576 112.921728 
L 176.226902 100.639934 
L 176.633228 106.582838 
L 177.039554 93.987456 
L 177.44588 109.078118 
L 177.852206 131.871443 
L 178.258532 118.980764 
L 178.664858 110.940655 
L 179.071184 108.36981 
L 179.477511 104.209321 
L 179.883837 97.129086 
L 180.290163 109.508596 
L 180.696489 111.279177 
L 181.102815 99.311539 
L 181.509141 100.329194 
L 181.915467 106.524171 
L 182.321793 109.748581 
L 182.728119 96.126747 
L 183.134445 109.955023 
L 183.540771 114.548584 
L 183.947098 96.541846 
L 185.166076 109.433475 
L 185.978728 113.680793 
L 186.385054 94.002455 
L 187.197706 104.936426 
L 187.604032 97.915174 
L 188.010358 116.720658 
L 188.416684 90.550971 
L 188.823011 99.732524 
L 189.229337 113.984317 
L 189.635663 101.558608 
L 190.041989 103.511582 
L 190.448315 97.984853 
L 190.854641 96.976248 
L 191.260967 115.215376 
L 191.667293 99.680186 
L 192.073619 103.927947 
L 192.479945 97.480456 
L 193.292598 109.487648 
L 193.698924 110.899139 
L 194.10525 104.277798 
L 194.511576 99.882831 
L 194.917902 101.853715 
L 195.324228 99.43305 
L 195.730554 105.651822 
L 196.13688 95.449132 
L 196.543206 89.147897 
L 196.949532 118.160248 
L 197.355858 95.125483 
L 197.762185 106.180016 
L 198.168511 107.998188 
L 198.574837 88.559961 
L 198.981163 98.314136 
L 199.387489 95.929038 
L 199.793815 102.669548 
L 200.200141 104.450065 
L 200.606467 103.156035 
L 201.012793 99.138449 
L 201.419119 115.179619 
L 202.231772 89.811335 
L 202.638098 89.936643 
L 203.044424 100.81315 
L 204.263402 85.701603 
L 204.669728 92.151436 
L 205.076054 116.308217 
L 205.48238 101.191353 
L 206.295032 94.094474 
L 206.701359 96.599817 
L 207.107685 101.585821 
L 207.514011 89.689065 
L 207.920337 119.334096 
L 208.326663 93.206494 
L 208.732989 88.17853 
L 209.139315 100.200215 
L 209.545641 99.085415 
L 210.358293 113.107159 
L 210.764619 95.432551 
L 211.170946 104.293113 
L 211.577272 90.317631 
L 211.983598 88.582428 
L 212.389924 116.724076 
L 212.79625 100.227809 
L 213.202576 98.903654 
L 213.608902 110.865343 
L 214.015228 103.71429 
L 214.421554 99.630569 
L 214.82788 93.99543 
L 215.234206 107.815036 
L 215.640532 109.498787 
L 216.046859 101.512851 
L 216.453185 98.321161 
L 216.859511 104.841875 
L 217.265837 85.24967 
L 217.672163 104.069457 
L 218.078489 90.057458 
L 218.484815 98.161171 
L 218.891141 103.225271 
L 219.297467 98.804484 
L 219.703793 106.53803 
L 220.110119 99.225912 
L 220.516446 97.270596 
L 220.922772 133.426532 
L 221.329098 106.024773 
L 221.735424 90.304214 
L 222.14175 105.309566 
L 222.548076 96.920176 
L 222.954402 102.429754 
L 223.360728 97.296797 
L 223.767054 96.585008 
L 224.17338 89.778363 
L 224.579706 105.260519 
L 224.986033 94.109726 
L 225.392359 87.412821 
L 225.798685 108.622198 
L 226.611337 86.875957 
L 227.017663 91.434267 
L 227.423989 94.494321 
L 228.236641 102.529747 
L 228.642967 92.806836 
L 229.049293 107.131473 
L 229.861946 92.838543 
L 230.268272 96.824992 
L 230.674598 94.74247 
L 231.080924 95.038147 
L 231.48725 112.32316 
L 231.893576 119.744575 
L 232.299902 109.262663 
L 232.706228 108.178367 
L 233.112554 100.676513 
L 233.51888 98.768347 
L 233.925207 109.994134 
L 234.331533 96.602412 
L 234.737859 94.179342 
L 235.550511 121.059236 
L 235.956837 83.895328 
L 236.363163 97.652597 
L 236.769489 96.383122 
L 237.175815 104.319061 
L 237.582141 100.876057 
L 237.988467 100.96776 
L 238.80112 92.665453 
L 239.207446 99.75227 
L 239.613772 102.431336 
L 240.020098 91.089037 
L 240.426424 83.744578 
L 241.239076 104.272229 
L 241.645402 90.402246 
L 242.051728 103.036486 
L 242.458054 103.369756 
L 242.86438 91.186562 
L 243.270707 99.31078 
L 243.677033 97.441598 
L 244.083359 85.539462 
L 244.489685 100.886753 
L 244.896011 91.555146 
L 245.302337 99.912386 
L 246.114989 90.067458 
L 246.521315 91.845 
L 246.927641 84.012093 
L 247.333967 102.097687 
L 247.740294 97.924921 
L 248.14662 106.372788 
L 248.552946 98.511591 
L 248.959272 88.027337 
L 249.365598 98.908021 
L 249.771924 102.615754 
L 250.17825 102.902508 
L 250.584576 107.862754 
L 250.990902 109.123938 
L 251.397228 95.323128 
L 251.803554 98.791257 
L 252.209881 96.794804 
L 252.616207 91.433888 
L 253.022533 105.530817 
L 253.428859 111.420624 
L 253.835185 96.492039 
L 254.241511 98.922577 
L 254.647837 115.87046 
L 255.054163 114.857868 
L 255.866815 89.480281 
L 256.273141 109.839334 
L 256.679468 114.859071 
L 257.085794 92.576092 
L 257.49212 96.205792 
L 257.898446 91.738994 
L 258.304772 104.291531 
L 258.711098 96.91891 
L 259.117424 96.357428 
L 259.52375 94.161748 
L 259.930076 103.39526 
L 260.336402 96.048271 
L 260.742728 95.331292 
L 261.149054 90.770956 
L 261.555381 111.481443 
L 261.961707 101.990922 
L 262.368033 108.027997 
L 262.774359 102.555315 
L 263.180685 94.91094 
L 263.587011 109.872813 
L 263.993337 105.043887 
L 264.399663 93.262503 
L 265.212315 119.098541 
L 265.618641 99.191673 
L 266.024968 106.083187 
L 266.431294 106.646757 
L 266.83762 104.269697 
L 267.243946 94.274779 
L 267.650272 103.254953 
L 268.056598 108.026604 
L 268.462924 107.146978 
L 268.86925 117.051143 
L 269.275576 96.929036 
L 269.681902 114.100006 
L 270.088228 92.700957 
L 270.494555 105.054583 
L 270.900881 98.040736 
L 271.307207 116.419728 
L 271.713533 106.65739 
L 272.119859 103.241346 
L 272.526185 97.777082 
L 272.932511 102.145595 
L 273.338837 93.299273 
L 273.745163 97.825433 
L 274.151489 100.123701 
L 274.557815 96.637726 
L 274.964142 83.983993 
L 275.370468 97.844293 
L 275.776794 95.273827 
L 276.18312 105.772131 
L 276.589446 98.327742 
L 276.995772 97.21465 
L 277.402098 106.024266 
L 277.808424 102.833462 
L 278.21475 112.885465 
L 278.621076 110.019702 
L 279.027402 94.212694 
L 279.433729 115.950265 
L 279.840055 93.135676 
L 280.246381 95.626083 
L 280.652707 99.492097 
L 281.059033 87.788999 
L 281.465359 109.777946 
L 281.871685 89.066194 
L 282.278011 92.193458 
L 282.684337 102.432285 
L 283.090663 101.189518 
L 283.496989 103.2859 
L 283.903316 112.551246 
L 284.309642 97.486278 
L 284.715968 102.486142 
L 285.122294 117.015006 
L 285.52862 97.171425 
L 285.934946 101.399821 
L 286.341272 103.616259 
L 287.153924 92.979926 
L 287.56025 113.099755 
L 287.966576 92.092959 
L 288.372902 112.328792 
L 288.779229 90.997714 
L 289.185555 84.196321 
L 289.591881 99.430266 
L 289.998207 98.340969 
L 290.404533 102.259448 
L 290.810859 115.083423 
L 291.623511 96.738479 
L 292.029837 100.396025 
L 292.436163 90.248016 
L 292.842489 108.953 
L 293.248816 97.394069 
L 293.655142 112.620925 
L 294.467794 91.023155 
L 294.87412 104.99484 
L 295.280446 95.127698 
L 295.686772 102.279447 
L 296.093098 98.38565 
L 296.499424 98.794547 
L 296.90575 93.478565 
L 297.312076 97.670127 
L 297.718403 99.062378 
L 298.124729 95.236741 
L 298.531055 114.062414 
L 298.937381 100.499943 
L 299.343707 113.731676 
L 299.750033 108.507522 
L 300.156359 99.727145 
L 300.562685 87.85507 
L 300.969011 108.183809 
L 301.375337 95.309268 
L 301.781663 100.324701 
L 302.18799 89.761908 
L 302.594316 84.420484 
L 303.000642 103.737074 
L 303.406968 96.124911 
L 303.813294 101.378936 
L 304.21962 109.770415 
L 304.625946 109.29861 
L 305.032272 96.930871 
L 305.438598 100.097184 
L 305.844924 110.65542 
L 306.657577 101.561709 
L 307.063903 90.376615 
L 307.470229 106.792761 
L 307.876555 95.322558 
L 308.282881 98.477543 
L 308.689207 105.954651 
L 309.095533 109.540999 
L 309.501859 115.824008 
L 309.908185 105.753271 
L 310.314511 84.283531 
L 310.720837 112.657822 
L 311.127163 104.878265 
L 311.53349 100.064085 
L 311.939816 97.862203 
L 312.346142 89.492622 
L 312.752468 114.111271 
L 313.158794 87.369469 
L 313.56512 102.552467 
L 313.971446 90.447876 
L 314.377772 107.060401 
L 315.190424 96.422677 
L 315.59675 100.091805 
L 316.003077 93.236682 
L 316.409403 98.828722 
L 316.815729 110.32791 
L 317.222055 92.106186 
L 317.628381 113.155637 
L 318.034707 113.521753 
L 318.441033 95.451601 
L 318.847359 105.551259 
L 319.253685 101.878777 
L 319.660011 102.315267 
L 320.066337 105.136856 
L 320.472664 96.772717 
L 320.87899 118.841153 
L 321.285316 105.784472 
L 321.691642 86.601797 
L 322.097968 113.586495 
L 322.504294 108.186467 
L 322.91062 89.498634 
L 323.723272 102.907887 
L 324.129598 100.086425 
L 324.535924 94.603618 
L 324.942251 106.564294 
L 325.348577 105.119452 
L 325.754903 106.777002 
L 326.161229 95.581466 
L 326.567555 102.563859 
L 326.973881 104.268495 
L 327.380207 114.716865 
L 327.786533 90.637167 
L 328.192859 97.350654 
L 328.599185 107.405505 
L 329.005511 98.578929 
L 329.411838 115.826413 
L 329.818164 93.377116 
L 330.22449 78.941853 
L 330.630816 103.298241 
L 331.037142 97.011562 
L 331.443468 120.831656 
L 331.849794 98.861315 
L 332.25612 94.44078 
L 333.068772 106.152233 
L 333.475098 100.154269 
L 333.881425 102.834411 
L 334.287751 102.341152 
L 334.694077 98.041938 
L 335.100403 105.028572 
L 335.506729 86.534144 
L 335.913055 98.766195 
L 336.319381 101.976619 
L 336.725707 100.03858 
L 337.132033 96.765756 
L 337.538359 94.983973 
L 337.944685 94.59577 
L 338.351011 91.318832 
L 338.757338 105.91845 
L 339.163664 111.10729 
L 339.56999 95.003339 
L 339.976316 103.090154 
L 340.382642 99.608482 
L 340.788968 110.96078 
L 341.195294 94.905877 
L 342.007946 113.01014 
L 342.414272 107.807884 
L 342.820598 95.167569 
L 343.226925 103.707772 
L 343.633251 102.060474 
L 344.039577 104.573665 
L 344.445903 107.886487 
L 344.852229 98.644621 
L 345.258555 103.209703 
L 346.071207 100.028075 
L 346.477533 93.477046 
L 346.883859 94.534066 
L 347.290185 96.500267 
L 347.696512 101.875739 
L 348.102838 98.322236 
L 348.509164 87.65078 
L 348.91549 96.181553 
L 349.321816 97.065609 
L 349.728142 98.503174 
L 350.134468 101.956873 
L 350.540794 101.742267 
L 350.94712 101.134458 
L 351.353446 92.680515 
L 351.759772 92.668238 
L 352.166099 99.907893 
L 352.572425 97.973462 
L 352.978751 112.862618 
L 353.385077 105.153627 
L 353.791403 118.255495 
L 354.197729 110.004956 
L 354.604055 105.346779 
L 355.010381 121.821782 
L 355.416707 103.411272 
L 355.823033 102.926936 
L 356.229359 94.545331 
L 356.635686 96.306292 
L 357.042012 105.098314 
L 357.448338 118.13449 
L 357.854664 93.563243 
L 358.26099 95.29737 
L 358.667316 109.758327 
L 359.073642 98.076493 
L 359.479968 101.691384 
L 359.886294 100.19857 
L 360.29262 95.08346 
L 360.698946 95.100737 
L 361.105272 94.934419 
L 361.511599 103.27261 
L 361.917925 91.589384 
L 362.324251 96.391603 
L 362.730577 98.25876 
L 363.136903 108.756747 
L 363.543229 110.60593 
L 363.949555 98.252431 
L 364.355881 110.594981 
L 364.762207 98.532729 
L 365.168533 102.089143 
L 365.574859 94.416731 
L 365.981186 95.637032 
L 366.387512 95.043146 
L 366.793838 104.768146 
L 367.200164 104.773398 
L 367.60649 93.139853 
L 368.419142 105.935095 
L 368.825468 85.472504 
L 369.231794 88.426932 
L 370.044446 100.762457 
L 370.450773 99.003964 
L 370.857099 98.278632 
L 371.263425 104.466773 
L 372.076077 95.459701 
L 372.482403 106.504741 
L 372.888729 100.162813 
L 373.295055 100.061997 
L 373.701381 109.763137 
L 374.107707 90.565463 
L 374.514033 88.659005 
L 374.92036 110.862179 
L 375.326686 97.236674 
L 375.733012 94.390214 
L 376.139338 97.620573 
L 376.545664 97.117188 
L 376.95199 88.275992 
L 377.358316 104.025916 
L 377.764642 94.674563 
L 378.170968 89.381237 
L 378.577294 99.145917 
L 378.98362 81.609338 
L 379.389947 95.367872 
L 379.796273 88.665081 
L 380.202599 97.751134 
L 380.608925 99.434316 
L 381.015251 84.924438 
L 381.421577 86.196444 
L 381.827903 97.584753 
L 382.234229 100.215847 
L 382.640555 101.276221 
L 383.046881 88.450348 
L 383.453207 85.816216 
L 383.859534 96.546086 
L 384.26586 83.767995 
L 384.672186 102.034779 
L 385.078512 103.903708 
L 385.484838 90.16068 
L 385.891164 97.121998 
L 386.29749 95.725887 
L 386.703816 96.543175 
L 387.110142 94.249211 
L 387.516468 90.966893 
L 387.922794 95.576529 
L 388.32912 102.269195 
L 388.735447 92.737727 
L 389.141773 99.216545 
L 389.548099 93.677159 
L 389.954425 93.48502 
L 390.360751 87.740078 
L 390.767077 105.633975 
L 391.173403 102.640246 
L 391.579729 94.030744 
L 391.986055 92.123716 
L 392.392381 105.129958 
L 392.798707 93.209215 
L 393.205034 87.975569 
L 393.61136 102.908647 
L 394.017686 93.424961 
L 394.424012 100.398051 
L 394.830338 97.859229 
L 395.236664 101.060476 
L 395.64299 99.977888 
L 396.049316 101.315902 
L 396.455642 91.799244 
L 396.861968 99.507982 
L 397.268294 97.313505 
L 397.674621 96.10795 
L 398.487273 95.092067 
L 398.487273 95.092067 
" clip-path="url(#pa75e8c3da3)" style="fill: none; stroke: #ff7f0e; stroke-width: 1.5; stroke-linecap: square"/>
   </g>
   <g id="patch_3">
    <path d="M 57.6 307.584 
L 57.6 41.472 
" style="fill: none; stroke: #000000; stroke-width: 0.8; stroke-linejoin: miter; stroke-linecap: square"/>
   </g>
   <g id="patch_4">
    <path d="M 414.72 307.584 
L 414.72 41.472 
" style="fill: none; stroke: #000000; stroke-width: 0.8; stroke-linejoin: miter; stroke-linecap: square"/>
   </g>
   <g id="patch_5">
    <path d="M 57.6 307.584 
L 414.72 307.584 
" style="fill: none; stroke: #000000; stroke-width: 0.8; stroke-linejoin: miter; stroke-linecap: square"/>
   </g>
   <g id="patch_6">
    <path d="M 57.6 41.472 
L 414.72 41.472 
" style="fill: none; stroke: #000000; stroke-width: 0.8; stroke-linejoin: miter; stroke-linecap: square"/>
   </g>
   <g id="text_17">
    <!-- Model balanced accuracy -->
    <g transform="translate(159.826875 35.472) scale(0.12 -0.12)">
     <defs>
      <path id="DejaVuSans-4d" d="M 628 4666 
L 1569 4666 
L 2759 1491 
L 3956 4666 
L 4897 4666 
L 4897 0 
L 4281 0 
L 4281 4097 
L 3078 897 
L 2444 897 
L 1241 4097 
L 1241 0 
L 628 0 
L 628 4666 
z
" transform="scale(0.015625)"/>
      <path id="DejaVuSans-62" d="M 3116 1747 
Q 3116 2381 2855 2742 
Q 2594 3103 2138 3103 
Q 1681 3103 1420 2742 
Q 1159 2381 1159 1747 
Q 1159 1113 1420 752 
Q 1681 391 2138 391 
Q 2594 391 2855 752 
Q 3116 1113 3116 1747 
z
M 1159 2969 
Q 1341 3281 1617 3432 
Q 1894 3584 2278 3584 
Q 2916 3584 3314 3078 
Q 3713 2572 3713 1747 
Q 3713 922 3314 415 
Q 2916 -91 2278 -91 
Q 1894 -91 1617 61 
Q 1341 213 1159 525 
L 1159 0 
L 581 0 
L 581 4863 
L 1159 4863 
L 1159 2969 
z
" transform="scale(0.015625)"/>
     </defs>
     <use xlink:href="#DejaVuSans-4d"/>
     <use xlink:href="#DejaVuSans-6f" x="86.279297"/>
     <use xlink:href="#DejaVuSans-64" x="147.460938"/>
     <use xlink:href="#DejaVuSans-65" x="210.9375"/>
     <use xlink:href="#DejaVuSans-6c" x="272.460938"/>
     <use xlink:href="#DejaVuSans-20" x="300.244141"/>
     <use xlink:href="#DejaVuSans-62" x="332.03125"/>
     <use xlink:href="#DejaVuSans-61" x="395.507812"/>
     <use xlink:href="#DejaVuSans-6c" x="456.787109"/>
     <use xlink:href="#DejaVuSans-61" x="484.570312"/>
     <use xlink:href="#DejaVuSans-6e" x="545.849609"/>
     <use xlink:href="#DejaVuSans-63" x="609.228516"/>
     <use xlink:href="#DejaVuSans-65" x="664.208984"/>
     <use xlink:href="#DejaVuSans-64" x="725.732422"/>
     <use xlink:href="#DejaVuSans-20" x="789.208984"/>
     <use xlink:href="#DejaVuSans-61" x="820.996094"/>
     <use xlink:href="#DejaVuSans-63" x="882.275391"/>
     <use xlink:href="#DejaVuSans-63" x="937.255859"/>
     <use xlink:href="#DejaVuSans-75" x="992.236328"/>
     <use xlink:href="#DejaVuSans-72" x="1055.615234"/>
     <use xlink:href="#DejaVuSans-61" x="1096.728516"/>
     <use xlink:href="#DejaVuSans-63" x="1158.007812"/>
     <use xlink:href="#DejaVuSans-79" x="1212.988281"/>
    </g>
   </g>
   <g id="legend_1">
    <g id="patch_7">
     <path d="M 64.6 78.82825 
L 120.5875 78.82825 
Q 122.5875 78.82825 122.5875 76.82825 
L 122.5875 48.472 
Q 122.5875 46.472 120.5875 46.472 
L 64.6 46.472 
Q 62.6 46.472 62.6 48.472 
L 62.6 76.82825 
Q 62.6 78.82825 64.6 78.82825 
z
" style="fill: #ffffff; opacity: 0.8; stroke: #cccccc; stroke-linejoin: miter"/>
    </g>
    <g id="line2d_17">
     <path d="M 66.6 54.570437 
L 76.6 54.570437 
L 86.6 54.570437 
" style="fill: none; stroke: #1f77b4; stroke-width: 1.5; stroke-linecap: square"/>
    </g>
    <g id="text_18">
     <!-- Train -->
     <g transform="translate(94.6 58.070437) scale(0.1 -0.1)">
      <defs>
       <path id="DejaVuSans-54" d="M -19 4666 
L 3928 4666 
L 3928 4134 
L 2272 4134 
L 2272 0 
L 1638 0 
L 1638 4134 
L -19 4134 
L -19 4666 
z
" transform="scale(0.015625)"/>
       <path id="DejaVuSans-69" d="M 603 3500 
L 1178 3500 
L 1178 0 
L 603 0 
L 603 3500 
z
M 603 4863 
L 1178 4863 
L 1178 4134 
L 603 4134 
L 603 4863 
z
" transform="scale(0.015625)"/>
      </defs>
      <use xlink:href="#DejaVuSans-54"/>
      <use xlink:href="#DejaVuSans-72" x="46.333984"/>
      <use xlink:href="#DejaVuSans-61" x="87.447266"/>
      <use xlink:href="#DejaVuSans-69" x="148.726562"/>
      <use xlink:href="#DejaVuSans-6e" x="176.509766"/>
     </g>
    </g>
    <g id="line2d_18">
     <path d="M 66.6 69.248562 
L 76.6 69.248562 
L 86.6 69.248562 
" style="fill: none; stroke: #ff7f0e; stroke-width: 1.5; stroke-linecap: square"/>
    </g>
    <g id="text_19">
     <!-- Test -->
     <g transform="translate(94.6 72.748562) scale(0.1 -0.1)">
      <defs>
       <path id="DejaVuSans-73" d="M 2834 3397 
L 2834 2853 
Q 2591 2978 2328 3040 
Q 2066 3103 1784 3103 
Q 1356 3103 1142 2972 
Q 928 2841 928 2578 
Q 928 2378 1081 2264 
Q 1234 2150 1697 2047 
L 1894 2003 
Q 2506 1872 2764 1633 
Q 3022 1394 3022 966 
Q 3022 478 2636 193 
Q 2250 -91 1575 -91 
Q 1294 -91 989 -36 
Q 684 19 347 128 
L 347 722 
Q 666 556 975 473 
Q 1284 391 1588 391 
Q 1994 391 2212 530 
Q 2431 669 2431 922 
Q 2431 1156 2273 1281 
Q 2116 1406 1581 1522 
L 1381 1569 
Q 847 1681 609 1914 
Q 372 2147 372 2553 
Q 372 3047 722 3315 
Q 1072 3584 1716 3584 
Q 2034 3584 2315 3537 
Q 2597 3491 2834 3397 
z
" transform="scale(0.015625)"/>
       <path id="DejaVuSans-74" d="M 1172 4494 
L 1172 3500 
L 2356 3500 
L 2356 3053 
L 1172 3053 
L 1172 1153 
Q 1172 725 1289 603 
Q 1406 481 1766 481 
L 2356 481 
L 2356 0 
L 1766 0 
Q 1100 0 847 248 
Q 594 497 594 1153 
L 594 3053 
L 172 3053 
L 172 3500 
L 594 3500 
L 594 4494 
L 1172 4494 
z
" transform="scale(0.015625)"/>
      </defs>
      <use xlink:href="#DejaVuSans-54"/>
      <use xlink:href="#DejaVuSans-65" x="44.083984"/>
      <use xlink:href="#DejaVuSans-73" x="105.607422"/>
      <use xlink:href="#DejaVuSans-74" x="157.707031"/>
     </g>
    </g>
   </g>
  </g>
 </g>
 <defs>
  <clipPath id="pa75e8c3da3">
   <rect x="57.6" y="41.472" width="357.12" height="266.112"/>
  </clipPath>
 </defs>
</svg>
