<?xml version="1.0" encoding="utf-8" standalone="no"?>
<!DOCTYPE svg PUBLIC "-//W3C//DTD SVG 1.1//EN"
  "http://www.w3.org/Graphics/SVG/1.1/DTD/svg11.dtd">
<svg xmlns:xlink="http://www.w3.org/1999/xlink" width="818.340937pt" height="447.954375pt" viewBox="0 0 818.340937 447.954375" xmlns="http://www.w3.org/2000/svg" version="1.1">
 <metadata>
  <rdf:RDF xmlns:dc="http://purl.org/dc/elements/1.1/" xmlns:cc="http://creativecommons.org/ns#" xmlns:rdf="http://www.w3.org/1999/02/22-rdf-syntax-ns#">
   <cc:Work>
    <dc:type rdf:resource="http://purl.org/dc/dcmitype/StillImage"/>
    <dc:date>2023-07-26T17:35:44.624728</dc:date>
    <dc:format>image/svg+xml</dc:format>
    <dc:creator>
     <cc:Agent>
      <dc:title>Matplotlib v3.7.2, https://matplotlib.org/</dc:title>
     </cc:Agent>
    </dc:creator>
   </cc:Work>
  </rdf:RDF>
 </metadata>
 <defs>
  <style type="text/css">*{stroke-linejoin: round; stroke-linecap: butt}</style>
 </defs>
 <g id="figure_1">
  <g id="patch_1">
   <path d="M 0 447.954375 
L 818.340937 447.954375 
L 818.340937 0 
L 0 0 
z
" style="fill: #ffffff"/>
  </g>
  <g id="axes_1">
   <g id="patch_2">
    <path d="M 43.78125 410.398125 
L 601.78125 410.398125 
L 601.78125 22.318125 
L 43.78125 22.318125 
z
" style="fill: #ffffff"/>
   </g>
   <g id="patch_3">
    <path d="M 43.78125 26.198925 
L 43.78125 22.318125 
L 53.745536 22.318125 
L 53.745536 26.198925 
z
" clip-path="url(#pe503ce1063)" style="fill: #808080"/>
   </g>
   <g id="patch_4">
    <path d="M 53.745536 26.198925 
L 53.745536 22.318125 
L 63.709821 22.318125 
L 63.709821 26.198925 
z
" clip-path="url(#pe503ce1063)" style="fill: #808080"/>
   </g>
   <g id="patch_5">
    <path d="M 63.709821 26.198925 
L 63.709821 22.318125 
L 73.674107 22.318125 
L 73.674107 26.198925 
z
" clip-path="url(#pe503ce1063)" style="fill: #808080"/>
   </g>
   <g id="patch_6">
    <path d="M 73.674107 26.198925 
L 73.674107 22.318125 
L 83.638393 22.318125 
L 83.638393 26.198925 
z
" clip-path="url(#pe503ce1063)" style="fill: #808080"/>
   </g>
   <g id="patch_7">
    <path d="M 83.638393 26.198925 
L 83.638393 22.318125 
L 93.602679 22.318125 
L 93.602679 26.198925 
z
" clip-path="url(#pe503ce1063)" style="fill: #808080"/>
   </g>
   <g id="patch_8">
    <path d="M 93.602679 26.198925 
L 93.602679 22.318125 
L 103.566964 22.318125 
L 103.566964 26.198925 
z
" clip-path="url(#pe503ce1063)" style="fill: #808080"/>
   </g>
   <g id="patch_9">
    <path d="M 103.566964 26.198925 
L 103.566964 22.318125 
L 113.53125 22.318125 
L 113.53125 26.198925 
z
" clip-path="url(#pe503ce1063)" style="fill: #808080"/>
   </g>
   <g id="patch_10">
    <path d="M 113.53125 26.198925 
L 113.53125 22.318125 
L 123.495536 22.318125 
L 123.495536 26.198925 
z
" clip-path="url(#pe503ce1063)" style="fill: #808080"/>
   </g>
   <g id="patch_11">
    <path d="M 123.495536 26.198925 
L 123.495536 22.318125 
L 133.459821 22.318125 
L 133.459821 26.198925 
z
" clip-path="url(#pe503ce1063)" style="fill: #808080"/>
   </g>
   <g id="patch_12">
    <path d="M 133.459821 26.198925 
L 133.459821 22.318125 
L 143.424107 22.318125 
L 143.424107 26.198925 
z
" clip-path="url(#pe503ce1063)" style="fill: #808080"/>
   </g>
   <g id="patch_13">
    <path d="M 143.424107 26.198925 
L 143.424107 22.318125 
L 153.388393 22.318125 
L 153.388393 26.198925 
z
" clip-path="url(#pe503ce1063)" style="fill: #808080"/>
   </g>
   <g id="patch_14">
    <path d="M 153.388393 26.198925 
L 153.388393 22.318125 
L 163.352679 22.318125 
L 163.352679 26.198925 
z
" clip-path="url(#pe503ce1063)" style="fill: #808080"/>
   </g>
   <g id="patch_15">
    <path d="M 163.352679 26.198925 
L 163.352679 22.318125 
L 173.316964 22.318125 
L 173.316964 26.198925 
z
" clip-path="url(#pe503ce1063)" style="fill: #808080"/>
   </g>
   <g id="patch_16">
    <path d="M 173.316964 26.198925 
L 173.316964 22.318125 
L 183.28125 22.318125 
L 183.28125 26.198925 
z
" clip-path="url(#pe503ce1063)" style="fill: #808080"/>
   </g>
   <g id="patch_17">
    <path d="M 183.28125 26.198925 
L 183.28125 22.318125 
L 193.245536 22.318125 
L 193.245536 26.198925 
z
" clip-path="url(#pe503ce1063)" style="fill: #808080"/>
   </g>
   <g id="patch_18">
    <path d="M 193.245536 26.198925 
L 193.245536 22.318125 
L 203.209821 22.318125 
L 203.209821 26.198925 
z
" clip-path="url(#pe503ce1063)" style="fill: #808080"/>
   </g>
   <g id="patch_19">
    <path d="M 203.209821 26.198925 
L 203.209821 22.318125 
L 213.174107 22.318125 
L 213.174107 26.198925 
z
" clip-path="url(#pe503ce1063)" style="fill: #808080"/>
   </g>
   <g id="patch_20">
    <path d="M 213.174107 26.198925 
L 213.174107 22.318125 
L 223.138393 22.318125 
L 223.138393 26.198925 
z
" clip-path="url(#pe503ce1063)" style="fill: #808080"/>
   </g>
   <g id="patch_21">
    <path d="M 223.138393 26.198925 
L 223.138393 22.318125 
L 233.102679 22.318125 
L 233.102679 26.198925 
z
" clip-path="url(#pe503ce1063)" style="fill: #808080"/>
   </g>
   <g id="patch_22">
    <path d="M 233.102679 26.198925 
L 233.102679 22.318125 
L 243.066964 22.318125 
L 243.066964 26.198925 
z
" clip-path="url(#pe503ce1063)" style="fill: #808080"/>
   </g>
   <g id="patch_23">
    <path d="M 243.066964 26.198925 
L 243.066964 22.318125 
L 253.03125 22.318125 
L 253.03125 26.198925 
z
" clip-path="url(#pe503ce1063)" style="fill: #808080"/>
   </g>
   <g id="patch_24">
    <path d="M 253.03125 26.198925 
L 253.03125 22.318125 
L 262.995536 22.318125 
L 262.995536 26.198925 
z
" clip-path="url(#pe503ce1063)" style="fill: #808080"/>
   </g>
   <g id="patch_25">
    <path d="M 262.995536 26.198925 
L 262.995536 22.318125 
L 272.959821 22.318125 
L 272.959821 26.198925 
z
" clip-path="url(#pe503ce1063)" style="fill: #808080"/>
   </g>
   <g id="patch_26">
    <path d="M 272.959821 26.198925 
L 272.959821 22.318125 
L 282.924107 22.318125 
L 282.924107 26.198925 
z
" clip-path="url(#pe503ce1063)" style="fill: #808080"/>
   </g>
   <g id="patch_27">
    <path d="M 282.924107 26.198925 
L 282.924107 22.318125 
L 292.888393 22.318125 
L 292.888393 26.198925 
z
" clip-path="url(#pe503ce1063)" style="fill: #808080"/>
   </g>
   <g id="patch_28">
    <path d="M 292.888393 26.198925 
L 292.888393 22.318125 
L 302.852679 22.318125 
L 302.852679 26.198925 
z
" clip-path="url(#pe503ce1063)" style="fill: #808080"/>
   </g>
   <g id="patch_29">
    <path d="M 302.852679 26.198925 
L 302.852679 22.318125 
L 312.816964 22.318125 
L 312.816964 26.198925 
z
" clip-path="url(#pe503ce1063)" style="fill: #808080"/>
   </g>
   <g id="patch_30">
    <path d="M 312.816964 26.198925 
L 312.816964 22.318125 
L 322.78125 22.318125 
L 322.78125 26.198925 
z
" clip-path="url(#pe503ce1063)" style="fill: #808080"/>
   </g>
   <g id="patch_31">
    <path d="M 322.78125 26.198925 
L 322.78125 22.318125 
L 332.745536 22.318125 
L 332.745536 26.198925 
z
" clip-path="url(#pe503ce1063)" style="fill: #808080"/>
   </g>
   <g id="patch_32">
    <path d="M 332.745536 26.198925 
L 332.745536 22.318125 
L 342.709821 22.318125 
L 342.709821 26.198925 
z
" clip-path="url(#pe503ce1063)" style="fill: #808080"/>
   </g>
   <g id="patch_33">
    <path d="M 342.709821 26.198925 
L 342.709821 22.318125 
L 352.674107 22.318125 
L 352.674107 26.198925 
z
" clip-path="url(#pe503ce1063)" style="fill: #808080"/>
   </g>
   <g id="patch_34">
    <path d="M 352.674107 26.198925 
L 352.674107 22.318125 
L 362.638393 22.318125 
L 362.638393 26.198925 
z
" clip-path="url(#pe503ce1063)" style="fill: #808080"/>
   </g>
   <g id="patch_35">
    <path d="M 362.638393 26.198925 
L 362.638393 22.318125 
L 372.602679 22.318125 
L 372.602679 26.198925 
z
" clip-path="url(#pe503ce1063)" style="fill: #808080"/>
   </g>
   <g id="patch_36">
    <path d="M 372.602679 26.198925 
L 372.602679 22.318125 
L 382.566964 22.318125 
L 382.566964 26.198925 
z
" clip-path="url(#pe503ce1063)" style="fill: #808080"/>
   </g>
   <g id="patch_37">
    <path d="M 382.566964 26.198925 
L 382.566964 22.318125 
L 392.53125 22.318125 
L 392.53125 26.198925 
z
" clip-path="url(#pe503ce1063)" style="fill: #808080"/>
   </g>
   <g id="patch_38">
    <path d="M 392.53125 26.198925 
L 392.53125 22.318125 
L 402.495536 22.318125 
L 402.495536 26.198925 
z
" clip-path="url(#pe503ce1063)" style="fill: #808080"/>
   </g>
   <g id="patch_39">
    <path d="M 402.495536 26.198925 
L 402.495536 22.318125 
L 412.459821 22.318125 
L 412.459821 26.198925 
z
" clip-path="url(#pe503ce1063)" style="fill: #808080"/>
   </g>
   <g id="patch_40">
    <path d="M 412.459821 26.198925 
L 412.459821 22.318125 
L 422.424107 22.318125 
L 422.424107 26.198925 
z
" clip-path="url(#pe503ce1063)" style="fill: #808080"/>
   </g>
   <g id="patch_41">
    <path d="M 422.424107 26.198925 
L 422.424107 22.318125 
L 432.388393 22.318125 
L 432.388393 26.198925 
z
" clip-path="url(#pe503ce1063)" style="fill: #808080"/>
   </g>
   <g id="patch_42">
    <path d="M 432.388393 26.198925 
L 432.388393 22.318125 
L 442.352679 22.318125 
L 442.352679 26.198925 
z
" clip-path="url(#pe503ce1063)" style="fill: #808080"/>
   </g>
   <g id="patch_43">
    <path d="M 442.352679 26.198925 
L 442.352679 22.318125 
L 452.316964 22.318125 
L 452.316964 26.198925 
z
" clip-path="url(#pe503ce1063)" style="fill: #808080"/>
   </g>
   <g id="patch_44">
    <path d="M 452.316964 26.198925 
L 452.316964 22.318125 
L 462.28125 22.318125 
L 462.28125 26.198925 
z
" clip-path="url(#pe503ce1063)" style="fill: #808080"/>
   </g>
   <g id="patch_45">
    <path d="M 462.28125 26.198925 
L 462.28125 22.318125 
L 472.245536 22.318125 
L 472.245536 26.198925 
z
" clip-path="url(#pe503ce1063)" style="fill: #808080"/>
   </g>
   <g id="patch_46">
    <path d="M 472.245536 26.198925 
L 472.245536 22.318125 
L 482.209821 22.318125 
L 482.209821 26.198925 
z
" clip-path="url(#pe503ce1063)" style="fill: #808080"/>
   </g>
   <g id="patch_47">
    <path d="M 482.209821 26.198925 
L 482.209821 22.318125 
L 492.174107 22.318125 
L 492.174107 26.198925 
z
" clip-path="url(#pe503ce1063)" style="fill: #ffff00"/>
   </g>
   <g id="patch_48">
    <path d="M 492.174107 26.198925 
L 492.174107 22.318125 
L 502.138393 22.318125 
L 502.138393 26.198925 
z
" clip-path="url(#pe503ce1063)" style="fill: #ffff00"/>
   </g>
   <g id="patch_49">
    <path d="M 502.138393 26.198925 
L 502.138393 22.318125 
L 512.102679 22.318125 
L 512.102679 26.198925 
z
" clip-path="url(#pe503ce1063)" style="fill: #ffff00"/>
   </g>
   <g id="patch_50">
    <path d="M 512.102679 26.198925 
L 512.102679 22.318125 
L 522.066964 22.318125 
L 522.066964 26.198925 
z
" clip-path="url(#pe503ce1063)" style="fill: #ffff00"/>
   </g>
   <g id="patch_51">
    <path d="M 522.066964 26.198925 
L 522.066964 22.318125 
L 532.03125 22.318125 
L 532.03125 26.198925 
z
" clip-path="url(#pe503ce1063)" style="fill: #ffff00"/>
   </g>
   <g id="patch_52">
    <path d="M 532.03125 26.198925 
L 532.03125 22.318125 
L 541.995536 22.318125 
L 541.995536 26.198925 
z
" clip-path="url(#pe503ce1063)" style="fill: #ffff00"/>
   </g>
   <g id="patch_53">
    <path d="M 541.995536 26.198925 
L 541.995536 22.318125 
L 551.959821 22.318125 
L 551.959821 26.198925 
z
" clip-path="url(#pe503ce1063)" style="fill: #ffff00"/>
   </g>
   <g id="patch_54">
    <path d="M 551.959821 26.198925 
L 551.959821 22.318125 
L 561.924107 22.318125 
L 561.924107 26.198925 
z
" clip-path="url(#pe503ce1063)" style="fill: #ffff00"/>
   </g>
   <g id="patch_55">
    <path d="M 561.924107 26.198925 
L 561.924107 22.318125 
L 571.888393 22.318125 
L 571.888393 26.198925 
z
" clip-path="url(#pe503ce1063)" style="fill: #ffff00"/>
   </g>
   <g id="patch_56">
    <path d="M 571.888393 26.198925 
L 571.888393 22.318125 
L 581.852679 22.318125 
L 581.852679 26.198925 
z
" clip-path="url(#pe503ce1063)" style="fill: #ffff00"/>
   </g>
   <g id="patch_57">
    <path d="M 581.852679 26.198925 
L 581.852679 22.318125 
L 591.816964 22.318125 
L 591.816964 26.198925 
z
" clip-path="url(#pe503ce1063)" style="fill: #ffff00"/>
   </g>
   <g id="patch_58">
    <path d="M 591.816964 26.198925 
L 591.816964 22.318125 
L 601.78125 22.318125 
L 601.78125 26.198925 
z
" clip-path="url(#pe503ce1063)" style="fill: #ffff00"/>
   </g>
   <g id="LineCollection_1">
    <path d="M 53.745536 216.358125 
L 601.78125 216.358125 
" clip-path="url(#pe503ce1063)" style="fill: none; stroke-dasharray: 1,1.65; stroke-dashoffset: 0; stroke: #000000"/>
   </g>
   <g id="LineCollection_2">
    <path d="M 472.245536 410.398125 
L 472.245536 22.318125 
" clip-path="url(#pe503ce1063)" style="fill: none; stroke-dasharray: 3.7,1.6; stroke-dashoffset: 0; stroke: #ff0000"/>
   </g>
   <g id="line2d_1">
    <path d="M 53.745536 290.697996 
L 63.709821 290.514666 
L 73.674107 284.869876 
L 83.638393 288.239947 
L 93.602679 282.192764 
L 103.566964 281.786242 
L 113.53125 260.97037 
L 123.495536 239.163351 
L 133.459821 244.047751 
L 143.424107 220.91373 
L 153.388393 192.630024 
L 163.352679 181.43636 
L 173.316964 174.216916 
L 183.28125 154.03089 
L 193.245536 157.577311 
L 203.209821 157.698996 
L 213.174107 166.291431 
L 223.138393 167.623381 
L 233.102679 160.612851 
L 243.066964 156.493255 
L 253.03125 155.898109 
L 262.995536 155.267887 
L 272.959821 155.155603 
L 282.924107 154.824556 
L 292.888393 154.586715 
L 302.852679 154.846253 
L 312.816964 155.070478 
L 322.78125 155.176787 
L 332.745536 155.0948 
L 342.709821 155.645065 
L 352.674107 155.822767 
L 362.638393 156.112278 
L 372.602679 156.228121 
L 382.566964 157.18475 
L 392.53125 157.445419 
L 402.495536 157.86011 
L 412.459821 157.725853 
L 422.424107 158.779108 
L 432.388393 159.068578 
L 442.352679 159.480099 
L 452.316964 159.981532 
L 462.28125 160.086609 
L 472.245536 160.133985 
L 482.209821 159.291796 
L 492.174107 232.333271 
L 502.138393 241.322927 
L 512.102679 223.065272 
L 522.066964 223.800011 
L 532.03125 222.894544 
L 541.995536 224.197782 
L 551.959821 222.629119 
L 561.924107 217.906084 
L 571.888393 219.152121 
L 581.852679 217.581351 
L 591.816964 212.990828 
L 601.78125 200.131183 
" clip-path="url(#pe503ce1063)" style="fill: none; stroke-dasharray: 3.7,1.6; stroke-dashoffset: 0; stroke: #1f77b4"/>
   </g>
   <g id="LineCollection_3">
    <path d="M 53.745536 216.358125 
L 601.78125 216.358125 
" clip-path="url(#pe503ce1063)" style="fill: none; stroke-dasharray: 1,1.65; stroke-dashoffset: 0; stroke: #000000"/>
   </g>
   <g id="LineCollection_4">
    <path d="M 472.245536 410.398125 
L 472.245536 22.318125 
" clip-path="url(#pe503ce1063)" style="fill: none; stroke-dasharray: 3.7,1.6; stroke-dashoffset: 0; stroke: #ff0000"/>
   </g>
   <g id="line2d_2">
    <path d="M 53.745536 384.415359 
L 63.709821 380.239308 
L 73.674107 382.697754 
L 83.638393 372.230696 
L 93.602679 357.759308 
L 103.566964 365.70775 
L 113.53125 349.02178 
L 123.495536 333.439315 
L 133.459821 325.451804 
L 143.424107 312.411072 
L 153.388393 283.89702 
L 163.352679 261.916134 
L 173.316964 265.305516 
L 183.28125 218.750603 
L 193.245536 198.316234 
L 203.209821 172.012558 
L 213.174107 145.138254 
L 223.138393 126.64514 
L 233.102679 117.877263 
L 243.066964 80.624399 
L 253.03125 76.869322 
L 262.995536 74.853145 
L 272.959821 72.471285 
L 282.924107 70.579648 
L 292.888393 68.759903 
L 302.852679 67.448586 
L 312.816964 66.186283 
L 322.78125 64.869415 
L 332.745536 63.387827 
L 342.709821 63.430528 
L 352.674107 62.895753 
L 362.638393 61.966589 
L 372.602679 61.212114 
L 382.566964 60.470383 
L 392.53125 60.240966 
L 402.495536 60.878582 
L 412.459821 62.209677 
L 422.424107 63.251491 
L 432.388393 64.623204 
L 442.352679 66.170207 
L 452.316964 68.309928 
L 462.28125 71.607583 
L 472.245536 75.074628 
L 482.209821 74.234728 
L 492.174107 305.61304 
L 502.138393 369.590773 
L 512.102679 318.838372 
L 522.066964 315.496155 
L 532.03125 314.999565 
L 541.995536 315.004382 
L 551.959821 314.9951 
L 561.924107 315.023164 
L 571.888393 315.071174 
L 581.852679 315.47344 
L 591.816964 315.804513 
L 601.78125 317.935942 
" clip-path="url(#pe503ce1063)" style="fill: none; stroke-dasharray: 3.7,1.6; stroke-dashoffset: 0; stroke: #ff7f0e"/>
   </g>
   <g id="LineCollection_5">
    <path d="M 43.78125 216.358125 
L 601.78125 216.358125 
" clip-path="url(#pe503ce1063)" style="fill: none; stroke-dasharray: 1,1.65; stroke-dashoffset: 0; stroke: #000000"/>
   </g>
   <g id="LineCollection_6">
    <path d="M 472.245536 410.398125 
L 472.245536 22.318125 
" clip-path="url(#pe503ce1063)" style="fill: none; stroke-dasharray: 3.7,1.6; stroke-dashoffset: 0; stroke: #ff0000"/>
   </g>
   <g id="line2d_3">
    <path d="M 43.78125 410.315177 
L 53.745536 410.31773 
L 63.709821 410.316472 
L 73.674107 410.340531 
L 83.638393 410.30631 
L 93.602679 410.25138 
L 103.566964 410.279298 
L 113.53125 410.223925 
L 123.495536 410.296126 
L 133.459821 410.083821 
L 143.424107 410.000408 
L 153.388393 409.1578 
L 163.352679 394.895255 
L 173.316964 394.393061 
L 183.28125 226.632802 
L 193.245536 86.256541 
L 203.209821 137.608646 
L 213.174107 219.147907 
L 223.138393 337.825861 
L 233.102679 91.200964 
L 243.066964 88.14649 
L 253.03125 87.165627 
L 262.995536 87.785825 
L 272.959821 88.976027 
L 282.924107 90.477785 
L 292.888393 92.353693 
L 302.852679 94.889539 
L 312.816964 97.86037 
L 322.78125 101.806142 
L 332.745536 110.40893 
L 342.709821 131.172597 
L 352.674107 158.936903 
L 362.638393 187.939455 
L 372.602679 214.464591 
L 382.566964 238.230443 
L 392.53125 257.624386 
L 402.495536 273.114031 
L 412.459821 286.396168 
L 422.424107 296.797593 
L 432.388393 406.416678 
L 442.352679 409.650038 
L 452.316964 410.169775 
L 462.28125 410.252148 
L 472.245536 410.223124 
L 482.209821 409.588319 
L 492.174107 409.794611 
L 502.138393 409.952626 
" clip-path="url(#pe503ce1063)" style="fill: none; stroke-dasharray: 3.7,1.6; stroke-dashoffset: 0; stroke: #2ca02c"/>
   </g>
   <g id="PathCollection_1">
    <defs>
     <path id="m8199288077" d="M -1.767767 3.535534 
L 0 1.767767 
L 1.767767 3.535534 
L 3.535534 1.767767 
L 1.767767 0 
L 3.535534 -1.767767 
L 1.767767 -3.535534 
L 0 -1.767767 
L -1.767767 -3.535534 
L -3.535534 -1.767767 
L -1.767767 0 
L -3.535534 1.767767 
z
" style="stroke: #ffffff; stroke-width: 0.565685"/>
    </defs>
    <g clip-path="url(#pe503ce1063)">
     <use xlink:href="#m8199288077" x="53.745536" y="290.697996" style="fill: #1f77b4; stroke: #ffffff; stroke-width: 0.565685"/>
     <use xlink:href="#m8199288077" x="63.709821" y="290.514666" style="fill: #1f77b4; stroke: #ffffff; stroke-width: 0.565685"/>
     <use xlink:href="#m8199288077" x="73.674107" y="284.869876" style="fill: #1f77b4; stroke: #ffffff; stroke-width: 0.565685"/>
     <use xlink:href="#m8199288077" x="83.638393" y="288.239947" style="fill: #1f77b4; stroke: #ffffff; stroke-width: 0.565685"/>
     <use xlink:href="#m8199288077" x="93.602679" y="282.192764" style="fill: #1f77b4; stroke: #ffffff; stroke-width: 0.565685"/>
     <use xlink:href="#m8199288077" x="103.566964" y="281.786242" style="fill: #1f77b4; stroke: #ffffff; stroke-width: 0.565685"/>
     <use xlink:href="#m8199288077" x="113.53125" y="260.97037" style="fill: #1f77b4; stroke: #ffffff; stroke-width: 0.565685"/>
     <use xlink:href="#m8199288077" x="123.495536" y="239.163351" style="fill: #1f77b4; stroke: #ffffff; stroke-width: 0.565685"/>
     <use xlink:href="#m8199288077" x="133.459821" y="244.047751" style="fill: #1f77b4; stroke: #ffffff; stroke-width: 0.565685"/>
     <use xlink:href="#m8199288077" x="143.424107" y="220.91373" style="fill: #1f77b4; stroke: #ffffff; stroke-width: 0.565685"/>
     <use xlink:href="#m8199288077" x="153.388393" y="192.630024" style="fill: #1f77b4; stroke: #ffffff; stroke-width: 0.565685"/>
     <use xlink:href="#m8199288077" x="163.352679" y="181.43636" style="fill: #1f77b4; stroke: #ffffff; stroke-width: 0.565685"/>
     <use xlink:href="#m8199288077" x="173.316964" y="174.216916" style="fill: #1f77b4; stroke: #ffffff; stroke-width: 0.565685"/>
     <use xlink:href="#m8199288077" x="183.28125" y="154.03089" style="fill: #1f77b4; stroke: #ffffff; stroke-width: 0.565685"/>
     <use xlink:href="#m8199288077" x="193.245536" y="157.577311" style="fill: #1f77b4; stroke: #ffffff; stroke-width: 0.565685"/>
     <use xlink:href="#m8199288077" x="203.209821" y="157.698996" style="fill: #1f77b4; stroke: #ffffff; stroke-width: 0.565685"/>
     <use xlink:href="#m8199288077" x="213.174107" y="166.291431" style="fill: #1f77b4; stroke: #ffffff; stroke-width: 0.565685"/>
     <use xlink:href="#m8199288077" x="223.138393" y="167.623381" style="fill: #1f77b4; stroke: #ffffff; stroke-width: 0.565685"/>
     <use xlink:href="#m8199288077" x="233.102679" y="160.612851" style="fill: #1f77b4; stroke: #ffffff; stroke-width: 0.565685"/>
     <use xlink:href="#m8199288077" x="243.066964" y="156.493255" style="fill: #1f77b4; stroke: #ffffff; stroke-width: 0.565685"/>
     <use xlink:href="#m8199288077" x="253.03125" y="155.898109" style="fill: #1f77b4; stroke: #ffffff; stroke-width: 0.565685"/>
     <use xlink:href="#m8199288077" x="262.995536" y="155.267887" style="fill: #1f77b4; stroke: #ffffff; stroke-width: 0.565685"/>
     <use xlink:href="#m8199288077" x="272.959821" y="155.155603" style="fill: #1f77b4; stroke: #ffffff; stroke-width: 0.565685"/>
     <use xlink:href="#m8199288077" x="282.924107" y="154.824556" style="fill: #1f77b4; stroke: #ffffff; stroke-width: 0.565685"/>
     <use xlink:href="#m8199288077" x="292.888393" y="154.586715" style="fill: #1f77b4; stroke: #ffffff; stroke-width: 0.565685"/>
     <use xlink:href="#m8199288077" x="302.852679" y="154.846253" style="fill: #1f77b4; stroke: #ffffff; stroke-width: 0.565685"/>
     <use xlink:href="#m8199288077" x="312.816964" y="155.070478" style="fill: #1f77b4; stroke: #ffffff; stroke-width: 0.565685"/>
     <use xlink:href="#m8199288077" x="322.78125" y="155.176787" style="fill: #1f77b4; stroke: #ffffff; stroke-width: 0.565685"/>
     <use xlink:href="#m8199288077" x="332.745536" y="155.0948" style="fill: #1f77b4; stroke: #ffffff; stroke-width: 0.565685"/>
     <use xlink:href="#m8199288077" x="342.709821" y="155.645065" style="fill: #1f77b4; stroke: #ffffff; stroke-width: 0.565685"/>
     <use xlink:href="#m8199288077" x="352.674107" y="155.822767" style="fill: #1f77b4; stroke: #ffffff; stroke-width: 0.565685"/>
     <use xlink:href="#m8199288077" x="362.638393" y="156.112278" style="fill: #1f77b4; stroke: #ffffff; stroke-width: 0.565685"/>
     <use xlink:href="#m8199288077" x="372.602679" y="156.228121" style="fill: #1f77b4; stroke: #ffffff; stroke-width: 0.565685"/>
     <use xlink:href="#m8199288077" x="382.566964" y="157.18475" style="fill: #1f77b4; stroke: #ffffff; stroke-width: 0.565685"/>
     <use xlink:href="#m8199288077" x="392.53125" y="157.445419" style="fill: #1f77b4; stroke: #ffffff; stroke-width: 0.565685"/>
     <use xlink:href="#m8199288077" x="402.495536" y="157.86011" style="fill: #1f77b4; stroke: #ffffff; stroke-width: 0.565685"/>
     <use xlink:href="#m8199288077" x="412.459821" y="157.725853" style="fill: #1f77b4; stroke: #ffffff; stroke-width: 0.565685"/>
     <use xlink:href="#m8199288077" x="422.424107" y="158.779108" style="fill: #1f77b4; stroke: #ffffff; stroke-width: 0.565685"/>
     <use xlink:href="#m8199288077" x="432.388393" y="159.068578" style="fill: #1f77b4; stroke: #ffffff; stroke-width: 0.565685"/>
     <use xlink:href="#m8199288077" x="442.352679" y="159.480099" style="fill: #1f77b4; stroke: #ffffff; stroke-width: 0.565685"/>
     <use xlink:href="#m8199288077" x="452.316964" y="159.981532" style="fill: #1f77b4; stroke: #ffffff; stroke-width: 0.565685"/>
     <use xlink:href="#m8199288077" x="462.28125" y="160.086609" style="fill: #1f77b4; stroke: #ffffff; stroke-width: 0.565685"/>
     <use xlink:href="#m8199288077" x="472.245536" y="160.133985" style="fill: #1f77b4; stroke: #ffffff; stroke-width: 0.565685"/>
     <use xlink:href="#m8199288077" x="482.209821" y="159.291796" style="fill: #1f77b4; stroke: #ffffff; stroke-width: 0.565685"/>
     <use xlink:href="#m8199288077" x="492.174107" y="232.333271" style="fill: #1f77b4; stroke: #ffffff; stroke-width: 0.565685"/>
     <use xlink:href="#m8199288077" x="502.138393" y="241.322927" style="fill: #1f77b4; stroke: #ffffff; stroke-width: 0.565685"/>
     <use xlink:href="#m8199288077" x="512.102679" y="223.065272" style="fill: #1f77b4; stroke: #ffffff; stroke-width: 0.565685"/>
     <use xlink:href="#m8199288077" x="522.066964" y="223.800011" style="fill: #1f77b4; stroke: #ffffff; stroke-width: 0.565685"/>
     <use xlink:href="#m8199288077" x="532.03125" y="222.894544" style="fill: #1f77b4; stroke: #ffffff; stroke-width: 0.565685"/>
     <use xlink:href="#m8199288077" x="541.995536" y="224.197782" style="fill: #1f77b4; stroke: #ffffff; stroke-width: 0.565685"/>
     <use xlink:href="#m8199288077" x="551.959821" y="222.629119" style="fill: #1f77b4; stroke: #ffffff; stroke-width: 0.565685"/>
     <use xlink:href="#m8199288077" x="561.924107" y="217.906084" style="fill: #1f77b4; stroke: #ffffff; stroke-width: 0.565685"/>
     <use xlink:href="#m8199288077" x="571.888393" y="219.152121" style="fill: #1f77b4; stroke: #ffffff; stroke-width: 0.565685"/>
     <use xlink:href="#m8199288077" x="581.852679" y="217.581351" style="fill: #1f77b4; stroke: #ffffff; stroke-width: 0.565685"/>
     <use xlink:href="#m8199288077" x="591.816964" y="212.990828" style="fill: #1f77b4; stroke: #ffffff; stroke-width: 0.565685"/>
     <use xlink:href="#m8199288077" x="601.78125" y="200.131183" style="fill: #1f77b4; stroke: #ffffff; stroke-width: 0.565685"/>
    </g>
   </g>
   <g id="PolyCollection_1"/>
   <g id="PathCollection_2">
    <defs>
     <path id="ma35a8662ad" d="M -1.767767 3.535534 
L 0 1.767767 
L 1.767767 3.535534 
L 3.535534 1.767767 
L 1.767767 0 
L 3.535534 -1.767767 
L 1.767767 -3.535534 
L 0 -1.767767 
L -1.767767 -3.535534 
L -3.535534 -1.767767 
L -1.767767 0 
L -3.535534 1.767767 
z
" style="stroke: #ffffff; stroke-width: 0.565685"/>
    </defs>
    <g clip-path="url(#pe503ce1063)">
     <use xlink:href="#ma35a8662ad" x="53.745536" y="384.415359" style="fill: #ff7f0e; stroke: #ffffff; stroke-width: 0.565685"/>
     <use xlink:href="#ma35a8662ad" x="63.709821" y="380.239308" style="fill: #ff7f0e; stroke: #ffffff; stroke-width: 0.565685"/>
     <use xlink:href="#ma35a8662ad" x="73.674107" y="382.697754" style="fill: #ff7f0e; stroke: #ffffff; stroke-width: 0.565685"/>
     <use xlink:href="#ma35a8662ad" x="83.638393" y="372.230696" style="fill: #ff7f0e; stroke: #ffffff; stroke-width: 0.565685"/>
     <use xlink:href="#ma35a8662ad" x="93.602679" y="357.759308" style="fill: #ff7f0e; stroke: #ffffff; stroke-width: 0.565685"/>
     <use xlink:href="#ma35a8662ad" x="103.566964" y="365.70775" style="fill: #ff7f0e; stroke: #ffffff; stroke-width: 0.565685"/>
     <use xlink:href="#ma35a8662ad" x="113.53125" y="349.02178" style="fill: #ff7f0e; stroke: #ffffff; stroke-width: 0.565685"/>
     <use xlink:href="#ma35a8662ad" x="123.495536" y="333.439315" style="fill: #ff7f0e; stroke: #ffffff; stroke-width: 0.565685"/>
     <use xlink:href="#ma35a8662ad" x="133.459821" y="325.451804" style="fill: #ff7f0e; stroke: #ffffff; stroke-width: 0.565685"/>
     <use xlink:href="#ma35a8662ad" x="143.424107" y="312.411072" style="fill: #ff7f0e; stroke: #ffffff; stroke-width: 0.565685"/>
     <use xlink:href="#ma35a8662ad" x="153.388393" y="283.89702" style="fill: #ff7f0e; stroke: #ffffff; stroke-width: 0.565685"/>
     <use xlink:href="#ma35a8662ad" x="163.352679" y="261.916134" style="fill: #ff7f0e; stroke: #ffffff; stroke-width: 0.565685"/>
     <use xlink:href="#ma35a8662ad" x="173.316964" y="265.305516" style="fill: #ff7f0e; stroke: #ffffff; stroke-width: 0.565685"/>
     <use xlink:href="#ma35a8662ad" x="183.28125" y="218.750603" style="fill: #ff7f0e; stroke: #ffffff; stroke-width: 0.565685"/>
     <use xlink:href="#ma35a8662ad" x="193.245536" y="198.316234" style="fill: #ff7f0e; stroke: #ffffff; stroke-width: 0.565685"/>
     <use xlink:href="#ma35a8662ad" x="203.209821" y="172.012558" style="fill: #ff7f0e; stroke: #ffffff; stroke-width: 0.565685"/>
     <use xlink:href="#ma35a8662ad" x="213.174107" y="145.138254" style="fill: #ff7f0e; stroke: #ffffff; stroke-width: 0.565685"/>
     <use xlink:href="#ma35a8662ad" x="223.138393" y="126.64514" style="fill: #ff7f0e; stroke: #ffffff; stroke-width: 0.565685"/>
     <use xlink:href="#ma35a8662ad" x="233.102679" y="117.877263" style="fill: #ff7f0e; stroke: #ffffff; stroke-width: 0.565685"/>
     <use xlink:href="#ma35a8662ad" x="243.066964" y="80.624399" style="fill: #ff7f0e; stroke: #ffffff; stroke-width: 0.565685"/>
     <use xlink:href="#ma35a8662ad" x="253.03125" y="76.869322" style="fill: #ff7f0e; stroke: #ffffff; stroke-width: 0.565685"/>
     <use xlink:href="#ma35a8662ad" x="262.995536" y="74.853145" style="fill: #ff7f0e; stroke: #ffffff; stroke-width: 0.565685"/>
     <use xlink:href="#ma35a8662ad" x="272.959821" y="72.471285" style="fill: #ff7f0e; stroke: #ffffff; stroke-width: 0.565685"/>
     <use xlink:href="#ma35a8662ad" x="282.924107" y="70.579648" style="fill: #ff7f0e; stroke: #ffffff; stroke-width: 0.565685"/>
     <use xlink:href="#ma35a8662ad" x="292.888393" y="68.759903" style="fill: #ff7f0e; stroke: #ffffff; stroke-width: 0.565685"/>
     <use xlink:href="#ma35a8662ad" x="302.852679" y="67.448586" style="fill: #ff7f0e; stroke: #ffffff; stroke-width: 0.565685"/>
     <use xlink:href="#ma35a8662ad" x="312.816964" y="66.186283" style="fill: #ff7f0e; stroke: #ffffff; stroke-width: 0.565685"/>
     <use xlink:href="#ma35a8662ad" x="322.78125" y="64.869415" style="fill: #ff7f0e; stroke: #ffffff; stroke-width: 0.565685"/>
     <use xlink:href="#ma35a8662ad" x="332.745536" y="63.387827" style="fill: #ff7f0e; stroke: #ffffff; stroke-width: 0.565685"/>
     <use xlink:href="#ma35a8662ad" x="342.709821" y="63.430528" style="fill: #ff7f0e; stroke: #ffffff; stroke-width: 0.565685"/>
     <use xlink:href="#ma35a8662ad" x="352.674107" y="62.895753" style="fill: #ff7f0e; stroke: #ffffff; stroke-width: 0.565685"/>
     <use xlink:href="#ma35a8662ad" x="362.638393" y="61.966589" style="fill: #ff7f0e; stroke: #ffffff; stroke-width: 0.565685"/>
     <use xlink:href="#ma35a8662ad" x="372.602679" y="61.212114" style="fill: #ff7f0e; stroke: #ffffff; stroke-width: 0.565685"/>
     <use xlink:href="#ma35a8662ad" x="382.566964" y="60.470383" style="fill: #ff7f0e; stroke: #ffffff; stroke-width: 0.565685"/>
     <use xlink:href="#ma35a8662ad" x="392.53125" y="60.240966" style="fill: #ff7f0e; stroke: #ffffff; stroke-width: 0.565685"/>
     <use xlink:href="#ma35a8662ad" x="402.495536" y="60.878582" style="fill: #ff7f0e; stroke: #ffffff; stroke-width: 0.565685"/>
     <use xlink:href="#ma35a8662ad" x="412.459821" y="62.209677" style="fill: #ff7f0e; stroke: #ffffff; stroke-width: 0.565685"/>
     <use xlink:href="#ma35a8662ad" x="422.424107" y="63.251491" style="fill: #ff7f0e; stroke: #ffffff; stroke-width: 0.565685"/>
     <use xlink:href="#ma35a8662ad" x="432.388393" y="64.623204" style="fill: #ff7f0e; stroke: #ffffff; stroke-width: 0.565685"/>
     <use xlink:href="#ma35a8662ad" x="442.352679" y="66.170207" style="fill: #ff7f0e; stroke: #ffffff; stroke-width: 0.565685"/>
     <use xlink:href="#ma35a8662ad" x="452.316964" y="68.309928" style="fill: #ff7f0e; stroke: #ffffff; stroke-width: 0.565685"/>
     <use xlink:href="#ma35a8662ad" x="462.28125" y="71.607583" style="fill: #ff7f0e; stroke: #ffffff; stroke-width: 0.565685"/>
     <use xlink:href="#ma35a8662ad" x="472.245536" y="75.074628" style="fill: #ff7f0e; stroke: #ffffff; stroke-width: 0.565685"/>
     <use xlink:href="#ma35a8662ad" x="482.209821" y="74.234728" style="fill: #ff7f0e; stroke: #ffffff; stroke-width: 0.565685"/>
     <use xlink:href="#ma35a8662ad" x="492.174107" y="305.61304" style="fill: #ff7f0e; stroke: #ffffff; stroke-width: 0.565685"/>
     <use xlink:href="#ma35a8662ad" x="502.138393" y="369.590773" style="fill: #ff7f0e; stroke: #ffffff; stroke-width: 0.565685"/>
     <use xlink:href="#ma35a8662ad" x="512.102679" y="318.838372" style="fill: #ff7f0e; stroke: #ffffff; stroke-width: 0.565685"/>
     <use xlink:href="#ma35a8662ad" x="522.066964" y="315.496155" style="fill: #ff7f0e; stroke: #ffffff; stroke-width: 0.565685"/>
     <use xlink:href="#ma35a8662ad" x="532.03125" y="314.999565" style="fill: #ff7f0e; stroke: #ffffff; stroke-width: 0.565685"/>
     <use xlink:href="#ma35a8662ad" x="541.995536" y="315.004382" style="fill: #ff7f0e; stroke: #ffffff; stroke-width: 0.565685"/>
     <use xlink:href="#ma35a8662ad" x="551.959821" y="314.9951" style="fill: #ff7f0e; stroke: #ffffff; stroke-width: 0.565685"/>
     <use xlink:href="#ma35a8662ad" x="561.924107" y="315.023164" style="fill: #ff7f0e; stroke: #ffffff; stroke-width: 0.565685"/>
     <use xlink:href="#ma35a8662ad" x="571.888393" y="315.071174" style="fill: #ff7f0e; stroke: #ffffff; stroke-width: 0.565685"/>
     <use xlink:href="#ma35a8662ad" x="581.852679" y="315.47344" style="fill: #ff7f0e; stroke: #ffffff; stroke-width: 0.565685"/>
     <use xlink:href="#ma35a8662ad" x="591.816964" y="315.804513" style="fill: #ff7f0e; stroke: #ffffff; stroke-width: 0.565685"/>
     <use xlink:href="#ma35a8662ad" x="601.78125" y="317.935942" style="fill: #ff7f0e; stroke: #ffffff; stroke-width: 0.565685"/>
    </g>
   </g>
   <g id="PolyCollection_2"/>
   <g id="PathCollection_3">
    <defs>
     <path id="m8707a642c5" d="M -1.767767 3.535534 
L 0 1.767767 
L 1.767767 3.535534 
L 3.535534 1.767767 
L 1.767767 0 
L 3.535534 -1.767767 
L 1.767767 -3.535534 
L 0 -1.767767 
L -1.767767 -3.535534 
L -3.535534 -1.767767 
L -1.767767 0 
L -3.535534 1.767767 
z
" style="stroke: #ffffff; stroke-width: 0.565685"/>
    </defs>
    <g clip-path="url(#pe503ce1063)">
     <use xlink:href="#m8707a642c5" x="43.78125" y="410.315177" style="fill: #2ca02c; stroke: #ffffff; stroke-width: 0.565685"/>
     <use xlink:href="#m8707a642c5" x="53.745536" y="410.31773" style="fill: #2ca02c; stroke: #ffffff; stroke-width: 0.565685"/>
     <use xlink:href="#m8707a642c5" x="63.709821" y="410.316472" style="fill: #2ca02c; stroke: #ffffff; stroke-width: 0.565685"/>
     <use xlink:href="#m8707a642c5" x="73.674107" y="410.340531" style="fill: #2ca02c; stroke: #ffffff; stroke-width: 0.565685"/>
     <use xlink:href="#m8707a642c5" x="83.638393" y="410.30631" style="fill: #2ca02c; stroke: #ffffff; stroke-width: 0.565685"/>
     <use xlink:href="#m8707a642c5" x="93.602679" y="410.25138" style="fill: #2ca02c; stroke: #ffffff; stroke-width: 0.565685"/>
     <use xlink:href="#m8707a642c5" x="103.566964" y="410.279298" style="fill: #2ca02c; stroke: #ffffff; stroke-width: 0.565685"/>
     <use xlink:href="#m8707a642c5" x="113.53125" y="410.223925" style="fill: #2ca02c; stroke: #ffffff; stroke-width: 0.565685"/>
     <use xlink:href="#m8707a642c5" x="123.495536" y="410.296126" style="fill: #2ca02c; stroke: #ffffff; stroke-width: 0.565685"/>
     <use xlink:href="#m8707a642c5" x="133.459821" y="410.083821" style="fill: #2ca02c; stroke: #ffffff; stroke-width: 0.565685"/>
     <use xlink:href="#m8707a642c5" x="143.424107" y="410.000408" style="fill: #2ca02c; stroke: #ffffff; stroke-width: 0.565685"/>
     <use xlink:href="#m8707a642c5" x="153.388393" y="409.1578" style="fill: #2ca02c; stroke: #ffffff; stroke-width: 0.565685"/>
     <use xlink:href="#m8707a642c5" x="163.352679" y="394.895255" style="fill: #2ca02c; stroke: #ffffff; stroke-width: 0.565685"/>
     <use xlink:href="#m8707a642c5" x="173.316964" y="394.393061" style="fill: #2ca02c; stroke: #ffffff; stroke-width: 0.565685"/>
     <use xlink:href="#m8707a642c5" x="183.28125" y="226.632802" style="fill: #2ca02c; stroke: #ffffff; stroke-width: 0.565685"/>
     <use xlink:href="#m8707a642c5" x="193.245536" y="86.256541" style="fill: #2ca02c; stroke: #ffffff; stroke-width: 0.565685"/>
     <use xlink:href="#m8707a642c5" x="203.209821" y="137.608646" style="fill: #2ca02c; stroke: #ffffff; stroke-width: 0.565685"/>
     <use xlink:href="#m8707a642c5" x="213.174107" y="219.147907" style="fill: #2ca02c; stroke: #ffffff; stroke-width: 0.565685"/>
     <use xlink:href="#m8707a642c5" x="223.138393" y="337.825861" style="fill: #2ca02c; stroke: #ffffff; stroke-width: 0.565685"/>
     <use xlink:href="#m8707a642c5" x="233.102679" y="91.200964" style="fill: #2ca02c; stroke: #ffffff; stroke-width: 0.565685"/>
     <use xlink:href="#m8707a642c5" x="243.066964" y="88.14649" style="fill: #2ca02c; stroke: #ffffff; stroke-width: 0.565685"/>
     <use xlink:href="#m8707a642c5" x="253.03125" y="87.165627" style="fill: #2ca02c; stroke: #ffffff; stroke-width: 0.565685"/>
     <use xlink:href="#m8707a642c5" x="262.995536" y="87.785825" style="fill: #2ca02c; stroke: #ffffff; stroke-width: 0.565685"/>
     <use xlink:href="#m8707a642c5" x="272.959821" y="88.976027" style="fill: #2ca02c; stroke: #ffffff; stroke-width: 0.565685"/>
     <use xlink:href="#m8707a642c5" x="282.924107" y="90.477785" style="fill: #2ca02c; stroke: #ffffff; stroke-width: 0.565685"/>
     <use xlink:href="#m8707a642c5" x="292.888393" y="92.353693" style="fill: #2ca02c; stroke: #ffffff; stroke-width: 0.565685"/>
     <use xlink:href="#m8707a642c5" x="302.852679" y="94.889539" style="fill: #2ca02c; stroke: #ffffff; stroke-width: 0.565685"/>
     <use xlink:href="#m8707a642c5" x="312.816964" y="97.86037" style="fill: #2ca02c; stroke: #ffffff; stroke-width: 0.565685"/>
     <use xlink:href="#m8707a642c5" x="322.78125" y="101.806142" style="fill: #2ca02c; stroke: #ffffff; stroke-width: 0.565685"/>
     <use xlink:href="#m8707a642c5" x="332.745536" y="110.40893" style="fill: #2ca02c; stroke: #ffffff; stroke-width: 0.565685"/>
     <use xlink:href="#m8707a642c5" x="342.709821" y="131.172597" style="fill: #2ca02c; stroke: #ffffff; stroke-width: 0.565685"/>
     <use xlink:href="#m8707a642c5" x="352.674107" y="158.936903" style="fill: #2ca02c; stroke: #ffffff; stroke-width: 0.565685"/>
     <use xlink:href="#m8707a642c5" x="362.638393" y="187.939455" style="fill: #2ca02c; stroke: #ffffff; stroke-width: 0.565685"/>
     <use xlink:href="#m8707a642c5" x="372.602679" y="214.464591" style="fill: #2ca02c; stroke: #ffffff; stroke-width: 0.565685"/>
     <use xlink:href="#m8707a642c5" x="382.566964" y="238.230443" style="fill: #2ca02c; stroke: #ffffff; stroke-width: 0.565685"/>
     <use xlink:href="#m8707a642c5" x="392.53125" y="257.624386" style="fill: #2ca02c; stroke: #ffffff; stroke-width: 0.565685"/>
     <use xlink:href="#m8707a642c5" x="402.495536" y="273.114031" style="fill: #2ca02c; stroke: #ffffff; stroke-width: 0.565685"/>
     <use xlink:href="#m8707a642c5" x="412.459821" y="286.396168" style="fill: #2ca02c; stroke: #ffffff; stroke-width: 0.565685"/>
     <use xlink:href="#m8707a642c5" x="422.424107" y="296.797593" style="fill: #2ca02c; stroke: #ffffff; stroke-width: 0.565685"/>
     <use xlink:href="#m8707a642c5" x="432.388393" y="406.416678" style="fill: #2ca02c; stroke: #ffffff; stroke-width: 0.565685"/>
     <use xlink:href="#m8707a642c5" x="442.352679" y="409.650038" style="fill: #2ca02c; stroke: #ffffff; stroke-width: 0.565685"/>
     <use xlink:href="#m8707a642c5" x="452.316964" y="410.169775" style="fill: #2ca02c; stroke: #ffffff; stroke-width: 0.565685"/>
     <use xlink:href="#m8707a642c5" x="462.28125" y="410.252148" style="fill: #2ca02c; stroke: #ffffff; stroke-width: 0.565685"/>
     <use xlink:href="#m8707a642c5" x="472.245536" y="410.223124" style="fill: #2ca02c; stroke: #ffffff; stroke-width: 0.565685"/>
     <use xlink:href="#m8707a642c5" x="482.209821" y="409.588319" style="fill: #2ca02c; stroke: #ffffff; stroke-width: 0.565685"/>
     <use xlink:href="#m8707a642c5" x="492.174107" y="409.794611" style="fill: #2ca02c; stroke: #ffffff; stroke-width: 0.565685"/>
     <use xlink:href="#m8707a642c5" x="502.138393" y="409.952626" style="fill: #2ca02c; stroke: #ffffff; stroke-width: 0.565685"/>
    </g>
   </g>
   <g id="PolyCollection_3"/>
   <g id="matplotlib.axis_1">
    <g id="xtick_1">
     <g id="line2d_4">
      <path d="M 83.638393 410.398125 
L 83.638393 22.318125 
" clip-path="url(#pe503ce1063)" style="fill: none; stroke: #b0b0b0; stroke-width: 0.8; stroke-linecap: square"/>
     </g>
     <g id="line2d_5">
      <defs>
       <path id="md067a015df" d="M 0 0 
L 0 3.5 
" style="stroke: #000000; stroke-width: 0.8"/>
      </defs>
      <g>
       <use xlink:href="#md067a015df" x="83.638393" y="410.398125" style="stroke: #000000; stroke-width: 0.8"/>
      </g>
     </g>
     <g id="text_1">
      <!-- 5 -->
      <g transform="translate(80.457143 424.996562) scale(0.1 -0.1)">
       <defs>
        <path id="DejaVuSans-35" d="M 691 4666 
L 3169 4666 
L 3169 4134 
L 1269 4134 
L 1269 2991 
Q 1406 3038 1543 3061 
Q 1681 3084 1819 3084 
Q 2600 3084 3056 2656 
Q 3513 2228 3513 1497 
Q 3513 744 3044 326 
Q 2575 -91 1722 -91 
Q 1428 -91 1123 -41 
Q 819 9 494 109 
L 494 744 
Q 775 591 1075 516 
Q 1375 441 1709 441 
Q 2250 441 2565 725 
Q 2881 1009 2881 1497 
Q 2881 1984 2565 2268 
Q 2250 2553 1709 2553 
Q 1456 2553 1204 2497 
Q 953 2441 691 2322 
L 691 4666 
z
" transform="scale(0.015625)"/>
       </defs>
       <use xlink:href="#DejaVuSans-35"/>
      </g>
     </g>
    </g>
    <g id="xtick_2">
     <g id="line2d_6">
      <path d="M 133.459821 410.398125 
L 133.459821 22.318125 
" clip-path="url(#pe503ce1063)" style="fill: none; stroke: #b0b0b0; stroke-width: 0.8; stroke-linecap: square"/>
     </g>
     <g id="line2d_7">
      <g>
       <use xlink:href="#md067a015df" x="133.459821" y="410.398125" style="stroke: #000000; stroke-width: 0.8"/>
      </g>
     </g>
     <g id="text_2">
      <!-- 10 -->
      <g transform="translate(127.097321 424.996562) scale(0.1 -0.1)">
       <defs>
        <path id="DejaVuSans-31" d="M 794 531 
L 1825 531 
L 1825 4091 
L 703 3866 
L 703 4441 
L 1819 4666 
L 2450 4666 
L 2450 531 
L 3481 531 
L 3481 0 
L 794 0 
L 794 531 
z
" transform="scale(0.015625)"/>
        <path id="DejaVuSans-30" d="M 2034 4250 
Q 1547 4250 1301 3770 
Q 1056 3291 1056 2328 
Q 1056 1369 1301 889 
Q 1547 409 2034 409 
Q 2525 409 2770 889 
Q 3016 1369 3016 2328 
Q 3016 3291 2770 3770 
Q 2525 4250 2034 4250 
z
M 2034 4750 
Q 2819 4750 3233 4129 
Q 3647 3509 3647 2328 
Q 3647 1150 3233 529 
Q 2819 -91 2034 -91 
Q 1250 -91 836 529 
Q 422 1150 422 2328 
Q 422 3509 836 4129 
Q 1250 4750 2034 4750 
z
" transform="scale(0.015625)"/>
       </defs>
       <use xlink:href="#DejaVuSans-31"/>
       <use xlink:href="#DejaVuSans-30" x="63.623047"/>
      </g>
     </g>
    </g>
    <g id="xtick_3">
     <g id="line2d_8">
      <path d="M 183.28125 410.398125 
L 183.28125 22.318125 
" clip-path="url(#pe503ce1063)" style="fill: none; stroke: #b0b0b0; stroke-width: 0.8; stroke-linecap: square"/>
     </g>
     <g id="line2d_9">
      <g>
       <use xlink:href="#md067a015df" x="183.28125" y="410.398125" style="stroke: #000000; stroke-width: 0.8"/>
      </g>
     </g>
     <g id="text_3">
      <!-- 15 -->
      <g transform="translate(176.91875 424.996562) scale(0.1 -0.1)">
       <use xlink:href="#DejaVuSans-31"/>
       <use xlink:href="#DejaVuSans-35" x="63.623047"/>
      </g>
     </g>
    </g>
    <g id="xtick_4">
     <g id="line2d_10">
      <path d="M 233.102679 410.398125 
L 233.102679 22.318125 
" clip-path="url(#pe503ce1063)" style="fill: none; stroke: #b0b0b0; stroke-width: 0.8; stroke-linecap: square"/>
     </g>
     <g id="line2d_11">
      <g>
       <use xlink:href="#md067a015df" x="233.102679" y="410.398125" style="stroke: #000000; stroke-width: 0.8"/>
      </g>
     </g>
     <g id="text_4">
      <!-- 20 -->
      <g transform="translate(226.740179 424.996562) scale(0.1 -0.1)">
       <defs>
        <path id="DejaVuSans-32" d="M 1228 531 
L 3431 531 
L 3431 0 
L 469 0 
L 469 531 
Q 828 903 1448 1529 
Q 2069 2156 2228 2338 
Q 2531 2678 2651 2914 
Q 2772 3150 2772 3378 
Q 2772 3750 2511 3984 
Q 2250 4219 1831 4219 
Q 1534 4219 1204 4116 
Q 875 4013 500 3803 
L 500 4441 
Q 881 4594 1212 4672 
Q 1544 4750 1819 4750 
Q 2544 4750 2975 4387 
Q 3406 4025 3406 3419 
Q 3406 3131 3298 2873 
Q 3191 2616 2906 2266 
Q 2828 2175 2409 1742 
Q 1991 1309 1228 531 
z
" transform="scale(0.015625)"/>
       </defs>
       <use xlink:href="#DejaVuSans-32"/>
       <use xlink:href="#DejaVuSans-30" x="63.623047"/>
      </g>
     </g>
    </g>
    <g id="xtick_5">
     <g id="line2d_12">
      <path d="M 282.924107 410.398125 
L 282.924107 22.318125 
" clip-path="url(#pe503ce1063)" style="fill: none; stroke: #b0b0b0; stroke-width: 0.8; stroke-linecap: square"/>
     </g>
     <g id="line2d_13">
      <g>
       <use xlink:href="#md067a015df" x="282.924107" y="410.398125" style="stroke: #000000; stroke-width: 0.8"/>
      </g>
     </g>
     <g id="text_5">
      <!-- 25 -->
      <g transform="translate(276.561607 424.996562) scale(0.1 -0.1)">
       <use xlink:href="#DejaVuSans-32"/>
       <use xlink:href="#DejaVuSans-35" x="63.623047"/>
      </g>
     </g>
    </g>
    <g id="xtick_6">
     <g id="line2d_14">
      <path d="M 332.745536 410.398125 
L 332.745536 22.318125 
" clip-path="url(#pe503ce1063)" style="fill: none; stroke: #b0b0b0; stroke-width: 0.8; stroke-linecap: square"/>
     </g>
     <g id="line2d_15">
      <g>
       <use xlink:href="#md067a015df" x="332.745536" y="410.398125" style="stroke: #000000; stroke-width: 0.8"/>
      </g>
     </g>
     <g id="text_6">
      <!-- 30 -->
      <g transform="translate(326.383036 424.996562) scale(0.1 -0.1)">
       <defs>
        <path id="DejaVuSans-33" d="M 2597 2516 
Q 3050 2419 3304 2112 
Q 3559 1806 3559 1356 
Q 3559 666 3084 287 
Q 2609 -91 1734 -91 
Q 1441 -91 1130 -33 
Q 819 25 488 141 
L 488 750 
Q 750 597 1062 519 
Q 1375 441 1716 441 
Q 2309 441 2620 675 
Q 2931 909 2931 1356 
Q 2931 1769 2642 2001 
Q 2353 2234 1838 2234 
L 1294 2234 
L 1294 2753 
L 1863 2753 
Q 2328 2753 2575 2939 
Q 2822 3125 2822 3475 
Q 2822 3834 2567 4026 
Q 2313 4219 1838 4219 
Q 1578 4219 1281 4162 
Q 984 4106 628 3988 
L 628 4550 
Q 988 4650 1302 4700 
Q 1616 4750 1894 4750 
Q 2613 4750 3031 4423 
Q 3450 4097 3450 3541 
Q 3450 3153 3228 2886 
Q 3006 2619 2597 2516 
z
" transform="scale(0.015625)"/>
       </defs>
       <use xlink:href="#DejaVuSans-33"/>
       <use xlink:href="#DejaVuSans-30" x="63.623047"/>
      </g>
     </g>
    </g>
    <g id="xtick_7">
     <g id="line2d_16">
      <path d="M 382.566964 410.398125 
L 382.566964 22.318125 
" clip-path="url(#pe503ce1063)" style="fill: none; stroke: #b0b0b0; stroke-width: 0.8; stroke-linecap: square"/>
     </g>
     <g id="line2d_17">
      <g>
       <use xlink:href="#md067a015df" x="382.566964" y="410.398125" style="stroke: #000000; stroke-width: 0.8"/>
      </g>
     </g>
     <g id="text_7">
      <!-- 35 -->
      <g transform="translate(376.204464 424.996562) scale(0.1 -0.1)">
       <use xlink:href="#DejaVuSans-33"/>
       <use xlink:href="#DejaVuSans-35" x="63.623047"/>
      </g>
     </g>
    </g>
    <g id="xtick_8">
     <g id="line2d_18">
      <path d="M 432.388393 410.398125 
L 432.388393 22.318125 
" clip-path="url(#pe503ce1063)" style="fill: none; stroke: #b0b0b0; stroke-width: 0.8; stroke-linecap: square"/>
     </g>
     <g id="line2d_19">
      <g>
       <use xlink:href="#md067a015df" x="432.388393" y="410.398125" style="stroke: #000000; stroke-width: 0.8"/>
      </g>
     </g>
     <g id="text_8">
      <!-- 40 -->
      <g transform="translate(426.025893 424.996562) scale(0.1 -0.1)">
       <defs>
        <path id="DejaVuSans-34" d="M 2419 4116 
L 825 1625 
L 2419 1625 
L 2419 4116 
z
M 2253 4666 
L 3047 4666 
L 3047 1625 
L 3713 1625 
L 3713 1100 
L 3047 1100 
L 3047 0 
L 2419 0 
L 2419 1100 
L 313 1100 
L 313 1709 
L 2253 4666 
z
" transform="scale(0.015625)"/>
       </defs>
       <use xlink:href="#DejaVuSans-34"/>
       <use xlink:href="#DejaVuSans-30" x="63.623047"/>
      </g>
     </g>
    </g>
    <g id="xtick_9">
     <g id="line2d_20">
      <path d="M 482.209821 410.398125 
L 482.209821 22.318125 
" clip-path="url(#pe503ce1063)" style="fill: none; stroke: #b0b0b0; stroke-width: 0.8; stroke-linecap: square"/>
     </g>
     <g id="line2d_21">
      <g>
       <use xlink:href="#md067a015df" x="482.209821" y="410.398125" style="stroke: #000000; stroke-width: 0.8"/>
      </g>
     </g>
     <g id="text_9">
      <!-- 45 -->
      <g transform="translate(475.847321 424.996562) scale(0.1 -0.1)">
       <use xlink:href="#DejaVuSans-34"/>
       <use xlink:href="#DejaVuSans-35" x="63.623047"/>
      </g>
     </g>
    </g>
    <g id="xtick_10">
     <g id="line2d_22">
      <path d="M 532.03125 410.398125 
L 532.03125 22.318125 
" clip-path="url(#pe503ce1063)" style="fill: none; stroke: #b0b0b0; stroke-width: 0.8; stroke-linecap: square"/>
     </g>
     <g id="line2d_23">
      <g>
       <use xlink:href="#md067a015df" x="532.03125" y="410.398125" style="stroke: #000000; stroke-width: 0.8"/>
      </g>
     </g>
     <g id="text_10">
      <!-- 50 -->
      <g transform="translate(525.66875 424.996562) scale(0.1 -0.1)">
       <use xlink:href="#DejaVuSans-35"/>
       <use xlink:href="#DejaVuSans-30" x="63.623047"/>
      </g>
     </g>
    </g>
    <g id="xtick_11">
     <g id="line2d_24">
      <path d="M 581.852679 410.398125 
L 581.852679 22.318125 
" clip-path="url(#pe503ce1063)" style="fill: none; stroke: #b0b0b0; stroke-width: 0.8; stroke-linecap: square"/>
     </g>
     <g id="line2d_25">
      <g>
       <use xlink:href="#md067a015df" x="581.852679" y="410.398125" style="stroke: #000000; stroke-width: 0.8"/>
      </g>
     </g>
     <g id="text_11">
      <!-- 55 -->
      <g transform="translate(575.490179 424.996562) scale(0.1 -0.1)">
       <use xlink:href="#DejaVuSans-35"/>
       <use xlink:href="#DejaVuSans-35" x="63.623047"/>
      </g>
     </g>
    </g>
    <g id="text_12">
     <!-- Lap Number -->
     <g transform="translate(292.082031 438.674687) scale(0.1 -0.1)">
      <defs>
       <path id="DejaVuSans-4c" d="M 628 4666 
L 1259 4666 
L 1259 531 
L 3531 531 
L 3531 0 
L 628 0 
L 628 4666 
z
" transform="scale(0.015625)"/>
       <path id="DejaVuSans-61" d="M 2194 1759 
Q 1497 1759 1228 1600 
Q 959 1441 959 1056 
Q 959 750 1161 570 
Q 1363 391 1709 391 
Q 2188 391 2477 730 
Q 2766 1069 2766 1631 
L 2766 1759 
L 2194 1759 
z
M 3341 1997 
L 3341 0 
L 2766 0 
L 2766 531 
Q 2569 213 2275 61 
Q 1981 -91 1556 -91 
Q 1019 -91 701 211 
Q 384 513 384 1019 
Q 384 1609 779 1909 
Q 1175 2209 1959 2209 
L 2766 2209 
L 2766 2266 
Q 2766 2663 2505 2880 
Q 2244 3097 1772 3097 
Q 1472 3097 1187 3025 
Q 903 2953 641 2809 
L 641 3341 
Q 956 3463 1253 3523 
Q 1550 3584 1831 3584 
Q 2591 3584 2966 3190 
Q 3341 2797 3341 1997 
z
" transform="scale(0.015625)"/>
       <path id="DejaVuSans-70" d="M 1159 525 
L 1159 -1331 
L 581 -1331 
L 581 3500 
L 1159 3500 
L 1159 2969 
Q 1341 3281 1617 3432 
Q 1894 3584 2278 3584 
Q 2916 3584 3314 3078 
Q 3713 2572 3713 1747 
Q 3713 922 3314 415 
Q 2916 -91 2278 -91 
Q 1894 -91 1617 61 
Q 1341 213 1159 525 
z
M 3116 1747 
Q 3116 2381 2855 2742 
Q 2594 3103 2138 3103 
Q 1681 3103 1420 2742 
Q 1159 2381 1159 1747 
Q 1159 1113 1420 752 
Q 1681 391 2138 391 
Q 2594 391 2855 752 
Q 3116 1113 3116 1747 
z
" transform="scale(0.015625)"/>
       <path id="DejaVuSans-20" transform="scale(0.015625)"/>
       <path id="DejaVuSans-4e" d="M 628 4666 
L 1478 4666 
L 3547 763 
L 3547 4666 
L 4159 4666 
L 4159 0 
L 3309 0 
L 1241 3903 
L 1241 0 
L 628 0 
L 628 4666 
z
" transform="scale(0.015625)"/>
       <path id="DejaVuSans-75" d="M 544 1381 
L 544 3500 
L 1119 3500 
L 1119 1403 
Q 1119 906 1312 657 
Q 1506 409 1894 409 
Q 2359 409 2629 706 
Q 2900 1003 2900 1516 
L 2900 3500 
L 3475 3500 
L 3475 0 
L 2900 0 
L 2900 538 
Q 2691 219 2414 64 
Q 2138 -91 1772 -91 
Q 1169 -91 856 284 
Q 544 659 544 1381 
z
M 1991 3584 
L 1991 3584 
z
" transform="scale(0.015625)"/>
       <path id="DejaVuSans-6d" d="M 3328 2828 
Q 3544 3216 3844 3400 
Q 4144 3584 4550 3584 
Q 5097 3584 5394 3201 
Q 5691 2819 5691 2113 
L 5691 0 
L 5113 0 
L 5113 2094 
Q 5113 2597 4934 2840 
Q 4756 3084 4391 3084 
Q 3944 3084 3684 2787 
Q 3425 2491 3425 1978 
L 3425 0 
L 2847 0 
L 2847 2094 
Q 2847 2600 2669 2842 
Q 2491 3084 2119 3084 
Q 1678 3084 1418 2786 
Q 1159 2488 1159 1978 
L 1159 0 
L 581 0 
L 581 3500 
L 1159 3500 
L 1159 2956 
Q 1356 3278 1631 3431 
Q 1906 3584 2284 3584 
Q 2666 3584 2933 3390 
Q 3200 3197 3328 2828 
z
" transform="scale(0.015625)"/>
       <path id="DejaVuSans-62" d="M 3116 1747 
Q 3116 2381 2855 2742 
Q 2594 3103 2138 3103 
Q 1681 3103 1420 2742 
Q 1159 2381 1159 1747 
Q 1159 1113 1420 752 
Q 1681 391 2138 391 
Q 2594 391 2855 752 
Q 3116 1113 3116 1747 
z
M 1159 2969 
Q 1341 3281 1617 3432 
Q 1894 3584 2278 3584 
Q 2916 3584 3314 3078 
Q 3713 2572 3713 1747 
Q 3713 922 3314 415 
Q 2916 -91 2278 -91 
Q 1894 -91 1617 61 
Q 1341 213 1159 525 
L 1159 0 
L 581 0 
L 581 4863 
L 1159 4863 
L 1159 2969 
z
" transform="scale(0.015625)"/>
       <path id="DejaVuSans-65" d="M 3597 1894 
L 3597 1613 
L 953 1613 
Q 991 1019 1311 708 
Q 1631 397 2203 397 
Q 2534 397 2845 478 
Q 3156 559 3463 722 
L 3463 178 
Q 3153 47 2828 -22 
Q 2503 -91 2169 -91 
Q 1331 -91 842 396 
Q 353 884 353 1716 
Q 353 2575 817 3079 
Q 1281 3584 2069 3584 
Q 2775 3584 3186 3129 
Q 3597 2675 3597 1894 
z
M 3022 2063 
Q 3016 2534 2758 2815 
Q 2500 3097 2075 3097 
Q 1594 3097 1305 2825 
Q 1016 2553 972 2059 
L 3022 2063 
z
" transform="scale(0.015625)"/>
       <path id="DejaVuSans-72" d="M 2631 2963 
Q 2534 3019 2420 3045 
Q 2306 3072 2169 3072 
Q 1681 3072 1420 2755 
Q 1159 2438 1159 1844 
L 1159 0 
L 581 0 
L 581 3500 
L 1159 3500 
L 1159 2956 
Q 1341 3275 1631 3429 
Q 1922 3584 2338 3584 
Q 2397 3584 2469 3576 
Q 2541 3569 2628 3553 
L 2631 2963 
z
" transform="scale(0.015625)"/>
      </defs>
      <use xlink:href="#DejaVuSans-4c"/>
      <use xlink:href="#DejaVuSans-61" x="55.712891"/>
      <use xlink:href="#DejaVuSans-70" x="116.992188"/>
      <use xlink:href="#DejaVuSans-20" x="180.46875"/>
      <use xlink:href="#DejaVuSans-4e" x="212.255859"/>
      <use xlink:href="#DejaVuSans-75" x="287.060547"/>
      <use xlink:href="#DejaVuSans-6d" x="350.439453"/>
      <use xlink:href="#DejaVuSans-62" x="447.851562"/>
      <use xlink:href="#DejaVuSans-65" x="511.328125"/>
      <use xlink:href="#DejaVuSans-72" x="572.851562"/>
     </g>
    </g>
   </g>
   <g id="matplotlib.axis_2">
    <g id="ytick_1">
     <g id="line2d_26">
      <path d="M 43.78125 410.398125 
L 601.78125 410.398125 
" clip-path="url(#pe503ce1063)" style="fill: none; stroke: #b0b0b0; stroke-width: 0.8; stroke-linecap: square"/>
     </g>
     <g id="line2d_27">
      <defs>
       <path id="m537bb209eb" d="M 0 0 
L -3.5 0 
" style="stroke: #000000; stroke-width: 0.8"/>
      </defs>
      <g>
       <use xlink:href="#m537bb209eb" x="43.78125" y="410.398125" style="stroke: #000000; stroke-width: 0.8"/>
      </g>
     </g>
     <g id="text_13">
      <!-- 0.0 -->
      <g transform="translate(20.878125 414.197344) scale(0.1 -0.1)">
       <defs>
        <path id="DejaVuSans-2e" d="M 684 794 
L 1344 794 
L 1344 0 
L 684 0 
L 684 794 
z
" transform="scale(0.015625)"/>
       </defs>
       <use xlink:href="#DejaVuSans-30"/>
       <use xlink:href="#DejaVuSans-2e" x="63.623047"/>
       <use xlink:href="#DejaVuSans-30" x="95.410156"/>
      </g>
     </g>
    </g>
    <g id="ytick_2">
     <g id="line2d_28">
      <path d="M 43.78125 332.782125 
L 601.78125 332.782125 
" clip-path="url(#pe503ce1063)" style="fill: none; stroke: #b0b0b0; stroke-width: 0.8; stroke-linecap: square"/>
     </g>
     <g id="line2d_29">
      <g>
       <use xlink:href="#m537bb209eb" x="43.78125" y="332.782125" style="stroke: #000000; stroke-width: 0.8"/>
      </g>
     </g>
     <g id="text_14">
      <!-- 0.2 -->
      <g transform="translate(20.878125 336.581344) scale(0.1 -0.1)">
       <use xlink:href="#DejaVuSans-30"/>
       <use xlink:href="#DejaVuSans-2e" x="63.623047"/>
       <use xlink:href="#DejaVuSans-32" x="95.410156"/>
      </g>
     </g>
    </g>
    <g id="ytick_3">
     <g id="line2d_30">
      <path d="M 43.78125 255.166125 
L 601.78125 255.166125 
" clip-path="url(#pe503ce1063)" style="fill: none; stroke: #b0b0b0; stroke-width: 0.8; stroke-linecap: square"/>
     </g>
     <g id="line2d_31">
      <g>
       <use xlink:href="#m537bb209eb" x="43.78125" y="255.166125" style="stroke: #000000; stroke-width: 0.8"/>
      </g>
     </g>
     <g id="text_15">
      <!-- 0.4 -->
      <g transform="translate(20.878125 258.965344) scale(0.1 -0.1)">
       <use xlink:href="#DejaVuSans-30"/>
       <use xlink:href="#DejaVuSans-2e" x="63.623047"/>
       <use xlink:href="#DejaVuSans-34" x="95.410156"/>
      </g>
     </g>
    </g>
    <g id="ytick_4">
     <g id="line2d_32">
      <path d="M 43.78125 177.550125 
L 601.78125 177.550125 
" clip-path="url(#pe503ce1063)" style="fill: none; stroke: #b0b0b0; stroke-width: 0.8; stroke-linecap: square"/>
     </g>
     <g id="line2d_33">
      <g>
       <use xlink:href="#m537bb209eb" x="43.78125" y="177.550125" style="stroke: #000000; stroke-width: 0.8"/>
      </g>
     </g>
     <g id="text_16">
      <!-- 0.6 -->
      <g transform="translate(20.878125 181.349344) scale(0.1 -0.1)">
       <defs>
        <path id="DejaVuSans-36" d="M 2113 2584 
Q 1688 2584 1439 2293 
Q 1191 2003 1191 1497 
Q 1191 994 1439 701 
Q 1688 409 2113 409 
Q 2538 409 2786 701 
Q 3034 994 3034 1497 
Q 3034 2003 2786 2293 
Q 2538 2584 2113 2584 
z
M 3366 4563 
L 3366 3988 
Q 3128 4100 2886 4159 
Q 2644 4219 2406 4219 
Q 1781 4219 1451 3797 
Q 1122 3375 1075 2522 
Q 1259 2794 1537 2939 
Q 1816 3084 2150 3084 
Q 2853 3084 3261 2657 
Q 3669 2231 3669 1497 
Q 3669 778 3244 343 
Q 2819 -91 2113 -91 
Q 1303 -91 875 529 
Q 447 1150 447 2328 
Q 447 3434 972 4092 
Q 1497 4750 2381 4750 
Q 2619 4750 2861 4703 
Q 3103 4656 3366 4563 
z
" transform="scale(0.015625)"/>
       </defs>
       <use xlink:href="#DejaVuSans-30"/>
       <use xlink:href="#DejaVuSans-2e" x="63.623047"/>
       <use xlink:href="#DejaVuSans-36" x="95.410156"/>
      </g>
     </g>
    </g>
    <g id="ytick_5">
     <g id="line2d_34">
      <path d="M 43.78125 99.934125 
L 601.78125 99.934125 
" clip-path="url(#pe503ce1063)" style="fill: none; stroke: #b0b0b0; stroke-width: 0.8; stroke-linecap: square"/>
     </g>
     <g id="line2d_35">
      <g>
       <use xlink:href="#m537bb209eb" x="43.78125" y="99.934125" style="stroke: #000000; stroke-width: 0.8"/>
      </g>
     </g>
     <g id="text_17">
      <!-- 0.8 -->
      <g transform="translate(20.878125 103.733344) scale(0.1 -0.1)">
       <defs>
        <path id="DejaVuSans-38" d="M 2034 2216 
Q 1584 2216 1326 1975 
Q 1069 1734 1069 1313 
Q 1069 891 1326 650 
Q 1584 409 2034 409 
Q 2484 409 2743 651 
Q 3003 894 3003 1313 
Q 3003 1734 2745 1975 
Q 2488 2216 2034 2216 
z
M 1403 2484 
Q 997 2584 770 2862 
Q 544 3141 544 3541 
Q 544 4100 942 4425 
Q 1341 4750 2034 4750 
Q 2731 4750 3128 4425 
Q 3525 4100 3525 3541 
Q 3525 3141 3298 2862 
Q 3072 2584 2669 2484 
Q 3125 2378 3379 2068 
Q 3634 1759 3634 1313 
Q 3634 634 3220 271 
Q 2806 -91 2034 -91 
Q 1263 -91 848 271 
Q 434 634 434 1313 
Q 434 1759 690 2068 
Q 947 2378 1403 2484 
z
M 1172 3481 
Q 1172 3119 1398 2916 
Q 1625 2713 2034 2713 
Q 2441 2713 2670 2916 
Q 2900 3119 2900 3481 
Q 2900 3844 2670 4047 
Q 2441 4250 2034 4250 
Q 1625 4250 1398 4047 
Q 1172 3844 1172 3481 
z
" transform="scale(0.015625)"/>
       </defs>
       <use xlink:href="#DejaVuSans-30"/>
       <use xlink:href="#DejaVuSans-2e" x="63.623047"/>
       <use xlink:href="#DejaVuSans-38" x="95.410156"/>
      </g>
     </g>
    </g>
    <g id="ytick_6">
     <g id="line2d_36">
      <path d="M 43.78125 22.318125 
L 601.78125 22.318125 
" clip-path="url(#pe503ce1063)" style="fill: none; stroke: #b0b0b0; stroke-width: 0.8; stroke-linecap: square"/>
     </g>
     <g id="line2d_37">
      <g>
       <use xlink:href="#m537bb209eb" x="43.78125" y="22.318125" style="stroke: #000000; stroke-width: 0.8"/>
      </g>
     </g>
     <g id="text_18">
      <!-- 1.0 -->
      <g transform="translate(20.878125 26.117344) scale(0.1 -0.1)">
       <use xlink:href="#DejaVuSans-31"/>
       <use xlink:href="#DejaVuSans-2e" x="63.623047"/>
       <use xlink:href="#DejaVuSans-30" x="95.410156"/>
      </g>
     </g>
    </g>
    <g id="text_19">
     <!-- Probability of pitting -->
     <g transform="translate(14.798438 267.000312) rotate(-90) scale(0.1 -0.1)">
      <defs>
       <path id="DejaVuSans-50" d="M 1259 4147 
L 1259 2394 
L 2053 2394 
Q 2494 2394 2734 2622 
Q 2975 2850 2975 3272 
Q 2975 3691 2734 3919 
Q 2494 4147 2053 4147 
L 1259 4147 
z
M 628 4666 
L 2053 4666 
Q 2838 4666 3239 4311 
Q 3641 3956 3641 3272 
Q 3641 2581 3239 2228 
Q 2838 1875 2053 1875 
L 1259 1875 
L 1259 0 
L 628 0 
L 628 4666 
z
" transform="scale(0.015625)"/>
       <path id="DejaVuSans-6f" d="M 1959 3097 
Q 1497 3097 1228 2736 
Q 959 2375 959 1747 
Q 959 1119 1226 758 
Q 1494 397 1959 397 
Q 2419 397 2687 759 
Q 2956 1122 2956 1747 
Q 2956 2369 2687 2733 
Q 2419 3097 1959 3097 
z
M 1959 3584 
Q 2709 3584 3137 3096 
Q 3566 2609 3566 1747 
Q 3566 888 3137 398 
Q 2709 -91 1959 -91 
Q 1206 -91 779 398 
Q 353 888 353 1747 
Q 353 2609 779 3096 
Q 1206 3584 1959 3584 
z
" transform="scale(0.015625)"/>
       <path id="DejaVuSans-69" d="M 603 3500 
L 1178 3500 
L 1178 0 
L 603 0 
L 603 3500 
z
M 603 4863 
L 1178 4863 
L 1178 4134 
L 603 4134 
L 603 4863 
z
" transform="scale(0.015625)"/>
       <path id="DejaVuSans-6c" d="M 603 4863 
L 1178 4863 
L 1178 0 
L 603 0 
L 603 4863 
z
" transform="scale(0.015625)"/>
       <path id="DejaVuSans-74" d="M 1172 4494 
L 1172 3500 
L 2356 3500 
L 2356 3053 
L 1172 3053 
L 1172 1153 
Q 1172 725 1289 603 
Q 1406 481 1766 481 
L 2356 481 
L 2356 0 
L 1766 0 
Q 1100 0 847 248 
Q 594 497 594 1153 
L 594 3053 
L 172 3053 
L 172 3500 
L 594 3500 
L 594 4494 
L 1172 4494 
z
" transform="scale(0.015625)"/>
       <path id="DejaVuSans-79" d="M 2059 -325 
Q 1816 -950 1584 -1140 
Q 1353 -1331 966 -1331 
L 506 -1331 
L 506 -850 
L 844 -850 
Q 1081 -850 1212 -737 
Q 1344 -625 1503 -206 
L 1606 56 
L 191 3500 
L 800 3500 
L 1894 763 
L 2988 3500 
L 3597 3500 
L 2059 -325 
z
" transform="scale(0.015625)"/>
       <path id="DejaVuSans-66" d="M 2375 4863 
L 2375 4384 
L 1825 4384 
Q 1516 4384 1395 4259 
Q 1275 4134 1275 3809 
L 1275 3500 
L 2222 3500 
L 2222 3053 
L 1275 3053 
L 1275 0 
L 697 0 
L 697 3053 
L 147 3053 
L 147 3500 
L 697 3500 
L 697 3744 
Q 697 4328 969 4595 
Q 1241 4863 1831 4863 
L 2375 4863 
z
" transform="scale(0.015625)"/>
       <path id="DejaVuSans-6e" d="M 3513 2113 
L 3513 0 
L 2938 0 
L 2938 2094 
Q 2938 2591 2744 2837 
Q 2550 3084 2163 3084 
Q 1697 3084 1428 2787 
Q 1159 2491 1159 1978 
L 1159 0 
L 581 0 
L 581 3500 
L 1159 3500 
L 1159 2956 
Q 1366 3272 1645 3428 
Q 1925 3584 2291 3584 
Q 2894 3584 3203 3211 
Q 3513 2838 3513 2113 
z
" transform="scale(0.015625)"/>
       <path id="DejaVuSans-67" d="M 2906 1791 
Q 2906 2416 2648 2759 
Q 2391 3103 1925 3103 
Q 1463 3103 1205 2759 
Q 947 2416 947 1791 
Q 947 1169 1205 825 
Q 1463 481 1925 481 
Q 2391 481 2648 825 
Q 2906 1169 2906 1791 
z
M 3481 434 
Q 3481 -459 3084 -895 
Q 2688 -1331 1869 -1331 
Q 1566 -1331 1297 -1286 
Q 1028 -1241 775 -1147 
L 775 -588 
Q 1028 -725 1275 -790 
Q 1522 -856 1778 -856 
Q 2344 -856 2625 -561 
Q 2906 -266 2906 331 
L 2906 616 
Q 2728 306 2450 153 
Q 2172 0 1784 0 
Q 1141 0 747 490 
Q 353 981 353 1791 
Q 353 2603 747 3093 
Q 1141 3584 1784 3584 
Q 2172 3584 2450 3431 
Q 2728 3278 2906 2969 
L 2906 3500 
L 3481 3500 
L 3481 434 
z
" transform="scale(0.015625)"/>
      </defs>
      <use xlink:href="#DejaVuSans-50"/>
      <use xlink:href="#DejaVuSans-72" x="58.552734"/>
      <use xlink:href="#DejaVuSans-6f" x="97.416016"/>
      <use xlink:href="#DejaVuSans-62" x="158.597656"/>
      <use xlink:href="#DejaVuSans-61" x="222.074219"/>
      <use xlink:href="#DejaVuSans-62" x="283.353516"/>
      <use xlink:href="#DejaVuSans-69" x="346.830078"/>
      <use xlink:href="#DejaVuSans-6c" x="374.613281"/>
      <use xlink:href="#DejaVuSans-69" x="402.396484"/>
      <use xlink:href="#DejaVuSans-74" x="430.179688"/>
      <use xlink:href="#DejaVuSans-79" x="469.388672"/>
      <use xlink:href="#DejaVuSans-20" x="528.568359"/>
      <use xlink:href="#DejaVuSans-6f" x="560.355469"/>
      <use xlink:href="#DejaVuSans-66" x="621.537109"/>
      <use xlink:href="#DejaVuSans-20" x="656.742188"/>
      <use xlink:href="#DejaVuSans-70" x="688.529297"/>
      <use xlink:href="#DejaVuSans-69" x="752.005859"/>
      <use xlink:href="#DejaVuSans-74" x="779.789062"/>
      <use xlink:href="#DejaVuSans-74" x="818.998047"/>
      <use xlink:href="#DejaVuSans-69" x="858.207031"/>
      <use xlink:href="#DejaVuSans-6e" x="885.990234"/>
      <use xlink:href="#DejaVuSans-67" x="949.369141"/>
     </g>
    </g>
   </g>
   <g id="patch_59">
    <path d="M 43.78125 410.398125 
L 43.78125 22.318125 
" style="fill: none; stroke: #000000; stroke-width: 0.8; stroke-linejoin: miter; stroke-linecap: square"/>
   </g>
   <g id="patch_60">
    <path d="M 601.78125 410.398125 
L 601.78125 22.318125 
" style="fill: none; stroke: #000000; stroke-width: 0.8; stroke-linejoin: miter; stroke-linecap: square"/>
   </g>
   <g id="patch_61">
    <path d="M 43.78125 410.398125 
L 601.78125 410.398125 
" style="fill: none; stroke: #000000; stroke-width: 0.8; stroke-linejoin: miter; stroke-linecap: square"/>
   </g>
   <g id="patch_62">
    <path d="M 43.78125 22.318125 
L 601.78125 22.318125 
" style="fill: none; stroke: #000000; stroke-width: 0.8; stroke-linejoin: miter; stroke-linecap: square"/>
   </g>
   <g id="text_20">
    <!-- Miami - Driver 1 -->
    <g transform="translate(274.583438 16.318125) scale(0.12 -0.12)">
     <defs>
      <path id="DejaVuSans-4d" d="M 628 4666 
L 1569 4666 
L 2759 1491 
L 3956 4666 
L 4897 4666 
L 4897 0 
L 4281 0 
L 4281 4097 
L 3078 897 
L 2444 897 
L 1241 4097 
L 1241 0 
L 628 0 
L 628 4666 
z
" transform="scale(0.015625)"/>
      <path id="DejaVuSans-2d" d="M 313 2009 
L 1997 2009 
L 1997 1497 
L 313 1497 
L 313 2009 
z
" transform="scale(0.015625)"/>
      <path id="DejaVuSans-44" d="M 1259 4147 
L 1259 519 
L 2022 519 
Q 2988 519 3436 956 
Q 3884 1394 3884 2338 
Q 3884 3275 3436 3711 
Q 2988 4147 2022 4147 
L 1259 4147 
z
M 628 4666 
L 1925 4666 
Q 3281 4666 3915 4102 
Q 4550 3538 4550 2338 
Q 4550 1131 3912 565 
Q 3275 0 1925 0 
L 628 0 
L 628 4666 
z
" transform="scale(0.015625)"/>
      <path id="DejaVuSans-76" d="M 191 3500 
L 800 3500 
L 1894 563 
L 2988 3500 
L 3597 3500 
L 2284 0 
L 1503 0 
L 191 3500 
z
" transform="scale(0.015625)"/>
     </defs>
     <use xlink:href="#DejaVuSans-4d"/>
     <use xlink:href="#DejaVuSans-69" x="86.279297"/>
     <use xlink:href="#DejaVuSans-61" x="114.0625"/>
     <use xlink:href="#DejaVuSans-6d" x="175.341797"/>
     <use xlink:href="#DejaVuSans-69" x="272.753906"/>
     <use xlink:href="#DejaVuSans-20" x="300.537109"/>
     <use xlink:href="#DejaVuSans-2d" x="332.324219"/>
     <use xlink:href="#DejaVuSans-20" x="368.408203"/>
     <use xlink:href="#DejaVuSans-44" x="400.195312"/>
     <use xlink:href="#DejaVuSans-72" x="477.197266"/>
     <use xlink:href="#DejaVuSans-69" x="518.310547"/>
     <use xlink:href="#DejaVuSans-76" x="546.09375"/>
     <use xlink:href="#DejaVuSans-65" x="605.273438"/>
     <use xlink:href="#DejaVuSans-72" x="666.796875"/>
     <use xlink:href="#DejaVuSans-20" x="707.910156"/>
     <use xlink:href="#DejaVuSans-31" x="739.697266"/>
    </g>
   </g>
   <g id="legend_1">
    <g id="patch_63">
     <path d="M 609.36125 99.543125 
L 809.140938 99.543125 
Q 811.140938 99.543125 811.140938 97.543125 
L 811.140938 24.318125 
Q 811.140938 22.318125 809.140938 22.318125 
L 609.36125 22.318125 
Q 607.36125 22.318125 607.36125 24.318125 
L 607.36125 97.543125 
Q 607.36125 99.543125 609.36125 99.543125 
z
" style="fill: #ffffff; opacity: 0.8; stroke: #cccccc; stroke-linejoin: miter"/>
    </g>
    <g id="patch_64">
     <path d="M 611.36125 33.916562 
L 631.36125 33.916562 
L 631.36125 26.916562 
L 611.36125 26.916562 
z
" style="fill: #808080"/>
    </g>
    <g id="text_21">
     <!-- Hard -->
     <g transform="translate(639.36125 33.916562) scale(0.1 -0.1)">
      <defs>
       <path id="DejaVuSans-48" d="M 628 4666 
L 1259 4666 
L 1259 2753 
L 3553 2753 
L 3553 4666 
L 4184 4666 
L 4184 0 
L 3553 0 
L 3553 2222 
L 1259 2222 
L 1259 0 
L 628 0 
L 628 4666 
z
" transform="scale(0.015625)"/>
       <path id="DejaVuSans-64" d="M 2906 2969 
L 2906 4863 
L 3481 4863 
L 3481 0 
L 2906 0 
L 2906 525 
Q 2725 213 2448 61 
Q 2172 -91 1784 -91 
Q 1150 -91 751 415 
Q 353 922 353 1747 
Q 353 2572 751 3078 
Q 1150 3584 1784 3584 
Q 2172 3584 2448 3432 
Q 2725 3281 2906 2969 
z
M 947 1747 
Q 947 1113 1208 752 
Q 1469 391 1925 391 
Q 2381 391 2643 752 
Q 2906 1113 2906 1747 
Q 2906 2381 2643 2742 
Q 2381 3103 1925 3103 
Q 1469 3103 1208 2742 
Q 947 2381 947 1747 
z
" transform="scale(0.015625)"/>
      </defs>
      <use xlink:href="#DejaVuSans-48"/>
      <use xlink:href="#DejaVuSans-61" x="75.195312"/>
      <use xlink:href="#DejaVuSans-72" x="136.474609"/>
      <use xlink:href="#DejaVuSans-64" x="175.837891"/>
     </g>
    </g>
    <g id="patch_65">
     <path d="M 611.36125 48.594687 
L 631.36125 48.594687 
L 631.36125 41.594687 
L 611.36125 41.594687 
z
" style="fill: #ffff00"/>
    </g>
    <g id="text_22">
     <!-- Medium -->
     <g transform="translate(639.36125 48.594687) scale(0.1 -0.1)">
      <use xlink:href="#DejaVuSans-4d"/>
      <use xlink:href="#DejaVuSans-65" x="86.279297"/>
      <use xlink:href="#DejaVuSans-64" x="147.802734"/>
      <use xlink:href="#DejaVuSans-69" x="211.279297"/>
      <use xlink:href="#DejaVuSans-75" x="239.0625"/>
      <use xlink:href="#DejaVuSans-6d" x="302.441406"/>
     </g>
    </g>
    <g id="PathCollection_4">
     <g>
      <use xlink:href="#m8199288077" x="621.36125" y="60.647812" style="fill: #1f77b4; stroke: #ffffff; stroke-width: 0.565685"/>
     </g>
    </g>
    <g id="text_23">
     <!-- model Random_Forest -->
     <g transform="translate(639.36125 63.272812) scale(0.1 -0.1)">
      <defs>
       <path id="DejaVuSans-52" d="M 2841 2188 
Q 3044 2119 3236 1894 
Q 3428 1669 3622 1275 
L 4263 0 
L 3584 0 
L 2988 1197 
Q 2756 1666 2539 1819 
Q 2322 1972 1947 1972 
L 1259 1972 
L 1259 0 
L 628 0 
L 628 4666 
L 2053 4666 
Q 2853 4666 3247 4331 
Q 3641 3997 3641 3322 
Q 3641 2881 3436 2590 
Q 3231 2300 2841 2188 
z
M 1259 4147 
L 1259 2491 
L 2053 2491 
Q 2509 2491 2742 2702 
Q 2975 2913 2975 3322 
Q 2975 3731 2742 3939 
Q 2509 4147 2053 4147 
L 1259 4147 
z
" transform="scale(0.015625)"/>
       <path id="DejaVuSans-5f" d="M 3263 -1063 
L 3263 -1509 
L -63 -1509 
L -63 -1063 
L 3263 -1063 
z
" transform="scale(0.015625)"/>
       <path id="DejaVuSans-46" d="M 628 4666 
L 3309 4666 
L 3309 4134 
L 1259 4134 
L 1259 2759 
L 3109 2759 
L 3109 2228 
L 1259 2228 
L 1259 0 
L 628 0 
L 628 4666 
z
" transform="scale(0.015625)"/>
       <path id="DejaVuSans-73" d="M 2834 3397 
L 2834 2853 
Q 2591 2978 2328 3040 
Q 2066 3103 1784 3103 
Q 1356 3103 1142 2972 
Q 928 2841 928 2578 
Q 928 2378 1081 2264 
Q 1234 2150 1697 2047 
L 1894 2003 
Q 2506 1872 2764 1633 
Q 3022 1394 3022 966 
Q 3022 478 2636 193 
Q 2250 -91 1575 -91 
Q 1294 -91 989 -36 
Q 684 19 347 128 
L 347 722 
Q 666 556 975 473 
Q 1284 391 1588 391 
Q 1994 391 2212 530 
Q 2431 669 2431 922 
Q 2431 1156 2273 1281 
Q 2116 1406 1581 1522 
L 1381 1569 
Q 847 1681 609 1914 
Q 372 2147 372 2553 
Q 372 3047 722 3315 
Q 1072 3584 1716 3584 
Q 2034 3584 2315 3537 
Q 2597 3491 2834 3397 
z
" transform="scale(0.015625)"/>
      </defs>
      <use xlink:href="#DejaVuSans-6d"/>
      <use xlink:href="#DejaVuSans-6f" x="97.412109"/>
      <use xlink:href="#DejaVuSans-64" x="158.59375"/>
      <use xlink:href="#DejaVuSans-65" x="222.070312"/>
      <use xlink:href="#DejaVuSans-6c" x="283.59375"/>
      <use xlink:href="#DejaVuSans-20" x="311.376953"/>
      <use xlink:href="#DejaVuSans-52" x="343.164062"/>
      <use xlink:href="#DejaVuSans-61" x="410.396484"/>
      <use xlink:href="#DejaVuSans-6e" x="471.675781"/>
      <use xlink:href="#DejaVuSans-64" x="535.054688"/>
      <use xlink:href="#DejaVuSans-6f" x="598.53125"/>
      <use xlink:href="#DejaVuSans-6d" x="659.712891"/>
      <use xlink:href="#DejaVuSans-5f" x="757.125"/>
      <use xlink:href="#DejaVuSans-46" x="807.125"/>
      <use xlink:href="#DejaVuSans-6f" x="861.019531"/>
      <use xlink:href="#DejaVuSans-72" x="922.201172"/>
      <use xlink:href="#DejaVuSans-65" x="961.064453"/>
      <use xlink:href="#DejaVuSans-73" x="1022.587891"/>
      <use xlink:href="#DejaVuSans-74" x="1074.6875"/>
     </g>
    </g>
    <g id="PathCollection_5">
     <g>
      <use xlink:href="#ma35a8662ad" x="621.36125" y="75.604062" style="fill: #ff7f0e; stroke: #ffffff; stroke-width: 0.565685"/>
     </g>
    </g>
    <g id="text_24">
     <!-- model Neural_Network -->
     <g transform="translate(639.36125 78.229062) scale(0.1 -0.1)">
      <defs>
       <path id="DejaVuSans-77" d="M 269 3500 
L 844 3500 
L 1563 769 
L 2278 3500 
L 2956 3500 
L 3675 769 
L 4391 3500 
L 4966 3500 
L 4050 0 
L 3372 0 
L 2619 2869 
L 1863 0 
L 1184 0 
L 269 3500 
z
" transform="scale(0.015625)"/>
       <path id="DejaVuSans-6b" d="M 581 4863 
L 1159 4863 
L 1159 1991 
L 2875 3500 
L 3609 3500 
L 1753 1863 
L 3688 0 
L 2938 0 
L 1159 1709 
L 1159 0 
L 581 0 
L 581 4863 
z
" transform="scale(0.015625)"/>
      </defs>
      <use xlink:href="#DejaVuSans-6d"/>
      <use xlink:href="#DejaVuSans-6f" x="97.412109"/>
      <use xlink:href="#DejaVuSans-64" x="158.59375"/>
      <use xlink:href="#DejaVuSans-65" x="222.070312"/>
      <use xlink:href="#DejaVuSans-6c" x="283.59375"/>
      <use xlink:href="#DejaVuSans-20" x="311.376953"/>
      <use xlink:href="#DejaVuSans-4e" x="343.164062"/>
      <use xlink:href="#DejaVuSans-65" x="417.96875"/>
      <use xlink:href="#DejaVuSans-75" x="479.492188"/>
      <use xlink:href="#DejaVuSans-72" x="542.871094"/>
      <use xlink:href="#DejaVuSans-61" x="583.984375"/>
      <use xlink:href="#DejaVuSans-6c" x="645.263672"/>
      <use xlink:href="#DejaVuSans-5f" x="673.046875"/>
      <use xlink:href="#DejaVuSans-4e" x="723.046875"/>
      <use xlink:href="#DejaVuSans-65" x="797.851562"/>
      <use xlink:href="#DejaVuSans-74" x="859.375"/>
      <use xlink:href="#DejaVuSans-77" x="898.583984"/>
      <use xlink:href="#DejaVuSans-6f" x="980.371094"/>
      <use xlink:href="#DejaVuSans-72" x="1041.552734"/>
      <use xlink:href="#DejaVuSans-6b" x="1082.666016"/>
     </g>
    </g>
    <g id="PathCollection_6">
     <g>
      <use xlink:href="#m8707a642c5" x="621.36125" y="90.560312" style="fill: #2ca02c; stroke: #ffffff; stroke-width: 0.565685"/>
     </g>
    </g>
    <g id="text_25">
     <!-- model Recurrent_Neural_Network -->
     <g transform="translate(639.36125 93.185312) scale(0.1 -0.1)">
      <defs>
       <path id="DejaVuSans-63" d="M 3122 3366 
L 3122 2828 
Q 2878 2963 2633 3030 
Q 2388 3097 2138 3097 
Q 1578 3097 1268 2742 
Q 959 2388 959 1747 
Q 959 1106 1268 751 
Q 1578 397 2138 397 
Q 2388 397 2633 464 
Q 2878 531 3122 666 
L 3122 134 
Q 2881 22 2623 -34 
Q 2366 -91 2075 -91 
Q 1284 -91 818 406 
Q 353 903 353 1747 
Q 353 2603 823 3093 
Q 1294 3584 2113 3584 
Q 2378 3584 2631 3529 
Q 2884 3475 3122 3366 
z
" transform="scale(0.015625)"/>
      </defs>
      <use xlink:href="#DejaVuSans-6d"/>
      <use xlink:href="#DejaVuSans-6f" x="97.412109"/>
      <use xlink:href="#DejaVuSans-64" x="158.59375"/>
      <use xlink:href="#DejaVuSans-65" x="222.070312"/>
      <use xlink:href="#DejaVuSans-6c" x="283.59375"/>
      <use xlink:href="#DejaVuSans-20" x="311.376953"/>
      <use xlink:href="#DejaVuSans-52" x="343.164062"/>
      <use xlink:href="#DejaVuSans-65" x="408.146484"/>
      <use xlink:href="#DejaVuSans-63" x="469.669922"/>
      <use xlink:href="#DejaVuSans-75" x="524.650391"/>
      <use xlink:href="#DejaVuSans-72" x="588.029297"/>
      <use xlink:href="#DejaVuSans-72" x="627.392578"/>
      <use xlink:href="#DejaVuSans-65" x="666.255859"/>
      <use xlink:href="#DejaVuSans-6e" x="727.779297"/>
      <use xlink:href="#DejaVuSans-74" x="791.158203"/>
      <use xlink:href="#DejaVuSans-5f" x="830.367188"/>
      <use xlink:href="#DejaVuSans-4e" x="880.367188"/>
      <use xlink:href="#DejaVuSans-65" x="955.171875"/>
      <use xlink:href="#DejaVuSans-75" x="1016.695312"/>
      <use xlink:href="#DejaVuSans-72" x="1080.074219"/>
      <use xlink:href="#DejaVuSans-61" x="1121.1875"/>
      <use xlink:href="#DejaVuSans-6c" x="1182.466797"/>
      <use xlink:href="#DejaVuSans-5f" x="1210.25"/>
      <use xlink:href="#DejaVuSans-4e" x="1260.25"/>
      <use xlink:href="#DejaVuSans-65" x="1335.054688"/>
      <use xlink:href="#DejaVuSans-74" x="1396.578125"/>
      <use xlink:href="#DejaVuSans-77" x="1435.787109"/>
      <use xlink:href="#DejaVuSans-6f" x="1517.574219"/>
      <use xlink:href="#DejaVuSans-72" x="1578.755859"/>
      <use xlink:href="#DejaVuSans-6b" x="1619.869141"/>
     </g>
    </g>
   </g>
  </g>
 </g>
 <defs>
  <clipPath id="pe503ce1063">
   <rect x="43.78125" y="22.318125" width="558" height="388.08"/>
  </clipPath>
 </defs>
</svg>
