<?xml version="1.0" encoding="utf-8" standalone="no"?>
<!DOCTYPE svg PUBLIC "-//W3C//DTD SVG 1.1//EN"
  "http://www.w3.org/Graphics/SVG/1.1/DTD/svg11.dtd">
<svg xmlns:xlink="http://www.w3.org/1999/xlink" width="720pt" height="432pt" viewBox="0 0 720 432" xmlns="http://www.w3.org/2000/svg" version="1.1">
 <metadata>
  <rdf:RDF xmlns:dc="http://purl.org/dc/elements/1.1/" xmlns:cc="http://creativecommons.org/ns#" xmlns:rdf="http://www.w3.org/1999/02/22-rdf-syntax-ns#">
   <cc:Work>
    <dc:type rdf:resource="http://purl.org/dc/dcmitype/StillImage"/>
    <dc:date>2023-07-25T17:11:23.018392</dc:date>
    <dc:format>image/svg+xml</dc:format>
    <dc:creator>
     <cc:Agent>
      <dc:title>Matplotlib v3.7.2, https://matplotlib.org/</dc:title>
     </cc:Agent>
    </dc:creator>
   </cc:Work>
  </rdf:RDF>
 </metadata>
 <defs>
  <style type="text/css">*{stroke-linejoin: round; stroke-linecap: butt}</style>
 </defs>
 <g id="figure_1">
  <g id="patch_1">
   <path d="M 0 432 
L 720 432 
L 720 0 
L 0 0 
z
" style="fill: #ffffff"/>
  </g>
  <g id="axes_1">
   <g id="patch_2">
    <path d="M 60.32 390.04 
L 376.220198 390.04 
L 376.220198 34.75125 
L 60.32 34.75125 
z
" style="fill: #ffffff"/>
   </g>
   <g id="PolyCollection_1">
    <defs>
     <path id="me2afd7584e" d="M 87.055115 -41.963505 
L 87.055115 -41.96 
L 88.43605 -41.96 
L 89.816984 -41.96 
L 91.197919 -41.96 
L 92.578853 -41.96 
L 93.959788 -41.96 
L 95.340723 -41.96 
L 96.721657 -41.96 
L 98.102592 -41.96 
L 99.483526 -41.96 
L 100.864461 -41.96 
L 102.245396 -41.96 
L 103.62633 -41.96 
L 105.007265 -41.96 
L 106.388199 -41.96 
L 107.769134 -41.96 
L 109.150068 -41.96 
L 110.531003 -41.96 
L 111.911938 -41.96 
L 113.292872 -41.96 
L 114.673807 -41.96 
L 116.054741 -41.96 
L 117.435676 -41.96 
L 118.816611 -41.96 
L 120.197545 -41.96 
L 121.57848 -41.96 
L 122.959414 -41.96 
L 124.340349 -41.96 
L 125.721284 -41.96 
L 127.102218 -41.96 
L 128.483153 -41.96 
L 129.864087 -41.96 
L 131.245022 -41.96 
L 132.625956 -41.96 
L 134.006891 -41.96 
L 135.387826 -41.96 
L 136.76876 -41.96 
L 138.149695 -41.96 
L 139.530629 -41.96 
L 140.911564 -41.96 
L 142.292499 -41.96 
L 143.673433 -41.96 
L 145.054368 -41.96 
L 146.435302 -41.96 
L 147.816237 -41.96 
L 149.197172 -41.96 
L 150.578106 -41.96 
L 151.959041 -41.96 
L 153.339975 -41.96 
L 154.72091 -41.96 
L 156.101844 -41.96 
L 157.482779 -41.96 
L 158.863714 -41.96 
L 160.244648 -41.96 
L 161.625583 -41.96 
L 163.006517 -41.96 
L 164.387452 -41.96 
L 165.768387 -41.96 
L 167.149321 -41.96 
L 168.530256 -41.96 
L 169.91119 -41.96 
L 171.292125 -41.96 
L 172.67306 -41.96 
L 174.053994 -41.96 
L 175.434929 -41.96 
L 176.815863 -41.96 
L 178.196798 -41.96 
L 179.577732 -41.96 
L 180.958667 -41.96 
L 182.339602 -41.96 
L 183.720536 -41.96 
L 185.101471 -41.96 
L 186.482405 -41.96 
L 187.86334 -41.96 
L 189.244275 -41.96 
L 190.625209 -41.96 
L 192.006144 -41.96 
L 193.387078 -41.96 
L 194.768013 -41.96 
L 196.148948 -41.96 
L 197.529882 -41.96 
L 198.910817 -41.96 
L 200.291751 -41.96 
L 201.672686 -41.96 
L 203.05362 -41.96 
L 204.434555 -41.96 
L 205.81549 -41.96 
L 207.196424 -41.96 
L 208.577359 -41.96 
L 209.958293 -41.96 
L 211.339228 -41.96 
L 212.720163 -41.96 
L 214.101097 -41.96 
L 215.482032 -41.96 
L 216.862966 -41.96 
L 218.243901 -41.96 
L 219.624836 -41.96 
L 221.00577 -41.96 
L 222.386705 -41.96 
L 223.767639 -41.96 
L 225.148574 -41.96 
L 226.529508 -41.96 
L 227.910443 -41.96 
L 229.291378 -41.96 
L 230.672312 -41.96 
L 232.053247 -41.96 
L 233.434181 -41.96 
L 234.815116 -41.96 
L 236.196051 -41.96 
L 237.576985 -41.96 
L 238.95792 -41.96 
L 240.338854 -41.96 
L 241.719789 -41.96 
L 243.100724 -41.96 
L 244.481658 -41.96 
L 245.862593 -41.96 
L 247.243527 -41.96 
L 248.624462 -41.96 
L 250.005396 -41.96 
L 251.386331 -41.96 
L 252.767266 -41.96 
L 254.1482 -41.96 
L 255.529135 -41.96 
L 256.910069 -41.96 
L 258.291004 -41.96 
L 259.671939 -41.96 
L 261.052873 -41.96 
L 262.433808 -41.96 
L 263.814742 -41.96 
L 265.195677 -41.96 
L 266.576612 -41.96 
L 267.957546 -41.96 
L 269.338481 -41.96 
L 270.719415 -41.96 
L 272.10035 -41.96 
L 273.481284 -41.96 
L 274.862219 -41.96 
L 276.243154 -41.96 
L 277.624088 -41.96 
L 279.005023 -41.96 
L 280.385957 -41.96 
L 281.766892 -41.96 
L 283.147827 -41.96 
L 284.528761 -41.96 
L 285.909696 -41.96 
L 287.29063 -41.96 
L 288.671565 -41.96 
L 290.0525 -41.96 
L 291.433434 -41.96 
L 292.814369 -41.96 
L 294.195303 -41.96 
L 295.576238 -41.96 
L 296.957172 -41.96 
L 298.338107 -41.96 
L 299.719042 -41.96 
L 301.099976 -41.96 
L 302.480911 -41.96 
L 303.861845 -41.96 
L 305.24278 -41.96 
L 306.623715 -41.96 
L 308.004649 -41.96 
L 309.385584 -41.96 
L 310.766518 -41.96 
L 312.147453 -41.96 
L 313.528388 -41.96 
L 314.909322 -41.96 
L 316.290257 -41.96 
L 317.671191 -41.96 
L 319.052126 -41.96 
L 320.43306 -41.96 
L 321.813995 -41.96 
L 323.19493 -41.96 
L 324.575864 -41.96 
L 325.956799 -41.96 
L 327.337733 -41.96 
L 328.718668 -41.96 
L 330.099603 -41.96 
L 331.480537 -41.96 
L 332.861472 -41.96 
L 334.242406 -41.96 
L 335.623341 -41.96 
L 337.004276 -41.96 
L 338.38521 -41.96 
L 339.766145 -41.96 
L 341.147079 -41.96 
L 342.528014 -41.96 
L 343.908948 -41.96 
L 345.289883 -41.96 
L 346.670818 -41.96 
L 348.051752 -41.96 
L 349.432687 -41.96 
L 350.813621 -41.96 
L 352.194556 -41.96 
L 353.575491 -41.96 
L 354.956425 -41.96 
L 356.33736 -41.96 
L 357.718294 -41.96 
L 359.099229 -41.96 
L 360.480164 -41.96 
L 361.861098 -41.96 
L 361.861098 -41.962975 
L 361.861098 -41.962975 
L 360.480164 -41.966686 
L 359.099229 -41.974016 
L 357.718294 -41.987441 
L 356.33736 -42.010231 
L 354.956425 -42.046096 
L 353.575491 -42.09842 
L 352.194556 -42.169188 
L 350.813621 -42.257923 
L 349.432687 -42.361089 
L 348.051752 -42.472359 
L 346.670818 -42.583823 
L 345.289883 -42.68784 
L 343.908948 -42.77885 
L 342.528014 -42.854458 
L 341.147079 -42.915339 
L 339.766145 -42.964056 
L 338.38521 -43.003366 
L 337.004276 -43.034831 
L 335.623341 -43.058435 
L 334.242406 -43.073347 
L 332.861472 -43.079301 
L 331.480537 -43.077703 
L 330.099603 -43.071701 
L 328.718668 -43.065134 
L 327.337733 -43.060998 
L 325.956799 -43.060378 
L 324.575864 -43.062482 
L 323.19493 -43.065652 
L 321.813995 -43.068671 
L 320.43306 -43.071535 
L 319.052126 -43.075278 
L 317.671191 -43.081035 
L 316.290257 -43.088915 
L 314.909322 -43.097303 
L 313.528388 -43.10296 
L 312.147453 -43.101977 
L 310.766518 -43.091304 
L 309.385584 -43.070347 
L 308.004649 -43.041959 
L 306.623715 -43.012223 
L 305.24278 -42.988825 
L 303.861845 -42.97839 
L 302.480911 -42.983735 
L 301.099976 -43.002132 
L 299.719042 -43.02538 
L 298.338107 -43.041778 
L 296.957172 -43.039357 
L 295.576238 -43.009296 
L 294.195303 -42.94848 
L 292.814369 -42.860498 
L 291.433434 -42.754962 
L 290.0525 -42.645399 
L 288.671565 -42.546305 
L 287.29063 -42.470019 
L 285.909696 -42.424191 
L 284.528761 -42.41041 
L 283.147827 -42.424275 
L 281.766892 -42.456738 
L 280.385957 -42.496211 
L 279.005023 -42.5309 
L 277.624088 -42.551008 
L 276.243154 -42.550646 
L 274.862219 -42.52929 
L 273.481284 -42.492456 
L 272.10035 -42.451175 
L 270.719415 -42.420071 
L 269.338481 -42.414344 
L 267.957546 -42.446426 
L 266.576612 -42.523256 
L 265.195677 -42.644859 
L 263.814742 -42.804451 
L 262.433808 -42.989814 
L 261.052873 -43.185456 
L 259.671939 -43.375019 
L 258.291004 -43.543574 
L 256.910069 -43.679553 
L 255.529135 -43.776225 
L 254.1482 -43.832679 
L 252.767266 -43.854236 
L 251.386331 -43.852217 
L 250.005396 -43.842883 
L 248.624462 -43.845451 
L 247.243527 -43.87914 
L 245.862593 -43.959501 
L 244.481658 -44.094659 
L 243.100724 -44.282561 
L 241.719789 -44.510483 
L 240.338854 -44.757689 
L 238.95792 -45.001091 
L 237.576985 -45.222317 
L 236.196051 -45.413508 
L 234.815116 -45.579241 
L 233.434181 -45.733464 
L 232.053247 -45.892852 
L 230.672312 -46.070176 
L 229.291378 -46.271903 
L 227.910443 -46.502587 
L 226.529508 -46.77535 
L 225.148574 -47.124276 
L 223.767639 -47.612572 
L 222.386705 -48.330892 
L 221.00577 -49.383253 
L 219.624836 -50.862727 
L 218.243901 -52.823873 
L 216.862966 -55.261722 
L 215.482032 -58.106243 
L 214.101097 -61.236114 
L 212.720163 -64.507947 
L 211.339228 -67.79057 
L 209.958293 -70.99196 
L 208.577359 -74.070504 
L 207.196424 -77.030029 
L 205.81549 -79.905189 
L 204.434555 -82.746161 
L 203.05362 -85.608426 
L 201.672686 -88.547247 
L 200.291751 -91.612264 
L 198.910817 -94.838594 
L 197.529882 -98.236486 
L 196.148948 -101.787347 
L 194.768013 -105.454431 
L 193.387078 -109.209686 
L 192.006144 -113.067952 
L 190.625209 -117.11263 
L 189.244275 -121.498324 
L 187.86334 -126.425142 
L 186.482405 -132.090836 
L 185.101471 -138.634572 
L 183.720536 -146.08744 
L 182.339602 -154.341813 
L 180.958667 -163.147784 
L 179.577732 -172.14112 
L 178.196798 -180.901443 
L 176.815863 -189.030249 
L 175.434929 -196.22795 
L 174.053994 -202.343927 
L 172.67306 -207.379603 
L 171.292125 -211.442221 
L 169.91119 -214.669491 
L 168.530256 -217.161002 
L 167.149321 -218.952168 
L 165.768387 -220.048089 
L 164.387452 -220.504966 
L 163.006517 -220.51877 
L 161.625583 -220.469097 
L 160.244648 -220.87889 
L 158.863714 -222.285309 
L 157.482779 -225.058576 
L 156.101844 -229.234486 
L 154.72091 -234.427827 
L 153.339975 -239.867647 
L 151.959041 -244.553446 
L 150.578106 -247.491246 
L 149.197172 -247.942803 
L 147.816237 -245.615291 
L 146.435302 -240.732865 
L 145.054368 -233.963972 
L 143.673433 -226.223321 
L 142.292499 -218.412008 
L 140.911564 -211.183968 
L 139.530629 -204.816412 
L 138.149695 -199.21711 
L 136.76876 -194.043364 
L 135.387826 -188.866512 
L 134.006891 -183.312392 
L 132.625956 -177.139566 
L 131.245022 -170.259443 
L 129.864087 -162.727683 
L 128.483153 -154.731221 
L 127.102218 -146.569999 
L 125.721284 -138.612114 
L 124.340349 -131.206162 
L 122.959414 -124.565119 
L 121.57848 -118.669973 
L 120.197545 -113.250052 
L 118.816611 -107.867801 
L 117.435676 -102.082706 
L 116.054741 -95.62463 
L 114.673807 -88.49952 
L 113.292872 -80.984693 
L 111.911938 -73.525409 
L 110.531003 -66.587178 
L 109.150068 -60.52805 
L 107.769134 -55.532921 
L 106.388199 -51.615956 
L 105.007265 -48.668768 
L 103.62633 -46.522375 
L 102.245396 -44.998269 
L 100.864461 -43.938387 
L 99.483526 -43.215896 
L 98.102592 -42.734238 
L 96.721657 -42.42159 
L 95.340723 -42.225032 
L 93.959788 -42.105978 
L 92.578853 -42.036843 
L 91.197919 -41.998522 
L 89.816984 -41.978329 
L 88.43605 -41.968252 
L 87.055115 -41.963505 
z
" style="stroke: #1ac938"/>
    </defs>
    <g clip-path="url(#p64b17e80c6)">
     <use xlink:href="#me2afd7584e" x="0" y="432" style="fill: #1ac938; fill-opacity: 0.25; stroke: #1ac938"/>
    </g>
   </g>
   <g id="PolyCollection_2">
    <defs>
     <path id="m1dae8f551f" d="M 77.554704 -41.96133 
L 77.554704 -41.96 
L 78.273148 -41.96 
L 78.991592 -41.96 
L 79.710036 -41.96 
L 80.42848 -41.96 
L 81.146924 -41.96 
L 81.865368 -41.96 
L 82.583812 -41.96 
L 83.302256 -41.96 
L 84.0207 -41.96 
L 84.739144 -41.96 
L 85.457588 -41.96 
L 86.176031 -41.96 
L 86.894475 -41.96 
L 87.612919 -41.96 
L 88.331363 -41.96 
L 89.049807 -41.96 
L 89.768251 -41.96 
L 90.486695 -41.96 
L 91.205139 -41.96 
L 91.923583 -41.96 
L 92.642027 -41.96 
L 93.360471 -41.96 
L 94.078915 -41.96 
L 94.797359 -41.96 
L 95.515803 -41.96 
L 96.234247 -41.96 
L 96.952691 -41.96 
L 97.671135 -41.96 
L 98.389579 -41.96 
L 99.108023 -41.96 
L 99.826467 -41.96 
L 100.544911 -41.96 
L 101.263355 -41.96 
L 101.981799 -41.96 
L 102.700243 -41.96 
L 103.418687 -41.96 
L 104.13713 -41.96 
L 104.855574 -41.96 
L 105.574018 -41.96 
L 106.292462 -41.96 
L 107.010906 -41.96 
L 107.72935 -41.96 
L 108.447794 -41.96 
L 109.166238 -41.96 
L 109.884682 -41.96 
L 110.603126 -41.96 
L 111.32157 -41.96 
L 112.040014 -41.96 
L 112.758458 -41.96 
L 113.476902 -41.96 
L 114.195346 -41.96 
L 114.91379 -41.96 
L 115.632234 -41.96 
L 116.350678 -41.96 
L 117.069122 -41.96 
L 117.787566 -41.96 
L 118.50601 -41.96 
L 119.224454 -41.96 
L 119.942898 -41.96 
L 120.661342 -41.96 
L 121.379785 -41.96 
L 122.098229 -41.96 
L 122.816673 -41.96 
L 123.535117 -41.96 
L 124.253561 -41.96 
L 124.972005 -41.96 
L 125.690449 -41.96 
L 126.408893 -41.96 
L 127.127337 -41.96 
L 127.845781 -41.96 
L 128.564225 -41.96 
L 129.282669 -41.96 
L 130.001113 -41.96 
L 130.719557 -41.96 
L 131.438001 -41.96 
L 132.156445 -41.96 
L 132.874889 -41.96 
L 133.593333 -41.96 
L 134.311777 -41.96 
L 135.030221 -41.96 
L 135.748665 -41.96 
L 136.467109 -41.96 
L 137.185553 -41.96 
L 137.903997 -41.96 
L 138.622441 -41.96 
L 139.340884 -41.96 
L 140.059328 -41.96 
L 140.777772 -41.96 
L 141.496216 -41.96 
L 142.21466 -41.96 
L 142.933104 -41.96 
L 143.651548 -41.96 
L 144.369992 -41.96 
L 145.088436 -41.96 
L 145.80688 -41.96 
L 146.525324 -41.96 
L 147.243768 -41.96 
L 147.962212 -41.96 
L 148.680656 -41.96 
L 149.3991 -41.96 
L 150.117544 -41.96 
L 150.835988 -41.96 
L 151.554432 -41.96 
L 152.272876 -41.96 
L 152.99132 -41.96 
L 153.709764 -41.96 
L 154.428208 -41.96 
L 155.146652 -41.96 
L 155.865096 -41.96 
L 156.583539 -41.96 
L 157.301983 -41.96 
L 158.020427 -41.96 
L 158.738871 -41.96 
L 159.457315 -41.96 
L 160.175759 -41.96 
L 160.894203 -41.96 
L 161.612647 -41.96 
L 162.331091 -41.96 
L 163.049535 -41.96 
L 163.767979 -41.96 
L 164.486423 -41.96 
L 165.204867 -41.96 
L 165.923311 -41.96 
L 166.641755 -41.96 
L 167.360199 -41.96 
L 168.078643 -41.96 
L 168.797087 -41.96 
L 169.515531 -41.96 
L 170.233975 -41.96 
L 170.952419 -41.96 
L 171.670863 -41.96 
L 172.389307 -41.96 
L 173.107751 -41.96 
L 173.826195 -41.96 
L 174.544638 -41.96 
L 175.263082 -41.96 
L 175.981526 -41.96 
L 176.69997 -41.96 
L 177.418414 -41.96 
L 178.136858 -41.96 
L 178.855302 -41.96 
L 179.573746 -41.96 
L 180.29219 -41.96 
L 181.010634 -41.96 
L 181.729078 -41.96 
L 182.447522 -41.96 
L 183.165966 -41.96 
L 183.88441 -41.96 
L 184.602854 -41.96 
L 185.321298 -41.96 
L 186.039742 -41.96 
L 186.758186 -41.96 
L 187.47663 -41.96 
L 188.195074 -41.96 
L 188.913518 -41.96 
L 189.631962 -41.96 
L 190.350406 -41.96 
L 191.06885 -41.96 
L 191.787293 -41.96 
L 192.505737 -41.96 
L 193.224181 -41.96 
L 193.942625 -41.96 
L 194.661069 -41.96 
L 195.379513 -41.96 
L 196.097957 -41.96 
L 196.816401 -41.96 
L 197.534845 -41.96 
L 198.253289 -41.96 
L 198.971733 -41.96 
L 199.690177 -41.96 
L 200.408621 -41.96 
L 201.127065 -41.96 
L 201.845509 -41.96 
L 202.563953 -41.96 
L 203.282397 -41.96 
L 204.000841 -41.96 
L 204.719285 -41.96 
L 205.437729 -41.96 
L 206.156173 -41.96 
L 206.874617 -41.96 
L 207.593061 -41.96 
L 208.311505 -41.96 
L 209.029949 -41.96 
L 209.748392 -41.96 
L 210.466836 -41.96 
L 211.18528 -41.96 
L 211.903724 -41.96 
L 212.622168 -41.96 
L 213.340612 -41.96 
L 214.059056 -41.96 
L 214.7775 -41.96 
L 215.495944 -41.96 
L 216.214388 -41.96 
L 216.932832 -41.96 
L 217.651276 -41.96 
L 218.36972 -41.96 
L 219.088164 -41.96 
L 219.806608 -41.96 
L 220.525052 -41.96 
L 220.525052 -41.967481 
L 220.525052 -41.967481 
L 219.806608 -41.983249 
L 219.088164 -42.023935 
L 218.36972 -42.115815 
L 217.651276 -42.29714 
L 216.932832 -42.609121 
L 216.214388 -43.075386 
L 215.495944 -43.677156 
L 214.7775 -44.34153 
L 214.059056 -44.959121 
L 213.340612 -45.429382 
L 212.622168 -45.708635 
L 211.903724 -45.829115 
L 211.18528 -45.876423 
L 210.466836 -45.942286 
L 209.748392 -46.083907 
L 209.029949 -46.310734 
L 208.311505 -46.596945 
L 207.593061 -46.903072 
L 206.874617 -47.191273 
L 206.156173 -47.430302 
L 205.437729 -47.596513 
L 204.719285 -47.678444 
L 204.000841 -47.685087 
L 203.282397 -47.650333 
L 202.563953 -47.626252 
L 201.845509 -47.665542 
L 201.127065 -47.80112 
L 200.408621 -48.032388 
L 199.690177 -48.324029 
L 198.971733 -48.618094 
L 198.253289 -48.855599 
L 197.534845 -49.000242 
L 196.816401 -49.054797 
L 196.097957 -49.061536 
L 195.379513 -49.083374 
L 194.661069 -49.172709 
L 193.942625 -49.344483 
L 193.224181 -49.569549 
L 192.505737 -49.791522 
L 191.787293 -49.954694 
L 191.06885 -50.025772 
L 190.350406 -50.000674 
L 189.631962 -49.899888 
L 188.913518 -49.760639 
L 188.195074 -49.630164 
L 187.47663 -49.558882 
L 186.758186 -49.591589 
L 186.039742 -49.757348 
L 185.321298 -50.060224 
L 184.602854 -50.473391 
L 183.88441 -50.94081 
L 183.165966 -51.39149 
L 182.447522 -51.765704 
L 181.729078 -52.041537 
L 181.010634 -52.244897 
L 180.29219 -52.434855 
L 179.573746 -52.672993 
L 178.855302 -52.995415 
L 178.136858 -53.40234 
L 177.418414 -53.868166 
L 176.69997 -54.362411 
L 175.981526 -54.865067 
L 175.263082 -55.364015 
L 174.544638 -55.838159 
L 173.826195 -56.246286 
L 173.107751 -56.542137 
L 172.389307 -56.7164 
L 171.670863 -56.840974 
L 170.952419 -57.081406 
L 170.233975 -57.660118 
L 169.515531 -58.784324 
L 168.797087 -60.573643 
L 168.078643 -63.020314 
L 167.360199 -65.999126 
L 166.641755 -69.328607 
L 165.923311 -72.868085 
L 165.204867 -76.612181 
L 164.486423 -80.730499 
L 163.767979 -85.520097 
L 163.049535 -91.287193 
L 162.331091 -98.21354 
L 161.612647 -106.260754 
L 160.894203 -115.133922 
L 160.175759 -124.299344 
L 159.457315 -133.048836 
L 158.738871 -140.612986 
L 158.020427 -146.323964 
L 157.301983 -149.80126 
L 156.583539 -151.097039 
L 155.865096 -150.729937 
L 155.146652 -149.578823 
L 154.428208 -148.675828 
L 153.709764 -148.981821 
L 152.99132 -151.222117 
L 152.272876 -155.817078 
L 151.554432 -162.889475 
L 150.835988 -172.295338 
L 150.117544 -183.627649 
L 149.3991 -196.187544 
L 148.680656 -208.982498 
L 147.962212 -220.840566 
L 147.243768 -230.672863 
L 146.525324 -237.792605 
L 145.80688 -242.117071 
L 145.088436 -244.136394 
L 144.369992 -244.691125 
L 143.651548 -244.709659 
L 142.933104 -245.025969 
L 142.21466 -246.288821 
L 141.496216 -248.906754 
L 140.777772 -252.992319 
L 140.059328 -258.323365 
L 139.340884 -264.360499 
L 138.622441 -270.329716 
L 137.903997 -275.336491 
L 137.185553 -278.477382 
L 136.467109 -278.958987 
L 135.748665 -276.253131 
L 135.030221 -270.262391 
L 134.311777 -261.402321 
L 133.593333 -250.529153 
L 132.874889 -238.749667 
L 132.156445 -227.227054 
L 131.438001 -217.070244 
L 130.719557 -209.313078 
L 130.001113 -204.935816 
L 129.282669 -204.87362 
L 128.564225 -209.968025 
L 127.845781 -220.830895 
L 127.127337 -237.615385 
L 126.408893 -259.742076 
L 125.690449 -285.700725 
L 124.972005 -313.079085 
L 124.253561 -338.895655 
L 123.535117 -360.156361 
L 122.816673 -374.438642 
L 122.098229 -380.330238 
L 121.379785 -377.675623 
L 120.661342 -367.666965 
L 119.942898 -352.767544 
L 119.224454 -336.349524 
L 118.50601 -321.946985 
L 117.787566 -312.247766 
L 117.069122 -308.210237 
L 116.350678 -308.726148 
L 115.632234 -310.989646 
L 114.91379 -311.395177 
L 114.195346 -306.622273 
L 113.476902 -294.590091 
L 112.758458 -275.0407 
L 112.040014 -249.593361 
L 111.32157 -221.273123 
L 110.603126 -193.735049 
L 109.884682 -170.508731 
L 109.166238 -154.46388 
L 108.447794 -147.463102 
L 107.72935 -150.052923 
L 107.010906 -161.14808 
L 106.292462 -177.869159 
L 105.574018 -195.797913 
L 104.855574 -209.807707 
L 104.13713 -215.350309 
L 103.418687 -209.783375 
L 102.700243 -193.189124 
L 101.981799 -168.289054 
L 101.263355 -139.460959 
L 100.544911 -111.288846 
L 99.826467 -87.265538 
L 99.108023 -69.122768 
L 98.389579 -56.902918 
L 97.671135 -49.540929 
L 96.952691 -45.575253 
L 96.234247 -43.683382 
L 95.515803 -42.931892 
L 94.797359 -42.799101 
L 94.078915 -43.092562 
L 93.360471 -43.855157 
L 92.642027 -45.287953 
L 91.923583 -47.663971 
L 91.205139 -51.192699 
L 90.486695 -55.831603 
L 89.768251 -61.114459 
L 89.049807 -66.124468 
L 88.331363 -69.710339 
L 87.612919 -70.904653 
L 86.894475 -69.341824 
L 86.176031 -65.430628 
L 85.457588 -60.173651 
L 84.739144 -54.745269 
L 84.0207 -50.070532 
L 83.302256 -46.604818 
L 82.583812 -44.359054 
L 81.865368 -43.076699 
L 81.146924 -42.428306 
L 80.42848 -42.137009 
L 79.710036 -42.02038 
L 78.991592 -41.97863 
L 78.273148 -41.965216 
L 77.554704 -41.96133 
z
" style="stroke: #ff7c00"/>
    </defs>
    <g clip-path="url(#p64b17e80c6)">
     <use xlink:href="#m1dae8f551f" x="0" y="432" style="fill: #ff7c00; fill-opacity: 0.25; stroke: #ff7c00"/>
    </g>
   </g>
   <g id="PolyCollection_3">
    <defs>
     <path id="m14b94057ee" d="M 74.6791 -41.971348 
L 74.6791 -41.96 
L 75.446778 -41.96 
L 76.214457 -41.96 
L 76.982135 -41.96 
L 77.749814 -41.96 
L 78.517492 -41.96 
L 79.285171 -41.96 
L 80.052849 -41.96 
L 80.820528 -41.96 
L 81.588206 -41.96 
L 82.355884 -41.96 
L 83.123563 -41.96 
L 83.891241 -41.96 
L 84.65892 -41.96 
L 85.426598 -41.96 
L 86.194277 -41.96 
L 86.961955 -41.96 
L 87.729634 -41.96 
L 88.497312 -41.96 
L 89.264991 -41.96 
L 90.032669 -41.96 
L 90.800347 -41.96 
L 91.568026 -41.96 
L 92.335704 -41.96 
L 93.103383 -41.96 
L 93.871061 -41.96 
L 94.63874 -41.96 
L 95.406418 -41.96 
L 96.174097 -41.96 
L 96.941775 -41.96 
L 97.709454 -41.96 
L 98.477132 -41.96 
L 99.24481 -41.96 
L 100.012489 -41.96 
L 100.780167 -41.96 
L 101.547846 -41.96 
L 102.315524 -41.96 
L 103.083203 -41.96 
L 103.850881 -41.96 
L 104.61856 -41.96 
L 105.386238 -41.96 
L 106.153917 -41.96 
L 106.921595 -41.96 
L 107.689273 -41.96 
L 108.456952 -41.96 
L 109.22463 -41.96 
L 109.992309 -41.96 
L 110.759987 -41.96 
L 111.527666 -41.96 
L 112.295344 -41.96 
L 113.063023 -41.96 
L 113.830701 -41.96 
L 114.59838 -41.96 
L 115.366058 -41.96 
L 116.133736 -41.96 
L 116.901415 -41.96 
L 117.669093 -41.96 
L 118.436772 -41.96 
L 119.20445 -41.96 
L 119.972129 -41.96 
L 120.739807 -41.96 
L 121.507486 -41.96 
L 122.275164 -41.96 
L 123.042842 -41.96 
L 123.810521 -41.96 
L 124.578199 -41.96 
L 125.345878 -41.96 
L 126.113556 -41.96 
L 126.881235 -41.96 
L 127.648913 -41.96 
L 128.416592 -41.96 
L 129.18427 -41.96 
L 129.951949 -41.96 
L 130.719627 -41.96 
L 131.487305 -41.96 
L 132.254984 -41.96 
L 133.022662 -41.96 
L 133.790341 -41.96 
L 134.558019 -41.96 
L 135.325698 -41.96 
L 136.093376 -41.96 
L 136.861055 -41.96 
L 137.628733 -41.96 
L 138.396412 -41.96 
L 139.16409 -41.96 
L 139.931768 -41.96 
L 140.699447 -41.96 
L 141.467125 -41.96 
L 142.234804 -41.96 
L 143.002482 -41.96 
L 143.770161 -41.96 
L 144.537839 -41.96 
L 145.305518 -41.96 
L 146.073196 -41.96 
L 146.840875 -41.96 
L 147.608553 -41.96 
L 148.376231 -41.96 
L 149.14391 -41.96 
L 149.911588 -41.96 
L 150.679267 -41.96 
L 151.446945 -41.96 
L 152.214624 -41.96 
L 152.982302 -41.96 
L 153.749981 -41.96 
L 154.517659 -41.96 
L 155.285338 -41.96 
L 156.053016 -41.96 
L 156.820694 -41.96 
L 157.588373 -41.96 
L 158.356051 -41.96 
L 159.12373 -41.96 
L 159.891408 -41.96 
L 160.659087 -41.96 
L 161.426765 -41.96 
L 162.194444 -41.96 
L 162.962122 -41.96 
L 163.729801 -41.96 
L 164.497479 -41.96 
L 165.265157 -41.96 
L 166.032836 -41.96 
L 166.800514 -41.96 
L 167.568193 -41.96 
L 168.335871 -41.96 
L 169.10355 -41.96 
L 169.871228 -41.96 
L 170.638907 -41.96 
L 171.406585 -41.96 
L 172.174264 -41.96 
L 172.941942 -41.96 
L 173.70962 -41.96 
L 174.477299 -41.96 
L 175.244977 -41.96 
L 176.012656 -41.96 
L 176.780334 -41.96 
L 177.548013 -41.96 
L 178.315691 -41.96 
L 179.08337 -41.96 
L 179.851048 -41.96 
L 180.618727 -41.96 
L 181.386405 -41.96 
L 182.154083 -41.96 
L 182.921762 -41.96 
L 183.68944 -41.96 
L 184.457119 -41.96 
L 185.224797 -41.96 
L 185.992476 -41.96 
L 186.760154 -41.96 
L 187.527833 -41.96 
L 188.295511 -41.96 
L 189.06319 -41.96 
L 189.830868 -41.96 
L 190.598546 -41.96 
L 191.366225 -41.96 
L 192.133903 -41.96 
L 192.901582 -41.96 
L 193.66926 -41.96 
L 194.436939 -41.96 
L 195.204617 -41.96 
L 195.972296 -41.96 
L 196.739974 -41.96 
L 197.507652 -41.96 
L 198.275331 -41.96 
L 199.043009 -41.96 
L 199.810688 -41.96 
L 200.578366 -41.96 
L 201.346045 -41.96 
L 202.113723 -41.96 
L 202.881402 -41.96 
L 203.64908 -41.96 
L 204.416759 -41.96 
L 205.184437 -41.96 
L 205.952115 -41.96 
L 206.719794 -41.96 
L 207.487472 -41.96 
L 208.255151 -41.96 
L 209.022829 -41.96 
L 209.790508 -41.96 
L 210.558186 -41.96 
L 211.325865 -41.96 
L 212.093543 -41.96 
L 212.861222 -41.96 
L 213.6289 -41.96 
L 214.396578 -41.96 
L 215.164257 -41.96 
L 215.931935 -41.96 
L 216.699614 -41.96 
L 217.467292 -41.96 
L 218.234971 -41.96 
L 219.002649 -41.96 
L 219.770328 -41.96 
L 220.538006 -41.96 
L 221.305685 -41.96 
L 222.073363 -41.96 
L 222.841041 -41.96 
L 223.60872 -41.96 
L 224.376398 -41.96 
L 225.144077 -41.96 
L 225.911755 -41.96 
L 226.679434 -41.96 
L 227.447112 -41.96 
L 227.447112 -41.979287 
L 227.447112 -41.979287 
L 226.679434 -41.992155 
L 225.911755 -42.01227 
L 225.144077 -42.04286 
L 224.376398 -42.08813 
L 223.60872 -42.15333 
L 222.841041 -42.244731 
L 222.073363 -42.369473 
L 221.305685 -42.535256 
L 220.538006 -42.749884 
L 219.770328 -43.020671 
L 219.002649 -43.353793 
L 218.234971 -43.753656 
L 217.467292 -44.222399 
L 216.699614 -44.759625 
L 215.931935 -45.362437 
L 215.164257 -46.025815 
L 214.396578 -46.743291 
L 213.6289 -47.507849 
L 212.861222 -48.3129 
L 212.093543 -49.153186 
L 211.325865 -50.025461 
L 210.558186 -50.928839 
L 209.790508 -51.864744 
L 209.022829 -52.836485 
L 208.255151 -53.848505 
L 207.487472 -54.905422 
L 206.719794 -56.011001 
L 205.952115 -57.167194 
L 205.184437 -58.373363 
L 204.416759 -59.625801 
L 203.64908 -60.917572 
L 202.881402 -62.238694 
L 202.113723 -63.57661 
L 201.346045 -64.916878 
L 200.578366 -66.243976 
L 199.810688 -67.542152 
L 199.043009 -68.796265 
L 198.275331 -69.99259 
L 197.507652 -71.119642 
L 196.739974 -72.169069 
L 195.972296 -73.13665 
L 195.204617 -74.02343 
L 194.436939 -74.836892 
L 193.66926 -75.592037 
L 192.901582 -76.312138 
L 192.133903 -77.028921 
L 191.366225 -77.781958 
L 190.598546 -78.617153 
L 189.830868 -79.584351 
L 189.06319 -80.734259 
L 188.295511 -82.115026 
L 187.527833 -83.768929 
L 186.760154 -85.72962 
L 185.992476 -88.020307 
L 185.224797 -90.65308 
L 184.457119 -93.629362 
L 183.68944 -96.941244 
L 182.921762 -100.573266 
L 182.154083 -104.504118 
L 181.386405 -108.707801 
L 180.618727 -113.153904 
L 179.851048 -117.806919 
L 179.08337 -122.624818 
L 178.315691 -127.557291 
L 177.548013 -132.54424 
L 176.780334 -137.515098 
L 176.012656 -142.389424 
L 175.244977 -147.078998 
L 174.477299 -151.4914 
L 173.70962 -155.534785 
L 172.941942 -159.123427 
L 172.174264 -162.183512 
L 171.406585 -164.658701 
L 170.638907 -166.515048 
L 169.871228 -167.744988 
L 169.10355 -168.370195 
L 168.335871 -168.44315 
L 167.568193 -168.047304 
L 166.800514 -167.295671 
L 166.032836 -166.327734 
L 165.265157 -165.304577 
L 164.497479 -164.402281 
L 163.729801 -163.803788 
L 162.962122 -163.689624 
L 162.194444 -164.228017 
L 161.426765 -165.565059 
L 160.659087 -167.815532 
L 159.891408 -171.054995 
L 159.12373 -175.313589 
L 158.356051 -180.57196 
L 157.588373 -186.759596 
L 156.820694 -193.755862 
L 156.053016 -201.39393 
L 155.285338 -209.467722 
L 154.517659 -217.741749 
L 153.749981 -225.963474 
L 152.982302 -233.877466 
L 152.214624 -241.240329 
L 151.446945 -247.835227 
L 150.679267 -253.484797 
L 149.911588 -258.061487 
L 149.14391 -261.494612 
L 148.376231 -263.773796 
L 147.608553 -264.948733 
L 146.840875 -265.125337 
L 146.073196 -264.458378 
L 145.305518 -263.140712 
L 144.537839 -261.38931 
L 143.770161 -259.428586 
L 143.002482 -257.47199 
L 142.234804 -255.703504 
L 141.467125 -254.261177 
L 140.699447 -253.225118 
L 139.931768 -252.612111 
L 139.16409 -252.378161 
L 138.396412 -252.428991 
L 137.628733 -252.636906 
L 136.861055 -252.86111 
L 136.093376 -252.967631 
L 135.325698 -252.845056 
L 134.558019 -252.413116 
L 133.790341 -251.622852 
L 133.022662 -250.449081 
L 132.254984 -248.877791 
L 131.487305 -246.892383 
L 130.719627 -244.462916 
L 129.951949 -241.541787 
L 129.18427 -238.067521 
L 128.416592 -233.97624 
L 127.648913 -229.218247 
L 126.881235 -223.77575 
L 126.113556 -217.677266 
L 125.345878 -211.004992 
L 124.578199 -203.893027 
L 123.810521 -196.516508 
L 123.042842 -189.073815 
L 122.275164 -181.765488 
L 121.507486 -174.773992 
L 120.739807 -168.247929 
L 119.972129 -162.292816 
L 119.20445 -156.968754 
L 118.436772 -152.293531 
L 117.669093 -148.248668 
L 116.901415 -144.785697 
L 116.133736 -141.830695 
L 115.366058 -139.286422 
L 114.59838 -137.0329 
L 113.830701 -134.928355 
L 113.063023 -132.812808 
L 112.295344 -130.516091 
L 111.527666 -127.870776 
L 110.759987 -124.728943 
L 109.992309 -120.980256 
L 109.22463 -116.567969 
L 108.456952 -111.499522 
L 107.689273 -105.849257 
L 106.921595 -99.752338 
L 106.153917 -93.390689 
L 105.386238 -86.973284 
L 104.61856 -80.714057 
L 103.850881 -74.810897 
L 103.083203 -69.428607 
L 102.315524 -64.687679 
L 101.547846 -60.659452 
L 100.780167 -57.367089 
L 100.012489 -54.790996 
L 99.24481 -52.876951 
L 98.477132 -51.545316 
L 97.709454 -50.700052 
L 96.941775 -50.23679 
L 96.174097 -50.049699 
L 95.406418 -50.037181 
L 94.63874 -50.106611 
L 93.871061 -50.178239 
L 93.103383 -50.188285 
L 92.335704 -50.091077 
L 91.568026 -49.859994 
L 90.800347 -49.48703 
L 90.032669 -48.980894 
L 89.264991 -48.363805 
L 88.497312 -47.667314 
L 87.729634 -46.927694 
L 86.961955 -46.181455 
L 86.194277 -45.461537 
L 85.426598 -44.794549 
L 84.65892 -44.199245 
L 83.891241 -43.686207 
L 83.123563 -43.258527 
L 82.355884 -42.913189 
L 81.588206 -42.642788 
L 80.820528 -42.437293 
L 80.052849 -42.285607 
L 79.285171 -42.176785 
L 78.517492 -42.100867 
L 77.749814 -42.049341 
L 76.982135 -42.015306 
L 76.214457 -41.993418 
L 75.446778 -41.97971 
L 74.6791 -41.971348 
z
" style="stroke: #023eff"/>
    </defs>
    <g clip-path="url(#p64b17e80c6)">
     <use xlink:href="#m14b94057ee" x="0" y="432" style="fill: #023eff; fill-opacity: 0.25; stroke: #023eff"/>
    </g>
   </g>
   <g id="matplotlib.axis_1">
    <g id="xtick_1">
     <g id="line2d_1">
      <defs>
       <path id="m3fd1bf84c3" d="M 0 0 
L 0 3.5 
" style="stroke: #000000; stroke-width: 0.8"/>
      </defs>
      <g>
       <use xlink:href="#m3fd1bf84c3" x="75.992135" y="390.04" style="stroke: #000000; stroke-width: 0.8"/>
      </g>
     </g>
     <g id="text_1">
      <!-- 50 -->
      <g transform="translate(69.629635 404.638438) scale(0.1 -0.1)">
       <defs>
        <path id="DejaVuSans-35" d="M 691 4666 
L 3169 4666 
L 3169 4134 
L 1269 4134 
L 1269 2991 
Q 1406 3038 1543 3061 
Q 1681 3084 1819 3084 
Q 2600 3084 3056 2656 
Q 3513 2228 3513 1497 
Q 3513 744 3044 326 
Q 2575 -91 1722 -91 
Q 1428 -91 1123 -41 
Q 819 9 494 109 
L 494 744 
Q 775 591 1075 516 
Q 1375 441 1709 441 
Q 2250 441 2565 725 
Q 2881 1009 2881 1497 
Q 2881 1984 2565 2268 
Q 2250 2553 1709 2553 
Q 1456 2553 1204 2497 
Q 953 2441 691 2322 
L 691 4666 
z
" transform="scale(0.015625)"/>
        <path id="DejaVuSans-30" d="M 2034 4250 
Q 1547 4250 1301 3770 
Q 1056 3291 1056 2328 
Q 1056 1369 1301 889 
Q 1547 409 2034 409 
Q 2525 409 2770 889 
Q 3016 1369 3016 2328 
Q 3016 3291 2770 3770 
Q 2525 4250 2034 4250 
z
M 2034 4750 
Q 2819 4750 3233 4129 
Q 3647 3509 3647 2328 
Q 3647 1150 3233 529 
Q 2819 -91 2034 -91 
Q 1250 -91 836 529 
Q 422 1150 422 2328 
Q 422 3509 836 4129 
Q 1250 4750 2034 4750 
z
" transform="scale(0.015625)"/>
       </defs>
       <use xlink:href="#DejaVuSans-35"/>
       <use xlink:href="#DejaVuSans-30" x="63.623047"/>
      </g>
     </g>
    </g>
    <g id="xtick_2">
     <g id="line2d_2">
      <g>
       <use xlink:href="#m3fd1bf84c3" x="145.304628" y="390.04" style="stroke: #000000; stroke-width: 0.8"/>
      </g>
     </g>
     <g id="text_2">
      <!-- 100 -->
      <g transform="translate(135.760878 404.638438) scale(0.1 -0.1)">
       <defs>
        <path id="DejaVuSans-31" d="M 794 531 
L 1825 531 
L 1825 4091 
L 703 3866 
L 703 4441 
L 1819 4666 
L 2450 4666 
L 2450 531 
L 3481 531 
L 3481 0 
L 794 0 
L 794 531 
z
" transform="scale(0.015625)"/>
       </defs>
       <use xlink:href="#DejaVuSans-31"/>
       <use xlink:href="#DejaVuSans-30" x="63.623047"/>
       <use xlink:href="#DejaVuSans-30" x="127.246094"/>
      </g>
     </g>
    </g>
    <g id="xtick_3">
     <g id="line2d_3">
      <g>
       <use xlink:href="#m3fd1bf84c3" x="214.61712" y="390.04" style="stroke: #000000; stroke-width: 0.8"/>
      </g>
     </g>
     <g id="text_3">
      <!-- 150 -->
      <g transform="translate(205.07337 404.638438) scale(0.1 -0.1)">
       <use xlink:href="#DejaVuSans-31"/>
       <use xlink:href="#DejaVuSans-35" x="63.623047"/>
       <use xlink:href="#DejaVuSans-30" x="127.246094"/>
      </g>
     </g>
    </g>
    <g id="xtick_4">
     <g id="line2d_4">
      <g>
       <use xlink:href="#m3fd1bf84c3" x="283.929613" y="390.04" style="stroke: #000000; stroke-width: 0.8"/>
      </g>
     </g>
     <g id="text_4">
      <!-- 200 -->
      <g transform="translate(274.385863 404.638438) scale(0.1 -0.1)">
       <defs>
        <path id="DejaVuSans-32" d="M 1228 531 
L 3431 531 
L 3431 0 
L 469 0 
L 469 531 
Q 828 903 1448 1529 
Q 2069 2156 2228 2338 
Q 2531 2678 2651 2914 
Q 2772 3150 2772 3378 
Q 2772 3750 2511 3984 
Q 2250 4219 1831 4219 
Q 1534 4219 1204 4116 
Q 875 4013 500 3803 
L 500 4441 
Q 881 4594 1212 4672 
Q 1544 4750 1819 4750 
Q 2544 4750 2975 4387 
Q 3406 4025 3406 3419 
Q 3406 3131 3298 2873 
Q 3191 2616 2906 2266 
Q 2828 2175 2409 1742 
Q 1991 1309 1228 531 
z
" transform="scale(0.015625)"/>
       </defs>
       <use xlink:href="#DejaVuSans-32"/>
       <use xlink:href="#DejaVuSans-30" x="63.623047"/>
       <use xlink:href="#DejaVuSans-30" x="127.246094"/>
      </g>
     </g>
    </g>
    <g id="xtick_5">
     <g id="line2d_5">
      <g>
       <use xlink:href="#m3fd1bf84c3" x="353.242105" y="390.04" style="stroke: #000000; stroke-width: 0.8"/>
      </g>
     </g>
     <g id="text_5">
      <!-- 250 -->
      <g transform="translate(343.698355 404.638438) scale(0.1 -0.1)">
       <use xlink:href="#DejaVuSans-32"/>
       <use xlink:href="#DejaVuSans-35" x="63.623047"/>
       <use xlink:href="#DejaVuSans-30" x="127.246094"/>
      </g>
     </g>
    </g>
    <g id="text_6">
     <!-- LapTime -->
     <g transform="translate(197.012287 418.316562) scale(0.1 -0.1)">
      <defs>
       <path id="DejaVuSans-4c" d="M 628 4666 
L 1259 4666 
L 1259 531 
L 3531 531 
L 3531 0 
L 628 0 
L 628 4666 
z
" transform="scale(0.015625)"/>
       <path id="DejaVuSans-61" d="M 2194 1759 
Q 1497 1759 1228 1600 
Q 959 1441 959 1056 
Q 959 750 1161 570 
Q 1363 391 1709 391 
Q 2188 391 2477 730 
Q 2766 1069 2766 1631 
L 2766 1759 
L 2194 1759 
z
M 3341 1997 
L 3341 0 
L 2766 0 
L 2766 531 
Q 2569 213 2275 61 
Q 1981 -91 1556 -91 
Q 1019 -91 701 211 
Q 384 513 384 1019 
Q 384 1609 779 1909 
Q 1175 2209 1959 2209 
L 2766 2209 
L 2766 2266 
Q 2766 2663 2505 2880 
Q 2244 3097 1772 3097 
Q 1472 3097 1187 3025 
Q 903 2953 641 2809 
L 641 3341 
Q 956 3463 1253 3523 
Q 1550 3584 1831 3584 
Q 2591 3584 2966 3190 
Q 3341 2797 3341 1997 
z
" transform="scale(0.015625)"/>
       <path id="DejaVuSans-70" d="M 1159 525 
L 1159 -1331 
L 581 -1331 
L 581 3500 
L 1159 3500 
L 1159 2969 
Q 1341 3281 1617 3432 
Q 1894 3584 2278 3584 
Q 2916 3584 3314 3078 
Q 3713 2572 3713 1747 
Q 3713 922 3314 415 
Q 2916 -91 2278 -91 
Q 1894 -91 1617 61 
Q 1341 213 1159 525 
z
M 3116 1747 
Q 3116 2381 2855 2742 
Q 2594 3103 2138 3103 
Q 1681 3103 1420 2742 
Q 1159 2381 1159 1747 
Q 1159 1113 1420 752 
Q 1681 391 2138 391 
Q 2594 391 2855 752 
Q 3116 1113 3116 1747 
z
" transform="scale(0.015625)"/>
       <path id="DejaVuSans-54" d="M -19 4666 
L 3928 4666 
L 3928 4134 
L 2272 4134 
L 2272 0 
L 1638 0 
L 1638 4134 
L -19 4134 
L -19 4666 
z
" transform="scale(0.015625)"/>
       <path id="DejaVuSans-69" d="M 603 3500 
L 1178 3500 
L 1178 0 
L 603 0 
L 603 3500 
z
M 603 4863 
L 1178 4863 
L 1178 4134 
L 603 4134 
L 603 4863 
z
" transform="scale(0.015625)"/>
       <path id="DejaVuSans-6d" d="M 3328 2828 
Q 3544 3216 3844 3400 
Q 4144 3584 4550 3584 
Q 5097 3584 5394 3201 
Q 5691 2819 5691 2113 
L 5691 0 
L 5113 0 
L 5113 2094 
Q 5113 2597 4934 2840 
Q 4756 3084 4391 3084 
Q 3944 3084 3684 2787 
Q 3425 2491 3425 1978 
L 3425 0 
L 2847 0 
L 2847 2094 
Q 2847 2600 2669 2842 
Q 2491 3084 2119 3084 
Q 1678 3084 1418 2786 
Q 1159 2488 1159 1978 
L 1159 0 
L 581 0 
L 581 3500 
L 1159 3500 
L 1159 2956 
Q 1356 3278 1631 3431 
Q 1906 3584 2284 3584 
Q 2666 3584 2933 3390 
Q 3200 3197 3328 2828 
z
" transform="scale(0.015625)"/>
       <path id="DejaVuSans-65" d="M 3597 1894 
L 3597 1613 
L 953 1613 
Q 991 1019 1311 708 
Q 1631 397 2203 397 
Q 2534 397 2845 478 
Q 3156 559 3463 722 
L 3463 178 
Q 3153 47 2828 -22 
Q 2503 -91 2169 -91 
Q 1331 -91 842 396 
Q 353 884 353 1716 
Q 353 2575 817 3079 
Q 1281 3584 2069 3584 
Q 2775 3584 3186 3129 
Q 3597 2675 3597 1894 
z
M 3022 2063 
Q 3016 2534 2758 2815 
Q 2500 3097 2075 3097 
Q 1594 3097 1305 2825 
Q 1016 2553 972 2059 
L 3022 2063 
z
" transform="scale(0.015625)"/>
      </defs>
      <use xlink:href="#DejaVuSans-4c"/>
      <use xlink:href="#DejaVuSans-61" x="55.712891"/>
      <use xlink:href="#DejaVuSans-70" x="116.992188"/>
      <use xlink:href="#DejaVuSans-54" x="180.46875"/>
      <use xlink:href="#DejaVuSans-69" x="238.427734"/>
      <use xlink:href="#DejaVuSans-6d" x="266.210938"/>
      <use xlink:href="#DejaVuSans-65" x="363.623047"/>
     </g>
    </g>
   </g>
   <g id="matplotlib.axis_2">
    <g id="ytick_1">
     <g id="line2d_6">
      <defs>
       <path id="mf73a89f391" d="M 0 0 
L -3.5 0 
" style="stroke: #000000; stroke-width: 0.8"/>
      </defs>
      <g>
       <use xlink:href="#mf73a89f391" x="60.32" y="390.04" style="stroke: #000000; stroke-width: 0.8"/>
      </g>
     </g>
     <g id="text_7">
      <!-- 0.000 -->
      <g transform="translate(24.691875 393.839219) scale(0.1 -0.1)">
       <defs>
        <path id="DejaVuSans-2e" d="M 684 794 
L 1344 794 
L 1344 0 
L 684 0 
L 684 794 
z
" transform="scale(0.015625)"/>
       </defs>
       <use xlink:href="#DejaVuSans-30"/>
       <use xlink:href="#DejaVuSans-2e" x="63.623047"/>
       <use xlink:href="#DejaVuSans-30" x="95.410156"/>
       <use xlink:href="#DejaVuSans-30" x="159.033203"/>
       <use xlink:href="#DejaVuSans-30" x="222.65625"/>
      </g>
     </g>
    </g>
    <g id="ytick_2">
     <g id="line2d_7">
      <g>
       <use xlink:href="#mf73a89f391" x="60.32" y="345.008032" style="stroke: #000000; stroke-width: 0.8"/>
      </g>
     </g>
     <g id="text_8">
      <!-- 0.005 -->
      <g transform="translate(24.691875 348.807251) scale(0.1 -0.1)">
       <use xlink:href="#DejaVuSans-30"/>
       <use xlink:href="#DejaVuSans-2e" x="63.623047"/>
       <use xlink:href="#DejaVuSans-30" x="95.410156"/>
       <use xlink:href="#DejaVuSans-30" x="159.033203"/>
       <use xlink:href="#DejaVuSans-35" x="222.65625"/>
      </g>
     </g>
    </g>
    <g id="ytick_3">
     <g id="line2d_8">
      <g>
       <use xlink:href="#mf73a89f391" x="60.32" y="299.976065" style="stroke: #000000; stroke-width: 0.8"/>
      </g>
     </g>
     <g id="text_9">
      <!-- 0.010 -->
      <g transform="translate(24.691875 303.775284) scale(0.1 -0.1)">
       <use xlink:href="#DejaVuSans-30"/>
       <use xlink:href="#DejaVuSans-2e" x="63.623047"/>
       <use xlink:href="#DejaVuSans-30" x="95.410156"/>
       <use xlink:href="#DejaVuSans-31" x="159.033203"/>
       <use xlink:href="#DejaVuSans-30" x="222.65625"/>
      </g>
     </g>
    </g>
    <g id="ytick_4">
     <g id="line2d_9">
      <g>
       <use xlink:href="#mf73a89f391" x="60.32" y="254.944097" style="stroke: #000000; stroke-width: 0.8"/>
      </g>
     </g>
     <g id="text_10">
      <!-- 0.015 -->
      <g transform="translate(24.691875 258.743316) scale(0.1 -0.1)">
       <use xlink:href="#DejaVuSans-30"/>
       <use xlink:href="#DejaVuSans-2e" x="63.623047"/>
       <use xlink:href="#DejaVuSans-30" x="95.410156"/>
       <use xlink:href="#DejaVuSans-31" x="159.033203"/>
       <use xlink:href="#DejaVuSans-35" x="222.65625"/>
      </g>
     </g>
    </g>
    <g id="ytick_5">
     <g id="line2d_10">
      <g>
       <use xlink:href="#mf73a89f391" x="60.32" y="209.91213" style="stroke: #000000; stroke-width: 0.8"/>
      </g>
     </g>
     <g id="text_11">
      <!-- 0.020 -->
      <g transform="translate(24.691875 213.711349) scale(0.1 -0.1)">
       <use xlink:href="#DejaVuSans-30"/>
       <use xlink:href="#DejaVuSans-2e" x="63.623047"/>
       <use xlink:href="#DejaVuSans-30" x="95.410156"/>
       <use xlink:href="#DejaVuSans-32" x="159.033203"/>
       <use xlink:href="#DejaVuSans-30" x="222.65625"/>
      </g>
     </g>
    </g>
    <g id="ytick_6">
     <g id="line2d_11">
      <g>
       <use xlink:href="#mf73a89f391" x="60.32" y="164.880162" style="stroke: #000000; stroke-width: 0.8"/>
      </g>
     </g>
     <g id="text_12">
      <!-- 0.025 -->
      <g transform="translate(24.691875 168.679381) scale(0.1 -0.1)">
       <use xlink:href="#DejaVuSans-30"/>
       <use xlink:href="#DejaVuSans-2e" x="63.623047"/>
       <use xlink:href="#DejaVuSans-30" x="95.410156"/>
       <use xlink:href="#DejaVuSans-32" x="159.033203"/>
       <use xlink:href="#DejaVuSans-35" x="222.65625"/>
      </g>
     </g>
    </g>
    <g id="ytick_7">
     <g id="line2d_12">
      <g>
       <use xlink:href="#mf73a89f391" x="60.32" y="119.848195" style="stroke: #000000; stroke-width: 0.8"/>
      </g>
     </g>
     <g id="text_13">
      <!-- 0.030 -->
      <g transform="translate(24.691875 123.647413) scale(0.1 -0.1)">
       <defs>
        <path id="DejaVuSans-33" d="M 2597 2516 
Q 3050 2419 3304 2112 
Q 3559 1806 3559 1356 
Q 3559 666 3084 287 
Q 2609 -91 1734 -91 
Q 1441 -91 1130 -33 
Q 819 25 488 141 
L 488 750 
Q 750 597 1062 519 
Q 1375 441 1716 441 
Q 2309 441 2620 675 
Q 2931 909 2931 1356 
Q 2931 1769 2642 2001 
Q 2353 2234 1838 2234 
L 1294 2234 
L 1294 2753 
L 1863 2753 
Q 2328 2753 2575 2939 
Q 2822 3125 2822 3475 
Q 2822 3834 2567 4026 
Q 2313 4219 1838 4219 
Q 1578 4219 1281 4162 
Q 984 4106 628 3988 
L 628 4550 
Q 988 4650 1302 4700 
Q 1616 4750 1894 4750 
Q 2613 4750 3031 4423 
Q 3450 4097 3450 3541 
Q 3450 3153 3228 2886 
Q 3006 2619 2597 2516 
z
" transform="scale(0.015625)"/>
       </defs>
       <use xlink:href="#DejaVuSans-30"/>
       <use xlink:href="#DejaVuSans-2e" x="63.623047"/>
       <use xlink:href="#DejaVuSans-30" x="95.410156"/>
       <use xlink:href="#DejaVuSans-33" x="159.033203"/>
       <use xlink:href="#DejaVuSans-30" x="222.65625"/>
      </g>
     </g>
    </g>
    <g id="ytick_8">
     <g id="line2d_13">
      <g>
       <use xlink:href="#mf73a89f391" x="60.32" y="74.816227" style="stroke: #000000; stroke-width: 0.8"/>
      </g>
     </g>
     <g id="text_14">
      <!-- 0.035 -->
      <g transform="translate(24.691875 78.615446) scale(0.1 -0.1)">
       <use xlink:href="#DejaVuSans-30"/>
       <use xlink:href="#DejaVuSans-2e" x="63.623047"/>
       <use xlink:href="#DejaVuSans-30" x="95.410156"/>
       <use xlink:href="#DejaVuSans-33" x="159.033203"/>
       <use xlink:href="#DejaVuSans-35" x="222.65625"/>
      </g>
     </g>
    </g>
    <g id="text_15">
     <!-- Density -->
     <g transform="translate(18.612188 231.404219) rotate(-90) scale(0.1 -0.1)">
      <defs>
       <path id="DejaVuSans-44" d="M 1259 4147 
L 1259 519 
L 2022 519 
Q 2988 519 3436 956 
Q 3884 1394 3884 2338 
Q 3884 3275 3436 3711 
Q 2988 4147 2022 4147 
L 1259 4147 
z
M 628 4666 
L 1925 4666 
Q 3281 4666 3915 4102 
Q 4550 3538 4550 2338 
Q 4550 1131 3912 565 
Q 3275 0 1925 0 
L 628 0 
L 628 4666 
z
" transform="scale(0.015625)"/>
       <path id="DejaVuSans-6e" d="M 3513 2113 
L 3513 0 
L 2938 0 
L 2938 2094 
Q 2938 2591 2744 2837 
Q 2550 3084 2163 3084 
Q 1697 3084 1428 2787 
Q 1159 2491 1159 1978 
L 1159 0 
L 581 0 
L 581 3500 
L 1159 3500 
L 1159 2956 
Q 1366 3272 1645 3428 
Q 1925 3584 2291 3584 
Q 2894 3584 3203 3211 
Q 3513 2838 3513 2113 
z
" transform="scale(0.015625)"/>
       <path id="DejaVuSans-73" d="M 2834 3397 
L 2834 2853 
Q 2591 2978 2328 3040 
Q 2066 3103 1784 3103 
Q 1356 3103 1142 2972 
Q 928 2841 928 2578 
Q 928 2378 1081 2264 
Q 1234 2150 1697 2047 
L 1894 2003 
Q 2506 1872 2764 1633 
Q 3022 1394 3022 966 
Q 3022 478 2636 193 
Q 2250 -91 1575 -91 
Q 1294 -91 989 -36 
Q 684 19 347 128 
L 347 722 
Q 666 556 975 473 
Q 1284 391 1588 391 
Q 1994 391 2212 530 
Q 2431 669 2431 922 
Q 2431 1156 2273 1281 
Q 2116 1406 1581 1522 
L 1381 1569 
Q 847 1681 609 1914 
Q 372 2147 372 2553 
Q 372 3047 722 3315 
Q 1072 3584 1716 3584 
Q 2034 3584 2315 3537 
Q 2597 3491 2834 3397 
z
" transform="scale(0.015625)"/>
       <path id="DejaVuSans-74" d="M 1172 4494 
L 1172 3500 
L 2356 3500 
L 2356 3053 
L 1172 3053 
L 1172 1153 
Q 1172 725 1289 603 
Q 1406 481 1766 481 
L 2356 481 
L 2356 0 
L 1766 0 
Q 1100 0 847 248 
Q 594 497 594 1153 
L 594 3053 
L 172 3053 
L 172 3500 
L 594 3500 
L 594 4494 
L 1172 4494 
z
" transform="scale(0.015625)"/>
       <path id="DejaVuSans-79" d="M 2059 -325 
Q 1816 -950 1584 -1140 
Q 1353 -1331 966 -1331 
L 506 -1331 
L 506 -850 
L 844 -850 
Q 1081 -850 1212 -737 
Q 1344 -625 1503 -206 
L 1606 56 
L 191 3500 
L 800 3500 
L 1894 763 
L 2988 3500 
L 3597 3500 
L 2059 -325 
z
" transform="scale(0.015625)"/>
      </defs>
      <use xlink:href="#DejaVuSans-44"/>
      <use xlink:href="#DejaVuSans-65" x="77.001953"/>
      <use xlink:href="#DejaVuSans-6e" x="138.525391"/>
      <use xlink:href="#DejaVuSans-73" x="201.904297"/>
      <use xlink:href="#DejaVuSans-69" x="254.003906"/>
      <use xlink:href="#DejaVuSans-74" x="281.787109"/>
      <use xlink:href="#DejaVuSans-79" x="320.996094"/>
     </g>
    </g>
   </g>
   <g id="patch_3">
    <path d="M 60.32 390.04 
L 60.32 34.75125 
" style="fill: none; stroke: #000000; stroke-width: 0.8; stroke-linejoin: miter; stroke-linecap: square"/>
   </g>
   <g id="patch_4">
    <path d="M 376.220198 390.04 
L 376.220198 34.75125 
" style="fill: none; stroke: #000000; stroke-width: 0.8; stroke-linejoin: miter; stroke-linecap: square"/>
   </g>
   <g id="patch_5">
    <path d="M 60.32 390.04 
L 376.220198 390.04 
" style="fill: none; stroke: #000000; stroke-width: 0.8; stroke-linejoin: miter; stroke-linecap: square"/>
   </g>
   <g id="patch_6">
    <path d="M 60.32 34.75125 
L 376.220198 34.75125 
" style="fill: none; stroke: #000000; stroke-width: 0.8; stroke-linejoin: miter; stroke-linecap: square"/>
   </g>
   <g id="legend_1">
    <g id="patch_7">
     <path d="M 301.042073 101.46375 
L 369.220198 101.46375 
Q 371.220198 101.46375 371.220198 99.46375 
L 371.220198 41.75125 
Q 371.220198 39.75125 369.220198 39.75125 
L 301.042073 39.75125 
Q 299.042073 39.75125 299.042073 41.75125 
L 299.042073 99.46375 
Q 299.042073 101.46375 301.042073 101.46375 
z
" style="fill: #ffffff; opacity: 0.8; stroke: #cccccc; stroke-linejoin: miter"/>
    </g>
    <g id="text_16">
     <!-- PitStatus -->
     <g transform="translate(312.947542 51.349688) scale(0.1 -0.1)">
      <defs>
       <path id="DejaVuSans-50" d="M 1259 4147 
L 1259 2394 
L 2053 2394 
Q 2494 2394 2734 2622 
Q 2975 2850 2975 3272 
Q 2975 3691 2734 3919 
Q 2494 4147 2053 4147 
L 1259 4147 
z
M 628 4666 
L 2053 4666 
Q 2838 4666 3239 4311 
Q 3641 3956 3641 3272 
Q 3641 2581 3239 2228 
Q 2838 1875 2053 1875 
L 1259 1875 
L 1259 0 
L 628 0 
L 628 4666 
z
" transform="scale(0.015625)"/>
       <path id="DejaVuSans-53" d="M 3425 4513 
L 3425 3897 
Q 3066 4069 2747 4153 
Q 2428 4238 2131 4238 
Q 1616 4238 1336 4038 
Q 1056 3838 1056 3469 
Q 1056 3159 1242 3001 
Q 1428 2844 1947 2747 
L 2328 2669 
Q 3034 2534 3370 2195 
Q 3706 1856 3706 1288 
Q 3706 609 3251 259 
Q 2797 -91 1919 -91 
Q 1588 -91 1214 -16 
Q 841 59 441 206 
L 441 856 
Q 825 641 1194 531 
Q 1563 422 1919 422 
Q 2459 422 2753 634 
Q 3047 847 3047 1241 
Q 3047 1584 2836 1778 
Q 2625 1972 2144 2069 
L 1759 2144 
Q 1053 2284 737 2584 
Q 422 2884 422 3419 
Q 422 4038 858 4394 
Q 1294 4750 2059 4750 
Q 2388 4750 2728 4690 
Q 3069 4631 3425 4513 
z
" transform="scale(0.015625)"/>
       <path id="DejaVuSans-75" d="M 544 1381 
L 544 3500 
L 1119 3500 
L 1119 1403 
Q 1119 906 1312 657 
Q 1506 409 1894 409 
Q 2359 409 2629 706 
Q 2900 1003 2900 1516 
L 2900 3500 
L 3475 3500 
L 3475 0 
L 2900 0 
L 2900 538 
Q 2691 219 2414 64 
Q 2138 -91 1772 -91 
Q 1169 -91 856 284 
Q 544 659 544 1381 
z
M 1991 3584 
L 1991 3584 
z
" transform="scale(0.015625)"/>
      </defs>
      <use xlink:href="#DejaVuSans-50"/>
      <use xlink:href="#DejaVuSans-69" x="58.052734"/>
      <use xlink:href="#DejaVuSans-74" x="85.835938"/>
      <use xlink:href="#DejaVuSans-53" x="125.044922"/>
      <use xlink:href="#DejaVuSans-74" x="188.521484"/>
      <use xlink:href="#DejaVuSans-61" x="227.730469"/>
      <use xlink:href="#DejaVuSans-74" x="289.009766"/>
      <use xlink:href="#DejaVuSans-75" x="328.21875"/>
      <use xlink:href="#DejaVuSans-73" x="391.597656"/>
     </g>
    </g>
    <g id="patch_8">
     <path d="M 303.042073 66.027813 
L 323.042073 66.027813 
L 323.042073 59.027813 
L 303.042073 59.027813 
z
" style="fill: #023eff; fill-opacity: 0.25; stroke: #023eff; stroke-linejoin: miter"/>
    </g>
    <g id="text_17">
     <!-- InLap -->
     <g transform="translate(331.042073 66.027813) scale(0.1 -0.1)">
      <defs>
       <path id="DejaVuSans-49" d="M 628 4666 
L 1259 4666 
L 1259 0 
L 628 0 
L 628 4666 
z
" transform="scale(0.015625)"/>
      </defs>
      <use xlink:href="#DejaVuSans-49"/>
      <use xlink:href="#DejaVuSans-6e" x="29.492188"/>
      <use xlink:href="#DejaVuSans-4c" x="92.871094"/>
      <use xlink:href="#DejaVuSans-61" x="148.583984"/>
      <use xlink:href="#DejaVuSans-70" x="209.863281"/>
     </g>
    </g>
    <g id="patch_9">
     <path d="M 303.042073 80.705938 
L 323.042073 80.705938 
L 323.042073 73.705938 
L 303.042073 73.705938 
z
" style="fill: #ff7c00; fill-opacity: 0.25; stroke: #ff7c00; stroke-linejoin: miter"/>
    </g>
    <g id="text_18">
     <!-- NoPit -->
     <g transform="translate(331.042073 80.705938) scale(0.1 -0.1)">
      <defs>
       <path id="DejaVuSans-4e" d="M 628 4666 
L 1478 4666 
L 3547 763 
L 3547 4666 
L 4159 4666 
L 4159 0 
L 3309 0 
L 1241 3903 
L 1241 0 
L 628 0 
L 628 4666 
z
" transform="scale(0.015625)"/>
       <path id="DejaVuSans-6f" d="M 1959 3097 
Q 1497 3097 1228 2736 
Q 959 2375 959 1747 
Q 959 1119 1226 758 
Q 1494 397 1959 397 
Q 2419 397 2687 759 
Q 2956 1122 2956 1747 
Q 2956 2369 2687 2733 
Q 2419 3097 1959 3097 
z
M 1959 3584 
Q 2709 3584 3137 3096 
Q 3566 2609 3566 1747 
Q 3566 888 3137 398 
Q 2709 -91 1959 -91 
Q 1206 -91 779 398 
Q 353 888 353 1747 
Q 353 2609 779 3096 
Q 1206 3584 1959 3584 
z
" transform="scale(0.015625)"/>
      </defs>
      <use xlink:href="#DejaVuSans-4e"/>
      <use xlink:href="#DejaVuSans-6f" x="74.804688"/>
      <use xlink:href="#DejaVuSans-50" x="135.986328"/>
      <use xlink:href="#DejaVuSans-69" x="194.039062"/>
      <use xlink:href="#DejaVuSans-74" x="221.822266"/>
     </g>
    </g>
    <g id="patch_10">
     <path d="M 303.042073 95.384063 
L 323.042073 95.384063 
L 323.042073 88.384063 
L 303.042073 88.384063 
z
" style="fill: #1ac938; fill-opacity: 0.25; stroke: #1ac938; stroke-linejoin: miter"/>
    </g>
    <g id="text_19">
     <!-- OutLap -->
     <g transform="translate(331.042073 95.384063) scale(0.1 -0.1)">
      <defs>
       <path id="DejaVuSans-4f" d="M 2522 4238 
Q 1834 4238 1429 3725 
Q 1025 3213 1025 2328 
Q 1025 1447 1429 934 
Q 1834 422 2522 422 
Q 3209 422 3611 934 
Q 4013 1447 4013 2328 
Q 4013 3213 3611 3725 
Q 3209 4238 2522 4238 
z
M 2522 4750 
Q 3503 4750 4090 4092 
Q 4678 3434 4678 2328 
Q 4678 1225 4090 567 
Q 3503 -91 2522 -91 
Q 1538 -91 948 565 
Q 359 1222 359 2328 
Q 359 3434 948 4092 
Q 1538 4750 2522 4750 
z
" transform="scale(0.015625)"/>
      </defs>
      <use xlink:href="#DejaVuSans-4f"/>
      <use xlink:href="#DejaVuSans-75" x="78.710938"/>
      <use xlink:href="#DejaVuSans-74" x="142.089844"/>
      <use xlink:href="#DejaVuSans-4c" x="181.298828"/>
      <use xlink:href="#DejaVuSans-61" x="237.011719"/>
      <use xlink:href="#DejaVuSans-70" x="298.291016"/>
     </g>
    </g>
   </g>
  </g>
  <g id="axes_2">
   <g id="patch_11">
    <path d="M 390.520198 390.04 
L 706.420396 390.04 
L 706.420396 34.75125 
L 390.520198 34.75125 
z
" style="fill: #ffffff"/>
   </g>
   <g id="PolyCollection_4">
    <defs>
     <path id="m95285fc4e1" d="M 404.879298 -41.997063 
L 404.879298 -41.96 
L 406.322424 -41.96 
L 407.765549 -41.96 
L 409.208675 -41.96 
L 410.6518 -41.96 
L 412.094926 -41.96 
L 413.538052 -41.96 
L 414.981177 -41.96 
L 416.424303 -41.96 
L 417.867429 -41.96 
L 419.310554 -41.96 
L 420.75368 -41.96 
L 422.196805 -41.96 
L 423.639931 -41.96 
L 425.083057 -41.96 
L 426.526182 -41.96 
L 427.969308 -41.96 
L 429.412433 -41.96 
L 430.855559 -41.96 
L 432.298685 -41.96 
L 433.74181 -41.96 
L 435.184936 -41.96 
L 436.628062 -41.96 
L 438.071187 -41.96 
L 439.514313 -41.96 
L 440.957438 -41.96 
L 442.400564 -41.96 
L 443.84369 -41.96 
L 445.286815 -41.96 
L 446.729941 -41.96 
L 448.173067 -41.96 
L 449.616192 -41.96 
L 451.059318 -41.96 
L 452.502443 -41.96 
L 453.945569 -41.96 
L 455.388695 -41.96 
L 456.83182 -41.96 
L 458.274946 -41.96 
L 459.718071 -41.96 
L 461.161197 -41.96 
L 462.604323 -41.96 
L 464.047448 -41.96 
L 465.490574 -41.96 
L 466.9337 -41.96 
L 468.376825 -41.96 
L 469.819951 -41.96 
L 471.263076 -41.96 
L 472.706202 -41.96 
L 474.149328 -41.96 
L 475.592453 -41.96 
L 477.035579 -41.96 
L 478.478705 -41.96 
L 479.92183 -41.96 
L 481.364956 -41.96 
L 482.808081 -41.96 
L 484.251207 -41.96 
L 485.694333 -41.96 
L 487.137458 -41.96 
L 488.580584 -41.96 
L 490.023709 -41.96 
L 491.466835 -41.96 
L 492.909961 -41.96 
L 494.353086 -41.96 
L 495.796212 -41.96 
L 497.239338 -41.96 
L 498.682463 -41.96 
L 500.125589 -41.96 
L 501.568714 -41.96 
L 503.01184 -41.96 
L 504.454966 -41.96 
L 505.898091 -41.96 
L 507.341217 -41.96 
L 508.784343 -41.96 
L 510.227468 -41.96 
L 511.670594 -41.96 
L 513.113719 -41.96 
L 514.556845 -41.96 
L 515.999971 -41.96 
L 517.443096 -41.96 
L 518.886222 -41.96 
L 520.329347 -41.96 
L 521.772473 -41.96 
L 523.215599 -41.96 
L 524.658724 -41.96 
L 526.10185 -41.96 
L 527.544976 -41.96 
L 528.988101 -41.96 
L 530.431227 -41.96 
L 531.874352 -41.96 
L 533.317478 -41.96 
L 534.760604 -41.96 
L 536.203729 -41.96 
L 537.646855 -41.96 
L 539.089981 -41.96 
L 540.533106 -41.96 
L 541.976232 -41.96 
L 543.419357 -41.96 
L 544.862483 -41.96 
L 546.305609 -41.96 
L 547.748734 -41.96 
L 549.19186 -41.96 
L 550.634985 -41.96 
L 552.078111 -41.96 
L 553.521237 -41.96 
L 554.964362 -41.96 
L 556.407488 -41.96 
L 557.850614 -41.96 
L 559.293739 -41.96 
L 560.736865 -41.96 
L 562.17999 -41.96 
L 563.623116 -41.96 
L 565.066242 -41.96 
L 566.509367 -41.96 
L 567.952493 -41.96 
L 569.395619 -41.96 
L 570.838744 -41.96 
L 572.28187 -41.96 
L 573.724995 -41.96 
L 575.168121 -41.96 
L 576.611247 -41.96 
L 578.054372 -41.96 
L 579.497498 -41.96 
L 580.940623 -41.96 
L 582.383749 -41.96 
L 583.826875 -41.96 
L 585.27 -41.96 
L 586.713126 -41.96 
L 588.156252 -41.96 
L 589.599377 -41.96 
L 591.042503 -41.96 
L 592.485628 -41.96 
L 593.928754 -41.96 
L 595.37188 -41.96 
L 596.815005 -41.96 
L 598.258131 -41.96 
L 599.701257 -41.96 
L 601.144382 -41.96 
L 602.587508 -41.96 
L 604.030633 -41.96 
L 605.473759 -41.96 
L 606.916885 -41.96 
L 608.36001 -41.96 
L 609.803136 -41.96 
L 611.246261 -41.96 
L 612.689387 -41.96 
L 614.132513 -41.96 
L 615.575638 -41.96 
L 617.018764 -41.96 
L 618.46189 -41.96 
L 619.905015 -41.96 
L 621.348141 -41.96 
L 622.791266 -41.96 
L 624.234392 -41.96 
L 625.677518 -41.96 
L 627.120643 -41.96 
L 628.563769 -41.96 
L 630.006895 -41.96 
L 631.45002 -41.96 
L 632.893146 -41.96 
L 634.336271 -41.96 
L 635.779397 -41.96 
L 637.222523 -41.96 
L 638.665648 -41.96 
L 640.108774 -41.96 
L 641.551899 -41.96 
L 642.995025 -41.96 
L 644.438151 -41.96 
L 645.881276 -41.96 
L 647.324402 -41.96 
L 648.767528 -41.96 
L 650.210653 -41.96 
L 651.653779 -41.96 
L 653.096904 -41.96 
L 654.54003 -41.96 
L 655.983156 -41.96 
L 657.426281 -41.96 
L 658.869407 -41.96 
L 660.312533 -41.96 
L 661.755658 -41.96 
L 663.198784 -41.96 
L 664.641909 -41.96 
L 666.085035 -41.96 
L 667.528161 -41.96 
L 668.971286 -41.96 
L 670.414412 -41.96 
L 671.857537 -41.96 
L 673.300663 -41.96 
L 674.743789 -41.96 
L 676.186914 -41.96 
L 677.63004 -41.96 
L 679.073166 -41.96 
L 680.516291 -41.96 
L 681.959417 -41.96 
L 683.402542 -41.96 
L 684.845668 -41.96 
L 686.288794 -41.96 
L 687.731919 -41.96 
L 689.175045 -41.96 
L 690.618171 -41.96 
L 692.061296 -41.96 
L 692.061296 -41.966417 
L 692.061296 -41.966417 
L 690.618171 -41.971146 
L 689.175045 -41.978673 
L 687.731919 -41.990173 
L 686.288794 -42.007026 
L 684.845668 -42.030696 
L 683.402542 -42.062515 
L 681.959417 -42.103394 
L 680.516291 -42.153487 
L 679.073166 -42.211877 
L 677.63004 -42.27638 
L 676.186914 -42.343553 
L 674.743789 -42.408979 
L 673.300663 -42.467834 
L 671.857537 -42.515682 
L 670.414412 -42.549362 
L 668.971286 -42.567787 
L 667.528161 -42.572461 
L 666.085035 -42.567583 
L 664.641909 -42.559652 
L 663.198784 -42.556625 
L 661.755658 -42.566761 
L 660.312533 -42.59734 
L 658.869407 -42.653498 
L 657.426281 -42.737396 
L 655.983156 -42.847872 
L 654.54003 -42.980644 
L 653.096904 -43.129052 
L 651.653779 -43.285183 
L 650.210653 -43.441198 
L 648.767528 -43.5906 
L 647.324402 -43.729256 
L 645.881276 -43.856014 
L 644.438151 -43.972865 
L 642.995025 -44.084701 
L 641.551899 -44.19876 
L 640.108774 -44.323856 
L 638.665648 -44.46949 
L 637.222523 -44.644876 
L 635.779397 -44.857926 
L 634.336271 -45.114261 
L 632.893146 -45.416351 
L 631.45002 -45.762947 
L 630.006895 -46.148978 
L 628.563769 -46.566025 
L 627.120643 -47.003368 
L 625.677518 -47.449456 
L 624.234392 -47.893527 
L 622.791266 -48.327017 
L 621.348141 -48.744459 
L 619.905015 -49.143664 
L 618.46189 -49.525203 
L 617.018764 -49.89137 
L 615.575638 -50.245026 
L 614.132513 -50.588763 
L 612.689387 -50.924821 
L 611.246261 -51.25603 
L 609.803136 -51.5878 
L 608.36001 -51.93089 
L 606.916885 -52.30434 
L 605.473759 -52.737758 
L 604.030633 -53.272061 
L 602.587508 -53.957947 
L 601.144382 -54.851779 
L 599.701257 -56.009162 
L 598.258131 -57.477142 
L 596.815005 -59.286514 
L 595.37188 -61.445961 
L 593.928754 -63.939596 
L 592.485628 -66.728918 
L 591.042503 -69.759242 
L 589.599377 -72.969653 
L 588.156252 -76.304572 
L 586.713126 -79.72445 
L 585.27 -83.21309 
L 583.826875 -86.779626 
L 582.383749 -90.454362 
L 580.940623 -94.279044 
L 579.497498 -98.293563 
L 578.054372 -102.52212 
L 576.611247 -106.962285 
L 575.168121 -111.579937 
L 573.724995 -116.311986 
L 572.28187 -121.077077 
L 570.838744 -125.792722 
L 569.395619 -130.395724 
L 567.952493 -134.861859 
L 566.509367 -139.220639 
L 565.066242 -143.561764 
L 563.623116 -148.03133 
L 562.17999 -152.817706 
L 560.736865 -158.128819 
L 559.293739 -164.163986 
L 557.850614 -171.084237 
L 556.407488 -178.98514 
L 554.964362 -187.875734 
L 553.521237 -197.666376 
L 552.078111 -208.167357 
L 550.634985 -219.099074 
L 549.19186 -230.113312 
L 547.748734 -240.823888 
L 546.305609 -250.843458 
L 544.862483 -259.822155 
L 543.419357 -267.483049 
L 541.976232 -273.649551 
L 540.533106 -278.26085 
L 539.089981 -281.373133 
L 537.646855 -283.146297 
L 536.203729 -283.817853 
L 534.760604 -283.667431 
L 533.317478 -282.976638 
L 531.874352 -281.98997 
L 530.431227 -280.882849 
L 528.988101 -279.742508 
L 527.544976 -278.566048 
L 526.10185 -277.277413 
L 524.658724 -275.761501 
L 523.215599 -273.909631 
L 521.772473 -271.667254 
L 520.329347 -269.072997 
L 518.886222 -266.278784 
L 517.443096 -263.543993 
L 515.999971 -261.202019 
L 514.556845 -259.603874 
L 513.113719 -259.049261 
L 511.670594 -259.719306 
L 510.227468 -261.625811 
L 508.784343 -264.589229 
L 507.341217 -268.252045 
L 505.898091 -272.126927 
L 504.454966 -275.671671 
L 503.01184 -278.376993 
L 501.568714 -279.850136 
L 500.125589 -279.877635 
L 498.682463 -278.454475 
L 497.239338 -275.7735 
L 495.796212 -272.176969 
L 494.353086 -268.079974 
L 492.909961 -263.881413 
L 491.466835 -259.881065 
L 490.023709 -256.220396 
L 488.580584 -252.859956 
L 487.137458 -249.598574 
L 485.694333 -246.13038 
L 484.251207 -242.127012 
L 482.808081 -237.326169 
L 481.364956 -231.605574 
L 479.92183 -225.024128 
L 478.478705 -217.819307 
L 477.035579 -210.359961 
L 475.592453 -203.064522 
L 474.149328 -196.303249 
L 472.706202 -190.307574 
L 471.263076 -185.108406 
L 469.819951 -180.518683 
L 468.376825 -176.165052 
L 466.9337 -171.56189 
L 465.490574 -166.210929 
L 464.047448 -159.704073 
L 462.604323 -151.806918 
L 461.161197 -142.505941 
L 459.718071 -132.011563 
L 458.274946 -120.719823 
L 456.83182 -109.144262 
L 455.388695 -97.834805 
L 453.945569 -87.300926 
L 452.502443 -77.952719 
L 451.059318 -70.067212 
L 449.616192 -63.780422 
L 448.173067 -59.100077 
L 446.729941 -55.930867 
L 445.286815 -54.103783 
L 443.84369 -53.403008 
L 442.400564 -53.58694 
L 440.957438 -54.403101 
L 439.514313 -55.598927 
L 438.071187 -56.931286 
L 436.628062 -58.176973 
L 435.184936 -59.144927 
L 433.74181 -59.689038 
L 432.298685 -59.719062 
L 430.855559 -59.206722 
L 429.412433 -58.184728 
L 427.969308 -56.738019 
L 426.526182 -54.988372 
L 425.083057 -53.075123 
L 423.639931 -51.135549 
L 422.196805 -49.288326 
L 420.75368 -47.622461 
L 419.310554 -46.192665 
L 417.867429 -45.020671 
L 416.424303 -44.10093 
L 414.981177 -43.408649 
L 413.538052 -42.90818 
L 412.094926 -42.560315 
L 410.6518 -42.327638 
L 409.208675 -42.177775 
L 407.765549 -42.084776 
L 406.322424 -42.029148 
L 404.879298 -41.997063 
z
" style="stroke: #ff7c00"/>
    </defs>
    <g clip-path="url(#pd7de849567)">
     <use xlink:href="#m95285fc4e1" x="0" y="432" style="fill: #ff7c00; fill-opacity: 0.25; stroke: #ff7c00"/>
    </g>
   </g>
   <g id="PolyCollection_5">
    <defs>
     <path id="mdab8ea5c56" d="M 412.232491 -41.961839 
L 412.232491 -41.96 
L 413.594919 -41.96 
L 414.957346 -41.96 
L 416.319774 -41.96 
L 417.682202 -41.96 
L 419.044629 -41.96 
L 420.407057 -41.96 
L 421.769485 -41.96 
L 423.131912 -41.96 
L 424.49434 -41.96 
L 425.856768 -41.96 
L 427.219195 -41.96 
L 428.581623 -41.96 
L 429.94405 -41.96 
L 431.306478 -41.96 
L 432.668906 -41.96 
L 434.031333 -41.96 
L 435.393761 -41.96 
L 436.756189 -41.96 
L 438.118616 -41.96 
L 439.481044 -41.96 
L 440.843472 -41.96 
L 442.205899 -41.96 
L 443.568327 -41.96 
L 444.930755 -41.96 
L 446.293182 -41.96 
L 447.65561 -41.96 
L 449.018037 -41.96 
L 450.380465 -41.96 
L 451.742893 -41.96 
L 453.10532 -41.96 
L 454.467748 -41.96 
L 455.830176 -41.96 
L 457.192603 -41.96 
L 458.555031 -41.96 
L 459.917459 -41.96 
L 461.279886 -41.96 
L 462.642314 -41.96 
L 464.004742 -41.96 
L 465.367169 -41.96 
L 466.729597 -41.96 
L 468.092024 -41.96 
L 469.454452 -41.96 
L 470.81688 -41.96 
L 472.179307 -41.96 
L 473.541735 -41.96 
L 474.904163 -41.96 
L 476.26659 -41.96 
L 477.629018 -41.96 
L 478.991446 -41.96 
L 480.353873 -41.96 
L 481.716301 -41.96 
L 483.078729 -41.96 
L 484.441156 -41.96 
L 485.803584 -41.96 
L 487.166011 -41.96 
L 488.528439 -41.96 
L 489.890867 -41.96 
L 491.253294 -41.96 
L 492.615722 -41.96 
L 493.97815 -41.96 
L 495.340577 -41.96 
L 496.703005 -41.96 
L 498.065433 -41.96 
L 499.42786 -41.96 
L 500.790288 -41.96 
L 502.152715 -41.96 
L 503.515143 -41.96 
L 504.877571 -41.96 
L 506.239998 -41.96 
L 507.602426 -41.96 
L 508.964854 -41.96 
L 510.327281 -41.96 
L 511.689709 -41.96 
L 513.052137 -41.96 
L 514.414564 -41.96 
L 515.776992 -41.96 
L 517.13942 -41.96 
L 518.501847 -41.96 
L 519.864275 -41.96 
L 521.226702 -41.96 
L 522.58913 -41.96 
L 523.951558 -41.96 
L 525.313985 -41.96 
L 526.676413 -41.96 
L 528.038841 -41.96 
L 529.401268 -41.96 
L 530.763696 -41.96 
L 532.126124 -41.96 
L 533.488551 -41.96 
L 534.850979 -41.96 
L 536.213407 -41.96 
L 537.575834 -41.96 
L 538.938262 -41.96 
L 540.300689 -41.96 
L 541.663117 -41.96 
L 543.025545 -41.96 
L 544.387972 -41.96 
L 545.7504 -41.96 
L 547.112828 -41.96 
L 548.475255 -41.96 
L 549.837683 -41.96 
L 551.200111 -41.96 
L 552.562538 -41.96 
L 553.924966 -41.96 
L 555.287394 -41.96 
L 556.649821 -41.96 
L 558.012249 -41.96 
L 559.374676 -41.96 
L 560.737104 -41.96 
L 562.099532 -41.96 
L 563.461959 -41.96 
L 564.824387 -41.96 
L 566.186815 -41.96 
L 567.549242 -41.96 
L 568.91167 -41.96 
L 570.274098 -41.96 
L 571.636525 -41.96 
L 572.998953 -41.96 
L 574.361381 -41.96 
L 575.723808 -41.96 
L 577.086236 -41.96 
L 578.448663 -41.96 
L 579.811091 -41.96 
L 581.173519 -41.96 
L 582.535946 -41.96 
L 583.898374 -41.96 
L 585.260802 -41.96 
L 586.623229 -41.96 
L 587.985657 -41.96 
L 589.348085 -41.96 
L 590.710512 -41.96 
L 592.07294 -41.96 
L 593.435368 -41.96 
L 594.797795 -41.96 
L 596.160223 -41.96 
L 597.52265 -41.96 
L 598.885078 -41.96 
L 600.247506 -41.96 
L 601.609933 -41.96 
L 602.972361 -41.96 
L 604.334789 -41.96 
L 605.697216 -41.96 
L 607.059644 -41.96 
L 608.422072 -41.96 
L 609.784499 -41.96 
L 611.146927 -41.96 
L 612.509355 -41.96 
L 613.871782 -41.96 
L 615.23421 -41.96 
L 616.596637 -41.96 
L 617.959065 -41.96 
L 619.321493 -41.96 
L 620.68392 -41.96 
L 622.046348 -41.96 
L 623.408776 -41.96 
L 624.771203 -41.96 
L 626.133631 -41.96 
L 627.496059 -41.96 
L 628.858486 -41.96 
L 630.220914 -41.96 
L 631.583342 -41.96 
L 632.945769 -41.96 
L 634.308197 -41.96 
L 635.670624 -41.96 
L 637.033052 -41.96 
L 638.39548 -41.96 
L 639.757907 -41.96 
L 641.120335 -41.96 
L 642.482763 -41.96 
L 643.84519 -41.96 
L 645.207618 -41.96 
L 646.570046 -41.96 
L 647.932473 -41.96 
L 649.294901 -41.96 
L 650.657329 -41.96 
L 652.019756 -41.96 
L 653.382184 -41.96 
L 654.744611 -41.96 
L 656.107039 -41.96 
L 657.469467 -41.96 
L 658.831894 -41.96 
L 660.194322 -41.96 
L 661.55675 -41.96 
L 662.919177 -41.96 
L 664.281605 -41.96 
L 665.644033 -41.96 
L 667.00646 -41.96 
L 668.368888 -41.96 
L 669.731316 -41.96 
L 671.093743 -41.96 
L 672.456171 -41.96 
L 673.818598 -41.96 
L 675.181026 -41.96 
L 676.543454 -41.96 
L 677.905881 -41.96 
L 679.268309 -41.96 
L 680.630737 -41.96 
L 681.993164 -41.96 
L 683.355592 -41.96 
L 683.355592 -41.967532 
L 683.355592 -41.967532 
L 681.993164 -41.982528 
L 680.630737 -42.020038 
L 679.268309 -42.102747 
L 677.905881 -42.263228 
L 676.543454 -42.536494 
L 675.181026 -42.943106 
L 673.818598 -43.468136 
L 672.456171 -44.049455 
L 671.093743 -44.589334 
L 669.731316 -44.990845 
L 668.368888 -45.201737 
L 667.00646 -45.239175 
L 665.644033 -45.179166 
L 664.281605 -45.11744 
L 662.919177 -45.125954 
L 661.55675 -45.228789 
L 660.194322 -45.405984 
L 658.831894 -45.616489 
L 657.469467 -45.822817 
L 656.107039 -46.003697 
L 654.744611 -46.152801 
L 653.382184 -46.272241 
L 652.019756 -46.370722 
L 650.657329 -46.467646 
L 649.294901 -46.594877 
L 647.932473 -46.787399 
L 646.570046 -47.063876 
L 645.207618 -47.408982 
L 643.84519 -47.771119 
L 642.482763 -48.079869 
L 641.120335 -48.274745 
L 639.757907 -48.330556 
L 638.39548 -48.268092 
L 637.033052 -48.147122 
L 635.670624 -48.045563 
L 634.308197 -48.032539 
L 632.945769 -48.144942 
L 631.583342 -48.37633 
L 630.220914 -48.681725 
L 628.858486 -48.994636 
L 627.496059 -49.248544 
L 626.133631 -49.396134 
L 624.771203 -49.422292 
L 623.408776 -49.348299 
L 622.046348 -49.225494 
L 620.68392 -49.119606 
L 619.321493 -49.090846 
L 617.959065 -49.176208 
L 616.596637 -49.378061 
L 615.23421 -49.660596 
L 613.871782 -49.95564 
L 612.509355 -50.179454 
L 611.146927 -50.258031 
L 609.784499 -50.151477 
L 608.422072 -49.865853 
L 607.059644 -49.447789 
L 605.697216 -48.967975 
L 604.334789 -48.504044 
L 602.972361 -48.128427 
L 601.609933 -47.899526 
L 600.247506 -47.852973 
L 598.885078 -47.993489 
L 597.52265 -48.291495 
L 596.160223 -48.68925 
L 594.797795 -49.119801 
L 593.435368 -49.53811 
L 592.07294 -49.95592 
L 590.710512 -50.463492 
L 589.348085 -51.221204 
L 587.985657 -52.417305 
L 586.623229 -54.20658 
L 585.260802 -56.654264 
L 583.898374 -59.706497 
L 582.535946 -63.20144 
L 581.173519 -66.927659 
L 579.811091 -70.720032 
L 578.448663 -74.555819 
L 577.086236 -78.596367 
L 575.723808 -83.140367 
L 574.361381 -88.506653 
L 572.998953 -94.905559 
L 571.636525 -102.353152 
L 570.274098 -110.644676 
L 568.91167 -119.373547 
L 567.549242 -127.981786 
L 566.186815 -135.841221 
L 564.824387 -142.366177 
L 563.461959 -147.141205 
L 562.099532 -150.028456 
L 560.737104 -151.218519 
L 559.374676 -151.209031 
L 558.012249 -150.721188 
L 556.649821 -150.578489 
L 555.287394 -151.572832 
L 553.924966 -154.340033 
L 552.562538 -159.264891 
L 551.200111 -166.43043 
L 549.837683 -175.612516 
L 548.475255 -186.30873 
L 547.112828 -197.794078 
L 545.7504 -209.212065 
L 544.387972 -219.709352 
L 543.025545 -228.591313 
L 541.663117 -235.446234 
L 540.300689 -240.198154 
L 538.938262 -243.089772 
L 537.575834 -244.617214 
L 536.213407 -245.427488 
L 534.850979 -246.188133 
L 533.488551 -247.464306 
L 532.126124 -249.649965 
L 530.763696 -252.960182 
L 529.401268 -257.432607 
L 528.038841 -262.875775 
L 526.676413 -268.766086 
L 525.313985 -274.185494 
L 523.951558 -277.922629 
L 522.58913 -278.779635 
L 521.226702 -275.978055 
L 519.864275 -269.461225 
L 518.501847 -259.939212 
L 517.13942 -248.678833 
L 515.776992 -237.177128 
L 514.414564 -226.88234 
L 513.052137 -219.055189 
L 511.689709 -214.762161 
L 510.327281 -214.917752 
L 508.964854 -220.272759 
L 507.602426 -231.284324 
L 506.239998 -247.878775 
L 504.877571 -269.196432 
L 503.515143 -293.456023 
L 502.152715 -318.063848 
L 500.790288 -340.003944 
L 499.42786 -356.416607 
L 498.065433 -365.187138 
L 496.703005 -365.382188 
L 495.340577 -357.457926 
L 493.97815 -343.23603 
L 492.615722 -325.64925 
L 491.253294 -308.235917 
L 489.890867 -294.397723 
L 488.528439 -286.556764 
L 487.166011 -285.46988 
L 485.803584 -289.955251 
L 484.441156 -297.140179 
L 483.078729 -303.164351 
L 481.716301 -304.169051 
L 480.353873 -297.346087 
L 478.991446 -281.762017 
L 477.629018 -258.675077 
L 476.26659 -231.223267 
L 474.904163 -203.631666 
L 473.541735 -180.263982 
L 472.179307 -164.793879 
L 470.81688 -159.581039 
L 469.454452 -165.207734 
L 468.092024 -180.171798 
L 466.729597 -200.867871 
L 465.367169 -222.057729 
L 464.004742 -237.922488 
L 462.642314 -243.522955 
L 461.279886 -236.208956 
L 459.917459 -216.407967 
L 458.555031 -187.414967 
L 457.192603 -154.240124 
L 455.830176 -122.005731 
L 454.467748 -94.556991 
L 453.10532 -73.774255 
L 451.742893 -59.683296 
L 450.380465 -51.100798 
L 449.018037 -46.407461 
L 447.65561 -44.130583 
L 446.293182 -43.222753 
L 444.930755 -43.096794 
L 443.568327 -43.542639 
L 442.205899 -44.621994 
L 440.843472 -46.56833 
L 439.481044 -49.666595 
L 438.118616 -54.080889 
L 436.756189 -59.646061 
L 435.393761 -65.71425 
L 434.031333 -71.187003 
L 432.668906 -74.803933 
L 431.306478 -75.604852 
L 429.94405 -73.337372 
L 428.581623 -68.575668 
L 427.219195 -62.47762 
L 425.856768 -56.322693 
L 424.49434 -51.082204 
L 423.131912 -47.212331 
L 421.769485 -44.699442 
L 420.407057 -43.253581 
L 419.044629 -42.512935 
L 417.682202 -42.174026 
L 416.319774 -42.035099 
L 414.957346 -41.983931 
L 413.594919 -41.966943 
L 412.232491 -41.961839 
z
" style="stroke: #023eff"/>
    </defs>
    <g clip-path="url(#pd7de849567)">
     <use xlink:href="#mdab8ea5c56" x="0" y="432" style="fill: #023eff; fill-opacity: 0.25; stroke: #023eff"/>
    </g>
   </g>
   <g id="matplotlib.axis_3">
    <g id="xtick_6">
     <g id="line2d_14">
      <g>
       <use xlink:href="#m3fd1bf84c3" x="435.885298" y="390.04" style="stroke: #000000; stroke-width: 0.8"/>
      </g>
     </g>
     <g id="text_20">
      <!-- 60 -->
      <g transform="translate(429.522798 404.638438) scale(0.1 -0.1)">
       <defs>
        <path id="DejaVuSans-36" d="M 2113 2584 
Q 1688 2584 1439 2293 
Q 1191 2003 1191 1497 
Q 1191 994 1439 701 
Q 1688 409 2113 409 
Q 2538 409 2786 701 
Q 3034 994 3034 1497 
Q 3034 2003 2786 2293 
Q 2538 2584 2113 2584 
z
M 3366 4563 
L 3366 3988 
Q 3128 4100 2886 4159 
Q 2644 4219 2406 4219 
Q 1781 4219 1451 3797 
Q 1122 3375 1075 2522 
Q 1259 2794 1537 2939 
Q 1816 3084 2150 3084 
Q 2853 3084 3261 2657 
Q 3669 2231 3669 1497 
Q 3669 778 3244 343 
Q 2819 -91 2113 -91 
Q 1303 -91 875 529 
Q 447 1150 447 2328 
Q 447 3434 972 4092 
Q 1497 4750 2381 4750 
Q 2619 4750 2861 4703 
Q 3103 4656 3366 4563 
z
" transform="scale(0.015625)"/>
       </defs>
       <use xlink:href="#DejaVuSans-36"/>
       <use xlink:href="#DejaVuSans-30" x="63.623047"/>
      </g>
     </g>
    </g>
    <g id="xtick_7">
     <g id="line2d_15">
      <g>
       <use xlink:href="#m3fd1bf84c3" x="488.308324" y="390.04" style="stroke: #000000; stroke-width: 0.8"/>
      </g>
     </g>
     <g id="text_21">
      <!-- 80 -->
      <g transform="translate(481.945824 404.638438) scale(0.1 -0.1)">
       <defs>
        <path id="DejaVuSans-38" d="M 2034 2216 
Q 1584 2216 1326 1975 
Q 1069 1734 1069 1313 
Q 1069 891 1326 650 
Q 1584 409 2034 409 
Q 2484 409 2743 651 
Q 3003 894 3003 1313 
Q 3003 1734 2745 1975 
Q 2488 2216 2034 2216 
z
M 1403 2484 
Q 997 2584 770 2862 
Q 544 3141 544 3541 
Q 544 4100 942 4425 
Q 1341 4750 2034 4750 
Q 2731 4750 3128 4425 
Q 3525 4100 3525 3541 
Q 3525 3141 3298 2862 
Q 3072 2584 2669 2484 
Q 3125 2378 3379 2068 
Q 3634 1759 3634 1313 
Q 3634 634 3220 271 
Q 2806 -91 2034 -91 
Q 1263 -91 848 271 
Q 434 634 434 1313 
Q 434 1759 690 2068 
Q 947 2378 1403 2484 
z
M 1172 3481 
Q 1172 3119 1398 2916 
Q 1625 2713 2034 2713 
Q 2441 2713 2670 2916 
Q 2900 3119 2900 3481 
Q 2900 3844 2670 4047 
Q 2441 4250 2034 4250 
Q 1625 4250 1398 4047 
Q 1172 3844 1172 3481 
z
" transform="scale(0.015625)"/>
       </defs>
       <use xlink:href="#DejaVuSans-38"/>
       <use xlink:href="#DejaVuSans-30" x="63.623047"/>
      </g>
     </g>
    </g>
    <g id="xtick_8">
     <g id="line2d_16">
      <g>
       <use xlink:href="#m3fd1bf84c3" x="540.731349" y="390.04" style="stroke: #000000; stroke-width: 0.8"/>
      </g>
     </g>
     <g id="text_22">
      <!-- 100 -->
      <g transform="translate(531.187599 404.638438) scale(0.1 -0.1)">
       <use xlink:href="#DejaVuSans-31"/>
       <use xlink:href="#DejaVuSans-30" x="63.623047"/>
       <use xlink:href="#DejaVuSans-30" x="127.246094"/>
      </g>
     </g>
    </g>
    <g id="xtick_9">
     <g id="line2d_17">
      <g>
       <use xlink:href="#m3fd1bf84c3" x="593.154375" y="390.04" style="stroke: #000000; stroke-width: 0.8"/>
      </g>
     </g>
     <g id="text_23">
      <!-- 120 -->
      <g transform="translate(583.610625 404.638438) scale(0.1 -0.1)">
       <use xlink:href="#DejaVuSans-31"/>
       <use xlink:href="#DejaVuSans-32" x="63.623047"/>
       <use xlink:href="#DejaVuSans-30" x="127.246094"/>
      </g>
     </g>
    </g>
    <g id="xtick_10">
     <g id="line2d_18">
      <g>
       <use xlink:href="#m3fd1bf84c3" x="645.577401" y="390.04" style="stroke: #000000; stroke-width: 0.8"/>
      </g>
     </g>
     <g id="text_24">
      <!-- 140 -->
      <g transform="translate(636.033651 404.638438) scale(0.1 -0.1)">
       <defs>
        <path id="DejaVuSans-34" d="M 2419 4116 
L 825 1625 
L 2419 1625 
L 2419 4116 
z
M 2253 4666 
L 3047 4666 
L 3047 1625 
L 3713 1625 
L 3713 1100 
L 3047 1100 
L 3047 0 
L 2419 0 
L 2419 1100 
L 313 1100 
L 313 1709 
L 2253 4666 
z
" transform="scale(0.015625)"/>
       </defs>
       <use xlink:href="#DejaVuSans-31"/>
       <use xlink:href="#DejaVuSans-34" x="63.623047"/>
       <use xlink:href="#DejaVuSans-30" x="127.246094"/>
      </g>
     </g>
    </g>
    <g id="xtick_11">
     <g id="line2d_19">
      <g>
       <use xlink:href="#m3fd1bf84c3" x="698.000427" y="390.04" style="stroke: #000000; stroke-width: 0.8"/>
      </g>
     </g>
     <g id="text_25">
      <!-- 160 -->
      <g transform="translate(688.456677 404.638438) scale(0.1 -0.1)">
       <use xlink:href="#DejaVuSans-31"/>
       <use xlink:href="#DejaVuSans-36" x="63.623047"/>
       <use xlink:href="#DejaVuSans-30" x="127.246094"/>
      </g>
     </g>
    </g>
    <g id="text_26">
     <!-- LapTime -->
     <g transform="translate(527.212485 418.316562) scale(0.1 -0.1)">
      <use xlink:href="#DejaVuSans-4c"/>
      <use xlink:href="#DejaVuSans-61" x="55.712891"/>
      <use xlink:href="#DejaVuSans-70" x="116.992188"/>
      <use xlink:href="#DejaVuSans-54" x="180.46875"/>
      <use xlink:href="#DejaVuSans-69" x="238.427734"/>
      <use xlink:href="#DejaVuSans-6d" x="266.210938"/>
      <use xlink:href="#DejaVuSans-65" x="363.623047"/>
     </g>
    </g>
   </g>
   <g id="matplotlib.axis_4">
    <g id="ytick_9">
     <g id="line2d_20">
      <g>
       <use xlink:href="#mf73a89f391" x="390.520198" y="390.04" style="stroke: #000000; stroke-width: 0.8"/>
      </g>
     </g>
    </g>
    <g id="ytick_10">
     <g id="line2d_21">
      <g>
       <use xlink:href="#mf73a89f391" x="390.520198" y="345.008032" style="stroke: #000000; stroke-width: 0.8"/>
      </g>
     </g>
    </g>
    <g id="ytick_11">
     <g id="line2d_22">
      <g>
       <use xlink:href="#mf73a89f391" x="390.520198" y="299.976065" style="stroke: #000000; stroke-width: 0.8"/>
      </g>
     </g>
    </g>
    <g id="ytick_12">
     <g id="line2d_23">
      <g>
       <use xlink:href="#mf73a89f391" x="390.520198" y="254.944097" style="stroke: #000000; stroke-width: 0.8"/>
      </g>
     </g>
    </g>
    <g id="ytick_13">
     <g id="line2d_24">
      <g>
       <use xlink:href="#mf73a89f391" x="390.520198" y="209.91213" style="stroke: #000000; stroke-width: 0.8"/>
      </g>
     </g>
    </g>
    <g id="ytick_14">
     <g id="line2d_25">
      <g>
       <use xlink:href="#mf73a89f391" x="390.520198" y="164.880162" style="stroke: #000000; stroke-width: 0.8"/>
      </g>
     </g>
    </g>
    <g id="ytick_15">
     <g id="line2d_26">
      <g>
       <use xlink:href="#mf73a89f391" x="390.520198" y="119.848195" style="stroke: #000000; stroke-width: 0.8"/>
      </g>
     </g>
    </g>
    <g id="ytick_16">
     <g id="line2d_27">
      <g>
       <use xlink:href="#mf73a89f391" x="390.520198" y="74.816227" style="stroke: #000000; stroke-width: 0.8"/>
      </g>
     </g>
    </g>
   </g>
   <g id="patch_12">
    <path d="M 390.520198 390.04 
L 390.520198 34.75125 
" style="fill: none; stroke: #000000; stroke-width: 0.8; stroke-linejoin: miter; stroke-linecap: square"/>
   </g>
   <g id="patch_13">
    <path d="M 706.420396 390.04 
L 706.420396 34.75125 
" style="fill: none; stroke: #000000; stroke-width: 0.8; stroke-linejoin: miter; stroke-linecap: square"/>
   </g>
   <g id="patch_14">
    <path d="M 390.520198 390.04 
L 706.420396 390.04 
" style="fill: none; stroke: #000000; stroke-width: 0.8; stroke-linejoin: miter; stroke-linecap: square"/>
   </g>
   <g id="patch_15">
    <path d="M 390.520198 34.75125 
L 706.420396 34.75125 
" style="fill: none; stroke: #000000; stroke-width: 0.8; stroke-linejoin: miter; stroke-linecap: square"/>
   </g>
   <g id="legend_2">
    <g id="patch_16">
     <path d="M 642.312584 87.06375 
L 699.420396 87.06375 
Q 701.420396 87.06375 701.420396 85.06375 
L 701.420396 41.75125 
Q 701.420396 39.75125 699.420396 39.75125 
L 642.312584 39.75125 
Q 640.312584 39.75125 640.312584 41.75125 
L 640.312584 85.06375 
Q 640.312584 87.06375 642.312584 87.06375 
z
" style="fill: #ffffff; opacity: 0.8; stroke: #cccccc; stroke-linejoin: miter"/>
    </g>
    <g id="text_27">
     <!-- is_pitting -->
     <g transform="translate(648.157115 51.349688) scale(0.1 -0.1)">
      <defs>
       <path id="DejaVuSans-5f" d="M 3263 -1063 
L 3263 -1509 
L -63 -1509 
L -63 -1063 
L 3263 -1063 
z
" transform="scale(0.015625)"/>
       <path id="DejaVuSans-67" d="M 2906 1791 
Q 2906 2416 2648 2759 
Q 2391 3103 1925 3103 
Q 1463 3103 1205 2759 
Q 947 2416 947 1791 
Q 947 1169 1205 825 
Q 1463 481 1925 481 
Q 2391 481 2648 825 
Q 2906 1169 2906 1791 
z
M 3481 434 
Q 3481 -459 3084 -895 
Q 2688 -1331 1869 -1331 
Q 1566 -1331 1297 -1286 
Q 1028 -1241 775 -1147 
L 775 -588 
Q 1028 -725 1275 -790 
Q 1522 -856 1778 -856 
Q 2344 -856 2625 -561 
Q 2906 -266 2906 331 
L 2906 616 
Q 2728 306 2450 153 
Q 2172 0 1784 0 
Q 1141 0 747 490 
Q 353 981 353 1791 
Q 353 2603 747 3093 
Q 1141 3584 1784 3584 
Q 2172 3584 2450 3431 
Q 2728 3278 2906 2969 
L 2906 3500 
L 3481 3500 
L 3481 434 
z
" transform="scale(0.015625)"/>
      </defs>
      <use xlink:href="#DejaVuSans-69"/>
      <use xlink:href="#DejaVuSans-73" x="27.783203"/>
      <use xlink:href="#DejaVuSans-5f" x="79.882812"/>
      <use xlink:href="#DejaVuSans-70" x="129.882812"/>
      <use xlink:href="#DejaVuSans-69" x="193.359375"/>
      <use xlink:href="#DejaVuSans-74" x="221.142578"/>
      <use xlink:href="#DejaVuSans-74" x="260.351562"/>
      <use xlink:href="#DejaVuSans-69" x="299.560547"/>
      <use xlink:href="#DejaVuSans-6e" x="327.34375"/>
      <use xlink:href="#DejaVuSans-67" x="390.722656"/>
     </g>
    </g>
    <g id="patch_17">
     <path d="M 644.312584 66.305938 
L 664.312584 66.305938 
L 664.312584 59.305938 
L 644.312584 59.305938 
z
" style="fill: #023eff; fill-opacity: 0.25; stroke: #023eff; stroke-linejoin: miter"/>
    </g>
    <g id="text_28">
     <!-- False -->
     <g transform="translate(672.312584 66.305938) scale(0.1 -0.1)">
      <defs>
       <path id="DejaVuSans-46" d="M 628 4666 
L 3309 4666 
L 3309 4134 
L 1259 4134 
L 1259 2759 
L 3109 2759 
L 3109 2228 
L 1259 2228 
L 1259 0 
L 628 0 
L 628 4666 
z
" transform="scale(0.015625)"/>
       <path id="DejaVuSans-6c" d="M 603 4863 
L 1178 4863 
L 1178 0 
L 603 0 
L 603 4863 
z
" transform="scale(0.015625)"/>
      </defs>
      <use xlink:href="#DejaVuSans-46"/>
      <use xlink:href="#DejaVuSans-61" x="48.394531"/>
      <use xlink:href="#DejaVuSans-6c" x="109.673828"/>
      <use xlink:href="#DejaVuSans-73" x="137.457031"/>
      <use xlink:href="#DejaVuSans-65" x="189.556641"/>
     </g>
    </g>
    <g id="patch_18">
     <path d="M 644.312584 80.984063 
L 664.312584 80.984063 
L 664.312584 73.984063 
L 644.312584 73.984063 
z
" style="fill: #ff7c00; fill-opacity: 0.25; stroke: #ff7c00; stroke-linejoin: miter"/>
    </g>
    <g id="text_29">
     <!-- True -->
     <g transform="translate(672.312584 80.984063) scale(0.1 -0.1)">
      <defs>
       <path id="DejaVuSans-72" d="M 2631 2963 
Q 2534 3019 2420 3045 
Q 2306 3072 2169 3072 
Q 1681 3072 1420 2755 
Q 1159 2438 1159 1844 
L 1159 0 
L 581 0 
L 581 3500 
L 1159 3500 
L 1159 2956 
Q 1341 3275 1631 3429 
Q 1922 3584 2338 3584 
Q 2397 3584 2469 3576 
Q 2541 3569 2628 3553 
L 2631 2963 
z
" transform="scale(0.015625)"/>
      </defs>
      <use xlink:href="#DejaVuSans-54"/>
      <use xlink:href="#DejaVuSans-72" x="46.333984"/>
      <use xlink:href="#DejaVuSans-75" x="87.447266"/>
      <use xlink:href="#DejaVuSans-65" x="150.826172"/>
     </g>
    </g>
   </g>
  </g>
  <g id="text_30">
   <!-- Lap time distribution by pit status and is_pitting -->
   <g transform="translate(215.912813 17.758125) scale(0.12 -0.12)">
    <defs>
     <path id="DejaVuSans-20" transform="scale(0.015625)"/>
     <path id="DejaVuSans-64" d="M 2906 2969 
L 2906 4863 
L 3481 4863 
L 3481 0 
L 2906 0 
L 2906 525 
Q 2725 213 2448 61 
Q 2172 -91 1784 -91 
Q 1150 -91 751 415 
Q 353 922 353 1747 
Q 353 2572 751 3078 
Q 1150 3584 1784 3584 
Q 2172 3584 2448 3432 
Q 2725 3281 2906 2969 
z
M 947 1747 
Q 947 1113 1208 752 
Q 1469 391 1925 391 
Q 2381 391 2643 752 
Q 2906 1113 2906 1747 
Q 2906 2381 2643 2742 
Q 2381 3103 1925 3103 
Q 1469 3103 1208 2742 
Q 947 2381 947 1747 
z
" transform="scale(0.015625)"/>
     <path id="DejaVuSans-62" d="M 3116 1747 
Q 3116 2381 2855 2742 
Q 2594 3103 2138 3103 
Q 1681 3103 1420 2742 
Q 1159 2381 1159 1747 
Q 1159 1113 1420 752 
Q 1681 391 2138 391 
Q 2594 391 2855 752 
Q 3116 1113 3116 1747 
z
M 1159 2969 
Q 1341 3281 1617 3432 
Q 1894 3584 2278 3584 
Q 2916 3584 3314 3078 
Q 3713 2572 3713 1747 
Q 3713 922 3314 415 
Q 2916 -91 2278 -91 
Q 1894 -91 1617 61 
Q 1341 213 1159 525 
L 1159 0 
L 581 0 
L 581 4863 
L 1159 4863 
L 1159 2969 
z
" transform="scale(0.015625)"/>
    </defs>
    <use xlink:href="#DejaVuSans-4c"/>
    <use xlink:href="#DejaVuSans-61" x="55.712891"/>
    <use xlink:href="#DejaVuSans-70" x="116.992188"/>
    <use xlink:href="#DejaVuSans-20" x="180.46875"/>
    <use xlink:href="#DejaVuSans-74" x="212.255859"/>
    <use xlink:href="#DejaVuSans-69" x="251.464844"/>
    <use xlink:href="#DejaVuSans-6d" x="279.248047"/>
    <use xlink:href="#DejaVuSans-65" x="376.660156"/>
    <use xlink:href="#DejaVuSans-20" x="438.183594"/>
    <use xlink:href="#DejaVuSans-64" x="469.970703"/>
    <use xlink:href="#DejaVuSans-69" x="533.447266"/>
    <use xlink:href="#DejaVuSans-73" x="561.230469"/>
    <use xlink:href="#DejaVuSans-74" x="613.330078"/>
    <use xlink:href="#DejaVuSans-72" x="652.539062"/>
    <use xlink:href="#DejaVuSans-69" x="693.652344"/>
    <use xlink:href="#DejaVuSans-62" x="721.435547"/>
    <use xlink:href="#DejaVuSans-75" x="784.912109"/>
    <use xlink:href="#DejaVuSans-74" x="848.291016"/>
    <use xlink:href="#DejaVuSans-69" x="887.5"/>
    <use xlink:href="#DejaVuSans-6f" x="915.283203"/>
    <use xlink:href="#DejaVuSans-6e" x="976.464844"/>
    <use xlink:href="#DejaVuSans-20" x="1039.84375"/>
    <use xlink:href="#DejaVuSans-62" x="1071.630859"/>
    <use xlink:href="#DejaVuSans-79" x="1135.107422"/>
    <use xlink:href="#DejaVuSans-20" x="1194.287109"/>
    <use xlink:href="#DejaVuSans-70" x="1226.074219"/>
    <use xlink:href="#DejaVuSans-69" x="1289.550781"/>
    <use xlink:href="#DejaVuSans-74" x="1317.333984"/>
    <use xlink:href="#DejaVuSans-20" x="1356.542969"/>
    <use xlink:href="#DejaVuSans-73" x="1388.330078"/>
    <use xlink:href="#DejaVuSans-74" x="1440.429688"/>
    <use xlink:href="#DejaVuSans-61" x="1479.638672"/>
    <use xlink:href="#DejaVuSans-74" x="1540.917969"/>
    <use xlink:href="#DejaVuSans-75" x="1580.126953"/>
    <use xlink:href="#DejaVuSans-73" x="1643.505859"/>
    <use xlink:href="#DejaVuSans-20" x="1695.605469"/>
    <use xlink:href="#DejaVuSans-61" x="1727.392578"/>
    <use xlink:href="#DejaVuSans-6e" x="1788.671875"/>
    <use xlink:href="#DejaVuSans-64" x="1852.050781"/>
    <use xlink:href="#DejaVuSans-20" x="1915.527344"/>
    <use xlink:href="#DejaVuSans-69" x="1947.314453"/>
    <use xlink:href="#DejaVuSans-73" x="1975.097656"/>
    <use xlink:href="#DejaVuSans-5f" x="2027.197266"/>
    <use xlink:href="#DejaVuSans-70" x="2077.197266"/>
    <use xlink:href="#DejaVuSans-69" x="2140.673828"/>
    <use xlink:href="#DejaVuSans-74" x="2168.457031"/>
    <use xlink:href="#DejaVuSans-74" x="2207.666016"/>
    <use xlink:href="#DejaVuSans-69" x="2246.875"/>
    <use xlink:href="#DejaVuSans-6e" x="2274.658203"/>
    <use xlink:href="#DejaVuSans-67" x="2338.037109"/>
   </g>
  </g>
 </g>
 <defs>
  <clipPath id="p64b17e80c6">
   <rect x="60.32" y="34.75125" width="315.900198" height="355.28875"/>
  </clipPath>
  <clipPath id="pd7de849567">
   <rect x="390.520198" y="34.75125" width="315.900198" height="355.28875"/>
  </clipPath>
 </defs>
</svg>
