<?xml version="1.0" encoding="utf-8" standalone="no"?>
<!DOCTYPE svg PUBLIC "-//W3C//DTD SVG 1.1//EN"
  "http://www.w3.org/Graphics/SVG/1.1/DTD/svg11.dtd">
<svg xmlns:xlink="http://www.w3.org/1999/xlink" width="720pt" height="360pt" viewBox="0 0 720 360" xmlns="http://www.w3.org/2000/svg" version="1.1">
 <metadata>
  <rdf:RDF xmlns:dc="http://purl.org/dc/elements/1.1/" xmlns:cc="http://creativecommons.org/ns#" xmlns:rdf="http://www.w3.org/1999/02/22-rdf-syntax-ns#">
   <cc:Work>
    <dc:type rdf:resource="http://purl.org/dc/dcmitype/StillImage"/>
    <dc:date>2023-05-26T17:41:09.283658</dc:date>
    <dc:format>image/svg+xml</dc:format>
    <dc:creator>
     <cc:Agent>
      <dc:title>Matplotlib v3.6.2, https://matplotlib.org/</dc:title>
     </cc:Agent>
    </dc:creator>
   </cc:Work>
  </rdf:RDF>
 </metadata>
 <defs>
  <style type="text/css">*{stroke-linejoin: round; stroke-linecap: butt}</style>
 </defs>
 <g id="figure_1">
  <g id="patch_1">
   <path d="M 0 360 
L 720 360 
L 720 0 
L 0 0 
z
" style="fill: #ffffff"/>
  </g>
  <g id="axes_1">
   <g id="patch_2">
    <path d="M 90 320.4 
L 648 320.4 
L 648 43.2 
L 90 43.2 
z
" style="fill: #ffffff"/>
   </g>
   <g id="patch_3">
    <path d="M 91.622093 79063.825396 
L 94.866279 79063.825396 
L 94.866279 55.8 
L 91.622093 55.8 
z
" clip-path="url(#p96277d7964)" style="fill: #1f77b4"/>
   </g>
   <g id="patch_4">
    <path d="M 98.110465 79063.825396 
L 101.354651 79063.825396 
L 101.354651 145.507629 
L 98.110465 145.507629 
z
" clip-path="url(#p96277d7964)" style="fill: #1f77b4"/>
   </g>
   <g id="patch_5">
    <path d="M 104.598837 79063.825396 
L 107.843023 79063.825396 
L 107.843023 140.792026 
L 104.598837 140.792026 
z
" clip-path="url(#p96277d7964)" style="fill: #1f77b4"/>
   </g>
   <g id="patch_6">
    <path d="M 111.087209 79063.825396 
L 114.331395 79063.825396 
L 114.331395 158.350433 
L 111.087209 158.350433 
z
" clip-path="url(#p96277d7964)" style="fill: #1f77b4"/>
   </g>
   <g id="patch_7">
    <path d="M 117.575581 79063.825396 
L 120.819767 79063.825396 
L 120.819767 159.227489 
L 117.575581 159.227489 
z
" clip-path="url(#p96277d7964)" style="fill: #1f77b4"/>
   </g>
   <g id="patch_8">
    <path d="M 124.063953 79063.825396 
L 127.30814 79063.825396 
L 127.30814 159.674597 
L 124.063953 159.674597 
z
" clip-path="url(#p96277d7964)" style="fill: #1f77b4"/>
   </g>
   <g id="patch_9">
    <path d="M 130.552326 79063.825396 
L 133.796512 79063.825396 
L 133.796512 158.786149 
L 130.552326 158.786149 
z
" clip-path="url(#p96277d7964)" style="fill: #1f77b4"/>
   </g>
   <g id="patch_10">
    <path d="M 137.040698 79063.825396 
L 140.284884 79063.825396 
L 140.284884 158.786149 
L 137.040698 158.786149 
z
" clip-path="url(#p96277d7964)" style="fill: #1f77b4"/>
   </g>
   <g id="patch_11">
    <path d="M 143.52907 79063.825396 
L 146.773256 79063.825396 
L 146.773256 153.513686 
L 143.52907 153.513686 
z
" clip-path="url(#p96277d7964)" style="fill: #1f77b4"/>
   </g>
   <g id="patch_12">
    <path d="M 150.017442 79063.825396 
L 153.261628 79063.825396 
L 153.261628 158.786149 
L 150.017442 158.786149 
z
" clip-path="url(#p96277d7964)" style="fill: #1f77b4"/>
   </g>
   <g id="patch_13">
    <path d="M 156.505814 79063.825396 
L 159.75 79063.825396 
L 159.75 157.920197 
L 156.505814 157.920197 
z
" clip-path="url(#p96277d7964)" style="fill: #1f77b4"/>
   </g>
   <g id="patch_14">
    <path d="M 162.994186 79063.825396 
L 166.238372 79063.825396 
L 166.238372 157.495305 
L 162.994186 157.495305 
z
" clip-path="url(#p96277d7964)" style="fill: #1f77b4"/>
   </g>
   <g id="patch_15">
    <path d="M 169.482558 79063.825396 
L 172.726744 79063.825396 
L 172.726744 158.350433 
L 169.482558 158.350433 
z
" clip-path="url(#p96277d7964)" style="fill: #1f77b4"/>
   </g>
   <g id="patch_16">
    <path d="M 175.97093 79063.825396 
L 179.215116 79063.825396 
L 179.215116 150.631704 
L 175.97093 150.631704 
z
" clip-path="url(#p96277d7964)" style="fill: #1f77b4"/>
   </g>
   <g id="patch_17">
    <path d="M 182.459302 79063.825396 
L 185.703488 79063.825396 
L 185.703488 157.920197 
L 182.459302 157.920197 
z
" clip-path="url(#p96277d7964)" style="fill: #1f77b4"/>
   </g>
   <g id="patch_18">
    <path d="M 188.947674 79063.825396 
L 192.19186 79063.825396 
L 192.19186 152.404293 
L 188.947674 152.404293 
z
" clip-path="url(#p96277d7964)" style="fill: #1f77b4"/>
   </g>
   <g id="patch_19">
    <path d="M 195.436047 79063.825396 
L 198.680233 79063.825396 
L 198.680233 157.075628 
L 195.436047 157.075628 
z
" clip-path="url(#p96277d7964)" style="fill: #1f77b4"/>
   </g>
   <g id="patch_20">
    <path d="M 201.924419 79063.825396 
L 205.168605 79063.825396 
L 205.168605 157.920197 
L 201.924419 157.920197 
z
" clip-path="url(#p96277d7964)" style="fill: #1f77b4"/>
   </g>
   <g id="patch_21">
    <path d="M 208.412791 79063.825396 
L 211.656977 79063.825396 
L 211.656977 157.920197 
L 208.412791 157.920197 
z
" clip-path="url(#p96277d7964)" style="fill: #1f77b4"/>
   </g>
   <g id="patch_22">
    <path d="M 214.901163 79063.825396 
L 218.145349 79063.825396 
L 218.145349 157.920197 
L 214.901163 157.920197 
z
" clip-path="url(#p96277d7964)" style="fill: #1f77b4"/>
   </g>
   <g id="patch_23">
    <path d="M 221.389535 79063.825396 
L 224.633721 79063.825396 
L 224.633721 157.920197 
L 221.389535 157.920197 
z
" clip-path="url(#p96277d7964)" style="fill: #1f77b4"/>
   </g>
   <g id="patch_24">
    <path d="M 227.877907 79063.825396 
L 231.122093 79063.825396 
L 231.122093 157.495305 
L 227.877907 157.495305 
z
" clip-path="url(#p96277d7964)" style="fill: #1f77b4"/>
   </g>
   <g id="patch_25">
    <path d="M 234.366279 79063.825396 
L 237.610465 79063.825396 
L 237.610465 158.350433 
L 234.366279 158.350433 
z
" clip-path="url(#p96277d7964)" style="fill: #1f77b4"/>
   </g>
   <g id="patch_26">
    <path d="M 240.854651 79063.825396 
L 244.098837 79063.825396 
L 244.098837 157.920197 
L 240.854651 157.920197 
z
" clip-path="url(#p96277d7964)" style="fill: #1f77b4"/>
   </g>
   <g id="patch_27">
    <path d="M 247.343023 79063.825396 
L 250.587209 79063.825396 
L 250.587209 158.350433 
L 247.343023 158.350433 
z
" clip-path="url(#p96277d7964)" style="fill: #1f77b4"/>
   </g>
   <g id="patch_28">
    <path d="M 253.831395 79063.825396 
L 257.075581 79063.825396 
L 257.075581 157.495305 
L 253.831395 157.495305 
z
" clip-path="url(#p96277d7964)" style="fill: #1f77b4"/>
   </g>
   <g id="patch_29">
    <path d="M 260.319767 79063.825396 
L 263.563953 79063.825396 
L 263.563953 150.978949 
L 260.319767 150.978949 
z
" clip-path="url(#p96277d7964)" style="fill: #1f77b4"/>
   </g>
   <g id="patch_30">
    <path d="M 266.80814 79063.825396 
L 270.052326 79063.825396 
L 270.052326 159.227489 
L 266.80814 159.227489 
z
" clip-path="url(#p96277d7964)" style="fill: #1f77b4"/>
   </g>
   <g id="patch_31">
    <path d="M 273.296512 79063.825396 
L 276.540698 79063.825396 
L 276.540698 159.227489 
L 273.296512 159.227489 
z
" clip-path="url(#p96277d7964)" style="fill: #1f77b4"/>
   </g>
   <g id="patch_32">
    <path d="M 279.784884 79063.825396 
L 283.02907 79063.825396 
L 283.02907 157.920197 
L 279.784884 157.920197 
z
" clip-path="url(#p96277d7964)" style="fill: #1f77b4"/>
   </g>
   <g id="patch_33">
    <path d="M 286.273256 79063.825396 
L 289.517442 79063.825396 
L 289.517442 154.660273 
L 286.273256 154.660273 
z
" clip-path="url(#p96277d7964)" style="fill: #1f77b4"/>
   </g>
   <g id="patch_34">
    <path d="M 292.761628 79063.825396 
L 296.005814 79063.825396 
L 296.005814 158.350433 
L 292.761628 158.350433 
z
" clip-path="url(#p96277d7964)" style="fill: #1f77b4"/>
   </g>
   <g id="patch_35">
    <path d="M 299.25 79063.825396 
L 302.494186 79063.825396 
L 302.494186 159.674597 
L 299.25 159.674597 
z
" clip-path="url(#p96277d7964)" style="fill: #1f77b4"/>
   </g>
   <g id="patch_36">
    <path d="M 305.738372 79063.825396 
L 308.982558 79063.825396 
L 308.982558 159.674597 
L 305.738372 159.674597 
z
" clip-path="url(#p96277d7964)" style="fill: #1f77b4"/>
   </g>
   <g id="patch_37">
    <path d="M 312.226744 79063.825396 
L 315.47093 79063.825396 
L 315.47093 159.227489 
L 312.226744 159.227489 
z
" clip-path="url(#p96277d7964)" style="fill: #1f77b4"/>
   </g>
   <g id="patch_38">
    <path d="M 318.715116 79063.825396 
L 321.959302 79063.825396 
L 321.959302 157.920197 
L 318.715116 157.920197 
z
" clip-path="url(#p96277d7964)" style="fill: #1f77b4"/>
   </g>
   <g id="patch_39">
    <path d="M 325.203488 79063.825396 
L 328.447674 79063.825396 
L 328.447674 158.786149 
L 325.203488 158.786149 
z
" clip-path="url(#p96277d7964)" style="fill: #1f77b4"/>
   </g>
   <g id="patch_40">
    <path d="M 331.69186 79063.825396 
L 334.936047 79063.825396 
L 334.936047 158.786149 
L 331.69186 158.786149 
z
" clip-path="url(#p96277d7964)" style="fill: #1f77b4"/>
   </g>
   <g id="patch_41">
    <path d="M 338.180233 79063.825396 
L 341.424419 79063.825396 
L 341.424419 159.227489 
L 338.180233 159.227489 
z
" clip-path="url(#p96277d7964)" style="fill: #1f77b4"/>
   </g>
   <g id="patch_42">
    <path d="M 344.668605 79063.825396 
L 347.912791 79063.825396 
L 347.912791 158.786149 
L 344.668605 158.786149 
z
" clip-path="url(#p96277d7964)" style="fill: #1f77b4"/>
   </g>
   <g id="patch_43">
    <path d="M 351.156977 79063.825396 
L 354.401163 79063.825396 
L 354.401163 158.786149 
L 351.156977 158.786149 
z
" clip-path="url(#p96277d7964)" style="fill: #1f77b4"/>
   </g>
   <g id="patch_44">
    <path d="M 357.645349 79063.825396 
L 360.889535 79063.825396 
L 360.889535 158.786149 
L 357.645349 158.786149 
z
" clip-path="url(#p96277d7964)" style="fill: #1f77b4"/>
   </g>
   <g id="patch_45">
    <path d="M 364.133721 79063.825396 
L 367.377907 79063.825396 
L 367.377907 159.674597 
L 364.133721 159.674597 
z
" clip-path="url(#p96277d7964)" style="fill: #1f77b4"/>
   </g>
   <g id="patch_46">
    <path d="M 370.622093 79063.825396 
L 373.866279 79063.825396 
L 373.866279 158.786149 
L 370.622093 158.786149 
z
" clip-path="url(#p96277d7964)" style="fill: #1f77b4"/>
   </g>
   <g id="patch_47">
    <path d="M 377.110465 79063.825396 
L 380.354651 79063.825396 
L 380.354651 159.227489 
L 377.110465 159.227489 
z
" clip-path="url(#p96277d7964)" style="fill: #1f77b4"/>
   </g>
   <g id="patch_48">
    <path d="M 383.598837 79063.825396 
L 386.843023 79063.825396 
L 386.843023 156.661037 
L 383.598837 156.661037 
z
" clip-path="url(#p96277d7964)" style="fill: #1f77b4"/>
   </g>
   <g id="patch_49">
    <path d="M 390.087209 79063.825396 
L 393.331395 79063.825396 
L 393.331395 161.052098 
L 390.087209 161.052098 
z
" clip-path="url(#p96277d7964)" style="fill: #1f77b4"/>
   </g>
   <g id="patch_50">
    <path d="M 396.575581 79063.825396 
L 399.819767 79063.825396 
L 399.819767 160.586739 
L 396.575581 160.586739 
z
" clip-path="url(#p96277d7964)" style="fill: #1f77b4"/>
   </g>
   <g id="patch_51">
    <path d="M 403.063953 79063.825396 
L 406.30814 79063.825396 
L 406.30814 159.674597 
L 403.063953 159.674597 
z
" clip-path="url(#p96277d7964)" style="fill: #1f77b4"/>
   </g>
   <g id="patch_52">
    <path d="M 409.552326 79063.825396 
L 412.796512 79063.825396 
L 412.796512 160.586739 
L 409.552326 160.586739 
z
" clip-path="url(#p96277d7964)" style="fill: #1f77b4"/>
   </g>
   <g id="patch_53">
    <path d="M 416.040698 79063.825396 
L 419.284884 79063.825396 
L 419.284884 160.586739 
L 416.040698 160.586739 
z
" clip-path="url(#p96277d7964)" style="fill: #1f77b4"/>
   </g>
   <g id="patch_54">
    <path d="M 422.52907 79063.825396 
L 425.773256 79063.825396 
L 425.773256 162.979554 
L 422.52907 162.979554 
z
" clip-path="url(#p96277d7964)" style="fill: #1f77b4"/>
   </g>
   <g id="patch_55">
    <path d="M 429.017442 79063.825396 
L 432.261628 79063.825396 
L 432.261628 166.09109 
L 429.017442 166.09109 
z
" clip-path="url(#p96277d7964)" style="fill: #1f77b4"/>
   </g>
   <g id="patch_56">
    <path d="M 435.505814 79063.825396 
L 438.75 79063.825396 
L 438.75 172.002886 
L 435.505814 172.002886 
z
" clip-path="url(#p96277d7964)" style="fill: #1f77b4"/>
   </g>
   <g id="patch_57">
    <path d="M 441.994186 79063.825396 
L 445.238372 79063.825396 
L 445.238372 171.363553 
L 441.994186 171.363553 
z
" clip-path="url(#p96277d7964)" style="fill: #1f77b4"/>
   </g>
   <g id="patch_58">
    <path d="M 448.482558 79063.825396 
L 451.726744 79063.825396 
L 451.726744 173.31856 
L 448.482558 173.31856 
z
" clip-path="url(#p96277d7964)" style="fill: #1f77b4"/>
   </g>
   <g id="patch_59">
    <path d="M 454.97093 79063.825396 
L 458.215116 79063.825396 
L 458.215116 173.995875 
L 454.97093 173.995875 
z
" clip-path="url(#p96277d7964)" style="fill: #1f77b4"/>
   </g>
   <g id="patch_60">
    <path d="M 461.459302 79063.825396 
L 464.703488 79063.825396 
L 464.703488 180.783554 
L 461.459302 180.783554 
z
" clip-path="url(#p96277d7964)" style="fill: #1f77b4"/>
   </g>
   <g id="patch_61">
    <path d="M 467.947674 79063.825396 
L 471.19186 79063.825396 
L 471.19186 185.231801 
L 467.947674 185.231801 
z
" clip-path="url(#p96277d7964)" style="fill: #1f77b4"/>
   </g>
   <g id="patch_62">
    <path d="M 474.436047 79063.825396 
L 477.680233 79063.825396 
L 477.680233 188.207878 
L 474.436047 188.207878 
z
" clip-path="url(#p96277d7964)" style="fill: #1f77b4"/>
   </g>
   <g id="patch_63">
    <path d="M 480.924419 79063.825396 
L 484.168605 79063.825396 
L 484.168605 189.26037 
L 480.924419 189.26037 
z
" clip-path="url(#p96277d7964)" style="fill: #1f77b4"/>
   </g>
   <g id="patch_64">
    <path d="M 487.412791 79063.825396 
L 490.656977 79063.825396 
L 490.656977 189.26037 
L 487.412791 189.26037 
z
" clip-path="url(#p96277d7964)" style="fill: #1f77b4"/>
   </g>
   <g id="patch_65">
    <path d="M 493.901163 79063.825396 
L 497.145349 79063.825396 
L 497.145349 189.26037 
L 493.901163 189.26037 
z
" clip-path="url(#p96277d7964)" style="fill: #1f77b4"/>
   </g>
   <g id="patch_66">
    <path d="M 500.389535 79063.825396 
L 503.633721 79063.825396 
L 503.633721 191.467801 
L 500.389535 191.467801 
z
" clip-path="url(#p96277d7964)" style="fill: #1f77b4"/>
   </g>
   <g id="patch_67">
    <path d="M 506.877907 79063.825396 
L 510.122093 79063.825396 
L 510.122093 193.827585 
L 506.877907 193.827585 
z
" clip-path="url(#p96277d7964)" style="fill: #1f77b4"/>
   </g>
   <g id="patch_68">
    <path d="M 513.366279 79063.825396 
L 516.610465 79063.825396 
L 516.610465 195.071479 
L 513.366279 195.071479 
z
" clip-path="url(#p96277d7964)" style="fill: #1f77b4"/>
   </g>
   <g id="patch_69">
    <path d="M 519.854651 79063.825396 
L 523.098837 79063.825396 
L 523.098837 205.336049 
L 519.854651 205.336049 
z
" clip-path="url(#p96277d7964)" style="fill: #1f77b4"/>
   </g>
   <g id="patch_70">
    <path d="M 526.343023 79063.825396 
L 529.587209 79063.825396 
L 529.587209 203.667264 
L 526.343023 203.667264 
z
" clip-path="url(#p96277d7964)" style="fill: #1f77b4"/>
   </g>
   <g id="patch_71">
    <path d="M 532.831395 79063.825396 
L 536.075581 79063.825396 
L 536.075581 203.667264 
L 532.831395 203.667264 
z
" clip-path="url(#p96277d7964)" style="fill: #1f77b4"/>
   </g>
   <g id="patch_72">
    <path d="M 539.319767 79063.825396 
L 542.563953 79063.825396 
L 542.563953 205.336049 
L 539.319767 205.336049 
z
" clip-path="url(#p96277d7964)" style="fill: #1f77b4"/>
   </g>
   <g id="patch_73">
    <path d="M 545.80814 79063.825396 
L 549.052326 79063.825396 
L 549.052326 215.175727 
L 545.80814 215.175727 
z
" clip-path="url(#p96277d7964)" style="fill: #1f77b4"/>
   </g>
   <g id="patch_74">
    <path d="M 552.296512 79063.825396 
L 555.540698 79063.825396 
L 555.540698 260.384148 
L 552.296512 260.384148 
z
" clip-path="url(#p96277d7964)" style="fill: #1f77b4"/>
   </g>
   <g id="patch_75">
    <path d="M 558.784884 79063.825396 
L 562.02907 79063.825396 
L 562.02907 270.223826 
L 558.784884 270.223826 
z
" clip-path="url(#p96277d7964)" style="fill: #1f77b4"/>
   </g>
   <g id="patch_76">
    <path d="M 565.273256 79063.825396 
L 568.517442 79063.825396 
L 568.517442 270.223826 
L 565.273256 270.223826 
z
" clip-path="url(#p96277d7964)" style="fill: #1f77b4"/>
   </g>
   <g id="patch_77">
    <path d="M 571.761628 79063.825396 
L 575.005814 79063.825396 
L 575.005814 270.223826 
L 571.761628 270.223826 
z
" clip-path="url(#p96277d7964)" style="fill: #1f77b4"/>
   </g>
   <g id="patch_78">
    <path d="M 578.25 79063.825396 
L 581.494186 79063.825396 
L 581.494186 270.223826 
L 578.25 270.223826 
z
" clip-path="url(#p96277d7964)" style="fill: #1f77b4"/>
   </g>
   <g id="patch_79">
    <path d="M 584.738372 79063.825396 
L 587.982558 79063.825396 
L 587.982558 270.223826 
L 584.738372 270.223826 
z
" clip-path="url(#p96277d7964)" style="fill: #1f77b4"/>
   </g>
   <g id="patch_80">
    <path d="M 591.226744 79063.825396 
L 594.47093 79063.825396 
L 594.47093 270.223826 
L 591.226744 270.223826 
z
" clip-path="url(#p96277d7964)" style="fill: #1f77b4"/>
   </g>
   <g id="patch_81">
    <path d="M 597.715116 79063.825396 
L 600.959302 79063.825396 
L 600.959302 307.8 
L 597.715116 307.8 
z
" clip-path="url(#p96277d7964)" style="fill: #1f77b4"/>
   </g>
   <g id="patch_82">
    <path d="M 604.203488 79063.825396 
L 607.447674 79063.825396 
L 607.447674 307.8 
L 604.203488 307.8 
z
" clip-path="url(#p96277d7964)" style="fill: #1f77b4"/>
   </g>
   <g id="patch_83">
    <path d="M 610.69186 79063.825396 
L 613.936047 79063.825396 
L 613.936047 307.8 
L 610.69186 307.8 
z
" clip-path="url(#p96277d7964)" style="fill: #1f77b4"/>
   </g>
   <g id="patch_84">
    <path d="M 617.180233 79063.825396 
L 620.424419 79063.825396 
L 620.424419 307.8 
L 617.180233 307.8 
z
" clip-path="url(#p96277d7964)" style="fill: #1f77b4"/>
   </g>
   <g id="patch_85">
    <path d="M 623.668605 79063.825396 
L 626.912791 79063.825396 
L 626.912791 307.8 
L 623.668605 307.8 
z
" clip-path="url(#p96277d7964)" style="fill: #1f77b4"/>
   </g>
   <g id="patch_86">
    <path d="M 630.156977 79063.825396 
L 633.401163 79063.825396 
L 633.401163 307.8 
L 630.156977 307.8 
z
" clip-path="url(#p96277d7964)" style="fill: #1f77b4"/>
   </g>
   <g id="patch_87">
    <path d="M 636.645349 79063.825396 
L 639.889535 79063.825396 
L 639.889535 307.8 
L 636.645349 307.8 
z
" clip-path="url(#p96277d7964)" style="fill: #1f77b4"/>
   </g>
   <g id="patch_88">
    <path d="M 643.133721 79063.825396 
L 646.377907 79063.825396 
L 646.377907 307.8 
L 643.133721 307.8 
z
" clip-path="url(#p96277d7964)" style="fill: #1f77b4"/>
   </g>
   <g id="matplotlib.axis_1">
    <g id="xtick_1">
     <g id="line2d_1">
      <defs>
       <path id="m0896094396" d="M 0 0 
L 0 3.5 
" style="stroke: #000000; stroke-width: 0.8"/>
      </defs>
      <g>
       <use xlink:href="#m0896094396" x="93.244186" y="320.4" style="stroke: #000000; stroke-width: 0.8"/>
      </g>
     </g>
     <g id="text_1">
      <!-- 1 -->
      <g transform="translate(90.062936 334.998438) scale(0.1 -0.1)">
       <defs>
        <path id="DejaVuSans-31" d="M 794 531 
L 1825 531 
L 1825 4091 
L 703 3866 
L 703 4441 
L 1819 4666 
L 2450 4666 
L 2450 531 
L 3481 531 
L 3481 0 
L 794 0 
L 794 531 
z
" transform="scale(0.015625)"/>
       </defs>
       <use xlink:href="#DejaVuSans-31"/>
      </g>
     </g>
    </g>
    <g id="xtick_2">
     <g id="line2d_2">
      <g>
       <use xlink:href="#m0896094396" x="125.686047" y="320.4" style="stroke: #000000; stroke-width: 0.8"/>
      </g>
     </g>
     <g id="text_2">
      <!-- 6 -->
      <g transform="translate(122.504797 334.998438) scale(0.1 -0.1)">
       <defs>
        <path id="DejaVuSans-36" d="M 2113 2584 
Q 1688 2584 1439 2293 
Q 1191 2003 1191 1497 
Q 1191 994 1439 701 
Q 1688 409 2113 409 
Q 2538 409 2786 701 
Q 3034 994 3034 1497 
Q 3034 2003 2786 2293 
Q 2538 2584 2113 2584 
z
M 3366 4563 
L 3366 3988 
Q 3128 4100 2886 4159 
Q 2644 4219 2406 4219 
Q 1781 4219 1451 3797 
Q 1122 3375 1075 2522 
Q 1259 2794 1537 2939 
Q 1816 3084 2150 3084 
Q 2853 3084 3261 2657 
Q 3669 2231 3669 1497 
Q 3669 778 3244 343 
Q 2819 -91 2113 -91 
Q 1303 -91 875 529 
Q 447 1150 447 2328 
Q 447 3434 972 4092 
Q 1497 4750 2381 4750 
Q 2619 4750 2861 4703 
Q 3103 4656 3366 4563 
z
" transform="scale(0.015625)"/>
       </defs>
       <use xlink:href="#DejaVuSans-36"/>
      </g>
     </g>
    </g>
    <g id="xtick_3">
     <g id="line2d_3">
      <g>
       <use xlink:href="#m0896094396" x="158.127907" y="320.4" style="stroke: #000000; stroke-width: 0.8"/>
      </g>
     </g>
     <g id="text_3">
      <!-- 11 -->
      <g transform="translate(151.765407 334.998438) scale(0.1 -0.1)">
       <use xlink:href="#DejaVuSans-31"/>
       <use xlink:href="#DejaVuSans-31" x="63.623047"/>
      </g>
     </g>
    </g>
    <g id="xtick_4">
     <g id="line2d_4">
      <g>
       <use xlink:href="#m0896094396" x="190.569767" y="320.4" style="stroke: #000000; stroke-width: 0.8"/>
      </g>
     </g>
     <g id="text_4">
      <!-- 16 -->
      <g transform="translate(184.207267 334.998438) scale(0.1 -0.1)">
       <use xlink:href="#DejaVuSans-31"/>
       <use xlink:href="#DejaVuSans-36" x="63.623047"/>
      </g>
     </g>
    </g>
    <g id="xtick_5">
     <g id="line2d_5">
      <g>
       <use xlink:href="#m0896094396" x="223.011628" y="320.4" style="stroke: #000000; stroke-width: 0.8"/>
      </g>
     </g>
     <g id="text_5">
      <!-- 21 -->
      <g transform="translate(216.649128 334.998438) scale(0.1 -0.1)">
       <defs>
        <path id="DejaVuSans-32" d="M 1228 531 
L 3431 531 
L 3431 0 
L 469 0 
L 469 531 
Q 828 903 1448 1529 
Q 2069 2156 2228 2338 
Q 2531 2678 2651 2914 
Q 2772 3150 2772 3378 
Q 2772 3750 2511 3984 
Q 2250 4219 1831 4219 
Q 1534 4219 1204 4116 
Q 875 4013 500 3803 
L 500 4441 
Q 881 4594 1212 4672 
Q 1544 4750 1819 4750 
Q 2544 4750 2975 4387 
Q 3406 4025 3406 3419 
Q 3406 3131 3298 2873 
Q 3191 2616 2906 2266 
Q 2828 2175 2409 1742 
Q 1991 1309 1228 531 
z
" transform="scale(0.015625)"/>
       </defs>
       <use xlink:href="#DejaVuSans-32"/>
       <use xlink:href="#DejaVuSans-31" x="63.623047"/>
      </g>
     </g>
    </g>
    <g id="xtick_6">
     <g id="line2d_6">
      <g>
       <use xlink:href="#m0896094396" x="255.453488" y="320.4" style="stroke: #000000; stroke-width: 0.8"/>
      </g>
     </g>
     <g id="text_6">
      <!-- 26 -->
      <g transform="translate(249.090988 334.998438) scale(0.1 -0.1)">
       <use xlink:href="#DejaVuSans-32"/>
       <use xlink:href="#DejaVuSans-36" x="63.623047"/>
      </g>
     </g>
    </g>
    <g id="xtick_7">
     <g id="line2d_7">
      <g>
       <use xlink:href="#m0896094396" x="287.895349" y="320.4" style="stroke: #000000; stroke-width: 0.8"/>
      </g>
     </g>
     <g id="text_7">
      <!-- 31 -->
      <g transform="translate(281.532849 334.998438) scale(0.1 -0.1)">
       <defs>
        <path id="DejaVuSans-33" d="M 2597 2516 
Q 3050 2419 3304 2112 
Q 3559 1806 3559 1356 
Q 3559 666 3084 287 
Q 2609 -91 1734 -91 
Q 1441 -91 1130 -33 
Q 819 25 488 141 
L 488 750 
Q 750 597 1062 519 
Q 1375 441 1716 441 
Q 2309 441 2620 675 
Q 2931 909 2931 1356 
Q 2931 1769 2642 2001 
Q 2353 2234 1838 2234 
L 1294 2234 
L 1294 2753 
L 1863 2753 
Q 2328 2753 2575 2939 
Q 2822 3125 2822 3475 
Q 2822 3834 2567 4026 
Q 2313 4219 1838 4219 
Q 1578 4219 1281 4162 
Q 984 4106 628 3988 
L 628 4550 
Q 988 4650 1302 4700 
Q 1616 4750 1894 4750 
Q 2613 4750 3031 4423 
Q 3450 4097 3450 3541 
Q 3450 3153 3228 2886 
Q 3006 2619 2597 2516 
z
" transform="scale(0.015625)"/>
       </defs>
       <use xlink:href="#DejaVuSans-33"/>
       <use xlink:href="#DejaVuSans-31" x="63.623047"/>
      </g>
     </g>
    </g>
    <g id="xtick_8">
     <g id="line2d_8">
      <g>
       <use xlink:href="#m0896094396" x="320.337209" y="320.4" style="stroke: #000000; stroke-width: 0.8"/>
      </g>
     </g>
     <g id="text_8">
      <!-- 36 -->
      <g transform="translate(313.974709 334.998438) scale(0.1 -0.1)">
       <use xlink:href="#DejaVuSans-33"/>
       <use xlink:href="#DejaVuSans-36" x="63.623047"/>
      </g>
     </g>
    </g>
    <g id="xtick_9">
     <g id="line2d_9">
      <g>
       <use xlink:href="#m0896094396" x="352.77907" y="320.4" style="stroke: #000000; stroke-width: 0.8"/>
      </g>
     </g>
     <g id="text_9">
      <!-- 41 -->
      <g transform="translate(346.41657 334.998438) scale(0.1 -0.1)">
       <defs>
        <path id="DejaVuSans-34" d="M 2419 4116 
L 825 1625 
L 2419 1625 
L 2419 4116 
z
M 2253 4666 
L 3047 4666 
L 3047 1625 
L 3713 1625 
L 3713 1100 
L 3047 1100 
L 3047 0 
L 2419 0 
L 2419 1100 
L 313 1100 
L 313 1709 
L 2253 4666 
z
" transform="scale(0.015625)"/>
       </defs>
       <use xlink:href="#DejaVuSans-34"/>
       <use xlink:href="#DejaVuSans-31" x="63.623047"/>
      </g>
     </g>
    </g>
    <g id="xtick_10">
     <g id="line2d_10">
      <g>
       <use xlink:href="#m0896094396" x="385.22093" y="320.4" style="stroke: #000000; stroke-width: 0.8"/>
      </g>
     </g>
     <g id="text_10">
      <!-- 46 -->
      <g transform="translate(378.85843 334.998438) scale(0.1 -0.1)">
       <use xlink:href="#DejaVuSans-34"/>
       <use xlink:href="#DejaVuSans-36" x="63.623047"/>
      </g>
     </g>
    </g>
    <g id="xtick_11">
     <g id="line2d_11">
      <g>
       <use xlink:href="#m0896094396" x="417.662791" y="320.4" style="stroke: #000000; stroke-width: 0.8"/>
      </g>
     </g>
     <g id="text_11">
      <!-- 51 -->
      <g transform="translate(411.300291 334.998438) scale(0.1 -0.1)">
       <defs>
        <path id="DejaVuSans-35" d="M 691 4666 
L 3169 4666 
L 3169 4134 
L 1269 4134 
L 1269 2991 
Q 1406 3038 1543 3061 
Q 1681 3084 1819 3084 
Q 2600 3084 3056 2656 
Q 3513 2228 3513 1497 
Q 3513 744 3044 326 
Q 2575 -91 1722 -91 
Q 1428 -91 1123 -41 
Q 819 9 494 109 
L 494 744 
Q 775 591 1075 516 
Q 1375 441 1709 441 
Q 2250 441 2565 725 
Q 2881 1009 2881 1497 
Q 2881 1984 2565 2268 
Q 2250 2553 1709 2553 
Q 1456 2553 1204 2497 
Q 953 2441 691 2322 
L 691 4666 
z
" transform="scale(0.015625)"/>
       </defs>
       <use xlink:href="#DejaVuSans-35"/>
       <use xlink:href="#DejaVuSans-31" x="63.623047"/>
      </g>
     </g>
    </g>
    <g id="xtick_12">
     <g id="line2d_12">
      <g>
       <use xlink:href="#m0896094396" x="450.104651" y="320.4" style="stroke: #000000; stroke-width: 0.8"/>
      </g>
     </g>
     <g id="text_12">
      <!-- 56 -->
      <g transform="translate(443.742151 334.998438) scale(0.1 -0.1)">
       <use xlink:href="#DejaVuSans-35"/>
       <use xlink:href="#DejaVuSans-36" x="63.623047"/>
      </g>
     </g>
    </g>
    <g id="xtick_13">
     <g id="line2d_13">
      <g>
       <use xlink:href="#m0896094396" x="482.546512" y="320.4" style="stroke: #000000; stroke-width: 0.8"/>
      </g>
     </g>
     <g id="text_13">
      <!-- 61 -->
      <g transform="translate(476.184012 334.998438) scale(0.1 -0.1)">
       <use xlink:href="#DejaVuSans-36"/>
       <use xlink:href="#DejaVuSans-31" x="63.623047"/>
      </g>
     </g>
    </g>
    <g id="xtick_14">
     <g id="line2d_14">
      <g>
       <use xlink:href="#m0896094396" x="514.988372" y="320.4" style="stroke: #000000; stroke-width: 0.8"/>
      </g>
     </g>
     <g id="text_14">
      <!-- 66 -->
      <g transform="translate(508.625872 334.998438) scale(0.1 -0.1)">
       <use xlink:href="#DejaVuSans-36"/>
       <use xlink:href="#DejaVuSans-36" x="63.623047"/>
      </g>
     </g>
    </g>
    <g id="xtick_15">
     <g id="line2d_15">
      <g>
       <use xlink:href="#m0896094396" x="547.430233" y="320.4" style="stroke: #000000; stroke-width: 0.8"/>
      </g>
     </g>
     <g id="text_15">
      <!-- 71 -->
      <g transform="translate(541.067733 334.998438) scale(0.1 -0.1)">
       <defs>
        <path id="DejaVuSans-37" d="M 525 4666 
L 3525 4666 
L 3525 4397 
L 1831 0 
L 1172 0 
L 2766 4134 
L 525 4134 
L 525 4666 
z
" transform="scale(0.015625)"/>
       </defs>
       <use xlink:href="#DejaVuSans-37"/>
       <use xlink:href="#DejaVuSans-31" x="63.623047"/>
      </g>
     </g>
    </g>
    <g id="xtick_16">
     <g id="line2d_16">
      <g>
       <use xlink:href="#m0896094396" x="579.872093" y="320.4" style="stroke: #000000; stroke-width: 0.8"/>
      </g>
     </g>
     <g id="text_16">
      <!-- 76 -->
      <g transform="translate(573.509593 334.998438) scale(0.1 -0.1)">
       <use xlink:href="#DejaVuSans-37"/>
       <use xlink:href="#DejaVuSans-36" x="63.623047"/>
      </g>
     </g>
    </g>
    <g id="xtick_17">
     <g id="line2d_17">
      <g>
       <use xlink:href="#m0896094396" x="612.313953" y="320.4" style="stroke: #000000; stroke-width: 0.8"/>
      </g>
     </g>
     <g id="text_17">
      <!-- 82 -->
      <g transform="translate(605.951453 334.998438) scale(0.1 -0.1)">
       <defs>
        <path id="DejaVuSans-38" d="M 2034 2216 
Q 1584 2216 1326 1975 
Q 1069 1734 1069 1313 
Q 1069 891 1326 650 
Q 1584 409 2034 409 
Q 2484 409 2743 651 
Q 3003 894 3003 1313 
Q 3003 1734 2745 1975 
Q 2488 2216 2034 2216 
z
M 1403 2484 
Q 997 2584 770 2862 
Q 544 3141 544 3541 
Q 544 4100 942 4425 
Q 1341 4750 2034 4750 
Q 2731 4750 3128 4425 
Q 3525 4100 3525 3541 
Q 3525 3141 3298 2862 
Q 3072 2584 2669 2484 
Q 3125 2378 3379 2068 
Q 3634 1759 3634 1313 
Q 3634 634 3220 271 
Q 2806 -91 2034 -91 
Q 1263 -91 848 271 
Q 434 634 434 1313 
Q 434 1759 690 2068 
Q 947 2378 1403 2484 
z
M 1172 3481 
Q 1172 3119 1398 2916 
Q 1625 2713 2034 2713 
Q 2441 2713 2670 2916 
Q 2900 3119 2900 3481 
Q 2900 3844 2670 4047 
Q 2441 4250 2034 4250 
Q 1625 4250 1398 4047 
Q 1172 3844 1172 3481 
z
" transform="scale(0.015625)"/>
       </defs>
       <use xlink:href="#DejaVuSans-38"/>
       <use xlink:href="#DejaVuSans-32" x="63.623047"/>
      </g>
     </g>
    </g>
    <g id="xtick_18">
     <g id="line2d_18">
      <g>
       <use xlink:href="#m0896094396" x="644.755814" y="320.4" style="stroke: #000000; stroke-width: 0.8"/>
      </g>
     </g>
     <g id="text_18">
      <!-- 87 -->
      <g transform="translate(638.393314 334.998438) scale(0.1 -0.1)">
       <use xlink:href="#DejaVuSans-38"/>
       <use xlink:href="#DejaVuSans-37" x="63.623047"/>
      </g>
     </g>
    </g>
    <g id="text_19">
     <!-- LapNumber -->
     <g transform="translate(339.889844 348.676562) scale(0.1 -0.1)">
      <defs>
       <path id="DejaVuSans-4c" d="M 628 4666 
L 1259 4666 
L 1259 531 
L 3531 531 
L 3531 0 
L 628 0 
L 628 4666 
z
" transform="scale(0.015625)"/>
       <path id="DejaVuSans-61" d="M 2194 1759 
Q 1497 1759 1228 1600 
Q 959 1441 959 1056 
Q 959 750 1161 570 
Q 1363 391 1709 391 
Q 2188 391 2477 730 
Q 2766 1069 2766 1631 
L 2766 1759 
L 2194 1759 
z
M 3341 1997 
L 3341 0 
L 2766 0 
L 2766 531 
Q 2569 213 2275 61 
Q 1981 -91 1556 -91 
Q 1019 -91 701 211 
Q 384 513 384 1019 
Q 384 1609 779 1909 
Q 1175 2209 1959 2209 
L 2766 2209 
L 2766 2266 
Q 2766 2663 2505 2880 
Q 2244 3097 1772 3097 
Q 1472 3097 1187 3025 
Q 903 2953 641 2809 
L 641 3341 
Q 956 3463 1253 3523 
Q 1550 3584 1831 3584 
Q 2591 3584 2966 3190 
Q 3341 2797 3341 1997 
z
" transform="scale(0.015625)"/>
       <path id="DejaVuSans-70" d="M 1159 525 
L 1159 -1331 
L 581 -1331 
L 581 3500 
L 1159 3500 
L 1159 2969 
Q 1341 3281 1617 3432 
Q 1894 3584 2278 3584 
Q 2916 3584 3314 3078 
Q 3713 2572 3713 1747 
Q 3713 922 3314 415 
Q 2916 -91 2278 -91 
Q 1894 -91 1617 61 
Q 1341 213 1159 525 
z
M 3116 1747 
Q 3116 2381 2855 2742 
Q 2594 3103 2138 3103 
Q 1681 3103 1420 2742 
Q 1159 2381 1159 1747 
Q 1159 1113 1420 752 
Q 1681 391 2138 391 
Q 2594 391 2855 752 
Q 3116 1113 3116 1747 
z
" transform="scale(0.015625)"/>
       <path id="DejaVuSans-4e" d="M 628 4666 
L 1478 4666 
L 3547 763 
L 3547 4666 
L 4159 4666 
L 4159 0 
L 3309 0 
L 1241 3903 
L 1241 0 
L 628 0 
L 628 4666 
z
" transform="scale(0.015625)"/>
       <path id="DejaVuSans-75" d="M 544 1381 
L 544 3500 
L 1119 3500 
L 1119 1403 
Q 1119 906 1312 657 
Q 1506 409 1894 409 
Q 2359 409 2629 706 
Q 2900 1003 2900 1516 
L 2900 3500 
L 3475 3500 
L 3475 0 
L 2900 0 
L 2900 538 
Q 2691 219 2414 64 
Q 2138 -91 1772 -91 
Q 1169 -91 856 284 
Q 544 659 544 1381 
z
M 1991 3584 
L 1991 3584 
z
" transform="scale(0.015625)"/>
       <path id="DejaVuSans-6d" d="M 3328 2828 
Q 3544 3216 3844 3400 
Q 4144 3584 4550 3584 
Q 5097 3584 5394 3201 
Q 5691 2819 5691 2113 
L 5691 0 
L 5113 0 
L 5113 2094 
Q 5113 2597 4934 2840 
Q 4756 3084 4391 3084 
Q 3944 3084 3684 2787 
Q 3425 2491 3425 1978 
L 3425 0 
L 2847 0 
L 2847 2094 
Q 2847 2600 2669 2842 
Q 2491 3084 2119 3084 
Q 1678 3084 1418 2786 
Q 1159 2488 1159 1978 
L 1159 0 
L 581 0 
L 581 3500 
L 1159 3500 
L 1159 2956 
Q 1356 3278 1631 3431 
Q 1906 3584 2284 3584 
Q 2666 3584 2933 3390 
Q 3200 3197 3328 2828 
z
" transform="scale(0.015625)"/>
       <path id="DejaVuSans-62" d="M 3116 1747 
Q 3116 2381 2855 2742 
Q 2594 3103 2138 3103 
Q 1681 3103 1420 2742 
Q 1159 2381 1159 1747 
Q 1159 1113 1420 752 
Q 1681 391 2138 391 
Q 2594 391 2855 752 
Q 3116 1113 3116 1747 
z
M 1159 2969 
Q 1341 3281 1617 3432 
Q 1894 3584 2278 3584 
Q 2916 3584 3314 3078 
Q 3713 2572 3713 1747 
Q 3713 922 3314 415 
Q 2916 -91 2278 -91 
Q 1894 -91 1617 61 
Q 1341 213 1159 525 
L 1159 0 
L 581 0 
L 581 4863 
L 1159 4863 
L 1159 2969 
z
" transform="scale(0.015625)"/>
       <path id="DejaVuSans-65" d="M 3597 1894 
L 3597 1613 
L 953 1613 
Q 991 1019 1311 708 
Q 1631 397 2203 397 
Q 2534 397 2845 478 
Q 3156 559 3463 722 
L 3463 178 
Q 3153 47 2828 -22 
Q 2503 -91 2169 -91 
Q 1331 -91 842 396 
Q 353 884 353 1716 
Q 353 2575 817 3079 
Q 1281 3584 2069 3584 
Q 2775 3584 3186 3129 
Q 3597 2675 3597 1894 
z
M 3022 2063 
Q 3016 2534 2758 2815 
Q 2500 3097 2075 3097 
Q 1594 3097 1305 2825 
Q 1016 2553 972 2059 
L 3022 2063 
z
" transform="scale(0.015625)"/>
       <path id="DejaVuSans-72" d="M 2631 2963 
Q 2534 3019 2420 3045 
Q 2306 3072 2169 3072 
Q 1681 3072 1420 2755 
Q 1159 2438 1159 1844 
L 1159 0 
L 581 0 
L 581 3500 
L 1159 3500 
L 1159 2956 
Q 1341 3275 1631 3429 
Q 1922 3584 2338 3584 
Q 2397 3584 2469 3576 
Q 2541 3569 2628 3553 
L 2631 2963 
z
" transform="scale(0.015625)"/>
      </defs>
      <use xlink:href="#DejaVuSans-4c"/>
      <use xlink:href="#DejaVuSans-61" x="55.712891"/>
      <use xlink:href="#DejaVuSans-70" x="116.992188"/>
      <use xlink:href="#DejaVuSans-4e" x="180.46875"/>
      <use xlink:href="#DejaVuSans-75" x="255.273438"/>
      <use xlink:href="#DejaVuSans-6d" x="318.652344"/>
      <use xlink:href="#DejaVuSans-62" x="416.064453"/>
      <use xlink:href="#DejaVuSans-65" x="479.541016"/>
      <use xlink:href="#DejaVuSans-72" x="541.064453"/>
     </g>
    </g>
   </g>
   <g id="matplotlib.axis_2">
    <g id="ytick_1">
     <g id="line2d_19">
      <path d="M 90 307.8 
L 648 307.8 
" clip-path="url(#p96277d7964)" style="fill: none; stroke: #b0b0b0; stroke-width: 0.8; stroke-linecap: square"/>
     </g>
     <g id="line2d_20">
      <defs>
       <path id="m4ef210abad" d="M 0 0 
L -3.5 0 
" style="stroke: #000000; stroke-width: 0.8"/>
      </defs>
      <g>
       <use xlink:href="#m4ef210abad" x="90" y="307.8" style="stroke: #000000; stroke-width: 0.8"/>
      </g>
     </g>
     <g id="text_20">
      <!-- $\mathdefault{10^{0}}$ -->
      <g transform="translate(65.4 311.599219) scale(0.1 -0.1)">
       <defs>
        <path id="DejaVuSans-30" d="M 2034 4250 
Q 1547 4250 1301 3770 
Q 1056 3291 1056 2328 
Q 1056 1369 1301 889 
Q 1547 409 2034 409 
Q 2525 409 2770 889 
Q 3016 1369 3016 2328 
Q 3016 3291 2770 3770 
Q 2525 4250 2034 4250 
z
M 2034 4750 
Q 2819 4750 3233 4129 
Q 3647 3509 3647 2328 
Q 3647 1150 3233 529 
Q 2819 -91 2034 -91 
Q 1250 -91 836 529 
Q 422 1150 422 2328 
Q 422 3509 836 4129 
Q 1250 4750 2034 4750 
z
" transform="scale(0.015625)"/>
       </defs>
       <use xlink:href="#DejaVuSans-31" transform="translate(0 0.765625)"/>
       <use xlink:href="#DejaVuSans-30" transform="translate(63.623047 0.765625)"/>
       <use xlink:href="#DejaVuSans-30" transform="translate(128.203125 39.046875) scale(0.7)"/>
      </g>
     </g>
    </g>
    <g id="ytick_2">
     <g id="line2d_21">
      <path d="M 90 229.043975 
L 648 229.043975 
" clip-path="url(#p96277d7964)" style="fill: none; stroke: #b0b0b0; stroke-width: 0.8; stroke-linecap: square"/>
     </g>
     <g id="line2d_22">
      <g>
       <use xlink:href="#m4ef210abad" x="90" y="229.043975" style="stroke: #000000; stroke-width: 0.8"/>
      </g>
     </g>
     <g id="text_21">
      <!-- $\mathdefault{10^{1}}$ -->
      <g transform="translate(65.4 232.843193) scale(0.1 -0.1)">
       <use xlink:href="#DejaVuSans-31" transform="translate(0 0.684375)"/>
       <use xlink:href="#DejaVuSans-30" transform="translate(63.623047 0.684375)"/>
       <use xlink:href="#DejaVuSans-31" transform="translate(128.203125 38.965625) scale(0.7)"/>
      </g>
     </g>
    </g>
    <g id="ytick_3">
     <g id="line2d_23">
      <path d="M 90 150.287949 
L 648 150.287949 
" clip-path="url(#p96277d7964)" style="fill: none; stroke: #b0b0b0; stroke-width: 0.8; stroke-linecap: square"/>
     </g>
     <g id="line2d_24">
      <g>
       <use xlink:href="#m4ef210abad" x="90" y="150.287949" style="stroke: #000000; stroke-width: 0.8"/>
      </g>
     </g>
     <g id="text_22">
      <!-- $\mathdefault{10^{2}}$ -->
      <g transform="translate(65.4 154.087168) scale(0.1 -0.1)">
       <use xlink:href="#DejaVuSans-31" transform="translate(0 0.765625)"/>
       <use xlink:href="#DejaVuSans-30" transform="translate(63.623047 0.765625)"/>
       <use xlink:href="#DejaVuSans-32" transform="translate(128.203125 39.046875) scale(0.7)"/>
      </g>
     </g>
    </g>
    <g id="ytick_4">
     <g id="line2d_25">
      <path d="M 90 71.531924 
L 648 71.531924 
" clip-path="url(#p96277d7964)" style="fill: none; stroke: #b0b0b0; stroke-width: 0.8; stroke-linecap: square"/>
     </g>
     <g id="line2d_26">
      <g>
       <use xlink:href="#m4ef210abad" x="90" y="71.531924" style="stroke: #000000; stroke-width: 0.8"/>
      </g>
     </g>
     <g id="text_23">
      <!-- $\mathdefault{10^{3}}$ -->
      <g transform="translate(65.4 75.331143) scale(0.1 -0.1)">
       <use xlink:href="#DejaVuSans-31" transform="translate(0 0.765625)"/>
       <use xlink:href="#DejaVuSans-30" transform="translate(63.623047 0.765625)"/>
       <use xlink:href="#DejaVuSans-33" transform="translate(128.203125 39.046875) scale(0.7)"/>
      </g>
     </g>
    </g>
    <g id="ytick_5">
     <g id="line2d_27">
      <defs>
       <path id="m81a8657659" d="M 0 0 
L -2 0 
" style="stroke: #000000; stroke-width: 0.6"/>
      </defs>
      <g>
       <use xlink:href="#m81a8657659" x="90" y="319.999463" style="stroke: #000000; stroke-width: 0.6"/>
      </g>
     </g>
    </g>
    <g id="ytick_6">
     <g id="line2d_28">
      <g>
       <use xlink:href="#m81a8657659" x="90" y="315.432247" style="stroke: #000000; stroke-width: 0.6"/>
      </g>
     </g>
    </g>
    <g id="ytick_7">
     <g id="line2d_29">
      <g>
       <use xlink:href="#m81a8657659" x="90" y="311.403678" style="stroke: #000000; stroke-width: 0.6"/>
      </g>
     </g>
    </g>
    <g id="ytick_8">
     <g id="line2d_30">
      <g>
       <use xlink:href="#m81a8657659" x="90" y="284.092074" style="stroke: #000000; stroke-width: 0.6"/>
      </g>
     </g>
    </g>
    <g id="ytick_9">
     <g id="line2d_31">
      <g>
       <use xlink:href="#m81a8657659" x="90" y="270.223826" style="stroke: #000000; stroke-width: 0.6"/>
      </g>
     </g>
    </g>
    <g id="ytick_10">
     <g id="line2d_32">
      <g>
       <use xlink:href="#m81a8657659" x="90" y="260.384148" style="stroke: #000000; stroke-width: 0.6"/>
      </g>
     </g>
    </g>
    <g id="ytick_11">
     <g id="line2d_33">
      <g>
       <use xlink:href="#m81a8657659" x="90" y="252.751901" style="stroke: #000000; stroke-width: 0.6"/>
      </g>
     </g>
    </g>
    <g id="ytick_12">
     <g id="line2d_34">
      <g>
       <use xlink:href="#m81a8657659" x="90" y="246.5159" style="stroke: #000000; stroke-width: 0.6"/>
      </g>
     </g>
    </g>
    <g id="ytick_13">
     <g id="line2d_35">
      <g>
       <use xlink:href="#m81a8657659" x="90" y="241.243437" style="stroke: #000000; stroke-width: 0.6"/>
      </g>
     </g>
    </g>
    <g id="ytick_14">
     <g id="line2d_36">
      <g>
       <use xlink:href="#m81a8657659" x="90" y="236.676222" style="stroke: #000000; stroke-width: 0.6"/>
      </g>
     </g>
    </g>
    <g id="ytick_15">
     <g id="line2d_37">
      <g>
       <use xlink:href="#m81a8657659" x="90" y="232.647653" style="stroke: #000000; stroke-width: 0.6"/>
      </g>
     </g>
    </g>
    <g id="ytick_16">
     <g id="line2d_38">
      <g>
       <use xlink:href="#m81a8657659" x="90" y="205.336049" style="stroke: #000000; stroke-width: 0.6"/>
      </g>
     </g>
    </g>
    <g id="ytick_17">
     <g id="line2d_39">
      <g>
       <use xlink:href="#m81a8657659" x="90" y="191.467801" style="stroke: #000000; stroke-width: 0.6"/>
      </g>
     </g>
    </g>
    <g id="ytick_18">
     <g id="line2d_40">
      <g>
       <use xlink:href="#m81a8657659" x="90" y="181.628123" style="stroke: #000000; stroke-width: 0.6"/>
      </g>
     </g>
    </g>
    <g id="ytick_19">
     <g id="line2d_41">
      <g>
       <use xlink:href="#m81a8657659" x="90" y="173.995875" style="stroke: #000000; stroke-width: 0.6"/>
      </g>
     </g>
    </g>
    <g id="ytick_20">
     <g id="line2d_42">
      <g>
       <use xlink:href="#m81a8657659" x="90" y="167.759875" style="stroke: #000000; stroke-width: 0.6"/>
      </g>
     </g>
    </g>
    <g id="ytick_21">
     <g id="line2d_43">
      <g>
       <use xlink:href="#m81a8657659" x="90" y="162.487412" style="stroke: #000000; stroke-width: 0.6"/>
      </g>
     </g>
    </g>
    <g id="ytick_22">
     <g id="line2d_44">
      <g>
       <use xlink:href="#m81a8657659" x="90" y="157.920197" style="stroke: #000000; stroke-width: 0.6"/>
      </g>
     </g>
    </g>
    <g id="ytick_23">
     <g id="line2d_45">
      <g>
       <use xlink:href="#m81a8657659" x="90" y="153.891627" style="stroke: #000000; stroke-width: 0.6"/>
      </g>
     </g>
    </g>
    <g id="ytick_24">
     <g id="line2d_46">
      <g>
       <use xlink:href="#m81a8657659" x="90" y="126.580023" style="stroke: #000000; stroke-width: 0.6"/>
      </g>
     </g>
    </g>
    <g id="ytick_25">
     <g id="line2d_47">
      <g>
       <use xlink:href="#m81a8657659" x="90" y="112.711776" style="stroke: #000000; stroke-width: 0.6"/>
      </g>
     </g>
    </g>
    <g id="ytick_26">
     <g id="line2d_48">
      <g>
       <use xlink:href="#m81a8657659" x="90" y="102.872097" style="stroke: #000000; stroke-width: 0.6"/>
      </g>
     </g>
    </g>
    <g id="ytick_27">
     <g id="line2d_49">
      <g>
       <use xlink:href="#m81a8657659" x="90" y="95.23985" style="stroke: #000000; stroke-width: 0.6"/>
      </g>
     </g>
    </g>
    <g id="ytick_28">
     <g id="line2d_50">
      <g>
       <use xlink:href="#m81a8657659" x="90" y="89.00385" style="stroke: #000000; stroke-width: 0.6"/>
      </g>
     </g>
    </g>
    <g id="ytick_29">
     <g id="line2d_51">
      <g>
       <use xlink:href="#m81a8657659" x="90" y="83.731387" style="stroke: #000000; stroke-width: 0.6"/>
      </g>
     </g>
    </g>
    <g id="ytick_30">
     <g id="line2d_52">
      <g>
       <use xlink:href="#m81a8657659" x="90" y="79.164171" style="stroke: #000000; stroke-width: 0.6"/>
      </g>
     </g>
    </g>
    <g id="ytick_31">
     <g id="line2d_53">
      <g>
       <use xlink:href="#m81a8657659" x="90" y="75.135602" style="stroke: #000000; stroke-width: 0.6"/>
      </g>
     </g>
    </g>
    <g id="ytick_32">
     <g id="line2d_54">
      <g>
       <use xlink:href="#m81a8657659" x="90" y="47.823998" style="stroke: #000000; stroke-width: 0.6"/>
      </g>
     </g>
    </g>
    <g id="text_24">
     <!-- Count (log scale) -->
     <g transform="translate(59.320312 224.234375) rotate(-90) scale(0.1 -0.1)">
      <defs>
       <path id="DejaVuSans-43" d="M 4122 4306 
L 4122 3641 
Q 3803 3938 3442 4084 
Q 3081 4231 2675 4231 
Q 1875 4231 1450 3742 
Q 1025 3253 1025 2328 
Q 1025 1406 1450 917 
Q 1875 428 2675 428 
Q 3081 428 3442 575 
Q 3803 722 4122 1019 
L 4122 359 
Q 3791 134 3420 21 
Q 3050 -91 2638 -91 
Q 1578 -91 968 557 
Q 359 1206 359 2328 
Q 359 3453 968 4101 
Q 1578 4750 2638 4750 
Q 3056 4750 3426 4639 
Q 3797 4528 4122 4306 
z
" transform="scale(0.015625)"/>
       <path id="DejaVuSans-6f" d="M 1959 3097 
Q 1497 3097 1228 2736 
Q 959 2375 959 1747 
Q 959 1119 1226 758 
Q 1494 397 1959 397 
Q 2419 397 2687 759 
Q 2956 1122 2956 1747 
Q 2956 2369 2687 2733 
Q 2419 3097 1959 3097 
z
M 1959 3584 
Q 2709 3584 3137 3096 
Q 3566 2609 3566 1747 
Q 3566 888 3137 398 
Q 2709 -91 1959 -91 
Q 1206 -91 779 398 
Q 353 888 353 1747 
Q 353 2609 779 3096 
Q 1206 3584 1959 3584 
z
" transform="scale(0.015625)"/>
       <path id="DejaVuSans-6e" d="M 3513 2113 
L 3513 0 
L 2938 0 
L 2938 2094 
Q 2938 2591 2744 2837 
Q 2550 3084 2163 3084 
Q 1697 3084 1428 2787 
Q 1159 2491 1159 1978 
L 1159 0 
L 581 0 
L 581 3500 
L 1159 3500 
L 1159 2956 
Q 1366 3272 1645 3428 
Q 1925 3584 2291 3584 
Q 2894 3584 3203 3211 
Q 3513 2838 3513 2113 
z
" transform="scale(0.015625)"/>
       <path id="DejaVuSans-74" d="M 1172 4494 
L 1172 3500 
L 2356 3500 
L 2356 3053 
L 1172 3053 
L 1172 1153 
Q 1172 725 1289 603 
Q 1406 481 1766 481 
L 2356 481 
L 2356 0 
L 1766 0 
Q 1100 0 847 248 
Q 594 497 594 1153 
L 594 3053 
L 172 3053 
L 172 3500 
L 594 3500 
L 594 4494 
L 1172 4494 
z
" transform="scale(0.015625)"/>
       <path id="DejaVuSans-20" transform="scale(0.015625)"/>
       <path id="DejaVuSans-28" d="M 1984 4856 
Q 1566 4138 1362 3434 
Q 1159 2731 1159 2009 
Q 1159 1288 1364 580 
Q 1569 -128 1984 -844 
L 1484 -844 
Q 1016 -109 783 600 
Q 550 1309 550 2009 
Q 550 2706 781 3412 
Q 1013 4119 1484 4856 
L 1984 4856 
z
" transform="scale(0.015625)"/>
       <path id="DejaVuSans-6c" d="M 603 4863 
L 1178 4863 
L 1178 0 
L 603 0 
L 603 4863 
z
" transform="scale(0.015625)"/>
       <path id="DejaVuSans-67" d="M 2906 1791 
Q 2906 2416 2648 2759 
Q 2391 3103 1925 3103 
Q 1463 3103 1205 2759 
Q 947 2416 947 1791 
Q 947 1169 1205 825 
Q 1463 481 1925 481 
Q 2391 481 2648 825 
Q 2906 1169 2906 1791 
z
M 3481 434 
Q 3481 -459 3084 -895 
Q 2688 -1331 1869 -1331 
Q 1566 -1331 1297 -1286 
Q 1028 -1241 775 -1147 
L 775 -588 
Q 1028 -725 1275 -790 
Q 1522 -856 1778 -856 
Q 2344 -856 2625 -561 
Q 2906 -266 2906 331 
L 2906 616 
Q 2728 306 2450 153 
Q 2172 0 1784 0 
Q 1141 0 747 490 
Q 353 981 353 1791 
Q 353 2603 747 3093 
Q 1141 3584 1784 3584 
Q 2172 3584 2450 3431 
Q 2728 3278 2906 2969 
L 2906 3500 
L 3481 3500 
L 3481 434 
z
" transform="scale(0.015625)"/>
       <path id="DejaVuSans-73" d="M 2834 3397 
L 2834 2853 
Q 2591 2978 2328 3040 
Q 2066 3103 1784 3103 
Q 1356 3103 1142 2972 
Q 928 2841 928 2578 
Q 928 2378 1081 2264 
Q 1234 2150 1697 2047 
L 1894 2003 
Q 2506 1872 2764 1633 
Q 3022 1394 3022 966 
Q 3022 478 2636 193 
Q 2250 -91 1575 -91 
Q 1294 -91 989 -36 
Q 684 19 347 128 
L 347 722 
Q 666 556 975 473 
Q 1284 391 1588 391 
Q 1994 391 2212 530 
Q 2431 669 2431 922 
Q 2431 1156 2273 1281 
Q 2116 1406 1581 1522 
L 1381 1569 
Q 847 1681 609 1914 
Q 372 2147 372 2553 
Q 372 3047 722 3315 
Q 1072 3584 1716 3584 
Q 2034 3584 2315 3537 
Q 2597 3491 2834 3397 
z
" transform="scale(0.015625)"/>
       <path id="DejaVuSans-63" d="M 3122 3366 
L 3122 2828 
Q 2878 2963 2633 3030 
Q 2388 3097 2138 3097 
Q 1578 3097 1268 2742 
Q 959 2388 959 1747 
Q 959 1106 1268 751 
Q 1578 397 2138 397 
Q 2388 397 2633 464 
Q 2878 531 3122 666 
L 3122 134 
Q 2881 22 2623 -34 
Q 2366 -91 2075 -91 
Q 1284 -91 818 406 
Q 353 903 353 1747 
Q 353 2603 823 3093 
Q 1294 3584 2113 3584 
Q 2378 3584 2631 3529 
Q 2884 3475 3122 3366 
z
" transform="scale(0.015625)"/>
       <path id="DejaVuSans-29" d="M 513 4856 
L 1013 4856 
Q 1481 4119 1714 3412 
Q 1947 2706 1947 2009 
Q 1947 1309 1714 600 
Q 1481 -109 1013 -844 
L 513 -844 
Q 928 -128 1133 580 
Q 1338 1288 1338 2009 
Q 1338 2731 1133 3434 
Q 928 4138 513 4856 
z
" transform="scale(0.015625)"/>
      </defs>
      <use xlink:href="#DejaVuSans-43"/>
      <use xlink:href="#DejaVuSans-6f" x="69.824219"/>
      <use xlink:href="#DejaVuSans-75" x="131.005859"/>
      <use xlink:href="#DejaVuSans-6e" x="194.384766"/>
      <use xlink:href="#DejaVuSans-74" x="257.763672"/>
      <use xlink:href="#DejaVuSans-20" x="296.972656"/>
      <use xlink:href="#DejaVuSans-28" x="328.759766"/>
      <use xlink:href="#DejaVuSans-6c" x="367.773438"/>
      <use xlink:href="#DejaVuSans-6f" x="395.556641"/>
      <use xlink:href="#DejaVuSans-67" x="456.738281"/>
      <use xlink:href="#DejaVuSans-20" x="520.214844"/>
      <use xlink:href="#DejaVuSans-73" x="552.001953"/>
      <use xlink:href="#DejaVuSans-63" x="604.101562"/>
      <use xlink:href="#DejaVuSans-61" x="659.082031"/>
      <use xlink:href="#DejaVuSans-6c" x="720.361328"/>
      <use xlink:href="#DejaVuSans-65" x="748.144531"/>
      <use xlink:href="#DejaVuSans-29" x="809.667969"/>
     </g>
    </g>
   </g>
   <g id="patch_89">
    <path d="M 90 320.4 
L 90 43.2 
" style="fill: none; stroke: #000000; stroke-width: 0.8; stroke-linejoin: miter; stroke-linecap: square"/>
   </g>
   <g id="patch_90">
    <path d="M 648 320.4 
L 648 43.2 
" style="fill: none; stroke: #000000; stroke-width: 0.8; stroke-linejoin: miter; stroke-linecap: square"/>
   </g>
   <g id="patch_91">
    <path d="M 90 320.4 
L 648 320.4 
" style="fill: none; stroke: #000000; stroke-width: 0.8; stroke-linejoin: miter; stroke-linecap: square"/>
   </g>
   <g id="patch_92">
    <path d="M 90 43.2 
L 648 43.2 
" style="fill: none; stroke: #000000; stroke-width: 0.8; stroke-linejoin: miter; stroke-linecap: square"/>
   </g>
   <g id="text_25">
    <!-- Histogram of Lap n° without a driver ahead -->
    <g transform="translate(238.57125 37.2) scale(0.12 -0.12)">
     <defs>
      <path id="DejaVuSans-48" d="M 628 4666 
L 1259 4666 
L 1259 2753 
L 3553 2753 
L 3553 4666 
L 4184 4666 
L 4184 0 
L 3553 0 
L 3553 2222 
L 1259 2222 
L 1259 0 
L 628 0 
L 628 4666 
z
" transform="scale(0.015625)"/>
      <path id="DejaVuSans-69" d="M 603 3500 
L 1178 3500 
L 1178 0 
L 603 0 
L 603 3500 
z
M 603 4863 
L 1178 4863 
L 1178 4134 
L 603 4134 
L 603 4863 
z
" transform="scale(0.015625)"/>
      <path id="DejaVuSans-66" d="M 2375 4863 
L 2375 4384 
L 1825 4384 
Q 1516 4384 1395 4259 
Q 1275 4134 1275 3809 
L 1275 3500 
L 2222 3500 
L 2222 3053 
L 1275 3053 
L 1275 0 
L 697 0 
L 697 3053 
L 147 3053 
L 147 3500 
L 697 3500 
L 697 3744 
Q 697 4328 969 4595 
Q 1241 4863 1831 4863 
L 2375 4863 
z
" transform="scale(0.015625)"/>
      <path id="DejaVuSans-b0" d="M 1600 4347 
Q 1350 4347 1178 4173 
Q 1006 4000 1006 3750 
Q 1006 3503 1178 3333 
Q 1350 3163 1600 3163 
Q 1850 3163 2022 3333 
Q 2194 3503 2194 3750 
Q 2194 3997 2020 4172 
Q 1847 4347 1600 4347 
z
M 1600 4750 
Q 1800 4750 1984 4673 
Q 2169 4597 2303 4453 
Q 2447 4313 2519 4134 
Q 2591 3956 2591 3750 
Q 2591 3338 2302 3052 
Q 2013 2766 1594 2766 
Q 1172 2766 890 3047 
Q 609 3328 609 3750 
Q 609 4169 896 4459 
Q 1184 4750 1600 4750 
z
" transform="scale(0.015625)"/>
      <path id="DejaVuSans-77" d="M 269 3500 
L 844 3500 
L 1563 769 
L 2278 3500 
L 2956 3500 
L 3675 769 
L 4391 3500 
L 4966 3500 
L 4050 0 
L 3372 0 
L 2619 2869 
L 1863 0 
L 1184 0 
L 269 3500 
z
" transform="scale(0.015625)"/>
      <path id="DejaVuSans-68" d="M 3513 2113 
L 3513 0 
L 2938 0 
L 2938 2094 
Q 2938 2591 2744 2837 
Q 2550 3084 2163 3084 
Q 1697 3084 1428 2787 
Q 1159 2491 1159 1978 
L 1159 0 
L 581 0 
L 581 4863 
L 1159 4863 
L 1159 2956 
Q 1366 3272 1645 3428 
Q 1925 3584 2291 3584 
Q 2894 3584 3203 3211 
Q 3513 2838 3513 2113 
z
" transform="scale(0.015625)"/>
      <path id="DejaVuSans-64" d="M 2906 2969 
L 2906 4863 
L 3481 4863 
L 3481 0 
L 2906 0 
L 2906 525 
Q 2725 213 2448 61 
Q 2172 -91 1784 -91 
Q 1150 -91 751 415 
Q 353 922 353 1747 
Q 353 2572 751 3078 
Q 1150 3584 1784 3584 
Q 2172 3584 2448 3432 
Q 2725 3281 2906 2969 
z
M 947 1747 
Q 947 1113 1208 752 
Q 1469 391 1925 391 
Q 2381 391 2643 752 
Q 2906 1113 2906 1747 
Q 2906 2381 2643 2742 
Q 2381 3103 1925 3103 
Q 1469 3103 1208 2742 
Q 947 2381 947 1747 
z
" transform="scale(0.015625)"/>
      <path id="DejaVuSans-76" d="M 191 3500 
L 800 3500 
L 1894 563 
L 2988 3500 
L 3597 3500 
L 2284 0 
L 1503 0 
L 191 3500 
z
" transform="scale(0.015625)"/>
     </defs>
     <use xlink:href="#DejaVuSans-48"/>
     <use xlink:href="#DejaVuSans-69" x="75.195312"/>
     <use xlink:href="#DejaVuSans-73" x="102.978516"/>
     <use xlink:href="#DejaVuSans-74" x="155.078125"/>
     <use xlink:href="#DejaVuSans-6f" x="194.287109"/>
     <use xlink:href="#DejaVuSans-67" x="255.46875"/>
     <use xlink:href="#DejaVuSans-72" x="318.945312"/>
     <use xlink:href="#DejaVuSans-61" x="360.058594"/>
     <use xlink:href="#DejaVuSans-6d" x="421.337891"/>
     <use xlink:href="#DejaVuSans-20" x="518.75"/>
     <use xlink:href="#DejaVuSans-6f" x="550.537109"/>
     <use xlink:href="#DejaVuSans-66" x="611.71875"/>
     <use xlink:href="#DejaVuSans-20" x="646.923828"/>
     <use xlink:href="#DejaVuSans-4c" x="678.710938"/>
     <use xlink:href="#DejaVuSans-61" x="734.423828"/>
     <use xlink:href="#DejaVuSans-70" x="795.703125"/>
     <use xlink:href="#DejaVuSans-20" x="859.179688"/>
     <use xlink:href="#DejaVuSans-6e" x="890.966797"/>
     <use xlink:href="#DejaVuSans-b0" x="954.345703"/>
     <use xlink:href="#DejaVuSans-20" x="1004.345703"/>
     <use xlink:href="#DejaVuSans-77" x="1036.132812"/>
     <use xlink:href="#DejaVuSans-69" x="1117.919922"/>
     <use xlink:href="#DejaVuSans-74" x="1145.703125"/>
     <use xlink:href="#DejaVuSans-68" x="1184.912109"/>
     <use xlink:href="#DejaVuSans-6f" x="1248.291016"/>
     <use xlink:href="#DejaVuSans-75" x="1309.472656"/>
     <use xlink:href="#DejaVuSans-74" x="1372.851562"/>
     <use xlink:href="#DejaVuSans-20" x="1412.060547"/>
     <use xlink:href="#DejaVuSans-61" x="1443.847656"/>
     <use xlink:href="#DejaVuSans-20" x="1505.126953"/>
     <use xlink:href="#DejaVuSans-64" x="1536.914062"/>
     <use xlink:href="#DejaVuSans-72" x="1600.390625"/>
     <use xlink:href="#DejaVuSans-69" x="1641.503906"/>
     <use xlink:href="#DejaVuSans-76" x="1669.287109"/>
     <use xlink:href="#DejaVuSans-65" x="1728.466797"/>
     <use xlink:href="#DejaVuSans-72" x="1789.990234"/>
     <use xlink:href="#DejaVuSans-20" x="1831.103516"/>
     <use xlink:href="#DejaVuSans-61" x="1862.890625"/>
     <use xlink:href="#DejaVuSans-68" x="1924.169922"/>
     <use xlink:href="#DejaVuSans-65" x="1987.548828"/>
     <use xlink:href="#DejaVuSans-61" x="2049.072266"/>
     <use xlink:href="#DejaVuSans-64" x="2110.351562"/>
    </g>
   </g>
  </g>
 </g>
 <defs>
  <clipPath id="p96277d7964">
   <rect x="90" y="43.2" width="558" height="277.2"/>
  </clipPath>
 </defs>
</svg>
