<?xml version="1.0" encoding="utf-8" standalone="no"?>
<!DOCTYPE svg PUBLIC "-//W3C//DTD SVG 1.1//EN"
  "http://www.w3.org/Graphics/SVG/1.1/DTD/svg11.dtd">
<svg xmlns:xlink="http://www.w3.org/1999/xlink" width="720pt" height="432pt" viewBox="0 0 720 432" xmlns="http://www.w3.org/2000/svg" version="1.1">
 <metadata>
  <rdf:RDF xmlns:dc="http://purl.org/dc/elements/1.1/" xmlns:cc="http://creativecommons.org/ns#" xmlns:rdf="http://www.w3.org/1999/02/22-rdf-syntax-ns#">
   <cc:Work>
    <dc:type rdf:resource="http://purl.org/dc/dcmitype/StillImage"/>
    <dc:date>2023-07-25T19:00:44.365989</dc:date>
    <dc:format>image/svg+xml</dc:format>
    <dc:creator>
     <cc:Agent>
      <dc:title>Matplotlib v3.7.2, https://matplotlib.org/</dc:title>
     </cc:Agent>
    </dc:creator>
   </cc:Work>
  </rdf:RDF>
 </metadata>
 <defs>
  <style type="text/css">*{stroke-linejoin: round; stroke-linecap: butt}</style>
 </defs>
 <g id="figure_1">
  <g id="patch_1">
   <path d="M 0 432 
L 720 432 
L 720 0 
L 0 0 
z
" style="fill: #ffffff"/>
  </g>
  <g id="axes_1">
   <g id="patch_2">
    <path d="M 54.02 390.04 
L 374.46 390.04 
L 374.46 34.957389 
L 54.02 34.957389 
z
" style="fill: #ffffff"/>
   </g>
   <g id="PolyCollection_1">
    <defs>
     <path id="mc599a2d152" d="M 97.807148 -41.960458 
L 97.807148 -41.96 
L 99.12417 -41.96 
L 100.441192 -41.96 
L 101.758214 -41.96 
L 103.075236 -41.96 
L 104.392259 -41.96 
L 105.709281 -41.96 
L 107.026303 -41.96 
L 108.343325 -41.96 
L 109.660347 -41.96 
L 110.977369 -41.96 
L 112.294391 -41.96 
L 113.611413 -41.96 
L 114.928435 -41.96 
L 116.245457 -41.96 
L 117.562479 -41.96 
L 118.879502 -41.96 
L 120.196524 -41.96 
L 121.513546 -41.96 
L 122.830568 -41.96 
L 124.14759 -41.96 
L 125.464612 -41.96 
L 126.781634 -41.96 
L 128.098656 -41.96 
L 129.415678 -41.96 
L 130.7327 -41.96 
L 132.049723 -41.96 
L 133.366745 -41.96 
L 134.683767 -41.96 
L 136.000789 -41.96 
L 137.317811 -41.96 
L 138.634833 -41.96 
L 139.951855 -41.96 
L 141.268877 -41.96 
L 142.585899 -41.96 
L 143.902921 -41.96 
L 145.219944 -41.96 
L 146.536966 -41.96 
L 147.853988 -41.96 
L 149.17101 -41.96 
L 150.488032 -41.96 
L 151.805054 -41.96 
L 153.122076 -41.96 
L 154.439098 -41.96 
L 155.75612 -41.96 
L 157.073142 -41.96 
L 158.390165 -41.96 
L 159.707187 -41.96 
L 161.024209 -41.96 
L 162.341231 -41.96 
L 163.658253 -41.96 
L 164.975275 -41.96 
L 166.292297 -41.96 
L 167.609319 -41.96 
L 168.926341 -41.96 
L 170.243363 -41.96 
L 171.560385 -41.96 
L 172.877408 -41.96 
L 174.19443 -41.96 
L 175.511452 -41.96 
L 176.828474 -41.96 
L 178.145496 -41.96 
L 179.462518 -41.96 
L 180.77954 -41.96 
L 182.096562 -41.96 
L 183.413584 -41.96 
L 184.730606 -41.96 
L 186.047629 -41.96 
L 187.364651 -41.96 
L 188.681673 -41.96 
L 189.998695 -41.96 
L 191.315717 -41.96 
L 192.632739 -41.96 
L 193.949761 -41.96 
L 195.266783 -41.96 
L 196.583805 -41.96 
L 197.900827 -41.96 
L 199.21785 -41.96 
L 200.534872 -41.96 
L 201.851894 -41.96 
L 203.168916 -41.96 
L 204.485938 -41.96 
L 205.80296 -41.96 
L 207.119982 -41.96 
L 208.437004 -41.96 
L 209.754026 -41.96 
L 211.071048 -41.96 
L 212.388071 -41.96 
L 213.705093 -41.96 
L 215.022115 -41.96 
L 216.339137 -41.96 
L 217.656159 -41.96 
L 218.973181 -41.96 
L 220.290203 -41.96 
L 221.607225 -41.96 
L 222.924247 -41.96 
L 224.241269 -41.96 
L 225.558291 -41.96 
L 226.875314 -41.96 
L 228.192336 -41.96 
L 229.509358 -41.96 
L 230.82638 -41.96 
L 232.143402 -41.96 
L 233.460424 -41.96 
L 234.777446 -41.96 
L 236.094468 -41.96 
L 237.41149 -41.96 
L 238.728512 -41.96 
L 240.045535 -41.96 
L 241.362557 -41.96 
L 242.679579 -41.96 
L 243.996601 -41.96 
L 245.313623 -41.96 
L 246.630645 -41.96 
L 247.947667 -41.96 
L 249.264689 -41.96 
L 250.581711 -41.96 
L 251.898733 -41.96 
L 253.215756 -41.96 
L 254.532778 -41.96 
L 255.8498 -41.96 
L 257.166822 -41.96 
L 258.483844 -41.96 
L 259.800866 -41.96 
L 261.117888 -41.96 
L 262.43491 -41.96 
L 263.751932 -41.96 
L 265.068954 -41.96 
L 266.385977 -41.96 
L 267.702999 -41.96 
L 269.020021 -41.96 
L 270.337043 -41.96 
L 271.654065 -41.96 
L 272.971087 -41.96 
L 274.288109 -41.96 
L 275.605131 -41.96 
L 276.922153 -41.96 
L 278.239175 -41.96 
L 279.556197 -41.96 
L 280.87322 -41.96 
L 282.190242 -41.96 
L 283.507264 -41.96 
L 284.824286 -41.96 
L 286.141308 -41.96 
L 287.45833 -41.96 
L 288.775352 -41.96 
L 290.092374 -41.96 
L 291.409396 -41.96 
L 292.726418 -41.96 
L 294.043441 -41.96 
L 295.360463 -41.96 
L 296.677485 -41.96 
L 297.994507 -41.96 
L 299.311529 -41.96 
L 300.628551 -41.96 
L 301.945573 -41.96 
L 303.262595 -41.96 
L 304.579617 -41.96 
L 305.896639 -41.96 
L 307.213662 -41.96 
L 308.530684 -41.96 
L 309.847706 -41.96 
L 311.164728 -41.96 
L 312.48175 -41.96 
L 313.798772 -41.96 
L 315.115794 -41.96 
L 316.432816 -41.96 
L 317.749838 -41.96 
L 319.06686 -41.96 
L 320.383883 -41.96 
L 321.700905 -41.96 
L 323.017927 -41.96 
L 324.334949 -41.96 
L 325.651971 -41.96 
L 326.968993 -41.96 
L 328.286015 -41.96 
L 329.603037 -41.96 
L 330.920059 -41.96 
L 332.237081 -41.96 
L 333.554104 -41.96 
L 334.871126 -41.96 
L 336.188148 -41.96 
L 337.50517 -41.96 
L 338.822192 -41.96 
L 340.139214 -41.96 
L 341.456236 -41.96 
L 342.773258 -41.96 
L 344.09028 -41.96 
L 345.407302 -41.96 
L 346.724324 -41.96 
L 348.041347 -41.96 
L 349.358369 -41.96 
L 350.675391 -41.96 
L 351.992413 -41.96 
L 353.309435 -41.96 
L 354.626457 -41.96 
L 355.943479 -41.96 
L 357.260501 -41.96 
L 358.577523 -41.96 
L 359.894545 -41.96 
L 359.894545 -41.960449 
L 359.894545 -41.960449 
L 358.577523 -41.961095 
L 357.260501 -41.96242 
L 355.943479 -41.96485 
L 354.626457 -41.968806 
L 353.309435 -41.974494 
L 351.992413 -41.98162 
L 350.675391 -41.989229 
L 349.358369 -41.995815 
L 348.041347 -41.999774 
L 346.724324 -42.000032 
L 345.407302 -41.996518 
L 344.09028 -41.990192 
L 342.773258 -41.982624 
L 341.456236 -41.975365 
L 340.139214 -41.969457 
L 338.822192 -41.965276 
L 337.50517 -41.962668 
L 336.188148 -41.961222 
L 334.871126 -41.960508 
L 333.554104 -41.960192 
L 332.237081 -41.960068 
L 330.920059 -41.960032 
L 329.603037 -41.960047 
L 328.286015 -41.960127 
L 326.968993 -41.960347 
L 325.651971 -41.960869 
L 324.334949 -41.961974 
L 323.017927 -41.964061 
L 321.700905 -41.967572 
L 320.383883 -41.972797 
L 319.06686 -41.979601 
L 317.749838 -41.987211 
L 316.432816 -41.994237 
L 315.115794 -41.999045 
L 313.798772 -42.000361 
L 312.48175 -41.997831 
L 311.164728 -41.992193 
L 309.847706 -41.984984 
L 308.530684 -41.977965 
L 307.213662 -41.972607 
L 305.896639 -41.969841 
L 304.579617 -41.970079 
L 303.262595 -41.973286 
L 301.945573 -41.978979 
L 300.628551 -41.986136 
L 299.311529 -41.993223 
L 297.994507 -41.998479 
L 296.677485 -42.000478 
L 295.360463 -41.998693 
L 294.043441 -41.993757 
L 292.726418 -41.987248 
L 291.409396 -41.981141 
L 290.092374 -41.977201 
L 288.775352 -41.976573 
L 287.45833 -41.979608 
L 286.141308 -41.985901 
L 284.824286 -41.994479 
L 283.507264 -42.004141 
L 282.190242 -42.013896 
L 280.87322 -42.023257 
L 279.556197 -42.032168 
L 278.239175 -42.040554 
L 276.922153 -42.04785 
L 275.605131 -42.052994 
L 274.288109 -42.055087 
L 272.971087 -42.054327 
L 271.654065 -42.052524 
L 270.337043 -42.052732 
L 269.020021 -42.058159 
L 267.702999 -42.071009 
L 266.385977 -42.091888 
L 265.068954 -42.119918 
L 263.751932 -42.153239 
L 262.43491 -42.18947 
L 261.117888 -42.226005 
L 259.800866 -42.26032 
L 258.483844 -42.290398 
L 257.166822 -42.315138 
L 255.8498 -42.334408 
L 254.532778 -42.348686 
L 253.215756 -42.358635 
L 251.898733 -42.365113 
L 250.581711 -42.369688 
L 249.264689 -42.375076 
L 247.947667 -42.384771 
L 246.630645 -42.401617 
L 245.313623 -42.425991 
L 243.996601 -42.454755 
L 242.679579 -42.481797 
L 241.362557 -42.500102 
L 240.045535 -42.504486 
L 238.728512 -42.493873 
L 237.41149 -42.472317 
L 236.094468 -42.448443 
L 234.777446 -42.433458 
L 233.460424 -42.438217 
L 232.143402 -42.470128 
L 230.82638 -42.531051 
L 229.509358 -42.617342 
L 228.192336 -42.722707 
L 226.875314 -42.84321 
L 225.558291 -42.982233 
L 224.241269 -43.152306 
L 222.924247 -43.371556 
L 221.607225 -43.655198 
L 220.290203 -44.005844 
L 218.973181 -44.408267 
L 217.656159 -44.832735 
L 216.339137 -45.246266 
L 215.022115 -45.626057 
L 213.705093 -45.967505 
L 212.388071 -46.28252 
L 211.071048 -46.589888 
L 209.754026 -46.90386 
L 208.437004 -47.226863 
L 207.119982 -47.548343 
L 205.80296 -47.847898 
L 204.485938 -48.100257 
L 203.168916 -48.281473 
L 201.851894 -48.377048 
L 200.534872 -48.391054 
L 199.21785 -48.352043 
L 197.900827 -48.310374 
L 196.583805 -48.325111 
L 195.266783 -48.445023 
L 193.949761 -48.692681 
L 192.632739 -49.059175 
L 191.315717 -49.510566 
L 189.998695 -50.000714 
L 188.681673 -50.483138 
L 187.364651 -50.91781 
L 186.047629 -51.273703 
L 184.730606 -51.530536 
L 183.413584 -51.681976 
L 182.096562 -51.739597 
L 180.77954 -51.734889 
L 179.462518 -51.716814 
L 178.145496 -51.744242 
L 176.828474 -51.87508 
L 175.511452 -52.155977 
L 174.19443 -52.617352 
L 172.877408 -53.277247 
L 171.560385 -54.154516 
L 170.243363 -55.288677 
L 168.926341 -56.76132 
L 167.609319 -58.711225 
L 166.292297 -61.331202 
L 164.975275 -64.831941 
L 163.658253 -69.363773 
L 162.341231 -74.906559 
L 161.024209 -81.166022 
L 159.707187 -87.534488 
L 158.390165 -93.165283 
L 157.073142 -97.166769 
L 155.75612 -98.861491 
L 154.439098 -98.011851 
L 153.122076 -94.915083 
L 151.805054 -90.321616 
L 150.488032 -85.207341 
L 149.17101 -80.491976 
L 147.853988 -76.811197 
L 146.536966 -74.414732 
L 145.219944 -73.199806 
L 143.902921 -72.834821 
L 142.585899 -72.906658 
L 141.268877 -73.037677 
L 139.951855 -72.948264 
L 138.634833 -72.468315 
L 137.317811 -71.516585 
L 136.000789 -70.070468 
L 134.683767 -68.14382 
L 133.366745 -65.780201 
L 132.049723 -63.057268 
L 130.7327 -60.090886 
L 129.415678 -57.029003 
L 128.098656 -54.033492 
L 126.781634 -51.256243 
L 125.464612 -48.817897 
L 124.14759 -46.794338 
L 122.830568 -45.211884 
L 121.513546 -44.050373 
L 120.196524 -43.253214 
L 118.879502 -42.742653 
L 117.562479 -42.436686 
L 116.245457 -42.263029 
L 114.928435 -42.16687 
L 113.611413 -42.111994 
L 112.294391 -42.077384 
L 110.977369 -42.052267 
L 109.660347 -42.03178 
L 108.343325 -42.01411 
L 107.026303 -41.998886 
L 105.709281 -41.986298 
L 104.392259 -41.976566 
L 103.075236 -41.969644 
L 101.758214 -41.965158 
L 100.441192 -41.962524 
L 99.12417 -41.961126 
L 97.807148 -41.960458 
z
" style="stroke: #1ac938"/>
    </defs>
    <g clip-path="url(#pbeef231d51)">
     <use xlink:href="#mc599a2d152" x="0" y="432" style="fill: #1ac938; fill-opacity: 0.25; stroke: #1ac938"/>
    </g>
   </g>
   <g id="PolyCollection_2">
    <defs>
     <path id="m647773cade" d="M 76.104298 -41.960075 
L 76.104298 -41.96 
L 76.938933 -41.96 
L 77.773568 -41.96 
L 78.608202 -41.96 
L 79.442837 -41.96 
L 80.277472 -41.96 
L 81.112107 -41.96 
L 81.946741 -41.96 
L 82.781376 -41.96 
L 83.616011 -41.96 
L 84.450645 -41.96 
L 85.28528 -41.96 
L 86.119915 -41.96 
L 86.954549 -41.96 
L 87.789184 -41.96 
L 88.623819 -41.96 
L 89.458453 -41.96 
L 90.293088 -41.96 
L 91.127723 -41.96 
L 91.962357 -41.96 
L 92.796992 -41.96 
L 93.631627 -41.96 
L 94.466262 -41.96 
L 95.300896 -41.96 
L 96.135531 -41.96 
L 96.970166 -41.96 
L 97.8048 -41.96 
L 98.639435 -41.96 
L 99.47407 -41.96 
L 100.308704 -41.96 
L 101.143339 -41.96 
L 101.977974 -41.96 
L 102.812608 -41.96 
L 103.647243 -41.96 
L 104.481878 -41.96 
L 105.316513 -41.96 
L 106.151147 -41.96 
L 106.985782 -41.96 
L 107.820417 -41.96 
L 108.655051 -41.96 
L 109.489686 -41.96 
L 110.324321 -41.96 
L 111.158955 -41.96 
L 111.99359 -41.96 
L 112.828225 -41.96 
L 113.662859 -41.96 
L 114.497494 -41.96 
L 115.332129 -41.96 
L 116.166763 -41.96 
L 117.001398 -41.96 
L 117.836033 -41.96 
L 118.670668 -41.96 
L 119.505302 -41.96 
L 120.339937 -41.96 
L 121.174572 -41.96 
L 122.009206 -41.96 
L 122.843841 -41.96 
L 123.678476 -41.96 
L 124.51311 -41.96 
L 125.347745 -41.96 
L 126.18238 -41.96 
L 127.017014 -41.96 
L 127.851649 -41.96 
L 128.686284 -41.96 
L 129.520919 -41.96 
L 130.355553 -41.96 
L 131.190188 -41.96 
L 132.024823 -41.96 
L 132.859457 -41.96 
L 133.694092 -41.96 
L 134.528727 -41.96 
L 135.363361 -41.96 
L 136.197996 -41.96 
L 137.032631 -41.96 
L 137.867265 -41.96 
L 138.7019 -41.96 
L 139.536535 -41.96 
L 140.371169 -41.96 
L 141.205804 -41.96 
L 142.040439 -41.96 
L 142.875074 -41.96 
L 143.709708 -41.96 
L 144.544343 -41.96 
L 145.378978 -41.96 
L 146.213612 -41.96 
L 147.048247 -41.96 
L 147.882882 -41.96 
L 148.717516 -41.96 
L 149.552151 -41.96 
L 150.386786 -41.96 
L 151.22142 -41.96 
L 152.056055 -41.96 
L 152.89069 -41.96 
L 153.725325 -41.96 
L 154.559959 -41.96 
L 155.394594 -41.96 
L 156.229229 -41.96 
L 157.063863 -41.96 
L 157.898498 -41.96 
L 158.733133 -41.96 
L 159.567767 -41.96 
L 160.402402 -41.96 
L 161.237037 -41.96 
L 162.071671 -41.96 
L 162.906306 -41.96 
L 163.740941 -41.96 
L 164.575575 -41.96 
L 165.41021 -41.96 
L 166.244845 -41.96 
L 167.07948 -41.96 
L 167.914114 -41.96 
L 168.748749 -41.96 
L 169.583384 -41.96 
L 170.418018 -41.96 
L 171.252653 -41.96 
L 172.087288 -41.96 
L 172.921922 -41.96 
L 173.756557 -41.96 
L 174.591192 -41.96 
L 175.425826 -41.96 
L 176.260461 -41.96 
L 177.095096 -41.96 
L 177.929731 -41.96 
L 178.764365 -41.96 
L 179.599 -41.96 
L 180.433635 -41.96 
L 181.268269 -41.96 
L 182.102904 -41.96 
L 182.937539 -41.96 
L 183.772173 -41.96 
L 184.606808 -41.96 
L 185.441443 -41.96 
L 186.276077 -41.96 
L 187.110712 -41.96 
L 187.945347 -41.96 
L 188.779981 -41.96 
L 189.614616 -41.96 
L 190.449251 -41.96 
L 191.283886 -41.96 
L 192.11852 -41.96 
L 192.953155 -41.96 
L 193.78779 -41.96 
L 194.622424 -41.96 
L 195.457059 -41.96 
L 196.291694 -41.96 
L 197.126328 -41.96 
L 197.960963 -41.96 
L 198.795598 -41.96 
L 199.630232 -41.96 
L 200.464867 -41.96 
L 201.299502 -41.96 
L 202.134137 -41.96 
L 202.968771 -41.96 
L 203.803406 -41.96 
L 204.638041 -41.96 
L 205.472675 -41.96 
L 206.30731 -41.96 
L 207.141945 -41.96 
L 207.976579 -41.96 
L 208.811214 -41.96 
L 209.645849 -41.96 
L 210.480483 -41.96 
L 211.315118 -41.96 
L 212.149753 -41.96 
L 212.984387 -41.96 
L 213.819022 -41.96 
L 214.653657 -41.96 
L 215.488292 -41.96 
L 216.322926 -41.96 
L 217.157561 -41.96 
L 217.992196 -41.96 
L 218.82683 -41.96 
L 219.661465 -41.96 
L 220.4961 -41.96 
L 221.330734 -41.96 
L 222.165369 -41.96 
L 223.000004 -41.96 
L 223.834638 -41.96 
L 224.669273 -41.96 
L 225.503908 -41.96 
L 226.338543 -41.96 
L 227.173177 -41.96 
L 228.007812 -41.96 
L 228.842447 -41.96 
L 229.677081 -41.96 
L 230.511716 -41.96 
L 231.346351 -41.96 
L 232.180985 -41.96 
L 233.01562 -41.96 
L 233.850255 -41.96 
L 234.684889 -41.96 
L 235.519524 -41.96 
L 236.354159 -41.96 
L 237.188793 -41.96 
L 238.023428 -41.96 
L 238.858063 -41.96 
L 239.692698 -41.96 
L 240.527332 -41.96 
L 241.361967 -41.96 
L 242.196602 -41.96 
L 242.196602 -41.960075 
L 242.196602 -41.960075 
L 241.361967 -41.960475 
L 240.527332 -41.96186 
L 239.692698 -41.964464 
L 238.858063 -41.96657 
L 238.023428 -41.96593 
L 237.188793 -41.963283 
L 236.354159 -41.961115 
L 235.519524 -41.960236 
L 234.684889 -41.960081 
L 233.850255 -41.960451 
L 233.01562 -41.962513 
L 232.180985 -41.969232 
L 231.346351 -41.983139 
L 230.511716 -42.0025 
L 229.677081 -42.024149 
L 228.842447 -42.050009 
L 228.007812 -42.080417 
L 227.173177 -42.103428 
L 226.338543 -42.109039 
L 225.503908 -42.104888 
L 224.669273 -42.102141 
L 223.834638 -42.103275 
L 223.000004 -42.104851 
L 222.165369 -42.102315 
L 221.330734 -42.101499 
L 220.4961 -42.114927 
L 219.661465 -42.138381 
L 218.82683 -42.157604 
L 217.992196 -42.178475 
L 217.157561 -42.218399 
L 216.322926 -42.273813 
L 215.488292 -42.324237 
L 214.653657 -42.359331 
L 213.819022 -42.389128 
L 212.984387 -42.425688 
L 212.149753 -42.45417 
L 211.315118 -42.456446 
L 210.480483 -42.448109 
L 209.645849 -42.451324 
L 208.811214 -42.470911 
L 207.976579 -42.50676 
L 207.141945 -42.556782 
L 206.30731 -42.617271 
L 205.472675 -42.688589 
L 204.638041 -42.763537 
L 203.803406 -42.828823 
L 202.968771 -42.874511 
L 202.134137 -42.880282 
L 201.299502 -42.830954 
L 200.464867 -42.755454 
L 199.630232 -42.707253 
L 198.795598 -42.711677 
L 197.960963 -42.757616 
L 197.126328 -42.818627 
L 196.291694 -42.870876 
L 195.457059 -42.905169 
L 194.622424 -42.931812 
L 193.78779 -42.954475 
L 192.953155 -42.967829 
L 192.11852 -42.990956 
L 191.283886 -43.037198 
L 190.449251 -43.08295 
L 189.614616 -43.09972 
L 188.779981 -43.091919 
L 187.945347 -43.086082 
L 187.110712 -43.092899 
L 186.276077 -43.12076 
L 185.441443 -43.18075 
L 184.606808 -43.241471 
L 183.772173 -43.252175 
L 182.937539 -43.208848 
L 182.102904 -43.151736 
L 181.268269 -43.128024 
L 180.433635 -43.153855 
L 179.599 -43.195808 
L 178.764365 -43.21272 
L 177.929731 -43.202326 
L 177.095096 -43.202449 
L 176.260461 -43.245697 
L 175.425826 -43.300392 
L 174.591192 -43.293942 
L 173.756557 -43.211836 
L 172.921922 -43.121911 
L 172.087288 -43.08461 
L 171.252653 -43.099732 
L 170.418018 -43.127944 
L 169.583384 -43.123842 
L 168.748749 -43.095478 
L 167.914114 -43.115556 
L 167.07948 -43.235657 
L 166.244845 -43.429347 
L 165.41021 -43.619903 
L 164.575575 -43.740253 
L 163.740941 -43.775694 
L 162.906306 -43.755797 
L 162.071671 -43.716001 
L 161.237037 -43.674595 
L 160.402402 -43.641093 
L 159.567767 -43.62545 
L 158.733133 -43.621342 
L 157.898498 -43.603855 
L 157.063863 -43.573916 
L 156.229229 -43.574672 
L 155.394594 -43.615717 
L 154.559959 -43.649253 
L 153.725325 -43.680413 
L 152.89069 -43.779048 
L 152.056055 -43.945545 
L 151.22142 -44.082748 
L 150.386786 -44.11512 
L 149.552151 -44.086862 
L 148.717516 -44.119113 
L 147.882882 -44.256111 
L 147.048247 -44.428374 
L 146.213612 -44.57939 
L 145.378978 -44.726108 
L 144.544343 -44.897607 
L 143.709708 -45.076285 
L 142.875074 -45.200368 
L 142.040439 -45.195801 
L 141.205804 -45.017551 
L 140.371169 -44.710005 
L 139.536535 -44.420184 
L 138.7019 -44.274051 
L 137.867265 -44.27105 
L 137.032631 -44.368293 
L 136.197996 -44.573485 
L 135.363361 -44.937145 
L 134.528727 -45.58665 
L 133.694092 -46.871066 
L 132.859457 -49.533636 
L 132.024823 -54.945162 
L 131.190188 -65.784748 
L 130.355553 -87.059815 
L 129.520919 -125.902323 
L 128.686284 -187.672347 
L 127.851649 -266.758768 
L 127.017014 -337.635277 
L 126.18238 -365.258855 
L 125.347745 -335.986233 
L 124.51311 -268.34058 
L 123.678476 -191.947255 
L 122.843841 -128.46625 
L 122.009206 -86.195836 
L 121.174572 -62.668132 
L 120.339937 -51.406146 
L 119.505302 -46.783122 
L 118.670668 -45.145369 
L 117.836033 -44.556284 
L 117.001398 -44.311426 
L 116.166763 -44.284013 
L 115.332129 -44.402619 
L 114.497494 -44.501016 
L 113.662859 -44.437197 
L 112.828225 -44.18824 
L 111.99359 -43.776125 
L 111.158955 -43.244876 
L 110.324321 -42.734777 
L 109.489686 -42.398764 
L 108.655051 -42.268592 
L 107.820417 -42.284575 
L 106.985782 -42.368643 
L 106.151147 -42.458366 
L 105.316513 -42.529406 
L 104.481878 -42.581747 
L 103.647243 -42.602895 
L 102.812608 -42.568322 
L 101.977974 -42.472826 
L 101.143339 -42.343439 
L 100.308704 -42.215859 
L 99.47407 -42.110019 
L 98.639435 -42.033357 
L 97.8048 -41.988208 
L 96.970166 -41.96956 
L 96.135531 -41.966099 
L 95.300896 -41.966808 
L 94.466262 -41.965752 
L 93.631627 -41.963043 
L 92.796992 -41.960989 
L 91.962357 -41.960197 
L 91.127723 -41.960024 
L 90.293088 -41.960002 
L 89.458453 -41.96 
L 88.623819 -41.96 
L 87.789184 -41.96 
L 86.954549 -41.96 
L 86.119915 -41.96 
L 85.28528 -41.96 
L 84.450645 -41.960002 
L 83.616011 -41.96003 
L 82.781376 -41.960232 
L 81.946741 -41.961115 
L 81.112107 -41.963283 
L 80.277472 -41.96593 
L 79.442837 -41.96657 
L 78.608202 -41.964464 
L 77.773568 -41.96186 
L 76.938933 -41.960475 
L 76.104298 -41.960075 
z
" style="stroke: #ff7c00"/>
    </defs>
    <g clip-path="url(#pbeef231d51)">
     <use xlink:href="#m647773cade" x="0" y="432" style="fill: #ff7c00; fill-opacity: 0.25; stroke: #ff7c00"/>
    </g>
   </g>
   <g id="PolyCollection_3">
    <defs>
     <path id="m870575d455" d="M 68.585455 -41.960716 
L 68.585455 -41.96 
L 69.477232 -41.96 
L 70.369009 -41.96 
L 71.260786 -41.96 
L 72.152563 -41.96 
L 73.044341 -41.96 
L 73.936118 -41.96 
L 74.827895 -41.96 
L 75.719672 -41.96 
L 76.61145 -41.96 
L 77.503227 -41.96 
L 78.395004 -41.96 
L 79.286781 -41.96 
L 80.178559 -41.96 
L 81.070336 -41.96 
L 81.962113 -41.96 
L 82.85389 -41.96 
L 83.745668 -41.96 
L 84.637445 -41.96 
L 85.529222 -41.96 
L 86.420999 -41.96 
L 87.312776 -41.96 
L 88.204554 -41.96 
L 89.096331 -41.96 
L 89.988108 -41.96 
L 90.879885 -41.96 
L 91.771663 -41.96 
L 92.66344 -41.96 
L 93.555217 -41.96 
L 94.446994 -41.96 
L 95.338772 -41.96 
L 96.230549 -41.96 
L 97.122326 -41.96 
L 98.014103 -41.96 
L 98.905881 -41.96 
L 99.797658 -41.96 
L 100.689435 -41.96 
L 101.581212 -41.96 
L 102.472989 -41.96 
L 103.364767 -41.96 
L 104.256544 -41.96 
L 105.148321 -41.96 
L 106.040098 -41.96 
L 106.931876 -41.96 
L 107.823653 -41.96 
L 108.71543 -41.96 
L 109.607207 -41.96 
L 110.498985 -41.96 
L 111.390762 -41.96 
L 112.282539 -41.96 
L 113.174316 -41.96 
L 114.066094 -41.96 
L 114.957871 -41.96 
L 115.849648 -41.96 
L 116.741425 -41.96 
L 117.633202 -41.96 
L 118.52498 -41.96 
L 119.416757 -41.96 
L 120.308534 -41.96 
L 121.200311 -41.96 
L 122.092089 -41.96 
L 122.983866 -41.96 
L 123.875643 -41.96 
L 124.76742 -41.96 
L 125.659198 -41.96 
L 126.550975 -41.96 
L 127.442752 -41.96 
L 128.334529 -41.96 
L 129.226307 -41.96 
L 130.118084 -41.96 
L 131.009861 -41.96 
L 131.901638 -41.96 
L 132.793415 -41.96 
L 133.685193 -41.96 
L 134.57697 -41.96 
L 135.468747 -41.96 
L 136.360524 -41.96 
L 137.252302 -41.96 
L 138.144079 -41.96 
L 139.035856 -41.96 
L 139.927633 -41.96 
L 140.819411 -41.96 
L 141.711188 -41.96 
L 142.602965 -41.96 
L 143.494742 -41.96 
L 144.38652 -41.96 
L 145.278297 -41.96 
L 146.170074 -41.96 
L 147.061851 -41.96 
L 147.953628 -41.96 
L 148.845406 -41.96 
L 149.737183 -41.96 
L 150.62896 -41.96 
L 151.520737 -41.96 
L 152.412515 -41.96 
L 153.304292 -41.96 
L 154.196069 -41.96 
L 155.087846 -41.96 
L 155.979624 -41.96 
L 156.871401 -41.96 
L 157.763178 -41.96 
L 158.654955 -41.96 
L 159.546733 -41.96 
L 160.43851 -41.96 
L 161.330287 -41.96 
L 162.222064 -41.96 
L 163.113841 -41.96 
L 164.005619 -41.96 
L 164.897396 -41.96 
L 165.789173 -41.96 
L 166.68095 -41.96 
L 167.572728 -41.96 
L 168.464505 -41.96 
L 169.356282 -41.96 
L 170.248059 -41.96 
L 171.139837 -41.96 
L 172.031614 -41.96 
L 172.923391 -41.96 
L 173.815168 -41.96 
L 174.706946 -41.96 
L 175.598723 -41.96 
L 176.4905 -41.96 
L 177.382277 -41.96 
L 178.274054 -41.96 
L 179.165832 -41.96 
L 180.057609 -41.96 
L 180.949386 -41.96 
L 181.841163 -41.96 
L 182.732941 -41.96 
L 183.624718 -41.96 
L 184.516495 -41.96 
L 185.408272 -41.96 
L 186.30005 -41.96 
L 187.191827 -41.96 
L 188.083604 -41.96 
L 188.975381 -41.96 
L 189.867159 -41.96 
L 190.758936 -41.96 
L 191.650713 -41.96 
L 192.54249 -41.96 
L 193.434267 -41.96 
L 194.326045 -41.96 
L 195.217822 -41.96 
L 196.109599 -41.96 
L 197.001376 -41.96 
L 197.893154 -41.96 
L 198.784931 -41.96 
L 199.676708 -41.96 
L 200.568485 -41.96 
L 201.460263 -41.96 
L 202.35204 -41.96 
L 203.243817 -41.96 
L 204.135594 -41.96 
L 205.027372 -41.96 
L 205.919149 -41.96 
L 206.810926 -41.96 
L 207.702703 -41.96 
L 208.59448 -41.96 
L 209.486258 -41.96 
L 210.378035 -41.96 
L 211.269812 -41.96 
L 212.161589 -41.96 
L 213.053367 -41.96 
L 213.945144 -41.96 
L 214.836921 -41.96 
L 215.728698 -41.96 
L 216.620476 -41.96 
L 217.512253 -41.96 
L 218.40403 -41.96 
L 219.295807 -41.96 
L 220.187585 -41.96 
L 221.079362 -41.96 
L 221.971139 -41.96 
L 222.862916 -41.96 
L 223.754693 -41.96 
L 224.646471 -41.96 
L 225.538248 -41.96 
L 226.430025 -41.96 
L 227.321802 -41.96 
L 228.21358 -41.96 
L 229.105357 -41.96 
L 229.997134 -41.96 
L 230.888911 -41.96 
L 231.780689 -41.96 
L 232.672466 -41.96 
L 233.564243 -41.96 
L 234.45602 -41.96 
L 235.347798 -41.96 
L 236.239575 -41.96 
L 237.131352 -41.96 
L 238.023129 -41.96 
L 238.914906 -41.96 
L 239.806684 -41.96 
L 240.698461 -41.96 
L 241.590238 -41.96 
L 242.482015 -41.96 
L 243.373793 -41.96 
L 244.26557 -41.96 
L 245.157347 -41.96 
L 246.049124 -41.96 
L 246.049124 -41.960716 
L 246.049124 -41.960716 
L 245.157347 -41.961365 
L 244.26557 -41.962477 
L 243.373793 -41.964274 
L 242.482015 -41.967018 
L 241.590238 -41.970962 
L 240.698461 -41.976292 
L 239.806684 -41.983043 
L 238.914906 -41.991026 
L 238.023129 -41.999792 
L 237.131352 -42.008666 
L 236.239575 -42.016868 
L 235.347798 -42.023721 
L 234.45602 -42.028897 
L 233.564243 -42.032651 
L 232.672466 -42.035963 
L 231.780689 -42.040535 
L 230.888911 -42.04861 
L 229.997134 -42.062631 
L 229.105357 -42.08478 
L 228.21358 -42.116485 
L 227.321802 -42.157987 
L 226.430025 -42.20808 
L 225.538248 -42.264096 
L 224.646471 -42.322195 
L 223.754693 -42.377916 
L 222.862916 -42.426918 
L 221.971139 -42.465733 
L 221.079362 -42.492401 
L 220.187585 -42.506822 
L 219.295807 -42.510803 
L 218.40403 -42.507798 
L 217.512253 -42.502455 
L 216.620476 -42.500067 
L 215.728698 -42.506029 
L 214.836921 -42.525361 
L 213.945144 -42.562327 
L 213.053367 -42.620167 
L 212.161589 -42.700976 
L 211.269812 -42.805737 
L 210.378035 -42.934538 
L 209.486258 -43.086941 
L 208.59448 -43.26244 
L 207.702703 -43.460909 
L 206.810926 -43.682895 
L 205.919149 -43.929627 
L 205.027372 -44.202621 
L 204.135594 -44.502821 
L 203.243817 -44.829335 
L 202.35204 -45.177998 
L 201.460263 -45.540166 
L 200.568485 -45.902285 
L 199.676708 -46.246706 
L 198.784931 -46.553938 
L 197.893154 -46.806045 
L 197.001376 -46.990447 
L 196.109599 -47.103019 
L 195.217822 -47.149506 
L 194.326045 -47.144665 
L 193.434267 -47.109237 
L 192.54249 -47.065541 
L 191.650713 -47.032894 
L 190.758936 -47.024102 
L 189.867159 -47.043916 
L 188.975381 -47.089722 
L 188.083604 -47.154119 
L 187.191827 -47.228485 
L 186.30005 -47.30651 
L 185.408272 -47.386732 
L 184.516495 -47.473545 
L 183.624718 -47.57662 
L 182.732941 -47.709092 
L 181.841163 -47.885114 
L 180.949386 -48.117347 
L 180.057609 -48.414805 
L 179.165832 -48.781257 
L 178.274054 -49.214264 
L 177.382277 -49.704891 
L 176.4905 -50.238155 
L 175.598723 -50.794224 
L 174.706946 -51.350269 
L 173.815168 -51.882666 
L 172.923391 -52.369234 
L 172.031614 -52.791242 
L 171.139837 -53.135162 
L 170.248059 -53.394346 
L 169.356282 -53.570756 
L 168.464505 -53.676557 
L 167.572728 -53.734953 
L 166.68095 -53.779369 
L 165.789173 -53.850258 
L 164.897396 -53.989545 
L 164.005619 -54.233624 
L 163.113841 -54.606633 
L 162.222064 -55.115826 
L 161.330287 -55.750277 
L 160.43851 -56.482969 
L 159.546733 -57.275158 
L 158.654955 -58.081269 
L 157.763178 -58.852785 
L 156.871401 -59.54057 
L 155.979624 -60.09624 
L 155.087846 -60.474024 
L 154.196069 -60.634466 
L 153.304292 -60.550372 
L 152.412515 -60.213999 
L 151.520737 -59.643362 
L 150.62896 -58.885352 
L 149.737183 -58.014263 
L 148.845406 -57.126061 
L 147.953628 -56.330466 
L 147.061851 -55.74399 
L 146.170074 -55.486871 
L 145.278297 -55.685327 
L 144.38652 -56.478115 
L 143.494742 -58.023658 
L 142.602965 -60.50183 
L 141.711188 -64.103757 
L 140.819411 -69.004443 
L 139.927633 -75.317154 
L 139.035856 -83.034884 
L 138.144079 -91.971616 
L 137.252302 -101.721787 
L 136.360524 -111.657408 
L 135.468747 -120.976361 
L 134.57697 -128.802577 
L 133.685193 -134.322364 
L 132.793415 -136.926762 
L 131.901638 -136.32378 
L 131.009861 -132.590131 
L 130.118084 -126.148637 
L 129.226307 -117.679044 
L 128.334529 -107.988499 
L 127.442752 -97.876688 
L 126.550975 -88.027254 
L 125.659198 -78.944287 
L 124.76742 -70.936507 
L 123.875643 -64.13858 
L 122.983866 -58.552699 
L 122.092089 -54.094348 
L 121.200311 -50.631484 
L 120.308534 -48.012876 
L 119.416757 -46.086127 
L 118.52498 -44.708205 
L 117.633202 -43.751363 
L 116.741425 -43.106343 
L 115.849648 -42.683723 
L 114.957871 -42.413684 
L 114.066094 -42.244384 
L 113.174316 -42.139294 
L 112.282539 -42.073996 
L 111.390762 -42.032959 
L 110.498985 -42.006723 
L 109.607207 -41.989685 
L 108.71543 -41.978543 
L 107.823653 -41.971295 
L 106.931876 -41.966666 
L 106.040098 -41.963792 
L 105.148321 -41.962072 
L 104.256544 -41.961085 
L 103.364767 -41.960543 
L 102.472989 -41.96026 
L 101.581212 -41.960118 
L 100.689435 -41.960052 
L 99.797658 -41.960022 
L 98.905881 -41.96001 
L 98.014103 -41.960008 
L 97.122326 -41.960013 
L 96.230549 -41.960029 
L 95.338772 -41.960068 
L 94.446994 -41.960151 
L 93.555217 -41.96032 
L 92.66344 -41.960645 
L 91.771663 -41.96124 
L 90.879885 -41.962267 
L 89.988108 -41.963943 
L 89.096331 -41.966522 
L 88.204554 -41.970264 
L 87.312776 -41.975364 
L 86.420999 -41.981879 
L 85.529222 -41.989638 
L 84.637445 -41.998192 
L 83.745668 -42.006818 
L 82.85389 -42.014595 
L 81.962113 -42.020563 
L 81.070336 -42.023909 
L 80.178559 -42.024154 
L 79.286781 -42.021263 
L 78.395004 -42.015652 
L 77.503227 -42.008091 
L 76.61145 -41.999533 
L 75.719672 -41.990914 
L 74.827895 -41.982997 
L 73.936118 -41.976274 
L 73.044341 -41.970955 
L 72.152563 -41.967015 
L 71.260786 -41.964273 
L 70.369009 -41.962476 
L 69.477232 -41.961365 
L 68.585455 -41.960716 
z
" style="stroke: #023eff"/>
    </defs>
    <g clip-path="url(#pbeef231d51)">
     <use xlink:href="#m870575d455" x="0" y="432" style="fill: #023eff; fill-opacity: 0.25; stroke: #023eff"/>
    </g>
   </g>
   <g id="matplotlib.axis_1">
    <g id="xtick_1">
     <g id="line2d_1">
      <defs>
       <path id="m93955e543f" d="M 0 0 
L 0 3.5 
" style="stroke: #000000; stroke-width: 0.8"/>
      </defs>
      <g>
       <use xlink:href="#m93955e543f" x="87.619597" y="390.04" style="stroke: #000000; stroke-width: 0.8"/>
      </g>
     </g>
     <g id="text_1">
      <!-- −25 -->
      <g transform="translate(77.067254 404.638438) scale(0.1 -0.1)">
       <defs>
        <path id="DejaVuSans-2212" d="M 678 2272 
L 4684 2272 
L 4684 1741 
L 678 1741 
L 678 2272 
z
" transform="scale(0.015625)"/>
        <path id="DejaVuSans-32" d="M 1228 531 
L 3431 531 
L 3431 0 
L 469 0 
L 469 531 
Q 828 903 1448 1529 
Q 2069 2156 2228 2338 
Q 2531 2678 2651 2914 
Q 2772 3150 2772 3378 
Q 2772 3750 2511 3984 
Q 2250 4219 1831 4219 
Q 1534 4219 1204 4116 
Q 875 4013 500 3803 
L 500 4441 
Q 881 4594 1212 4672 
Q 1544 4750 1819 4750 
Q 2544 4750 2975 4387 
Q 3406 4025 3406 3419 
Q 3406 3131 3298 2873 
Q 3191 2616 2906 2266 
Q 2828 2175 2409 1742 
Q 1991 1309 1228 531 
z
" transform="scale(0.015625)"/>
        <path id="DejaVuSans-35" d="M 691 4666 
L 3169 4666 
L 3169 4134 
L 1269 4134 
L 1269 2991 
Q 1406 3038 1543 3061 
Q 1681 3084 1819 3084 
Q 2600 3084 3056 2656 
Q 3513 2228 3513 1497 
Q 3513 744 3044 326 
Q 2575 -91 1722 -91 
Q 1428 -91 1123 -41 
Q 819 9 494 109 
L 494 744 
Q 775 591 1075 516 
Q 1375 441 1709 441 
Q 2250 441 2565 725 
Q 2881 1009 2881 1497 
Q 2881 1984 2565 2268 
Q 2250 2553 1709 2553 
Q 1456 2553 1204 2497 
Q 953 2441 691 2322 
L 691 4666 
z
" transform="scale(0.015625)"/>
       </defs>
       <use xlink:href="#DejaVuSans-2212"/>
       <use xlink:href="#DejaVuSans-32" x="83.789062"/>
       <use xlink:href="#DejaVuSans-35" x="147.412109"/>
      </g>
     </g>
    </g>
    <g id="xtick_2">
     <g id="line2d_2">
      <g>
       <use xlink:href="#m93955e543f" x="126.490406" y="390.04" style="stroke: #000000; stroke-width: 0.8"/>
      </g>
     </g>
     <g id="text_2">
      <!-- 0 -->
      <g transform="translate(123.309156 404.638438) scale(0.1 -0.1)">
       <defs>
        <path id="DejaVuSans-30" d="M 2034 4250 
Q 1547 4250 1301 3770 
Q 1056 3291 1056 2328 
Q 1056 1369 1301 889 
Q 1547 409 2034 409 
Q 2525 409 2770 889 
Q 3016 1369 3016 2328 
Q 3016 3291 2770 3770 
Q 2525 4250 2034 4250 
z
M 2034 4750 
Q 2819 4750 3233 4129 
Q 3647 3509 3647 2328 
Q 3647 1150 3233 529 
Q 2819 -91 2034 -91 
Q 1250 -91 836 529 
Q 422 1150 422 2328 
Q 422 3509 836 4129 
Q 1250 4750 2034 4750 
z
" transform="scale(0.015625)"/>
       </defs>
       <use xlink:href="#DejaVuSans-30"/>
      </g>
     </g>
    </g>
    <g id="xtick_3">
     <g id="line2d_3">
      <g>
       <use xlink:href="#m93955e543f" x="165.361215" y="390.04" style="stroke: #000000; stroke-width: 0.8"/>
      </g>
     </g>
     <g id="text_3">
      <!-- 25 -->
      <g transform="translate(158.998715 404.638438) scale(0.1 -0.1)">
       <use xlink:href="#DejaVuSans-32"/>
       <use xlink:href="#DejaVuSans-35" x="63.623047"/>
      </g>
     </g>
    </g>
    <g id="xtick_4">
     <g id="line2d_4">
      <g>
       <use xlink:href="#m93955e543f" x="204.232023" y="390.04" style="stroke: #000000; stroke-width: 0.8"/>
      </g>
     </g>
     <g id="text_4">
      <!-- 50 -->
      <g transform="translate(197.869523 404.638438) scale(0.1 -0.1)">
       <use xlink:href="#DejaVuSans-35"/>
       <use xlink:href="#DejaVuSans-30" x="63.623047"/>
      </g>
     </g>
    </g>
    <g id="xtick_5">
     <g id="line2d_5">
      <g>
       <use xlink:href="#m93955e543f" x="243.102832" y="390.04" style="stroke: #000000; stroke-width: 0.8"/>
      </g>
     </g>
     <g id="text_5">
      <!-- 75 -->
      <g transform="translate(236.740332 404.638438) scale(0.1 -0.1)">
       <defs>
        <path id="DejaVuSans-37" d="M 525 4666 
L 3525 4666 
L 3525 4397 
L 1831 0 
L 1172 0 
L 2766 4134 
L 525 4134 
L 525 4666 
z
" transform="scale(0.015625)"/>
       </defs>
       <use xlink:href="#DejaVuSans-37"/>
       <use xlink:href="#DejaVuSans-35" x="63.623047"/>
      </g>
     </g>
    </g>
    <g id="xtick_6">
     <g id="line2d_6">
      <g>
       <use xlink:href="#m93955e543f" x="281.973641" y="390.04" style="stroke: #000000; stroke-width: 0.8"/>
      </g>
     </g>
     <g id="text_6">
      <!-- 100 -->
      <g transform="translate(272.429891 404.638438) scale(0.1 -0.1)">
       <defs>
        <path id="DejaVuSans-31" d="M 794 531 
L 1825 531 
L 1825 4091 
L 703 3866 
L 703 4441 
L 1819 4666 
L 2450 4666 
L 2450 531 
L 3481 531 
L 3481 0 
L 794 0 
L 794 531 
z
" transform="scale(0.015625)"/>
       </defs>
       <use xlink:href="#DejaVuSans-31"/>
       <use xlink:href="#DejaVuSans-30" x="63.623047"/>
       <use xlink:href="#DejaVuSans-30" x="127.246094"/>
      </g>
     </g>
    </g>
    <g id="xtick_7">
     <g id="line2d_7">
      <g>
       <use xlink:href="#m93955e543f" x="320.844449" y="390.04" style="stroke: #000000; stroke-width: 0.8"/>
      </g>
     </g>
     <g id="text_7">
      <!-- 125 -->
      <g transform="translate(311.300699 404.638438) scale(0.1 -0.1)">
       <use xlink:href="#DejaVuSans-31"/>
       <use xlink:href="#DejaVuSans-32" x="63.623047"/>
       <use xlink:href="#DejaVuSans-35" x="127.246094"/>
      </g>
     </g>
    </g>
    <g id="xtick_8">
     <g id="line2d_8">
      <g>
       <use xlink:href="#m93955e543f" x="359.715258" y="390.04" style="stroke: #000000; stroke-width: 0.8"/>
      </g>
     </g>
     <g id="text_8">
      <!-- 150 -->
      <g transform="translate(350.171508 404.638438) scale(0.1 -0.1)">
       <use xlink:href="#DejaVuSans-31"/>
       <use xlink:href="#DejaVuSans-35" x="63.623047"/>
       <use xlink:href="#DejaVuSans-30" x="127.246094"/>
      </g>
     </g>
    </g>
    <g id="text_9">
     <!-- LapTimeDiff -->
     <g transform="translate(184.222812 418.316562) scale(0.1 -0.1)">
      <defs>
       <path id="DejaVuSans-4c" d="M 628 4666 
L 1259 4666 
L 1259 531 
L 3531 531 
L 3531 0 
L 628 0 
L 628 4666 
z
" transform="scale(0.015625)"/>
       <path id="DejaVuSans-61" d="M 2194 1759 
Q 1497 1759 1228 1600 
Q 959 1441 959 1056 
Q 959 750 1161 570 
Q 1363 391 1709 391 
Q 2188 391 2477 730 
Q 2766 1069 2766 1631 
L 2766 1759 
L 2194 1759 
z
M 3341 1997 
L 3341 0 
L 2766 0 
L 2766 531 
Q 2569 213 2275 61 
Q 1981 -91 1556 -91 
Q 1019 -91 701 211 
Q 384 513 384 1019 
Q 384 1609 779 1909 
Q 1175 2209 1959 2209 
L 2766 2209 
L 2766 2266 
Q 2766 2663 2505 2880 
Q 2244 3097 1772 3097 
Q 1472 3097 1187 3025 
Q 903 2953 641 2809 
L 641 3341 
Q 956 3463 1253 3523 
Q 1550 3584 1831 3584 
Q 2591 3584 2966 3190 
Q 3341 2797 3341 1997 
z
" transform="scale(0.015625)"/>
       <path id="DejaVuSans-70" d="M 1159 525 
L 1159 -1331 
L 581 -1331 
L 581 3500 
L 1159 3500 
L 1159 2969 
Q 1341 3281 1617 3432 
Q 1894 3584 2278 3584 
Q 2916 3584 3314 3078 
Q 3713 2572 3713 1747 
Q 3713 922 3314 415 
Q 2916 -91 2278 -91 
Q 1894 -91 1617 61 
Q 1341 213 1159 525 
z
M 3116 1747 
Q 3116 2381 2855 2742 
Q 2594 3103 2138 3103 
Q 1681 3103 1420 2742 
Q 1159 2381 1159 1747 
Q 1159 1113 1420 752 
Q 1681 391 2138 391 
Q 2594 391 2855 752 
Q 3116 1113 3116 1747 
z
" transform="scale(0.015625)"/>
       <path id="DejaVuSans-54" d="M -19 4666 
L 3928 4666 
L 3928 4134 
L 2272 4134 
L 2272 0 
L 1638 0 
L 1638 4134 
L -19 4134 
L -19 4666 
z
" transform="scale(0.015625)"/>
       <path id="DejaVuSans-69" d="M 603 3500 
L 1178 3500 
L 1178 0 
L 603 0 
L 603 3500 
z
M 603 4863 
L 1178 4863 
L 1178 4134 
L 603 4134 
L 603 4863 
z
" transform="scale(0.015625)"/>
       <path id="DejaVuSans-6d" d="M 3328 2828 
Q 3544 3216 3844 3400 
Q 4144 3584 4550 3584 
Q 5097 3584 5394 3201 
Q 5691 2819 5691 2113 
L 5691 0 
L 5113 0 
L 5113 2094 
Q 5113 2597 4934 2840 
Q 4756 3084 4391 3084 
Q 3944 3084 3684 2787 
Q 3425 2491 3425 1978 
L 3425 0 
L 2847 0 
L 2847 2094 
Q 2847 2600 2669 2842 
Q 2491 3084 2119 3084 
Q 1678 3084 1418 2786 
Q 1159 2488 1159 1978 
L 1159 0 
L 581 0 
L 581 3500 
L 1159 3500 
L 1159 2956 
Q 1356 3278 1631 3431 
Q 1906 3584 2284 3584 
Q 2666 3584 2933 3390 
Q 3200 3197 3328 2828 
z
" transform="scale(0.015625)"/>
       <path id="DejaVuSans-65" d="M 3597 1894 
L 3597 1613 
L 953 1613 
Q 991 1019 1311 708 
Q 1631 397 2203 397 
Q 2534 397 2845 478 
Q 3156 559 3463 722 
L 3463 178 
Q 3153 47 2828 -22 
Q 2503 -91 2169 -91 
Q 1331 -91 842 396 
Q 353 884 353 1716 
Q 353 2575 817 3079 
Q 1281 3584 2069 3584 
Q 2775 3584 3186 3129 
Q 3597 2675 3597 1894 
z
M 3022 2063 
Q 3016 2534 2758 2815 
Q 2500 3097 2075 3097 
Q 1594 3097 1305 2825 
Q 1016 2553 972 2059 
L 3022 2063 
z
" transform="scale(0.015625)"/>
       <path id="DejaVuSans-44" d="M 1259 4147 
L 1259 519 
L 2022 519 
Q 2988 519 3436 956 
Q 3884 1394 3884 2338 
Q 3884 3275 3436 3711 
Q 2988 4147 2022 4147 
L 1259 4147 
z
M 628 4666 
L 1925 4666 
Q 3281 4666 3915 4102 
Q 4550 3538 4550 2338 
Q 4550 1131 3912 565 
Q 3275 0 1925 0 
L 628 0 
L 628 4666 
z
" transform="scale(0.015625)"/>
       <path id="DejaVuSans-66" d="M 2375 4863 
L 2375 4384 
L 1825 4384 
Q 1516 4384 1395 4259 
Q 1275 4134 1275 3809 
L 1275 3500 
L 2222 3500 
L 2222 3053 
L 1275 3053 
L 1275 0 
L 697 0 
L 697 3053 
L 147 3053 
L 147 3500 
L 697 3500 
L 697 3744 
Q 697 4328 969 4595 
Q 1241 4863 1831 4863 
L 2375 4863 
z
" transform="scale(0.015625)"/>
      </defs>
      <use xlink:href="#DejaVuSans-4c"/>
      <use xlink:href="#DejaVuSans-61" x="55.712891"/>
      <use xlink:href="#DejaVuSans-70" x="116.992188"/>
      <use xlink:href="#DejaVuSans-54" x="180.46875"/>
      <use xlink:href="#DejaVuSans-69" x="238.427734"/>
      <use xlink:href="#DejaVuSans-6d" x="266.210938"/>
      <use xlink:href="#DejaVuSans-65" x="363.623047"/>
      <use xlink:href="#DejaVuSans-44" x="425.146484"/>
      <use xlink:href="#DejaVuSans-69" x="502.148438"/>
      <use xlink:href="#DejaVuSans-66" x="529.931641"/>
      <use xlink:href="#DejaVuSans-66" x="565.136719"/>
     </g>
    </g>
   </g>
   <g id="matplotlib.axis_2">
    <g id="ytick_1">
     <g id="line2d_9">
      <defs>
       <path id="m06103308df" d="M 0 0 
L -3.5 0 
" style="stroke: #000000; stroke-width: 0.8"/>
      </defs>
      <g>
       <use xlink:href="#m06103308df" x="54.02" y="390.04" style="stroke: #000000; stroke-width: 0.8"/>
      </g>
     </g>
     <g id="text_10">
      <!-- 0.00 -->
      <g transform="translate(24.754375 393.839219) scale(0.1 -0.1)">
       <defs>
        <path id="DejaVuSans-2e" d="M 684 794 
L 1344 794 
L 1344 0 
L 684 0 
L 684 794 
z
" transform="scale(0.015625)"/>
       </defs>
       <use xlink:href="#DejaVuSans-30"/>
       <use xlink:href="#DejaVuSans-2e" x="63.623047"/>
       <use xlink:href="#DejaVuSans-30" x="95.410156"/>
       <use xlink:href="#DejaVuSans-30" x="159.033203"/>
      </g>
     </g>
    </g>
    <g id="ytick_2">
     <g id="line2d_10">
      <g>
       <use xlink:href="#m06103308df" x="54.02" y="331.527419" style="stroke: #000000; stroke-width: 0.8"/>
      </g>
     </g>
     <g id="text_11">
      <!-- 0.05 -->
      <g transform="translate(24.754375 335.326638) scale(0.1 -0.1)">
       <use xlink:href="#DejaVuSans-30"/>
       <use xlink:href="#DejaVuSans-2e" x="63.623047"/>
       <use xlink:href="#DejaVuSans-30" x="95.410156"/>
       <use xlink:href="#DejaVuSans-35" x="159.033203"/>
      </g>
     </g>
    </g>
    <g id="ytick_3">
     <g id="line2d_11">
      <g>
       <use xlink:href="#m06103308df" x="54.02" y="273.014839" style="stroke: #000000; stroke-width: 0.8"/>
      </g>
     </g>
     <g id="text_12">
      <!-- 0.10 -->
      <g transform="translate(24.754375 276.814057) scale(0.1 -0.1)">
       <use xlink:href="#DejaVuSans-30"/>
       <use xlink:href="#DejaVuSans-2e" x="63.623047"/>
       <use xlink:href="#DejaVuSans-31" x="95.410156"/>
       <use xlink:href="#DejaVuSans-30" x="159.033203"/>
      </g>
     </g>
    </g>
    <g id="ytick_4">
     <g id="line2d_12">
      <g>
       <use xlink:href="#m06103308df" x="54.02" y="214.502258" style="stroke: #000000; stroke-width: 0.8"/>
      </g>
     </g>
     <g id="text_13">
      <!-- 0.15 -->
      <g transform="translate(24.754375 218.301477) scale(0.1 -0.1)">
       <use xlink:href="#DejaVuSans-30"/>
       <use xlink:href="#DejaVuSans-2e" x="63.623047"/>
       <use xlink:href="#DejaVuSans-31" x="95.410156"/>
       <use xlink:href="#DejaVuSans-35" x="159.033203"/>
      </g>
     </g>
    </g>
    <g id="ytick_5">
     <g id="line2d_13">
      <g>
       <use xlink:href="#m06103308df" x="54.02" y="155.989677" style="stroke: #000000; stroke-width: 0.8"/>
      </g>
     </g>
     <g id="text_14">
      <!-- 0.20 -->
      <g transform="translate(24.754375 159.788896) scale(0.1 -0.1)">
       <use xlink:href="#DejaVuSans-30"/>
       <use xlink:href="#DejaVuSans-2e" x="63.623047"/>
       <use xlink:href="#DejaVuSans-32" x="95.410156"/>
       <use xlink:href="#DejaVuSans-30" x="159.033203"/>
      </g>
     </g>
    </g>
    <g id="ytick_6">
     <g id="line2d_14">
      <g>
       <use xlink:href="#m06103308df" x="54.02" y="97.477097" style="stroke: #000000; stroke-width: 0.8"/>
      </g>
     </g>
     <g id="text_15">
      <!-- 0.25 -->
      <g transform="translate(24.754375 101.276316) scale(0.1 -0.1)">
       <use xlink:href="#DejaVuSans-30"/>
       <use xlink:href="#DejaVuSans-2e" x="63.623047"/>
       <use xlink:href="#DejaVuSans-32" x="95.410156"/>
       <use xlink:href="#DejaVuSans-35" x="159.033203"/>
      </g>
     </g>
    </g>
    <g id="ytick_7">
     <g id="line2d_15">
      <g>
       <use xlink:href="#m06103308df" x="54.02" y="38.964516" style="stroke: #000000; stroke-width: 0.8"/>
      </g>
     </g>
     <g id="text_16">
      <!-- 0.30 -->
      <g transform="translate(24.754375 42.763735) scale(0.1 -0.1)">
       <defs>
        <path id="DejaVuSans-33" d="M 2597 2516 
Q 3050 2419 3304 2112 
Q 3559 1806 3559 1356 
Q 3559 666 3084 287 
Q 2609 -91 1734 -91 
Q 1441 -91 1130 -33 
Q 819 25 488 141 
L 488 750 
Q 750 597 1062 519 
Q 1375 441 1716 441 
Q 2309 441 2620 675 
Q 2931 909 2931 1356 
Q 2931 1769 2642 2001 
Q 2353 2234 1838 2234 
L 1294 2234 
L 1294 2753 
L 1863 2753 
Q 2328 2753 2575 2939 
Q 2822 3125 2822 3475 
Q 2822 3834 2567 4026 
Q 2313 4219 1838 4219 
Q 1578 4219 1281 4162 
Q 984 4106 628 3988 
L 628 4550 
Q 988 4650 1302 4700 
Q 1616 4750 1894 4750 
Q 2613 4750 3031 4423 
Q 3450 4097 3450 3541 
Q 3450 3153 3228 2886 
Q 3006 2619 2597 2516 
z
" transform="scale(0.015625)"/>
       </defs>
       <use xlink:href="#DejaVuSans-30"/>
       <use xlink:href="#DejaVuSans-2e" x="63.623047"/>
       <use xlink:href="#DejaVuSans-33" x="95.410156"/>
       <use xlink:href="#DejaVuSans-30" x="159.033203"/>
      </g>
     </g>
    </g>
    <g id="text_17">
     <!-- Density -->
     <g transform="translate(18.674688 231.507288) rotate(-90) scale(0.1 -0.1)">
      <defs>
       <path id="DejaVuSans-6e" d="M 3513 2113 
L 3513 0 
L 2938 0 
L 2938 2094 
Q 2938 2591 2744 2837 
Q 2550 3084 2163 3084 
Q 1697 3084 1428 2787 
Q 1159 2491 1159 1978 
L 1159 0 
L 581 0 
L 581 3500 
L 1159 3500 
L 1159 2956 
Q 1366 3272 1645 3428 
Q 1925 3584 2291 3584 
Q 2894 3584 3203 3211 
Q 3513 2838 3513 2113 
z
" transform="scale(0.015625)"/>
       <path id="DejaVuSans-73" d="M 2834 3397 
L 2834 2853 
Q 2591 2978 2328 3040 
Q 2066 3103 1784 3103 
Q 1356 3103 1142 2972 
Q 928 2841 928 2578 
Q 928 2378 1081 2264 
Q 1234 2150 1697 2047 
L 1894 2003 
Q 2506 1872 2764 1633 
Q 3022 1394 3022 966 
Q 3022 478 2636 193 
Q 2250 -91 1575 -91 
Q 1294 -91 989 -36 
Q 684 19 347 128 
L 347 722 
Q 666 556 975 473 
Q 1284 391 1588 391 
Q 1994 391 2212 530 
Q 2431 669 2431 922 
Q 2431 1156 2273 1281 
Q 2116 1406 1581 1522 
L 1381 1569 
Q 847 1681 609 1914 
Q 372 2147 372 2553 
Q 372 3047 722 3315 
Q 1072 3584 1716 3584 
Q 2034 3584 2315 3537 
Q 2597 3491 2834 3397 
z
" transform="scale(0.015625)"/>
       <path id="DejaVuSans-74" d="M 1172 4494 
L 1172 3500 
L 2356 3500 
L 2356 3053 
L 1172 3053 
L 1172 1153 
Q 1172 725 1289 603 
Q 1406 481 1766 481 
L 2356 481 
L 2356 0 
L 1766 0 
Q 1100 0 847 248 
Q 594 497 594 1153 
L 594 3053 
L 172 3053 
L 172 3500 
L 594 3500 
L 594 4494 
L 1172 4494 
z
" transform="scale(0.015625)"/>
       <path id="DejaVuSans-79" d="M 2059 -325 
Q 1816 -950 1584 -1140 
Q 1353 -1331 966 -1331 
L 506 -1331 
L 506 -850 
L 844 -850 
Q 1081 -850 1212 -737 
Q 1344 -625 1503 -206 
L 1606 56 
L 191 3500 
L 800 3500 
L 1894 763 
L 2988 3500 
L 3597 3500 
L 2059 -325 
z
" transform="scale(0.015625)"/>
      </defs>
      <use xlink:href="#DejaVuSans-44"/>
      <use xlink:href="#DejaVuSans-65" x="77.001953"/>
      <use xlink:href="#DejaVuSans-6e" x="138.525391"/>
      <use xlink:href="#DejaVuSans-73" x="201.904297"/>
      <use xlink:href="#DejaVuSans-69" x="254.003906"/>
      <use xlink:href="#DejaVuSans-74" x="281.787109"/>
      <use xlink:href="#DejaVuSans-79" x="320.996094"/>
     </g>
    </g>
   </g>
   <g id="patch_3">
    <path d="M 54.02 390.04 
L 54.02 34.957389 
" style="fill: none; stroke: #000000; stroke-width: 0.8; stroke-linejoin: miter; stroke-linecap: square"/>
   </g>
   <g id="patch_4">
    <path d="M 374.46 390.04 
L 374.46 34.957389 
" style="fill: none; stroke: #000000; stroke-width: 0.8; stroke-linejoin: miter; stroke-linecap: square"/>
   </g>
   <g id="patch_5">
    <path d="M 54.02 390.04 
L 374.46 390.04 
" style="fill: none; stroke: #000000; stroke-width: 0.8; stroke-linejoin: miter; stroke-linecap: square"/>
   </g>
   <g id="patch_6">
    <path d="M 54.02 34.957389 
L 374.46 34.957389 
" style="fill: none; stroke: #000000; stroke-width: 0.8; stroke-linejoin: miter; stroke-linecap: square"/>
   </g>
   <g id="legend_1">
    <g id="patch_7">
     <path d="M 299.281875 101.669889 
L 367.46 101.669889 
Q 369.46 101.669889 369.46 99.669889 
L 369.46 41.957389 
Q 369.46 39.957389 367.46 39.957389 
L 299.281875 39.957389 
Q 297.281875 39.957389 297.281875 41.957389 
L 297.281875 99.669889 
Q 297.281875 101.669889 299.281875 101.669889 
z
" style="fill: #ffffff; opacity: 0.8; stroke: #cccccc; stroke-linejoin: miter"/>
    </g>
    <g id="text_18">
     <!-- PitStatus -->
     <g transform="translate(311.187344 51.555826) scale(0.1 -0.1)">
      <defs>
       <path id="DejaVuSans-50" d="M 1259 4147 
L 1259 2394 
L 2053 2394 
Q 2494 2394 2734 2622 
Q 2975 2850 2975 3272 
Q 2975 3691 2734 3919 
Q 2494 4147 2053 4147 
L 1259 4147 
z
M 628 4666 
L 2053 4666 
Q 2838 4666 3239 4311 
Q 3641 3956 3641 3272 
Q 3641 2581 3239 2228 
Q 2838 1875 2053 1875 
L 1259 1875 
L 1259 0 
L 628 0 
L 628 4666 
z
" transform="scale(0.015625)"/>
       <path id="DejaVuSans-53" d="M 3425 4513 
L 3425 3897 
Q 3066 4069 2747 4153 
Q 2428 4238 2131 4238 
Q 1616 4238 1336 4038 
Q 1056 3838 1056 3469 
Q 1056 3159 1242 3001 
Q 1428 2844 1947 2747 
L 2328 2669 
Q 3034 2534 3370 2195 
Q 3706 1856 3706 1288 
Q 3706 609 3251 259 
Q 2797 -91 1919 -91 
Q 1588 -91 1214 -16 
Q 841 59 441 206 
L 441 856 
Q 825 641 1194 531 
Q 1563 422 1919 422 
Q 2459 422 2753 634 
Q 3047 847 3047 1241 
Q 3047 1584 2836 1778 
Q 2625 1972 2144 2069 
L 1759 2144 
Q 1053 2284 737 2584 
Q 422 2884 422 3419 
Q 422 4038 858 4394 
Q 1294 4750 2059 4750 
Q 2388 4750 2728 4690 
Q 3069 4631 3425 4513 
z
" transform="scale(0.015625)"/>
       <path id="DejaVuSans-75" d="M 544 1381 
L 544 3500 
L 1119 3500 
L 1119 1403 
Q 1119 906 1312 657 
Q 1506 409 1894 409 
Q 2359 409 2629 706 
Q 2900 1003 2900 1516 
L 2900 3500 
L 3475 3500 
L 3475 0 
L 2900 0 
L 2900 538 
Q 2691 219 2414 64 
Q 2138 -91 1772 -91 
Q 1169 -91 856 284 
Q 544 659 544 1381 
z
M 1991 3584 
L 1991 3584 
z
" transform="scale(0.015625)"/>
      </defs>
      <use xlink:href="#DejaVuSans-50"/>
      <use xlink:href="#DejaVuSans-69" x="58.052734"/>
      <use xlink:href="#DejaVuSans-74" x="85.835938"/>
      <use xlink:href="#DejaVuSans-53" x="125.044922"/>
      <use xlink:href="#DejaVuSans-74" x="188.521484"/>
      <use xlink:href="#DejaVuSans-61" x="227.730469"/>
      <use xlink:href="#DejaVuSans-74" x="289.009766"/>
      <use xlink:href="#DejaVuSans-75" x="328.21875"/>
      <use xlink:href="#DejaVuSans-73" x="391.597656"/>
     </g>
    </g>
    <g id="patch_8">
     <path d="M 301.281875 66.233951 
L 321.281875 66.233951 
L 321.281875 59.233951 
L 301.281875 59.233951 
z
" style="fill: #023eff; fill-opacity: 0.25; stroke: #023eff; stroke-linejoin: miter"/>
    </g>
    <g id="text_19">
     <!-- InLap -->
     <g transform="translate(329.281875 66.233951) scale(0.1 -0.1)">
      <defs>
       <path id="DejaVuSans-49" d="M 628 4666 
L 1259 4666 
L 1259 0 
L 628 0 
L 628 4666 
z
" transform="scale(0.015625)"/>
      </defs>
      <use xlink:href="#DejaVuSans-49"/>
      <use xlink:href="#DejaVuSans-6e" x="29.492188"/>
      <use xlink:href="#DejaVuSans-4c" x="92.871094"/>
      <use xlink:href="#DejaVuSans-61" x="148.583984"/>
      <use xlink:href="#DejaVuSans-70" x="209.863281"/>
     </g>
    </g>
    <g id="patch_9">
     <path d="M 301.281875 80.912076 
L 321.281875 80.912076 
L 321.281875 73.912076 
L 301.281875 73.912076 
z
" style="fill: #ff7c00; fill-opacity: 0.25; stroke: #ff7c00; stroke-linejoin: miter"/>
    </g>
    <g id="text_20">
     <!-- NoPit -->
     <g transform="translate(329.281875 80.912076) scale(0.1 -0.1)">
      <defs>
       <path id="DejaVuSans-4e" d="M 628 4666 
L 1478 4666 
L 3547 763 
L 3547 4666 
L 4159 4666 
L 4159 0 
L 3309 0 
L 1241 3903 
L 1241 0 
L 628 0 
L 628 4666 
z
" transform="scale(0.015625)"/>
       <path id="DejaVuSans-6f" d="M 1959 3097 
Q 1497 3097 1228 2736 
Q 959 2375 959 1747 
Q 959 1119 1226 758 
Q 1494 397 1959 397 
Q 2419 397 2687 759 
Q 2956 1122 2956 1747 
Q 2956 2369 2687 2733 
Q 2419 3097 1959 3097 
z
M 1959 3584 
Q 2709 3584 3137 3096 
Q 3566 2609 3566 1747 
Q 3566 888 3137 398 
Q 2709 -91 1959 -91 
Q 1206 -91 779 398 
Q 353 888 353 1747 
Q 353 2609 779 3096 
Q 1206 3584 1959 3584 
z
" transform="scale(0.015625)"/>
      </defs>
      <use xlink:href="#DejaVuSans-4e"/>
      <use xlink:href="#DejaVuSans-6f" x="74.804688"/>
      <use xlink:href="#DejaVuSans-50" x="135.986328"/>
      <use xlink:href="#DejaVuSans-69" x="194.039062"/>
      <use xlink:href="#DejaVuSans-74" x="221.822266"/>
     </g>
    </g>
    <g id="patch_10">
     <path d="M 301.281875 95.590201 
L 321.281875 95.590201 
L 321.281875 88.590201 
L 301.281875 88.590201 
z
" style="fill: #1ac938; fill-opacity: 0.25; stroke: #1ac938; stroke-linejoin: miter"/>
    </g>
    <g id="text_21">
     <!-- OutLap -->
     <g transform="translate(329.281875 95.590201) scale(0.1 -0.1)">
      <defs>
       <path id="DejaVuSans-4f" d="M 2522 4238 
Q 1834 4238 1429 3725 
Q 1025 3213 1025 2328 
Q 1025 1447 1429 934 
Q 1834 422 2522 422 
Q 3209 422 3611 934 
Q 4013 1447 4013 2328 
Q 4013 3213 3611 3725 
Q 3209 4238 2522 4238 
z
M 2522 4750 
Q 3503 4750 4090 4092 
Q 4678 3434 4678 2328 
Q 4678 1225 4090 567 
Q 3503 -91 2522 -91 
Q 1538 -91 948 565 
Q 359 1222 359 2328 
Q 359 3434 948 4092 
Q 1538 4750 2522 4750 
z
" transform="scale(0.015625)"/>
      </defs>
      <use xlink:href="#DejaVuSans-4f"/>
      <use xlink:href="#DejaVuSans-75" x="78.710938"/>
      <use xlink:href="#DejaVuSans-74" x="142.089844"/>
      <use xlink:href="#DejaVuSans-4c" x="181.298828"/>
      <use xlink:href="#DejaVuSans-61" x="237.011719"/>
      <use xlink:href="#DejaVuSans-70" x="298.291016"/>
     </g>
    </g>
   </g>
  </g>
  <g id="axes_2">
   <g id="patch_11">
    <path d="M 388.76 390.04 
L 709.2 390.04 
L 709.2 34.957389 
L 388.76 34.957389 
z
" style="fill: #ffffff"/>
   </g>
   <g id="PolyCollection_4">
    <defs>
     <path id="m3d157be8b9" d="M 408.748438 -41.965777 
L 408.748438 -41.96 
L 409.806633 -41.96 
L 410.864827 -41.96 
L 411.923022 -41.96 
L 412.981217 -41.96 
L 414.039411 -41.96 
L 415.097606 -41.96 
L 416.1558 -41.96 
L 417.213995 -41.96 
L 418.272189 -41.96 
L 419.330384 -41.96 
L 420.388579 -41.96 
L 421.446773 -41.96 
L 422.504968 -41.96 
L 423.563162 -41.96 
L 424.621357 -41.96 
L 425.679551 -41.96 
L 426.737746 -41.96 
L 427.795941 -41.96 
L 428.854135 -41.96 
L 429.91233 -41.96 
L 430.970524 -41.96 
L 432.028719 -41.96 
L 433.086913 -41.96 
L 434.145108 -41.96 
L 435.203303 -41.96 
L 436.261497 -41.96 
L 437.319692 -41.96 
L 438.377886 -41.96 
L 439.436081 -41.96 
L 440.494275 -41.96 
L 441.55247 -41.96 
L 442.610665 -41.96 
L 443.668859 -41.96 
L 444.727054 -41.96 
L 445.785248 -41.96 
L 446.843443 -41.96 
L 447.901638 -41.96 
L 448.959832 -41.96 
L 450.018027 -41.96 
L 451.076221 -41.96 
L 452.134416 -41.96 
L 453.19261 -41.96 
L 454.250805 -41.96 
L 455.309 -41.96 
L 456.367194 -41.96 
L 457.425389 -41.96 
L 458.483583 -41.96 
L 459.541778 -41.96 
L 460.599972 -41.96 
L 461.658167 -41.96 
L 462.716362 -41.96 
L 463.774556 -41.96 
L 464.832751 -41.96 
L 465.890945 -41.96 
L 466.94914 -41.96 
L 468.007334 -41.96 
L 469.065529 -41.96 
L 470.123724 -41.96 
L 471.181918 -41.96 
L 472.240113 -41.96 
L 473.298307 -41.96 
L 474.356502 -41.96 
L 475.414696 -41.96 
L 476.472891 -41.96 
L 477.531086 -41.96 
L 478.58928 -41.96 
L 479.647475 -41.96 
L 480.705669 -41.96 
L 481.763864 -41.96 
L 482.822058 -41.96 
L 483.880253 -41.96 
L 484.938448 -41.96 
L 485.996642 -41.96 
L 487.054837 -41.96 
L 488.113031 -41.96 
L 489.171226 -41.96 
L 490.229421 -41.96 
L 491.287615 -41.96 
L 492.34581 -41.96 
L 493.404004 -41.96 
L 494.462199 -41.96 
L 495.520393 -41.96 
L 496.578588 -41.96 
L 497.636783 -41.96 
L 498.694977 -41.96 
L 499.753172 -41.96 
L 500.811366 -41.96 
L 501.869561 -41.96 
L 502.927755 -41.96 
L 503.98595 -41.96 
L 505.044145 -41.96 
L 506.102339 -41.96 
L 507.160534 -41.96 
L 508.218728 -41.96 
L 509.276923 -41.96 
L 510.335117 -41.96 
L 511.393312 -41.96 
L 512.451507 -41.96 
L 513.509701 -41.96 
L 514.567896 -41.96 
L 515.62609 -41.96 
L 516.684285 -41.96 
L 517.742479 -41.96 
L 518.800674 -41.96 
L 519.858869 -41.96 
L 520.917063 -41.96 
L 521.975258 -41.96 
L 523.033452 -41.96 
L 524.091647 -41.96 
L 525.149841 -41.96 
L 526.208036 -41.96 
L 527.266231 -41.96 
L 528.324425 -41.96 
L 529.38262 -41.96 
L 530.440814 -41.96 
L 531.499009 -41.96 
L 532.557204 -41.96 
L 533.615398 -41.96 
L 534.673593 -41.96 
L 535.731787 -41.96 
L 536.789982 -41.96 
L 537.848176 -41.96 
L 538.906371 -41.96 
L 539.964566 -41.96 
L 541.02276 -41.96 
L 542.080955 -41.96 
L 543.139149 -41.96 
L 544.197344 -41.96 
L 545.255538 -41.96 
L 546.313733 -41.96 
L 547.371928 -41.96 
L 548.430122 -41.96 
L 549.488317 -41.96 
L 550.546511 -41.96 
L 551.604706 -41.96 
L 552.6629 -41.96 
L 553.721095 -41.96 
L 554.77929 -41.96 
L 555.837484 -41.96 
L 556.895679 -41.96 
L 557.953873 -41.96 
L 559.012068 -41.96 
L 560.070262 -41.96 
L 561.128457 -41.96 
L 562.186652 -41.96 
L 563.244846 -41.96 
L 564.303041 -41.96 
L 565.361235 -41.96 
L 566.41943 -41.96 
L 567.477624 -41.96 
L 568.535819 -41.96 
L 569.594014 -41.96 
L 570.652208 -41.96 
L 571.710403 -41.96 
L 572.768597 -41.96 
L 573.826792 -41.96 
L 574.884987 -41.96 
L 575.943181 -41.96 
L 577.001376 -41.96 
L 578.05957 -41.96 
L 579.117765 -41.96 
L 580.175959 -41.96 
L 581.234154 -41.96 
L 582.292349 -41.96 
L 583.350543 -41.96 
L 584.408738 -41.96 
L 585.466932 -41.96 
L 586.525127 -41.96 
L 587.583321 -41.96 
L 588.641516 -41.96 
L 589.699711 -41.96 
L 590.757905 -41.96 
L 591.8161 -41.96 
L 592.874294 -41.96 
L 593.932489 -41.96 
L 594.990683 -41.96 
L 596.048878 -41.96 
L 597.107073 -41.96 
L 598.165267 -41.96 
L 599.223462 -41.96 
L 600.281656 -41.96 
L 601.339851 -41.96 
L 602.398045 -41.96 
L 603.45624 -41.96 
L 604.514435 -41.96 
L 605.572629 -41.96 
L 606.630824 -41.96 
L 607.689018 -41.96 
L 608.747213 -41.96 
L 609.805408 -41.96 
L 610.863602 -41.96 
L 611.921797 -41.96 
L 612.979991 -41.96 
L 614.038186 -41.96 
L 615.09638 -41.96 
L 616.154575 -41.96 
L 617.21277 -41.96 
L 618.270964 -41.96 
L 619.329159 -41.96 
L 619.329159 -41.961984 
L 619.329159 -41.961984 
L 618.270964 -41.963739 
L 617.21277 -41.966749 
L 616.154575 -41.971671 
L 615.09638 -41.979342 
L 614.038186 -41.990735 
L 612.979991 -42.006853 
L 611.921797 -42.028575 
L 610.863602 -42.056461 
L 609.805408 -42.090589 
L 608.747213 -42.130464 
L 607.689018 -42.175071 
L 606.630824 -42.223086 
L 605.572629 -42.273208 
L 604.514435 -42.324494 
L 603.45624 -42.376563 
L 602.398045 -42.429541 
L 601.339851 -42.483699 
L 600.281656 -42.538873 
L 599.223462 -42.593863 
L 598.165267 -42.646085 
L 597.107073 -42.69167 
L 596.048878 -42.726101 
L 594.990683 -42.745237 
L 593.932489 -42.746443 
L 592.874294 -42.729463 
L 591.8161 -42.696737 
L 590.757905 -42.653065 
L 589.699711 -42.604712 
L 588.641516 -42.558226 
L 587.583321 -42.519339 
L 586.525127 -42.492236 
L 585.466932 -42.479371 
L 584.408738 -42.481787 
L 583.350543 -42.499754 
L 582.292349 -42.533412 
L 581.234154 -42.583144 
L 580.175959 -42.64949 
L 579.117765 -42.732621 
L 578.05957 -42.83156 
L 577.001376 -42.943478 
L 575.943181 -43.063377 
L 574.884987 -43.184362 
L 573.826792 -43.298519 
L 572.768597 -43.398201 
L 571.710403 -43.477411 
L 570.652208 -43.532921 
L 569.594014 -43.564851 
L 568.535819 -43.576586 
L 567.477624 -43.574044 
L 566.41943 -43.564464 
L 565.361235 -43.554972 
L 564.303041 -43.551236 
L 563.244846 -43.556493 
L 562.186652 -43.57118 
L 561.128457 -43.593291 
L 560.070262 -43.6194 
L 559.012068 -43.646145 
L 557.953873 -43.671806 
L 556.895679 -43.697551 
L 555.837484 -43.727953 
L 554.77929 -43.770518 
L 553.721095 -43.834207 
L 552.6629 -43.927191 
L 551.604706 -44.054337 
L 550.546511 -44.215028 
L 549.488317 -44.401964 
L 548.430122 -44.601342 
L 547.371928 -44.794551 
L 546.313733 -44.961078 
L 545.255538 -45.082014 
L 544.197344 -45.143365 
L 543.139149 -45.138398 
L 542.080955 -45.068534 
L 541.02276 -44.94266 
L 539.964566 -44.77516 
L 538.906371 -44.583202 
L 537.848176 -44.383976 
L 536.789982 -44.192433 
L 535.731787 -44.01989 
L 534.673593 -43.873569 
L 533.615398 -43.756923 
L 532.557204 -43.670456 
L 531.499009 -43.612721 
L 530.440814 -43.581228 
L 529.38262 -43.573089 
L 528.324425 -43.585355 
L 527.266231 -43.615077 
L 526.208036 -43.659202 
L 525.149841 -43.714439 
L 524.091647 -43.777192 
L 523.033452 -43.843624 
L 521.975258 -43.909825 
L 520.917063 -43.972036 
L 519.858869 -44.026828 
L 518.800674 -44.071203 
L 517.742479 -44.102601 
L 516.684285 -44.11889 
L 515.62609 -44.118405 
L 514.567896 -44.100119 
L 513.509701 -44.063941 
L 512.451507 -44.011085 
L 511.393312 -43.94439 
L 510.335117 -43.86844 
L 509.276923 -43.78938 
L 508.218728 -43.714426 
L 507.160534 -43.651132 
L 506.102339 -43.606597 
L 505.044145 -43.586824 
L 503.98595 -43.596355 
L 502.927755 -43.638257 
L 501.869561 -43.714352 
L 500.811366 -43.825516 
L 499.753172 -43.971838 
L 498.694977 -44.15251 
L 497.636783 -44.365418 
L 496.578588 -44.606581 
L 495.520393 -44.86966 
L 494.462199 -45.145758 
L 493.404004 -45.423685 
L 492.34581 -45.690702 
L 491.287615 -45.933633 
L 490.229421 -46.140151 
L 489.171226 -46.299972 
L 488.113031 -46.405806 
L 487.054837 -46.45392 
L 485.996642 -46.444338 
L 484.938448 -46.38072 
L 483.880253 -46.27 
L 482.822058 -46.121862 
L 481.763864 -45.948048 
L 480.705669 -45.761521 
L 479.647475 -45.57547 
L 478.58928 -45.40223 
L 477.531086 -45.252229 
L 476.472891 -45.133113 
L 475.414696 -45.04918 
L 474.356502 -45.001203 
L 473.298307 -44.986638 
L 472.240113 -45.000167 
L 471.181918 -45.034498 
L 470.123724 -45.081363 
L 469.065529 -45.132654 
L 468.007334 -45.181656 
L 466.94914 -45.224331 
L 465.890945 -45.260612 
L 464.832751 -45.295648 
L 463.774556 -45.341013 
L 462.716362 -45.415923 
L 461.658167 -45.548593 
L 460.599972 -45.778081 
L 459.541778 -46.157133 
L 458.483583 -46.75679 
L 457.425389 -47.673564 
L 456.367194 -49.039662 
L 455.309 -51.035863 
L 454.250805 -53.905138 
L 453.19261 -57.963117 
L 452.134416 -63.599519 
L 451.076221 -71.263356 
L 450.018027 -81.425056 
L 448.959832 -94.511322 
L 447.901638 -110.814104 
L 446.843443 -130.382929 
L 445.785248 -152.918633 
L 444.727054 -177.693678 
L 443.668859 -203.526605 
L 442.610665 -228.833194 
L 441.55247 -251.763754 
L 440.494275 -270.4164 
L 439.436081 -283.09506 
L 438.377886 -288.56453 
L 437.319692 -286.249369 
L 436.261497 -276.331953 
L 435.203303 -259.726364 
L 434.145108 -237.933351 
L 433.086913 -212.808839 
L 432.028719 -186.296399 
L 430.970524 -160.17787 
L 429.91233 -135.885968 
L 428.854135 -114.402792 
L 427.795941 -96.245646 
L 426.737746 -81.523129 
L 425.679551 -70.034189 
L 424.621357 -61.381493 
L 423.563162 -55.076057 
L 422.504968 -50.619069 
L 421.446773 -47.555885 
L 420.388579 -45.50416 
L 419.330384 -44.161929 
L 418.272189 -43.302652 
L 417.213995 -42.763528 
L 416.1558 -42.431717 
L 415.097606 -42.231351 
L 414.039411 -42.112711 
L 412.981217 -42.043919 
L 411.923022 -42.004934 
L 410.864827 -41.983392 
L 409.806633 -41.971814 
L 408.748438 -41.965777 
z
" style="stroke: #ff7c00"/>
    </defs>
    <g clip-path="url(#p8b30954af6)">
     <use xlink:href="#m3d157be8b9" x="0" y="432" style="fill: #ff7c00; fill-opacity: 0.25; stroke: #ff7c00"/>
    </g>
   </g>
   <g id="PolyCollection_5">
    <defs>
     <path id="m82e564a9c6" d="M 403.325455 -41.960154 
L 403.325455 -41.96 
L 404.789319 -41.96 
L 406.253184 -41.96 
L 407.717049 -41.96 
L 409.180914 -41.96 
L 410.644778 -41.96 
L 412.108643 -41.96 
L 413.572508 -41.96 
L 415.036373 -41.96 
L 416.500238 -41.96 
L 417.964102 -41.96 
L 419.427967 -41.96 
L 420.891832 -41.96 
L 422.355697 -41.96 
L 423.819561 -41.96 
L 425.283426 -41.96 
L 426.747291 -41.96 
L 428.211156 -41.96 
L 429.675021 -41.96 
L 431.138885 -41.96 
L 432.60275 -41.96 
L 434.066615 -41.96 
L 435.53048 -41.96 
L 436.994344 -41.96 
L 438.458209 -41.96 
L 439.922074 -41.96 
L 441.385939 -41.96 
L 442.849804 -41.96 
L 444.313668 -41.96 
L 445.777533 -41.96 
L 447.241398 -41.96 
L 448.705263 -41.96 
L 450.169127 -41.96 
L 451.632992 -41.96 
L 453.096857 -41.96 
L 454.560722 -41.96 
L 456.024587 -41.96 
L 457.488451 -41.96 
L 458.952316 -41.96 
L 460.416181 -41.96 
L 461.880046 -41.96 
L 463.34391 -41.96 
L 464.807775 -41.96 
L 466.27164 -41.96 
L 467.735505 -41.96 
L 469.19937 -41.96 
L 470.663234 -41.96 
L 472.127099 -41.96 
L 473.590964 -41.96 
L 475.054829 -41.96 
L 476.518693 -41.96 
L 477.982558 -41.96 
L 479.446423 -41.96 
L 480.910288 -41.96 
L 482.374153 -41.96 
L 483.838017 -41.96 
L 485.301882 -41.96 
L 486.765747 -41.96 
L 488.229612 -41.96 
L 489.693476 -41.96 
L 491.157341 -41.96 
L 492.621206 -41.96 
L 494.085071 -41.96 
L 495.548936 -41.96 
L 497.0128 -41.96 
L 498.476665 -41.96 
L 499.94053 -41.96 
L 501.404395 -41.96 
L 502.868259 -41.96 
L 504.332124 -41.96 
L 505.795989 -41.96 
L 507.259854 -41.96 
L 508.723719 -41.96 
L 510.187583 -41.96 
L 511.651448 -41.96 
L 513.115313 -41.96 
L 514.579178 -41.96 
L 516.043042 -41.96 
L 517.506907 -41.96 
L 518.970772 -41.96 
L 520.434637 -41.96 
L 521.898502 -41.96 
L 523.362366 -41.96 
L 524.826231 -41.96 
L 526.290096 -41.96 
L 527.753961 -41.96 
L 529.217825 -41.96 
L 530.68169 -41.96 
L 532.145555 -41.96 
L 533.60942 -41.96 
L 535.073285 -41.96 
L 536.537149 -41.96 
L 538.001014 -41.96 
L 539.464879 -41.96 
L 540.928744 -41.96 
L 542.392608 -41.96 
L 543.856473 -41.96 
L 545.320338 -41.96 
L 546.784203 -41.96 
L 548.248068 -41.96 
L 549.711932 -41.96 
L 551.175797 -41.96 
L 552.639662 -41.96 
L 554.103527 -41.96 
L 555.567392 -41.96 
L 557.031256 -41.96 
L 558.495121 -41.96 
L 559.958986 -41.96 
L 561.422851 -41.96 
L 562.886715 -41.96 
L 564.35058 -41.96 
L 565.814445 -41.96 
L 567.27831 -41.96 
L 568.742175 -41.96 
L 570.206039 -41.96 
L 571.669904 -41.96 
L 573.133769 -41.96 
L 574.597634 -41.96 
L 576.061498 -41.96 
L 577.525363 -41.96 
L 578.989228 -41.96 
L 580.453093 -41.96 
L 581.916958 -41.96 
L 583.380822 -41.96 
L 584.844687 -41.96 
L 586.308552 -41.96 
L 587.772417 -41.96 
L 589.236281 -41.96 
L 590.700146 -41.96 
L 592.164011 -41.96 
L 593.627876 -41.96 
L 595.091741 -41.96 
L 596.555605 -41.96 
L 598.01947 -41.96 
L 599.483335 -41.96 
L 600.9472 -41.96 
L 602.411064 -41.96 
L 603.874929 -41.96 
L 605.338794 -41.96 
L 606.802659 -41.96 
L 608.266524 -41.96 
L 609.730388 -41.96 
L 611.194253 -41.96 
L 612.658118 -41.96 
L 614.121983 -41.96 
L 615.585847 -41.96 
L 617.049712 -41.96 
L 618.513577 -41.96 
L 619.977442 -41.96 
L 621.441307 -41.96 
L 622.905171 -41.96 
L 624.369036 -41.96 
L 625.832901 -41.96 
L 627.296766 -41.96 
L 628.76063 -41.96 
L 630.224495 -41.96 
L 631.68836 -41.96 
L 633.152225 -41.96 
L 634.61609 -41.96 
L 636.079954 -41.96 
L 637.543819 -41.96 
L 639.007684 -41.96 
L 640.471549 -41.96 
L 641.935413 -41.96 
L 643.399278 -41.96 
L 644.863143 -41.96 
L 646.327008 -41.96 
L 647.790873 -41.96 
L 649.254737 -41.96 
L 650.718602 -41.96 
L 652.182467 -41.96 
L 653.646332 -41.96 
L 655.110196 -41.96 
L 656.574061 -41.96 
L 658.037926 -41.96 
L 659.501791 -41.96 
L 660.965656 -41.96 
L 662.42952 -41.96 
L 663.893385 -41.96 
L 665.35725 -41.96 
L 666.821115 -41.96 
L 668.284979 -41.96 
L 669.748844 -41.96 
L 671.212709 -41.96 
L 672.676574 -41.96 
L 674.140439 -41.96 
L 675.604303 -41.96 
L 677.068168 -41.96 
L 678.532033 -41.96 
L 679.995898 -41.96 
L 681.459762 -41.96 
L 682.923627 -41.96 
L 684.387492 -41.96 
L 685.851357 -41.96 
L 687.315222 -41.96 
L 688.779086 -41.96 
L 690.242951 -41.96 
L 691.706816 -41.96 
L 693.170681 -41.96 
L 694.634545 -41.96 
L 694.634545 -41.960095 
L 694.634545 -41.960095 
L 693.170681 -41.960425 
L 691.706816 -41.961405 
L 690.242951 -41.963434 
L 688.779086 -41.966204 
L 687.315222 -41.968282 
L 685.851357 -41.968171 
L 684.387492 -41.965958 
L 682.923627 -41.963211 
L 681.459762 -41.961279 
L 679.995898 -41.960376 
L 678.532033 -41.960083 
L 677.068168 -41.960023 
L 675.604303 -41.960068 
L 674.140439 -41.960347 
L 672.676574 -41.961357 
L 671.212709 -41.964013 
L 669.748844 -41.96914 
L 668.284979 -41.976553 
L 666.821115 -41.985241 
L 665.35725 -41.995007 
L 663.893385 -42.007157 
L 662.42952 -42.023062 
L 660.965656 -42.042603 
L 659.501791 -42.063514 
L 658.037926 -42.081413 
L 656.574061 -42.091121 
L 655.110196 -42.089805 
L 653.646332 -42.08031 
L 652.182467 -42.069837 
L 650.718602 -42.063516 
L 649.254737 -42.061166 
L 647.790873 -42.060941 
L 646.327008 -42.062761 
L 644.863143 -42.06749 
L 643.399278 -42.076674 
L 641.935413 -42.094226 
L 640.471549 -42.124269 
L 639.007684 -42.165159 
L 637.543819 -42.207935 
L 636.079954 -42.241889 
L 634.61609 -42.26142 
L 633.152225 -42.269609 
L 631.68836 -42.276169 
L 630.224495 -42.288147 
L 628.76063 -42.30156 
L 627.296766 -42.306589 
L 625.832901 -42.300407 
L 624.369036 -42.28986 
L 622.905171 -42.28504 
L 621.441307 -42.295368 
L 619.977442 -42.326348 
L 618.513577 -42.375964 
L 617.049712 -42.437893 
L 615.585847 -42.507572 
L 614.121983 -42.582472 
L 612.658118 -42.659553 
L 611.194253 -42.735773 
L 609.730388 -42.809502 
L 608.266524 -42.876582 
L 606.802659 -42.923752 
L 605.338794 -42.933437 
L 603.874929 -42.902266 
L 602.411064 -42.851434 
L 600.9472 -42.811184 
L 599.483335 -42.796263 
L 598.01947 -42.802622 
L 596.555605 -42.823682 
L 595.091741 -42.858637 
L 593.627876 -42.904714 
L 592.164011 -42.951757 
L 590.700146 -42.991154 
L 589.236281 -43.024221 
L 587.772417 -43.052484 
L 586.308552 -43.068567 
L 584.844687 -43.070735 
L 583.380822 -43.074796 
L 581.916958 -43.096326 
L 580.453093 -43.131192 
L 578.989228 -43.163769 
L 577.525363 -43.186278 
L 576.061498 -43.203156 
L 574.597634 -43.219268 
L 573.133769 -43.231365 
L 571.669904 -43.238759 
L 570.206039 -43.25651 
L 568.742175 -43.300261 
L 567.27831 -43.356425 
L 565.814445 -43.385625 
L 564.35058 -43.361497 
L 562.886715 -43.294146 
L 561.422851 -43.21647 
L 559.958986 -43.163501 
L 558.495121 -43.161058 
L 557.031256 -43.211459 
L 555.567392 -43.287013 
L 554.103527 -43.350214 
L 552.639662 -43.378651 
L 551.175797 -43.370683 
L 549.711932 -43.34329 
L 548.248068 -43.324099 
L 546.784203 -43.326682 
L 545.320338 -43.331538 
L 543.856473 -43.303706 
L 542.392608 -43.231747 
L 540.928744 -43.143166 
L 539.464879 -43.08094 
L 538.001014 -43.070713 
L 536.537149 -43.106573 
L 535.073285 -43.153387 
L 533.60942 -43.164574 
L 532.145555 -43.118846 
L 530.68169 -43.044397 
L 529.217825 -42.995352 
L 527.753961 -43.007046 
L 526.290096 -43.077206 
L 524.826231 -43.174255 
L 523.362366 -43.256033 
L 521.898502 -43.294856 
L 520.434637 -43.293104 
L 518.970772 -43.270478 
L 517.506907 -43.240538 
L 516.043042 -43.207454 
L 514.579178 -43.176149 
L 513.115313 -43.152139 
L 511.651448 -43.134087 
L 510.187583 -43.114446 
L 508.723719 -43.088305 
L 507.259854 -43.059511 
L 505.795989 -43.038903 
L 504.332124 -43.041025 
L 502.868259 -43.078147 
L 501.404395 -43.143811 
L 499.94053 -43.207239 
L 498.476665 -43.242757 
L 497.0128 -43.25912 
L 495.548936 -43.283114 
L 494.085071 -43.321396 
L 492.621206 -43.350727 
L 491.157341 -43.342545 
L 489.693476 -43.293963 
L 488.229612 -43.235048 
L 486.765747 -43.202424 
L 485.301882 -43.206212 
L 483.838017 -43.227685 
L 482.374153 -43.245218 
L 480.910288 -43.252623 
L 479.446423 -43.256091 
L 477.982558 -43.266719 
L 476.518693 -43.296439 
L 475.054829 -43.34889 
L 473.590964 -43.408968 
L 472.127099 -43.449473 
L 470.663234 -43.451922 
L 469.19937 -43.414873 
L 467.735505 -43.347415 
L 466.27164 -43.268311 
L 464.807775 -43.208167 
L 463.34391 -43.198342 
L 461.880046 -43.251645 
L 460.416181 -43.357183 
L 458.952316 -43.499085 
L 457.488451 -43.681948 
L 456.024587 -43.945805 
L 454.560722 -44.381221 
L 453.096857 -45.16362 
L 451.632992 -46.603881 
L 450.169127 -49.219123 
L 448.705263 -53.885045 
L 447.241398 -62.13168 
L 445.777533 -76.482166 
L 444.313668 -100.437488 
L 442.849804 -137.556324 
L 441.385939 -189.404689 
L 439.922074 -252.696209 
L 438.458209 -316.778197 
L 436.994344 -364.595664 
L 435.53048 -380.133916 
L 434.066615 -358.266019 
L 432.60275 -307.419796 
L 431.138885 -243.123121 
L 429.675021 -180.085559 
L 428.211156 -128.049419 
L 426.747291 -90.830557 
L 425.283426 -67.404769 
L 423.819561 -54.265586 
L 422.355697 -47.632155 
L 420.891832 -44.573619 
L 419.427967 -43.226168 
L 417.964102 -42.603757 
L 416.500238 -42.284259 
L 415.036373 -42.116046 
L 413.572508 -42.036172 
L 412.108643 -42.002749 
L 410.644778 -41.986901 
L 409.180914 -41.975759 
L 407.717049 -41.967491 
L 406.253184 -41.962732 
L 404.789319 -41.960751 
L 403.325455 -41.960154 
z
" style="stroke: #023eff"/>
    </defs>
    <g clip-path="url(#p8b30954af6)">
     <use xlink:href="#m82e564a9c6" x="0" y="432" style="fill: #023eff; fill-opacity: 0.25; stroke: #023eff"/>
    </g>
   </g>
   <g id="matplotlib.axis_3">
    <g id="xtick_9">
     <g id="line2d_16">
      <g>
       <use xlink:href="#m93955e543f" x="436.042445" y="390.04" style="stroke: #000000; stroke-width: 0.8"/>
      </g>
     </g>
     <g id="text_22">
      <!-- 0 -->
      <g transform="translate(432.861195 404.638438) scale(0.1 -0.1)">
       <use xlink:href="#DejaVuSans-30"/>
      </g>
     </g>
    </g>
    <g id="xtick_10">
     <g id="line2d_17">
      <g>
       <use xlink:href="#m93955e543f" x="505.511469" y="390.04" style="stroke: #000000; stroke-width: 0.8"/>
      </g>
     </g>
     <g id="text_23">
      <!-- 20 -->
      <g transform="translate(499.148969 404.638438) scale(0.1 -0.1)">
       <use xlink:href="#DejaVuSans-32"/>
       <use xlink:href="#DejaVuSans-30" x="63.623047"/>
      </g>
     </g>
    </g>
    <g id="xtick_11">
     <g id="line2d_18">
      <g>
       <use xlink:href="#m93955e543f" x="574.980494" y="390.04" style="stroke: #000000; stroke-width: 0.8"/>
      </g>
     </g>
     <g id="text_24">
      <!-- 40 -->
      <g transform="translate(568.617994 404.638438) scale(0.1 -0.1)">
       <defs>
        <path id="DejaVuSans-34" d="M 2419 4116 
L 825 1625 
L 2419 1625 
L 2419 4116 
z
M 2253 4666 
L 3047 4666 
L 3047 1625 
L 3713 1625 
L 3713 1100 
L 3047 1100 
L 3047 0 
L 2419 0 
L 2419 1100 
L 313 1100 
L 313 1709 
L 2253 4666 
z
" transform="scale(0.015625)"/>
       </defs>
       <use xlink:href="#DejaVuSans-34"/>
       <use xlink:href="#DejaVuSans-30" x="63.623047"/>
      </g>
     </g>
    </g>
    <g id="xtick_12">
     <g id="line2d_19">
      <g>
       <use xlink:href="#m93955e543f" x="644.449518" y="390.04" style="stroke: #000000; stroke-width: 0.8"/>
      </g>
     </g>
     <g id="text_25">
      <!-- 60 -->
      <g transform="translate(638.087018 404.638438) scale(0.1 -0.1)">
       <defs>
        <path id="DejaVuSans-36" d="M 2113 2584 
Q 1688 2584 1439 2293 
Q 1191 2003 1191 1497 
Q 1191 994 1439 701 
Q 1688 409 2113 409 
Q 2538 409 2786 701 
Q 3034 994 3034 1497 
Q 3034 2003 2786 2293 
Q 2538 2584 2113 2584 
z
M 3366 4563 
L 3366 3988 
Q 3128 4100 2886 4159 
Q 2644 4219 2406 4219 
Q 1781 4219 1451 3797 
Q 1122 3375 1075 2522 
Q 1259 2794 1537 2939 
Q 1816 3084 2150 3084 
Q 2853 3084 3261 2657 
Q 3669 2231 3669 1497 
Q 3669 778 3244 343 
Q 2819 -91 2113 -91 
Q 1303 -91 875 529 
Q 447 1150 447 2328 
Q 447 3434 972 4092 
Q 1497 4750 2381 4750 
Q 2619 4750 2861 4703 
Q 3103 4656 3366 4563 
z
" transform="scale(0.015625)"/>
       </defs>
       <use xlink:href="#DejaVuSans-36"/>
       <use xlink:href="#DejaVuSans-30" x="63.623047"/>
      </g>
     </g>
    </g>
    <g id="text_26">
     <!-- LapTimeDiff -->
     <g transform="translate(518.962812 418.316562) scale(0.1 -0.1)">
      <use xlink:href="#DejaVuSans-4c"/>
      <use xlink:href="#DejaVuSans-61" x="55.712891"/>
      <use xlink:href="#DejaVuSans-70" x="116.992188"/>
      <use xlink:href="#DejaVuSans-54" x="180.46875"/>
      <use xlink:href="#DejaVuSans-69" x="238.427734"/>
      <use xlink:href="#DejaVuSans-6d" x="266.210938"/>
      <use xlink:href="#DejaVuSans-65" x="363.623047"/>
      <use xlink:href="#DejaVuSans-44" x="425.146484"/>
      <use xlink:href="#DejaVuSans-69" x="502.148438"/>
      <use xlink:href="#DejaVuSans-66" x="529.931641"/>
      <use xlink:href="#DejaVuSans-66" x="565.136719"/>
     </g>
    </g>
   </g>
   <g id="matplotlib.axis_4">
    <g id="ytick_8">
     <g id="line2d_20">
      <g>
       <use xlink:href="#m06103308df" x="388.76" y="390.04" style="stroke: #000000; stroke-width: 0.8"/>
      </g>
     </g>
    </g>
    <g id="ytick_9">
     <g id="line2d_21">
      <g>
       <use xlink:href="#m06103308df" x="388.76" y="331.527419" style="stroke: #000000; stroke-width: 0.8"/>
      </g>
     </g>
    </g>
    <g id="ytick_10">
     <g id="line2d_22">
      <g>
       <use xlink:href="#m06103308df" x="388.76" y="273.014839" style="stroke: #000000; stroke-width: 0.8"/>
      </g>
     </g>
    </g>
    <g id="ytick_11">
     <g id="line2d_23">
      <g>
       <use xlink:href="#m06103308df" x="388.76" y="214.502258" style="stroke: #000000; stroke-width: 0.8"/>
      </g>
     </g>
    </g>
    <g id="ytick_12">
     <g id="line2d_24">
      <g>
       <use xlink:href="#m06103308df" x="388.76" y="155.989677" style="stroke: #000000; stroke-width: 0.8"/>
      </g>
     </g>
    </g>
    <g id="ytick_13">
     <g id="line2d_25">
      <g>
       <use xlink:href="#m06103308df" x="388.76" y="97.477097" style="stroke: #000000; stroke-width: 0.8"/>
      </g>
     </g>
    </g>
    <g id="ytick_14">
     <g id="line2d_26">
      <g>
       <use xlink:href="#m06103308df" x="388.76" y="38.964516" style="stroke: #000000; stroke-width: 0.8"/>
      </g>
     </g>
    </g>
   </g>
   <g id="patch_12">
    <path d="M 388.76 390.04 
L 388.76 34.957389 
" style="fill: none; stroke: #000000; stroke-width: 0.8; stroke-linejoin: miter; stroke-linecap: square"/>
   </g>
   <g id="patch_13">
    <path d="M 709.2 390.04 
L 709.2 34.957389 
" style="fill: none; stroke: #000000; stroke-width: 0.8; stroke-linejoin: miter; stroke-linecap: square"/>
   </g>
   <g id="patch_14">
    <path d="M 388.76 390.04 
L 709.2 390.04 
" style="fill: none; stroke: #000000; stroke-width: 0.8; stroke-linejoin: miter; stroke-linecap: square"/>
   </g>
   <g id="patch_15">
    <path d="M 388.76 34.957389 
L 709.2 34.957389 
" style="fill: none; stroke: #000000; stroke-width: 0.8; stroke-linejoin: miter; stroke-linecap: square"/>
   </g>
   <g id="legend_2">
    <g id="patch_16">
     <path d="M 645.092187 87.269889 
L 702.2 87.269889 
Q 704.2 87.269889 704.2 85.269889 
L 704.2 41.957389 
Q 704.2 39.957389 702.2 39.957389 
L 645.092187 39.957389 
Q 643.092187 39.957389 643.092187 41.957389 
L 643.092187 85.269889 
Q 643.092187 87.269889 645.092187 87.269889 
z
" style="fill: #ffffff; opacity: 0.8; stroke: #cccccc; stroke-linejoin: miter"/>
    </g>
    <g id="text_27">
     <!-- is_pitting -->
     <g transform="translate(650.936719 51.555826) scale(0.1 -0.1)">
      <defs>
       <path id="DejaVuSans-5f" d="M 3263 -1063 
L 3263 -1509 
L -63 -1509 
L -63 -1063 
L 3263 -1063 
z
" transform="scale(0.015625)"/>
       <path id="DejaVuSans-67" d="M 2906 1791 
Q 2906 2416 2648 2759 
Q 2391 3103 1925 3103 
Q 1463 3103 1205 2759 
Q 947 2416 947 1791 
Q 947 1169 1205 825 
Q 1463 481 1925 481 
Q 2391 481 2648 825 
Q 2906 1169 2906 1791 
z
M 3481 434 
Q 3481 -459 3084 -895 
Q 2688 -1331 1869 -1331 
Q 1566 -1331 1297 -1286 
Q 1028 -1241 775 -1147 
L 775 -588 
Q 1028 -725 1275 -790 
Q 1522 -856 1778 -856 
Q 2344 -856 2625 -561 
Q 2906 -266 2906 331 
L 2906 616 
Q 2728 306 2450 153 
Q 2172 0 1784 0 
Q 1141 0 747 490 
Q 353 981 353 1791 
Q 353 2603 747 3093 
Q 1141 3584 1784 3584 
Q 2172 3584 2450 3431 
Q 2728 3278 2906 2969 
L 2906 3500 
L 3481 3500 
L 3481 434 
z
" transform="scale(0.015625)"/>
      </defs>
      <use xlink:href="#DejaVuSans-69"/>
      <use xlink:href="#DejaVuSans-73" x="27.783203"/>
      <use xlink:href="#DejaVuSans-5f" x="79.882812"/>
      <use xlink:href="#DejaVuSans-70" x="129.882812"/>
      <use xlink:href="#DejaVuSans-69" x="193.359375"/>
      <use xlink:href="#DejaVuSans-74" x="221.142578"/>
      <use xlink:href="#DejaVuSans-74" x="260.351562"/>
      <use xlink:href="#DejaVuSans-69" x="299.560547"/>
      <use xlink:href="#DejaVuSans-6e" x="327.34375"/>
      <use xlink:href="#DejaVuSans-67" x="390.722656"/>
     </g>
    </g>
    <g id="patch_17">
     <path d="M 647.092187 66.512076 
L 667.092187 66.512076 
L 667.092187 59.512076 
L 647.092187 59.512076 
z
" style="fill: #023eff; fill-opacity: 0.25; stroke: #023eff; stroke-linejoin: miter"/>
    </g>
    <g id="text_28">
     <!-- False -->
     <g transform="translate(675.092187 66.512076) scale(0.1 -0.1)">
      <defs>
       <path id="DejaVuSans-46" d="M 628 4666 
L 3309 4666 
L 3309 4134 
L 1259 4134 
L 1259 2759 
L 3109 2759 
L 3109 2228 
L 1259 2228 
L 1259 0 
L 628 0 
L 628 4666 
z
" transform="scale(0.015625)"/>
       <path id="DejaVuSans-6c" d="M 603 4863 
L 1178 4863 
L 1178 0 
L 603 0 
L 603 4863 
z
" transform="scale(0.015625)"/>
      </defs>
      <use xlink:href="#DejaVuSans-46"/>
      <use xlink:href="#DejaVuSans-61" x="48.394531"/>
      <use xlink:href="#DejaVuSans-6c" x="109.673828"/>
      <use xlink:href="#DejaVuSans-73" x="137.457031"/>
      <use xlink:href="#DejaVuSans-65" x="189.556641"/>
     </g>
    </g>
    <g id="patch_18">
     <path d="M 647.092187 81.190201 
L 667.092187 81.190201 
L 667.092187 74.190201 
L 647.092187 74.190201 
z
" style="fill: #ff7c00; fill-opacity: 0.25; stroke: #ff7c00; stroke-linejoin: miter"/>
    </g>
    <g id="text_29">
     <!-- True -->
     <g transform="translate(675.092187 81.190201) scale(0.1 -0.1)">
      <defs>
       <path id="DejaVuSans-72" d="M 2631 2963 
Q 2534 3019 2420 3045 
Q 2306 3072 2169 3072 
Q 1681 3072 1420 2755 
Q 1159 2438 1159 1844 
L 1159 0 
L 581 0 
L 581 3500 
L 1159 3500 
L 1159 2956 
Q 1341 3275 1631 3429 
Q 1922 3584 2338 3584 
Q 2397 3584 2469 3576 
Q 2541 3569 2628 3553 
L 2631 2963 
z
" transform="scale(0.015625)"/>
      </defs>
      <use xlink:href="#DejaVuSans-54"/>
      <use xlink:href="#DejaVuSans-72" x="46.333984"/>
      <use xlink:href="#DejaVuSans-75" x="87.447266"/>
      <use xlink:href="#DejaVuSans-65" x="150.826172"/>
     </g>
    </g>
   </g>
  </g>
  <g id="text_30">
   <!-- Lap time distribution by pit status and is_pitting -->
   <g transform="translate(215.912813 17.758125) scale(0.12 -0.12)">
    <defs>
     <path id="DejaVuSans-20" transform="scale(0.015625)"/>
     <path id="DejaVuSans-64" d="M 2906 2969 
L 2906 4863 
L 3481 4863 
L 3481 0 
L 2906 0 
L 2906 525 
Q 2725 213 2448 61 
Q 2172 -91 1784 -91 
Q 1150 -91 751 415 
Q 353 922 353 1747 
Q 353 2572 751 3078 
Q 1150 3584 1784 3584 
Q 2172 3584 2448 3432 
Q 2725 3281 2906 2969 
z
M 947 1747 
Q 947 1113 1208 752 
Q 1469 391 1925 391 
Q 2381 391 2643 752 
Q 2906 1113 2906 1747 
Q 2906 2381 2643 2742 
Q 2381 3103 1925 3103 
Q 1469 3103 1208 2742 
Q 947 2381 947 1747 
z
" transform="scale(0.015625)"/>
     <path id="DejaVuSans-62" d="M 3116 1747 
Q 3116 2381 2855 2742 
Q 2594 3103 2138 3103 
Q 1681 3103 1420 2742 
Q 1159 2381 1159 1747 
Q 1159 1113 1420 752 
Q 1681 391 2138 391 
Q 2594 391 2855 752 
Q 3116 1113 3116 1747 
z
M 1159 2969 
Q 1341 3281 1617 3432 
Q 1894 3584 2278 3584 
Q 2916 3584 3314 3078 
Q 3713 2572 3713 1747 
Q 3713 922 3314 415 
Q 2916 -91 2278 -91 
Q 1894 -91 1617 61 
Q 1341 213 1159 525 
L 1159 0 
L 581 0 
L 581 4863 
L 1159 4863 
L 1159 2969 
z
" transform="scale(0.015625)"/>
    </defs>
    <use xlink:href="#DejaVuSans-4c"/>
    <use xlink:href="#DejaVuSans-61" x="55.712891"/>
    <use xlink:href="#DejaVuSans-70" x="116.992188"/>
    <use xlink:href="#DejaVuSans-20" x="180.46875"/>
    <use xlink:href="#DejaVuSans-74" x="212.255859"/>
    <use xlink:href="#DejaVuSans-69" x="251.464844"/>
    <use xlink:href="#DejaVuSans-6d" x="279.248047"/>
    <use xlink:href="#DejaVuSans-65" x="376.660156"/>
    <use xlink:href="#DejaVuSans-20" x="438.183594"/>
    <use xlink:href="#DejaVuSans-64" x="469.970703"/>
    <use xlink:href="#DejaVuSans-69" x="533.447266"/>
    <use xlink:href="#DejaVuSans-73" x="561.230469"/>
    <use xlink:href="#DejaVuSans-74" x="613.330078"/>
    <use xlink:href="#DejaVuSans-72" x="652.539062"/>
    <use xlink:href="#DejaVuSans-69" x="693.652344"/>
    <use xlink:href="#DejaVuSans-62" x="721.435547"/>
    <use xlink:href="#DejaVuSans-75" x="784.912109"/>
    <use xlink:href="#DejaVuSans-74" x="848.291016"/>
    <use xlink:href="#DejaVuSans-69" x="887.5"/>
    <use xlink:href="#DejaVuSans-6f" x="915.283203"/>
    <use xlink:href="#DejaVuSans-6e" x="976.464844"/>
    <use xlink:href="#DejaVuSans-20" x="1039.84375"/>
    <use xlink:href="#DejaVuSans-62" x="1071.630859"/>
    <use xlink:href="#DejaVuSans-79" x="1135.107422"/>
    <use xlink:href="#DejaVuSans-20" x="1194.287109"/>
    <use xlink:href="#DejaVuSans-70" x="1226.074219"/>
    <use xlink:href="#DejaVuSans-69" x="1289.550781"/>
    <use xlink:href="#DejaVuSans-74" x="1317.333984"/>
    <use xlink:href="#DejaVuSans-20" x="1356.542969"/>
    <use xlink:href="#DejaVuSans-73" x="1388.330078"/>
    <use xlink:href="#DejaVuSans-74" x="1440.429688"/>
    <use xlink:href="#DejaVuSans-61" x="1479.638672"/>
    <use xlink:href="#DejaVuSans-74" x="1540.917969"/>
    <use xlink:href="#DejaVuSans-75" x="1580.126953"/>
    <use xlink:href="#DejaVuSans-73" x="1643.505859"/>
    <use xlink:href="#DejaVuSans-20" x="1695.605469"/>
    <use xlink:href="#DejaVuSans-61" x="1727.392578"/>
    <use xlink:href="#DejaVuSans-6e" x="1788.671875"/>
    <use xlink:href="#DejaVuSans-64" x="1852.050781"/>
    <use xlink:href="#DejaVuSans-20" x="1915.527344"/>
    <use xlink:href="#DejaVuSans-69" x="1947.314453"/>
    <use xlink:href="#DejaVuSans-73" x="1975.097656"/>
    <use xlink:href="#DejaVuSans-5f" x="2027.197266"/>
    <use xlink:href="#DejaVuSans-70" x="2077.197266"/>
    <use xlink:href="#DejaVuSans-69" x="2140.673828"/>
    <use xlink:href="#DejaVuSans-74" x="2168.457031"/>
    <use xlink:href="#DejaVuSans-74" x="2207.666016"/>
    <use xlink:href="#DejaVuSans-69" x="2246.875"/>
    <use xlink:href="#DejaVuSans-6e" x="2274.658203"/>
    <use xlink:href="#DejaVuSans-67" x="2338.037109"/>
   </g>
  </g>
 </g>
 <defs>
  <clipPath id="pbeef231d51">
   <rect x="54.02" y="34.957389" width="320.44" height="355.082611"/>
  </clipPath>
  <clipPath id="p8b30954af6">
   <rect x="388.76" y="34.957389" width="320.44" height="355.082611"/>
  </clipPath>
 </defs>
</svg>
