<?xml version="1.0" encoding="utf-8" standalone="no"?>
<!DOCTYPE svg PUBLIC "-//W3C//DTD SVG 1.1//EN"
  "http://www.w3.org/Graphics/SVG/1.1/DTD/svg11.dtd">
<svg xmlns:xlink="http://www.w3.org/1999/xlink" width="720pt" height="360pt" viewBox="0 0 720 360" xmlns="http://www.w3.org/2000/svg" version="1.1">
 <metadata>
  <rdf:RDF xmlns:dc="http://purl.org/dc/elements/1.1/" xmlns:cc="http://creativecommons.org/ns#" xmlns:rdf="http://www.w3.org/1999/02/22-rdf-syntax-ns#">
   <cc:Work>
    <dc:type rdf:resource="http://purl.org/dc/dcmitype/StillImage"/>
    <dc:date>2023-05-26T17:41:58.438050</dc:date>
    <dc:format>image/svg+xml</dc:format>
    <dc:creator>
     <cc:Agent>
      <dc:title>Matplotlib v3.6.2, https://matplotlib.org/</dc:title>
     </cc:Agent>
    </dc:creator>
   </cc:Work>
  </rdf:RDF>
 </metadata>
 <defs>
  <style type="text/css">*{stroke-linejoin: round; stroke-linecap: butt}</style>
 </defs>
 <g id="figure_1">
  <g id="patch_1">
   <path d="M 0 360 
L 720 360 
L 720 0 
L 0 0 
z
" style="fill: #ffffff"/>
  </g>
  <g id="axes_1">
   <g id="patch_2">
    <path d="M 90 320.4 
L 648 320.4 
L 648 43.2 
L 90 43.2 
z
" style="fill: #ffffff"/>
   </g>
   <g id="patch_3">
    <path d="M 91.594286 320.4 
L 97.971429 320.4 
L 97.971429 193.176813 
L 91.594286 193.176813 
z
" clip-path="url(#pb36827e7c1)" style="fill: #3274a1"/>
   </g>
   <g id="patch_4">
    <path d="M 107.537143 320.4 
L 113.914286 320.4 
L 113.914286 276.003733 
L 107.537143 276.003733 
z
" clip-path="url(#pb36827e7c1)" style="fill: #3274a1"/>
   </g>
   <g id="patch_5">
    <path d="M 123.48 320.4 
L 129.857143 320.4 
L 129.857143 198.623678 
L 123.48 198.623678 
z
" clip-path="url(#pb36827e7c1)" style="fill: #3274a1"/>
   </g>
   <g id="patch_6">
    <path d="M 139.422857 320.4 
L 145.8 320.4 
L 145.8 212.6299 
L 139.422857 212.6299 
z
" clip-path="url(#pb36827e7c1)" style="fill: #3274a1"/>
   </g>
   <g id="patch_7">
    <path d="M 155.365714 320.4 
L 161.742857 320.4 
L 161.742857 270.427182 
L 155.365714 270.427182 
z
" clip-path="url(#pb36827e7c1)" style="fill: #3274a1"/>
   </g>
   <g id="patch_8">
    <path d="M 171.308571 320.4 
L 177.685714 320.4 
L 177.685714 115.494154 
L 171.308571 115.494154 
z
" clip-path="url(#pb36827e7c1)" style="fill: #3274a1"/>
   </g>
   <g id="patch_9">
    <path d="M 187.251429 320.4 
L 193.628571 320.4 
L 193.628571 279.159456 
L 187.251429 279.159456 
z
" clip-path="url(#pb36827e7c1)" style="fill: #3274a1"/>
   </g>
   <g id="patch_10">
    <path d="M 203.194286 320.4 
L 209.571429 320.4 
L 209.571429 182.585689 
L 203.194286 182.585689 
z
" clip-path="url(#pb36827e7c1)" style="fill: #3274a1"/>
   </g>
   <g id="patch_11">
    <path d="M 219.137143 320.4 
L 225.514286 320.4 
L 225.514286 228.667889 
L 219.137143 228.667889 
z
" clip-path="url(#pb36827e7c1)" style="fill: #3274a1"/>
   </g>
   <g id="patch_12">
    <path d="M 235.08 320.4 
L 241.457143 320.4 
L 241.457143 258.539185 
L 235.08 258.539185 
z
" clip-path="url(#pb36827e7c1)" style="fill: #3274a1"/>
   </g>
   <g id="patch_13">
    <path d="M 251.022857 320.4 
L 257.4 320.4 
L 257.4 194.992435 
L 251.022857 194.992435 
z
" clip-path="url(#pb36827e7c1)" style="fill: #3274a1"/>
   </g>
   <g id="patch_14">
    <path d="M 266.965714 320.4 
L 273.342857 320.4 
L 273.342857 243.063173 
L 266.965714 243.063173 
z
" clip-path="url(#pb36827e7c1)" style="fill: #3274a1"/>
   </g>
   <g id="patch_15">
    <path d="M 282.908571 320.4 
L 289.285714 320.4 
L 289.285714 234.719961 
L 282.908571 234.719961 
z
" clip-path="url(#pb36827e7c1)" style="fill: #3274a1"/>
   </g>
   <g id="patch_16">
    <path d="M 298.851429 320.4 
L 305.228571 320.4 
L 305.228571 153.233142 
L 298.851429 153.233142 
z
" clip-path="url(#pb36827e7c1)" style="fill: #3274a1"/>
   </g>
   <g id="patch_17">
    <path d="M 314.794286 320.4 
L 321.171429 320.4 
L 321.171429 278.294875 
L 314.794286 278.294875 
z
" clip-path="url(#pb36827e7c1)" style="fill: #3274a1"/>
   </g>
   <g id="patch_18">
    <path d="M 330.737143 320.4 
L 337.114286 320.4 
L 337.114286 272.761552 
L 330.737143 272.761552 
z
" clip-path="url(#pb36827e7c1)" style="fill: #3274a1"/>
   </g>
   <g id="patch_19">
    <path d="M 346.68 320.4 
L 353.057143 320.4 
L 353.057143 198.321074 
L 346.68 198.321074 
z
" clip-path="url(#pb36827e7c1)" style="fill: #3274a1"/>
   </g>
   <g id="patch_20">
    <path d="M 362.622857 320.4 
L 369 320.4 
L 369 163.910725 
L 362.622857 163.910725 
z
" clip-path="url(#pb36827e7c1)" style="fill: #3274a1"/>
   </g>
   <g id="patch_21">
    <path d="M 378.565714 320.4 
L 384.942857 320.4 
L 384.942857 265.715212 
L 378.565714 265.715212 
z
" clip-path="url(#pb36827e7c1)" style="fill: #3274a1"/>
   </g>
   <g id="patch_22">
    <path d="M 394.508571 320.4 
L 400.885714 320.4 
L 400.885714 268.136041 
L 394.508571 268.136041 
z
" clip-path="url(#pb36827e7c1)" style="fill: #3274a1"/>
   </g>
   <g id="patch_23">
    <path d="M 410.451429 320.4 
L 416.828571 320.4 
L 416.828571 168.276863 
L 410.451429 168.276863 
z
" clip-path="url(#pb36827e7c1)" style="fill: #3274a1"/>
   </g>
   <g id="patch_24">
    <path d="M 426.394286 320.4 
L 432.771429 320.4 
L 432.771429 291.479745 
L 426.394286 291.479745 
z
" clip-path="url(#pb36827e7c1)" style="fill: #3274a1"/>
   </g>
   <g id="patch_25">
    <path d="M 442.337143 320.4 
L 448.714286 320.4 
L 448.714286 279.116227 
L 442.337143 279.116227 
z
" clip-path="url(#pb36827e7c1)" style="fill: #3274a1"/>
   </g>
   <g id="patch_26">
    <path d="M 458.28 320.4 
L 464.657143 320.4 
L 464.657143 215.742394 
L 458.28 215.742394 
z
" clip-path="url(#pb36827e7c1)" style="fill: #3274a1"/>
   </g>
   <g id="patch_27">
    <path d="M 474.222857 320.4 
L 480.6 320.4 
L 480.6 87.43848 
L 474.222857 87.43848 
z
" clip-path="url(#pb36827e7c1)" style="fill: #3274a1"/>
   </g>
   <g id="patch_28">
    <path d="M 490.165714 320.4 
L 496.542857 320.4 
L 496.542857 277.689668 
L 490.165714 277.689668 
z
" clip-path="url(#pb36827e7c1)" style="fill: #3274a1"/>
   </g>
   <g id="patch_29">
    <path d="M 506.108571 320.4 
L 512.485714 320.4 
L 512.485714 138.794629 
L 506.108571 138.794629 
z
" clip-path="url(#pb36827e7c1)" style="fill: #3274a1"/>
   </g>
   <g id="patch_30">
    <path d="M 522.051429 320.4 
L 528.428571 320.4 
L 528.428571 207.91793 
L 522.051429 207.91793 
z
" clip-path="url(#pb36827e7c1)" style="fill: #3274a1"/>
   </g>
   <g id="patch_31">
    <path d="M 537.994286 320.4 
L 544.371429 320.4 
L 544.371429 261.521991 
L 537.994286 261.521991 
z
" clip-path="url(#pb36827e7c1)" style="fill: #3274a1"/>
   </g>
   <g id="patch_32">
    <path d="M 553.937143 320.4 
L 560.314286 320.4 
L 560.314286 290.355788 
L 553.937143 290.355788 
z
" clip-path="url(#pb36827e7c1)" style="fill: #3274a1"/>
   </g>
   <g id="patch_33">
    <path d="M 569.88 320.4 
L 576.257143 320.4 
L 576.257143 56.4 
L 569.88 56.4 
z
" clip-path="url(#pb36827e7c1)" style="fill: #3274a1"/>
   </g>
   <g id="patch_34">
    <path d="M 585.822857 320.4 
L 592.2 320.4 
L 592.2 262.386573 
L 585.822857 262.386573 
z
" clip-path="url(#pb36827e7c1)" style="fill: #3274a1"/>
   </g>
   <g id="patch_35">
    <path d="M 601.765714 320.4 
L 608.142857 320.4 
L 608.142857 156.64824 
L 601.765714 156.64824 
z
" clip-path="url(#pb36827e7c1)" style="fill: #3274a1"/>
   </g>
   <g id="patch_36">
    <path d="M 617.708571 320.4 
L 624.085714 320.4 
L 624.085714 274.490716 
L 617.708571 274.490716 
z
" clip-path="url(#pb36827e7c1)" style="fill: #3274a1"/>
   </g>
   <g id="patch_37">
    <path d="M 633.651429 320.4 
L 640.028571 320.4 
L 640.028571 207.399181 
L 633.651429 207.399181 
z
" clip-path="url(#pb36827e7c1)" style="fill: #3274a1"/>
   </g>
   <g id="patch_38">
    <path d="M 97.971429 320.4 
L 104.348571 320.4 
L 104.348571 316.941673 
L 97.971429 316.941673 
z
" clip-path="url(#pb36827e7c1)" style="fill: #e1812c"/>
   </g>
   <g id="patch_39">
    <path d="M 113.914286 320.4 
L 120.291429 320.4 
L 120.291429 319.146357 
L 113.914286 319.146357 
z
" clip-path="url(#pb36827e7c1)" style="fill: #e1812c"/>
   </g>
   <g id="patch_40">
    <path d="M 129.857143 320.4 
L 136.234286 320.4 
L 136.234286 315.601572 
L 129.857143 315.601572 
z
" clip-path="url(#pb36827e7c1)" style="fill: #e1812c"/>
   </g>
   <g id="patch_41">
    <path d="M 145.8 320.4 
L 152.177143 320.4 
L 152.177143 316.422925 
L 145.8 316.422925 
z
" clip-path="url(#pb36827e7c1)" style="fill: #e1812c"/>
   </g>
   <g id="patch_42">
    <path d="M 161.742857 320.4 
L 168.12 320.4 
L 168.12 318.108859 
L 161.742857 318.108859 
z
" clip-path="url(#pb36827e7c1)" style="fill: #e1812c"/>
   </g>
   <g id="patch_43">
    <path d="M 177.685714 320.4 
L 184.062857 320.4 
L 184.062857 314.823449 
L 177.685714 314.823449 
z
" clip-path="url(#pb36827e7c1)" style="fill: #e1812c"/>
   </g>
   <g id="patch_44">
    <path d="M 193.628571 320.4 
L 200.005714 320.4 
L 200.005714 317.11459 
L 193.628571 317.11459 
z
" clip-path="url(#pb36827e7c1)" style="fill: #e1812c"/>
   </g>
   <g id="patch_45">
    <path d="M 209.571429 320.4 
L 215.948571 320.4 
L 215.948571 316.16355 
L 209.571429 316.16355 
z
" clip-path="url(#pb36827e7c1)" style="fill: #e1812c"/>
   </g>
   <g id="patch_46">
    <path d="M 225.514286 320.4 
L 231.891429 320.4 
L 231.891429 317.892713 
L 225.514286 317.892713 
z
" clip-path="url(#pb36827e7c1)" style="fill: #e1812c"/>
   </g>
   <g id="patch_47">
    <path d="M 241.457143 320.4 
L 247.834286 320.4 
L 247.834286 319.059898 
L 241.457143 319.059898 
z
" clip-path="url(#pb36827e7c1)" style="fill: #e1812c"/>
   </g>
   <g id="patch_48">
    <path d="M 257.4 320.4 
L 263.777143 320.4 
L 263.777143 317.460422 
L 257.4 317.460422 
z
" clip-path="url(#pb36827e7c1)" style="fill: #e1812c"/>
   </g>
   <g id="patch_49">
    <path d="M 273.342857 320.4 
L 279.72 320.4 
L 279.72 318.54115 
L 273.342857 318.54115 
z
" clip-path="url(#pb36827e7c1)" style="fill: #e1812c"/>
   </g>
   <g id="patch_50">
    <path d="M 289.285714 320.4 
L 295.662857 320.4 
L 295.662857 318.627608 
L 289.285714 318.627608 
z
" clip-path="url(#pb36827e7c1)" style="fill: #e1812c"/>
   </g>
   <g id="patch_51">
    <path d="M 305.228571 320.4 
L 311.605714 320.4 
L 311.605714 317.11459 
L 305.228571 317.11459 
z
" clip-path="url(#pb36827e7c1)" style="fill: #e1812c"/>
   </g>
   <g id="patch_52">
    <path d="M 321.171429 320.4 
L 327.548571 320.4 
L 327.548571 319.232815 
L 321.171429 319.232815 
z
" clip-path="url(#pb36827e7c1)" style="fill: #e1812c"/>
   </g>
   <g id="patch_53">
    <path d="M 337.114286 320.4 
L 343.491429 320.4 
L 343.491429 319.103128 
L 337.114286 319.103128 
z
" clip-path="url(#pb36827e7c1)" style="fill: #e1812c"/>
   </g>
   <g id="patch_54">
    <path d="M 353.057143 320.4 
L 359.434286 320.4 
L 359.434286 318.627608 
L 353.057143 318.627608 
z
" clip-path="url(#pb36827e7c1)" style="fill: #e1812c"/>
   </g>
   <g id="patch_55">
    <path d="M 369 320.4 
L 375.377143 320.4 
L 375.377143 315.644801 
L 369 315.644801 
z
" clip-path="url(#pb36827e7c1)" style="fill: #e1812c"/>
   </g>
   <g id="patch_56">
    <path d="M 384.942857 320.4 
L 391.32 320.4 
L 391.32 319.492189 
L 384.942857 319.492189 
z
" clip-path="url(#pb36827e7c1)" style="fill: #e1812c"/>
   </g>
   <g id="patch_57">
    <path d="M 400.885714 320.4 
L 407.262857 320.4 
L 407.262857 319.016669 
L 400.885714 319.016669 
z
" clip-path="url(#pb36827e7c1)" style="fill: #e1812c"/>
   </g>
   <g id="patch_58">
    <path d="M 416.828571 320.4 
L 423.205714 320.4 
L 423.205714 315.990634 
L 416.828571 315.990634 
z
" clip-path="url(#pb36827e7c1)" style="fill: #e1812c"/>
   </g>
   <g id="patch_59">
    <path d="M 432.771429 320.4 
L 439.148571 320.4 
L 439.148571 318.714066 
L 432.771429 318.714066 
z
" clip-path="url(#pb36827e7c1)" style="fill: #e1812c"/>
   </g>
   <g id="patch_60">
    <path d="M 448.714286 320.4 
L 455.091429 320.4 
L 455.091429 318.843753 
L 448.714286 318.843753 
z
" clip-path="url(#pb36827e7c1)" style="fill: #e1812c"/>
   </g>
   <g id="patch_61">
    <path d="M 464.657143 320.4 
L 471.034286 320.4 
L 471.034286 317.546881 
L 464.657143 317.546881 
z
" clip-path="url(#pb36827e7c1)" style="fill: #e1812c"/>
   </g>
   <g id="patch_62">
    <path d="M 480.6 320.4 
L 486.977143 320.4 
L 486.977143 311.062518 
L 480.6 311.062518 
z
" clip-path="url(#pb36827e7c1)" style="fill: #e1812c"/>
   </g>
   <g id="patch_63">
    <path d="M 496.542857 320.4 
L 502.92 320.4 
L 502.92 318.757295 
L 496.542857 318.757295 
z
" clip-path="url(#pb36827e7c1)" style="fill: #e1812c"/>
   </g>
   <g id="patch_64">
    <path d="M 512.485714 320.4 
L 518.862857 320.4 
L 518.862857 314.002096 
L 512.485714 314.002096 
z
" clip-path="url(#pb36827e7c1)" style="fill: #e1812c"/>
   </g>
   <g id="patch_65">
    <path d="M 528.428571 320.4 
L 534.805714 320.4 
L 534.805714 317.028132 
L 528.428571 317.028132 
z
" clip-path="url(#pb36827e7c1)" style="fill: #e1812c"/>
   </g>
   <g id="patch_66">
    <path d="M 544.371429 320.4 
L 550.748571 320.4 
L 550.748571 319.103128 
L 544.371429 319.103128 
z
" clip-path="url(#pb36827e7c1)" style="fill: #e1812c"/>
   </g>
   <g id="patch_67">
    <path d="M 560.314286 320.4 
L 566.691429 320.4 
L 566.691429 318.843753 
L 560.314286 318.843753 
z
" clip-path="url(#pb36827e7c1)" style="fill: #e1812c"/>
   </g>
   <g id="patch_68">
    <path d="M 576.257143 320.4 
L 582.634286 320.4 
L 582.634286 313.742721 
L 576.257143 313.742721 
z
" clip-path="url(#pb36827e7c1)" style="fill: #e1812c"/>
   </g>
   <g id="patch_69">
    <path d="M 592.2 320.4 
L 598.577143 320.4 
L 598.577143 318.108859 
L 592.2 318.108859 
z
" clip-path="url(#pb36827e7c1)" style="fill: #e1812c"/>
   </g>
   <g id="patch_70">
    <path d="M 608.142857 320.4 
L 614.52 320.4 
L 614.52 314.131783 
L 608.142857 314.131783 
z
" clip-path="url(#pb36827e7c1)" style="fill: #e1812c"/>
   </g>
   <g id="patch_71">
    <path d="M 624.085714 320.4 
L 630.462857 320.4 
L 630.462857 318.930211 
L 624.085714 318.930211 
z
" clip-path="url(#pb36827e7c1)" style="fill: #e1812c"/>
   </g>
   <g id="patch_72">
    <path d="M 640.028571 320.4 
L 646.405714 320.4 
L 646.405714 316.466154 
L 640.028571 316.466154 
z
" clip-path="url(#pb36827e7c1)" style="fill: #e1812c"/>
   </g>
   <g id="matplotlib.axis_1">
    <g id="xtick_1">
     <g id="line2d_1">
      <defs>
       <path id="m2e296c85dc" d="M 0 0 
L 0 3.5 
" style="stroke: #000000; stroke-width: 0.8"/>
      </defs>
      <g>
       <use xlink:href="#m2e296c85dc" x="97.971429" y="320.4" style="stroke: #000000; stroke-width: 0.8"/>
      </g>
     </g>
     <g id="text_1">
      <!-- Abu Dhabi -->
      <g transform="translate(71.972991 334.998438) scale(0.1 -0.1)">
       <defs>
        <path id="DejaVuSans-41" d="M 2188 4044 
L 1331 1722 
L 3047 1722 
L 2188 4044 
z
M 1831 4666 
L 2547 4666 
L 4325 0 
L 3669 0 
L 3244 1197 
L 1141 1197 
L 716 0 
L 50 0 
L 1831 4666 
z
" transform="scale(0.015625)"/>
        <path id="DejaVuSans-62" d="M 3116 1747 
Q 3116 2381 2855 2742 
Q 2594 3103 2138 3103 
Q 1681 3103 1420 2742 
Q 1159 2381 1159 1747 
Q 1159 1113 1420 752 
Q 1681 391 2138 391 
Q 2594 391 2855 752 
Q 3116 1113 3116 1747 
z
M 1159 2969 
Q 1341 3281 1617 3432 
Q 1894 3584 2278 3584 
Q 2916 3584 3314 3078 
Q 3713 2572 3713 1747 
Q 3713 922 3314 415 
Q 2916 -91 2278 -91 
Q 1894 -91 1617 61 
Q 1341 213 1159 525 
L 1159 0 
L 581 0 
L 581 4863 
L 1159 4863 
L 1159 2969 
z
" transform="scale(0.015625)"/>
        <path id="DejaVuSans-75" d="M 544 1381 
L 544 3500 
L 1119 3500 
L 1119 1403 
Q 1119 906 1312 657 
Q 1506 409 1894 409 
Q 2359 409 2629 706 
Q 2900 1003 2900 1516 
L 2900 3500 
L 3475 3500 
L 3475 0 
L 2900 0 
L 2900 538 
Q 2691 219 2414 64 
Q 2138 -91 1772 -91 
Q 1169 -91 856 284 
Q 544 659 544 1381 
z
M 1991 3584 
L 1991 3584 
z
" transform="scale(0.015625)"/>
        <path id="DejaVuSans-20" transform="scale(0.015625)"/>
        <path id="DejaVuSans-44" d="M 1259 4147 
L 1259 519 
L 2022 519 
Q 2988 519 3436 956 
Q 3884 1394 3884 2338 
Q 3884 3275 3436 3711 
Q 2988 4147 2022 4147 
L 1259 4147 
z
M 628 4666 
L 1925 4666 
Q 3281 4666 3915 4102 
Q 4550 3538 4550 2338 
Q 4550 1131 3912 565 
Q 3275 0 1925 0 
L 628 0 
L 628 4666 
z
" transform="scale(0.015625)"/>
        <path id="DejaVuSans-68" d="M 3513 2113 
L 3513 0 
L 2938 0 
L 2938 2094 
Q 2938 2591 2744 2837 
Q 2550 3084 2163 3084 
Q 1697 3084 1428 2787 
Q 1159 2491 1159 1978 
L 1159 0 
L 581 0 
L 581 4863 
L 1159 4863 
L 1159 2956 
Q 1366 3272 1645 3428 
Q 1925 3584 2291 3584 
Q 2894 3584 3203 3211 
Q 3513 2838 3513 2113 
z
" transform="scale(0.015625)"/>
        <path id="DejaVuSans-61" d="M 2194 1759 
Q 1497 1759 1228 1600 
Q 959 1441 959 1056 
Q 959 750 1161 570 
Q 1363 391 1709 391 
Q 2188 391 2477 730 
Q 2766 1069 2766 1631 
L 2766 1759 
L 2194 1759 
z
M 3341 1997 
L 3341 0 
L 2766 0 
L 2766 531 
Q 2569 213 2275 61 
Q 1981 -91 1556 -91 
Q 1019 -91 701 211 
Q 384 513 384 1019 
Q 384 1609 779 1909 
Q 1175 2209 1959 2209 
L 2766 2209 
L 2766 2266 
Q 2766 2663 2505 2880 
Q 2244 3097 1772 3097 
Q 1472 3097 1187 3025 
Q 903 2953 641 2809 
L 641 3341 
Q 956 3463 1253 3523 
Q 1550 3584 1831 3584 
Q 2591 3584 2966 3190 
Q 3341 2797 3341 1997 
z
" transform="scale(0.015625)"/>
        <path id="DejaVuSans-69" d="M 603 3500 
L 1178 3500 
L 1178 0 
L 603 0 
L 603 3500 
z
M 603 4863 
L 1178 4863 
L 1178 4134 
L 603 4134 
L 603 4863 
z
" transform="scale(0.015625)"/>
       </defs>
       <use xlink:href="#DejaVuSans-41"/>
       <use xlink:href="#DejaVuSans-62" x="68.408203"/>
       <use xlink:href="#DejaVuSans-75" x="131.884766"/>
       <use xlink:href="#DejaVuSans-20" x="195.263672"/>
       <use xlink:href="#DejaVuSans-44" x="227.050781"/>
       <use xlink:href="#DejaVuSans-68" x="304.052734"/>
       <use xlink:href="#DejaVuSans-61" x="367.431641"/>
       <use xlink:href="#DejaVuSans-62" x="428.710938"/>
       <use xlink:href="#DejaVuSans-69" x="492.1875"/>
      </g>
     </g>
    </g>
    <g id="xtick_2">
     <g id="line2d_2">
      <g>
       <use xlink:href="#m2e296c85dc" x="113.914286" y="320.4" style="stroke: #000000; stroke-width: 0.8"/>
      </g>
     </g>
     <g id="text_2">
      <!-- Al Daayen -->
      <g transform="translate(88.333036 334.998438) scale(0.1 -0.1)">
       <defs>
        <path id="DejaVuSans-6c" d="M 603 4863 
L 1178 4863 
L 1178 0 
L 603 0 
L 603 4863 
z
" transform="scale(0.015625)"/>
        <path id="DejaVuSans-79" d="M 2059 -325 
Q 1816 -950 1584 -1140 
Q 1353 -1331 966 -1331 
L 506 -1331 
L 506 -850 
L 844 -850 
Q 1081 -850 1212 -737 
Q 1344 -625 1503 -206 
L 1606 56 
L 191 3500 
L 800 3500 
L 1894 763 
L 2988 3500 
L 3597 3500 
L 2059 -325 
z
" transform="scale(0.015625)"/>
        <path id="DejaVuSans-65" d="M 3597 1894 
L 3597 1613 
L 953 1613 
Q 991 1019 1311 708 
Q 1631 397 2203 397 
Q 2534 397 2845 478 
Q 3156 559 3463 722 
L 3463 178 
Q 3153 47 2828 -22 
Q 2503 -91 2169 -91 
Q 1331 -91 842 396 
Q 353 884 353 1716 
Q 353 2575 817 3079 
Q 1281 3584 2069 3584 
Q 2775 3584 3186 3129 
Q 3597 2675 3597 1894 
z
M 3022 2063 
Q 3016 2534 2758 2815 
Q 2500 3097 2075 3097 
Q 1594 3097 1305 2825 
Q 1016 2553 972 2059 
L 3022 2063 
z
" transform="scale(0.015625)"/>
        <path id="DejaVuSans-6e" d="M 3513 2113 
L 3513 0 
L 2938 0 
L 2938 2094 
Q 2938 2591 2744 2837 
Q 2550 3084 2163 3084 
Q 1697 3084 1428 2787 
Q 1159 2491 1159 1978 
L 1159 0 
L 581 0 
L 581 3500 
L 1159 3500 
L 1159 2956 
Q 1366 3272 1645 3428 
Q 1925 3584 2291 3584 
Q 2894 3584 3203 3211 
Q 3513 2838 3513 2113 
z
" transform="scale(0.015625)"/>
       </defs>
       <use xlink:href="#DejaVuSans-41"/>
       <use xlink:href="#DejaVuSans-6c" x="68.408203"/>
       <use xlink:href="#DejaVuSans-20" x="96.191406"/>
       <use xlink:href="#DejaVuSans-44" x="127.978516"/>
       <use xlink:href="#DejaVuSans-61" x="204.980469"/>
       <use xlink:href="#DejaVuSans-61" x="266.259766"/>
       <use xlink:href="#DejaVuSans-79" x="327.539062"/>
       <use xlink:href="#DejaVuSans-65" x="386.71875"/>
       <use xlink:href="#DejaVuSans-6e" x="448.242188"/>
      </g>
     </g>
    </g>
    <g id="xtick_3">
     <g id="line2d_3">
      <g>
       <use xlink:href="#m2e296c85dc" x="129.857143" y="320.4" style="stroke: #000000; stroke-width: 0.8"/>
      </g>
     </g>
     <g id="text_3">
      <!-- Austin -->
      <g transform="translate(114.145424 334.998438) scale(0.1 -0.1)">
       <defs>
        <path id="DejaVuSans-73" d="M 2834 3397 
L 2834 2853 
Q 2591 2978 2328 3040 
Q 2066 3103 1784 3103 
Q 1356 3103 1142 2972 
Q 928 2841 928 2578 
Q 928 2378 1081 2264 
Q 1234 2150 1697 2047 
L 1894 2003 
Q 2506 1872 2764 1633 
Q 3022 1394 3022 966 
Q 3022 478 2636 193 
Q 2250 -91 1575 -91 
Q 1294 -91 989 -36 
Q 684 19 347 128 
L 347 722 
Q 666 556 975 473 
Q 1284 391 1588 391 
Q 1994 391 2212 530 
Q 2431 669 2431 922 
Q 2431 1156 2273 1281 
Q 2116 1406 1581 1522 
L 1381 1569 
Q 847 1681 609 1914 
Q 372 2147 372 2553 
Q 372 3047 722 3315 
Q 1072 3584 1716 3584 
Q 2034 3584 2315 3537 
Q 2597 3491 2834 3397 
z
" transform="scale(0.015625)"/>
        <path id="DejaVuSans-74" d="M 1172 4494 
L 1172 3500 
L 2356 3500 
L 2356 3053 
L 1172 3053 
L 1172 1153 
Q 1172 725 1289 603 
Q 1406 481 1766 481 
L 2356 481 
L 2356 0 
L 1766 0 
Q 1100 0 847 248 
Q 594 497 594 1153 
L 594 3053 
L 172 3053 
L 172 3500 
L 594 3500 
L 594 4494 
L 1172 4494 
z
" transform="scale(0.015625)"/>
       </defs>
       <use xlink:href="#DejaVuSans-41"/>
       <use xlink:href="#DejaVuSans-75" x="68.408203"/>
       <use xlink:href="#DejaVuSans-73" x="131.787109"/>
       <use xlink:href="#DejaVuSans-74" x="183.886719"/>
       <use xlink:href="#DejaVuSans-69" x="223.095703"/>
       <use xlink:href="#DejaVuSans-6e" x="250.878906"/>
      </g>
     </g>
    </g>
    <g id="xtick_4">
     <g id="line2d_4">
      <g>
       <use xlink:href="#m2e296c85dc" x="145.8" y="320.4" style="stroke: #000000; stroke-width: 0.8"/>
      </g>
     </g>
     <g id="text_4">
      <!-- Baku -->
      <g transform="translate(133.397656 334.998438) scale(0.1 -0.1)">
       <defs>
        <path id="DejaVuSans-42" d="M 1259 2228 
L 1259 519 
L 2272 519 
Q 2781 519 3026 730 
Q 3272 941 3272 1375 
Q 3272 1813 3026 2020 
Q 2781 2228 2272 2228 
L 1259 2228 
z
M 1259 4147 
L 1259 2741 
L 2194 2741 
Q 2656 2741 2882 2914 
Q 3109 3088 3109 3444 
Q 3109 3797 2882 3972 
Q 2656 4147 2194 4147 
L 1259 4147 
z
M 628 4666 
L 2241 4666 
Q 2963 4666 3353 4366 
Q 3744 4066 3744 3513 
Q 3744 3084 3544 2831 
Q 3344 2578 2956 2516 
Q 3422 2416 3680 2098 
Q 3938 1781 3938 1306 
Q 3938 681 3513 340 
Q 3088 0 2303 0 
L 628 0 
L 628 4666 
z
" transform="scale(0.015625)"/>
        <path id="DejaVuSans-6b" d="M 581 4863 
L 1159 4863 
L 1159 1991 
L 2875 3500 
L 3609 3500 
L 1753 1863 
L 3688 0 
L 2938 0 
L 1159 1709 
L 1159 0 
L 581 0 
L 581 4863 
z
" transform="scale(0.015625)"/>
       </defs>
       <use xlink:href="#DejaVuSans-42"/>
       <use xlink:href="#DejaVuSans-61" x="68.603516"/>
       <use xlink:href="#DejaVuSans-6b" x="129.882812"/>
       <use xlink:href="#DejaVuSans-75" x="184.667969"/>
      </g>
     </g>
    </g>
    <g id="xtick_5">
     <g id="line2d_5">
      <g>
       <use xlink:href="#m2e296c85dc" x="161.742857" y="320.4" style="stroke: #000000; stroke-width: 0.8"/>
      </g>
     </g>
     <g id="text_5">
      <!-- Barcelona -->
      <g transform="translate(136.798326 334.998438) scale(0.1 -0.1)">
       <defs>
        <path id="DejaVuSans-72" d="M 2631 2963 
Q 2534 3019 2420 3045 
Q 2306 3072 2169 3072 
Q 1681 3072 1420 2755 
Q 1159 2438 1159 1844 
L 1159 0 
L 581 0 
L 581 3500 
L 1159 3500 
L 1159 2956 
Q 1341 3275 1631 3429 
Q 1922 3584 2338 3584 
Q 2397 3584 2469 3576 
Q 2541 3569 2628 3553 
L 2631 2963 
z
" transform="scale(0.015625)"/>
        <path id="DejaVuSans-63" d="M 3122 3366 
L 3122 2828 
Q 2878 2963 2633 3030 
Q 2388 3097 2138 3097 
Q 1578 3097 1268 2742 
Q 959 2388 959 1747 
Q 959 1106 1268 751 
Q 1578 397 2138 397 
Q 2388 397 2633 464 
Q 2878 531 3122 666 
L 3122 134 
Q 2881 22 2623 -34 
Q 2366 -91 2075 -91 
Q 1284 -91 818 406 
Q 353 903 353 1747 
Q 353 2603 823 3093 
Q 1294 3584 2113 3584 
Q 2378 3584 2631 3529 
Q 2884 3475 3122 3366 
z
" transform="scale(0.015625)"/>
        <path id="DejaVuSans-6f" d="M 1959 3097 
Q 1497 3097 1228 2736 
Q 959 2375 959 1747 
Q 959 1119 1226 758 
Q 1494 397 1959 397 
Q 2419 397 2687 759 
Q 2956 1122 2956 1747 
Q 2956 2369 2687 2733 
Q 2419 3097 1959 3097 
z
M 1959 3584 
Q 2709 3584 3137 3096 
Q 3566 2609 3566 1747 
Q 3566 888 3137 398 
Q 2709 -91 1959 -91 
Q 1206 -91 779 398 
Q 353 888 353 1747 
Q 353 2609 779 3096 
Q 1206 3584 1959 3584 
z
" transform="scale(0.015625)"/>
       </defs>
       <use xlink:href="#DejaVuSans-42"/>
       <use xlink:href="#DejaVuSans-61" x="68.603516"/>
       <use xlink:href="#DejaVuSans-72" x="129.882812"/>
       <use xlink:href="#DejaVuSans-63" x="168.746094"/>
       <use xlink:href="#DejaVuSans-65" x="223.726562"/>
       <use xlink:href="#DejaVuSans-6c" x="285.25"/>
       <use xlink:href="#DejaVuSans-6f" x="313.033203"/>
       <use xlink:href="#DejaVuSans-6e" x="374.214844"/>
       <use xlink:href="#DejaVuSans-61" x="437.59375"/>
      </g>
     </g>
    </g>
    <g id="xtick_6">
     <g id="line2d_6">
      <g>
       <use xlink:href="#m2e296c85dc" x="177.685714" y="320.4" style="stroke: #000000; stroke-width: 0.8"/>
      </g>
     </g>
     <g id="text_6">
      <!-- Budapest -->
      <g transform="translate(154.032589 334.998438) scale(0.1 -0.1)">
       <defs>
        <path id="DejaVuSans-64" d="M 2906 2969 
L 2906 4863 
L 3481 4863 
L 3481 0 
L 2906 0 
L 2906 525 
Q 2725 213 2448 61 
Q 2172 -91 1784 -91 
Q 1150 -91 751 415 
Q 353 922 353 1747 
Q 353 2572 751 3078 
Q 1150 3584 1784 3584 
Q 2172 3584 2448 3432 
Q 2725 3281 2906 2969 
z
M 947 1747 
Q 947 1113 1208 752 
Q 1469 391 1925 391 
Q 2381 391 2643 752 
Q 2906 1113 2906 1747 
Q 2906 2381 2643 2742 
Q 2381 3103 1925 3103 
Q 1469 3103 1208 2742 
Q 947 2381 947 1747 
z
" transform="scale(0.015625)"/>
        <path id="DejaVuSans-70" d="M 1159 525 
L 1159 -1331 
L 581 -1331 
L 581 3500 
L 1159 3500 
L 1159 2969 
Q 1341 3281 1617 3432 
Q 1894 3584 2278 3584 
Q 2916 3584 3314 3078 
Q 3713 2572 3713 1747 
Q 3713 922 3314 415 
Q 2916 -91 2278 -91 
Q 1894 -91 1617 61 
Q 1341 213 1159 525 
z
M 3116 1747 
Q 3116 2381 2855 2742 
Q 2594 3103 2138 3103 
Q 1681 3103 1420 2742 
Q 1159 2381 1159 1747 
Q 1159 1113 1420 752 
Q 1681 391 2138 391 
Q 2594 391 2855 752 
Q 3116 1113 3116 1747 
z
" transform="scale(0.015625)"/>
       </defs>
       <use xlink:href="#DejaVuSans-42"/>
       <use xlink:href="#DejaVuSans-75" x="68.603516"/>
       <use xlink:href="#DejaVuSans-64" x="131.982422"/>
       <use xlink:href="#DejaVuSans-61" x="195.458984"/>
       <use xlink:href="#DejaVuSans-70" x="256.738281"/>
       <use xlink:href="#DejaVuSans-65" x="320.214844"/>
       <use xlink:href="#DejaVuSans-73" x="381.738281"/>
       <use xlink:href="#DejaVuSans-74" x="433.837891"/>
      </g>
     </g>
    </g>
    <g id="xtick_7">
     <g id="line2d_7">
      <g>
       <use xlink:href="#m2e296c85dc" x="193.628571" y="320.4" style="stroke: #000000; stroke-width: 0.8"/>
      </g>
     </g>
     <g id="text_7">
      <!-- Hockenheim -->
      <g transform="translate(162.595759 334.998438) scale(0.1 -0.1)">
       <defs>
        <path id="DejaVuSans-48" d="M 628 4666 
L 1259 4666 
L 1259 2753 
L 3553 2753 
L 3553 4666 
L 4184 4666 
L 4184 0 
L 3553 0 
L 3553 2222 
L 1259 2222 
L 1259 0 
L 628 0 
L 628 4666 
z
" transform="scale(0.015625)"/>
        <path id="DejaVuSans-6d" d="M 3328 2828 
Q 3544 3216 3844 3400 
Q 4144 3584 4550 3584 
Q 5097 3584 5394 3201 
Q 5691 2819 5691 2113 
L 5691 0 
L 5113 0 
L 5113 2094 
Q 5113 2597 4934 2840 
Q 4756 3084 4391 3084 
Q 3944 3084 3684 2787 
Q 3425 2491 3425 1978 
L 3425 0 
L 2847 0 
L 2847 2094 
Q 2847 2600 2669 2842 
Q 2491 3084 2119 3084 
Q 1678 3084 1418 2786 
Q 1159 2488 1159 1978 
L 1159 0 
L 581 0 
L 581 3500 
L 1159 3500 
L 1159 2956 
Q 1356 3278 1631 3431 
Q 1906 3584 2284 3584 
Q 2666 3584 2933 3390 
Q 3200 3197 3328 2828 
z
" transform="scale(0.015625)"/>
       </defs>
       <use xlink:href="#DejaVuSans-48"/>
       <use xlink:href="#DejaVuSans-6f" x="75.195312"/>
       <use xlink:href="#DejaVuSans-63" x="136.376953"/>
       <use xlink:href="#DejaVuSans-6b" x="191.357422"/>
       <use xlink:href="#DejaVuSans-65" x="245.642578"/>
       <use xlink:href="#DejaVuSans-6e" x="307.166016"/>
       <use xlink:href="#DejaVuSans-68" x="370.544922"/>
       <use xlink:href="#DejaVuSans-65" x="433.923828"/>
       <use xlink:href="#DejaVuSans-69" x="495.447266"/>
       <use xlink:href="#DejaVuSans-6d" x="523.230469"/>
      </g>
     </g>
    </g>
    <g id="xtick_8">
     <g id="line2d_8">
      <g>
       <use xlink:href="#m2e296c85dc" x="209.571429" y="320.4" style="stroke: #000000; stroke-width: 0.8"/>
      </g>
     </g>
     <g id="text_8">
      <!-- Imola -->
      <g transform="translate(195.713616 334.998438) scale(0.1 -0.1)">
       <defs>
        <path id="DejaVuSans-49" d="M 628 4666 
L 1259 4666 
L 1259 0 
L 628 0 
L 628 4666 
z
" transform="scale(0.015625)"/>
       </defs>
       <use xlink:href="#DejaVuSans-49"/>
       <use xlink:href="#DejaVuSans-6d" x="29.492188"/>
       <use xlink:href="#DejaVuSans-6f" x="126.904297"/>
       <use xlink:href="#DejaVuSans-6c" x="188.085938"/>
       <use xlink:href="#DejaVuSans-61" x="215.869141"/>
      </g>
     </g>
    </g>
    <g id="xtick_9">
     <g id="line2d_9">
      <g>
       <use xlink:href="#m2e296c85dc" x="225.514286" y="320.4" style="stroke: #000000; stroke-width: 0.8"/>
      </g>
     </g>
     <g id="text_9">
      <!-- Istanbul -->
      <g transform="translate(205.509598 334.998438) scale(0.1 -0.1)">
       <use xlink:href="#DejaVuSans-49"/>
       <use xlink:href="#DejaVuSans-73" x="29.492188"/>
       <use xlink:href="#DejaVuSans-74" x="81.591797"/>
       <use xlink:href="#DejaVuSans-61" x="120.800781"/>
       <use xlink:href="#DejaVuSans-6e" x="182.080078"/>
       <use xlink:href="#DejaVuSans-62" x="245.458984"/>
       <use xlink:href="#DejaVuSans-75" x="308.935547"/>
       <use xlink:href="#DejaVuSans-6c" x="372.314453"/>
      </g>
     </g>
    </g>
    <g id="xtick_10">
     <g id="line2d_10">
      <g>
       <use xlink:href="#m2e296c85dc" x="241.457143" y="320.4" style="stroke: #000000; stroke-width: 0.8"/>
      </g>
     </g>
     <g id="text_10">
      <!-- Jeddah -->
      <g transform="translate(224.32433 334.998438) scale(0.1 -0.1)">
       <defs>
        <path id="DejaVuSans-4a" d="M 628 4666 
L 1259 4666 
L 1259 325 
Q 1259 -519 939 -900 
Q 619 -1281 -91 -1281 
L -331 -1281 
L -331 -750 
L -134 -750 
Q 284 -750 456 -515 
Q 628 -281 628 325 
L 628 4666 
z
" transform="scale(0.015625)"/>
       </defs>
       <use xlink:href="#DejaVuSans-4a"/>
       <use xlink:href="#DejaVuSans-65" x="29.492188"/>
       <use xlink:href="#DejaVuSans-64" x="91.015625"/>
       <use xlink:href="#DejaVuSans-64" x="154.492188"/>
       <use xlink:href="#DejaVuSans-61" x="217.96875"/>
       <use xlink:href="#DejaVuSans-68" x="279.248047"/>
      </g>
     </g>
    </g>
    <g id="xtick_11">
     <g id="line2d_11">
      <g>
       <use xlink:href="#m2e296c85dc" x="257.4" y="320.4" style="stroke: #000000; stroke-width: 0.8"/>
      </g>
     </g>
     <g id="text_11">
      <!-- Le Castellet -->
      <g transform="translate(228.024219 334.998438) scale(0.1 -0.1)">
       <defs>
        <path id="DejaVuSans-4c" d="M 628 4666 
L 1259 4666 
L 1259 531 
L 3531 531 
L 3531 0 
L 628 0 
L 628 4666 
z
" transform="scale(0.015625)"/>
        <path id="DejaVuSans-43" d="M 4122 4306 
L 4122 3641 
Q 3803 3938 3442 4084 
Q 3081 4231 2675 4231 
Q 1875 4231 1450 3742 
Q 1025 3253 1025 2328 
Q 1025 1406 1450 917 
Q 1875 428 2675 428 
Q 3081 428 3442 575 
Q 3803 722 4122 1019 
L 4122 359 
Q 3791 134 3420 21 
Q 3050 -91 2638 -91 
Q 1578 -91 968 557 
Q 359 1206 359 2328 
Q 359 3453 968 4101 
Q 1578 4750 2638 4750 
Q 3056 4750 3426 4639 
Q 3797 4528 4122 4306 
z
" transform="scale(0.015625)"/>
       </defs>
       <use xlink:href="#DejaVuSans-4c"/>
       <use xlink:href="#DejaVuSans-65" x="53.962891"/>
       <use xlink:href="#DejaVuSans-20" x="115.486328"/>
       <use xlink:href="#DejaVuSans-43" x="147.273438"/>
       <use xlink:href="#DejaVuSans-61" x="217.097656"/>
       <use xlink:href="#DejaVuSans-73" x="278.376953"/>
       <use xlink:href="#DejaVuSans-74" x="330.476562"/>
       <use xlink:href="#DejaVuSans-65" x="369.685547"/>
       <use xlink:href="#DejaVuSans-6c" x="431.208984"/>
       <use xlink:href="#DejaVuSans-6c" x="458.992188"/>
       <use xlink:href="#DejaVuSans-65" x="486.775391"/>
       <use xlink:href="#DejaVuSans-74" x="548.298828"/>
      </g>
     </g>
    </g>
    <g id="xtick_12">
     <g id="line2d_12">
      <g>
       <use xlink:href="#m2e296c85dc" x="273.342857" y="320.4" style="stroke: #000000; stroke-width: 0.8"/>
      </g>
     </g>
     <g id="text_12">
      <!-- Marina Bay -->
      <g transform="translate(245.24442 334.998438) scale(0.1 -0.1)">
       <defs>
        <path id="DejaVuSans-4d" d="M 628 4666 
L 1569 4666 
L 2759 1491 
L 3956 4666 
L 4897 4666 
L 4897 0 
L 4281 0 
L 4281 4097 
L 3078 897 
L 2444 897 
L 1241 4097 
L 1241 0 
L 628 0 
L 628 4666 
z
" transform="scale(0.015625)"/>
       </defs>
       <use xlink:href="#DejaVuSans-4d"/>
       <use xlink:href="#DejaVuSans-61" x="86.279297"/>
       <use xlink:href="#DejaVuSans-72" x="147.558594"/>
       <use xlink:href="#DejaVuSans-69" x="188.671875"/>
       <use xlink:href="#DejaVuSans-6e" x="216.455078"/>
       <use xlink:href="#DejaVuSans-61" x="279.833984"/>
       <use xlink:href="#DejaVuSans-20" x="341.113281"/>
       <use xlink:href="#DejaVuSans-42" x="372.900391"/>
       <use xlink:href="#DejaVuSans-61" x="441.503906"/>
       <use xlink:href="#DejaVuSans-79" x="502.783203"/>
      </g>
     </g>
    </g>
    <g id="xtick_13">
     <g id="line2d_13">
      <g>
       <use xlink:href="#m2e296c85dc" x="289.285714" y="320.4" style="stroke: #000000; stroke-width: 0.8"/>
      </g>
     </g>
     <g id="text_13">
      <!-- Melbourne -->
      <g transform="translate(262.890402 334.998438) scale(0.1 -0.1)">
       <use xlink:href="#DejaVuSans-4d"/>
       <use xlink:href="#DejaVuSans-65" x="86.279297"/>
       <use xlink:href="#DejaVuSans-6c" x="147.802734"/>
       <use xlink:href="#DejaVuSans-62" x="175.585938"/>
       <use xlink:href="#DejaVuSans-6f" x="239.0625"/>
       <use xlink:href="#DejaVuSans-75" x="300.244141"/>
       <use xlink:href="#DejaVuSans-72" x="363.623047"/>
       <use xlink:href="#DejaVuSans-6e" x="402.986328"/>
       <use xlink:href="#DejaVuSans-65" x="466.365234"/>
      </g>
     </g>
    </g>
    <g id="xtick_14">
     <g id="line2d_14">
      <g>
       <use xlink:href="#m2e296c85dc" x="305.228571" y="320.4" style="stroke: #000000; stroke-width: 0.8"/>
      </g>
     </g>
     <g id="text_14">
      <!-- Mexico City -->
      <g transform="translate(276.379353 334.998438) scale(0.1 -0.1)">
       <defs>
        <path id="DejaVuSans-78" d="M 3513 3500 
L 2247 1797 
L 3578 0 
L 2900 0 
L 1881 1375 
L 863 0 
L 184 0 
L 1544 1831 
L 300 3500 
L 978 3500 
L 1906 2253 
L 2834 3500 
L 3513 3500 
z
" transform="scale(0.015625)"/>
       </defs>
       <use xlink:href="#DejaVuSans-4d"/>
       <use xlink:href="#DejaVuSans-65" x="86.279297"/>
       <use xlink:href="#DejaVuSans-78" x="146.052734"/>
       <use xlink:href="#DejaVuSans-69" x="205.232422"/>
       <use xlink:href="#DejaVuSans-63" x="233.015625"/>
       <use xlink:href="#DejaVuSans-6f" x="287.996094"/>
       <use xlink:href="#DejaVuSans-20" x="349.177734"/>
       <use xlink:href="#DejaVuSans-43" x="380.964844"/>
       <use xlink:href="#DejaVuSans-69" x="450.789062"/>
       <use xlink:href="#DejaVuSans-74" x="478.572266"/>
       <use xlink:href="#DejaVuSans-79" x="517.78125"/>
      </g>
     </g>
    </g>
    <g id="xtick_15">
     <g id="line2d_15">
      <g>
       <use xlink:href="#m2e296c85dc" x="321.171429" y="320.4" style="stroke: #000000; stroke-width: 0.8"/>
      </g>
     </g>
     <g id="text_15">
      <!-- Miami -->
      <g transform="translate(306.144866 334.998438) scale(0.1 -0.1)">
       <use xlink:href="#DejaVuSans-4d"/>
       <use xlink:href="#DejaVuSans-69" x="86.279297"/>
       <use xlink:href="#DejaVuSans-61" x="114.0625"/>
       <use xlink:href="#DejaVuSans-6d" x="175.341797"/>
       <use xlink:href="#DejaVuSans-69" x="272.753906"/>
      </g>
     </g>
    </g>
    <g id="xtick_16">
     <g id="line2d_16">
      <g>
       <use xlink:href="#m2e296c85dc" x="337.114286" y="320.4" style="stroke: #000000; stroke-width: 0.8"/>
      </g>
     </g>
     <g id="text_16">
      <!-- Monaco -->
      <g transform="translate(317.699442 334.998438) scale(0.1 -0.1)">
       <use xlink:href="#DejaVuSans-4d"/>
       <use xlink:href="#DejaVuSans-6f" x="86.279297"/>
       <use xlink:href="#DejaVuSans-6e" x="147.460938"/>
       <use xlink:href="#DejaVuSans-61" x="210.839844"/>
       <use xlink:href="#DejaVuSans-63" x="272.119141"/>
       <use xlink:href="#DejaVuSans-6f" x="327.099609"/>
      </g>
     </g>
    </g>
    <g id="xtick_17">
     <g id="line2d_17">
      <g>
       <use xlink:href="#m2e296c85dc" x="353.057143" y="320.4" style="stroke: #000000; stroke-width: 0.8"/>
      </g>
     </g>
     <g id="text_17">
      <!-- Monte-Carlo -->
      <g transform="translate(322.614955 334.998438) scale(0.1 -0.1)">
       <defs>
        <path id="DejaVuSans-2d" d="M 313 2009 
L 1997 2009 
L 1997 1497 
L 313 1497 
L 313 2009 
z
" transform="scale(0.015625)"/>
       </defs>
       <use xlink:href="#DejaVuSans-4d"/>
       <use xlink:href="#DejaVuSans-6f" x="86.279297"/>
       <use xlink:href="#DejaVuSans-6e" x="147.460938"/>
       <use xlink:href="#DejaVuSans-74" x="210.839844"/>
       <use xlink:href="#DejaVuSans-65" x="250.048828"/>
       <use xlink:href="#DejaVuSans-2d" x="311.572266"/>
       <use xlink:href="#DejaVuSans-43" x="347.65625"/>
       <use xlink:href="#DejaVuSans-61" x="417.480469"/>
       <use xlink:href="#DejaVuSans-72" x="478.759766"/>
       <use xlink:href="#DejaVuSans-6c" x="519.873047"/>
       <use xlink:href="#DejaVuSans-6f" x="547.65625"/>
      </g>
     </g>
    </g>
    <g id="xtick_18">
     <g id="line2d_18">
      <g>
       <use xlink:href="#m2e296c85dc" x="369" y="320.4" style="stroke: #000000; stroke-width: 0.8"/>
      </g>
     </g>
     <g id="text_18">
      <!-- Montmeló -->
      <g transform="translate(344.102344 334.998438) scale(0.1 -0.1)">
       <defs>
        <path id="DejaVuSans-f3" d="M 1959 3097 
Q 1497 3097 1228 2736 
Q 959 2375 959 1747 
Q 959 1119 1226 758 
Q 1494 397 1959 397 
Q 2419 397 2687 759 
Q 2956 1122 2956 1747 
Q 2956 2369 2687 2733 
Q 2419 3097 1959 3097 
z
M 1959 3584 
Q 2709 3584 3137 3096 
Q 3566 2609 3566 1747 
Q 3566 888 3137 398 
Q 2709 -91 1959 -91 
Q 1206 -91 779 398 
Q 353 888 353 1747 
Q 353 2609 779 3096 
Q 1206 3584 1959 3584 
z
M 2394 5119 
L 3016 5119 
L 1997 3944 
L 1519 3944 
L 2394 5119 
z
" transform="scale(0.015625)"/>
       </defs>
       <use xlink:href="#DejaVuSans-4d"/>
       <use xlink:href="#DejaVuSans-6f" x="86.279297"/>
       <use xlink:href="#DejaVuSans-6e" x="147.460938"/>
       <use xlink:href="#DejaVuSans-74" x="210.839844"/>
       <use xlink:href="#DejaVuSans-6d" x="250.048828"/>
       <use xlink:href="#DejaVuSans-65" x="347.460938"/>
       <use xlink:href="#DejaVuSans-6c" x="408.984375"/>
       <use xlink:href="#DejaVuSans-f3" x="436.767578"/>
      </g>
     </g>
    </g>
    <g id="xtick_19">
     <g id="line2d_19">
      <g>
       <use xlink:href="#m2e296c85dc" x="384.942857" y="320.4" style="stroke: #000000; stroke-width: 0.8"/>
      </g>
     </g>
     <g id="text_19">
      <!-- Montreal -->
      <g transform="translate(362.967857 334.998438) scale(0.1 -0.1)">
       <use xlink:href="#DejaVuSans-4d"/>
       <use xlink:href="#DejaVuSans-6f" x="86.279297"/>
       <use xlink:href="#DejaVuSans-6e" x="147.460938"/>
       <use xlink:href="#DejaVuSans-74" x="210.839844"/>
       <use xlink:href="#DejaVuSans-72" x="250.048828"/>
       <use xlink:href="#DejaVuSans-65" x="288.912109"/>
       <use xlink:href="#DejaVuSans-61" x="350.435547"/>
       <use xlink:href="#DejaVuSans-6c" x="411.714844"/>
      </g>
     </g>
    </g>
    <g id="xtick_20">
     <g id="line2d_20">
      <g>
       <use xlink:href="#m2e296c85dc" x="400.885714" y="320.4" style="stroke: #000000; stroke-width: 0.8"/>
      </g>
     </g>
     <g id="text_20">
      <!-- Montréal -->
      <g transform="translate(378.910714 334.998438) scale(0.1 -0.1)">
       <defs>
        <path id="DejaVuSans-e9" d="M 3597 1894 
L 3597 1613 
L 953 1613 
Q 991 1019 1311 708 
Q 1631 397 2203 397 
Q 2534 397 2845 478 
Q 3156 559 3463 722 
L 3463 178 
Q 3153 47 2828 -22 
Q 2503 -91 2169 -91 
Q 1331 -91 842 396 
Q 353 884 353 1716 
Q 353 2575 817 3079 
Q 1281 3584 2069 3584 
Q 2775 3584 3186 3129 
Q 3597 2675 3597 1894 
z
M 3022 2063 
Q 3016 2534 2758 2815 
Q 2500 3097 2075 3097 
Q 1594 3097 1305 2825 
Q 1016 2553 972 2059 
L 3022 2063 
z
M 2469 5119 
L 3091 5119 
L 2072 3944 
L 1594 3944 
L 2469 5119 
z
" transform="scale(0.015625)"/>
       </defs>
       <use xlink:href="#DejaVuSans-4d"/>
       <use xlink:href="#DejaVuSans-6f" x="86.279297"/>
       <use xlink:href="#DejaVuSans-6e" x="147.460938"/>
       <use xlink:href="#DejaVuSans-74" x="210.839844"/>
       <use xlink:href="#DejaVuSans-72" x="250.048828"/>
       <use xlink:href="#DejaVuSans-e9" x="288.912109"/>
       <use xlink:href="#DejaVuSans-61" x="350.435547"/>
       <use xlink:href="#DejaVuSans-6c" x="411.714844"/>
      </g>
     </g>
    </g>
    <g id="xtick_21">
     <g id="line2d_21">
      <g>
       <use xlink:href="#m2e296c85dc" x="416.828571" y="320.4" style="stroke: #000000; stroke-width: 0.8"/>
      </g>
     </g>
     <g id="text_21">
      <!-- Monza -->
      <g transform="translate(400.598103 334.998438) scale(0.1 -0.1)">
       <defs>
        <path id="DejaVuSans-7a" d="M 353 3500 
L 3084 3500 
L 3084 2975 
L 922 459 
L 3084 459 
L 3084 0 
L 275 0 
L 275 525 
L 2438 3041 
L 353 3041 
L 353 3500 
z
" transform="scale(0.015625)"/>
       </defs>
       <use xlink:href="#DejaVuSans-4d"/>
       <use xlink:href="#DejaVuSans-6f" x="86.279297"/>
       <use xlink:href="#DejaVuSans-6e" x="147.460938"/>
       <use xlink:href="#DejaVuSans-7a" x="210.839844"/>
       <use xlink:href="#DejaVuSans-61" x="263.330078"/>
      </g>
     </g>
    </g>
    <g id="xtick_22">
     <g id="line2d_22">
      <g>
       <use xlink:href="#m2e296c85dc" x="432.771429" y="320.4" style="stroke: #000000; stroke-width: 0.8"/>
      </g>
     </g>
     <g id="text_22">
      <!-- Mugello -->
      <g transform="translate(413.200335 334.998438) scale(0.1 -0.1)">
       <defs>
        <path id="DejaVuSans-67" d="M 2906 1791 
Q 2906 2416 2648 2759 
Q 2391 3103 1925 3103 
Q 1463 3103 1205 2759 
Q 947 2416 947 1791 
Q 947 1169 1205 825 
Q 1463 481 1925 481 
Q 2391 481 2648 825 
Q 2906 1169 2906 1791 
z
M 3481 434 
Q 3481 -459 3084 -895 
Q 2688 -1331 1869 -1331 
Q 1566 -1331 1297 -1286 
Q 1028 -1241 775 -1147 
L 775 -588 
Q 1028 -725 1275 -790 
Q 1522 -856 1778 -856 
Q 2344 -856 2625 -561 
Q 2906 -266 2906 331 
L 2906 616 
Q 2728 306 2450 153 
Q 2172 0 1784 0 
Q 1141 0 747 490 
Q 353 981 353 1791 
Q 353 2603 747 3093 
Q 1141 3584 1784 3584 
Q 2172 3584 2450 3431 
Q 2728 3278 2906 2969 
L 2906 3500 
L 3481 3500 
L 3481 434 
z
" transform="scale(0.015625)"/>
       </defs>
       <use xlink:href="#DejaVuSans-4d"/>
       <use xlink:href="#DejaVuSans-75" x="86.279297"/>
       <use xlink:href="#DejaVuSans-67" x="149.658203"/>
       <use xlink:href="#DejaVuSans-65" x="213.134766"/>
       <use xlink:href="#DejaVuSans-6c" x="274.658203"/>
       <use xlink:href="#DejaVuSans-6c" x="302.441406"/>
       <use xlink:href="#DejaVuSans-6f" x="330.224609"/>
      </g>
     </g>
    </g>
    <g id="xtick_23">
     <g id="line2d_23">
      <g>
       <use xlink:href="#m2e296c85dc" x="448.714286" y="320.4" style="stroke: #000000; stroke-width: 0.8"/>
      </g>
     </g>
     <g id="text_23">
      <!-- Nürburg -->
      <g transform="translate(428.264286 334.998438) scale(0.1 -0.1)">
       <defs>
        <path id="DejaVuSans-4e" d="M 628 4666 
L 1478 4666 
L 3547 763 
L 3547 4666 
L 4159 4666 
L 4159 0 
L 3309 0 
L 1241 3903 
L 1241 0 
L 628 0 
L 628 4666 
z
" transform="scale(0.015625)"/>
        <path id="DejaVuSans-fc" d="M 544 1381 
L 544 3500 
L 1119 3500 
L 1119 1403 
Q 1119 906 1312 657 
Q 1506 409 1894 409 
Q 2359 409 2629 706 
Q 2900 1003 2900 1516 
L 2900 3500 
L 3475 3500 
L 3475 0 
L 2900 0 
L 2900 538 
Q 2691 219 2414 64 
Q 2138 -91 1772 -91 
Q 1169 -91 856 284 
Q 544 659 544 1381 
z
M 1991 3584 
L 1991 3584 
z
M 2278 4850 
L 2913 4850 
L 2913 4219 
L 2278 4219 
L 2278 4850 
z
M 1056 4850 
L 1691 4850 
L 1691 4219 
L 1056 4219 
L 1056 4850 
z
" transform="scale(0.015625)"/>
       </defs>
       <use xlink:href="#DejaVuSans-4e"/>
       <use xlink:href="#DejaVuSans-fc" x="74.804688"/>
       <use xlink:href="#DejaVuSans-72" x="138.183594"/>
       <use xlink:href="#DejaVuSans-62" x="179.296875"/>
       <use xlink:href="#DejaVuSans-75" x="242.773438"/>
       <use xlink:href="#DejaVuSans-72" x="306.152344"/>
       <use xlink:href="#DejaVuSans-67" x="345.515625"/>
      </g>
     </g>
    </g>
    <g id="xtick_24">
     <g id="line2d_24">
      <g>
       <use xlink:href="#m2e296c85dc" x="464.657143" y="320.4" style="stroke: #000000; stroke-width: 0.8"/>
      </g>
     </g>
     <g id="text_24">
      <!-- Portimão -->
      <g transform="translate(442.365737 334.998438) scale(0.1 -0.1)">
       <defs>
        <path id="DejaVuSans-50" d="M 1259 4147 
L 1259 2394 
L 2053 2394 
Q 2494 2394 2734 2622 
Q 2975 2850 2975 3272 
Q 2975 3691 2734 3919 
Q 2494 4147 2053 4147 
L 1259 4147 
z
M 628 4666 
L 2053 4666 
Q 2838 4666 3239 4311 
Q 3641 3956 3641 3272 
Q 3641 2581 3239 2228 
Q 2838 1875 2053 1875 
L 1259 1875 
L 1259 0 
L 628 0 
L 628 4666 
z
" transform="scale(0.015625)"/>
        <path id="DejaVuSans-e3" d="M 2194 1759 
Q 1497 1759 1228 1600 
Q 959 1441 959 1056 
Q 959 750 1161 570 
Q 1363 391 1709 391 
Q 2188 391 2477 730 
Q 2766 1069 2766 1631 
L 2766 1759 
L 2194 1759 
z
M 3341 1997 
L 3341 0 
L 2766 0 
L 2766 531 
Q 2569 213 2275 61 
Q 1981 -91 1556 -91 
Q 1019 -91 701 211 
Q 384 513 384 1019 
Q 384 1609 779 1909 
Q 1175 2209 1959 2209 
L 2766 2209 
L 2766 2266 
Q 2766 2663 2505 2880 
Q 2244 3097 1772 3097 
Q 1472 3097 1187 3025 
Q 903 2953 641 2809 
L 641 3341 
Q 956 3463 1253 3523 
Q 1550 3584 1831 3584 
Q 2591 3584 2966 3190 
Q 3341 2797 3341 1997 
z
M 1844 4281 
L 1666 4453 
Q 1597 4516 1545 4545 
Q 1494 4575 1453 4575 
Q 1334 4575 1278 4461 
Q 1222 4347 1216 4091 
L 825 4091 
Q 831 4513 990 4742 
Q 1150 4972 1434 4972 
Q 1553 4972 1653 4928 
Q 1753 4884 1869 4781 
L 2047 4609 
Q 2116 4547 2167 4517 
Q 2219 4488 2259 4488 
Q 2378 4488 2434 4602 
Q 2491 4716 2497 4972 
L 2888 4972 
Q 2881 4550 2722 4320 
Q 2563 4091 2278 4091 
Q 2159 4091 2059 4134 
Q 1959 4178 1844 4281 
z
" transform="scale(0.015625)"/>
       </defs>
       <use xlink:href="#DejaVuSans-50"/>
       <use xlink:href="#DejaVuSans-6f" x="56.677734"/>
       <use xlink:href="#DejaVuSans-72" x="117.859375"/>
       <use xlink:href="#DejaVuSans-74" x="158.972656"/>
       <use xlink:href="#DejaVuSans-69" x="198.181641"/>
       <use xlink:href="#DejaVuSans-6d" x="225.964844"/>
       <use xlink:href="#DejaVuSans-e3" x="323.376953"/>
       <use xlink:href="#DejaVuSans-6f" x="384.65625"/>
      </g>
     </g>
    </g>
    <g id="xtick_25">
     <g id="line2d_25">
      <g>
       <use xlink:href="#m2e296c85dc" x="480.6" y="320.4" style="stroke: #000000; stroke-width: 0.8"/>
      </g>
     </g>
     <g id="text_25">
      <!-- Sakhir -->
      <g transform="translate(464.853125 334.998438) scale(0.1 -0.1)">
       <defs>
        <path id="DejaVuSans-53" d="M 3425 4513 
L 3425 3897 
Q 3066 4069 2747 4153 
Q 2428 4238 2131 4238 
Q 1616 4238 1336 4038 
Q 1056 3838 1056 3469 
Q 1056 3159 1242 3001 
Q 1428 2844 1947 2747 
L 2328 2669 
Q 3034 2534 3370 2195 
Q 3706 1856 3706 1288 
Q 3706 609 3251 259 
Q 2797 -91 1919 -91 
Q 1588 -91 1214 -16 
Q 841 59 441 206 
L 441 856 
Q 825 641 1194 531 
Q 1563 422 1919 422 
Q 2459 422 2753 634 
Q 3047 847 3047 1241 
Q 3047 1584 2836 1778 
Q 2625 1972 2144 2069 
L 1759 2144 
Q 1053 2284 737 2584 
Q 422 2884 422 3419 
Q 422 4038 858 4394 
Q 1294 4750 2059 4750 
Q 2388 4750 2728 4690 
Q 3069 4631 3425 4513 
z
" transform="scale(0.015625)"/>
       </defs>
       <use xlink:href="#DejaVuSans-53"/>
       <use xlink:href="#DejaVuSans-61" x="63.476562"/>
       <use xlink:href="#DejaVuSans-6b" x="124.755859"/>
       <use xlink:href="#DejaVuSans-68" x="182.666016"/>
       <use xlink:href="#DejaVuSans-69" x="246.044922"/>
       <use xlink:href="#DejaVuSans-72" x="273.828125"/>
      </g>
     </g>
    </g>
    <g id="xtick_26">
     <g id="line2d_26">
      <g>
       <use xlink:href="#m2e296c85dc" x="496.542857" y="320.4" style="stroke: #000000; stroke-width: 0.8"/>
      </g>
     </g>
     <g id="text_26">
      <!-- Shanghai -->
      <g transform="translate(473.170982 334.998438) scale(0.1 -0.1)">
       <use xlink:href="#DejaVuSans-53"/>
       <use xlink:href="#DejaVuSans-68" x="63.476562"/>
       <use xlink:href="#DejaVuSans-61" x="126.855469"/>
       <use xlink:href="#DejaVuSans-6e" x="188.134766"/>
       <use xlink:href="#DejaVuSans-67" x="251.513672"/>
       <use xlink:href="#DejaVuSans-68" x="314.990234"/>
       <use xlink:href="#DejaVuSans-61" x="378.369141"/>
       <use xlink:href="#DejaVuSans-69" x="439.648438"/>
      </g>
     </g>
    </g>
    <g id="xtick_27">
     <g id="line2d_27">
      <g>
       <use xlink:href="#m2e296c85dc" x="512.485714" y="320.4" style="stroke: #000000; stroke-width: 0.8"/>
      </g>
     </g>
     <g id="text_27">
      <!-- Silverstone -->
      <g transform="translate(484.572433 334.998438) scale(0.1 -0.1)">
       <defs>
        <path id="DejaVuSans-76" d="M 191 3500 
L 800 3500 
L 1894 563 
L 2988 3500 
L 3597 3500 
L 2284 0 
L 1503 0 
L 191 3500 
z
" transform="scale(0.015625)"/>
       </defs>
       <use xlink:href="#DejaVuSans-53"/>
       <use xlink:href="#DejaVuSans-69" x="63.476562"/>
       <use xlink:href="#DejaVuSans-6c" x="91.259766"/>
       <use xlink:href="#DejaVuSans-76" x="119.042969"/>
       <use xlink:href="#DejaVuSans-65" x="178.222656"/>
       <use xlink:href="#DejaVuSans-72" x="239.746094"/>
       <use xlink:href="#DejaVuSans-73" x="280.859375"/>
       <use xlink:href="#DejaVuSans-74" x="332.958984"/>
       <use xlink:href="#DejaVuSans-6f" x="372.167969"/>
       <use xlink:href="#DejaVuSans-6e" x="433.349609"/>
       <use xlink:href="#DejaVuSans-65" x="496.728516"/>
      </g>
     </g>
    </g>
    <g id="xtick_28">
     <g id="line2d_28">
      <g>
       <use xlink:href="#m2e296c85dc" x="528.428571" y="320.4" style="stroke: #000000; stroke-width: 0.8"/>
      </g>
     </g>
     <g id="text_28">
      <!-- Sochi -->
      <g transform="translate(514.887946 334.998438) scale(0.1 -0.1)">
       <use xlink:href="#DejaVuSans-53"/>
       <use xlink:href="#DejaVuSans-6f" x="63.476562"/>
       <use xlink:href="#DejaVuSans-63" x="124.658203"/>
       <use xlink:href="#DejaVuSans-68" x="179.638672"/>
       <use xlink:href="#DejaVuSans-69" x="243.017578"/>
      </g>
     </g>
    </g>
    <g id="xtick_29">
     <g id="line2d_29">
      <g>
       <use xlink:href="#m2e296c85dc" x="544.371429" y="320.4" style="stroke: #000000; stroke-width: 0.8"/>
      </g>
     </g>
     <g id="text_29">
      <!-- Spa -->
      <g transform="translate(534.958929 334.998438) scale(0.1 -0.1)">
       <use xlink:href="#DejaVuSans-53"/>
       <use xlink:href="#DejaVuSans-70" x="63.476562"/>
       <use xlink:href="#DejaVuSans-61" x="126.953125"/>
      </g>
     </g>
    </g>
    <g id="xtick_30">
     <g id="line2d_30">
      <g>
       <use xlink:href="#m2e296c85dc" x="560.314286" y="320.4" style="stroke: #000000; stroke-width: 0.8"/>
      </g>
     </g>
     <g id="text_30">
      <!-- Spa-Francorchamps -->
      <g transform="translate(510.913504 334.998438) scale(0.1 -0.1)">
       <defs>
        <path id="DejaVuSans-46" d="M 628 4666 
L 3309 4666 
L 3309 4134 
L 1259 4134 
L 1259 2759 
L 3109 2759 
L 3109 2228 
L 1259 2228 
L 1259 0 
L 628 0 
L 628 4666 
z
" transform="scale(0.015625)"/>
       </defs>
       <use xlink:href="#DejaVuSans-53"/>
       <use xlink:href="#DejaVuSans-70" x="63.476562"/>
       <use xlink:href="#DejaVuSans-61" x="126.953125"/>
       <use xlink:href="#DejaVuSans-2d" x="188.232422"/>
       <use xlink:href="#DejaVuSans-46" x="224.316406"/>
       <use xlink:href="#DejaVuSans-72" x="274.585938"/>
       <use xlink:href="#DejaVuSans-61" x="315.699219"/>
       <use xlink:href="#DejaVuSans-6e" x="376.978516"/>
       <use xlink:href="#DejaVuSans-63" x="440.357422"/>
       <use xlink:href="#DejaVuSans-6f" x="495.337891"/>
       <use xlink:href="#DejaVuSans-72" x="556.519531"/>
       <use xlink:href="#DejaVuSans-63" x="595.382812"/>
       <use xlink:href="#DejaVuSans-68" x="650.363281"/>
       <use xlink:href="#DejaVuSans-61" x="713.742188"/>
       <use xlink:href="#DejaVuSans-6d" x="775.021484"/>
       <use xlink:href="#DejaVuSans-70" x="872.433594"/>
       <use xlink:href="#DejaVuSans-73" x="935.910156"/>
      </g>
     </g>
    </g>
    <g id="xtick_31">
     <g id="line2d_31">
      <g>
       <use xlink:href="#m2e296c85dc" x="576.257143" y="320.4" style="stroke: #000000; stroke-width: 0.8"/>
      </g>
     </g>
     <g id="text_31">
      <!-- Spielberg -->
      <g transform="translate(552.661049 334.998438) scale(0.1 -0.1)">
       <use xlink:href="#DejaVuSans-53"/>
       <use xlink:href="#DejaVuSans-70" x="63.476562"/>
       <use xlink:href="#DejaVuSans-69" x="126.953125"/>
       <use xlink:href="#DejaVuSans-65" x="154.736328"/>
       <use xlink:href="#DejaVuSans-6c" x="216.259766"/>
       <use xlink:href="#DejaVuSans-62" x="244.042969"/>
       <use xlink:href="#DejaVuSans-65" x="307.519531"/>
       <use xlink:href="#DejaVuSans-72" x="369.042969"/>
       <use xlink:href="#DejaVuSans-67" x="408.40625"/>
      </g>
     </g>
    </g>
    <g id="xtick_32">
     <g id="line2d_32">
      <g>
       <use xlink:href="#m2e296c85dc" x="592.2" y="320.4" style="stroke: #000000; stroke-width: 0.8"/>
      </g>
     </g>
     <g id="text_32">
      <!-- Suzuka -->
      <g transform="translate(574.192188 334.998438) scale(0.1 -0.1)">
       <use xlink:href="#DejaVuSans-53"/>
       <use xlink:href="#DejaVuSans-75" x="63.476562"/>
       <use xlink:href="#DejaVuSans-7a" x="126.855469"/>
       <use xlink:href="#DejaVuSans-75" x="179.345703"/>
       <use xlink:href="#DejaVuSans-6b" x="242.724609"/>
       <use xlink:href="#DejaVuSans-61" x="298.884766"/>
      </g>
     </g>
    </g>
    <g id="xtick_33">
     <g id="line2d_33">
      <g>
       <use xlink:href="#m2e296c85dc" x="608.142857" y="320.4" style="stroke: #000000; stroke-width: 0.8"/>
      </g>
     </g>
     <g id="text_33">
      <!-- São Paulo -->
      <g transform="translate(583.785045 334.998438) scale(0.1 -0.1)">
       <use xlink:href="#DejaVuSans-53"/>
       <use xlink:href="#DejaVuSans-e3" x="63.476562"/>
       <use xlink:href="#DejaVuSans-6f" x="124.755859"/>
       <use xlink:href="#DejaVuSans-20" x="185.9375"/>
       <use xlink:href="#DejaVuSans-50" x="217.724609"/>
       <use xlink:href="#DejaVuSans-61" x="273.527344"/>
       <use xlink:href="#DejaVuSans-75" x="334.806641"/>
       <use xlink:href="#DejaVuSans-6c" x="398.185547"/>
       <use xlink:href="#DejaVuSans-6f" x="425.96875"/>
      </g>
     </g>
    </g>
    <g id="xtick_34">
     <g id="line2d_34">
      <g>
       <use xlink:href="#m2e296c85dc" x="624.085714" y="320.4" style="stroke: #000000; stroke-width: 0.8"/>
      </g>
     </g>
     <g id="text_34">
      <!-- Yas Island -->
      <g transform="translate(599.585714 334.998438) scale(0.1 -0.1)">
       <defs>
        <path id="DejaVuSans-59" d="M -13 4666 
L 666 4666 
L 1959 2747 
L 3244 4666 
L 3922 4666 
L 2272 2222 
L 2272 0 
L 1638 0 
L 1638 2222 
L -13 4666 
z
" transform="scale(0.015625)"/>
       </defs>
       <use xlink:href="#DejaVuSans-59"/>
       <use xlink:href="#DejaVuSans-61" x="47.333984"/>
       <use xlink:href="#DejaVuSans-73" x="108.613281"/>
       <use xlink:href="#DejaVuSans-20" x="160.712891"/>
       <use xlink:href="#DejaVuSans-49" x="192.5"/>
       <use xlink:href="#DejaVuSans-73" x="221.992188"/>
       <use xlink:href="#DejaVuSans-6c" x="274.091797"/>
       <use xlink:href="#DejaVuSans-61" x="301.875"/>
       <use xlink:href="#DejaVuSans-6e" x="363.154297"/>
       <use xlink:href="#DejaVuSans-64" x="426.533203"/>
      </g>
     </g>
    </g>
    <g id="xtick_35">
     <g id="line2d_35">
      <g>
       <use xlink:href="#m2e296c85dc" x="640.028571" y="320.4" style="stroke: #000000; stroke-width: 0.8"/>
      </g>
     </g>
     <g id="text_35">
      <!-- Zandvoort -->
      <g transform="translate(614.10279 334.998438) scale(0.1 -0.1)">
       <defs>
        <path id="DejaVuSans-5a" d="M 359 4666 
L 4025 4666 
L 4025 4184 
L 1075 531 
L 4097 531 
L 4097 0 
L 288 0 
L 288 481 
L 3238 4134 
L 359 4134 
L 359 4666 
z
" transform="scale(0.015625)"/>
       </defs>
       <use xlink:href="#DejaVuSans-5a"/>
       <use xlink:href="#DejaVuSans-61" x="68.505859"/>
       <use xlink:href="#DejaVuSans-6e" x="129.785156"/>
       <use xlink:href="#DejaVuSans-64" x="193.164062"/>
       <use xlink:href="#DejaVuSans-76" x="256.640625"/>
       <use xlink:href="#DejaVuSans-6f" x="315.820312"/>
       <use xlink:href="#DejaVuSans-6f" x="377.001953"/>
       <use xlink:href="#DejaVuSans-72" x="438.183594"/>
       <use xlink:href="#DejaVuSans-74" x="479.296875"/>
      </g>
     </g>
    </g>
    <g id="text_36">
     <!-- Track -->
     <g transform="translate(355.919531 348.676562) scale(0.1 -0.1)">
      <defs>
       <path id="DejaVuSans-54" d="M -19 4666 
L 3928 4666 
L 3928 4134 
L 2272 4134 
L 2272 0 
L 1638 0 
L 1638 4134 
L -19 4134 
L -19 4666 
z
" transform="scale(0.015625)"/>
      </defs>
      <use xlink:href="#DejaVuSans-54"/>
      <use xlink:href="#DejaVuSans-72" x="46.333984"/>
      <use xlink:href="#DejaVuSans-61" x="87.447266"/>
      <use xlink:href="#DejaVuSans-63" x="148.726562"/>
      <use xlink:href="#DejaVuSans-6b" x="203.707031"/>
     </g>
    </g>
   </g>
   <g id="matplotlib.axis_2">
    <g id="ytick_1">
     <g id="line2d_36">
      <defs>
       <path id="me82fdf9d9b" d="M 0 0 
L -3.5 0 
" style="stroke: #000000; stroke-width: 0.8"/>
      </defs>
      <g>
       <use xlink:href="#me82fdf9d9b" x="90" y="320.4" style="stroke: #000000; stroke-width: 0.8"/>
      </g>
     </g>
     <g id="text_37">
      <!-- 0 -->
      <g transform="translate(76.6375 324.199219) scale(0.1 -0.1)">
       <defs>
        <path id="DejaVuSans-30" d="M 2034 4250 
Q 1547 4250 1301 3770 
Q 1056 3291 1056 2328 
Q 1056 1369 1301 889 
Q 1547 409 2034 409 
Q 2525 409 2770 889 
Q 3016 1369 3016 2328 
Q 3016 3291 2770 3770 
Q 2525 4250 2034 4250 
z
M 2034 4750 
Q 2819 4750 3233 4129 
Q 3647 3509 3647 2328 
Q 3647 1150 3233 529 
Q 2819 -91 2034 -91 
Q 1250 -91 836 529 
Q 422 1150 422 2328 
Q 422 3509 836 4129 
Q 1250 4750 2034 4750 
z
" transform="scale(0.015625)"/>
       </defs>
       <use xlink:href="#DejaVuSans-30"/>
      </g>
     </g>
    </g>
    <g id="ytick_2">
     <g id="line2d_37">
      <g>
       <use xlink:href="#me82fdf9d9b" x="90" y="277.170919" style="stroke: #000000; stroke-width: 0.8"/>
      </g>
     </g>
     <g id="text_38">
      <!-- 1000 -->
      <g transform="translate(57.55 280.970137) scale(0.1 -0.1)">
       <defs>
        <path id="DejaVuSans-31" d="M 794 531 
L 1825 531 
L 1825 4091 
L 703 3866 
L 703 4441 
L 1819 4666 
L 2450 4666 
L 2450 531 
L 3481 531 
L 3481 0 
L 794 0 
L 794 531 
z
" transform="scale(0.015625)"/>
       </defs>
       <use xlink:href="#DejaVuSans-31"/>
       <use xlink:href="#DejaVuSans-30" x="63.623047"/>
       <use xlink:href="#DejaVuSans-30" x="127.246094"/>
       <use xlink:href="#DejaVuSans-30" x="190.869141"/>
      </g>
     </g>
    </g>
    <g id="ytick_3">
     <g id="line2d_38">
      <g>
       <use xlink:href="#me82fdf9d9b" x="90" y="233.941837" style="stroke: #000000; stroke-width: 0.8"/>
      </g>
     </g>
     <g id="text_39">
      <!-- 2000 -->
      <g transform="translate(57.55 237.741056) scale(0.1 -0.1)">
       <defs>
        <path id="DejaVuSans-32" d="M 1228 531 
L 3431 531 
L 3431 0 
L 469 0 
L 469 531 
Q 828 903 1448 1529 
Q 2069 2156 2228 2338 
Q 2531 2678 2651 2914 
Q 2772 3150 2772 3378 
Q 2772 3750 2511 3984 
Q 2250 4219 1831 4219 
Q 1534 4219 1204 4116 
Q 875 4013 500 3803 
L 500 4441 
Q 881 4594 1212 4672 
Q 1544 4750 1819 4750 
Q 2544 4750 2975 4387 
Q 3406 4025 3406 3419 
Q 3406 3131 3298 2873 
Q 3191 2616 2906 2266 
Q 2828 2175 2409 1742 
Q 1991 1309 1228 531 
z
" transform="scale(0.015625)"/>
       </defs>
       <use xlink:href="#DejaVuSans-32"/>
       <use xlink:href="#DejaVuSans-30" x="63.623047"/>
       <use xlink:href="#DejaVuSans-30" x="127.246094"/>
       <use xlink:href="#DejaVuSans-30" x="190.869141"/>
      </g>
     </g>
    </g>
    <g id="ytick_4">
     <g id="line2d_39">
      <g>
       <use xlink:href="#me82fdf9d9b" x="90" y="190.712756" style="stroke: #000000; stroke-width: 0.8"/>
      </g>
     </g>
     <g id="text_40">
      <!-- 3000 -->
      <g transform="translate(57.55 194.511975) scale(0.1 -0.1)">
       <defs>
        <path id="DejaVuSans-33" d="M 2597 2516 
Q 3050 2419 3304 2112 
Q 3559 1806 3559 1356 
Q 3559 666 3084 287 
Q 2609 -91 1734 -91 
Q 1441 -91 1130 -33 
Q 819 25 488 141 
L 488 750 
Q 750 597 1062 519 
Q 1375 441 1716 441 
Q 2309 441 2620 675 
Q 2931 909 2931 1356 
Q 2931 1769 2642 2001 
Q 2353 2234 1838 2234 
L 1294 2234 
L 1294 2753 
L 1863 2753 
Q 2328 2753 2575 2939 
Q 2822 3125 2822 3475 
Q 2822 3834 2567 4026 
Q 2313 4219 1838 4219 
Q 1578 4219 1281 4162 
Q 984 4106 628 3988 
L 628 4550 
Q 988 4650 1302 4700 
Q 1616 4750 1894 4750 
Q 2613 4750 3031 4423 
Q 3450 4097 3450 3541 
Q 3450 3153 3228 2886 
Q 3006 2619 2597 2516 
z
" transform="scale(0.015625)"/>
       </defs>
       <use xlink:href="#DejaVuSans-33"/>
       <use xlink:href="#DejaVuSans-30" x="63.623047"/>
       <use xlink:href="#DejaVuSans-30" x="127.246094"/>
       <use xlink:href="#DejaVuSans-30" x="190.869141"/>
      </g>
     </g>
    </g>
    <g id="ytick_5">
     <g id="line2d_40">
      <g>
       <use xlink:href="#me82fdf9d9b" x="90" y="147.483674" style="stroke: #000000; stroke-width: 0.8"/>
      </g>
     </g>
     <g id="text_41">
      <!-- 4000 -->
      <g transform="translate(57.55 151.282893) scale(0.1 -0.1)">
       <defs>
        <path id="DejaVuSans-34" d="M 2419 4116 
L 825 1625 
L 2419 1625 
L 2419 4116 
z
M 2253 4666 
L 3047 4666 
L 3047 1625 
L 3713 1625 
L 3713 1100 
L 3047 1100 
L 3047 0 
L 2419 0 
L 2419 1100 
L 313 1100 
L 313 1709 
L 2253 4666 
z
" transform="scale(0.015625)"/>
       </defs>
       <use xlink:href="#DejaVuSans-34"/>
       <use xlink:href="#DejaVuSans-30" x="63.623047"/>
       <use xlink:href="#DejaVuSans-30" x="127.246094"/>
       <use xlink:href="#DejaVuSans-30" x="190.869141"/>
      </g>
     </g>
    </g>
    <g id="ytick_6">
     <g id="line2d_41">
      <g>
       <use xlink:href="#me82fdf9d9b" x="90" y="104.254593" style="stroke: #000000; stroke-width: 0.8"/>
      </g>
     </g>
     <g id="text_42">
      <!-- 5000 -->
      <g transform="translate(57.55 108.053812) scale(0.1 -0.1)">
       <defs>
        <path id="DejaVuSans-35" d="M 691 4666 
L 3169 4666 
L 3169 4134 
L 1269 4134 
L 1269 2991 
Q 1406 3038 1543 3061 
Q 1681 3084 1819 3084 
Q 2600 3084 3056 2656 
Q 3513 2228 3513 1497 
Q 3513 744 3044 326 
Q 2575 -91 1722 -91 
Q 1428 -91 1123 -41 
Q 819 9 494 109 
L 494 744 
Q 775 591 1075 516 
Q 1375 441 1709 441 
Q 2250 441 2565 725 
Q 2881 1009 2881 1497 
Q 2881 1984 2565 2268 
Q 2250 2553 1709 2553 
Q 1456 2553 1204 2497 
Q 953 2441 691 2322 
L 691 4666 
z
" transform="scale(0.015625)"/>
       </defs>
       <use xlink:href="#DejaVuSans-35"/>
       <use xlink:href="#DejaVuSans-30" x="63.623047"/>
       <use xlink:href="#DejaVuSans-30" x="127.246094"/>
       <use xlink:href="#DejaVuSans-30" x="190.869141"/>
      </g>
     </g>
    </g>
    <g id="ytick_7">
     <g id="line2d_42">
      <g>
       <use xlink:href="#me82fdf9d9b" x="90" y="61.025512" style="stroke: #000000; stroke-width: 0.8"/>
      </g>
     </g>
     <g id="text_43">
      <!-- 6000 -->
      <g transform="translate(57.55 64.82473) scale(0.1 -0.1)">
       <defs>
        <path id="DejaVuSans-36" d="M 2113 2584 
Q 1688 2584 1439 2293 
Q 1191 2003 1191 1497 
Q 1191 994 1439 701 
Q 1688 409 2113 409 
Q 2538 409 2786 701 
Q 3034 994 3034 1497 
Q 3034 2003 2786 2293 
Q 2538 2584 2113 2584 
z
M 3366 4563 
L 3366 3988 
Q 3128 4100 2886 4159 
Q 2644 4219 2406 4219 
Q 1781 4219 1451 3797 
Q 1122 3375 1075 2522 
Q 1259 2794 1537 2939 
Q 1816 3084 2150 3084 
Q 2853 3084 3261 2657 
Q 3669 2231 3669 1497 
Q 3669 778 3244 343 
Q 2819 -91 2113 -91 
Q 1303 -91 875 529 
Q 447 1150 447 2328 
Q 447 3434 972 4092 
Q 1497 4750 2381 4750 
Q 2619 4750 2861 4703 
Q 3103 4656 3366 4563 
z
" transform="scale(0.015625)"/>
       </defs>
       <use xlink:href="#DejaVuSans-36"/>
       <use xlink:href="#DejaVuSans-30" x="63.623047"/>
       <use xlink:href="#DejaVuSans-30" x="127.246094"/>
       <use xlink:href="#DejaVuSans-30" x="190.869141"/>
      </g>
     </g>
    </g>
    <g id="text_44">
     <!-- count -->
     <g transform="translate(51.470312 195.90625) rotate(-90) scale(0.1 -0.1)">
      <use xlink:href="#DejaVuSans-63"/>
      <use xlink:href="#DejaVuSans-6f" x="54.980469"/>
      <use xlink:href="#DejaVuSans-75" x="116.162109"/>
      <use xlink:href="#DejaVuSans-6e" x="179.541016"/>
      <use xlink:href="#DejaVuSans-74" x="242.919922"/>
     </g>
    </g>
   </g>
   <g id="patch_73">
    <path d="M 90 320.4 
L 90 43.2 
" style="fill: none; stroke: #000000; stroke-width: 0.8; stroke-linejoin: miter; stroke-linecap: square"/>
   </g>
   <g id="patch_74">
    <path d="M 648 320.4 
L 648 43.2 
" style="fill: none; stroke: #000000; stroke-width: 0.8; stroke-linejoin: miter; stroke-linecap: square"/>
   </g>
   <g id="patch_75">
    <path d="M 90 320.4 
L 648 320.4 
" style="fill: none; stroke: #000000; stroke-width: 0.8; stroke-linejoin: miter; stroke-linecap: square"/>
   </g>
   <g id="patch_76">
    <path d="M 90 43.2 
L 648 43.2 
" style="fill: none; stroke: #000000; stroke-width: 0.8; stroke-linejoin: miter; stroke-linecap: square"/>
   </g>
   <g id="text_45">
    <!-- Distribution of Track -->
    <g transform="translate(308.70375 37.2) scale(0.12 -0.12)">
     <defs>
      <path id="DejaVuSans-66" d="M 2375 4863 
L 2375 4384 
L 1825 4384 
Q 1516 4384 1395 4259 
Q 1275 4134 1275 3809 
L 1275 3500 
L 2222 3500 
L 2222 3053 
L 1275 3053 
L 1275 0 
L 697 0 
L 697 3053 
L 147 3053 
L 147 3500 
L 697 3500 
L 697 3744 
Q 697 4328 969 4595 
Q 1241 4863 1831 4863 
L 2375 4863 
z
" transform="scale(0.015625)"/>
     </defs>
     <use xlink:href="#DejaVuSans-44"/>
     <use xlink:href="#DejaVuSans-69" x="77.001953"/>
     <use xlink:href="#DejaVuSans-73" x="104.785156"/>
     <use xlink:href="#DejaVuSans-74" x="156.884766"/>
     <use xlink:href="#DejaVuSans-72" x="196.09375"/>
     <use xlink:href="#DejaVuSans-69" x="237.207031"/>
     <use xlink:href="#DejaVuSans-62" x="264.990234"/>
     <use xlink:href="#DejaVuSans-75" x="328.466797"/>
     <use xlink:href="#DejaVuSans-74" x="391.845703"/>
     <use xlink:href="#DejaVuSans-69" x="431.054688"/>
     <use xlink:href="#DejaVuSans-6f" x="458.837891"/>
     <use xlink:href="#DejaVuSans-6e" x="520.019531"/>
     <use xlink:href="#DejaVuSans-20" x="583.398438"/>
     <use xlink:href="#DejaVuSans-6f" x="615.185547"/>
     <use xlink:href="#DejaVuSans-66" x="676.367188"/>
     <use xlink:href="#DejaVuSans-20" x="711.572266"/>
     <use xlink:href="#DejaVuSans-54" x="743.359375"/>
     <use xlink:href="#DejaVuSans-72" x="789.693359"/>
     <use xlink:href="#DejaVuSans-61" x="830.806641"/>
     <use xlink:href="#DejaVuSans-63" x="892.085938"/>
     <use xlink:href="#DejaVuSans-6b" x="947.066406"/>
    </g>
   </g>
   <g id="legend_1">
    <g id="patch_77">
     <path d="M 583.892187 80.55625 
L 641 80.55625 
Q 643 80.55625 643 78.55625 
L 643 50.2 
Q 643 48.2 641 48.2 
L 583.892187 48.2 
Q 581.892187 48.2 581.892187 50.2 
L 581.892187 78.55625 
Q 581.892187 80.55625 583.892187 80.55625 
z
" style="fill: #ffffff; opacity: 0.8; stroke: #cccccc; stroke-linejoin: miter"/>
    </g>
    <g id="patch_78">
     <path d="M 585.892187 59.798437 
L 605.892187 59.798437 
L 605.892187 52.798437 
L 585.892187 52.798437 
z
" style="fill: #3274a1"/>
    </g>
    <g id="text_46">
     <!-- False -->
     <g transform="translate(613.892187 59.798437) scale(0.1 -0.1)">
      <use xlink:href="#DejaVuSans-46"/>
      <use xlink:href="#DejaVuSans-61" x="48.394531"/>
      <use xlink:href="#DejaVuSans-6c" x="109.673828"/>
      <use xlink:href="#DejaVuSans-73" x="137.457031"/>
      <use xlink:href="#DejaVuSans-65" x="189.556641"/>
     </g>
    </g>
    <g id="patch_79">
     <path d="M 585.892187 74.476562 
L 605.892187 74.476562 
L 605.892187 67.476562 
L 585.892187 67.476562 
z
" style="fill: #e1812c"/>
    </g>
    <g id="text_47">
     <!-- True -->
     <g transform="translate(613.892187 74.476562) scale(0.1 -0.1)">
      <use xlink:href="#DejaVuSans-54"/>
      <use xlink:href="#DejaVuSans-72" x="46.333984"/>
      <use xlink:href="#DejaVuSans-75" x="87.447266"/>
      <use xlink:href="#DejaVuSans-65" x="150.826172"/>
     </g>
    </g>
   </g>
  </g>
 </g>
 <defs>
  <clipPath id="pb36827e7c1">
   <rect x="90" y="43.2" width="558" height="277.2"/>
  </clipPath>
 </defs>
</svg>
