<?xml version="1.0" encoding="utf-8" standalone="no"?>
<!DOCTYPE svg PUBLIC "-//W3C//DTD SVG 1.1//EN"
  "http://www.w3.org/Graphics/SVG/1.1/DTD/svg11.dtd">
<svg xmlns:xlink="http://www.w3.org/1999/xlink" width="764.620625pt" height="447.954375pt" viewBox="0 0 764.620625 447.954375" xmlns="http://www.w3.org/2000/svg" version="1.1">
 <metadata>
  <rdf:RDF xmlns:dc="http://purl.org/dc/elements/1.1/" xmlns:cc="http://creativecommons.org/ns#" xmlns:rdf="http://www.w3.org/1999/02/22-rdf-syntax-ns#">
   <cc:Work>
    <dc:type rdf:resource="http://purl.org/dc/dcmitype/StillImage"/>
    <dc:date>2023-07-26T13:28:45.843508</dc:date>
    <dc:format>image/svg+xml</dc:format>
    <dc:creator>
     <cc:Agent>
      <dc:title>Matplotlib v3.7.2, https://matplotlib.org/</dc:title>
     </cc:Agent>
    </dc:creator>
   </cc:Work>
  </rdf:RDF>
 </metadata>
 <defs>
  <style type="text/css">*{stroke-linejoin: round; stroke-linecap: butt}</style>
 </defs>
 <g id="figure_1">
  <g id="patch_1">
   <path d="M 0 447.954375 
L 764.620625 447.954375 
L 764.620625 0 
L 0 0 
z
" style="fill: #ffffff"/>
  </g>
  <g id="axes_1">
   <g id="patch_2">
    <path d="M 43.78125 410.398125 
L 601.78125 410.398125 
L 601.78125 22.318125 
L 43.78125 22.318125 
z
" style="fill: #ffffff"/>
   </g>
   <g id="patch_3">
    <path d="M 35.575368 26.198925 
L 35.575368 22.318125 
L 43.78125 22.318125 
L 43.78125 26.198925 
z
" clip-path="url(#p099cc37943)" style="fill: #ff0000"/>
   </g>
   <g id="patch_4">
    <path d="M 43.78125 26.198925 
L 43.78125 22.318125 
L 51.987132 22.318125 
L 51.987132 26.198925 
z
" clip-path="url(#p099cc37943)" style="fill: #ff0000"/>
   </g>
   <g id="patch_5">
    <path d="M 51.987132 26.198925 
L 51.987132 22.318125 
L 60.193015 22.318125 
L 60.193015 26.198925 
z
" clip-path="url(#p099cc37943)" style="fill: #ff0000"/>
   </g>
   <g id="patch_6">
    <path d="M 60.193015 26.198925 
L 60.193015 22.318125 
L 68.398897 22.318125 
L 68.398897 26.198925 
z
" clip-path="url(#p099cc37943)" style="fill: #ff0000"/>
   </g>
   <g id="patch_7">
    <path d="M 68.398897 26.198925 
L 68.398897 22.318125 
L 76.604779 22.318125 
L 76.604779 26.198925 
z
" clip-path="url(#p099cc37943)" style="fill: #ff0000"/>
   </g>
   <g id="patch_8">
    <path d="M 76.604779 26.198925 
L 76.604779 22.318125 
L 84.810662 22.318125 
L 84.810662 26.198925 
z
" clip-path="url(#p099cc37943)" style="fill: #ff0000"/>
   </g>
   <g id="patch_9">
    <path d="M 84.810662 26.198925 
L 84.810662 22.318125 
L 93.016544 22.318125 
L 93.016544 26.198925 
z
" clip-path="url(#p099cc37943)" style="fill: #ff0000"/>
   </g>
   <g id="patch_10">
    <path d="M 93.016544 26.198925 
L 93.016544 22.318125 
L 101.222426 22.318125 
L 101.222426 26.198925 
z
" clip-path="url(#p099cc37943)" style="fill: #ff0000"/>
   </g>
   <g id="patch_11">
    <path d="M 101.222426 26.198925 
L 101.222426 22.318125 
L 109.428309 22.318125 
L 109.428309 26.198925 
z
" clip-path="url(#p099cc37943)" style="fill: #ff0000"/>
   </g>
   <g id="patch_12">
    <path d="M 109.428309 26.198925 
L 109.428309 22.318125 
L 117.634191 22.318125 
L 117.634191 26.198925 
z
" clip-path="url(#p099cc37943)" style="fill: #808080"/>
   </g>
   <g id="patch_13">
    <path d="M 117.634191 26.198925 
L 117.634191 22.318125 
L 125.840074 22.318125 
L 125.840074 26.198925 
z
" clip-path="url(#p099cc37943)" style="fill: #808080"/>
   </g>
   <g id="patch_14">
    <path d="M 125.840074 26.198925 
L 125.840074 22.318125 
L 134.045956 22.318125 
L 134.045956 26.198925 
z
" clip-path="url(#p099cc37943)" style="fill: #808080"/>
   </g>
   <g id="patch_15">
    <path d="M 134.045956 26.198925 
L 134.045956 22.318125 
L 142.251838 22.318125 
L 142.251838 26.198925 
z
" clip-path="url(#p099cc37943)" style="fill: #808080"/>
   </g>
   <g id="patch_16">
    <path d="M 142.251838 26.198925 
L 142.251838 22.318125 
L 150.457721 22.318125 
L 150.457721 26.198925 
z
" clip-path="url(#p099cc37943)" style="fill: #808080"/>
   </g>
   <g id="patch_17">
    <path d="M 150.457721 26.198925 
L 150.457721 22.318125 
L 158.663603 22.318125 
L 158.663603 26.198925 
z
" clip-path="url(#p099cc37943)" style="fill: #808080"/>
   </g>
   <g id="patch_18">
    <path d="M 158.663603 26.198925 
L 158.663603 22.318125 
L 166.869485 22.318125 
L 166.869485 26.198925 
z
" clip-path="url(#p099cc37943)" style="fill: #808080"/>
   </g>
   <g id="patch_19">
    <path d="M 166.869485 26.198925 
L 166.869485 22.318125 
L 175.075368 22.318125 
L 175.075368 26.198925 
z
" clip-path="url(#p099cc37943)" style="fill: #808080"/>
   </g>
   <g id="patch_20">
    <path d="M 175.075368 26.198925 
L 175.075368 22.318125 
L 183.28125 22.318125 
L 183.28125 26.198925 
z
" clip-path="url(#p099cc37943)" style="fill: #808080"/>
   </g>
   <g id="patch_21">
    <path d="M 183.28125 26.198925 
L 183.28125 22.318125 
L 191.487132 22.318125 
L 191.487132 26.198925 
z
" clip-path="url(#p099cc37943)" style="fill: #808080"/>
   </g>
   <g id="patch_22">
    <path d="M 191.487132 26.198925 
L 191.487132 22.318125 
L 199.693015 22.318125 
L 199.693015 26.198925 
z
" clip-path="url(#p099cc37943)" style="fill: #808080"/>
   </g>
   <g id="patch_23">
    <path d="M 199.693015 26.198925 
L 199.693015 22.318125 
L 207.898897 22.318125 
L 207.898897 26.198925 
z
" clip-path="url(#p099cc37943)" style="fill: #808080"/>
   </g>
   <g id="patch_24">
    <path d="M 207.898897 26.198925 
L 207.898897 22.318125 
L 216.104779 22.318125 
L 216.104779 26.198925 
z
" clip-path="url(#p099cc37943)" style="fill: #808080"/>
   </g>
   <g id="patch_25">
    <path d="M 216.104779 26.198925 
L 216.104779 22.318125 
L 224.310662 22.318125 
L 224.310662 26.198925 
z
" clip-path="url(#p099cc37943)" style="fill: #808080"/>
   </g>
   <g id="patch_26">
    <path d="M 224.310662 26.198925 
L 224.310662 22.318125 
L 232.516544 22.318125 
L 232.516544 26.198925 
z
" clip-path="url(#p099cc37943)" style="fill: #808080"/>
   </g>
   <g id="patch_27">
    <path d="M 232.516544 26.198925 
L 232.516544 22.318125 
L 240.722426 22.318125 
L 240.722426 26.198925 
z
" clip-path="url(#p099cc37943)" style="fill: #808080"/>
   </g>
   <g id="patch_28">
    <path d="M 240.722426 26.198925 
L 240.722426 22.318125 
L 248.928309 22.318125 
L 248.928309 26.198925 
z
" clip-path="url(#p099cc37943)" style="fill: #808080"/>
   </g>
   <g id="patch_29">
    <path d="M 248.928309 26.198925 
L 248.928309 22.318125 
L 257.134191 22.318125 
L 257.134191 26.198925 
z
" clip-path="url(#p099cc37943)" style="fill: #808080"/>
   </g>
   <g id="patch_30">
    <path d="M 257.134191 26.198925 
L 257.134191 22.318125 
L 265.340074 22.318125 
L 265.340074 26.198925 
z
" clip-path="url(#p099cc37943)" style="fill: #808080"/>
   </g>
   <g id="patch_31">
    <path d="M 265.340074 26.198925 
L 265.340074 22.318125 
L 273.545956 22.318125 
L 273.545956 26.198925 
z
" clip-path="url(#p099cc37943)" style="fill: #808080"/>
   </g>
   <g id="patch_32">
    <path d="M 273.545956 26.198925 
L 273.545956 22.318125 
L 281.751838 22.318125 
L 281.751838 26.198925 
z
" clip-path="url(#p099cc37943)" style="fill: #808080"/>
   </g>
   <g id="patch_33">
    <path d="M 281.751838 26.198925 
L 281.751838 22.318125 
L 289.957721 22.318125 
L 289.957721 26.198925 
z
" clip-path="url(#p099cc37943)" style="fill: #808080"/>
   </g>
   <g id="patch_34">
    <path d="M 289.957721 26.198925 
L 289.957721 22.318125 
L 298.163603 22.318125 
L 298.163603 26.198925 
z
" clip-path="url(#p099cc37943)" style="fill: #808080"/>
   </g>
   <g id="patch_35">
    <path d="M 298.163603 26.198925 
L 298.163603 22.318125 
L 306.369485 22.318125 
L 306.369485 26.198925 
z
" clip-path="url(#p099cc37943)" style="fill: #808080"/>
   </g>
   <g id="patch_36">
    <path d="M 306.369485 26.198925 
L 306.369485 22.318125 
L 314.575368 22.318125 
L 314.575368 26.198925 
z
" clip-path="url(#p099cc37943)" style="fill: #808080"/>
   </g>
   <g id="patch_37">
    <path d="M 314.575368 26.198925 
L 314.575368 22.318125 
L 322.78125 22.318125 
L 322.78125 26.198925 
z
" clip-path="url(#p099cc37943)" style="fill: #808080"/>
   </g>
   <g id="patch_38">
    <path d="M 322.78125 26.198925 
L 322.78125 22.318125 
L 330.987132 22.318125 
L 330.987132 26.198925 
z
" clip-path="url(#p099cc37943)" style="fill: #808080"/>
   </g>
   <g id="patch_39">
    <path d="M 330.987132 26.198925 
L 330.987132 22.318125 
L 339.193015 22.318125 
L 339.193015 26.198925 
z
" clip-path="url(#p099cc37943)" style="fill: #808080"/>
   </g>
   <g id="patch_40">
    <path d="M 339.193015 26.198925 
L 339.193015 22.318125 
L 347.398897 22.318125 
L 347.398897 26.198925 
z
" clip-path="url(#p099cc37943)" style="fill: #808080"/>
   </g>
   <g id="patch_41">
    <path d="M 347.398897 26.198925 
L 347.398897 22.318125 
L 355.604779 22.318125 
L 355.604779 26.198925 
z
" clip-path="url(#p099cc37943)" style="fill: #808080"/>
   </g>
   <g id="patch_42">
    <path d="M 355.604779 26.198925 
L 355.604779 22.318125 
L 363.810662 22.318125 
L 363.810662 26.198925 
z
" clip-path="url(#p099cc37943)" style="fill: #808080"/>
   </g>
   <g id="patch_43">
    <path d="M 363.810662 26.198925 
L 363.810662 22.318125 
L 372.016544 22.318125 
L 372.016544 26.198925 
z
" clip-path="url(#p099cc37943)" style="fill: #808080"/>
   </g>
   <g id="patch_44">
    <path d="M 372.016544 26.198925 
L 372.016544 22.318125 
L 380.222426 22.318125 
L 380.222426 26.198925 
z
" clip-path="url(#p099cc37943)" style="fill: #808080"/>
   </g>
   <g id="patch_45">
    <path d="M 380.222426 26.198925 
L 380.222426 22.318125 
L 388.428309 22.318125 
L 388.428309 26.198925 
z
" clip-path="url(#p099cc37943)" style="fill: #808080"/>
   </g>
   <g id="patch_46">
    <path d="M 388.428309 26.198925 
L 388.428309 22.318125 
L 396.634191 22.318125 
L 396.634191 26.198925 
z
" clip-path="url(#p099cc37943)" style="fill: #808080"/>
   </g>
   <g id="patch_47">
    <path d="M 396.634191 26.198925 
L 396.634191 22.318125 
L 404.840074 22.318125 
L 404.840074 26.198925 
z
" clip-path="url(#p099cc37943)" style="fill: #808080"/>
   </g>
   <g id="patch_48">
    <path d="M 404.840074 26.198925 
L 404.840074 22.318125 
L 413.045956 22.318125 
L 413.045956 26.198925 
z
" clip-path="url(#p099cc37943)" style="fill: #808080"/>
   </g>
   <g id="patch_49">
    <path d="M 413.045956 26.198925 
L 413.045956 22.318125 
L 421.251838 22.318125 
L 421.251838 26.198925 
z
" clip-path="url(#p099cc37943)" style="fill: #808080"/>
   </g>
   <g id="patch_50">
    <path d="M 421.251838 26.198925 
L 421.251838 22.318125 
L 429.457721 22.318125 
L 429.457721 26.198925 
z
" clip-path="url(#p099cc37943)" style="fill: #808080"/>
   </g>
   <g id="patch_51">
    <path d="M 429.457721 26.198925 
L 429.457721 22.318125 
L 437.663603 22.318125 
L 437.663603 26.198925 
z
" clip-path="url(#p099cc37943)" style="fill: #808080"/>
   </g>
   <g id="patch_52">
    <path d="M 437.663603 26.198925 
L 437.663603 22.318125 
L 445.869485 22.318125 
L 445.869485 26.198925 
z
" clip-path="url(#p099cc37943)" style="fill: #808080"/>
   </g>
   <g id="patch_53">
    <path d="M 445.869485 26.198925 
L 445.869485 22.318125 
L 454.075368 22.318125 
L 454.075368 26.198925 
z
" clip-path="url(#p099cc37943)" style="fill: #808080"/>
   </g>
   <g id="patch_54">
    <path d="M 454.075368 26.198925 
L 454.075368 22.318125 
L 462.28125 22.318125 
L 462.28125 26.198925 
z
" clip-path="url(#p099cc37943)" style="fill: #808080"/>
   </g>
   <g id="patch_55">
    <path d="M 462.28125 26.198925 
L 462.28125 22.318125 
L 470.487132 22.318125 
L 470.487132 26.198925 
z
" clip-path="url(#p099cc37943)" style="fill: #808080"/>
   </g>
   <g id="patch_56">
    <path d="M 470.487132 26.198925 
L 470.487132 22.318125 
L 478.693015 22.318125 
L 478.693015 26.198925 
z
" clip-path="url(#p099cc37943)" style="fill: #808080"/>
   </g>
   <g id="patch_57">
    <path d="M 478.693015 26.198925 
L 478.693015 22.318125 
L 486.898897 22.318125 
L 486.898897 26.198925 
z
" clip-path="url(#p099cc37943)" style="fill: #808080"/>
   </g>
   <g id="patch_58">
    <path d="M 486.898897 26.198925 
L 486.898897 22.318125 
L 495.104779 22.318125 
L 495.104779 26.198925 
z
" clip-path="url(#p099cc37943)" style="fill: #808080"/>
   </g>
   <g id="patch_59">
    <path d="M 495.104779 26.198925 
L 495.104779 22.318125 
L 503.310662 22.318125 
L 503.310662 26.198925 
z
" clip-path="url(#p099cc37943)" style="fill: #808080"/>
   </g>
   <g id="patch_60">
    <path d="M 503.310662 26.198925 
L 503.310662 22.318125 
L 511.516544 22.318125 
L 511.516544 26.198925 
z
" clip-path="url(#p099cc37943)" style="fill: #808080"/>
   </g>
   <g id="patch_61">
    <path d="M 511.516544 26.198925 
L 511.516544 22.318125 
L 519.722426 22.318125 
L 519.722426 26.198925 
z
" clip-path="url(#p099cc37943)" style="fill: #808080"/>
   </g>
   <g id="patch_62">
    <path d="M 519.722426 26.198925 
L 519.722426 22.318125 
L 527.928309 22.318125 
L 527.928309 26.198925 
z
" clip-path="url(#p099cc37943)" style="fill: #808080"/>
   </g>
   <g id="patch_63">
    <path d="M 527.928309 26.198925 
L 527.928309 22.318125 
L 536.134191 22.318125 
L 536.134191 26.198925 
z
" clip-path="url(#p099cc37943)" style="fill: #808080"/>
   </g>
   <g id="patch_64">
    <path d="M 536.134191 26.198925 
L 536.134191 22.318125 
L 544.340074 22.318125 
L 544.340074 26.198925 
z
" clip-path="url(#p099cc37943)" style="fill: #808080"/>
   </g>
   <g id="patch_65">
    <path d="M 544.340074 26.198925 
L 544.340074 22.318125 
L 552.545956 22.318125 
L 552.545956 26.198925 
z
" clip-path="url(#p099cc37943)" style="fill: #808080"/>
   </g>
   <g id="patch_66">
    <path d="M 552.545956 26.198925 
L 552.545956 22.318125 
L 560.751838 22.318125 
L 560.751838 26.198925 
z
" clip-path="url(#p099cc37943)" style="fill: #808080"/>
   </g>
   <g id="patch_67">
    <path d="M 560.751838 26.198925 
L 560.751838 22.318125 
L 568.957721 22.318125 
L 568.957721 26.198925 
z
" clip-path="url(#p099cc37943)" style="fill: #808080"/>
   </g>
   <g id="patch_68">
    <path d="M 568.957721 26.198925 
L 568.957721 22.318125 
L 577.163603 22.318125 
L 577.163603 26.198925 
z
" clip-path="url(#p099cc37943)" style="fill: #808080"/>
   </g>
   <g id="patch_69">
    <path d="M 577.163603 26.198925 
L 577.163603 22.318125 
L 585.369485 22.318125 
L 585.369485 26.198925 
z
" clip-path="url(#p099cc37943)" style="fill: #808080"/>
   </g>
   <g id="patch_70">
    <path d="M 585.369485 26.198925 
L 585.369485 22.318125 
L 593.575368 22.318125 
L 593.575368 26.198925 
z
" clip-path="url(#p099cc37943)" style="fill: #808080"/>
   </g>
   <g id="patch_71">
    <path d="M 593.575368 26.198925 
L 593.575368 22.318125 
L 601.78125 22.318125 
L 601.78125 26.198925 
z
" clip-path="url(#p099cc37943)" style="fill: #808080"/>
   </g>
   <g id="patch_72">
    <path d="M 84.810662 410.398125 
L 84.810662 22.318125 
L 93.016544 22.318125 
L 93.016544 410.398125 
z
" clip-path="url(#p099cc37943)" style="fill: url(#h142cc369c7); opacity: 0.3; stroke: #000000; stroke-linejoin: miter"/>
   </g>
   <g id="patch_73">
    <path d="M 93.016544 410.398125 
L 93.016544 22.318125 
L 101.222426 22.318125 
L 101.222426 410.398125 
z
" clip-path="url(#p099cc37943)" style="fill: url(#h142cc369c7); opacity: 0.3; stroke: #000000; stroke-linejoin: miter"/>
   </g>
   <g id="patch_74">
    <path d="M 125.840074 410.398125 
L 125.840074 22.318125 
L 134.045956 22.318125 
L 134.045956 410.398125 
z
" clip-path="url(#p099cc37943)" style="fill: url(#h7a4c4f0045); opacity: 0.3; stroke: #000000; stroke-linejoin: miter"/>
   </g>
   <g id="patch_75">
    <path d="M 134.045956 410.398125 
L 134.045956 22.318125 
L 142.251838 22.318125 
L 142.251838 410.398125 
z
" clip-path="url(#p099cc37943)" style="fill: url(#h7a4c4f0045); opacity: 0.3; stroke: #000000; stroke-linejoin: miter"/>
   </g>
   <g id="patch_76">
    <path d="M 142.251838 410.398125 
L 142.251838 22.318125 
L 150.457721 22.318125 
L 150.457721 410.398125 
z
" clip-path="url(#p099cc37943)" style="fill: url(#h7a4c4f0045); opacity: 0.3; stroke: #000000; stroke-linejoin: miter"/>
   </g>
   <g id="patch_77">
    <path d="M 150.457721 410.398125 
L 150.457721 22.318125 
L 158.663603 22.318125 
L 158.663603 410.398125 
z
" clip-path="url(#p099cc37943)" style="fill: url(#h7a4c4f0045); opacity: 0.3; stroke: #000000; stroke-linejoin: miter"/>
   </g>
   <g id="patch_78">
    <path d="M 158.663603 410.398125 
L 158.663603 22.318125 
L 166.869485 22.318125 
L 166.869485 410.398125 
z
" clip-path="url(#p099cc37943)" style="fill: url(#h7a4c4f0045); opacity: 0.3; stroke: #000000; stroke-linejoin: miter"/>
   </g>
   <g id="patch_79">
    <path d="M 257.134191 410.398125 
L 257.134191 22.318125 
L 265.340074 22.318125 
L 265.340074 410.398125 
z
" clip-path="url(#p099cc37943)" style="fill: #ffff00; opacity: 0.3"/>
   </g>
   <g id="patch_80">
    <path d="M 306.369485 410.398125 
L 306.369485 22.318125 
L 314.575368 22.318125 
L 314.575368 410.398125 
z
" clip-path="url(#p099cc37943)" style="fill: #ffff00; opacity: 0.3"/>
   </g>
   <g id="patch_81">
    <path d="M 314.575368 410.398125 
L 314.575368 22.318125 
L 322.78125 22.318125 
L 322.78125 410.398125 
z
" clip-path="url(#p099cc37943)" style="fill: #ffff00; opacity: 0.3"/>
   </g>
   <g id="LineCollection_1">
    <path d="M 43.78125 216.358125 
L 601.78125 216.358125 
" clip-path="url(#p099cc37943)" style="fill: none; stroke-dasharray: 1,1.65; stroke-dashoffset: 0; stroke: #000000"/>
   </g>
   <g id="LineCollection_2">
    <path d="M 101.222426 410.398125 
L 101.222426 22.318125 
" clip-path="url(#p099cc37943)" style="fill: none; stroke-dasharray: 3.7,1.6; stroke-dashoffset: 0; stroke: #ff0000"/>
    <path d="M 289.957721 410.398125 
L 289.957721 22.318125 
" clip-path="url(#p099cc37943)" style="fill: none; stroke-dasharray: 3.7,1.6; stroke-dashoffset: 0; stroke: #ff0000"/>
   </g>
   <g id="line2d_1">
    <path d="M 43.78125 280.565534 
L 51.987132 274.207936 
L 60.193015 273.184295 
L 68.398897 266.613708 
L 76.604779 252.599122 
L 84.810662 258.434125 
L 93.016544 228.479038 
L 101.222426 228.894891 
L 109.428309 216.394976 
L 117.634191 296.02257 
L 125.840074 301.51614 
L 134.045956 291.418136 
L 142.251838 290.431895 
L 150.457721 290.657448 
L 158.663603 297.183049 
L 166.869485 309.937993 
L 175.075368 307.132295 
L 183.28125 304.410767 
L 191.487132 301.946005 
L 199.693015 283.830121 
L 207.898897 258.706314 
L 216.104779 244.719762 
L 224.310662 241.567413 
L 232.516544 236.107034 
L 240.722426 234.653533 
L 248.928309 233.739362 
L 257.134191 233.742409 
L 265.340074 226.904098 
L 273.545956 225.613669 
L 281.751838 224.857681 
L 289.957721 224.29222 
L 298.163603 210.804439 
L 306.369485 303.237077 
L 314.575368 302.614089 
L 322.78125 301.671114 
L 330.987132 301.373878 
L 339.193015 301.116988 
L 347.398897 302.994924 
L 355.604779 307.091552 
L 363.810662 305.125295 
L 372.016544 301.542915 
L 380.222426 289.194863 
L 388.428309 270.515925 
L 396.634191 242.930393 
L 404.840074 232.329058 
L 413.045956 250.396481 
L 421.251838 251.253253 
L 429.457721 252.859664 
L 437.663603 259.058577 
L 445.869485 264.119314 
L 454.075368 261.890782 
L 462.28125 263.034884 
L 470.487132 269.274777 
L 478.693015 266.926603 
L 486.898897 265.274446 
L 495.104779 269.38809 
L 503.310662 272.979637 
L 511.516544 272.454172 
L 519.722426 272.719262 
L 527.928309 276.558734 
L 536.134191 278.921577 
L 544.340074 280.548147 
L 552.545956 282.896976 
L 560.751838 282.553004 
L 568.957721 282.518167 
L 577.163603 283.418387 
L 585.369485 282.991716 
L 593.575368 283.713404 
L 601.78125 284.259439 
" clip-path="url(#p099cc37943)" style="fill: none; stroke-dasharray: 3.7,1.6; stroke-dashoffset: 0; stroke: #1f77b4"/>
   </g>
   <g id="LineCollection_3">
    <path d="M 43.78125 216.358125 
L 601.78125 216.358125 
" clip-path="url(#p099cc37943)" style="fill: none; stroke-dasharray: 1,1.65; stroke-dashoffset: 0; stroke: #000000"/>
   </g>
   <g id="LineCollection_4">
    <path d="M 101.222426 410.398125 
L 101.222426 22.318125 
" clip-path="url(#p099cc37943)" style="fill: none; stroke-dasharray: 3.7,1.6; stroke-dashoffset: 0; stroke: #ff0000"/>
    <path d="M 289.957721 410.398125 
L 289.957721 22.318125 
" clip-path="url(#p099cc37943)" style="fill: none; stroke-dasharray: 3.7,1.6; stroke-dashoffset: 0; stroke: #ff0000"/>
   </g>
   <g id="line2d_2">
    <path d="M 43.78125 370.626226 
L 51.987132 361.804534 
L 60.193015 354.316296 
L 68.398897 336.748564 
L 76.604779 324.344864 
L 84.810662 319.932058 
L 93.016544 297.255282 
L 101.222426 285.572679 
L 109.428309 268.250567 
L 117.634191 402.069289 
L 125.840074 401.978245 
L 134.045956 401.378439 
L 142.251838 399.214989 
L 150.457721 396.458266 
L 158.663603 398.947505 
L 166.869485 387.343519 
L 175.075368 383.412345 
L 183.28125 377.156738 
L 191.487132 372.577614 
L 199.693015 366.750961 
L 207.898897 360.402085 
L 216.104779 350.545559 
L 224.310662 341.874591 
L 232.516544 332.659163 
L 240.722426 321.314186 
L 248.928309 313.023116 
L 257.134191 306.961425 
L 265.340074 293.192014 
L 273.545956 284.923925 
L 281.751838 278.518629 
L 289.957721 267.473735 
L 298.163603 258.005267 
L 306.369485 406.930296 
L 314.575368 406.587841 
L 322.78125 405.473126 
L 330.987132 404.635054 
L 339.193015 403.925981 
L 347.398897 402.965612 
L 355.604779 402.019231 
L 363.810662 401.143319 
L 372.016544 400.167914 
L 380.222426 395.420051 
L 388.428309 390.757449 
L 396.634191 387.027456 
L 404.840074 381.855965 
L 413.045956 377.469942 
L 421.251838 373.221464 
L 429.457721 369.342542 
L 437.663603 360.461266 
L 445.869485 353.984968 
L 454.075368 345.066645 
L 462.28125 342.030323 
L 470.487132 343.528444 
L 478.693015 338.101183 
L 486.898897 348.822989 
L 495.104779 349.375985 
L 503.310662 349.025059 
L 511.516544 347.610865 
L 519.722426 347.953082 
L 527.928309 350.582182 
L 536.134191 354.432219 
L 544.340074 358.544925 
L 552.545956 361.899864 
L 560.751838 364.722007 
L 568.957721 368.462327 
L 577.163603 372.249432 
L 585.369485 375.708515 
L 593.575368 378.328859 
L 601.78125 380.897066 
" clip-path="url(#p099cc37943)" style="fill: none; stroke-dasharray: 3.7,1.6; stroke-dashoffset: 0; stroke: #ff7f0e"/>
   </g>
   <g id="PathCollection_1">
    <defs>
     <path id="mdf24fc155f" d="M -1.767767 3.535534 
L 0 1.767767 
L 1.767767 3.535534 
L 3.535534 1.767767 
L 1.767767 0 
L 3.535534 -1.767767 
L 1.767767 -3.535534 
L 0 -1.767767 
L -1.767767 -3.535534 
L -3.535534 -1.767767 
L -1.767767 0 
L -3.535534 1.767767 
z
" style="stroke: #ffffff; stroke-width: 0.565685"/>
    </defs>
    <g clip-path="url(#p099cc37943)">
     <use xlink:href="#mdf24fc155f" x="43.78125" y="280.565534" style="fill: #1f77b4; stroke: #ffffff; stroke-width: 0.565685"/>
     <use xlink:href="#mdf24fc155f" x="51.987132" y="274.207936" style="fill: #1f77b4; stroke: #ffffff; stroke-width: 0.565685"/>
     <use xlink:href="#mdf24fc155f" x="60.193015" y="273.184295" style="fill: #1f77b4; stroke: #ffffff; stroke-width: 0.565685"/>
     <use xlink:href="#mdf24fc155f" x="68.398897" y="266.613708" style="fill: #1f77b4; stroke: #ffffff; stroke-width: 0.565685"/>
     <use xlink:href="#mdf24fc155f" x="76.604779" y="252.599122" style="fill: #1f77b4; stroke: #ffffff; stroke-width: 0.565685"/>
     <use xlink:href="#mdf24fc155f" x="84.810662" y="258.434125" style="fill: #1f77b4; stroke: #ffffff; stroke-width: 0.565685"/>
     <use xlink:href="#mdf24fc155f" x="93.016544" y="228.479038" style="fill: #1f77b4; stroke: #ffffff; stroke-width: 0.565685"/>
     <use xlink:href="#mdf24fc155f" x="101.222426" y="228.894891" style="fill: #1f77b4; stroke: #ffffff; stroke-width: 0.565685"/>
     <use xlink:href="#mdf24fc155f" x="109.428309" y="216.394976" style="fill: #1f77b4; stroke: #ffffff; stroke-width: 0.565685"/>
     <use xlink:href="#mdf24fc155f" x="117.634191" y="296.02257" style="fill: #1f77b4; stroke: #ffffff; stroke-width: 0.565685"/>
     <use xlink:href="#mdf24fc155f" x="125.840074" y="301.51614" style="fill: #1f77b4; stroke: #ffffff; stroke-width: 0.565685"/>
     <use xlink:href="#mdf24fc155f" x="134.045956" y="291.418136" style="fill: #1f77b4; stroke: #ffffff; stroke-width: 0.565685"/>
     <use xlink:href="#mdf24fc155f" x="142.251838" y="290.431895" style="fill: #1f77b4; stroke: #ffffff; stroke-width: 0.565685"/>
     <use xlink:href="#mdf24fc155f" x="150.457721" y="290.657448" style="fill: #1f77b4; stroke: #ffffff; stroke-width: 0.565685"/>
     <use xlink:href="#mdf24fc155f" x="158.663603" y="297.183049" style="fill: #1f77b4; stroke: #ffffff; stroke-width: 0.565685"/>
     <use xlink:href="#mdf24fc155f" x="166.869485" y="309.937993" style="fill: #1f77b4; stroke: #ffffff; stroke-width: 0.565685"/>
     <use xlink:href="#mdf24fc155f" x="175.075368" y="307.132295" style="fill: #1f77b4; stroke: #ffffff; stroke-width: 0.565685"/>
     <use xlink:href="#mdf24fc155f" x="183.28125" y="304.410767" style="fill: #1f77b4; stroke: #ffffff; stroke-width: 0.565685"/>
     <use xlink:href="#mdf24fc155f" x="191.487132" y="301.946005" style="fill: #1f77b4; stroke: #ffffff; stroke-width: 0.565685"/>
     <use xlink:href="#mdf24fc155f" x="199.693015" y="283.830121" style="fill: #1f77b4; stroke: #ffffff; stroke-width: 0.565685"/>
     <use xlink:href="#mdf24fc155f" x="207.898897" y="258.706314" style="fill: #1f77b4; stroke: #ffffff; stroke-width: 0.565685"/>
     <use xlink:href="#mdf24fc155f" x="216.104779" y="244.719762" style="fill: #1f77b4; stroke: #ffffff; stroke-width: 0.565685"/>
     <use xlink:href="#mdf24fc155f" x="224.310662" y="241.567413" style="fill: #1f77b4; stroke: #ffffff; stroke-width: 0.565685"/>
     <use xlink:href="#mdf24fc155f" x="232.516544" y="236.107034" style="fill: #1f77b4; stroke: #ffffff; stroke-width: 0.565685"/>
     <use xlink:href="#mdf24fc155f" x="240.722426" y="234.653533" style="fill: #1f77b4; stroke: #ffffff; stroke-width: 0.565685"/>
     <use xlink:href="#mdf24fc155f" x="248.928309" y="233.739362" style="fill: #1f77b4; stroke: #ffffff; stroke-width: 0.565685"/>
     <use xlink:href="#mdf24fc155f" x="257.134191" y="233.742409" style="fill: #1f77b4; stroke: #ffffff; stroke-width: 0.565685"/>
     <use xlink:href="#mdf24fc155f" x="265.340074" y="226.904098" style="fill: #1f77b4; stroke: #ffffff; stroke-width: 0.565685"/>
     <use xlink:href="#mdf24fc155f" x="273.545956" y="225.613669" style="fill: #1f77b4; stroke: #ffffff; stroke-width: 0.565685"/>
     <use xlink:href="#mdf24fc155f" x="281.751838" y="224.857681" style="fill: #1f77b4; stroke: #ffffff; stroke-width: 0.565685"/>
     <use xlink:href="#mdf24fc155f" x="289.957721" y="224.29222" style="fill: #1f77b4; stroke: #ffffff; stroke-width: 0.565685"/>
     <use xlink:href="#mdf24fc155f" x="298.163603" y="210.804439" style="fill: #1f77b4; stroke: #ffffff; stroke-width: 0.565685"/>
     <use xlink:href="#mdf24fc155f" x="306.369485" y="303.237077" style="fill: #1f77b4; stroke: #ffffff; stroke-width: 0.565685"/>
     <use xlink:href="#mdf24fc155f" x="314.575368" y="302.614089" style="fill: #1f77b4; stroke: #ffffff; stroke-width: 0.565685"/>
     <use xlink:href="#mdf24fc155f" x="322.78125" y="301.671114" style="fill: #1f77b4; stroke: #ffffff; stroke-width: 0.565685"/>
     <use xlink:href="#mdf24fc155f" x="330.987132" y="301.373878" style="fill: #1f77b4; stroke: #ffffff; stroke-width: 0.565685"/>
     <use xlink:href="#mdf24fc155f" x="339.193015" y="301.116988" style="fill: #1f77b4; stroke: #ffffff; stroke-width: 0.565685"/>
     <use xlink:href="#mdf24fc155f" x="347.398897" y="302.994924" style="fill: #1f77b4; stroke: #ffffff; stroke-width: 0.565685"/>
     <use xlink:href="#mdf24fc155f" x="355.604779" y="307.091552" style="fill: #1f77b4; stroke: #ffffff; stroke-width: 0.565685"/>
     <use xlink:href="#mdf24fc155f" x="363.810662" y="305.125295" style="fill: #1f77b4; stroke: #ffffff; stroke-width: 0.565685"/>
     <use xlink:href="#mdf24fc155f" x="372.016544" y="301.542915" style="fill: #1f77b4; stroke: #ffffff; stroke-width: 0.565685"/>
     <use xlink:href="#mdf24fc155f" x="380.222426" y="289.194863" style="fill: #1f77b4; stroke: #ffffff; stroke-width: 0.565685"/>
     <use xlink:href="#mdf24fc155f" x="388.428309" y="270.515925" style="fill: #1f77b4; stroke: #ffffff; stroke-width: 0.565685"/>
     <use xlink:href="#mdf24fc155f" x="396.634191" y="242.930393" style="fill: #1f77b4; stroke: #ffffff; stroke-width: 0.565685"/>
     <use xlink:href="#mdf24fc155f" x="404.840074" y="232.329058" style="fill: #1f77b4; stroke: #ffffff; stroke-width: 0.565685"/>
     <use xlink:href="#mdf24fc155f" x="413.045956" y="250.396481" style="fill: #1f77b4; stroke: #ffffff; stroke-width: 0.565685"/>
     <use xlink:href="#mdf24fc155f" x="421.251838" y="251.253253" style="fill: #1f77b4; stroke: #ffffff; stroke-width: 0.565685"/>
     <use xlink:href="#mdf24fc155f" x="429.457721" y="252.859664" style="fill: #1f77b4; stroke: #ffffff; stroke-width: 0.565685"/>
     <use xlink:href="#mdf24fc155f" x="437.663603" y="259.058577" style="fill: #1f77b4; stroke: #ffffff; stroke-width: 0.565685"/>
     <use xlink:href="#mdf24fc155f" x="445.869485" y="264.119314" style="fill: #1f77b4; stroke: #ffffff; stroke-width: 0.565685"/>
     <use xlink:href="#mdf24fc155f" x="454.075368" y="261.890782" style="fill: #1f77b4; stroke: #ffffff; stroke-width: 0.565685"/>
     <use xlink:href="#mdf24fc155f" x="462.28125" y="263.034884" style="fill: #1f77b4; stroke: #ffffff; stroke-width: 0.565685"/>
     <use xlink:href="#mdf24fc155f" x="470.487132" y="269.274777" style="fill: #1f77b4; stroke: #ffffff; stroke-width: 0.565685"/>
     <use xlink:href="#mdf24fc155f" x="478.693015" y="266.926603" style="fill: #1f77b4; stroke: #ffffff; stroke-width: 0.565685"/>
     <use xlink:href="#mdf24fc155f" x="486.898897" y="265.274446" style="fill: #1f77b4; stroke: #ffffff; stroke-width: 0.565685"/>
     <use xlink:href="#mdf24fc155f" x="495.104779" y="269.38809" style="fill: #1f77b4; stroke: #ffffff; stroke-width: 0.565685"/>
     <use xlink:href="#mdf24fc155f" x="503.310662" y="272.979637" style="fill: #1f77b4; stroke: #ffffff; stroke-width: 0.565685"/>
     <use xlink:href="#mdf24fc155f" x="511.516544" y="272.454172" style="fill: #1f77b4; stroke: #ffffff; stroke-width: 0.565685"/>
     <use xlink:href="#mdf24fc155f" x="519.722426" y="272.719262" style="fill: #1f77b4; stroke: #ffffff; stroke-width: 0.565685"/>
     <use xlink:href="#mdf24fc155f" x="527.928309" y="276.558734" style="fill: #1f77b4; stroke: #ffffff; stroke-width: 0.565685"/>
     <use xlink:href="#mdf24fc155f" x="536.134191" y="278.921577" style="fill: #1f77b4; stroke: #ffffff; stroke-width: 0.565685"/>
     <use xlink:href="#mdf24fc155f" x="544.340074" y="280.548147" style="fill: #1f77b4; stroke: #ffffff; stroke-width: 0.565685"/>
     <use xlink:href="#mdf24fc155f" x="552.545956" y="282.896976" style="fill: #1f77b4; stroke: #ffffff; stroke-width: 0.565685"/>
     <use xlink:href="#mdf24fc155f" x="560.751838" y="282.553004" style="fill: #1f77b4; stroke: #ffffff; stroke-width: 0.565685"/>
     <use xlink:href="#mdf24fc155f" x="568.957721" y="282.518167" style="fill: #1f77b4; stroke: #ffffff; stroke-width: 0.565685"/>
     <use xlink:href="#mdf24fc155f" x="577.163603" y="283.418387" style="fill: #1f77b4; stroke: #ffffff; stroke-width: 0.565685"/>
     <use xlink:href="#mdf24fc155f" x="585.369485" y="282.991716" style="fill: #1f77b4; stroke: #ffffff; stroke-width: 0.565685"/>
     <use xlink:href="#mdf24fc155f" x="593.575368" y="283.713404" style="fill: #1f77b4; stroke: #ffffff; stroke-width: 0.565685"/>
     <use xlink:href="#mdf24fc155f" x="601.78125" y="284.259439" style="fill: #1f77b4; stroke: #ffffff; stroke-width: 0.565685"/>
    </g>
   </g>
   <g id="PolyCollection_1"/>
   <g id="PathCollection_2">
    <defs>
     <path id="m4f4f348892" d="M -1.767767 3.535534 
L 0 1.767767 
L 1.767767 3.535534 
L 3.535534 1.767767 
L 1.767767 0 
L 3.535534 -1.767767 
L 1.767767 -3.535534 
L 0 -1.767767 
L -1.767767 -3.535534 
L -3.535534 -1.767767 
L -1.767767 0 
L -3.535534 1.767767 
z
" style="stroke: #ffffff; stroke-width: 0.565685"/>
    </defs>
    <g clip-path="url(#p099cc37943)">
     <use xlink:href="#m4f4f348892" x="43.78125" y="370.626226" style="fill: #ff7f0e; stroke: #ffffff; stroke-width: 0.565685"/>
     <use xlink:href="#m4f4f348892" x="51.987132" y="361.804534" style="fill: #ff7f0e; stroke: #ffffff; stroke-width: 0.565685"/>
     <use xlink:href="#m4f4f348892" x="60.193015" y="354.316296" style="fill: #ff7f0e; stroke: #ffffff; stroke-width: 0.565685"/>
     <use xlink:href="#m4f4f348892" x="68.398897" y="336.748564" style="fill: #ff7f0e; stroke: #ffffff; stroke-width: 0.565685"/>
     <use xlink:href="#m4f4f348892" x="76.604779" y="324.344864" style="fill: #ff7f0e; stroke: #ffffff; stroke-width: 0.565685"/>
     <use xlink:href="#m4f4f348892" x="84.810662" y="319.932058" style="fill: #ff7f0e; stroke: #ffffff; stroke-width: 0.565685"/>
     <use xlink:href="#m4f4f348892" x="93.016544" y="297.255282" style="fill: #ff7f0e; stroke: #ffffff; stroke-width: 0.565685"/>
     <use xlink:href="#m4f4f348892" x="101.222426" y="285.572679" style="fill: #ff7f0e; stroke: #ffffff; stroke-width: 0.565685"/>
     <use xlink:href="#m4f4f348892" x="109.428309" y="268.250567" style="fill: #ff7f0e; stroke: #ffffff; stroke-width: 0.565685"/>
     <use xlink:href="#m4f4f348892" x="117.634191" y="402.069289" style="fill: #ff7f0e; stroke: #ffffff; stroke-width: 0.565685"/>
     <use xlink:href="#m4f4f348892" x="125.840074" y="401.978245" style="fill: #ff7f0e; stroke: #ffffff; stroke-width: 0.565685"/>
     <use xlink:href="#m4f4f348892" x="134.045956" y="401.378439" style="fill: #ff7f0e; stroke: #ffffff; stroke-width: 0.565685"/>
     <use xlink:href="#m4f4f348892" x="142.251838" y="399.214989" style="fill: #ff7f0e; stroke: #ffffff; stroke-width: 0.565685"/>
     <use xlink:href="#m4f4f348892" x="150.457721" y="396.458266" style="fill: #ff7f0e; stroke: #ffffff; stroke-width: 0.565685"/>
     <use xlink:href="#m4f4f348892" x="158.663603" y="398.947505" style="fill: #ff7f0e; stroke: #ffffff; stroke-width: 0.565685"/>
     <use xlink:href="#m4f4f348892" x="166.869485" y="387.343519" style="fill: #ff7f0e; stroke: #ffffff; stroke-width: 0.565685"/>
     <use xlink:href="#m4f4f348892" x="175.075368" y="383.412345" style="fill: #ff7f0e; stroke: #ffffff; stroke-width: 0.565685"/>
     <use xlink:href="#m4f4f348892" x="183.28125" y="377.156738" style="fill: #ff7f0e; stroke: #ffffff; stroke-width: 0.565685"/>
     <use xlink:href="#m4f4f348892" x="191.487132" y="372.577614" style="fill: #ff7f0e; stroke: #ffffff; stroke-width: 0.565685"/>
     <use xlink:href="#m4f4f348892" x="199.693015" y="366.750961" style="fill: #ff7f0e; stroke: #ffffff; stroke-width: 0.565685"/>
     <use xlink:href="#m4f4f348892" x="207.898897" y="360.402085" style="fill: #ff7f0e; stroke: #ffffff; stroke-width: 0.565685"/>
     <use xlink:href="#m4f4f348892" x="216.104779" y="350.545559" style="fill: #ff7f0e; stroke: #ffffff; stroke-width: 0.565685"/>
     <use xlink:href="#m4f4f348892" x="224.310662" y="341.874591" style="fill: #ff7f0e; stroke: #ffffff; stroke-width: 0.565685"/>
     <use xlink:href="#m4f4f348892" x="232.516544" y="332.659163" style="fill: #ff7f0e; stroke: #ffffff; stroke-width: 0.565685"/>
     <use xlink:href="#m4f4f348892" x="240.722426" y="321.314186" style="fill: #ff7f0e; stroke: #ffffff; stroke-width: 0.565685"/>
     <use xlink:href="#m4f4f348892" x="248.928309" y="313.023116" style="fill: #ff7f0e; stroke: #ffffff; stroke-width: 0.565685"/>
     <use xlink:href="#m4f4f348892" x="257.134191" y="306.961425" style="fill: #ff7f0e; stroke: #ffffff; stroke-width: 0.565685"/>
     <use xlink:href="#m4f4f348892" x="265.340074" y="293.192014" style="fill: #ff7f0e; stroke: #ffffff; stroke-width: 0.565685"/>
     <use xlink:href="#m4f4f348892" x="273.545956" y="284.923925" style="fill: #ff7f0e; stroke: #ffffff; stroke-width: 0.565685"/>
     <use xlink:href="#m4f4f348892" x="281.751838" y="278.518629" style="fill: #ff7f0e; stroke: #ffffff; stroke-width: 0.565685"/>
     <use xlink:href="#m4f4f348892" x="289.957721" y="267.473735" style="fill: #ff7f0e; stroke: #ffffff; stroke-width: 0.565685"/>
     <use xlink:href="#m4f4f348892" x="298.163603" y="258.005267" style="fill: #ff7f0e; stroke: #ffffff; stroke-width: 0.565685"/>
     <use xlink:href="#m4f4f348892" x="306.369485" y="406.930296" style="fill: #ff7f0e; stroke: #ffffff; stroke-width: 0.565685"/>
     <use xlink:href="#m4f4f348892" x="314.575368" y="406.587841" style="fill: #ff7f0e; stroke: #ffffff; stroke-width: 0.565685"/>
     <use xlink:href="#m4f4f348892" x="322.78125" y="405.473126" style="fill: #ff7f0e; stroke: #ffffff; stroke-width: 0.565685"/>
     <use xlink:href="#m4f4f348892" x="330.987132" y="404.635054" style="fill: #ff7f0e; stroke: #ffffff; stroke-width: 0.565685"/>
     <use xlink:href="#m4f4f348892" x="339.193015" y="403.925981" style="fill: #ff7f0e; stroke: #ffffff; stroke-width: 0.565685"/>
     <use xlink:href="#m4f4f348892" x="347.398897" y="402.965612" style="fill: #ff7f0e; stroke: #ffffff; stroke-width: 0.565685"/>
     <use xlink:href="#m4f4f348892" x="355.604779" y="402.019231" style="fill: #ff7f0e; stroke: #ffffff; stroke-width: 0.565685"/>
     <use xlink:href="#m4f4f348892" x="363.810662" y="401.143319" style="fill: #ff7f0e; stroke: #ffffff; stroke-width: 0.565685"/>
     <use xlink:href="#m4f4f348892" x="372.016544" y="400.167914" style="fill: #ff7f0e; stroke: #ffffff; stroke-width: 0.565685"/>
     <use xlink:href="#m4f4f348892" x="380.222426" y="395.420051" style="fill: #ff7f0e; stroke: #ffffff; stroke-width: 0.565685"/>
     <use xlink:href="#m4f4f348892" x="388.428309" y="390.757449" style="fill: #ff7f0e; stroke: #ffffff; stroke-width: 0.565685"/>
     <use xlink:href="#m4f4f348892" x="396.634191" y="387.027456" style="fill: #ff7f0e; stroke: #ffffff; stroke-width: 0.565685"/>
     <use xlink:href="#m4f4f348892" x="404.840074" y="381.855965" style="fill: #ff7f0e; stroke: #ffffff; stroke-width: 0.565685"/>
     <use xlink:href="#m4f4f348892" x="413.045956" y="377.469942" style="fill: #ff7f0e; stroke: #ffffff; stroke-width: 0.565685"/>
     <use xlink:href="#m4f4f348892" x="421.251838" y="373.221464" style="fill: #ff7f0e; stroke: #ffffff; stroke-width: 0.565685"/>
     <use xlink:href="#m4f4f348892" x="429.457721" y="369.342542" style="fill: #ff7f0e; stroke: #ffffff; stroke-width: 0.565685"/>
     <use xlink:href="#m4f4f348892" x="437.663603" y="360.461266" style="fill: #ff7f0e; stroke: #ffffff; stroke-width: 0.565685"/>
     <use xlink:href="#m4f4f348892" x="445.869485" y="353.984968" style="fill: #ff7f0e; stroke: #ffffff; stroke-width: 0.565685"/>
     <use xlink:href="#m4f4f348892" x="454.075368" y="345.066645" style="fill: #ff7f0e; stroke: #ffffff; stroke-width: 0.565685"/>
     <use xlink:href="#m4f4f348892" x="462.28125" y="342.030323" style="fill: #ff7f0e; stroke: #ffffff; stroke-width: 0.565685"/>
     <use xlink:href="#m4f4f348892" x="470.487132" y="343.528444" style="fill: #ff7f0e; stroke: #ffffff; stroke-width: 0.565685"/>
     <use xlink:href="#m4f4f348892" x="478.693015" y="338.101183" style="fill: #ff7f0e; stroke: #ffffff; stroke-width: 0.565685"/>
     <use xlink:href="#m4f4f348892" x="486.898897" y="348.822989" style="fill: #ff7f0e; stroke: #ffffff; stroke-width: 0.565685"/>
     <use xlink:href="#m4f4f348892" x="495.104779" y="349.375985" style="fill: #ff7f0e; stroke: #ffffff; stroke-width: 0.565685"/>
     <use xlink:href="#m4f4f348892" x="503.310662" y="349.025059" style="fill: #ff7f0e; stroke: #ffffff; stroke-width: 0.565685"/>
     <use xlink:href="#m4f4f348892" x="511.516544" y="347.610865" style="fill: #ff7f0e; stroke: #ffffff; stroke-width: 0.565685"/>
     <use xlink:href="#m4f4f348892" x="519.722426" y="347.953082" style="fill: #ff7f0e; stroke: #ffffff; stroke-width: 0.565685"/>
     <use xlink:href="#m4f4f348892" x="527.928309" y="350.582182" style="fill: #ff7f0e; stroke: #ffffff; stroke-width: 0.565685"/>
     <use xlink:href="#m4f4f348892" x="536.134191" y="354.432219" style="fill: #ff7f0e; stroke: #ffffff; stroke-width: 0.565685"/>
     <use xlink:href="#m4f4f348892" x="544.340074" y="358.544925" style="fill: #ff7f0e; stroke: #ffffff; stroke-width: 0.565685"/>
     <use xlink:href="#m4f4f348892" x="552.545956" y="361.899864" style="fill: #ff7f0e; stroke: #ffffff; stroke-width: 0.565685"/>
     <use xlink:href="#m4f4f348892" x="560.751838" y="364.722007" style="fill: #ff7f0e; stroke: #ffffff; stroke-width: 0.565685"/>
     <use xlink:href="#m4f4f348892" x="568.957721" y="368.462327" style="fill: #ff7f0e; stroke: #ffffff; stroke-width: 0.565685"/>
     <use xlink:href="#m4f4f348892" x="577.163603" y="372.249432" style="fill: #ff7f0e; stroke: #ffffff; stroke-width: 0.565685"/>
     <use xlink:href="#m4f4f348892" x="585.369485" y="375.708515" style="fill: #ff7f0e; stroke: #ffffff; stroke-width: 0.565685"/>
     <use xlink:href="#m4f4f348892" x="593.575368" y="378.328859" style="fill: #ff7f0e; stroke: #ffffff; stroke-width: 0.565685"/>
     <use xlink:href="#m4f4f348892" x="601.78125" y="380.897066" style="fill: #ff7f0e; stroke: #ffffff; stroke-width: 0.565685"/>
    </g>
   </g>
   <g id="PolyCollection_2"/>
   <g id="matplotlib.axis_1">
    <g id="xtick_1">
     <g id="line2d_3">
      <path d="M 68.398897 410.398125 
L 68.398897 22.318125 
" clip-path="url(#p099cc37943)" style="fill: none; stroke: #b0b0b0; stroke-width: 0.8; stroke-linecap: square"/>
     </g>
     <g id="line2d_4">
      <defs>
       <path id="m4115aceeeb" d="M 0 0 
L 0 3.5 
" style="stroke: #000000; stroke-width: 0.8"/>
      </defs>
      <g>
       <use xlink:href="#m4115aceeeb" x="68.398897" y="410.398125" style="stroke: #000000; stroke-width: 0.8"/>
      </g>
     </g>
     <g id="text_1">
      <!-- 5 -->
      <g transform="translate(65.217647 424.996562) scale(0.1 -0.1)">
       <defs>
        <path id="DejaVuSans-35" d="M 691 4666 
L 3169 4666 
L 3169 4134 
L 1269 4134 
L 1269 2991 
Q 1406 3038 1543 3061 
Q 1681 3084 1819 3084 
Q 2600 3084 3056 2656 
Q 3513 2228 3513 1497 
Q 3513 744 3044 326 
Q 2575 -91 1722 -91 
Q 1428 -91 1123 -41 
Q 819 9 494 109 
L 494 744 
Q 775 591 1075 516 
Q 1375 441 1709 441 
Q 2250 441 2565 725 
Q 2881 1009 2881 1497 
Q 2881 1984 2565 2268 
Q 2250 2553 1709 2553 
Q 1456 2553 1204 2497 
Q 953 2441 691 2322 
L 691 4666 
z
" transform="scale(0.015625)"/>
       </defs>
       <use xlink:href="#DejaVuSans-35"/>
      </g>
     </g>
    </g>
    <g id="xtick_2">
     <g id="line2d_5">
      <path d="M 109.428309 410.398125 
L 109.428309 22.318125 
" clip-path="url(#p099cc37943)" style="fill: none; stroke: #b0b0b0; stroke-width: 0.8; stroke-linecap: square"/>
     </g>
     <g id="line2d_6">
      <g>
       <use xlink:href="#m4115aceeeb" x="109.428309" y="410.398125" style="stroke: #000000; stroke-width: 0.8"/>
      </g>
     </g>
     <g id="text_2">
      <!-- 10 -->
      <g transform="translate(103.065809 424.996562) scale(0.1 -0.1)">
       <defs>
        <path id="DejaVuSans-31" d="M 794 531 
L 1825 531 
L 1825 4091 
L 703 3866 
L 703 4441 
L 1819 4666 
L 2450 4666 
L 2450 531 
L 3481 531 
L 3481 0 
L 794 0 
L 794 531 
z
" transform="scale(0.015625)"/>
        <path id="DejaVuSans-30" d="M 2034 4250 
Q 1547 4250 1301 3770 
Q 1056 3291 1056 2328 
Q 1056 1369 1301 889 
Q 1547 409 2034 409 
Q 2525 409 2770 889 
Q 3016 1369 3016 2328 
Q 3016 3291 2770 3770 
Q 2525 4250 2034 4250 
z
M 2034 4750 
Q 2819 4750 3233 4129 
Q 3647 3509 3647 2328 
Q 3647 1150 3233 529 
Q 2819 -91 2034 -91 
Q 1250 -91 836 529 
Q 422 1150 422 2328 
Q 422 3509 836 4129 
Q 1250 4750 2034 4750 
z
" transform="scale(0.015625)"/>
       </defs>
       <use xlink:href="#DejaVuSans-31"/>
       <use xlink:href="#DejaVuSans-30" x="63.623047"/>
      </g>
     </g>
    </g>
    <g id="xtick_3">
     <g id="line2d_7">
      <path d="M 150.457721 410.398125 
L 150.457721 22.318125 
" clip-path="url(#p099cc37943)" style="fill: none; stroke: #b0b0b0; stroke-width: 0.8; stroke-linecap: square"/>
     </g>
     <g id="line2d_8">
      <g>
       <use xlink:href="#m4115aceeeb" x="150.457721" y="410.398125" style="stroke: #000000; stroke-width: 0.8"/>
      </g>
     </g>
     <g id="text_3">
      <!-- 15 -->
      <g transform="translate(144.095221 424.996562) scale(0.1 -0.1)">
       <use xlink:href="#DejaVuSans-31"/>
       <use xlink:href="#DejaVuSans-35" x="63.623047"/>
      </g>
     </g>
    </g>
    <g id="xtick_4">
     <g id="line2d_9">
      <path d="M 191.487132 410.398125 
L 191.487132 22.318125 
" clip-path="url(#p099cc37943)" style="fill: none; stroke: #b0b0b0; stroke-width: 0.8; stroke-linecap: square"/>
     </g>
     <g id="line2d_10">
      <g>
       <use xlink:href="#m4115aceeeb" x="191.487132" y="410.398125" style="stroke: #000000; stroke-width: 0.8"/>
      </g>
     </g>
     <g id="text_4">
      <!-- 20 -->
      <g transform="translate(185.124632 424.996562) scale(0.1 -0.1)">
       <defs>
        <path id="DejaVuSans-32" d="M 1228 531 
L 3431 531 
L 3431 0 
L 469 0 
L 469 531 
Q 828 903 1448 1529 
Q 2069 2156 2228 2338 
Q 2531 2678 2651 2914 
Q 2772 3150 2772 3378 
Q 2772 3750 2511 3984 
Q 2250 4219 1831 4219 
Q 1534 4219 1204 4116 
Q 875 4013 500 3803 
L 500 4441 
Q 881 4594 1212 4672 
Q 1544 4750 1819 4750 
Q 2544 4750 2975 4387 
Q 3406 4025 3406 3419 
Q 3406 3131 3298 2873 
Q 3191 2616 2906 2266 
Q 2828 2175 2409 1742 
Q 1991 1309 1228 531 
z
" transform="scale(0.015625)"/>
       </defs>
       <use xlink:href="#DejaVuSans-32"/>
       <use xlink:href="#DejaVuSans-30" x="63.623047"/>
      </g>
     </g>
    </g>
    <g id="xtick_5">
     <g id="line2d_11">
      <path d="M 232.516544 410.398125 
L 232.516544 22.318125 
" clip-path="url(#p099cc37943)" style="fill: none; stroke: #b0b0b0; stroke-width: 0.8; stroke-linecap: square"/>
     </g>
     <g id="line2d_12">
      <g>
       <use xlink:href="#m4115aceeeb" x="232.516544" y="410.398125" style="stroke: #000000; stroke-width: 0.8"/>
      </g>
     </g>
     <g id="text_5">
      <!-- 25 -->
      <g transform="translate(226.154044 424.996562) scale(0.1 -0.1)">
       <use xlink:href="#DejaVuSans-32"/>
       <use xlink:href="#DejaVuSans-35" x="63.623047"/>
      </g>
     </g>
    </g>
    <g id="xtick_6">
     <g id="line2d_13">
      <path d="M 273.545956 410.398125 
L 273.545956 22.318125 
" clip-path="url(#p099cc37943)" style="fill: none; stroke: #b0b0b0; stroke-width: 0.8; stroke-linecap: square"/>
     </g>
     <g id="line2d_14">
      <g>
       <use xlink:href="#m4115aceeeb" x="273.545956" y="410.398125" style="stroke: #000000; stroke-width: 0.8"/>
      </g>
     </g>
     <g id="text_6">
      <!-- 30 -->
      <g transform="translate(267.183456 424.996562) scale(0.1 -0.1)">
       <defs>
        <path id="DejaVuSans-33" d="M 2597 2516 
Q 3050 2419 3304 2112 
Q 3559 1806 3559 1356 
Q 3559 666 3084 287 
Q 2609 -91 1734 -91 
Q 1441 -91 1130 -33 
Q 819 25 488 141 
L 488 750 
Q 750 597 1062 519 
Q 1375 441 1716 441 
Q 2309 441 2620 675 
Q 2931 909 2931 1356 
Q 2931 1769 2642 2001 
Q 2353 2234 1838 2234 
L 1294 2234 
L 1294 2753 
L 1863 2753 
Q 2328 2753 2575 2939 
Q 2822 3125 2822 3475 
Q 2822 3834 2567 4026 
Q 2313 4219 1838 4219 
Q 1578 4219 1281 4162 
Q 984 4106 628 3988 
L 628 4550 
Q 988 4650 1302 4700 
Q 1616 4750 1894 4750 
Q 2613 4750 3031 4423 
Q 3450 4097 3450 3541 
Q 3450 3153 3228 2886 
Q 3006 2619 2597 2516 
z
" transform="scale(0.015625)"/>
       </defs>
       <use xlink:href="#DejaVuSans-33"/>
       <use xlink:href="#DejaVuSans-30" x="63.623047"/>
      </g>
     </g>
    </g>
    <g id="xtick_7">
     <g id="line2d_15">
      <path d="M 314.575368 410.398125 
L 314.575368 22.318125 
" clip-path="url(#p099cc37943)" style="fill: none; stroke: #b0b0b0; stroke-width: 0.8; stroke-linecap: square"/>
     </g>
     <g id="line2d_16">
      <g>
       <use xlink:href="#m4115aceeeb" x="314.575368" y="410.398125" style="stroke: #000000; stroke-width: 0.8"/>
      </g>
     </g>
     <g id="text_7">
      <!-- 35 -->
      <g transform="translate(308.212868 424.996562) scale(0.1 -0.1)">
       <use xlink:href="#DejaVuSans-33"/>
       <use xlink:href="#DejaVuSans-35" x="63.623047"/>
      </g>
     </g>
    </g>
    <g id="xtick_8">
     <g id="line2d_17">
      <path d="M 355.604779 410.398125 
L 355.604779 22.318125 
" clip-path="url(#p099cc37943)" style="fill: none; stroke: #b0b0b0; stroke-width: 0.8; stroke-linecap: square"/>
     </g>
     <g id="line2d_18">
      <g>
       <use xlink:href="#m4115aceeeb" x="355.604779" y="410.398125" style="stroke: #000000; stroke-width: 0.8"/>
      </g>
     </g>
     <g id="text_8">
      <!-- 40 -->
      <g transform="translate(349.242279 424.996562) scale(0.1 -0.1)">
       <defs>
        <path id="DejaVuSans-34" d="M 2419 4116 
L 825 1625 
L 2419 1625 
L 2419 4116 
z
M 2253 4666 
L 3047 4666 
L 3047 1625 
L 3713 1625 
L 3713 1100 
L 3047 1100 
L 3047 0 
L 2419 0 
L 2419 1100 
L 313 1100 
L 313 1709 
L 2253 4666 
z
" transform="scale(0.015625)"/>
       </defs>
       <use xlink:href="#DejaVuSans-34"/>
       <use xlink:href="#DejaVuSans-30" x="63.623047"/>
      </g>
     </g>
    </g>
    <g id="xtick_9">
     <g id="line2d_19">
      <path d="M 396.634191 410.398125 
L 396.634191 22.318125 
" clip-path="url(#p099cc37943)" style="fill: none; stroke: #b0b0b0; stroke-width: 0.8; stroke-linecap: square"/>
     </g>
     <g id="line2d_20">
      <g>
       <use xlink:href="#m4115aceeeb" x="396.634191" y="410.398125" style="stroke: #000000; stroke-width: 0.8"/>
      </g>
     </g>
     <g id="text_9">
      <!-- 45 -->
      <g transform="translate(390.271691 424.996562) scale(0.1 -0.1)">
       <use xlink:href="#DejaVuSans-34"/>
       <use xlink:href="#DejaVuSans-35" x="63.623047"/>
      </g>
     </g>
    </g>
    <g id="xtick_10">
     <g id="line2d_21">
      <path d="M 437.663603 410.398125 
L 437.663603 22.318125 
" clip-path="url(#p099cc37943)" style="fill: none; stroke: #b0b0b0; stroke-width: 0.8; stroke-linecap: square"/>
     </g>
     <g id="line2d_22">
      <g>
       <use xlink:href="#m4115aceeeb" x="437.663603" y="410.398125" style="stroke: #000000; stroke-width: 0.8"/>
      </g>
     </g>
     <g id="text_10">
      <!-- 50 -->
      <g transform="translate(431.301103 424.996562) scale(0.1 -0.1)">
       <use xlink:href="#DejaVuSans-35"/>
       <use xlink:href="#DejaVuSans-30" x="63.623047"/>
      </g>
     </g>
    </g>
    <g id="xtick_11">
     <g id="line2d_23">
      <path d="M 478.693015 410.398125 
L 478.693015 22.318125 
" clip-path="url(#p099cc37943)" style="fill: none; stroke: #b0b0b0; stroke-width: 0.8; stroke-linecap: square"/>
     </g>
     <g id="line2d_24">
      <g>
       <use xlink:href="#m4115aceeeb" x="478.693015" y="410.398125" style="stroke: #000000; stroke-width: 0.8"/>
      </g>
     </g>
     <g id="text_11">
      <!-- 55 -->
      <g transform="translate(472.330515 424.996562) scale(0.1 -0.1)">
       <use xlink:href="#DejaVuSans-35"/>
       <use xlink:href="#DejaVuSans-35" x="63.623047"/>
      </g>
     </g>
    </g>
    <g id="xtick_12">
     <g id="line2d_25">
      <path d="M 519.722426 410.398125 
L 519.722426 22.318125 
" clip-path="url(#p099cc37943)" style="fill: none; stroke: #b0b0b0; stroke-width: 0.8; stroke-linecap: square"/>
     </g>
     <g id="line2d_26">
      <g>
       <use xlink:href="#m4115aceeeb" x="519.722426" y="410.398125" style="stroke: #000000; stroke-width: 0.8"/>
      </g>
     </g>
     <g id="text_12">
      <!-- 60 -->
      <g transform="translate(513.359926 424.996562) scale(0.1 -0.1)">
       <defs>
        <path id="DejaVuSans-36" d="M 2113 2584 
Q 1688 2584 1439 2293 
Q 1191 2003 1191 1497 
Q 1191 994 1439 701 
Q 1688 409 2113 409 
Q 2538 409 2786 701 
Q 3034 994 3034 1497 
Q 3034 2003 2786 2293 
Q 2538 2584 2113 2584 
z
M 3366 4563 
L 3366 3988 
Q 3128 4100 2886 4159 
Q 2644 4219 2406 4219 
Q 1781 4219 1451 3797 
Q 1122 3375 1075 2522 
Q 1259 2794 1537 2939 
Q 1816 3084 2150 3084 
Q 2853 3084 3261 2657 
Q 3669 2231 3669 1497 
Q 3669 778 3244 343 
Q 2819 -91 2113 -91 
Q 1303 -91 875 529 
Q 447 1150 447 2328 
Q 447 3434 972 4092 
Q 1497 4750 2381 4750 
Q 2619 4750 2861 4703 
Q 3103 4656 3366 4563 
z
" transform="scale(0.015625)"/>
       </defs>
       <use xlink:href="#DejaVuSans-36"/>
       <use xlink:href="#DejaVuSans-30" x="63.623047"/>
      </g>
     </g>
    </g>
    <g id="xtick_13">
     <g id="line2d_27">
      <path d="M 560.751838 410.398125 
L 560.751838 22.318125 
" clip-path="url(#p099cc37943)" style="fill: none; stroke: #b0b0b0; stroke-width: 0.8; stroke-linecap: square"/>
     </g>
     <g id="line2d_28">
      <g>
       <use xlink:href="#m4115aceeeb" x="560.751838" y="410.398125" style="stroke: #000000; stroke-width: 0.8"/>
      </g>
     </g>
     <g id="text_13">
      <!-- 65 -->
      <g transform="translate(554.389338 424.996562) scale(0.1 -0.1)">
       <use xlink:href="#DejaVuSans-36"/>
       <use xlink:href="#DejaVuSans-35" x="63.623047"/>
      </g>
     </g>
    </g>
    <g id="text_14">
     <!-- Lap Number -->
     <g transform="translate(292.082031 438.674687) scale(0.1 -0.1)">
      <defs>
       <path id="DejaVuSans-4c" d="M 628 4666 
L 1259 4666 
L 1259 531 
L 3531 531 
L 3531 0 
L 628 0 
L 628 4666 
z
" transform="scale(0.015625)"/>
       <path id="DejaVuSans-61" d="M 2194 1759 
Q 1497 1759 1228 1600 
Q 959 1441 959 1056 
Q 959 750 1161 570 
Q 1363 391 1709 391 
Q 2188 391 2477 730 
Q 2766 1069 2766 1631 
L 2766 1759 
L 2194 1759 
z
M 3341 1997 
L 3341 0 
L 2766 0 
L 2766 531 
Q 2569 213 2275 61 
Q 1981 -91 1556 -91 
Q 1019 -91 701 211 
Q 384 513 384 1019 
Q 384 1609 779 1909 
Q 1175 2209 1959 2209 
L 2766 2209 
L 2766 2266 
Q 2766 2663 2505 2880 
Q 2244 3097 1772 3097 
Q 1472 3097 1187 3025 
Q 903 2953 641 2809 
L 641 3341 
Q 956 3463 1253 3523 
Q 1550 3584 1831 3584 
Q 2591 3584 2966 3190 
Q 3341 2797 3341 1997 
z
" transform="scale(0.015625)"/>
       <path id="DejaVuSans-70" d="M 1159 525 
L 1159 -1331 
L 581 -1331 
L 581 3500 
L 1159 3500 
L 1159 2969 
Q 1341 3281 1617 3432 
Q 1894 3584 2278 3584 
Q 2916 3584 3314 3078 
Q 3713 2572 3713 1747 
Q 3713 922 3314 415 
Q 2916 -91 2278 -91 
Q 1894 -91 1617 61 
Q 1341 213 1159 525 
z
M 3116 1747 
Q 3116 2381 2855 2742 
Q 2594 3103 2138 3103 
Q 1681 3103 1420 2742 
Q 1159 2381 1159 1747 
Q 1159 1113 1420 752 
Q 1681 391 2138 391 
Q 2594 391 2855 752 
Q 3116 1113 3116 1747 
z
" transform="scale(0.015625)"/>
       <path id="DejaVuSans-20" transform="scale(0.015625)"/>
       <path id="DejaVuSans-4e" d="M 628 4666 
L 1478 4666 
L 3547 763 
L 3547 4666 
L 4159 4666 
L 4159 0 
L 3309 0 
L 1241 3903 
L 1241 0 
L 628 0 
L 628 4666 
z
" transform="scale(0.015625)"/>
       <path id="DejaVuSans-75" d="M 544 1381 
L 544 3500 
L 1119 3500 
L 1119 1403 
Q 1119 906 1312 657 
Q 1506 409 1894 409 
Q 2359 409 2629 706 
Q 2900 1003 2900 1516 
L 2900 3500 
L 3475 3500 
L 3475 0 
L 2900 0 
L 2900 538 
Q 2691 219 2414 64 
Q 2138 -91 1772 -91 
Q 1169 -91 856 284 
Q 544 659 544 1381 
z
M 1991 3584 
L 1991 3584 
z
" transform="scale(0.015625)"/>
       <path id="DejaVuSans-6d" d="M 3328 2828 
Q 3544 3216 3844 3400 
Q 4144 3584 4550 3584 
Q 5097 3584 5394 3201 
Q 5691 2819 5691 2113 
L 5691 0 
L 5113 0 
L 5113 2094 
Q 5113 2597 4934 2840 
Q 4756 3084 4391 3084 
Q 3944 3084 3684 2787 
Q 3425 2491 3425 1978 
L 3425 0 
L 2847 0 
L 2847 2094 
Q 2847 2600 2669 2842 
Q 2491 3084 2119 3084 
Q 1678 3084 1418 2786 
Q 1159 2488 1159 1978 
L 1159 0 
L 581 0 
L 581 3500 
L 1159 3500 
L 1159 2956 
Q 1356 3278 1631 3431 
Q 1906 3584 2284 3584 
Q 2666 3584 2933 3390 
Q 3200 3197 3328 2828 
z
" transform="scale(0.015625)"/>
       <path id="DejaVuSans-62" d="M 3116 1747 
Q 3116 2381 2855 2742 
Q 2594 3103 2138 3103 
Q 1681 3103 1420 2742 
Q 1159 2381 1159 1747 
Q 1159 1113 1420 752 
Q 1681 391 2138 391 
Q 2594 391 2855 752 
Q 3116 1113 3116 1747 
z
M 1159 2969 
Q 1341 3281 1617 3432 
Q 1894 3584 2278 3584 
Q 2916 3584 3314 3078 
Q 3713 2572 3713 1747 
Q 3713 922 3314 415 
Q 2916 -91 2278 -91 
Q 1894 -91 1617 61 
Q 1341 213 1159 525 
L 1159 0 
L 581 0 
L 581 4863 
L 1159 4863 
L 1159 2969 
z
" transform="scale(0.015625)"/>
       <path id="DejaVuSans-65" d="M 3597 1894 
L 3597 1613 
L 953 1613 
Q 991 1019 1311 708 
Q 1631 397 2203 397 
Q 2534 397 2845 478 
Q 3156 559 3463 722 
L 3463 178 
Q 3153 47 2828 -22 
Q 2503 -91 2169 -91 
Q 1331 -91 842 396 
Q 353 884 353 1716 
Q 353 2575 817 3079 
Q 1281 3584 2069 3584 
Q 2775 3584 3186 3129 
Q 3597 2675 3597 1894 
z
M 3022 2063 
Q 3016 2534 2758 2815 
Q 2500 3097 2075 3097 
Q 1594 3097 1305 2825 
Q 1016 2553 972 2059 
L 3022 2063 
z
" transform="scale(0.015625)"/>
       <path id="DejaVuSans-72" d="M 2631 2963 
Q 2534 3019 2420 3045 
Q 2306 3072 2169 3072 
Q 1681 3072 1420 2755 
Q 1159 2438 1159 1844 
L 1159 0 
L 581 0 
L 581 3500 
L 1159 3500 
L 1159 2956 
Q 1341 3275 1631 3429 
Q 1922 3584 2338 3584 
Q 2397 3584 2469 3576 
Q 2541 3569 2628 3553 
L 2631 2963 
z
" transform="scale(0.015625)"/>
      </defs>
      <use xlink:href="#DejaVuSans-4c"/>
      <use xlink:href="#DejaVuSans-61" x="55.712891"/>
      <use xlink:href="#DejaVuSans-70" x="116.992188"/>
      <use xlink:href="#DejaVuSans-20" x="180.46875"/>
      <use xlink:href="#DejaVuSans-4e" x="212.255859"/>
      <use xlink:href="#DejaVuSans-75" x="287.060547"/>
      <use xlink:href="#DejaVuSans-6d" x="350.439453"/>
      <use xlink:href="#DejaVuSans-62" x="447.851562"/>
      <use xlink:href="#DejaVuSans-65" x="511.328125"/>
      <use xlink:href="#DejaVuSans-72" x="572.851562"/>
     </g>
    </g>
   </g>
   <g id="matplotlib.axis_2">
    <g id="ytick_1">
     <g id="line2d_29">
      <path d="M 43.78125 410.398125 
L 601.78125 410.398125 
" clip-path="url(#p099cc37943)" style="fill: none; stroke: #b0b0b0; stroke-width: 0.8; stroke-linecap: square"/>
     </g>
     <g id="line2d_30">
      <defs>
       <path id="mb69b5835ce" d="M 0 0 
L -3.5 0 
" style="stroke: #000000; stroke-width: 0.8"/>
      </defs>
      <g>
       <use xlink:href="#mb69b5835ce" x="43.78125" y="410.398125" style="stroke: #000000; stroke-width: 0.8"/>
      </g>
     </g>
     <g id="text_15">
      <!-- 0.0 -->
      <g transform="translate(20.878125 414.197344) scale(0.1 -0.1)">
       <defs>
        <path id="DejaVuSans-2e" d="M 684 794 
L 1344 794 
L 1344 0 
L 684 0 
L 684 794 
z
" transform="scale(0.015625)"/>
       </defs>
       <use xlink:href="#DejaVuSans-30"/>
       <use xlink:href="#DejaVuSans-2e" x="63.623047"/>
       <use xlink:href="#DejaVuSans-30" x="95.410156"/>
      </g>
     </g>
    </g>
    <g id="ytick_2">
     <g id="line2d_31">
      <path d="M 43.78125 332.782125 
L 601.78125 332.782125 
" clip-path="url(#p099cc37943)" style="fill: none; stroke: #b0b0b0; stroke-width: 0.8; stroke-linecap: square"/>
     </g>
     <g id="line2d_32">
      <g>
       <use xlink:href="#mb69b5835ce" x="43.78125" y="332.782125" style="stroke: #000000; stroke-width: 0.8"/>
      </g>
     </g>
     <g id="text_16">
      <!-- 0.2 -->
      <g transform="translate(20.878125 336.581344) scale(0.1 -0.1)">
       <use xlink:href="#DejaVuSans-30"/>
       <use xlink:href="#DejaVuSans-2e" x="63.623047"/>
       <use xlink:href="#DejaVuSans-32" x="95.410156"/>
      </g>
     </g>
    </g>
    <g id="ytick_3">
     <g id="line2d_33">
      <path d="M 43.78125 255.166125 
L 601.78125 255.166125 
" clip-path="url(#p099cc37943)" style="fill: none; stroke: #b0b0b0; stroke-width: 0.8; stroke-linecap: square"/>
     </g>
     <g id="line2d_34">
      <g>
       <use xlink:href="#mb69b5835ce" x="43.78125" y="255.166125" style="stroke: #000000; stroke-width: 0.8"/>
      </g>
     </g>
     <g id="text_17">
      <!-- 0.4 -->
      <g transform="translate(20.878125 258.965344) scale(0.1 -0.1)">
       <use xlink:href="#DejaVuSans-30"/>
       <use xlink:href="#DejaVuSans-2e" x="63.623047"/>
       <use xlink:href="#DejaVuSans-34" x="95.410156"/>
      </g>
     </g>
    </g>
    <g id="ytick_4">
     <g id="line2d_35">
      <path d="M 43.78125 177.550125 
L 601.78125 177.550125 
" clip-path="url(#p099cc37943)" style="fill: none; stroke: #b0b0b0; stroke-width: 0.8; stroke-linecap: square"/>
     </g>
     <g id="line2d_36">
      <g>
       <use xlink:href="#mb69b5835ce" x="43.78125" y="177.550125" style="stroke: #000000; stroke-width: 0.8"/>
      </g>
     </g>
     <g id="text_18">
      <!-- 0.6 -->
      <g transform="translate(20.878125 181.349344) scale(0.1 -0.1)">
       <use xlink:href="#DejaVuSans-30"/>
       <use xlink:href="#DejaVuSans-2e" x="63.623047"/>
       <use xlink:href="#DejaVuSans-36" x="95.410156"/>
      </g>
     </g>
    </g>
    <g id="ytick_5">
     <g id="line2d_37">
      <path d="M 43.78125 99.934125 
L 601.78125 99.934125 
" clip-path="url(#p099cc37943)" style="fill: none; stroke: #b0b0b0; stroke-width: 0.8; stroke-linecap: square"/>
     </g>
     <g id="line2d_38">
      <g>
       <use xlink:href="#mb69b5835ce" x="43.78125" y="99.934125" style="stroke: #000000; stroke-width: 0.8"/>
      </g>
     </g>
     <g id="text_19">
      <!-- 0.8 -->
      <g transform="translate(20.878125 103.733344) scale(0.1 -0.1)">
       <defs>
        <path id="DejaVuSans-38" d="M 2034 2216 
Q 1584 2216 1326 1975 
Q 1069 1734 1069 1313 
Q 1069 891 1326 650 
Q 1584 409 2034 409 
Q 2484 409 2743 651 
Q 3003 894 3003 1313 
Q 3003 1734 2745 1975 
Q 2488 2216 2034 2216 
z
M 1403 2484 
Q 997 2584 770 2862 
Q 544 3141 544 3541 
Q 544 4100 942 4425 
Q 1341 4750 2034 4750 
Q 2731 4750 3128 4425 
Q 3525 4100 3525 3541 
Q 3525 3141 3298 2862 
Q 3072 2584 2669 2484 
Q 3125 2378 3379 2068 
Q 3634 1759 3634 1313 
Q 3634 634 3220 271 
Q 2806 -91 2034 -91 
Q 1263 -91 848 271 
Q 434 634 434 1313 
Q 434 1759 690 2068 
Q 947 2378 1403 2484 
z
M 1172 3481 
Q 1172 3119 1398 2916 
Q 1625 2713 2034 2713 
Q 2441 2713 2670 2916 
Q 2900 3119 2900 3481 
Q 2900 3844 2670 4047 
Q 2441 4250 2034 4250 
Q 1625 4250 1398 4047 
Q 1172 3844 1172 3481 
z
" transform="scale(0.015625)"/>
       </defs>
       <use xlink:href="#DejaVuSans-30"/>
       <use xlink:href="#DejaVuSans-2e" x="63.623047"/>
       <use xlink:href="#DejaVuSans-38" x="95.410156"/>
      </g>
     </g>
    </g>
    <g id="ytick_6">
     <g id="line2d_39">
      <path d="M 43.78125 22.318125 
L 601.78125 22.318125 
" clip-path="url(#p099cc37943)" style="fill: none; stroke: #b0b0b0; stroke-width: 0.8; stroke-linecap: square"/>
     </g>
     <g id="line2d_40">
      <g>
       <use xlink:href="#mb69b5835ce" x="43.78125" y="22.318125" style="stroke: #000000; stroke-width: 0.8"/>
      </g>
     </g>
     <g id="text_20">
      <!-- 1.0 -->
      <g transform="translate(20.878125 26.117344) scale(0.1 -0.1)">
       <use xlink:href="#DejaVuSans-31"/>
       <use xlink:href="#DejaVuSans-2e" x="63.623047"/>
       <use xlink:href="#DejaVuSans-30" x="95.410156"/>
      </g>
     </g>
    </g>
    <g id="text_21">
     <!-- Probability of pitting -->
     <g transform="translate(14.798438 267.000312) rotate(-90) scale(0.1 -0.1)">
      <defs>
       <path id="DejaVuSans-50" d="M 1259 4147 
L 1259 2394 
L 2053 2394 
Q 2494 2394 2734 2622 
Q 2975 2850 2975 3272 
Q 2975 3691 2734 3919 
Q 2494 4147 2053 4147 
L 1259 4147 
z
M 628 4666 
L 2053 4666 
Q 2838 4666 3239 4311 
Q 3641 3956 3641 3272 
Q 3641 2581 3239 2228 
Q 2838 1875 2053 1875 
L 1259 1875 
L 1259 0 
L 628 0 
L 628 4666 
z
" transform="scale(0.015625)"/>
       <path id="DejaVuSans-6f" d="M 1959 3097 
Q 1497 3097 1228 2736 
Q 959 2375 959 1747 
Q 959 1119 1226 758 
Q 1494 397 1959 397 
Q 2419 397 2687 759 
Q 2956 1122 2956 1747 
Q 2956 2369 2687 2733 
Q 2419 3097 1959 3097 
z
M 1959 3584 
Q 2709 3584 3137 3096 
Q 3566 2609 3566 1747 
Q 3566 888 3137 398 
Q 2709 -91 1959 -91 
Q 1206 -91 779 398 
Q 353 888 353 1747 
Q 353 2609 779 3096 
Q 1206 3584 1959 3584 
z
" transform="scale(0.015625)"/>
       <path id="DejaVuSans-69" d="M 603 3500 
L 1178 3500 
L 1178 0 
L 603 0 
L 603 3500 
z
M 603 4863 
L 1178 4863 
L 1178 4134 
L 603 4134 
L 603 4863 
z
" transform="scale(0.015625)"/>
       <path id="DejaVuSans-6c" d="M 603 4863 
L 1178 4863 
L 1178 0 
L 603 0 
L 603 4863 
z
" transform="scale(0.015625)"/>
       <path id="DejaVuSans-74" d="M 1172 4494 
L 1172 3500 
L 2356 3500 
L 2356 3053 
L 1172 3053 
L 1172 1153 
Q 1172 725 1289 603 
Q 1406 481 1766 481 
L 2356 481 
L 2356 0 
L 1766 0 
Q 1100 0 847 248 
Q 594 497 594 1153 
L 594 3053 
L 172 3053 
L 172 3500 
L 594 3500 
L 594 4494 
L 1172 4494 
z
" transform="scale(0.015625)"/>
       <path id="DejaVuSans-79" d="M 2059 -325 
Q 1816 -950 1584 -1140 
Q 1353 -1331 966 -1331 
L 506 -1331 
L 506 -850 
L 844 -850 
Q 1081 -850 1212 -737 
Q 1344 -625 1503 -206 
L 1606 56 
L 191 3500 
L 800 3500 
L 1894 763 
L 2988 3500 
L 3597 3500 
L 2059 -325 
z
" transform="scale(0.015625)"/>
       <path id="DejaVuSans-66" d="M 2375 4863 
L 2375 4384 
L 1825 4384 
Q 1516 4384 1395 4259 
Q 1275 4134 1275 3809 
L 1275 3500 
L 2222 3500 
L 2222 3053 
L 1275 3053 
L 1275 0 
L 697 0 
L 697 3053 
L 147 3053 
L 147 3500 
L 697 3500 
L 697 3744 
Q 697 4328 969 4595 
Q 1241 4863 1831 4863 
L 2375 4863 
z
" transform="scale(0.015625)"/>
       <path id="DejaVuSans-6e" d="M 3513 2113 
L 3513 0 
L 2938 0 
L 2938 2094 
Q 2938 2591 2744 2837 
Q 2550 3084 2163 3084 
Q 1697 3084 1428 2787 
Q 1159 2491 1159 1978 
L 1159 0 
L 581 0 
L 581 3500 
L 1159 3500 
L 1159 2956 
Q 1366 3272 1645 3428 
Q 1925 3584 2291 3584 
Q 2894 3584 3203 3211 
Q 3513 2838 3513 2113 
z
" transform="scale(0.015625)"/>
       <path id="DejaVuSans-67" d="M 2906 1791 
Q 2906 2416 2648 2759 
Q 2391 3103 1925 3103 
Q 1463 3103 1205 2759 
Q 947 2416 947 1791 
Q 947 1169 1205 825 
Q 1463 481 1925 481 
Q 2391 481 2648 825 
Q 2906 1169 2906 1791 
z
M 3481 434 
Q 3481 -459 3084 -895 
Q 2688 -1331 1869 -1331 
Q 1566 -1331 1297 -1286 
Q 1028 -1241 775 -1147 
L 775 -588 
Q 1028 -725 1275 -790 
Q 1522 -856 1778 -856 
Q 2344 -856 2625 -561 
Q 2906 -266 2906 331 
L 2906 616 
Q 2728 306 2450 153 
Q 2172 0 1784 0 
Q 1141 0 747 490 
Q 353 981 353 1791 
Q 353 2603 747 3093 
Q 1141 3584 1784 3584 
Q 2172 3584 2450 3431 
Q 2728 3278 2906 2969 
L 2906 3500 
L 3481 3500 
L 3481 434 
z
" transform="scale(0.015625)"/>
      </defs>
      <use xlink:href="#DejaVuSans-50"/>
      <use xlink:href="#DejaVuSans-72" x="58.552734"/>
      <use xlink:href="#DejaVuSans-6f" x="97.416016"/>
      <use xlink:href="#DejaVuSans-62" x="158.597656"/>
      <use xlink:href="#DejaVuSans-61" x="222.074219"/>
      <use xlink:href="#DejaVuSans-62" x="283.353516"/>
      <use xlink:href="#DejaVuSans-69" x="346.830078"/>
      <use xlink:href="#DejaVuSans-6c" x="374.613281"/>
      <use xlink:href="#DejaVuSans-69" x="402.396484"/>
      <use xlink:href="#DejaVuSans-74" x="430.179688"/>
      <use xlink:href="#DejaVuSans-79" x="469.388672"/>
      <use xlink:href="#DejaVuSans-20" x="528.568359"/>
      <use xlink:href="#DejaVuSans-6f" x="560.355469"/>
      <use xlink:href="#DejaVuSans-66" x="621.537109"/>
      <use xlink:href="#DejaVuSans-20" x="656.742188"/>
      <use xlink:href="#DejaVuSans-70" x="688.529297"/>
      <use xlink:href="#DejaVuSans-69" x="752.005859"/>
      <use xlink:href="#DejaVuSans-74" x="779.789062"/>
      <use xlink:href="#DejaVuSans-74" x="818.998047"/>
      <use xlink:href="#DejaVuSans-69" x="858.207031"/>
      <use xlink:href="#DejaVuSans-6e" x="885.990234"/>
      <use xlink:href="#DejaVuSans-67" x="949.369141"/>
     </g>
    </g>
   </g>
   <g id="patch_82">
    <path d="M 43.78125 410.398125 
L 43.78125 22.318125 
" style="fill: none; stroke: #000000; stroke-width: 0.8; stroke-linejoin: miter; stroke-linecap: square"/>
   </g>
   <g id="patch_83">
    <path d="M 601.78125 410.398125 
L 601.78125 22.318125 
" style="fill: none; stroke: #000000; stroke-width: 0.8; stroke-linejoin: miter; stroke-linecap: square"/>
   </g>
   <g id="patch_84">
    <path d="M 43.78125 410.398125 
L 601.78125 410.398125 
" style="fill: none; stroke: #000000; stroke-width: 0.8; stroke-linejoin: miter; stroke-linecap: square"/>
   </g>
   <g id="patch_85">
    <path d="M 43.78125 22.318125 
L 601.78125 22.318125 
" style="fill: none; stroke: #000000; stroke-width: 0.8; stroke-linejoin: miter; stroke-linecap: square"/>
   </g>
   <g id="text_22">
    <!-- Montral - Driver 10 -->
    <g transform="translate(262.427813 16.318125) scale(0.12 -0.12)">
     <defs>
      <path id="DejaVuSans-4d" d="M 628 4666 
L 1569 4666 
L 2759 1491 
L 3956 4666 
L 4897 4666 
L 4897 0 
L 4281 0 
L 4281 4097 
L 3078 897 
L 2444 897 
L 1241 4097 
L 1241 0 
L 628 0 
L 628 4666 
z
" transform="scale(0.015625)"/>
      <path id="DejaVuSans-e9" d="M 3597 1894 
L 3597 1613 
L 953 1613 
Q 991 1019 1311 708 
Q 1631 397 2203 397 
Q 2534 397 2845 478 
Q 3156 559 3463 722 
L 3463 178 
Q 3153 47 2828 -22 
Q 2503 -91 2169 -91 
Q 1331 -91 842 396 
Q 353 884 353 1716 
Q 353 2575 817 3079 
Q 1281 3584 2069 3584 
Q 2775 3584 3186 3129 
Q 3597 2675 3597 1894 
z
M 3022 2063 
Q 3016 2534 2758 2815 
Q 2500 3097 2075 3097 
Q 1594 3097 1305 2825 
Q 1016 2553 972 2059 
L 3022 2063 
z
M 2466 5119 
L 3088 5119 
L 2070 3944 
L 1591 3944 
L 2466 5119 
z
" transform="scale(0.015625)"/>
      <path id="DejaVuSans-2d" d="M 313 2009 
L 1997 2009 
L 1997 1497 
L 313 1497 
L 313 2009 
z
" transform="scale(0.015625)"/>
      <path id="DejaVuSans-44" d="M 1259 4147 
L 1259 519 
L 2022 519 
Q 2988 519 3436 956 
Q 3884 1394 3884 2338 
Q 3884 3275 3436 3711 
Q 2988 4147 2022 4147 
L 1259 4147 
z
M 628 4666 
L 1925 4666 
Q 3281 4666 3915 4102 
Q 4550 3538 4550 2338 
Q 4550 1131 3912 565 
Q 3275 0 1925 0 
L 628 0 
L 628 4666 
z
" transform="scale(0.015625)"/>
      <path id="DejaVuSans-76" d="M 191 3500 
L 800 3500 
L 1894 563 
L 2988 3500 
L 3597 3500 
L 2284 0 
L 1503 0 
L 191 3500 
z
" transform="scale(0.015625)"/>
     </defs>
     <use xlink:href="#DejaVuSans-4d"/>
     <use xlink:href="#DejaVuSans-6f" x="86.279297"/>
     <use xlink:href="#DejaVuSans-6e" x="147.460938"/>
     <use xlink:href="#DejaVuSans-74" x="210.839844"/>
     <use xlink:href="#DejaVuSans-72" x="250.048828"/>
     <use xlink:href="#DejaVuSans-e9" x="288.912109"/>
     <use xlink:href="#DejaVuSans-61" x="350.435547"/>
     <use xlink:href="#DejaVuSans-6c" x="411.714844"/>
     <use xlink:href="#DejaVuSans-20" x="439.498047"/>
     <use xlink:href="#DejaVuSans-2d" x="471.285156"/>
     <use xlink:href="#DejaVuSans-20" x="507.369141"/>
     <use xlink:href="#DejaVuSans-44" x="539.15625"/>
     <use xlink:href="#DejaVuSans-72" x="616.158203"/>
     <use xlink:href="#DejaVuSans-69" x="657.271484"/>
     <use xlink:href="#DejaVuSans-76" x="685.054688"/>
     <use xlink:href="#DejaVuSans-65" x="744.234375"/>
     <use xlink:href="#DejaVuSans-72" x="805.757812"/>
     <use xlink:href="#DejaVuSans-20" x="846.871094"/>
     <use xlink:href="#DejaVuSans-31" x="878.658203"/>
     <use xlink:href="#DejaVuSans-30" x="942.28125"/>
    </g>
   </g>
   <g id="legend_1">
    <g id="patch_86">
     <path d="M 609.36125 128.62125 
L 755.420625 128.62125 
Q 757.420625 128.62125 757.420625 126.62125 
L 757.420625 24.318125 
Q 757.420625 22.318125 755.420625 22.318125 
L 609.36125 22.318125 
Q 607.36125 22.318125 607.36125 24.318125 
L 607.36125 126.62125 
Q 607.36125 128.62125 609.36125 128.62125 
z
" style="fill: #ffffff; opacity: 0.8; stroke: #cccccc; stroke-linejoin: miter"/>
    </g>
    <g id="patch_87">
     <path d="M 611.36125 33.916562 
L 631.36125 33.916562 
L 631.36125 26.916562 
L 611.36125 26.916562 
z
" style="fill: url(#h142cc369c7); opacity: 0.3; stroke: #000000; stroke-linejoin: miter"/>
    </g>
    <g id="text_23">
     <!-- Virtual Safety Car -->
     <g transform="translate(639.36125 33.916562) scale(0.1 -0.1)">
      <defs>
       <path id="DejaVuSans-56" d="M 1831 0 
L 50 4666 
L 709 4666 
L 2188 738 
L 3669 4666 
L 4325 4666 
L 2547 0 
L 1831 0 
z
" transform="scale(0.015625)"/>
       <path id="DejaVuSans-53" d="M 3425 4513 
L 3425 3897 
Q 3066 4069 2747 4153 
Q 2428 4238 2131 4238 
Q 1616 4238 1336 4038 
Q 1056 3838 1056 3469 
Q 1056 3159 1242 3001 
Q 1428 2844 1947 2747 
L 2328 2669 
Q 3034 2534 3370 2195 
Q 3706 1856 3706 1288 
Q 3706 609 3251 259 
Q 2797 -91 1919 -91 
Q 1588 -91 1214 -16 
Q 841 59 441 206 
L 441 856 
Q 825 641 1194 531 
Q 1563 422 1919 422 
Q 2459 422 2753 634 
Q 3047 847 3047 1241 
Q 3047 1584 2836 1778 
Q 2625 1972 2144 2069 
L 1759 2144 
Q 1053 2284 737 2584 
Q 422 2884 422 3419 
Q 422 4038 858 4394 
Q 1294 4750 2059 4750 
Q 2388 4750 2728 4690 
Q 3069 4631 3425 4513 
z
" transform="scale(0.015625)"/>
       <path id="DejaVuSans-43" d="M 4122 4306 
L 4122 3641 
Q 3803 3938 3442 4084 
Q 3081 4231 2675 4231 
Q 1875 4231 1450 3742 
Q 1025 3253 1025 2328 
Q 1025 1406 1450 917 
Q 1875 428 2675 428 
Q 3081 428 3442 575 
Q 3803 722 4122 1019 
L 4122 359 
Q 3791 134 3420 21 
Q 3050 -91 2638 -91 
Q 1578 -91 968 557 
Q 359 1206 359 2328 
Q 359 3453 968 4101 
Q 1578 4750 2638 4750 
Q 3056 4750 3426 4639 
Q 3797 4528 4122 4306 
z
" transform="scale(0.015625)"/>
      </defs>
      <use xlink:href="#DejaVuSans-56"/>
      <use xlink:href="#DejaVuSans-69" x="66.158203"/>
      <use xlink:href="#DejaVuSans-72" x="93.941406"/>
      <use xlink:href="#DejaVuSans-74" x="135.054688"/>
      <use xlink:href="#DejaVuSans-75" x="174.263672"/>
      <use xlink:href="#DejaVuSans-61" x="237.642578"/>
      <use xlink:href="#DejaVuSans-6c" x="298.921875"/>
      <use xlink:href="#DejaVuSans-20" x="326.705078"/>
      <use xlink:href="#DejaVuSans-53" x="358.492188"/>
      <use xlink:href="#DejaVuSans-61" x="421.96875"/>
      <use xlink:href="#DejaVuSans-66" x="483.248047"/>
      <use xlink:href="#DejaVuSans-65" x="518.453125"/>
      <use xlink:href="#DejaVuSans-74" x="579.976562"/>
      <use xlink:href="#DejaVuSans-79" x="619.185547"/>
      <use xlink:href="#DejaVuSans-20" x="678.365234"/>
      <use xlink:href="#DejaVuSans-43" x="710.152344"/>
      <use xlink:href="#DejaVuSans-61" x="779.976562"/>
      <use xlink:href="#DejaVuSans-72" x="841.255859"/>
     </g>
    </g>
    <g id="patch_88">
     <path d="M 611.36125 48.594687 
L 631.36125 48.594687 
L 631.36125 41.594687 
L 611.36125 41.594687 
z
" style="fill: url(#h7a4c4f0045); opacity: 0.3; stroke: #000000; stroke-linejoin: miter"/>
    </g>
    <g id="text_24">
     <!-- Safety Car -->
     <g transform="translate(639.36125 48.594687) scale(0.1 -0.1)">
      <use xlink:href="#DejaVuSans-53"/>
      <use xlink:href="#DejaVuSans-61" x="63.476562"/>
      <use xlink:href="#DejaVuSans-66" x="124.755859"/>
      <use xlink:href="#DejaVuSans-65" x="159.960938"/>
      <use xlink:href="#DejaVuSans-74" x="221.484375"/>
      <use xlink:href="#DejaVuSans-79" x="260.693359"/>
      <use xlink:href="#DejaVuSans-20" x="319.873047"/>
      <use xlink:href="#DejaVuSans-43" x="351.660156"/>
      <use xlink:href="#DejaVuSans-61" x="421.484375"/>
      <use xlink:href="#DejaVuSans-72" x="482.763672"/>
     </g>
    </g>
    <g id="patch_89">
     <path d="M 611.36125 63.272812 
L 631.36125 63.272812 
L 631.36125 56.272812 
L 611.36125 56.272812 
z
" style="fill: #ffff00; opacity: 0.3"/>
    </g>
    <g id="text_25">
     <!-- Yellow Flag -->
     <g transform="translate(639.36125 63.272812) scale(0.1 -0.1)">
      <defs>
       <path id="DejaVuSans-59" d="M -13 4666 
L 666 4666 
L 1959 2747 
L 3244 4666 
L 3922 4666 
L 2272 2222 
L 2272 0 
L 1638 0 
L 1638 2222 
L -13 4666 
z
" transform="scale(0.015625)"/>
       <path id="DejaVuSans-77" d="M 269 3500 
L 844 3500 
L 1563 769 
L 2278 3500 
L 2956 3500 
L 3675 769 
L 4391 3500 
L 4966 3500 
L 4050 0 
L 3372 0 
L 2619 2869 
L 1863 0 
L 1184 0 
L 269 3500 
z
" transform="scale(0.015625)"/>
       <path id="DejaVuSans-46" d="M 628 4666 
L 3309 4666 
L 3309 4134 
L 1259 4134 
L 1259 2759 
L 3109 2759 
L 3109 2228 
L 1259 2228 
L 1259 0 
L 628 0 
L 628 4666 
z
" transform="scale(0.015625)"/>
      </defs>
      <use xlink:href="#DejaVuSans-59"/>
      <use xlink:href="#DejaVuSans-65" x="47.833984"/>
      <use xlink:href="#DejaVuSans-6c" x="109.357422"/>
      <use xlink:href="#DejaVuSans-6c" x="137.140625"/>
      <use xlink:href="#DejaVuSans-6f" x="164.923828"/>
      <use xlink:href="#DejaVuSans-77" x="226.105469"/>
      <use xlink:href="#DejaVuSans-20" x="307.892578"/>
      <use xlink:href="#DejaVuSans-46" x="339.679688"/>
      <use xlink:href="#DejaVuSans-6c" x="397.199219"/>
      <use xlink:href="#DejaVuSans-61" x="424.982422"/>
      <use xlink:href="#DejaVuSans-67" x="486.261719"/>
     </g>
    </g>
    <g id="patch_90">
     <path d="M 611.36125 77.950937 
L 631.36125 77.950937 
L 631.36125 70.950937 
L 611.36125 70.950937 
z
" style="fill: #ff0000"/>
    </g>
    <g id="text_26">
     <!-- Soft -->
     <g transform="translate(639.36125 77.950937) scale(0.1 -0.1)">
      <use xlink:href="#DejaVuSans-53"/>
      <use xlink:href="#DejaVuSans-6f" x="63.476562"/>
      <use xlink:href="#DejaVuSans-66" x="124.658203"/>
      <use xlink:href="#DejaVuSans-74" x="158.113281"/>
     </g>
    </g>
    <g id="patch_91">
     <path d="M 611.36125 92.629062 
L 631.36125 92.629062 
L 631.36125 85.629062 
L 611.36125 85.629062 
z
" style="fill: #808080"/>
    </g>
    <g id="text_27">
     <!-- Hard -->
     <g transform="translate(639.36125 92.629062) scale(0.1 -0.1)">
      <defs>
       <path id="DejaVuSans-48" d="M 628 4666 
L 1259 4666 
L 1259 2753 
L 3553 2753 
L 3553 4666 
L 4184 4666 
L 4184 0 
L 3553 0 
L 3553 2222 
L 1259 2222 
L 1259 0 
L 628 0 
L 628 4666 
z
" transform="scale(0.015625)"/>
       <path id="DejaVuSans-64" d="M 2906 2969 
L 2906 4863 
L 3481 4863 
L 3481 0 
L 2906 0 
L 2906 525 
Q 2725 213 2448 61 
Q 2172 -91 1784 -91 
Q 1150 -91 751 415 
Q 353 922 353 1747 
Q 353 2572 751 3078 
Q 1150 3584 1784 3584 
Q 2172 3584 2448 3432 
Q 2725 3281 2906 2969 
z
M 947 1747 
Q 947 1113 1208 752 
Q 1469 391 1925 391 
Q 2381 391 2643 752 
Q 2906 1113 2906 1747 
Q 2906 2381 2643 2742 
Q 2381 3103 1925 3103 
Q 1469 3103 1208 2742 
Q 947 2381 947 1747 
z
" transform="scale(0.015625)"/>
      </defs>
      <use xlink:href="#DejaVuSans-48"/>
      <use xlink:href="#DejaVuSans-61" x="75.195312"/>
      <use xlink:href="#DejaVuSans-72" x="136.474609"/>
      <use xlink:href="#DejaVuSans-64" x="175.837891"/>
     </g>
    </g>
    <g id="PathCollection_3">
     <g>
      <use xlink:href="#mdf24fc155f" x="621.36125" y="104.682187" style="fill: #1f77b4; stroke: #ffffff; stroke-width: 0.565685"/>
     </g>
    </g>
    <g id="text_28">
     <!-- model Random_Forest -->
     <g transform="translate(639.36125 107.307187) scale(0.1 -0.1)">
      <defs>
       <path id="DejaVuSans-52" d="M 2841 2188 
Q 3044 2119 3236 1894 
Q 3428 1669 3622 1275 
L 4263 0 
L 3584 0 
L 2988 1197 
Q 2756 1666 2539 1819 
Q 2322 1972 1947 1972 
L 1259 1972 
L 1259 0 
L 628 0 
L 628 4666 
L 2053 4666 
Q 2853 4666 3247 4331 
Q 3641 3997 3641 3322 
Q 3641 2881 3436 2590 
Q 3231 2300 2841 2188 
z
M 1259 4147 
L 1259 2491 
L 2053 2491 
Q 2509 2491 2742 2702 
Q 2975 2913 2975 3322 
Q 2975 3731 2742 3939 
Q 2509 4147 2053 4147 
L 1259 4147 
z
" transform="scale(0.015625)"/>
       <path id="DejaVuSans-5f" d="M 3263 -1063 
L 3263 -1509 
L -63 -1509 
L -63 -1063 
L 3263 -1063 
z
" transform="scale(0.015625)"/>
       <path id="DejaVuSans-73" d="M 2834 3397 
L 2834 2853 
Q 2591 2978 2328 3040 
Q 2066 3103 1784 3103 
Q 1356 3103 1142 2972 
Q 928 2841 928 2578 
Q 928 2378 1081 2264 
Q 1234 2150 1697 2047 
L 1894 2003 
Q 2506 1872 2764 1633 
Q 3022 1394 3022 966 
Q 3022 478 2636 193 
Q 2250 -91 1575 -91 
Q 1294 -91 989 -36 
Q 684 19 347 128 
L 347 722 
Q 666 556 975 473 
Q 1284 391 1588 391 
Q 1994 391 2212 530 
Q 2431 669 2431 922 
Q 2431 1156 2273 1281 
Q 2116 1406 1581 1522 
L 1381 1569 
Q 847 1681 609 1914 
Q 372 2147 372 2553 
Q 372 3047 722 3315 
Q 1072 3584 1716 3584 
Q 2034 3584 2315 3537 
Q 2597 3491 2834 3397 
z
" transform="scale(0.015625)"/>
      </defs>
      <use xlink:href="#DejaVuSans-6d"/>
      <use xlink:href="#DejaVuSans-6f" x="97.412109"/>
      <use xlink:href="#DejaVuSans-64" x="158.59375"/>
      <use xlink:href="#DejaVuSans-65" x="222.070312"/>
      <use xlink:href="#DejaVuSans-6c" x="283.59375"/>
      <use xlink:href="#DejaVuSans-20" x="311.376953"/>
      <use xlink:href="#DejaVuSans-52" x="343.164062"/>
      <use xlink:href="#DejaVuSans-61" x="410.396484"/>
      <use xlink:href="#DejaVuSans-6e" x="471.675781"/>
      <use xlink:href="#DejaVuSans-64" x="535.054688"/>
      <use xlink:href="#DejaVuSans-6f" x="598.53125"/>
      <use xlink:href="#DejaVuSans-6d" x="659.712891"/>
      <use xlink:href="#DejaVuSans-5f" x="757.125"/>
      <use xlink:href="#DejaVuSans-46" x="807.125"/>
      <use xlink:href="#DejaVuSans-6f" x="861.019531"/>
      <use xlink:href="#DejaVuSans-72" x="922.201172"/>
      <use xlink:href="#DejaVuSans-65" x="961.064453"/>
      <use xlink:href="#DejaVuSans-73" x="1022.587891"/>
      <use xlink:href="#DejaVuSans-74" x="1074.6875"/>
     </g>
    </g>
    <g id="PathCollection_4">
     <g>
      <use xlink:href="#m4f4f348892" x="621.36125" y="119.638437" style="fill: #ff7f0e; stroke: #ffffff; stroke-width: 0.565685"/>
     </g>
    </g>
    <g id="text_29">
     <!-- model Neural_Network -->
     <g transform="translate(639.36125 122.263437) scale(0.1 -0.1)">
      <defs>
       <path id="DejaVuSans-6b" d="M 581 4863 
L 1159 4863 
L 1159 1991 
L 2875 3500 
L 3609 3500 
L 1753 1863 
L 3688 0 
L 2938 0 
L 1159 1709 
L 1159 0 
L 581 0 
L 581 4863 
z
" transform="scale(0.015625)"/>
      </defs>
      <use xlink:href="#DejaVuSans-6d"/>
      <use xlink:href="#DejaVuSans-6f" x="97.412109"/>
      <use xlink:href="#DejaVuSans-64" x="158.59375"/>
      <use xlink:href="#DejaVuSans-65" x="222.070312"/>
      <use xlink:href="#DejaVuSans-6c" x="283.59375"/>
      <use xlink:href="#DejaVuSans-20" x="311.376953"/>
      <use xlink:href="#DejaVuSans-4e" x="343.164062"/>
      <use xlink:href="#DejaVuSans-65" x="417.96875"/>
      <use xlink:href="#DejaVuSans-75" x="479.492188"/>
      <use xlink:href="#DejaVuSans-72" x="542.871094"/>
      <use xlink:href="#DejaVuSans-61" x="583.984375"/>
      <use xlink:href="#DejaVuSans-6c" x="645.263672"/>
      <use xlink:href="#DejaVuSans-5f" x="673.046875"/>
      <use xlink:href="#DejaVuSans-4e" x="723.046875"/>
      <use xlink:href="#DejaVuSans-65" x="797.851562"/>
      <use xlink:href="#DejaVuSans-74" x="859.375"/>
      <use xlink:href="#DejaVuSans-77" x="898.583984"/>
      <use xlink:href="#DejaVuSans-6f" x="980.371094"/>
      <use xlink:href="#DejaVuSans-72" x="1041.552734"/>
      <use xlink:href="#DejaVuSans-6b" x="1082.666016"/>
     </g>
    </g>
   </g>
  </g>
 </g>
 <defs>
  <clipPath id="p099cc37943">
   <rect x="43.78125" y="22.318125" width="558" height="388.08"/>
  </clipPath>
 </defs>
 <defs>
  <pattern id="h142cc369c7" patternUnits="userSpaceOnUse" x="0" y="0" width="72" height="72">
   <rect x="0" y="0" width="73" height="73" fill="#ffff00"/>
   <path d="M 0 66 
L 72 66 
M 0 54 
L 72 54 
M 0 42 
L 72 42 
M 0 30 
L 72 30 
M 0 18 
L 72 18 
M 0 6 
L 72 6 
" style="fill: #000000; stroke: #000000; stroke-width: 1.0; stroke-linecap: butt; stroke-linejoin: miter; stroke-opacity: 0.3"/>
  </pattern>
  <pattern id="h7a4c4f0045" patternUnits="userSpaceOnUse" x="0" y="0" width="72" height="72">
   <rect x="0" y="0" width="73" height="73" fill="#ffff00"/>
   <path d="M -36 36 
L 36 108 
M -24 24 
L 48 96 
M -12 12 
L 60 84 
M 0 0 
L 72 72 
M 12 -12 
L 84 60 
M 24 -24 
L 96 48 
M 36 -36 
L 108 36 
" style="fill: #000000; stroke: #000000; stroke-width: 1.0; stroke-linecap: butt; stroke-linejoin: miter; stroke-opacity: 0.3"/>
  </pattern>
 </defs>
</svg>
