<?xml version="1.0" encoding="utf-8" standalone="no"?>
<!DOCTYPE svg PUBLIC "-//W3C//DTD SVG 1.1//EN"
  "http://www.w3.org/Graphics/SVG/1.1/DTD/svg11.dtd">
<svg xmlns:xlink="http://www.w3.org/1999/xlink" width="460.8pt" height="345.6pt" viewBox="0 0 460.8 345.6" xmlns="http://www.w3.org/2000/svg" version="1.1">
 <metadata>
  <rdf:RDF xmlns:dc="http://purl.org/dc/elements/1.1/" xmlns:cc="http://creativecommons.org/ns#" xmlns:rdf="http://www.w3.org/1999/02/22-rdf-syntax-ns#">
   <cc:Work>
    <dc:type rdf:resource="http://purl.org/dc/dcmitype/StillImage"/>
    <dc:date>2023-07-15T22:43:14.632630</dc:date>
    <dc:format>image/svg+xml</dc:format>
    <dc:creator>
     <cc:Agent>
      <dc:title>Matplotlib v3.7.2, https://matplotlib.org/</dc:title>
     </cc:Agent>
    </dc:creator>
   </cc:Work>
  </rdf:RDF>
 </metadata>
 <defs>
  <style type="text/css">*{stroke-linejoin: round; stroke-linecap: butt}</style>
 </defs>
 <g id="figure_1">
  <g id="patch_1">
   <path d="M 0 345.6 
L 460.8 345.6 
L 460.8 0 
L 0 0 
z
" style="fill: #ffffff"/>
  </g>
  <g id="axes_1">
   <g id="patch_2">
    <path d="M 57.6 307.584 
L 414.72 307.584 
L 414.72 41.472 
L 57.6 41.472 
z
" style="fill: #ffffff"/>
   </g>
   <g id="matplotlib.axis_1">
    <g id="xtick_1">
     <g id="line2d_1">
      <defs>
       <path id="m1f3ec8644f" d="M 0 0 
L 0 3.5 
" style="stroke: #000000; stroke-width: 0.8"/>
      </defs>
      <g>
       <use xlink:href="#m1f3ec8644f" x="73.832727" y="307.584" style="stroke: #000000; stroke-width: 0.8"/>
      </g>
     </g>
     <g id="text_1">
      <!-- 0 -->
      <g transform="translate(70.651477 322.182437) scale(0.1 -0.1)">
       <defs>
        <path id="DejaVuSans-30" d="M 2034 4250 
Q 1547 4250 1301 3770 
Q 1056 3291 1056 2328 
Q 1056 1369 1301 889 
Q 1547 409 2034 409 
Q 2525 409 2770 889 
Q 3016 1369 3016 2328 
Q 3016 3291 2770 3770 
Q 2525 4250 2034 4250 
z
M 2034 4750 
Q 2819 4750 3233 4129 
Q 3647 3509 3647 2328 
Q 3647 1150 3233 529 
Q 2819 -91 2034 -91 
Q 1250 -91 836 529 
Q 422 1150 422 2328 
Q 422 3509 836 4129 
Q 1250 4750 2034 4750 
z
" transform="scale(0.015625)"/>
       </defs>
       <use xlink:href="#DejaVuSans-30"/>
      </g>
     </g>
    </g>
    <g id="xtick_2">
     <g id="line2d_2">
      <g>
       <use xlink:href="#m1f3ec8644f" x="128.122785" y="307.584" style="stroke: #000000; stroke-width: 0.8"/>
      </g>
     </g>
     <g id="text_2">
      <!-- 50 -->
      <g transform="translate(121.760285 322.182437) scale(0.1 -0.1)">
       <defs>
        <path id="DejaVuSans-35" d="M 691 4666 
L 3169 4666 
L 3169 4134 
L 1269 4134 
L 1269 2991 
Q 1406 3038 1543 3061 
Q 1681 3084 1819 3084 
Q 2600 3084 3056 2656 
Q 3513 2228 3513 1497 
Q 3513 744 3044 326 
Q 2575 -91 1722 -91 
Q 1428 -91 1123 -41 
Q 819 9 494 109 
L 494 744 
Q 775 591 1075 516 
Q 1375 441 1709 441 
Q 2250 441 2565 725 
Q 2881 1009 2881 1497 
Q 2881 1984 2565 2268 
Q 2250 2553 1709 2553 
Q 1456 2553 1204 2497 
Q 953 2441 691 2322 
L 691 4666 
z
" transform="scale(0.015625)"/>
       </defs>
       <use xlink:href="#DejaVuSans-35"/>
       <use xlink:href="#DejaVuSans-30" x="63.623047"/>
      </g>
     </g>
    </g>
    <g id="xtick_3">
     <g id="line2d_3">
      <g>
       <use xlink:href="#m1f3ec8644f" x="182.412843" y="307.584" style="stroke: #000000; stroke-width: 0.8"/>
      </g>
     </g>
     <g id="text_3">
      <!-- 100 -->
      <g transform="translate(172.869093 322.182437) scale(0.1 -0.1)">
       <defs>
        <path id="DejaVuSans-31" d="M 794 531 
L 1825 531 
L 1825 4091 
L 703 3866 
L 703 4441 
L 1819 4666 
L 2450 4666 
L 2450 531 
L 3481 531 
L 3481 0 
L 794 0 
L 794 531 
z
" transform="scale(0.015625)"/>
       </defs>
       <use xlink:href="#DejaVuSans-31"/>
       <use xlink:href="#DejaVuSans-30" x="63.623047"/>
       <use xlink:href="#DejaVuSans-30" x="127.246094"/>
      </g>
     </g>
    </g>
    <g id="xtick_4">
     <g id="line2d_4">
      <g>
       <use xlink:href="#m1f3ec8644f" x="236.702901" y="307.584" style="stroke: #000000; stroke-width: 0.8"/>
      </g>
     </g>
     <g id="text_4">
      <!-- 150 -->
      <g transform="translate(227.159151 322.182437) scale(0.1 -0.1)">
       <use xlink:href="#DejaVuSans-31"/>
       <use xlink:href="#DejaVuSans-35" x="63.623047"/>
       <use xlink:href="#DejaVuSans-30" x="127.246094"/>
      </g>
     </g>
    </g>
    <g id="xtick_5">
     <g id="line2d_5">
      <g>
       <use xlink:href="#m1f3ec8644f" x="290.992958" y="307.584" style="stroke: #000000; stroke-width: 0.8"/>
      </g>
     </g>
     <g id="text_5">
      <!-- 200 -->
      <g transform="translate(281.449208 322.182437) scale(0.1 -0.1)">
       <defs>
        <path id="DejaVuSans-32" d="M 1228 531 
L 3431 531 
L 3431 0 
L 469 0 
L 469 531 
Q 828 903 1448 1529 
Q 2069 2156 2228 2338 
Q 2531 2678 2651 2914 
Q 2772 3150 2772 3378 
Q 2772 3750 2511 3984 
Q 2250 4219 1831 4219 
Q 1534 4219 1204 4116 
Q 875 4013 500 3803 
L 500 4441 
Q 881 4594 1212 4672 
Q 1544 4750 1819 4750 
Q 2544 4750 2975 4387 
Q 3406 4025 3406 3419 
Q 3406 3131 3298 2873 
Q 3191 2616 2906 2266 
Q 2828 2175 2409 1742 
Q 1991 1309 1228 531 
z
" transform="scale(0.015625)"/>
       </defs>
       <use xlink:href="#DejaVuSans-32"/>
       <use xlink:href="#DejaVuSans-30" x="63.623047"/>
       <use xlink:href="#DejaVuSans-30" x="127.246094"/>
      </g>
     </g>
    </g>
    <g id="xtick_6">
     <g id="line2d_6">
      <g>
       <use xlink:href="#m1f3ec8644f" x="345.283016" y="307.584" style="stroke: #000000; stroke-width: 0.8"/>
      </g>
     </g>
     <g id="text_6">
      <!-- 250 -->
      <g transform="translate(335.739266 322.182437) scale(0.1 -0.1)">
       <use xlink:href="#DejaVuSans-32"/>
       <use xlink:href="#DejaVuSans-35" x="63.623047"/>
       <use xlink:href="#DejaVuSans-30" x="127.246094"/>
      </g>
     </g>
    </g>
    <g id="xtick_7">
     <g id="line2d_7">
      <g>
       <use xlink:href="#m1f3ec8644f" x="399.573074" y="307.584" style="stroke: #000000; stroke-width: 0.8"/>
      </g>
     </g>
     <g id="text_7">
      <!-- 300 -->
      <g transform="translate(390.029324 322.182437) scale(0.1 -0.1)">
       <defs>
        <path id="DejaVuSans-33" d="M 2597 2516 
Q 3050 2419 3304 2112 
Q 3559 1806 3559 1356 
Q 3559 666 3084 287 
Q 2609 -91 1734 -91 
Q 1441 -91 1130 -33 
Q 819 25 488 141 
L 488 750 
Q 750 597 1062 519 
Q 1375 441 1716 441 
Q 2309 441 2620 675 
Q 2931 909 2931 1356 
Q 2931 1769 2642 2001 
Q 2353 2234 1838 2234 
L 1294 2234 
L 1294 2753 
L 1863 2753 
Q 2328 2753 2575 2939 
Q 2822 3125 2822 3475 
Q 2822 3834 2567 4026 
Q 2313 4219 1838 4219 
Q 1578 4219 1281 4162 
Q 984 4106 628 3988 
L 628 4550 
Q 988 4650 1302 4700 
Q 1616 4750 1894 4750 
Q 2613 4750 3031 4423 
Q 3450 4097 3450 3541 
Q 3450 3153 3228 2886 
Q 3006 2619 2597 2516 
z
" transform="scale(0.015625)"/>
       </defs>
       <use xlink:href="#DejaVuSans-33"/>
       <use xlink:href="#DejaVuSans-30" x="63.623047"/>
       <use xlink:href="#DejaVuSans-30" x="127.246094"/>
      </g>
     </g>
    </g>
    <g id="text_8">
     <!-- Epoch -->
     <g transform="translate(220.849063 335.860562) scale(0.1 -0.1)">
      <defs>
       <path id="DejaVuSans-45" d="M 628 4666 
L 3578 4666 
L 3578 4134 
L 1259 4134 
L 1259 2753 
L 3481 2753 
L 3481 2222 
L 1259 2222 
L 1259 531 
L 3634 531 
L 3634 0 
L 628 0 
L 628 4666 
z
" transform="scale(0.015625)"/>
       <path id="DejaVuSans-70" d="M 1159 525 
L 1159 -1331 
L 581 -1331 
L 581 3500 
L 1159 3500 
L 1159 2969 
Q 1341 3281 1617 3432 
Q 1894 3584 2278 3584 
Q 2916 3584 3314 3078 
Q 3713 2572 3713 1747 
Q 3713 922 3314 415 
Q 2916 -91 2278 -91 
Q 1894 -91 1617 61 
Q 1341 213 1159 525 
z
M 3116 1747 
Q 3116 2381 2855 2742 
Q 2594 3103 2138 3103 
Q 1681 3103 1420 2742 
Q 1159 2381 1159 1747 
Q 1159 1113 1420 752 
Q 1681 391 2138 391 
Q 2594 391 2855 752 
Q 3116 1113 3116 1747 
z
" transform="scale(0.015625)"/>
       <path id="DejaVuSans-6f" d="M 1959 3097 
Q 1497 3097 1228 2736 
Q 959 2375 959 1747 
Q 959 1119 1226 758 
Q 1494 397 1959 397 
Q 2419 397 2687 759 
Q 2956 1122 2956 1747 
Q 2956 2369 2687 2733 
Q 2419 3097 1959 3097 
z
M 1959 3584 
Q 2709 3584 3137 3096 
Q 3566 2609 3566 1747 
Q 3566 888 3137 398 
Q 2709 -91 1959 -91 
Q 1206 -91 779 398 
Q 353 888 353 1747 
Q 353 2609 779 3096 
Q 1206 3584 1959 3584 
z
" transform="scale(0.015625)"/>
       <path id="DejaVuSans-63" d="M 3122 3366 
L 3122 2828 
Q 2878 2963 2633 3030 
Q 2388 3097 2138 3097 
Q 1578 3097 1268 2742 
Q 959 2388 959 1747 
Q 959 1106 1268 751 
Q 1578 397 2138 397 
Q 2388 397 2633 464 
Q 2878 531 3122 666 
L 3122 134 
Q 2881 22 2623 -34 
Q 2366 -91 2075 -91 
Q 1284 -91 818 406 
Q 353 903 353 1747 
Q 353 2603 823 3093 
Q 1294 3584 2113 3584 
Q 2378 3584 2631 3529 
Q 2884 3475 3122 3366 
z
" transform="scale(0.015625)"/>
       <path id="DejaVuSans-68" d="M 3513 2113 
L 3513 0 
L 2938 0 
L 2938 2094 
Q 2938 2591 2744 2837 
Q 2550 3084 2163 3084 
Q 1697 3084 1428 2787 
Q 1159 2491 1159 1978 
L 1159 0 
L 581 0 
L 581 4863 
L 1159 4863 
L 1159 2956 
Q 1366 3272 1645 3428 
Q 1925 3584 2291 3584 
Q 2894 3584 3203 3211 
Q 3513 2838 3513 2113 
z
" transform="scale(0.015625)"/>
      </defs>
      <use xlink:href="#DejaVuSans-45"/>
      <use xlink:href="#DejaVuSans-70" x="63.183594"/>
      <use xlink:href="#DejaVuSans-6f" x="126.660156"/>
      <use xlink:href="#DejaVuSans-63" x="187.841797"/>
      <use xlink:href="#DejaVuSans-68" x="242.822266"/>
     </g>
    </g>
   </g>
   <g id="matplotlib.axis_2">
    <g id="ytick_1">
     <g id="line2d_8">
      <defs>
       <path id="ma6e72693ab" d="M 0 0 
L -3.5 0 
" style="stroke: #000000; stroke-width: 0.8"/>
      </defs>
      <g>
       <use xlink:href="#ma6e72693ab" x="57.6" y="294.394346" style="stroke: #000000; stroke-width: 0.8"/>
      </g>
     </g>
     <g id="text_9">
      <!-- 0.50 -->
      <g transform="translate(28.334375 298.193565) scale(0.1 -0.1)">
       <defs>
        <path id="DejaVuSans-2e" d="M 684 794 
L 1344 794 
L 1344 0 
L 684 0 
L 684 794 
z
" transform="scale(0.015625)"/>
       </defs>
       <use xlink:href="#DejaVuSans-30"/>
       <use xlink:href="#DejaVuSans-2e" x="63.623047"/>
       <use xlink:href="#DejaVuSans-35" x="95.410156"/>
       <use xlink:href="#DejaVuSans-30" x="159.033203"/>
      </g>
     </g>
    </g>
    <g id="ytick_2">
     <g id="line2d_9">
      <g>
       <use xlink:href="#ma6e72693ab" x="57.6" y="241.914683" style="stroke: #000000; stroke-width: 0.8"/>
      </g>
     </g>
     <g id="text_10">
      <!-- 0.55 -->
      <g transform="translate(28.334375 245.713902) scale(0.1 -0.1)">
       <use xlink:href="#DejaVuSans-30"/>
       <use xlink:href="#DejaVuSans-2e" x="63.623047"/>
       <use xlink:href="#DejaVuSans-35" x="95.410156"/>
       <use xlink:href="#DejaVuSans-35" x="159.033203"/>
      </g>
     </g>
    </g>
    <g id="ytick_3">
     <g id="line2d_10">
      <g>
       <use xlink:href="#ma6e72693ab" x="57.6" y="189.43502" style="stroke: #000000; stroke-width: 0.8"/>
      </g>
     </g>
     <g id="text_11">
      <!-- 0.60 -->
      <g transform="translate(28.334375 193.234239) scale(0.1 -0.1)">
       <defs>
        <path id="DejaVuSans-36" d="M 2113 2584 
Q 1688 2584 1439 2293 
Q 1191 2003 1191 1497 
Q 1191 994 1439 701 
Q 1688 409 2113 409 
Q 2538 409 2786 701 
Q 3034 994 3034 1497 
Q 3034 2003 2786 2293 
Q 2538 2584 2113 2584 
z
M 3366 4563 
L 3366 3988 
Q 3128 4100 2886 4159 
Q 2644 4219 2406 4219 
Q 1781 4219 1451 3797 
Q 1122 3375 1075 2522 
Q 1259 2794 1537 2939 
Q 1816 3084 2150 3084 
Q 2853 3084 3261 2657 
Q 3669 2231 3669 1497 
Q 3669 778 3244 343 
Q 2819 -91 2113 -91 
Q 1303 -91 875 529 
Q 447 1150 447 2328 
Q 447 3434 972 4092 
Q 1497 4750 2381 4750 
Q 2619 4750 2861 4703 
Q 3103 4656 3366 4563 
z
" transform="scale(0.015625)"/>
       </defs>
       <use xlink:href="#DejaVuSans-30"/>
       <use xlink:href="#DejaVuSans-2e" x="63.623047"/>
       <use xlink:href="#DejaVuSans-36" x="95.410156"/>
       <use xlink:href="#DejaVuSans-30" x="159.033203"/>
      </g>
     </g>
    </g>
    <g id="ytick_4">
     <g id="line2d_11">
      <g>
       <use xlink:href="#ma6e72693ab" x="57.6" y="136.955356" style="stroke: #000000; stroke-width: 0.8"/>
      </g>
     </g>
     <g id="text_12">
      <!-- 0.65 -->
      <g transform="translate(28.334375 140.754575) scale(0.1 -0.1)">
       <use xlink:href="#DejaVuSans-30"/>
       <use xlink:href="#DejaVuSans-2e" x="63.623047"/>
       <use xlink:href="#DejaVuSans-36" x="95.410156"/>
       <use xlink:href="#DejaVuSans-35" x="159.033203"/>
      </g>
     </g>
    </g>
    <g id="ytick_5">
     <g id="line2d_12">
      <g>
       <use xlink:href="#ma6e72693ab" x="57.6" y="84.475693" style="stroke: #000000; stroke-width: 0.8"/>
      </g>
     </g>
     <g id="text_13">
      <!-- 0.70 -->
      <g transform="translate(28.334375 88.274912) scale(0.1 -0.1)">
       <defs>
        <path id="DejaVuSans-37" d="M 525 4666 
L 3525 4666 
L 3525 4397 
L 1831 0 
L 1172 0 
L 2766 4134 
L 525 4134 
L 525 4666 
z
" transform="scale(0.015625)"/>
       </defs>
       <use xlink:href="#DejaVuSans-30"/>
       <use xlink:href="#DejaVuSans-2e" x="63.623047"/>
       <use xlink:href="#DejaVuSans-37" x="95.410156"/>
       <use xlink:href="#DejaVuSans-30" x="159.033203"/>
      </g>
     </g>
    </g>
    <g id="text_14">
     <!-- Balanced accuracy -->
     <g transform="translate(22.254687 221.792844) rotate(-90) scale(0.1 -0.1)">
      <defs>
       <path id="DejaVuSans-42" d="M 1259 2228 
L 1259 519 
L 2272 519 
Q 2781 519 3026 730 
Q 3272 941 3272 1375 
Q 3272 1813 3026 2020 
Q 2781 2228 2272 2228 
L 1259 2228 
z
M 1259 4147 
L 1259 2741 
L 2194 2741 
Q 2656 2741 2882 2914 
Q 3109 3088 3109 3444 
Q 3109 3797 2882 3972 
Q 2656 4147 2194 4147 
L 1259 4147 
z
M 628 4666 
L 2241 4666 
Q 2963 4666 3353 4366 
Q 3744 4066 3744 3513 
Q 3744 3084 3544 2831 
Q 3344 2578 2956 2516 
Q 3422 2416 3680 2098 
Q 3938 1781 3938 1306 
Q 3938 681 3513 340 
Q 3088 0 2303 0 
L 628 0 
L 628 4666 
z
" transform="scale(0.015625)"/>
       <path id="DejaVuSans-61" d="M 2194 1759 
Q 1497 1759 1228 1600 
Q 959 1441 959 1056 
Q 959 750 1161 570 
Q 1363 391 1709 391 
Q 2188 391 2477 730 
Q 2766 1069 2766 1631 
L 2766 1759 
L 2194 1759 
z
M 3341 1997 
L 3341 0 
L 2766 0 
L 2766 531 
Q 2569 213 2275 61 
Q 1981 -91 1556 -91 
Q 1019 -91 701 211 
Q 384 513 384 1019 
Q 384 1609 779 1909 
Q 1175 2209 1959 2209 
L 2766 2209 
L 2766 2266 
Q 2766 2663 2505 2880 
Q 2244 3097 1772 3097 
Q 1472 3097 1187 3025 
Q 903 2953 641 2809 
L 641 3341 
Q 956 3463 1253 3523 
Q 1550 3584 1831 3584 
Q 2591 3584 2966 3190 
Q 3341 2797 3341 1997 
z
" transform="scale(0.015625)"/>
       <path id="DejaVuSans-6c" d="M 603 4863 
L 1178 4863 
L 1178 0 
L 603 0 
L 603 4863 
z
" transform="scale(0.015625)"/>
       <path id="DejaVuSans-6e" d="M 3513 2113 
L 3513 0 
L 2938 0 
L 2938 2094 
Q 2938 2591 2744 2837 
Q 2550 3084 2163 3084 
Q 1697 3084 1428 2787 
Q 1159 2491 1159 1978 
L 1159 0 
L 581 0 
L 581 3500 
L 1159 3500 
L 1159 2956 
Q 1366 3272 1645 3428 
Q 1925 3584 2291 3584 
Q 2894 3584 3203 3211 
Q 3513 2838 3513 2113 
z
" transform="scale(0.015625)"/>
       <path id="DejaVuSans-65" d="M 3597 1894 
L 3597 1613 
L 953 1613 
Q 991 1019 1311 708 
Q 1631 397 2203 397 
Q 2534 397 2845 478 
Q 3156 559 3463 722 
L 3463 178 
Q 3153 47 2828 -22 
Q 2503 -91 2169 -91 
Q 1331 -91 842 396 
Q 353 884 353 1716 
Q 353 2575 817 3079 
Q 1281 3584 2069 3584 
Q 2775 3584 3186 3129 
Q 3597 2675 3597 1894 
z
M 3022 2063 
Q 3016 2534 2758 2815 
Q 2500 3097 2075 3097 
Q 1594 3097 1305 2825 
Q 1016 2553 972 2059 
L 3022 2063 
z
" transform="scale(0.015625)"/>
       <path id="DejaVuSans-64" d="M 2906 2969 
L 2906 4863 
L 3481 4863 
L 3481 0 
L 2906 0 
L 2906 525 
Q 2725 213 2448 61 
Q 2172 -91 1784 -91 
Q 1150 -91 751 415 
Q 353 922 353 1747 
Q 353 2572 751 3078 
Q 1150 3584 1784 3584 
Q 2172 3584 2448 3432 
Q 2725 3281 2906 2969 
z
M 947 1747 
Q 947 1113 1208 752 
Q 1469 391 1925 391 
Q 2381 391 2643 752 
Q 2906 1113 2906 1747 
Q 2906 2381 2643 2742 
Q 2381 3103 1925 3103 
Q 1469 3103 1208 2742 
Q 947 2381 947 1747 
z
" transform="scale(0.015625)"/>
       <path id="DejaVuSans-20" transform="scale(0.015625)"/>
       <path id="DejaVuSans-75" d="M 544 1381 
L 544 3500 
L 1119 3500 
L 1119 1403 
Q 1119 906 1312 657 
Q 1506 409 1894 409 
Q 2359 409 2629 706 
Q 2900 1003 2900 1516 
L 2900 3500 
L 3475 3500 
L 3475 0 
L 2900 0 
L 2900 538 
Q 2691 219 2414 64 
Q 2138 -91 1772 -91 
Q 1169 -91 856 284 
Q 544 659 544 1381 
z
M 1991 3584 
L 1991 3584 
z
" transform="scale(0.015625)"/>
       <path id="DejaVuSans-72" d="M 2631 2963 
Q 2534 3019 2420 3045 
Q 2306 3072 2169 3072 
Q 1681 3072 1420 2755 
Q 1159 2438 1159 1844 
L 1159 0 
L 581 0 
L 581 3500 
L 1159 3500 
L 1159 2956 
Q 1341 3275 1631 3429 
Q 1922 3584 2338 3584 
Q 2397 3584 2469 3576 
Q 2541 3569 2628 3553 
L 2631 2963 
z
" transform="scale(0.015625)"/>
       <path id="DejaVuSans-79" d="M 2059 -325 
Q 1816 -950 1584 -1140 
Q 1353 -1331 966 -1331 
L 506 -1331 
L 506 -850 
L 844 -850 
Q 1081 -850 1212 -737 
Q 1344 -625 1503 -206 
L 1606 56 
L 191 3500 
L 800 3500 
L 1894 763 
L 2988 3500 
L 3597 3500 
L 2059 -325 
z
" transform="scale(0.015625)"/>
      </defs>
      <use xlink:href="#DejaVuSans-42"/>
      <use xlink:href="#DejaVuSans-61" x="68.603516"/>
      <use xlink:href="#DejaVuSans-6c" x="129.882812"/>
      <use xlink:href="#DejaVuSans-61" x="157.666016"/>
      <use xlink:href="#DejaVuSans-6e" x="218.945312"/>
      <use xlink:href="#DejaVuSans-63" x="282.324219"/>
      <use xlink:href="#DejaVuSans-65" x="337.304688"/>
      <use xlink:href="#DejaVuSans-64" x="398.828125"/>
      <use xlink:href="#DejaVuSans-20" x="462.304688"/>
      <use xlink:href="#DejaVuSans-61" x="494.091797"/>
      <use xlink:href="#DejaVuSans-63" x="555.371094"/>
      <use xlink:href="#DejaVuSans-63" x="610.351562"/>
      <use xlink:href="#DejaVuSans-75" x="665.332031"/>
      <use xlink:href="#DejaVuSans-72" x="728.710938"/>
      <use xlink:href="#DejaVuSans-61" x="769.824219"/>
      <use xlink:href="#DejaVuSans-63" x="831.103516"/>
      <use xlink:href="#DejaVuSans-79" x="886.083984"/>
     </g>
    </g>
   </g>
   <g id="line2d_13">
    <path d="M 73.832727 294.666329 
L 74.918528 288.897644 
L 76.00433 292.666609 
L 77.090131 292.541613 
L 78.175932 295.488 
L 79.261733 290.590973 
L 80.347534 288.428752 
L 81.433335 279.482894 
L 82.519137 274.67611 
L 83.604938 261.245406 
L 84.690739 254.702752 
L 85.77654 245.220124 
L 86.862341 241.798245 
L 87.948142 230.029714 
L 89.033943 222.340387 
L 90.119745 220.234596 
L 91.205546 209.044813 
L 92.291347 205.703074 
L 93.377148 198.489208 
L 94.462949 194.220132 
L 95.54875 195.704509 
L 96.634552 188.401368 
L 97.720353 184.261543 
L 98.806154 190.205304 
L 99.891955 172.248838 
L 100.977756 172.935253 
L 102.063557 179.6131 
L 103.149358 163.625918 
L 104.23516 161.433293 
L 105.320961 160.999498 
L 106.406762 159.13225 
L 107.492563 157.74403 
L 108.578364 149.363345 
L 109.664165 153.165092 
L 110.749967 147.564476 
L 111.835768 152.133154 
L 112.921569 145.359277 
L 114.00737 142.89664 
L 115.093171 143.008311 
L 116.178972 134.322142 
L 117.264773 136.204842 
L 118.350575 138.766762 
L 119.436376 140.839771 
L 120.522177 134.83395 
L 121.607978 138.467034 
L 122.693779 129.178156 
L 123.77958 132.870923 
L 124.865382 127.837482 
L 125.951183 133.225141 
L 127.036984 125.341 
L 128.122785 125.284257 
L 130.294387 124.795346 
L 131.380189 118.778827 
L 132.46599 121.31735 
L 133.551791 120.196764 
L 134.637592 118.195825 
L 135.723393 120.279031 
L 136.809194 123.988439 
L 137.894995 116.191319 
L 138.980797 125.687836 
L 140.066598 115.950148 
L 141.152399 113.7599 
L 142.2382 113.304584 
L 144.409802 115.604688 
L 145.495604 117.599935 
L 146.581405 120.141023 
L 147.667206 117.981492 
L 148.753007 115.141802 
L 149.838808 116.268519 
L 150.924609 112.809479 
L 152.01041 110.63875 
L 153.096212 108.995408 
L 154.182013 106.934035 
L 155.267814 108.217654 
L 156.353615 105.23689 
L 157.439416 109.567024 
L 158.525217 106.964564 
L 159.611019 107.32898 
L 161.782621 106.409089 
L 162.868422 105.216871 
L 163.954223 108.947862 
L 165.040024 102.710942 
L 166.125825 101.497328 
L 167.211627 102.76881 
L 168.297428 102.023651 
L 169.383229 106.817672 
L 170.46903 102.645816 
L 171.554831 101.883202 
L 172.640632 105.206736 
L 173.726434 98.499923 
L 174.812235 102.552914 
L 175.898036 102.262445 
L 176.983837 96.925897 
L 178.069638 99.255843 
L 179.155439 102.480719 
L 180.24124 99.275863 
L 181.327042 100.358036 
L 182.412843 97.198849 
L 183.498644 99.933688 
L 184.584445 100.363354 
L 185.670246 100.074512 
L 186.756047 94.463761 
L 187.841849 97.63227 
L 188.92765 95.153367 
L 190.013451 93.617879 
L 191.099252 91.386028 
L 192.185053 97.326098 
L 193.270854 98.348026 
L 195.442457 94.030091 
L 196.528258 88.194873 
L 197.614059 93.69683 
L 198.69986 92.648564 
L 199.785661 94.459444 
L 201.957264 95.429072 
L 203.043065 97.04151 
L 204.128866 92.519502 
L 205.214667 89.284116 
L 206.300468 87.773527 
L 207.386269 97.066659 
L 208.472071 86.319305 
L 209.557872 93.775219 
L 210.643673 88.420842 
L 211.729474 86.033591 
L 212.815275 91.01886 
L 213.901076 91.786667 
L 214.986877 98.100849 
L 216.072679 93.594043 
L 217.15848 91.825955 
L 218.244281 95.071538 
L 219.330082 86.833991 
L 220.415883 86.716815 
L 221.501684 89.775905 
L 222.587486 84.799832 
L 223.673287 83.007283 
L 224.759088 83.020545 
L 225.844889 83.372949 
L 226.93069 82.400006 
L 228.016491 75.262276 
L 230.188094 92.560229 
L 231.273895 87.463914 
L 232.359696 84.222085 
L 233.445497 80.613963 
L 234.531298 83.45603 
L 235.617099 87.251959 
L 236.702901 93.6653 
L 237.788702 97.000219 
L 238.874503 84.733268 
L 241.046105 81.511458 
L 242.131906 83.905153 
L 243.217708 90.682409 
L 244.303509 83.886697 
L 245.38931 78.87997 
L 246.475111 86.573802 
L 247.560912 80.712871 
L 248.646713 77.615182 
L 249.732514 78.386492 
L 250.818316 81.683562 
L 251.904117 76.92276 
L 252.989918 78.331563 
L 254.075719 85.600984 
L 255.16152 79.796108 
L 256.247321 83.036686 
L 257.333123 80.034401 
L 258.418924 75.983663 
L 259.504725 81.564196 
L 260.590526 84.259121 
L 261.676327 81.804429 
L 262.762128 79.740929 
L 263.847929 79.721661 
L 264.933731 77.795919 
L 266.019532 79.87875 
L 267.105333 76.585246 
L 268.191134 73.740864 
L 269.276935 81.961894 
L 270.362736 77.093739 
L 271.448538 73.243132 
L 272.534339 80.594882 
L 273.62014 75.886631 
L 274.705941 77.841964 
L 275.791742 77.794981 
L 276.877543 86.887794 
L 277.963344 88.037595 
L 279.049146 80.814094 
L 280.134947 80.412455 
L 281.220748 76.118356 
L 282.306549 75.955573 
L 283.39235 67.367437 
L 284.478151 73.588654 
L 285.563953 71.564818 
L 286.649754 77.024359 
L 287.735555 73.578081 
L 288.821356 75.228055 
L 289.907157 78.930018 
L 290.992958 81.383021 
L 292.07876 70.416329 
L 293.164561 73.284797 
L 294.250362 73.893637 
L 295.336163 72.683965 
L 296.421964 84.293467 
L 297.507765 71.317203 
L 298.593566 73.478923 
L 299.679368 70.629849 
L 300.765169 75.702077 
L 301.85097 65.063141 
L 302.936771 67.966392 
L 304.022572 65.139027 
L 305.108373 63.152352 
L 306.194175 72.031082 
L 307.279976 69.203404 
L 308.365777 75.549555 
L 309.451578 70.788815 
L 310.537379 92.596576 
L 311.62318 75.906901 
L 312.708981 75.713651 
L 313.794783 74.542829 
L 314.880584 69.210598 
L 315.966385 77.388712 
L 317.052186 70.431594 
L 318.137987 66.947342 
L 319.223788 69.276787 
L 320.30959 68.454115 
L 321.395391 67.292927 
L 322.481192 74.410763 
L 323.566993 71.614491 
L 324.652794 71.227678 
L 325.738595 72.168778 
L 326.824396 70.567851 
L 327.910198 68.289768 
L 328.995999 73.093361 
L 330.0818 70.787877 
L 331.167601 76.210257 
L 332.253402 79.240257 
L 333.339203 69.577642 
L 334.425005 65.269341 
L 335.510806 77.572453 
L 336.596607 71.939243 
L 337.682408 77.102622 
L 338.768209 67.761882 
L 339.85401 55.380694 
L 340.939811 57.765381 
L 342.025613 71.348921 
L 343.111414 64.185666 
L 344.197215 62.734009 
L 345.283016 85.619564 
L 346.368817 68.7992 
L 347.454618 62.371407 
L 348.54042 66.747336 
L 349.626221 58.557148 
L 350.712022 58.654242 
L 351.797823 58.420828 
L 352.883624 68.115662 
L 353.969425 65.869235 
L 355.055227 60.83179 
L 356.141028 59.878303 
L 357.226829 66.157201 
L 358.31263 67.631067 
L 359.398431 63.211346 
L 360.484232 66.663817 
L 361.570033 65.370627 
L 362.655835 61.338156 
L 363.741636 61.886562 
L 364.827437 65.997985 
L 365.913238 62.295834 
L 366.999039 68.268998 
L 368.08484 60.562154 
L 369.170642 57.743985 
L 370.256443 68.359398 
L 371.342244 70.074623 
L 372.428045 67.804923 
L 373.513846 64.669134 
L 374.599647 64.726002 
L 375.685448 61.199021 
L 376.77125 71.583773 
L 377.857051 71.11069 
L 378.942852 70.9404 
L 381.114454 64.544013 
L 382.200255 62.492212 
L 383.286057 60.154884 
L 384.371858 75.580647 
L 385.457659 64.43816 
L 386.54346 57.261642 
L 387.629261 63.869171 
L 388.715062 53.577759 
L 389.800863 56.771667 
L 390.886665 64.247913 
L 391.972466 55.969452 
L 393.058267 56.511791 
L 394.144068 53.568 
L 395.229869 63.213661 
L 396.31567 55.215347 
L 397.401472 59.426428 
L 398.487273 60.028261 
L 398.487273 60.028261 
" clip-path="url(#p743d72b247)" style="fill: none; stroke: #1f77b4; stroke-width: 1.5; stroke-linecap: square"/>
   </g>
   <g id="line2d_14">
    <path d="M 73.832727 287.439168 
L 74.918528 288.615245 
L 76.00433 288.247326 
L 77.090131 290.9293 
L 78.175932 291.869462 
L 79.261733 286.204283 
L 80.347534 282.066711 
L 81.433335 269.96811 
L 82.519137 252.088156 
L 83.604938 250.928156 
L 84.690739 237.211049 
L 85.77654 229.689447 
L 86.862341 236.268261 
L 87.948142 235.521599 
L 89.033943 202.429714 
L 90.119745 205.430122 
L 91.205546 207.574701 
L 92.291347 195.556428 
L 93.377148 188.241025 
L 94.462949 192.984935 
L 95.54875 191.521329 
L 96.634552 175.511563 
L 97.720353 196.4177 
L 98.806154 174.980485 
L 99.891955 187.988906 
L 100.977756 192.844987 
L 102.063557 170.38134 
L 103.149358 166.874754 
L 104.23516 170.051208 
L 105.320961 166.464857 
L 106.406762 165.87172 
L 107.492563 158.092555 
L 108.578364 179.934412 
L 109.664165 149.662572 
L 110.749967 165.755545 
L 111.835768 154.242386 
L 112.921569 153.989829 
L 114.00737 159.44693 
L 115.093171 137.226644 
L 116.178972 138.314073 
L 117.264773 179.861779 
L 118.350575 152.086734 
L 119.436376 149.823228 
L 120.522177 156.478053 
L 121.607978 160.791421 
L 122.693779 159.801023 
L 123.77958 156.066842 
L 124.865382 143.061737 
L 125.951183 132.754685 
L 127.036984 129.659373 
L 128.122785 136.194144 
L 129.208586 129.395992 
L 130.294387 128.478416 
L 131.380189 141.714431 
L 132.46599 161.068752 
L 133.551791 136.434564 
L 134.637592 131.395681 
L 135.723393 172.391414 
L 136.809194 164.678 
L 137.894995 138.517458 
L 138.980797 130.070646 
L 140.066598 134.542355 
L 141.152399 123.487391 
L 142.2382 149.075065 
L 143.324001 141.464752 
L 144.409802 142.915596 
L 145.495604 145.451553 
L 146.581405 143.67871 
L 147.667206 127.956222 
L 148.753007 132.432248 
L 149.838808 131.921878 
L 150.924609 139.2827 
L 152.01041 126.982403 
L 153.096212 150.858544 
L 154.182013 120.258574 
L 155.267814 123.302837 
L 156.353615 125.428209 
L 157.439416 120.779016 
L 158.525217 132.36781 
L 159.611019 128.241186 
L 160.69682 137.892352 
L 161.782621 121.902667 
L 162.868422 156.80218 
L 163.954223 131.704605 
L 165.040024 133.853625 
L 166.125825 133.883279 
L 167.211627 146.347797 
L 168.297428 122.973268 
L 169.383229 123.351947 
L 170.46903 130.032422 
L 171.554831 121.418135 
L 172.640632 127.526806 
L 173.726434 117.08162 
L 174.812235 152.176947 
L 175.898036 143.483709 
L 176.983837 119.706539 
L 178.069638 129.665379 
L 179.155439 129.099768 
L 180.24124 132.913902 
L 181.327042 131.05973 
L 182.412843 128.537661 
L 183.498644 131.562154 
L 184.584445 123.376158 
L 185.670246 128.460899 
L 186.756047 135.790503 
L 187.841849 134.958947 
L 188.92765 119.085374 
L 190.013451 123.056223 
L 191.099252 121.903356 
L 192.185053 131.541947 
L 193.270854 121.815646 
L 194.356656 130.852842 
L 195.442457 136.581832 
L 196.528258 127.470564 
L 197.614059 127.935452 
L 198.69986 123.012556 
L 199.785661 131.159827 
L 200.871462 133.122604 
L 201.957264 124.944741 
L 203.043065 122.365428 
L 204.128866 126.380945 
L 205.214667 134.915092 
L 206.300468 140.521275 
L 207.386269 114.738599 
L 209.557872 138.106184 
L 210.643673 128.268274 
L 211.729474 117.101326 
L 212.815275 120.914272 
L 213.901076 142.913907 
L 214.986877 131.44454 
L 216.072679 112.711384 
L 217.15848 119.273619 
L 218.244281 130.010088 
L 219.330082 130.045747 
L 220.415883 127.000984 
L 221.501684 128.109183 
L 222.587486 145.236658 
L 223.673287 133.831604 
L 224.759088 125.805513 
L 225.844889 122.717895 
L 226.93069 113.602248 
L 228.016491 111.50753 
L 229.102292 158.09806 
L 230.188094 120.161855 
L 231.273895 141.920882 
L 232.359696 113.507093 
L 233.445497 119.974298 
L 234.531298 111.533805 
L 235.617099 135.595501 
L 236.702901 119.768787 
L 237.788702 126.064138 
L 238.874503 129.163017 
L 239.960304 130.155166 
L 241.046105 128.326831 
L 242.131906 133.059543 
L 243.217708 131.073118 
L 244.303509 120.327015 
L 245.38931 128.208842 
L 246.475111 113.491578 
L 247.560912 112.390949 
L 248.646713 114.844201 
L 249.732514 122.921155 
L 250.818316 119.891656 
L 251.904117 127.669945 
L 252.989918 128.040616 
L 254.075719 133.847369 
L 255.16152 129.224201 
L 256.247321 117.143117 
L 257.333123 122.584015 
L 258.418924 120.269647 
L 259.504725 107.223065 
L 260.590526 115.209118 
L 261.676327 116.860405 
L 262.762128 113.724366 
L 263.847929 116.836632 
L 266.019532 106.894997 
L 267.105333 115.385976 
L 268.191134 115.814204 
L 269.276935 117.410313 
L 270.362736 125.419764 
L 271.448538 117.380472 
L 272.534339 134.769263 
L 273.62014 114.079898 
L 274.705941 122.896756 
L 275.791742 128.182128 
L 276.877543 113.591737 
L 277.963344 128.643325 
L 279.049146 114.295983 
L 280.134947 115.540501 
L 281.220748 128.180189 
L 282.306549 116.566558 
L 283.39235 98.539524 
L 284.478151 122.596778 
L 285.563953 108.227726 
L 286.649754 120.338339 
L 287.735555 105.908103 
L 289.907157 126.376941 
L 290.992958 105.451035 
L 292.07876 126.189009 
L 293.164561 107.289442 
L 294.250362 119.050028 
L 295.336163 124.844081 
L 296.421964 126.147594 
L 297.507765 115.02863 
L 298.593566 119.802632 
L 299.679368 118.561241 
L 300.765169 109.991498 
L 301.85097 110.534587 
L 302.936771 119.665687 
L 304.022572 106.663773 
L 305.108373 111.078301 
L 306.194175 103.980235 
L 307.279976 128.047811 
L 308.365777 110.483225 
L 309.451578 110.83907 
L 310.537379 118.320008 
L 311.62318 124.691871 
L 312.708981 122.480853 
L 313.794783 129.777425 
L 314.880584 112.863907 
L 315.966385 113.702657 
L 317.052186 118.829752 
L 318.137987 99.743628 
L 319.223788 116.631434 
L 320.30959 106.467395 
L 321.395391 110.568495 
L 322.481192 112.310496 
L 323.566993 117.525237 
L 324.652794 118.833568 
L 325.738595 104.067507 
L 326.824396 102.11843 
L 327.910198 119.771915 
L 328.995999 115.604939 
L 330.0818 109.253533 
L 331.167601 129.579233 
L 332.253402 116.168172 
L 333.339203 115.771663 
L 334.425005 112.477095 
L 335.510806 121.012617 
L 336.596607 110.689988 
L 337.682408 106.155968 
L 338.768209 106.066507 
L 339.85401 105.155311 
L 340.939811 110.408903 
L 342.025613 120.631123 
L 343.111414 114.634811 
L 344.197215 110.933974 
L 345.283016 118.647513 
L 346.368817 107.18703 
L 347.454618 124.65496 
L 348.54042 110.530083 
L 349.626221 105.908666 
L 350.712022 115.562835 
L 351.797823 98.187996 
L 352.883624 121.949901 
L 353.969425 106.302735 
L 355.055227 119.097824 
L 356.141028 109.439776 
L 357.226829 113.651858 
L 358.31263 119.843609 
L 359.398431 116.206647 
L 360.484232 110.640127 
L 361.570033 113.70222 
L 362.655835 112.318503 
L 363.741636 109.220689 
L 364.827437 124.522269 
L 365.913238 117.919119 
L 366.999039 113.77235 
L 368.08484 111.556953 
L 369.170642 110.331327 
L 370.256443 106.920709 
L 371.342244 113.480692 
L 372.428045 111.935194 
L 373.513846 115.052841 
L 374.599647 116.356229 
L 375.685448 117.469683 
L 376.77125 125.862318 
L 377.857051 116.733533 
L 378.942852 112.60378 
L 380.028653 123.362207 
L 381.114454 115.630714 
L 382.200255 119.820274 
L 383.286057 100.00338 
L 384.371858 105.340428 
L 385.457659 116.499869 
L 386.54346 111.808947 
L 387.629261 111.473434 
L 388.715062 109.57841 
L 389.800863 119.076741 
L 390.886665 106.586135 
L 391.972466 97.435266 
L 393.058267 109.989121 
L 394.144068 111.669875 
L 396.31567 96.38187 
L 397.401472 113.833347 
L 398.487273 109.096944 
L 398.487273 109.096944 
" clip-path="url(#p743d72b247)" style="fill: none; stroke: #ff7f0e; stroke-width: 1.5; stroke-linecap: square"/>
   </g>
   <g id="patch_3">
    <path d="M 57.6 307.584 
L 57.6 41.472 
" style="fill: none; stroke: #000000; stroke-width: 0.8; stroke-linejoin: miter; stroke-linecap: square"/>
   </g>
   <g id="patch_4">
    <path d="M 414.72 307.584 
L 414.72 41.472 
" style="fill: none; stroke: #000000; stroke-width: 0.8; stroke-linejoin: miter; stroke-linecap: square"/>
   </g>
   <g id="patch_5">
    <path d="M 57.6 307.584 
L 414.72 307.584 
" style="fill: none; stroke: #000000; stroke-width: 0.8; stroke-linejoin: miter; stroke-linecap: square"/>
   </g>
   <g id="patch_6">
    <path d="M 57.6 41.472 
L 414.72 41.472 
" style="fill: none; stroke: #000000; stroke-width: 0.8; stroke-linejoin: miter; stroke-linecap: square"/>
   </g>
   <g id="text_15">
    <!-- Model balanced accuracy -->
    <g transform="translate(159.826875 35.472) scale(0.12 -0.12)">
     <defs>
      <path id="DejaVuSans-4d" d="M 628 4666 
L 1569 4666 
L 2759 1491 
L 3956 4666 
L 4897 4666 
L 4897 0 
L 4281 0 
L 4281 4097 
L 3078 897 
L 2444 897 
L 1241 4097 
L 1241 0 
L 628 0 
L 628 4666 
z
" transform="scale(0.015625)"/>
      <path id="DejaVuSans-62" d="M 3116 1747 
Q 3116 2381 2855 2742 
Q 2594 3103 2138 3103 
Q 1681 3103 1420 2742 
Q 1159 2381 1159 1747 
Q 1159 1113 1420 752 
Q 1681 391 2138 391 
Q 2594 391 2855 752 
Q 3116 1113 3116 1747 
z
M 1159 2969 
Q 1341 3281 1617 3432 
Q 1894 3584 2278 3584 
Q 2916 3584 3314 3078 
Q 3713 2572 3713 1747 
Q 3713 922 3314 415 
Q 2916 -91 2278 -91 
Q 1894 -91 1617 61 
Q 1341 213 1159 525 
L 1159 0 
L 581 0 
L 581 4863 
L 1159 4863 
L 1159 2969 
z
" transform="scale(0.015625)"/>
     </defs>
     <use xlink:href="#DejaVuSans-4d"/>
     <use xlink:href="#DejaVuSans-6f" x="86.279297"/>
     <use xlink:href="#DejaVuSans-64" x="147.460938"/>
     <use xlink:href="#DejaVuSans-65" x="210.9375"/>
     <use xlink:href="#DejaVuSans-6c" x="272.460938"/>
     <use xlink:href="#DejaVuSans-20" x="300.244141"/>
     <use xlink:href="#DejaVuSans-62" x="332.03125"/>
     <use xlink:href="#DejaVuSans-61" x="395.507812"/>
     <use xlink:href="#DejaVuSans-6c" x="456.787109"/>
     <use xlink:href="#DejaVuSans-61" x="484.570312"/>
     <use xlink:href="#DejaVuSans-6e" x="545.849609"/>
     <use xlink:href="#DejaVuSans-63" x="609.228516"/>
     <use xlink:href="#DejaVuSans-65" x="664.208984"/>
     <use xlink:href="#DejaVuSans-64" x="725.732422"/>
     <use xlink:href="#DejaVuSans-20" x="789.208984"/>
     <use xlink:href="#DejaVuSans-61" x="820.996094"/>
     <use xlink:href="#DejaVuSans-63" x="882.275391"/>
     <use xlink:href="#DejaVuSans-63" x="937.255859"/>
     <use xlink:href="#DejaVuSans-75" x="992.236328"/>
     <use xlink:href="#DejaVuSans-72" x="1055.615234"/>
     <use xlink:href="#DejaVuSans-61" x="1096.728516"/>
     <use xlink:href="#DejaVuSans-63" x="1158.007812"/>
     <use xlink:href="#DejaVuSans-79" x="1212.988281"/>
    </g>
   </g>
   <g id="legend_1">
    <g id="patch_7">
     <path d="M 64.6 78.82825 
L 120.5875 78.82825 
Q 122.5875 78.82825 122.5875 76.82825 
L 122.5875 48.472 
Q 122.5875 46.472 120.5875 46.472 
L 64.6 46.472 
Q 62.6 46.472 62.6 48.472 
L 62.6 76.82825 
Q 62.6 78.82825 64.6 78.82825 
z
" style="fill: #ffffff; opacity: 0.8; stroke: #cccccc; stroke-linejoin: miter"/>
    </g>
    <g id="line2d_15">
     <path d="M 66.6 54.570437 
L 76.6 54.570437 
L 86.6 54.570437 
" style="fill: none; stroke: #1f77b4; stroke-width: 1.5; stroke-linecap: square"/>
    </g>
    <g id="text_16">
     <!-- Train -->
     <g transform="translate(94.6 58.070437) scale(0.1 -0.1)">
      <defs>
       <path id="DejaVuSans-54" d="M -19 4666 
L 3928 4666 
L 3928 4134 
L 2272 4134 
L 2272 0 
L 1638 0 
L 1638 4134 
L -19 4134 
L -19 4666 
z
" transform="scale(0.015625)"/>
       <path id="DejaVuSans-69" d="M 603 3500 
L 1178 3500 
L 1178 0 
L 603 0 
L 603 3500 
z
M 603 4863 
L 1178 4863 
L 1178 4134 
L 603 4134 
L 603 4863 
z
" transform="scale(0.015625)"/>
      </defs>
      <use xlink:href="#DejaVuSans-54"/>
      <use xlink:href="#DejaVuSans-72" x="46.333984"/>
      <use xlink:href="#DejaVuSans-61" x="87.447266"/>
      <use xlink:href="#DejaVuSans-69" x="148.726562"/>
      <use xlink:href="#DejaVuSans-6e" x="176.509766"/>
     </g>
    </g>
    <g id="line2d_16">
     <path d="M 66.6 69.248562 
L 76.6 69.248562 
L 86.6 69.248562 
" style="fill: none; stroke: #ff7f0e; stroke-width: 1.5; stroke-linecap: square"/>
    </g>
    <g id="text_17">
     <!-- Test -->
     <g transform="translate(94.6 72.748562) scale(0.1 -0.1)">
      <defs>
       <path id="DejaVuSans-73" d="M 2834 3397 
L 2834 2853 
Q 2591 2978 2328 3040 
Q 2066 3103 1784 3103 
Q 1356 3103 1142 2972 
Q 928 2841 928 2578 
Q 928 2378 1081 2264 
Q 1234 2150 1697 2047 
L 1894 2003 
Q 2506 1872 2764 1633 
Q 3022 1394 3022 966 
Q 3022 478 2636 193 
Q 2250 -91 1575 -91 
Q 1294 -91 989 -36 
Q 684 19 347 128 
L 347 722 
Q 666 556 975 473 
Q 1284 391 1588 391 
Q 1994 391 2212 530 
Q 2431 669 2431 922 
Q 2431 1156 2273 1281 
Q 2116 1406 1581 1522 
L 1381 1569 
Q 847 1681 609 1914 
Q 372 2147 372 2553 
Q 372 3047 722 3315 
Q 1072 3584 1716 3584 
Q 2034 3584 2315 3537 
Q 2597 3491 2834 3397 
z
" transform="scale(0.015625)"/>
       <path id="DejaVuSans-74" d="M 1172 4494 
L 1172 3500 
L 2356 3500 
L 2356 3053 
L 1172 3053 
L 1172 1153 
Q 1172 725 1289 603 
Q 1406 481 1766 481 
L 2356 481 
L 2356 0 
L 1766 0 
Q 1100 0 847 248 
Q 594 497 594 1153 
L 594 3053 
L 172 3053 
L 172 3500 
L 594 3500 
L 594 4494 
L 1172 4494 
z
" transform="scale(0.015625)"/>
      </defs>
      <use xlink:href="#DejaVuSans-54"/>
      <use xlink:href="#DejaVuSans-65" x="44.083984"/>
      <use xlink:href="#DejaVuSans-73" x="105.607422"/>
      <use xlink:href="#DejaVuSans-74" x="157.707031"/>
     </g>
    </g>
   </g>
  </g>
 </g>
 <defs>
  <clipPath id="p743d72b247">
   <rect x="57.6" y="41.472" width="357.12" height="266.112"/>
  </clipPath>
 </defs>
</svg>
