<?xml version="1.0" encoding="utf-8" standalone="no"?>
<!DOCTYPE svg PUBLIC "-//W3C//DTD SVG 1.1//EN"
  "http://www.w3.org/Graphics/SVG/1.1/DTD/svg11.dtd">
<svg xmlns:xlink="http://www.w3.org/1999/xlink" width="720pt" height="360pt" viewBox="0 0 720 360" xmlns="http://www.w3.org/2000/svg" version="1.1">
 <metadata>
  <rdf:RDF xmlns:dc="http://purl.org/dc/elements/1.1/" xmlns:cc="http://creativecommons.org/ns#" xmlns:rdf="http://www.w3.org/1999/02/22-rdf-syntax-ns#">
   <cc:Work>
    <dc:type rdf:resource="http://purl.org/dc/dcmitype/StillImage"/>
    <dc:date>2023-07-26T10:21:20.835329</dc:date>
    <dc:format>image/svg+xml</dc:format>
    <dc:creator>
     <cc:Agent>
      <dc:title>Matplotlib v3.7.2, https://matplotlib.org/</dc:title>
     </cc:Agent>
    </dc:creator>
   </cc:Work>
  </rdf:RDF>
 </metadata>
 <defs>
  <style type="text/css">*{stroke-linejoin: round; stroke-linecap: butt}</style>
 </defs>
 <g id="figure_1">
  <g id="patch_1">
   <path d="M 0 360 
L 720 360 
L 720 0 
L 0 0 
z
" style="fill: #ffffff"/>
  </g>
  <g id="axes_1">
   <g id="patch_2">
    <path d="M 90 320.4 
L 648 320.4 
L 648 43.2 
L 90 43.2 
z
" style="fill: #ffffff"/>
   </g>
   <g id="patch_3">
    <path d="M 81.28125 45.972 
L 81.28125 43.2 
L 90 43.2 
L 90 45.972 
z
" clip-path="url(#p969a7392c0)" style="fill: #ff0000"/>
   </g>
   <g id="patch_4">
    <path d="M 90 45.972 
L 90 43.2 
L 98.71875 43.2 
L 98.71875 45.972 
z
" clip-path="url(#p969a7392c0)" style="fill: #ff0000"/>
   </g>
   <g id="patch_5">
    <path d="M 98.71875 45.972 
L 98.71875 43.2 
L 107.4375 43.2 
L 107.4375 45.972 
z
" clip-path="url(#p969a7392c0)" style="fill: #ff0000"/>
   </g>
   <g id="patch_6">
    <path d="M 107.4375 45.972 
L 107.4375 43.2 
L 116.15625 43.2 
L 116.15625 45.972 
z
" clip-path="url(#p969a7392c0)" style="fill: #ff0000"/>
   </g>
   <g id="patch_7">
    <path d="M 116.15625 45.972 
L 116.15625 43.2 
L 124.875 43.2 
L 124.875 45.972 
z
" clip-path="url(#p969a7392c0)" style="fill: #ff0000"/>
   </g>
   <g id="patch_8">
    <path d="M 124.875 45.972 
L 124.875 43.2 
L 133.59375 43.2 
L 133.59375 45.972 
z
" clip-path="url(#p969a7392c0)" style="fill: #ff0000"/>
   </g>
   <g id="patch_9">
    <path d="M 133.59375 45.972 
L 133.59375 43.2 
L 142.3125 43.2 
L 142.3125 45.972 
z
" clip-path="url(#p969a7392c0)" style="fill: #ff0000"/>
   </g>
   <g id="patch_10">
    <path d="M 142.3125 45.972 
L 142.3125 43.2 
L 151.03125 43.2 
L 151.03125 45.972 
z
" clip-path="url(#p969a7392c0)" style="fill: #ff0000"/>
   </g>
   <g id="patch_11">
    <path d="M 151.03125 45.972 
L 151.03125 43.2 
L 159.75 43.2 
L 159.75 45.972 
z
" clip-path="url(#p969a7392c0)" style="fill: #ff0000"/>
   </g>
   <g id="patch_12">
    <path d="M 159.75 45.972 
L 159.75 43.2 
L 168.46875 43.2 
L 168.46875 45.972 
z
" clip-path="url(#p969a7392c0)" style="fill: #ff0000"/>
   </g>
   <g id="patch_13">
    <path d="M 168.46875 45.972 
L 168.46875 43.2 
L 177.1875 43.2 
L 177.1875 45.972 
z
" clip-path="url(#p969a7392c0)" style="fill: #ff0000"/>
   </g>
   <g id="patch_14">
    <path d="M 177.1875 45.972 
L 177.1875 43.2 
L 185.90625 43.2 
L 185.90625 45.972 
z
" clip-path="url(#p969a7392c0)" style="fill: #ff0000"/>
   </g>
   <g id="patch_15">
    <path d="M 203.34375 45.972 
L 203.34375 43.2 
L 212.0625 43.2 
L 212.0625 45.972 
z
" clip-path="url(#p969a7392c0)" style="fill: #ff0000"/>
   </g>
   <g id="patch_16">
    <path d="M 212.0625 45.972 
L 212.0625 43.2 
L 220.78125 43.2 
L 220.78125 45.972 
z
" clip-path="url(#p969a7392c0)" style="fill: #ff0000"/>
   </g>
   <g id="patch_17">
    <path d="M 220.78125 45.972 
L 220.78125 43.2 
L 229.5 43.2 
L 229.5 45.972 
z
" clip-path="url(#p969a7392c0)" style="fill: #ff0000"/>
   </g>
   <g id="patch_18">
    <path d="M 229.5 45.972 
L 229.5 43.2 
L 238.21875 43.2 
L 238.21875 45.972 
z
" clip-path="url(#p969a7392c0)" style="fill: #ff0000"/>
   </g>
   <g id="patch_19">
    <path d="M 238.21875 45.972 
L 238.21875 43.2 
L 246.9375 43.2 
L 246.9375 45.972 
z
" clip-path="url(#p969a7392c0)" style="fill: #ff0000"/>
   </g>
   <g id="patch_20">
    <path d="M 246.9375 45.972 
L 246.9375 43.2 
L 255.65625 43.2 
L 255.65625 45.972 
z
" clip-path="url(#p969a7392c0)" style="fill: #ff0000"/>
   </g>
   <g id="patch_21">
    <path d="M 255.65625 45.972 
L 255.65625 43.2 
L 264.375 43.2 
L 264.375 45.972 
z
" clip-path="url(#p969a7392c0)" style="fill: #ff0000"/>
   </g>
   <g id="patch_22">
    <path d="M 264.375 45.972 
L 264.375 43.2 
L 273.09375 43.2 
L 273.09375 45.972 
z
" clip-path="url(#p969a7392c0)" style="fill: #ff0000"/>
   </g>
   <g id="patch_23">
    <path d="M 273.09375 45.972 
L 273.09375 43.2 
L 281.8125 43.2 
L 281.8125 45.972 
z
" clip-path="url(#p969a7392c0)" style="fill: #ff0000"/>
   </g>
   <g id="patch_24">
    <path d="M 281.8125 45.972 
L 281.8125 43.2 
L 290.53125 43.2 
L 290.53125 45.972 
z
" clip-path="url(#p969a7392c0)" style="fill: #ff0000"/>
   </g>
   <g id="patch_25">
    <path d="M 290.53125 45.972 
L 290.53125 43.2 
L 299.25 43.2 
L 299.25 45.972 
z
" clip-path="url(#p969a7392c0)" style="fill: #ff0000"/>
   </g>
   <g id="patch_26">
    <path d="M 299.25 45.972 
L 299.25 43.2 
L 307.96875 43.2 
L 307.96875 45.972 
z
" clip-path="url(#p969a7392c0)" style="fill: #ff0000"/>
   </g>
   <g id="patch_27">
    <path d="M 307.96875 45.972 
L 307.96875 43.2 
L 316.6875 43.2 
L 316.6875 45.972 
z
" clip-path="url(#p969a7392c0)" style="fill: #ff0000"/>
   </g>
   <g id="patch_28">
    <path d="M 316.6875 45.972 
L 316.6875 43.2 
L 325.40625 43.2 
L 325.40625 45.972 
z
" clip-path="url(#p969a7392c0)" style="fill: #ff0000"/>
   </g>
   <g id="patch_29">
    <path d="M 325.40625 45.972 
L 325.40625 43.2 
L 334.125 43.2 
L 334.125 45.972 
z
" clip-path="url(#p969a7392c0)" style="fill: #ff0000"/>
   </g>
   <g id="patch_30">
    <path d="M 334.125 45.972 
L 334.125 43.2 
L 342.84375 43.2 
L 342.84375 45.972 
z
" clip-path="url(#p969a7392c0)" style="fill: #ff0000"/>
   </g>
   <g id="patch_31">
    <path d="M 342.84375 45.972 
L 342.84375 43.2 
L 351.5625 43.2 
L 351.5625 45.972 
z
" clip-path="url(#p969a7392c0)" style="fill: #ff0000"/>
   </g>
   <g id="patch_32">
    <path d="M 351.5625 45.972 
L 351.5625 43.2 
L 360.28125 43.2 
L 360.28125 45.972 
z
" clip-path="url(#p969a7392c0)" style="fill: #ff0000"/>
   </g>
   <g id="patch_33">
    <path d="M 377.71875 45.972 
L 377.71875 43.2 
L 386.4375 43.2 
L 386.4375 45.972 
z
" clip-path="url(#p969a7392c0)" style="fill: #808080"/>
   </g>
   <g id="patch_34">
    <path d="M 386.4375 45.972 
L 386.4375 43.2 
L 395.15625 43.2 
L 395.15625 45.972 
z
" clip-path="url(#p969a7392c0)" style="fill: #808080"/>
   </g>
   <g id="patch_35">
    <path d="M 395.15625 45.972 
L 395.15625 43.2 
L 403.875 43.2 
L 403.875 45.972 
z
" clip-path="url(#p969a7392c0)" style="fill: #808080"/>
   </g>
   <g id="patch_36">
    <path d="M 403.875 45.972 
L 403.875 43.2 
L 412.59375 43.2 
L 412.59375 45.972 
z
" clip-path="url(#p969a7392c0)" style="fill: #808080"/>
   </g>
   <g id="patch_37">
    <path d="M 412.59375 45.972 
L 412.59375 43.2 
L 421.3125 43.2 
L 421.3125 45.972 
z
" clip-path="url(#p969a7392c0)" style="fill: #808080"/>
   </g>
   <g id="patch_38">
    <path d="M 421.3125 45.972 
L 421.3125 43.2 
L 430.03125 43.2 
L 430.03125 45.972 
z
" clip-path="url(#p969a7392c0)" style="fill: #808080"/>
   </g>
   <g id="patch_39">
    <path d="M 430.03125 45.972 
L 430.03125 43.2 
L 438.75 43.2 
L 438.75 45.972 
z
" clip-path="url(#p969a7392c0)" style="fill: #808080"/>
   </g>
   <g id="patch_40">
    <path d="M 438.75 45.972 
L 438.75 43.2 
L 447.46875 43.2 
L 447.46875 45.972 
z
" clip-path="url(#p969a7392c0)" style="fill: #808080"/>
   </g>
   <g id="patch_41">
    <path d="M 447.46875 45.972 
L 447.46875 43.2 
L 456.1875 43.2 
L 456.1875 45.972 
z
" clip-path="url(#p969a7392c0)" style="fill: #808080"/>
   </g>
   <g id="patch_42">
    <path d="M 456.1875 45.972 
L 456.1875 43.2 
L 464.90625 43.2 
L 464.90625 45.972 
z
" clip-path="url(#p969a7392c0)" style="fill: #808080"/>
   </g>
   <g id="patch_43">
    <path d="M 464.90625 45.972 
L 464.90625 43.2 
L 473.625 43.2 
L 473.625 45.972 
z
" clip-path="url(#p969a7392c0)" style="fill: #808080"/>
   </g>
   <g id="patch_44">
    <path d="M 473.625 45.972 
L 473.625 43.2 
L 482.34375 43.2 
L 482.34375 45.972 
z
" clip-path="url(#p969a7392c0)" style="fill: #808080"/>
   </g>
   <g id="patch_45">
    <path d="M 482.34375 45.972 
L 482.34375 43.2 
L 491.0625 43.2 
L 491.0625 45.972 
z
" clip-path="url(#p969a7392c0)" style="fill: #808080"/>
   </g>
   <g id="patch_46">
    <path d="M 491.0625 45.972 
L 491.0625 43.2 
L 499.78125 43.2 
L 499.78125 45.972 
z
" clip-path="url(#p969a7392c0)" style="fill: #808080"/>
   </g>
   <g id="patch_47">
    <path d="M 499.78125 45.972 
L 499.78125 43.2 
L 508.5 43.2 
L 508.5 45.972 
z
" clip-path="url(#p969a7392c0)" style="fill: #808080"/>
   </g>
   <g id="patch_48">
    <path d="M 508.5 45.972 
L 508.5 43.2 
L 517.21875 43.2 
L 517.21875 45.972 
z
" clip-path="url(#p969a7392c0)" style="fill: #808080"/>
   </g>
   <g id="patch_49">
    <path d="M 517.21875 45.972 
L 517.21875 43.2 
L 525.9375 43.2 
L 525.9375 45.972 
z
" clip-path="url(#p969a7392c0)" style="fill: #808080"/>
   </g>
   <g id="patch_50">
    <path d="M 525.9375 45.972 
L 525.9375 43.2 
L 534.65625 43.2 
L 534.65625 45.972 
z
" clip-path="url(#p969a7392c0)" style="fill: #808080"/>
   </g>
   <g id="patch_51">
    <path d="M 534.65625 45.972 
L 534.65625 43.2 
L 543.375 43.2 
L 543.375 45.972 
z
" clip-path="url(#p969a7392c0)" style="fill: #808080"/>
   </g>
   <g id="patch_52">
    <path d="M 543.375 45.972 
L 543.375 43.2 
L 552.09375 43.2 
L 552.09375 45.972 
z
" clip-path="url(#p969a7392c0)" style="fill: #808080"/>
   </g>
   <g id="patch_53">
    <path d="M 552.09375 45.972 
L 552.09375 43.2 
L 560.8125 43.2 
L 560.8125 45.972 
z
" clip-path="url(#p969a7392c0)" style="fill: #808080"/>
   </g>
   <g id="patch_54">
    <path d="M 560.8125 45.972 
L 560.8125 43.2 
L 569.53125 43.2 
L 569.53125 45.972 
z
" clip-path="url(#p969a7392c0)" style="fill: #808080"/>
   </g>
   <g id="patch_55">
    <path d="M 569.53125 45.972 
L 569.53125 43.2 
L 578.25 43.2 
L 578.25 45.972 
z
" clip-path="url(#p969a7392c0)" style="fill: #808080"/>
   </g>
   <g id="patch_56">
    <path d="M 578.25 45.972 
L 578.25 43.2 
L 586.96875 43.2 
L 586.96875 45.972 
z
" clip-path="url(#p969a7392c0)" style="fill: #808080"/>
   </g>
   <g id="patch_57">
    <path d="M 586.96875 45.972 
L 586.96875 43.2 
L 595.6875 43.2 
L 595.6875 45.972 
z
" clip-path="url(#p969a7392c0)" style="fill: #808080"/>
   </g>
   <g id="patch_58">
    <path d="M 595.6875 45.972 
L 595.6875 43.2 
L 604.40625 43.2 
L 604.40625 45.972 
z
" clip-path="url(#p969a7392c0)" style="fill: #808080"/>
   </g>
   <g id="patch_59">
    <path d="M 604.40625 45.972 
L 604.40625 43.2 
L 613.125 43.2 
L 613.125 45.972 
z
" clip-path="url(#p969a7392c0)" style="fill: #808080"/>
   </g>
   <g id="patch_60">
    <path d="M 613.125 45.972 
L 613.125 43.2 
L 621.84375 43.2 
L 621.84375 45.972 
z
" clip-path="url(#p969a7392c0)" style="fill: #808080"/>
   </g>
   <g id="patch_61">
    <path d="M 621.84375 45.972 
L 621.84375 43.2 
L 630.5625 43.2 
L 630.5625 45.972 
z
" clip-path="url(#p969a7392c0)" style="fill: #808080"/>
   </g>
   <g id="patch_62">
    <path d="M 630.5625 45.972 
L 630.5625 43.2 
L 639.28125 43.2 
L 639.28125 45.972 
z
" clip-path="url(#p969a7392c0)" style="fill: #808080"/>
   </g>
   <g id="patch_63">
    <path d="M 639.28125 45.972 
L 639.28125 43.2 
L 648 43.2 
L 648 45.972 
z
" clip-path="url(#p969a7392c0)" style="fill: #808080"/>
   </g>
   <g id="LineCollection_1">
    <path d="M 90 181.8 
L 648 181.8 
" clip-path="url(#p969a7392c0)" style="fill: none; stroke-dasharray: 1,1.65; stroke-dashoffset: 0; stroke: #000000"/>
   </g>
   <g id="LineCollection_2">
    <path d="M 185.90625 320.4 
L 185.90625 43.2 
" clip-path="url(#p969a7392c0)" style="fill: none; stroke-dasharray: 3.7,1.6; stroke-dashoffset: 0; stroke: #ff0000"/>
    <path d="M 342.84375 320.4 
L 342.84375 43.2 
" clip-path="url(#p969a7392c0)" style="fill: none; stroke-dasharray: 3.7,1.6; stroke-dashoffset: 0; stroke: #ff0000"/>
   </g>
   <g id="line2d_1">
    <path d="M 90 237.034226 
L 98.71875 236.22376 
L 107.4375 235.360537 
L 116.15625 233.090494 
L 124.875 227.872489 
L 133.59375 224.411289 
L 142.3125 197.785346 
L 151.03125 174.091506 
L 159.75 157.698707 
L 168.46875 153.89963 
L 177.1875 147.562618 
L 185.90625 145.585457 
L 212.0625 238.517364 
L 220.78125 234.062679 
L 229.5 233.122397 
L 238.21875 236.218446 
L 246.9375 232.453012 
L 255.65625 232.012222 
L 264.375 230.202223 
L 273.09375 228.913758 
L 281.8125 226.057816 
L 290.53125 208.956681 
L 299.25 186.679736 
L 307.96875 178.414284 
L 316.6875 177.961504 
L 325.40625 173.39979 
L 334.125 172.244267 
L 342.84375 171.883534 
L 351.5625 168.923239 
L 360.28125 166.845071 
L 386.4375 261.306587 
L 395.15625 262.266869 
L 403.875 255.110247 
L 412.59375 254.929654 
L 421.3125 254.4366 
L 430.03125 253.27457 
L 438.75 252.452299 
L 447.46875 251.603635 
L 456.1875 246.716318 
L 464.90625 233.859467 
L 473.625 216.281389 
L 482.34375 216.39804 
L 491.0625 217.157694 
L 499.78125 216.287752 
L 508.5 215.638701 
L 517.21875 217.691819 
L 525.9375 216.512531 
L 534.65625 217.515706 
L 543.375 221.834767 
L 552.09375 222.618757 
L 560.8125 225.442431 
L 569.53125 226.835149 
L 578.25 229.516607 
L 586.96875 229.472544 
L 595.6875 229.289068 
L 604.40625 228.980384 
L 613.125 229.143957 
L 621.84375 228.954914 
L 630.5625 228.971712 
L 639.28125 228.599124 
L 648 228.252039 
" clip-path="url(#p969a7392c0)" style="fill: none; stroke-dasharray: 3.7,1.6; stroke-dashoffset: 0; stroke: #006400"/>
   </g>
   <g id="PathCollection_1">
    <defs>
     <path id="mbaf40e3710" d="M -1.767767 3.535534 
L 0 1.767767 
L 1.767767 3.535534 
L 3.535534 1.767767 
L 1.767767 0 
L 3.535534 -1.767767 
L 1.767767 -3.535534 
L 0 -1.767767 
L -1.767767 -3.535534 
L -3.535534 -1.767767 
L -1.767767 0 
L -3.535534 1.767767 
z
" style="stroke: #ffffff; stroke-width: 0.565685"/>
    </defs>
    <g clip-path="url(#p969a7392c0)">
     <use xlink:href="#mbaf40e3710" x="90" y="237.034226" style="fill: #006400; stroke: #ffffff; stroke-width: 0.565685"/>
     <use xlink:href="#mbaf40e3710" x="98.71875" y="236.22376" style="fill: #006400; stroke: #ffffff; stroke-width: 0.565685"/>
     <use xlink:href="#mbaf40e3710" x="107.4375" y="235.360537" style="fill: #006400; stroke: #ffffff; stroke-width: 0.565685"/>
     <use xlink:href="#mbaf40e3710" x="116.15625" y="233.090494" style="fill: #006400; stroke: #ffffff; stroke-width: 0.565685"/>
     <use xlink:href="#mbaf40e3710" x="124.875" y="227.872489" style="fill: #006400; stroke: #ffffff; stroke-width: 0.565685"/>
     <use xlink:href="#mbaf40e3710" x="133.59375" y="224.411289" style="fill: #006400; stroke: #ffffff; stroke-width: 0.565685"/>
     <use xlink:href="#mbaf40e3710" x="142.3125" y="197.785346" style="fill: #006400; stroke: #ffffff; stroke-width: 0.565685"/>
     <use xlink:href="#mbaf40e3710" x="151.03125" y="174.091506" style="fill: #006400; stroke: #ffffff; stroke-width: 0.565685"/>
     <use xlink:href="#mbaf40e3710" x="159.75" y="157.698707" style="fill: #006400; stroke: #ffffff; stroke-width: 0.565685"/>
     <use xlink:href="#mbaf40e3710" x="168.46875" y="153.89963" style="fill: #006400; stroke: #ffffff; stroke-width: 0.565685"/>
     <use xlink:href="#mbaf40e3710" x="177.1875" y="147.562618" style="fill: #006400; stroke: #ffffff; stroke-width: 0.565685"/>
     <use xlink:href="#mbaf40e3710" x="185.90625" y="145.585457" style="fill: #006400; stroke: #ffffff; stroke-width: 0.565685"/>
     <use xlink:href="#mbaf40e3710" x="212.0625" y="238.517364" style="fill: #006400; stroke: #ffffff; stroke-width: 0.565685"/>
     <use xlink:href="#mbaf40e3710" x="220.78125" y="234.062679" style="fill: #006400; stroke: #ffffff; stroke-width: 0.565685"/>
     <use xlink:href="#mbaf40e3710" x="229.5" y="233.122397" style="fill: #006400; stroke: #ffffff; stroke-width: 0.565685"/>
     <use xlink:href="#mbaf40e3710" x="238.21875" y="236.218446" style="fill: #006400; stroke: #ffffff; stroke-width: 0.565685"/>
     <use xlink:href="#mbaf40e3710" x="246.9375" y="232.453012" style="fill: #006400; stroke: #ffffff; stroke-width: 0.565685"/>
     <use xlink:href="#mbaf40e3710" x="255.65625" y="232.012222" style="fill: #006400; stroke: #ffffff; stroke-width: 0.565685"/>
     <use xlink:href="#mbaf40e3710" x="264.375" y="230.202223" style="fill: #006400; stroke: #ffffff; stroke-width: 0.565685"/>
     <use xlink:href="#mbaf40e3710" x="273.09375" y="228.913758" style="fill: #006400; stroke: #ffffff; stroke-width: 0.565685"/>
     <use xlink:href="#mbaf40e3710" x="281.8125" y="226.057816" style="fill: #006400; stroke: #ffffff; stroke-width: 0.565685"/>
     <use xlink:href="#mbaf40e3710" x="290.53125" y="208.956681" style="fill: #006400; stroke: #ffffff; stroke-width: 0.565685"/>
     <use xlink:href="#mbaf40e3710" x="299.25" y="186.679736" style="fill: #006400; stroke: #ffffff; stroke-width: 0.565685"/>
     <use xlink:href="#mbaf40e3710" x="307.96875" y="178.414284" style="fill: #006400; stroke: #ffffff; stroke-width: 0.565685"/>
     <use xlink:href="#mbaf40e3710" x="316.6875" y="177.961504" style="fill: #006400; stroke: #ffffff; stroke-width: 0.565685"/>
     <use xlink:href="#mbaf40e3710" x="325.40625" y="173.39979" style="fill: #006400; stroke: #ffffff; stroke-width: 0.565685"/>
     <use xlink:href="#mbaf40e3710" x="334.125" y="172.244267" style="fill: #006400; stroke: #ffffff; stroke-width: 0.565685"/>
     <use xlink:href="#mbaf40e3710" x="342.84375" y="171.883534" style="fill: #006400; stroke: #ffffff; stroke-width: 0.565685"/>
     <use xlink:href="#mbaf40e3710" x="351.5625" y="168.923239" style="fill: #006400; stroke: #ffffff; stroke-width: 0.565685"/>
     <use xlink:href="#mbaf40e3710" x="360.28125" y="166.845071" style="fill: #006400; stroke: #ffffff; stroke-width: 0.565685"/>
     <use xlink:href="#mbaf40e3710" x="386.4375" y="261.306587" style="fill: #006400; stroke: #ffffff; stroke-width: 0.565685"/>
     <use xlink:href="#mbaf40e3710" x="395.15625" y="262.266869" style="fill: #006400; stroke: #ffffff; stroke-width: 0.565685"/>
     <use xlink:href="#mbaf40e3710" x="403.875" y="255.110247" style="fill: #006400; stroke: #ffffff; stroke-width: 0.565685"/>
     <use xlink:href="#mbaf40e3710" x="412.59375" y="254.929654" style="fill: #006400; stroke: #ffffff; stroke-width: 0.565685"/>
     <use xlink:href="#mbaf40e3710" x="421.3125" y="254.4366" style="fill: #006400; stroke: #ffffff; stroke-width: 0.565685"/>
     <use xlink:href="#mbaf40e3710" x="430.03125" y="253.27457" style="fill: #006400; stroke: #ffffff; stroke-width: 0.565685"/>
     <use xlink:href="#mbaf40e3710" x="438.75" y="252.452299" style="fill: #006400; stroke: #ffffff; stroke-width: 0.565685"/>
     <use xlink:href="#mbaf40e3710" x="447.46875" y="251.603635" style="fill: #006400; stroke: #ffffff; stroke-width: 0.565685"/>
     <use xlink:href="#mbaf40e3710" x="456.1875" y="246.716318" style="fill: #006400; stroke: #ffffff; stroke-width: 0.565685"/>
     <use xlink:href="#mbaf40e3710" x="464.90625" y="233.859467" style="fill: #006400; stroke: #ffffff; stroke-width: 0.565685"/>
     <use xlink:href="#mbaf40e3710" x="473.625" y="216.281389" style="fill: #006400; stroke: #ffffff; stroke-width: 0.565685"/>
     <use xlink:href="#mbaf40e3710" x="482.34375" y="216.39804" style="fill: #006400; stroke: #ffffff; stroke-width: 0.565685"/>
     <use xlink:href="#mbaf40e3710" x="491.0625" y="217.157694" style="fill: #006400; stroke: #ffffff; stroke-width: 0.565685"/>
     <use xlink:href="#mbaf40e3710" x="499.78125" y="216.287752" style="fill: #006400; stroke: #ffffff; stroke-width: 0.565685"/>
     <use xlink:href="#mbaf40e3710" x="508.5" y="215.638701" style="fill: #006400; stroke: #ffffff; stroke-width: 0.565685"/>
     <use xlink:href="#mbaf40e3710" x="517.21875" y="217.691819" style="fill: #006400; stroke: #ffffff; stroke-width: 0.565685"/>
     <use xlink:href="#mbaf40e3710" x="525.9375" y="216.512531" style="fill: #006400; stroke: #ffffff; stroke-width: 0.565685"/>
     <use xlink:href="#mbaf40e3710" x="534.65625" y="217.515706" style="fill: #006400; stroke: #ffffff; stroke-width: 0.565685"/>
     <use xlink:href="#mbaf40e3710" x="543.375" y="221.834767" style="fill: #006400; stroke: #ffffff; stroke-width: 0.565685"/>
     <use xlink:href="#mbaf40e3710" x="552.09375" y="222.618757" style="fill: #006400; stroke: #ffffff; stroke-width: 0.565685"/>
     <use xlink:href="#mbaf40e3710" x="560.8125" y="225.442431" style="fill: #006400; stroke: #ffffff; stroke-width: 0.565685"/>
     <use xlink:href="#mbaf40e3710" x="569.53125" y="226.835149" style="fill: #006400; stroke: #ffffff; stroke-width: 0.565685"/>
     <use xlink:href="#mbaf40e3710" x="578.25" y="229.516607" style="fill: #006400; stroke: #ffffff; stroke-width: 0.565685"/>
     <use xlink:href="#mbaf40e3710" x="586.96875" y="229.472544" style="fill: #006400; stroke: #ffffff; stroke-width: 0.565685"/>
     <use xlink:href="#mbaf40e3710" x="595.6875" y="229.289068" style="fill: #006400; stroke: #ffffff; stroke-width: 0.565685"/>
     <use xlink:href="#mbaf40e3710" x="604.40625" y="228.980384" style="fill: #006400; stroke: #ffffff; stroke-width: 0.565685"/>
     <use xlink:href="#mbaf40e3710" x="613.125" y="229.143957" style="fill: #006400; stroke: #ffffff; stroke-width: 0.565685"/>
     <use xlink:href="#mbaf40e3710" x="621.84375" y="228.954914" style="fill: #006400; stroke: #ffffff; stroke-width: 0.565685"/>
     <use xlink:href="#mbaf40e3710" x="630.5625" y="228.971712" style="fill: #006400; stroke: #ffffff; stroke-width: 0.565685"/>
     <use xlink:href="#mbaf40e3710" x="639.28125" y="228.599124" style="fill: #006400; stroke: #ffffff; stroke-width: 0.565685"/>
     <use xlink:href="#mbaf40e3710" x="648" y="228.252039" style="fill: #006400; stroke: #ffffff; stroke-width: 0.565685"/>
    </g>
   </g>
   <g id="PolyCollection_1"/>
   <g id="matplotlib.axis_1">
    <g id="xtick_1">
     <g id="line2d_2">
      <path d="M 116.15625 320.4 
L 116.15625 43.2 
" clip-path="url(#p969a7392c0)" style="fill: none; stroke: #b0b0b0; stroke-width: 0.8; stroke-linecap: square"/>
     </g>
     <g id="line2d_3">
      <defs>
       <path id="m6002e6904d" d="M 0 0 
L 0 3.5 
" style="stroke: #000000; stroke-width: 0.8"/>
      </defs>
      <g>
       <use xlink:href="#m6002e6904d" x="116.15625" y="320.4" style="stroke: #000000; stroke-width: 0.8"/>
      </g>
     </g>
     <g id="text_1">
      <!-- 5 -->
      <g transform="translate(112.975 334.998438) scale(0.1 -0.1)">
       <defs>
        <path id="DejaVuSans-35" d="M 691 4666 
L 3169 4666 
L 3169 4134 
L 1269 4134 
L 1269 2991 
Q 1406 3038 1543 3061 
Q 1681 3084 1819 3084 
Q 2600 3084 3056 2656 
Q 3513 2228 3513 1497 
Q 3513 744 3044 326 
Q 2575 -91 1722 -91 
Q 1428 -91 1123 -41 
Q 819 9 494 109 
L 494 744 
Q 775 591 1075 516 
Q 1375 441 1709 441 
Q 2250 441 2565 725 
Q 2881 1009 2881 1497 
Q 2881 1984 2565 2268 
Q 2250 2553 1709 2553 
Q 1456 2553 1204 2497 
Q 953 2441 691 2322 
L 691 4666 
z
" transform="scale(0.015625)"/>
       </defs>
       <use xlink:href="#DejaVuSans-35"/>
      </g>
     </g>
    </g>
    <g id="xtick_2">
     <g id="line2d_4">
      <path d="M 159.75 320.4 
L 159.75 43.2 
" clip-path="url(#p969a7392c0)" style="fill: none; stroke: #b0b0b0; stroke-width: 0.8; stroke-linecap: square"/>
     </g>
     <g id="line2d_5">
      <g>
       <use xlink:href="#m6002e6904d" x="159.75" y="320.4" style="stroke: #000000; stroke-width: 0.8"/>
      </g>
     </g>
     <g id="text_2">
      <!-- 10 -->
      <g transform="translate(153.3875 334.998438) scale(0.1 -0.1)">
       <defs>
        <path id="DejaVuSans-31" d="M 794 531 
L 1825 531 
L 1825 4091 
L 703 3866 
L 703 4441 
L 1819 4666 
L 2450 4666 
L 2450 531 
L 3481 531 
L 3481 0 
L 794 0 
L 794 531 
z
" transform="scale(0.015625)"/>
        <path id="DejaVuSans-30" d="M 2034 4250 
Q 1547 4250 1301 3770 
Q 1056 3291 1056 2328 
Q 1056 1369 1301 889 
Q 1547 409 2034 409 
Q 2525 409 2770 889 
Q 3016 1369 3016 2328 
Q 3016 3291 2770 3770 
Q 2525 4250 2034 4250 
z
M 2034 4750 
Q 2819 4750 3233 4129 
Q 3647 3509 3647 2328 
Q 3647 1150 3233 529 
Q 2819 -91 2034 -91 
Q 1250 -91 836 529 
Q 422 1150 422 2328 
Q 422 3509 836 4129 
Q 1250 4750 2034 4750 
z
" transform="scale(0.015625)"/>
       </defs>
       <use xlink:href="#DejaVuSans-31"/>
       <use xlink:href="#DejaVuSans-30" x="63.623047"/>
      </g>
     </g>
    </g>
    <g id="xtick_3">
     <g id="line2d_6">
      <path d="M 203.34375 320.4 
L 203.34375 43.2 
" clip-path="url(#p969a7392c0)" style="fill: none; stroke: #b0b0b0; stroke-width: 0.8; stroke-linecap: square"/>
     </g>
     <g id="line2d_7">
      <g>
       <use xlink:href="#m6002e6904d" x="203.34375" y="320.4" style="stroke: #000000; stroke-width: 0.8"/>
      </g>
     </g>
     <g id="text_3">
      <!-- 15 -->
      <g transform="translate(196.98125 334.998438) scale(0.1 -0.1)">
       <use xlink:href="#DejaVuSans-31"/>
       <use xlink:href="#DejaVuSans-35" x="63.623047"/>
      </g>
     </g>
    </g>
    <g id="xtick_4">
     <g id="line2d_8">
      <path d="M 246.9375 320.4 
L 246.9375 43.2 
" clip-path="url(#p969a7392c0)" style="fill: none; stroke: #b0b0b0; stroke-width: 0.8; stroke-linecap: square"/>
     </g>
     <g id="line2d_9">
      <g>
       <use xlink:href="#m6002e6904d" x="246.9375" y="320.4" style="stroke: #000000; stroke-width: 0.8"/>
      </g>
     </g>
     <g id="text_4">
      <!-- 20 -->
      <g transform="translate(240.575 334.998438) scale(0.1 -0.1)">
       <defs>
        <path id="DejaVuSans-32" d="M 1228 531 
L 3431 531 
L 3431 0 
L 469 0 
L 469 531 
Q 828 903 1448 1529 
Q 2069 2156 2228 2338 
Q 2531 2678 2651 2914 
Q 2772 3150 2772 3378 
Q 2772 3750 2511 3984 
Q 2250 4219 1831 4219 
Q 1534 4219 1204 4116 
Q 875 4013 500 3803 
L 500 4441 
Q 881 4594 1212 4672 
Q 1544 4750 1819 4750 
Q 2544 4750 2975 4387 
Q 3406 4025 3406 3419 
Q 3406 3131 3298 2873 
Q 3191 2616 2906 2266 
Q 2828 2175 2409 1742 
Q 1991 1309 1228 531 
z
" transform="scale(0.015625)"/>
       </defs>
       <use xlink:href="#DejaVuSans-32"/>
       <use xlink:href="#DejaVuSans-30" x="63.623047"/>
      </g>
     </g>
    </g>
    <g id="xtick_5">
     <g id="line2d_10">
      <path d="M 290.53125 320.4 
L 290.53125 43.2 
" clip-path="url(#p969a7392c0)" style="fill: none; stroke: #b0b0b0; stroke-width: 0.8; stroke-linecap: square"/>
     </g>
     <g id="line2d_11">
      <g>
       <use xlink:href="#m6002e6904d" x="290.53125" y="320.4" style="stroke: #000000; stroke-width: 0.8"/>
      </g>
     </g>
     <g id="text_5">
      <!-- 25 -->
      <g transform="translate(284.16875 334.998438) scale(0.1 -0.1)">
       <use xlink:href="#DejaVuSans-32"/>
       <use xlink:href="#DejaVuSans-35" x="63.623047"/>
      </g>
     </g>
    </g>
    <g id="xtick_6">
     <g id="line2d_12">
      <path d="M 334.125 320.4 
L 334.125 43.2 
" clip-path="url(#p969a7392c0)" style="fill: none; stroke: #b0b0b0; stroke-width: 0.8; stroke-linecap: square"/>
     </g>
     <g id="line2d_13">
      <g>
       <use xlink:href="#m6002e6904d" x="334.125" y="320.4" style="stroke: #000000; stroke-width: 0.8"/>
      </g>
     </g>
     <g id="text_6">
      <!-- 30 -->
      <g transform="translate(327.7625 334.998438) scale(0.1 -0.1)">
       <defs>
        <path id="DejaVuSans-33" d="M 2597 2516 
Q 3050 2419 3304 2112 
Q 3559 1806 3559 1356 
Q 3559 666 3084 287 
Q 2609 -91 1734 -91 
Q 1441 -91 1130 -33 
Q 819 25 488 141 
L 488 750 
Q 750 597 1062 519 
Q 1375 441 1716 441 
Q 2309 441 2620 675 
Q 2931 909 2931 1356 
Q 2931 1769 2642 2001 
Q 2353 2234 1838 2234 
L 1294 2234 
L 1294 2753 
L 1863 2753 
Q 2328 2753 2575 2939 
Q 2822 3125 2822 3475 
Q 2822 3834 2567 4026 
Q 2313 4219 1838 4219 
Q 1578 4219 1281 4162 
Q 984 4106 628 3988 
L 628 4550 
Q 988 4650 1302 4700 
Q 1616 4750 1894 4750 
Q 2613 4750 3031 4423 
Q 3450 4097 3450 3541 
Q 3450 3153 3228 2886 
Q 3006 2619 2597 2516 
z
" transform="scale(0.015625)"/>
       </defs>
       <use xlink:href="#DejaVuSans-33"/>
       <use xlink:href="#DejaVuSans-30" x="63.623047"/>
      </g>
     </g>
    </g>
    <g id="xtick_7">
     <g id="line2d_14">
      <path d="M 377.71875 320.4 
L 377.71875 43.2 
" clip-path="url(#p969a7392c0)" style="fill: none; stroke: #b0b0b0; stroke-width: 0.8; stroke-linecap: square"/>
     </g>
     <g id="line2d_15">
      <g>
       <use xlink:href="#m6002e6904d" x="377.71875" y="320.4" style="stroke: #000000; stroke-width: 0.8"/>
      </g>
     </g>
     <g id="text_7">
      <!-- 35 -->
      <g transform="translate(371.35625 334.998438) scale(0.1 -0.1)">
       <use xlink:href="#DejaVuSans-33"/>
       <use xlink:href="#DejaVuSans-35" x="63.623047"/>
      </g>
     </g>
    </g>
    <g id="xtick_8">
     <g id="line2d_16">
      <path d="M 421.3125 320.4 
L 421.3125 43.2 
" clip-path="url(#p969a7392c0)" style="fill: none; stroke: #b0b0b0; stroke-width: 0.8; stroke-linecap: square"/>
     </g>
     <g id="line2d_17">
      <g>
       <use xlink:href="#m6002e6904d" x="421.3125" y="320.4" style="stroke: #000000; stroke-width: 0.8"/>
      </g>
     </g>
     <g id="text_8">
      <!-- 40 -->
      <g transform="translate(414.95 334.998438) scale(0.1 -0.1)">
       <defs>
        <path id="DejaVuSans-34" d="M 2419 4116 
L 825 1625 
L 2419 1625 
L 2419 4116 
z
M 2253 4666 
L 3047 4666 
L 3047 1625 
L 3713 1625 
L 3713 1100 
L 3047 1100 
L 3047 0 
L 2419 0 
L 2419 1100 
L 313 1100 
L 313 1709 
L 2253 4666 
z
" transform="scale(0.015625)"/>
       </defs>
       <use xlink:href="#DejaVuSans-34"/>
       <use xlink:href="#DejaVuSans-30" x="63.623047"/>
      </g>
     </g>
    </g>
    <g id="xtick_9">
     <g id="line2d_18">
      <path d="M 464.90625 320.4 
L 464.90625 43.2 
" clip-path="url(#p969a7392c0)" style="fill: none; stroke: #b0b0b0; stroke-width: 0.8; stroke-linecap: square"/>
     </g>
     <g id="line2d_19">
      <g>
       <use xlink:href="#m6002e6904d" x="464.90625" y="320.4" style="stroke: #000000; stroke-width: 0.8"/>
      </g>
     </g>
     <g id="text_9">
      <!-- 45 -->
      <g transform="translate(458.54375 334.998438) scale(0.1 -0.1)">
       <use xlink:href="#DejaVuSans-34"/>
       <use xlink:href="#DejaVuSans-35" x="63.623047"/>
      </g>
     </g>
    </g>
    <g id="xtick_10">
     <g id="line2d_20">
      <path d="M 508.5 320.4 
L 508.5 43.2 
" clip-path="url(#p969a7392c0)" style="fill: none; stroke: #b0b0b0; stroke-width: 0.8; stroke-linecap: square"/>
     </g>
     <g id="line2d_21">
      <g>
       <use xlink:href="#m6002e6904d" x="508.5" y="320.4" style="stroke: #000000; stroke-width: 0.8"/>
      </g>
     </g>
     <g id="text_10">
      <!-- 50 -->
      <g transform="translate(502.1375 334.998438) scale(0.1 -0.1)">
       <use xlink:href="#DejaVuSans-35"/>
       <use xlink:href="#DejaVuSans-30" x="63.623047"/>
      </g>
     </g>
    </g>
    <g id="xtick_11">
     <g id="line2d_22">
      <path d="M 552.09375 320.4 
L 552.09375 43.2 
" clip-path="url(#p969a7392c0)" style="fill: none; stroke: #b0b0b0; stroke-width: 0.8; stroke-linecap: square"/>
     </g>
     <g id="line2d_23">
      <g>
       <use xlink:href="#m6002e6904d" x="552.09375" y="320.4" style="stroke: #000000; stroke-width: 0.8"/>
      </g>
     </g>
     <g id="text_11">
      <!-- 55 -->
      <g transform="translate(545.73125 334.998438) scale(0.1 -0.1)">
       <use xlink:href="#DejaVuSans-35"/>
       <use xlink:href="#DejaVuSans-35" x="63.623047"/>
      </g>
     </g>
    </g>
    <g id="xtick_12">
     <g id="line2d_24">
      <path d="M 595.6875 320.4 
L 595.6875 43.2 
" clip-path="url(#p969a7392c0)" style="fill: none; stroke: #b0b0b0; stroke-width: 0.8; stroke-linecap: square"/>
     </g>
     <g id="line2d_25">
      <g>
       <use xlink:href="#m6002e6904d" x="595.6875" y="320.4" style="stroke: #000000; stroke-width: 0.8"/>
      </g>
     </g>
     <g id="text_12">
      <!-- 60 -->
      <g transform="translate(589.325 334.998438) scale(0.1 -0.1)">
       <defs>
        <path id="DejaVuSans-36" d="M 2113 2584 
Q 1688 2584 1439 2293 
Q 1191 2003 1191 1497 
Q 1191 994 1439 701 
Q 1688 409 2113 409 
Q 2538 409 2786 701 
Q 3034 994 3034 1497 
Q 3034 2003 2786 2293 
Q 2538 2584 2113 2584 
z
M 3366 4563 
L 3366 3988 
Q 3128 4100 2886 4159 
Q 2644 4219 2406 4219 
Q 1781 4219 1451 3797 
Q 1122 3375 1075 2522 
Q 1259 2794 1537 2939 
Q 1816 3084 2150 3084 
Q 2853 3084 3261 2657 
Q 3669 2231 3669 1497 
Q 3669 778 3244 343 
Q 2819 -91 2113 -91 
Q 1303 -91 875 529 
Q 447 1150 447 2328 
Q 447 3434 972 4092 
Q 1497 4750 2381 4750 
Q 2619 4750 2861 4703 
Q 3103 4656 3366 4563 
z
" transform="scale(0.015625)"/>
       </defs>
       <use xlink:href="#DejaVuSans-36"/>
       <use xlink:href="#DejaVuSans-30" x="63.623047"/>
      </g>
     </g>
    </g>
    <g id="xtick_13">
     <g id="line2d_26">
      <path d="M 639.28125 320.4 
L 639.28125 43.2 
" clip-path="url(#p969a7392c0)" style="fill: none; stroke: #b0b0b0; stroke-width: 0.8; stroke-linecap: square"/>
     </g>
     <g id="line2d_27">
      <g>
       <use xlink:href="#m6002e6904d" x="639.28125" y="320.4" style="stroke: #000000; stroke-width: 0.8"/>
      </g>
     </g>
     <g id="text_13">
      <!-- 65 -->
      <g transform="translate(632.91875 334.998438) scale(0.1 -0.1)">
       <use xlink:href="#DejaVuSans-36"/>
       <use xlink:href="#DejaVuSans-35" x="63.623047"/>
      </g>
     </g>
    </g>
    <g id="text_14">
     <!-- Lap Number -->
     <g transform="translate(338.300781 348.676562) scale(0.1 -0.1)">
      <defs>
       <path id="DejaVuSans-4c" d="M 628 4666 
L 1259 4666 
L 1259 531 
L 3531 531 
L 3531 0 
L 628 0 
L 628 4666 
z
" transform="scale(0.015625)"/>
       <path id="DejaVuSans-61" d="M 2194 1759 
Q 1497 1759 1228 1600 
Q 959 1441 959 1056 
Q 959 750 1161 570 
Q 1363 391 1709 391 
Q 2188 391 2477 730 
Q 2766 1069 2766 1631 
L 2766 1759 
L 2194 1759 
z
M 3341 1997 
L 3341 0 
L 2766 0 
L 2766 531 
Q 2569 213 2275 61 
Q 1981 -91 1556 -91 
Q 1019 -91 701 211 
Q 384 513 384 1019 
Q 384 1609 779 1909 
Q 1175 2209 1959 2209 
L 2766 2209 
L 2766 2266 
Q 2766 2663 2505 2880 
Q 2244 3097 1772 3097 
Q 1472 3097 1187 3025 
Q 903 2953 641 2809 
L 641 3341 
Q 956 3463 1253 3523 
Q 1550 3584 1831 3584 
Q 2591 3584 2966 3190 
Q 3341 2797 3341 1997 
z
" transform="scale(0.015625)"/>
       <path id="DejaVuSans-70" d="M 1159 525 
L 1159 -1331 
L 581 -1331 
L 581 3500 
L 1159 3500 
L 1159 2969 
Q 1341 3281 1617 3432 
Q 1894 3584 2278 3584 
Q 2916 3584 3314 3078 
Q 3713 2572 3713 1747 
Q 3713 922 3314 415 
Q 2916 -91 2278 -91 
Q 1894 -91 1617 61 
Q 1341 213 1159 525 
z
M 3116 1747 
Q 3116 2381 2855 2742 
Q 2594 3103 2138 3103 
Q 1681 3103 1420 2742 
Q 1159 2381 1159 1747 
Q 1159 1113 1420 752 
Q 1681 391 2138 391 
Q 2594 391 2855 752 
Q 3116 1113 3116 1747 
z
" transform="scale(0.015625)"/>
       <path id="DejaVuSans-20" transform="scale(0.015625)"/>
       <path id="DejaVuSans-4e" d="M 628 4666 
L 1478 4666 
L 3547 763 
L 3547 4666 
L 4159 4666 
L 4159 0 
L 3309 0 
L 1241 3903 
L 1241 0 
L 628 0 
L 628 4666 
z
" transform="scale(0.015625)"/>
       <path id="DejaVuSans-75" d="M 544 1381 
L 544 3500 
L 1119 3500 
L 1119 1403 
Q 1119 906 1312 657 
Q 1506 409 1894 409 
Q 2359 409 2629 706 
Q 2900 1003 2900 1516 
L 2900 3500 
L 3475 3500 
L 3475 0 
L 2900 0 
L 2900 538 
Q 2691 219 2414 64 
Q 2138 -91 1772 -91 
Q 1169 -91 856 284 
Q 544 659 544 1381 
z
M 1991 3584 
L 1991 3584 
z
" transform="scale(0.015625)"/>
       <path id="DejaVuSans-6d" d="M 3328 2828 
Q 3544 3216 3844 3400 
Q 4144 3584 4550 3584 
Q 5097 3584 5394 3201 
Q 5691 2819 5691 2113 
L 5691 0 
L 5113 0 
L 5113 2094 
Q 5113 2597 4934 2840 
Q 4756 3084 4391 3084 
Q 3944 3084 3684 2787 
Q 3425 2491 3425 1978 
L 3425 0 
L 2847 0 
L 2847 2094 
Q 2847 2600 2669 2842 
Q 2491 3084 2119 3084 
Q 1678 3084 1418 2786 
Q 1159 2488 1159 1978 
L 1159 0 
L 581 0 
L 581 3500 
L 1159 3500 
L 1159 2956 
Q 1356 3278 1631 3431 
Q 1906 3584 2284 3584 
Q 2666 3584 2933 3390 
Q 3200 3197 3328 2828 
z
" transform="scale(0.015625)"/>
       <path id="DejaVuSans-62" d="M 3116 1747 
Q 3116 2381 2855 2742 
Q 2594 3103 2138 3103 
Q 1681 3103 1420 2742 
Q 1159 2381 1159 1747 
Q 1159 1113 1420 752 
Q 1681 391 2138 391 
Q 2594 391 2855 752 
Q 3116 1113 3116 1747 
z
M 1159 2969 
Q 1341 3281 1617 3432 
Q 1894 3584 2278 3584 
Q 2916 3584 3314 3078 
Q 3713 2572 3713 1747 
Q 3713 922 3314 415 
Q 2916 -91 2278 -91 
Q 1894 -91 1617 61 
Q 1341 213 1159 525 
L 1159 0 
L 581 0 
L 581 4863 
L 1159 4863 
L 1159 2969 
z
" transform="scale(0.015625)"/>
       <path id="DejaVuSans-65" d="M 3597 1894 
L 3597 1613 
L 953 1613 
Q 991 1019 1311 708 
Q 1631 397 2203 397 
Q 2534 397 2845 478 
Q 3156 559 3463 722 
L 3463 178 
Q 3153 47 2828 -22 
Q 2503 -91 2169 -91 
Q 1331 -91 842 396 
Q 353 884 353 1716 
Q 353 2575 817 3079 
Q 1281 3584 2069 3584 
Q 2775 3584 3186 3129 
Q 3597 2675 3597 1894 
z
M 3022 2063 
Q 3016 2534 2758 2815 
Q 2500 3097 2075 3097 
Q 1594 3097 1305 2825 
Q 1016 2553 972 2059 
L 3022 2063 
z
" transform="scale(0.015625)"/>
       <path id="DejaVuSans-72" d="M 2631 2963 
Q 2534 3019 2420 3045 
Q 2306 3072 2169 3072 
Q 1681 3072 1420 2755 
Q 1159 2438 1159 1844 
L 1159 0 
L 581 0 
L 581 3500 
L 1159 3500 
L 1159 2956 
Q 1341 3275 1631 3429 
Q 1922 3584 2338 3584 
Q 2397 3584 2469 3576 
Q 2541 3569 2628 3553 
L 2631 2963 
z
" transform="scale(0.015625)"/>
      </defs>
      <use xlink:href="#DejaVuSans-4c"/>
      <use xlink:href="#DejaVuSans-61" x="55.712891"/>
      <use xlink:href="#DejaVuSans-70" x="116.992188"/>
      <use xlink:href="#DejaVuSans-20" x="180.46875"/>
      <use xlink:href="#DejaVuSans-4e" x="212.255859"/>
      <use xlink:href="#DejaVuSans-75" x="287.060547"/>
      <use xlink:href="#DejaVuSans-6d" x="350.439453"/>
      <use xlink:href="#DejaVuSans-62" x="447.851562"/>
      <use xlink:href="#DejaVuSans-65" x="511.328125"/>
      <use xlink:href="#DejaVuSans-72" x="572.851562"/>
     </g>
    </g>
   </g>
   <g id="matplotlib.axis_2">
    <g id="ytick_1">
     <g id="line2d_28">
      <path d="M 90 320.4 
L 648 320.4 
" clip-path="url(#p969a7392c0)" style="fill: none; stroke: #b0b0b0; stroke-width: 0.8; stroke-linecap: square"/>
     </g>
     <g id="line2d_29">
      <defs>
       <path id="m3b14a97243" d="M 0 0 
L -3.5 0 
" style="stroke: #000000; stroke-width: 0.8"/>
      </defs>
      <g>
       <use xlink:href="#m3b14a97243" x="90" y="320.4" style="stroke: #000000; stroke-width: 0.8"/>
      </g>
     </g>
     <g id="text_15">
      <!-- 0.0 -->
      <g transform="translate(67.096875 324.199219) scale(0.1 -0.1)">
       <defs>
        <path id="DejaVuSans-2e" d="M 684 794 
L 1344 794 
L 1344 0 
L 684 0 
L 684 794 
z
" transform="scale(0.015625)"/>
       </defs>
       <use xlink:href="#DejaVuSans-30"/>
       <use xlink:href="#DejaVuSans-2e" x="63.623047"/>
       <use xlink:href="#DejaVuSans-30" x="95.410156"/>
      </g>
     </g>
    </g>
    <g id="ytick_2">
     <g id="line2d_30">
      <path d="M 90 264.96 
L 648 264.96 
" clip-path="url(#p969a7392c0)" style="fill: none; stroke: #b0b0b0; stroke-width: 0.8; stroke-linecap: square"/>
     </g>
     <g id="line2d_31">
      <g>
       <use xlink:href="#m3b14a97243" x="90" y="264.96" style="stroke: #000000; stroke-width: 0.8"/>
      </g>
     </g>
     <g id="text_16">
      <!-- 0.2 -->
      <g transform="translate(67.096875 268.759219) scale(0.1 -0.1)">
       <use xlink:href="#DejaVuSans-30"/>
       <use xlink:href="#DejaVuSans-2e" x="63.623047"/>
       <use xlink:href="#DejaVuSans-32" x="95.410156"/>
      </g>
     </g>
    </g>
    <g id="ytick_3">
     <g id="line2d_32">
      <path d="M 90 209.52 
L 648 209.52 
" clip-path="url(#p969a7392c0)" style="fill: none; stroke: #b0b0b0; stroke-width: 0.8; stroke-linecap: square"/>
     </g>
     <g id="line2d_33">
      <g>
       <use xlink:href="#m3b14a97243" x="90" y="209.52" style="stroke: #000000; stroke-width: 0.8"/>
      </g>
     </g>
     <g id="text_17">
      <!-- 0.4 -->
      <g transform="translate(67.096875 213.319219) scale(0.1 -0.1)">
       <use xlink:href="#DejaVuSans-30"/>
       <use xlink:href="#DejaVuSans-2e" x="63.623047"/>
       <use xlink:href="#DejaVuSans-34" x="95.410156"/>
      </g>
     </g>
    </g>
    <g id="ytick_4">
     <g id="line2d_34">
      <path d="M 90 154.08 
L 648 154.08 
" clip-path="url(#p969a7392c0)" style="fill: none; stroke: #b0b0b0; stroke-width: 0.8; stroke-linecap: square"/>
     </g>
     <g id="line2d_35">
      <g>
       <use xlink:href="#m3b14a97243" x="90" y="154.08" style="stroke: #000000; stroke-width: 0.8"/>
      </g>
     </g>
     <g id="text_18">
      <!-- 0.6 -->
      <g transform="translate(67.096875 157.879219) scale(0.1 -0.1)">
       <use xlink:href="#DejaVuSans-30"/>
       <use xlink:href="#DejaVuSans-2e" x="63.623047"/>
       <use xlink:href="#DejaVuSans-36" x="95.410156"/>
      </g>
     </g>
    </g>
    <g id="ytick_5">
     <g id="line2d_36">
      <path d="M 90 98.64 
L 648 98.64 
" clip-path="url(#p969a7392c0)" style="fill: none; stroke: #b0b0b0; stroke-width: 0.8; stroke-linecap: square"/>
     </g>
     <g id="line2d_37">
      <g>
       <use xlink:href="#m3b14a97243" x="90" y="98.64" style="stroke: #000000; stroke-width: 0.8"/>
      </g>
     </g>
     <g id="text_19">
      <!-- 0.8 -->
      <g transform="translate(67.096875 102.439219) scale(0.1 -0.1)">
       <defs>
        <path id="DejaVuSans-38" d="M 2034 2216 
Q 1584 2216 1326 1975 
Q 1069 1734 1069 1313 
Q 1069 891 1326 650 
Q 1584 409 2034 409 
Q 2484 409 2743 651 
Q 3003 894 3003 1313 
Q 3003 1734 2745 1975 
Q 2488 2216 2034 2216 
z
M 1403 2484 
Q 997 2584 770 2862 
Q 544 3141 544 3541 
Q 544 4100 942 4425 
Q 1341 4750 2034 4750 
Q 2731 4750 3128 4425 
Q 3525 4100 3525 3541 
Q 3525 3141 3298 2862 
Q 3072 2584 2669 2484 
Q 3125 2378 3379 2068 
Q 3634 1759 3634 1313 
Q 3634 634 3220 271 
Q 2806 -91 2034 -91 
Q 1263 -91 848 271 
Q 434 634 434 1313 
Q 434 1759 690 2068 
Q 947 2378 1403 2484 
z
M 1172 3481 
Q 1172 3119 1398 2916 
Q 1625 2713 2034 2713 
Q 2441 2713 2670 2916 
Q 2900 3119 2900 3481 
Q 2900 3844 2670 4047 
Q 2441 4250 2034 4250 
Q 1625 4250 1398 4047 
Q 1172 3844 1172 3481 
z
" transform="scale(0.015625)"/>
       </defs>
       <use xlink:href="#DejaVuSans-30"/>
       <use xlink:href="#DejaVuSans-2e" x="63.623047"/>
       <use xlink:href="#DejaVuSans-38" x="95.410156"/>
      </g>
     </g>
    </g>
    <g id="ytick_6">
     <g id="line2d_38">
      <path d="M 90 43.2 
L 648 43.2 
" clip-path="url(#p969a7392c0)" style="fill: none; stroke: #b0b0b0; stroke-width: 0.8; stroke-linecap: square"/>
     </g>
     <g id="line2d_39">
      <g>
       <use xlink:href="#m3b14a97243" x="90" y="43.2" style="stroke: #000000; stroke-width: 0.8"/>
      </g>
     </g>
     <g id="text_20">
      <!-- 1.0 -->
      <g transform="translate(67.096875 46.999219) scale(0.1 -0.1)">
       <use xlink:href="#DejaVuSans-31"/>
       <use xlink:href="#DejaVuSans-2e" x="63.623047"/>
       <use xlink:href="#DejaVuSans-30" x="95.410156"/>
      </g>
     </g>
    </g>
    <g id="text_21">
     <!-- Probability of pitting -->
     <g transform="translate(61.017187 232.442187) rotate(-90) scale(0.1 -0.1)">
      <defs>
       <path id="DejaVuSans-50" d="M 1259 4147 
L 1259 2394 
L 2053 2394 
Q 2494 2394 2734 2622 
Q 2975 2850 2975 3272 
Q 2975 3691 2734 3919 
Q 2494 4147 2053 4147 
L 1259 4147 
z
M 628 4666 
L 2053 4666 
Q 2838 4666 3239 4311 
Q 3641 3956 3641 3272 
Q 3641 2581 3239 2228 
Q 2838 1875 2053 1875 
L 1259 1875 
L 1259 0 
L 628 0 
L 628 4666 
z
" transform="scale(0.015625)"/>
       <path id="DejaVuSans-6f" d="M 1959 3097 
Q 1497 3097 1228 2736 
Q 959 2375 959 1747 
Q 959 1119 1226 758 
Q 1494 397 1959 397 
Q 2419 397 2687 759 
Q 2956 1122 2956 1747 
Q 2956 2369 2687 2733 
Q 2419 3097 1959 3097 
z
M 1959 3584 
Q 2709 3584 3137 3096 
Q 3566 2609 3566 1747 
Q 3566 888 3137 398 
Q 2709 -91 1959 -91 
Q 1206 -91 779 398 
Q 353 888 353 1747 
Q 353 2609 779 3096 
Q 1206 3584 1959 3584 
z
" transform="scale(0.015625)"/>
       <path id="DejaVuSans-69" d="M 603 3500 
L 1178 3500 
L 1178 0 
L 603 0 
L 603 3500 
z
M 603 4863 
L 1178 4863 
L 1178 4134 
L 603 4134 
L 603 4863 
z
" transform="scale(0.015625)"/>
       <path id="DejaVuSans-6c" d="M 603 4863 
L 1178 4863 
L 1178 0 
L 603 0 
L 603 4863 
z
" transform="scale(0.015625)"/>
       <path id="DejaVuSans-74" d="M 1172 4494 
L 1172 3500 
L 2356 3500 
L 2356 3053 
L 1172 3053 
L 1172 1153 
Q 1172 725 1289 603 
Q 1406 481 1766 481 
L 2356 481 
L 2356 0 
L 1766 0 
Q 1100 0 847 248 
Q 594 497 594 1153 
L 594 3053 
L 172 3053 
L 172 3500 
L 594 3500 
L 594 4494 
L 1172 4494 
z
" transform="scale(0.015625)"/>
       <path id="DejaVuSans-79" d="M 2059 -325 
Q 1816 -950 1584 -1140 
Q 1353 -1331 966 -1331 
L 506 -1331 
L 506 -850 
L 844 -850 
Q 1081 -850 1212 -737 
Q 1344 -625 1503 -206 
L 1606 56 
L 191 3500 
L 800 3500 
L 1894 763 
L 2988 3500 
L 3597 3500 
L 2059 -325 
z
" transform="scale(0.015625)"/>
       <path id="DejaVuSans-66" d="M 2375 4863 
L 2375 4384 
L 1825 4384 
Q 1516 4384 1395 4259 
Q 1275 4134 1275 3809 
L 1275 3500 
L 2222 3500 
L 2222 3053 
L 1275 3053 
L 1275 0 
L 697 0 
L 697 3053 
L 147 3053 
L 147 3500 
L 697 3500 
L 697 3744 
Q 697 4328 969 4595 
Q 1241 4863 1831 4863 
L 2375 4863 
z
" transform="scale(0.015625)"/>
       <path id="DejaVuSans-6e" d="M 3513 2113 
L 3513 0 
L 2938 0 
L 2938 2094 
Q 2938 2591 2744 2837 
Q 2550 3084 2163 3084 
Q 1697 3084 1428 2787 
Q 1159 2491 1159 1978 
L 1159 0 
L 581 0 
L 581 3500 
L 1159 3500 
L 1159 2956 
Q 1366 3272 1645 3428 
Q 1925 3584 2291 3584 
Q 2894 3584 3203 3211 
Q 3513 2838 3513 2113 
z
" transform="scale(0.015625)"/>
       <path id="DejaVuSans-67" d="M 2906 1791 
Q 2906 2416 2648 2759 
Q 2391 3103 1925 3103 
Q 1463 3103 1205 2759 
Q 947 2416 947 1791 
Q 947 1169 1205 825 
Q 1463 481 1925 481 
Q 2391 481 2648 825 
Q 2906 1169 2906 1791 
z
M 3481 434 
Q 3481 -459 3084 -895 
Q 2688 -1331 1869 -1331 
Q 1566 -1331 1297 -1286 
Q 1028 -1241 775 -1147 
L 775 -588 
Q 1028 -725 1275 -790 
Q 1522 -856 1778 -856 
Q 2344 -856 2625 -561 
Q 2906 -266 2906 331 
L 2906 616 
Q 2728 306 2450 153 
Q 2172 0 1784 0 
Q 1141 0 747 490 
Q 353 981 353 1791 
Q 353 2603 747 3093 
Q 1141 3584 1784 3584 
Q 2172 3584 2450 3431 
Q 2728 3278 2906 2969 
L 2906 3500 
L 3481 3500 
L 3481 434 
z
" transform="scale(0.015625)"/>
      </defs>
      <use xlink:href="#DejaVuSans-50"/>
      <use xlink:href="#DejaVuSans-72" x="58.552734"/>
      <use xlink:href="#DejaVuSans-6f" x="97.416016"/>
      <use xlink:href="#DejaVuSans-62" x="158.597656"/>
      <use xlink:href="#DejaVuSans-61" x="222.074219"/>
      <use xlink:href="#DejaVuSans-62" x="283.353516"/>
      <use xlink:href="#DejaVuSans-69" x="346.830078"/>
      <use xlink:href="#DejaVuSans-6c" x="374.613281"/>
      <use xlink:href="#DejaVuSans-69" x="402.396484"/>
      <use xlink:href="#DejaVuSans-74" x="430.179688"/>
      <use xlink:href="#DejaVuSans-79" x="469.388672"/>
      <use xlink:href="#DejaVuSans-20" x="528.568359"/>
      <use xlink:href="#DejaVuSans-6f" x="560.355469"/>
      <use xlink:href="#DejaVuSans-66" x="621.537109"/>
      <use xlink:href="#DejaVuSans-20" x="656.742188"/>
      <use xlink:href="#DejaVuSans-70" x="688.529297"/>
      <use xlink:href="#DejaVuSans-69" x="752.005859"/>
      <use xlink:href="#DejaVuSans-74" x="779.789062"/>
      <use xlink:href="#DejaVuSans-74" x="818.998047"/>
      <use xlink:href="#DejaVuSans-69" x="858.207031"/>
      <use xlink:href="#DejaVuSans-6e" x="885.990234"/>
      <use xlink:href="#DejaVuSans-67" x="949.369141"/>
     </g>
    </g>
   </g>
   <g id="patch_64">
    <path d="M 90 320.4 
L 90 43.2 
" style="fill: none; stroke: #000000; stroke-width: 0.8; stroke-linejoin: miter; stroke-linecap: square"/>
   </g>
   <g id="patch_65">
    <path d="M 648 320.4 
L 648 43.2 
" style="fill: none; stroke: #000000; stroke-width: 0.8; stroke-linejoin: miter; stroke-linecap: square"/>
   </g>
   <g id="patch_66">
    <path d="M 90 320.4 
L 648 320.4 
" style="fill: none; stroke: #000000; stroke-width: 0.8; stroke-linejoin: miter; stroke-linecap: square"/>
   </g>
   <g id="patch_67">
    <path d="M 90 43.2 
L 648 43.2 
" style="fill: none; stroke: #000000; stroke-width: 0.8; stroke-linejoin: miter; stroke-linecap: square"/>
   </g>
   <g id="text_22">
    <!-- Barcelona 2023 - Lance Stroll -->
    <g transform="translate(280.693125 37.2) scale(0.12 -0.12)">
     <defs>
      <path id="DejaVuSans-42" d="M 1259 2228 
L 1259 519 
L 2272 519 
Q 2781 519 3026 730 
Q 3272 941 3272 1375 
Q 3272 1813 3026 2020 
Q 2781 2228 2272 2228 
L 1259 2228 
z
M 1259 4147 
L 1259 2741 
L 2194 2741 
Q 2656 2741 2882 2914 
Q 3109 3088 3109 3444 
Q 3109 3797 2882 3972 
Q 2656 4147 2194 4147 
L 1259 4147 
z
M 628 4666 
L 2241 4666 
Q 2963 4666 3353 4366 
Q 3744 4066 3744 3513 
Q 3744 3084 3544 2831 
Q 3344 2578 2956 2516 
Q 3422 2416 3680 2098 
Q 3938 1781 3938 1306 
Q 3938 681 3513 340 
Q 3088 0 2303 0 
L 628 0 
L 628 4666 
z
" transform="scale(0.015625)"/>
      <path id="DejaVuSans-63" d="M 3122 3366 
L 3122 2828 
Q 2878 2963 2633 3030 
Q 2388 3097 2138 3097 
Q 1578 3097 1268 2742 
Q 959 2388 959 1747 
Q 959 1106 1268 751 
Q 1578 397 2138 397 
Q 2388 397 2633 464 
Q 2878 531 3122 666 
L 3122 134 
Q 2881 22 2623 -34 
Q 2366 -91 2075 -91 
Q 1284 -91 818 406 
Q 353 903 353 1747 
Q 353 2603 823 3093 
Q 1294 3584 2113 3584 
Q 2378 3584 2631 3529 
Q 2884 3475 3122 3366 
z
" transform="scale(0.015625)"/>
      <path id="DejaVuSans-2d" d="M 313 2009 
L 1997 2009 
L 1997 1497 
L 313 1497 
L 313 2009 
z
" transform="scale(0.015625)"/>
      <path id="DejaVuSans-53" d="M 3425 4513 
L 3425 3897 
Q 3066 4069 2747 4153 
Q 2428 4238 2131 4238 
Q 1616 4238 1336 4038 
Q 1056 3838 1056 3469 
Q 1056 3159 1242 3001 
Q 1428 2844 1947 2747 
L 2328 2669 
Q 3034 2534 3370 2195 
Q 3706 1856 3706 1288 
Q 3706 609 3251 259 
Q 2797 -91 1919 -91 
Q 1588 -91 1214 -16 
Q 841 59 441 206 
L 441 856 
Q 825 641 1194 531 
Q 1563 422 1919 422 
Q 2459 422 2753 634 
Q 3047 847 3047 1241 
Q 3047 1584 2836 1778 
Q 2625 1972 2144 2069 
L 1759 2144 
Q 1053 2284 737 2584 
Q 422 2884 422 3419 
Q 422 4038 858 4394 
Q 1294 4750 2059 4750 
Q 2388 4750 2728 4690 
Q 3069 4631 3425 4513 
z
" transform="scale(0.015625)"/>
     </defs>
     <use xlink:href="#DejaVuSans-42"/>
     <use xlink:href="#DejaVuSans-61" x="68.603516"/>
     <use xlink:href="#DejaVuSans-72" x="129.882812"/>
     <use xlink:href="#DejaVuSans-63" x="168.746094"/>
     <use xlink:href="#DejaVuSans-65" x="223.726562"/>
     <use xlink:href="#DejaVuSans-6c" x="285.25"/>
     <use xlink:href="#DejaVuSans-6f" x="313.033203"/>
     <use xlink:href="#DejaVuSans-6e" x="374.214844"/>
     <use xlink:href="#DejaVuSans-61" x="437.59375"/>
     <use xlink:href="#DejaVuSans-20" x="498.873047"/>
     <use xlink:href="#DejaVuSans-32" x="530.660156"/>
     <use xlink:href="#DejaVuSans-30" x="594.283203"/>
     <use xlink:href="#DejaVuSans-32" x="657.90625"/>
     <use xlink:href="#DejaVuSans-33" x="721.529297"/>
     <use xlink:href="#DejaVuSans-20" x="785.152344"/>
     <use xlink:href="#DejaVuSans-2d" x="816.939453"/>
     <use xlink:href="#DejaVuSans-20" x="853.023438"/>
     <use xlink:href="#DejaVuSans-4c" x="884.810547"/>
     <use xlink:href="#DejaVuSans-61" x="940.523438"/>
     <use xlink:href="#DejaVuSans-6e" x="1001.802734"/>
     <use xlink:href="#DejaVuSans-63" x="1065.181641"/>
     <use xlink:href="#DejaVuSans-65" x="1120.162109"/>
     <use xlink:href="#DejaVuSans-20" x="1181.685547"/>
     <use xlink:href="#DejaVuSans-53" x="1213.472656"/>
     <use xlink:href="#DejaVuSans-74" x="1276.949219"/>
     <use xlink:href="#DejaVuSans-72" x="1316.158203"/>
     <use xlink:href="#DejaVuSans-6f" x="1355.021484"/>
     <use xlink:href="#DejaVuSans-6c" x="1416.203125"/>
     <use xlink:href="#DejaVuSans-6c" x="1443.986328"/>
    </g>
   </g>
   <g id="legend_1">
    <g id="patch_68">
     <path d="M 655.58 90.234375 
L 772.3425 90.234375 
Q 774.3425 90.234375 774.3425 88.234375 
L 774.3425 45.2 
Q 774.3425 43.2 772.3425 43.2 
L 655.58 43.2 
Q 653.58 43.2 653.58 45.2 
L 653.58 88.234375 
Q 653.58 90.234375 655.58 90.234375 
z
" style="fill: #ffffff; opacity: 0.8; stroke: #cccccc; stroke-linejoin: miter"/>
    </g>
    <g id="PathCollection_2">
     <g>
      <use xlink:href="#mbaf40e3710" x="667.58" y="52.173437" style="fill: #006400; stroke: #ffffff; stroke-width: 0.565685"/>
     </g>
    </g>
    <g id="text_23">
     <!-- Predicted pitstop -->
     <g transform="translate(685.58 54.798437) scale(0.1 -0.1)">
      <defs>
       <path id="DejaVuSans-64" d="M 2906 2969 
L 2906 4863 
L 3481 4863 
L 3481 0 
L 2906 0 
L 2906 525 
Q 2725 213 2448 61 
Q 2172 -91 1784 -91 
Q 1150 -91 751 415 
Q 353 922 353 1747 
Q 353 2572 751 3078 
Q 1150 3584 1784 3584 
Q 2172 3584 2448 3432 
Q 2725 3281 2906 2969 
z
M 947 1747 
Q 947 1113 1208 752 
Q 1469 391 1925 391 
Q 2381 391 2643 752 
Q 2906 1113 2906 1747 
Q 2906 2381 2643 2742 
Q 2381 3103 1925 3103 
Q 1469 3103 1208 2742 
Q 947 2381 947 1747 
z
" transform="scale(0.015625)"/>
       <path id="DejaVuSans-73" d="M 2834 3397 
L 2834 2853 
Q 2591 2978 2328 3040 
Q 2066 3103 1784 3103 
Q 1356 3103 1142 2972 
Q 928 2841 928 2578 
Q 928 2378 1081 2264 
Q 1234 2150 1697 2047 
L 1894 2003 
Q 2506 1872 2764 1633 
Q 3022 1394 3022 966 
Q 3022 478 2636 193 
Q 2250 -91 1575 -91 
Q 1294 -91 989 -36 
Q 684 19 347 128 
L 347 722 
Q 666 556 975 473 
Q 1284 391 1588 391 
Q 1994 391 2212 530 
Q 2431 669 2431 922 
Q 2431 1156 2273 1281 
Q 2116 1406 1581 1522 
L 1381 1569 
Q 847 1681 609 1914 
Q 372 2147 372 2553 
Q 372 3047 722 3315 
Q 1072 3584 1716 3584 
Q 2034 3584 2315 3537 
Q 2597 3491 2834 3397 
z
" transform="scale(0.015625)"/>
      </defs>
      <use xlink:href="#DejaVuSans-50"/>
      <use xlink:href="#DejaVuSans-72" x="58.552734"/>
      <use xlink:href="#DejaVuSans-65" x="97.416016"/>
      <use xlink:href="#DejaVuSans-64" x="158.939453"/>
      <use xlink:href="#DejaVuSans-69" x="222.416016"/>
      <use xlink:href="#DejaVuSans-63" x="250.199219"/>
      <use xlink:href="#DejaVuSans-74" x="305.179688"/>
      <use xlink:href="#DejaVuSans-65" x="344.388672"/>
      <use xlink:href="#DejaVuSans-64" x="405.912109"/>
      <use xlink:href="#DejaVuSans-20" x="469.388672"/>
      <use xlink:href="#DejaVuSans-70" x="501.175781"/>
      <use xlink:href="#DejaVuSans-69" x="564.652344"/>
      <use xlink:href="#DejaVuSans-74" x="592.435547"/>
      <use xlink:href="#DejaVuSans-73" x="631.644531"/>
      <use xlink:href="#DejaVuSans-74" x="683.744141"/>
      <use xlink:href="#DejaVuSans-6f" x="722.953125"/>
      <use xlink:href="#DejaVuSans-70" x="784.134766"/>
     </g>
    </g>
    <g id="patch_69">
     <path d="M 657.58 69.476562 
L 677.58 69.476562 
L 677.58 62.476562 
L 657.58 62.476562 
z
" style="fill: #ff0000"/>
    </g>
    <g id="text_24">
     <!-- Soft -->
     <g transform="translate(685.58 69.476562) scale(0.1 -0.1)">
      <use xlink:href="#DejaVuSans-53"/>
      <use xlink:href="#DejaVuSans-6f" x="63.476562"/>
      <use xlink:href="#DejaVuSans-66" x="124.658203"/>
      <use xlink:href="#DejaVuSans-74" x="158.113281"/>
     </g>
    </g>
    <g id="patch_70">
     <path d="M 657.58 84.154687 
L 677.58 84.154687 
L 677.58 77.154687 
L 657.58 77.154687 
z
" style="fill: #808080"/>
    </g>
    <g id="text_25">
     <!-- Hard -->
     <g transform="translate(685.58 84.154687) scale(0.1 -0.1)">
      <defs>
       <path id="DejaVuSans-48" d="M 628 4666 
L 1259 4666 
L 1259 2753 
L 3553 2753 
L 3553 4666 
L 4184 4666 
L 4184 0 
L 3553 0 
L 3553 2222 
L 1259 2222 
L 1259 0 
L 628 0 
L 628 4666 
z
" transform="scale(0.015625)"/>
      </defs>
      <use xlink:href="#DejaVuSans-48"/>
      <use xlink:href="#DejaVuSans-61" x="75.195312"/>
      <use xlink:href="#DejaVuSans-72" x="136.474609"/>
      <use xlink:href="#DejaVuSans-64" x="175.837891"/>
     </g>
    </g>
   </g>
  </g>
 </g>
 <defs>
  <clipPath id="p969a7392c0">
   <rect x="90" y="43.2" width="558" height="277.2"/>
  </clipPath>
 </defs>
</svg>
