<?xml version="1.0" encoding="utf-8" standalone="no"?>
<!DOCTYPE svg PUBLIC "-//W3C//DTD SVG 1.1//EN"
  "http://www.w3.org/Graphics/SVG/1.1/DTD/svg11.dtd">
<svg xmlns:xlink="http://www.w3.org/1999/xlink" width="580.462188pt" height="312.30825pt" viewBox="0 0 580.462188 312.30825" xmlns="http://www.w3.org/2000/svg" version="1.1">
 <metadata>
  <rdf:RDF xmlns:dc="http://purl.org/dc/elements/1.1/" xmlns:cc="http://creativecommons.org/ns#" xmlns:rdf="http://www.w3.org/1999/02/22-rdf-syntax-ns#">
   <cc:Work>
    <dc:type rdf:resource="http://purl.org/dc/dcmitype/StillImage"/>
    <dc:date>2023-07-26T10:23:15.895583</dc:date>
    <dc:format>image/svg+xml</dc:format>
    <dc:creator>
     <cc:Agent>
      <dc:title>Matplotlib v3.7.2, https://matplotlib.org/</dc:title>
     </cc:Agent>
    </dc:creator>
   </cc:Work>
  </rdf:RDF>
 </metadata>
 <defs>
  <style type="text/css">*{stroke-linejoin: round; stroke-linecap: butt}</style>
 </defs>
 <g id="figure_1">
  <g id="patch_1">
   <path d="M 0 312.30825 
L 580.462188 312.30825 
L 580.462188 0 
L 0 0 
z
" style="fill: #ffffff"/>
  </g>
  <g id="axes_1">
   <g id="patch_2">
    <path d="M 216.142188 288.430125 
L 573.262187 288.430125 
L 573.262187 22.318125 
L 216.142188 22.318125 
z
" style="fill: #ffffff"/>
   </g>
   <g id="patch_3">
    <path d="M 464.995548 276.334125 
L 442.257206 276.334125 
L 442.257206 256.585554 
L 464.995548 256.585554 
z
" clip-path="url(#p103c321a6b)" style="fill: #ff0000"/>
   </g>
   <g id="patch_4">
    <path d="M 464.995548 251.648411 
L 441.213723 251.648411 
L 441.213723 231.899839 
L 464.995548 231.899839 
z
" clip-path="url(#p103c321a6b)" style="fill: #ff0000"/>
   </g>
   <g id="patch_5">
    <path d="M 464.995548 226.962696 
L 439.401444 226.962696 
L 439.401444 207.214125 
L 464.995548 207.214125 
z
" clip-path="url(#p103c321a6b)" style="fill: #ff0000"/>
   </g>
   <g id="patch_6">
    <path d="M 464.995548 202.276982 
L 492.57677 202.276982 
L 492.57677 182.528411 
L 464.995548 182.528411 
z
" clip-path="url(#p103c321a6b)" style="fill: #008000"/>
   </g>
   <g id="patch_7">
    <path d="M 464.995548 177.591268 
L 420.92483 177.591268 
L 420.92483 157.842696 
L 464.995548 157.842696 
z
" clip-path="url(#p103c321a6b)" style="fill: #ff0000"/>
   </g>
   <g id="patch_8">
    <path d="M 464.995548 152.905554 
L 517.282456 152.905554 
L 517.282456 133.156982 
L 464.995548 133.156982 
z
" clip-path="url(#p103c321a6b)" style="fill: #008000"/>
   </g>
   <g id="patch_9">
    <path d="M 464.995548 128.219839 
L 379.474504 128.219839 
L 379.474504 108.471268 
L 464.995548 108.471268 
z
" clip-path="url(#p103c321a6b)" style="fill: #ff0000"/>
   </g>
   <g id="patch_10">
    <path d="M 464.995548 103.534125 
L 557.02946 103.534125 
L 557.02946 83.785554 
L 464.995548 83.785554 
z
" clip-path="url(#p103c321a6b)" style="fill: #008000"/>
   </g>
   <g id="patch_11">
    <path d="M 464.995548 78.848411 
L 348.95645 78.848411 
L 348.95645 59.099839 
L 464.995548 59.099839 
z
" clip-path="url(#p103c321a6b)" style="fill: #ff0000"/>
   </g>
   <g id="patch_12">
    <path d="M 464.995548 54.162696 
L 232.374915 54.162696 
L 232.374915 34.414125 
L 464.995548 34.414125 
z
" clip-path="url(#p103c321a6b)" style="fill: #ff0000"/>
   </g>
   <g id="matplotlib.axis_1">
    <g id="xtick_1">
     <g id="line2d_1">
      <defs>
       <path id="m394ce83686" d="M 0 0 
L 0 3.5 
" style="stroke: #000000; stroke-width: 0.8"/>
      </defs>
      <g>
       <use xlink:href="#m394ce83686" x="239.252911" y="288.430125" style="stroke: #000000; stroke-width: 0.8"/>
      </g>
     </g>
     <g id="text_1">
      <!-- −0.15 -->
      <g transform="translate(223.930255 303.028562) scale(0.1 -0.1)">
       <defs>
        <path id="DejaVuSans-2212" d="M 678 2272 
L 4684 2272 
L 4684 1741 
L 678 1741 
L 678 2272 
z
" transform="scale(0.015625)"/>
        <path id="DejaVuSans-30" d="M 2034 4250 
Q 1547 4250 1301 3770 
Q 1056 3291 1056 2328 
Q 1056 1369 1301 889 
Q 1547 409 2034 409 
Q 2525 409 2770 889 
Q 3016 1369 3016 2328 
Q 3016 3291 2770 3770 
Q 2525 4250 2034 4250 
z
M 2034 4750 
Q 2819 4750 3233 4129 
Q 3647 3509 3647 2328 
Q 3647 1150 3233 529 
Q 2819 -91 2034 -91 
Q 1250 -91 836 529 
Q 422 1150 422 2328 
Q 422 3509 836 4129 
Q 1250 4750 2034 4750 
z
" transform="scale(0.015625)"/>
        <path id="DejaVuSans-2e" d="M 684 794 
L 1344 794 
L 1344 0 
L 684 0 
L 684 794 
z
" transform="scale(0.015625)"/>
        <path id="DejaVuSans-31" d="M 794 531 
L 1825 531 
L 1825 4091 
L 703 3866 
L 703 4441 
L 1819 4666 
L 2450 4666 
L 2450 531 
L 3481 531 
L 3481 0 
L 794 0 
L 794 531 
z
" transform="scale(0.015625)"/>
        <path id="DejaVuSans-35" d="M 691 4666 
L 3169 4666 
L 3169 4134 
L 1269 4134 
L 1269 2991 
Q 1406 3038 1543 3061 
Q 1681 3084 1819 3084 
Q 2600 3084 3056 2656 
Q 3513 2228 3513 1497 
Q 3513 744 3044 326 
Q 2575 -91 1722 -91 
Q 1428 -91 1123 -41 
Q 819 9 494 109 
L 494 744 
Q 775 591 1075 516 
Q 1375 441 1709 441 
Q 2250 441 2565 725 
Q 2881 1009 2881 1497 
Q 2881 1984 2565 2268 
Q 2250 2553 1709 2553 
Q 1456 2553 1204 2497 
Q 953 2441 691 2322 
L 691 4666 
z
" transform="scale(0.015625)"/>
       </defs>
       <use xlink:href="#DejaVuSans-2212"/>
       <use xlink:href="#DejaVuSans-30" x="83.789062"/>
       <use xlink:href="#DejaVuSans-2e" x="147.412109"/>
       <use xlink:href="#DejaVuSans-31" x="179.199219"/>
       <use xlink:href="#DejaVuSans-35" x="242.822266"/>
      </g>
     </g>
    </g>
    <g id="xtick_2">
     <g id="line2d_2">
      <g>
       <use xlink:href="#m394ce83686" x="314.500457" y="288.430125" style="stroke: #000000; stroke-width: 0.8"/>
      </g>
     </g>
     <g id="text_2">
      <!-- −0.10 -->
      <g transform="translate(299.1778 303.028562) scale(0.1 -0.1)">
       <use xlink:href="#DejaVuSans-2212"/>
       <use xlink:href="#DejaVuSans-30" x="83.789062"/>
       <use xlink:href="#DejaVuSans-2e" x="147.412109"/>
       <use xlink:href="#DejaVuSans-31" x="179.199219"/>
       <use xlink:href="#DejaVuSans-30" x="242.822266"/>
      </g>
     </g>
    </g>
    <g id="xtick_3">
     <g id="line2d_3">
      <g>
       <use xlink:href="#m394ce83686" x="389.748002" y="288.430125" style="stroke: #000000; stroke-width: 0.8"/>
      </g>
     </g>
     <g id="text_3">
      <!-- −0.05 -->
      <g transform="translate(374.425346 303.028562) scale(0.1 -0.1)">
       <use xlink:href="#DejaVuSans-2212"/>
       <use xlink:href="#DejaVuSans-30" x="83.789062"/>
       <use xlink:href="#DejaVuSans-2e" x="147.412109"/>
       <use xlink:href="#DejaVuSans-30" x="179.199219"/>
       <use xlink:href="#DejaVuSans-35" x="242.822266"/>
      </g>
     </g>
    </g>
    <g id="xtick_4">
     <g id="line2d_4">
      <g>
       <use xlink:href="#m394ce83686" x="464.995548" y="288.430125" style="stroke: #000000; stroke-width: 0.8"/>
      </g>
     </g>
     <g id="text_4">
      <!-- 0.00 -->
      <g transform="translate(453.862735 303.028562) scale(0.1 -0.1)">
       <use xlink:href="#DejaVuSans-30"/>
       <use xlink:href="#DejaVuSans-2e" x="63.623047"/>
       <use xlink:href="#DejaVuSans-30" x="95.410156"/>
       <use xlink:href="#DejaVuSans-30" x="159.033203"/>
      </g>
     </g>
    </g>
    <g id="xtick_5">
     <g id="line2d_5">
      <g>
       <use xlink:href="#m394ce83686" x="540.243093" y="288.430125" style="stroke: #000000; stroke-width: 0.8"/>
      </g>
     </g>
     <g id="text_5">
      <!-- 0.05 -->
      <g transform="translate(529.110281 303.028562) scale(0.1 -0.1)">
       <use xlink:href="#DejaVuSans-30"/>
       <use xlink:href="#DejaVuSans-2e" x="63.623047"/>
       <use xlink:href="#DejaVuSans-30" x="95.410156"/>
       <use xlink:href="#DejaVuSans-35" x="159.033203"/>
      </g>
     </g>
    </g>
   </g>
   <g id="matplotlib.axis_2">
    <g id="ytick_1">
     <g id="line2d_6">
      <defs>
       <path id="m544a22907b" d="M 0 0 
L -3.5 0 
" style="stroke: #000000; stroke-width: 0.8"/>
      </defs>
      <g>
       <use xlink:href="#m544a22907b" x="216.142188" y="266.459839" style="stroke: #000000; stroke-width: 0.8"/>
      </g>
     </g>
     <g id="text_6">
      <!-- Track_Barcelona &gt; 0.00 -->
      <g transform="translate(91.090625 270.259058) scale(0.1 -0.1)">
       <defs>
        <path id="DejaVuSans-54" d="M -19 4666 
L 3928 4666 
L 3928 4134 
L 2272 4134 
L 2272 0 
L 1638 0 
L 1638 4134 
L -19 4134 
L -19 4666 
z
" transform="scale(0.015625)"/>
        <path id="DejaVuSans-72" d="M 2631 2963 
Q 2534 3019 2420 3045 
Q 2306 3072 2169 3072 
Q 1681 3072 1420 2755 
Q 1159 2438 1159 1844 
L 1159 0 
L 581 0 
L 581 3500 
L 1159 3500 
L 1159 2956 
Q 1341 3275 1631 3429 
Q 1922 3584 2338 3584 
Q 2397 3584 2469 3576 
Q 2541 3569 2628 3553 
L 2631 2963 
z
" transform="scale(0.015625)"/>
        <path id="DejaVuSans-61" d="M 2194 1759 
Q 1497 1759 1228 1600 
Q 959 1441 959 1056 
Q 959 750 1161 570 
Q 1363 391 1709 391 
Q 2188 391 2477 730 
Q 2766 1069 2766 1631 
L 2766 1759 
L 2194 1759 
z
M 3341 1997 
L 3341 0 
L 2766 0 
L 2766 531 
Q 2569 213 2275 61 
Q 1981 -91 1556 -91 
Q 1019 -91 701 211 
Q 384 513 384 1019 
Q 384 1609 779 1909 
Q 1175 2209 1959 2209 
L 2766 2209 
L 2766 2266 
Q 2766 2663 2505 2880 
Q 2244 3097 1772 3097 
Q 1472 3097 1187 3025 
Q 903 2953 641 2809 
L 641 3341 
Q 956 3463 1253 3523 
Q 1550 3584 1831 3584 
Q 2591 3584 2966 3190 
Q 3341 2797 3341 1997 
z
" transform="scale(0.015625)"/>
        <path id="DejaVuSans-63" d="M 3122 3366 
L 3122 2828 
Q 2878 2963 2633 3030 
Q 2388 3097 2138 3097 
Q 1578 3097 1268 2742 
Q 959 2388 959 1747 
Q 959 1106 1268 751 
Q 1578 397 2138 397 
Q 2388 397 2633 464 
Q 2878 531 3122 666 
L 3122 134 
Q 2881 22 2623 -34 
Q 2366 -91 2075 -91 
Q 1284 -91 818 406 
Q 353 903 353 1747 
Q 353 2603 823 3093 
Q 1294 3584 2113 3584 
Q 2378 3584 2631 3529 
Q 2884 3475 3122 3366 
z
" transform="scale(0.015625)"/>
        <path id="DejaVuSans-6b" d="M 581 4863 
L 1159 4863 
L 1159 1991 
L 2875 3500 
L 3609 3500 
L 1753 1863 
L 3688 0 
L 2938 0 
L 1159 1709 
L 1159 0 
L 581 0 
L 581 4863 
z
" transform="scale(0.015625)"/>
        <path id="DejaVuSans-5f" d="M 3263 -1063 
L 3263 -1509 
L -63 -1509 
L -63 -1063 
L 3263 -1063 
z
" transform="scale(0.015625)"/>
        <path id="DejaVuSans-42" d="M 1259 2228 
L 1259 519 
L 2272 519 
Q 2781 519 3026 730 
Q 3272 941 3272 1375 
Q 3272 1813 3026 2020 
Q 2781 2228 2272 2228 
L 1259 2228 
z
M 1259 4147 
L 1259 2741 
L 2194 2741 
Q 2656 2741 2882 2914 
Q 3109 3088 3109 3444 
Q 3109 3797 2882 3972 
Q 2656 4147 2194 4147 
L 1259 4147 
z
M 628 4666 
L 2241 4666 
Q 2963 4666 3353 4366 
Q 3744 4066 3744 3513 
Q 3744 3084 3544 2831 
Q 3344 2578 2956 2516 
Q 3422 2416 3680 2098 
Q 3938 1781 3938 1306 
Q 3938 681 3513 340 
Q 3088 0 2303 0 
L 628 0 
L 628 4666 
z
" transform="scale(0.015625)"/>
        <path id="DejaVuSans-65" d="M 3597 1894 
L 3597 1613 
L 953 1613 
Q 991 1019 1311 708 
Q 1631 397 2203 397 
Q 2534 397 2845 478 
Q 3156 559 3463 722 
L 3463 178 
Q 3153 47 2828 -22 
Q 2503 -91 2169 -91 
Q 1331 -91 842 396 
Q 353 884 353 1716 
Q 353 2575 817 3079 
Q 1281 3584 2069 3584 
Q 2775 3584 3186 3129 
Q 3597 2675 3597 1894 
z
M 3022 2063 
Q 3016 2534 2758 2815 
Q 2500 3097 2075 3097 
Q 1594 3097 1305 2825 
Q 1016 2553 972 2059 
L 3022 2063 
z
" transform="scale(0.015625)"/>
        <path id="DejaVuSans-6c" d="M 603 4863 
L 1178 4863 
L 1178 0 
L 603 0 
L 603 4863 
z
" transform="scale(0.015625)"/>
        <path id="DejaVuSans-6f" d="M 1959 3097 
Q 1497 3097 1228 2736 
Q 959 2375 959 1747 
Q 959 1119 1226 758 
Q 1494 397 1959 397 
Q 2419 397 2687 759 
Q 2956 1122 2956 1747 
Q 2956 2369 2687 2733 
Q 2419 3097 1959 3097 
z
M 1959 3584 
Q 2709 3584 3137 3096 
Q 3566 2609 3566 1747 
Q 3566 888 3137 398 
Q 2709 -91 1959 -91 
Q 1206 -91 779 398 
Q 353 888 353 1747 
Q 353 2609 779 3096 
Q 1206 3584 1959 3584 
z
" transform="scale(0.015625)"/>
        <path id="DejaVuSans-6e" d="M 3513 2113 
L 3513 0 
L 2938 0 
L 2938 2094 
Q 2938 2591 2744 2837 
Q 2550 3084 2163 3084 
Q 1697 3084 1428 2787 
Q 1159 2491 1159 1978 
L 1159 0 
L 581 0 
L 581 3500 
L 1159 3500 
L 1159 2956 
Q 1366 3272 1645 3428 
Q 1925 3584 2291 3584 
Q 2894 3584 3203 3211 
Q 3513 2838 3513 2113 
z
" transform="scale(0.015625)"/>
        <path id="DejaVuSans-20" transform="scale(0.015625)"/>
        <path id="DejaVuSans-3e" d="M 678 3150 
L 678 3719 
L 4684 2266 
L 4684 1747 
L 678 294 
L 678 863 
L 3897 2003 
L 678 3150 
z
" transform="scale(0.015625)"/>
       </defs>
       <use xlink:href="#DejaVuSans-54"/>
       <use xlink:href="#DejaVuSans-72" x="46.333984"/>
       <use xlink:href="#DejaVuSans-61" x="87.447266"/>
       <use xlink:href="#DejaVuSans-63" x="148.726562"/>
       <use xlink:href="#DejaVuSans-6b" x="203.707031"/>
       <use xlink:href="#DejaVuSans-5f" x="261.617188"/>
       <use xlink:href="#DejaVuSans-42" x="311.617188"/>
       <use xlink:href="#DejaVuSans-61" x="380.220703"/>
       <use xlink:href="#DejaVuSans-72" x="441.5"/>
       <use xlink:href="#DejaVuSans-63" x="480.363281"/>
       <use xlink:href="#DejaVuSans-65" x="535.34375"/>
       <use xlink:href="#DejaVuSans-6c" x="596.867188"/>
       <use xlink:href="#DejaVuSans-6f" x="624.650391"/>
       <use xlink:href="#DejaVuSans-6e" x="685.832031"/>
       <use xlink:href="#DejaVuSans-61" x="749.210938"/>
       <use xlink:href="#DejaVuSans-20" x="810.490234"/>
       <use xlink:href="#DejaVuSans-3e" x="842.277344"/>
       <use xlink:href="#DejaVuSans-20" x="926.066406"/>
       <use xlink:href="#DejaVuSans-30" x="957.853516"/>
       <use xlink:href="#DejaVuSans-2e" x="1021.476562"/>
       <use xlink:href="#DejaVuSans-30" x="1053.263672"/>
       <use xlink:href="#DejaVuSans-30" x="1116.886719"/>
      </g>
     </g>
    </g>
    <g id="ytick_2">
     <g id="line2d_7">
      <g>
       <use xlink:href="#m544a22907b" x="216.142188" y="241.774125" style="stroke: #000000; stroke-width: 0.8"/>
      </g>
     </g>
     <g id="text_7">
      <!-- Compound_MEDIUM &lt;= 0.00 -->
      <g transform="translate(62.884375 245.573344) scale(0.1 -0.1)">
       <defs>
        <path id="DejaVuSans-43" d="M 4122 4306 
L 4122 3641 
Q 3803 3938 3442 4084 
Q 3081 4231 2675 4231 
Q 1875 4231 1450 3742 
Q 1025 3253 1025 2328 
Q 1025 1406 1450 917 
Q 1875 428 2675 428 
Q 3081 428 3442 575 
Q 3803 722 4122 1019 
L 4122 359 
Q 3791 134 3420 21 
Q 3050 -91 2638 -91 
Q 1578 -91 968 557 
Q 359 1206 359 2328 
Q 359 3453 968 4101 
Q 1578 4750 2638 4750 
Q 3056 4750 3426 4639 
Q 3797 4528 4122 4306 
z
" transform="scale(0.015625)"/>
        <path id="DejaVuSans-6d" d="M 3328 2828 
Q 3544 3216 3844 3400 
Q 4144 3584 4550 3584 
Q 5097 3584 5394 3201 
Q 5691 2819 5691 2113 
L 5691 0 
L 5113 0 
L 5113 2094 
Q 5113 2597 4934 2840 
Q 4756 3084 4391 3084 
Q 3944 3084 3684 2787 
Q 3425 2491 3425 1978 
L 3425 0 
L 2847 0 
L 2847 2094 
Q 2847 2600 2669 2842 
Q 2491 3084 2119 3084 
Q 1678 3084 1418 2786 
Q 1159 2488 1159 1978 
L 1159 0 
L 581 0 
L 581 3500 
L 1159 3500 
L 1159 2956 
Q 1356 3278 1631 3431 
Q 1906 3584 2284 3584 
Q 2666 3584 2933 3390 
Q 3200 3197 3328 2828 
z
" transform="scale(0.015625)"/>
        <path id="DejaVuSans-70" d="M 1159 525 
L 1159 -1331 
L 581 -1331 
L 581 3500 
L 1159 3500 
L 1159 2969 
Q 1341 3281 1617 3432 
Q 1894 3584 2278 3584 
Q 2916 3584 3314 3078 
Q 3713 2572 3713 1747 
Q 3713 922 3314 415 
Q 2916 -91 2278 -91 
Q 1894 -91 1617 61 
Q 1341 213 1159 525 
z
M 3116 1747 
Q 3116 2381 2855 2742 
Q 2594 3103 2138 3103 
Q 1681 3103 1420 2742 
Q 1159 2381 1159 1747 
Q 1159 1113 1420 752 
Q 1681 391 2138 391 
Q 2594 391 2855 752 
Q 3116 1113 3116 1747 
z
" transform="scale(0.015625)"/>
        <path id="DejaVuSans-75" d="M 544 1381 
L 544 3500 
L 1119 3500 
L 1119 1403 
Q 1119 906 1312 657 
Q 1506 409 1894 409 
Q 2359 409 2629 706 
Q 2900 1003 2900 1516 
L 2900 3500 
L 3475 3500 
L 3475 0 
L 2900 0 
L 2900 538 
Q 2691 219 2414 64 
Q 2138 -91 1772 -91 
Q 1169 -91 856 284 
Q 544 659 544 1381 
z
M 1991 3584 
L 1991 3584 
z
" transform="scale(0.015625)"/>
        <path id="DejaVuSans-64" d="M 2906 2969 
L 2906 4863 
L 3481 4863 
L 3481 0 
L 2906 0 
L 2906 525 
Q 2725 213 2448 61 
Q 2172 -91 1784 -91 
Q 1150 -91 751 415 
Q 353 922 353 1747 
Q 353 2572 751 3078 
Q 1150 3584 1784 3584 
Q 2172 3584 2448 3432 
Q 2725 3281 2906 2969 
z
M 947 1747 
Q 947 1113 1208 752 
Q 1469 391 1925 391 
Q 2381 391 2643 752 
Q 2906 1113 2906 1747 
Q 2906 2381 2643 2742 
Q 2381 3103 1925 3103 
Q 1469 3103 1208 2742 
Q 947 2381 947 1747 
z
" transform="scale(0.015625)"/>
        <path id="DejaVuSans-4d" d="M 628 4666 
L 1569 4666 
L 2759 1491 
L 3956 4666 
L 4897 4666 
L 4897 0 
L 4281 0 
L 4281 4097 
L 3078 897 
L 2444 897 
L 1241 4097 
L 1241 0 
L 628 0 
L 628 4666 
z
" transform="scale(0.015625)"/>
        <path id="DejaVuSans-45" d="M 628 4666 
L 3578 4666 
L 3578 4134 
L 1259 4134 
L 1259 2753 
L 3481 2753 
L 3481 2222 
L 1259 2222 
L 1259 531 
L 3634 531 
L 3634 0 
L 628 0 
L 628 4666 
z
" transform="scale(0.015625)"/>
        <path id="DejaVuSans-44" d="M 1259 4147 
L 1259 519 
L 2022 519 
Q 2988 519 3436 956 
Q 3884 1394 3884 2338 
Q 3884 3275 3436 3711 
Q 2988 4147 2022 4147 
L 1259 4147 
z
M 628 4666 
L 1925 4666 
Q 3281 4666 3915 4102 
Q 4550 3538 4550 2338 
Q 4550 1131 3912 565 
Q 3275 0 1925 0 
L 628 0 
L 628 4666 
z
" transform="scale(0.015625)"/>
        <path id="DejaVuSans-49" d="M 628 4666 
L 1259 4666 
L 1259 0 
L 628 0 
L 628 4666 
z
" transform="scale(0.015625)"/>
        <path id="DejaVuSans-55" d="M 556 4666 
L 1191 4666 
L 1191 1831 
Q 1191 1081 1462 751 
Q 1734 422 2344 422 
Q 2950 422 3222 751 
Q 3494 1081 3494 1831 
L 3494 4666 
L 4128 4666 
L 4128 1753 
Q 4128 841 3676 375 
Q 3225 -91 2344 -91 
Q 1459 -91 1007 375 
Q 556 841 556 1753 
L 556 4666 
z
" transform="scale(0.015625)"/>
        <path id="DejaVuSans-3c" d="M 4684 3150 
L 1459 2003 
L 4684 863 
L 4684 294 
L 678 1747 
L 678 2266 
L 4684 3719 
L 4684 3150 
z
" transform="scale(0.015625)"/>
        <path id="DejaVuSans-3d" d="M 678 2906 
L 4684 2906 
L 4684 2381 
L 678 2381 
L 678 2906 
z
M 678 1631 
L 4684 1631 
L 4684 1100 
L 678 1100 
L 678 1631 
z
" transform="scale(0.015625)"/>
       </defs>
       <use xlink:href="#DejaVuSans-43"/>
       <use xlink:href="#DejaVuSans-6f" x="69.824219"/>
       <use xlink:href="#DejaVuSans-6d" x="131.005859"/>
       <use xlink:href="#DejaVuSans-70" x="228.417969"/>
       <use xlink:href="#DejaVuSans-6f" x="291.894531"/>
       <use xlink:href="#DejaVuSans-75" x="353.076172"/>
       <use xlink:href="#DejaVuSans-6e" x="416.455078"/>
       <use xlink:href="#DejaVuSans-64" x="479.833984"/>
       <use xlink:href="#DejaVuSans-5f" x="543.310547"/>
       <use xlink:href="#DejaVuSans-4d" x="593.310547"/>
       <use xlink:href="#DejaVuSans-45" x="679.589844"/>
       <use xlink:href="#DejaVuSans-44" x="742.773438"/>
       <use xlink:href="#DejaVuSans-49" x="819.775391"/>
       <use xlink:href="#DejaVuSans-55" x="849.267578"/>
       <use xlink:href="#DejaVuSans-4d" x="922.460938"/>
       <use xlink:href="#DejaVuSans-20" x="1008.740234"/>
       <use xlink:href="#DejaVuSans-3c" x="1040.527344"/>
       <use xlink:href="#DejaVuSans-3d" x="1124.316406"/>
       <use xlink:href="#DejaVuSans-20" x="1208.105469"/>
       <use xlink:href="#DejaVuSans-30" x="1239.892578"/>
       <use xlink:href="#DejaVuSans-2e" x="1303.515625"/>
       <use xlink:href="#DejaVuSans-30" x="1335.302734"/>
       <use xlink:href="#DejaVuSans-30" x="1398.925781"/>
      </g>
     </g>
    </g>
    <g id="ytick_3">
     <g id="line2d_8">
      <g>
       <use xlink:href="#m544a22907b" x="216.142188" y="217.088411" style="stroke: #000000; stroke-width: 0.8"/>
      </g>
     </g>
     <g id="text_8">
      <!-- 1.01 &lt; IntervalToPositionAhead &lt;= 2.32 -->
      <g transform="translate(7.2 220.887629) scale(0.1 -0.1)">
       <defs>
        <path id="DejaVuSans-74" d="M 1172 4494 
L 1172 3500 
L 2356 3500 
L 2356 3053 
L 1172 3053 
L 1172 1153 
Q 1172 725 1289 603 
Q 1406 481 1766 481 
L 2356 481 
L 2356 0 
L 1766 0 
Q 1100 0 847 248 
Q 594 497 594 1153 
L 594 3053 
L 172 3053 
L 172 3500 
L 594 3500 
L 594 4494 
L 1172 4494 
z
" transform="scale(0.015625)"/>
        <path id="DejaVuSans-76" d="M 191 3500 
L 800 3500 
L 1894 563 
L 2988 3500 
L 3597 3500 
L 2284 0 
L 1503 0 
L 191 3500 
z
" transform="scale(0.015625)"/>
        <path id="DejaVuSans-50" d="M 1259 4147 
L 1259 2394 
L 2053 2394 
Q 2494 2394 2734 2622 
Q 2975 2850 2975 3272 
Q 2975 3691 2734 3919 
Q 2494 4147 2053 4147 
L 1259 4147 
z
M 628 4666 
L 2053 4666 
Q 2838 4666 3239 4311 
Q 3641 3956 3641 3272 
Q 3641 2581 3239 2228 
Q 2838 1875 2053 1875 
L 1259 1875 
L 1259 0 
L 628 0 
L 628 4666 
z
" transform="scale(0.015625)"/>
        <path id="DejaVuSans-73" d="M 2834 3397 
L 2834 2853 
Q 2591 2978 2328 3040 
Q 2066 3103 1784 3103 
Q 1356 3103 1142 2972 
Q 928 2841 928 2578 
Q 928 2378 1081 2264 
Q 1234 2150 1697 2047 
L 1894 2003 
Q 2506 1872 2764 1633 
Q 3022 1394 3022 966 
Q 3022 478 2636 193 
Q 2250 -91 1575 -91 
Q 1294 -91 989 -36 
Q 684 19 347 128 
L 347 722 
Q 666 556 975 473 
Q 1284 391 1588 391 
Q 1994 391 2212 530 
Q 2431 669 2431 922 
Q 2431 1156 2273 1281 
Q 2116 1406 1581 1522 
L 1381 1569 
Q 847 1681 609 1914 
Q 372 2147 372 2553 
Q 372 3047 722 3315 
Q 1072 3584 1716 3584 
Q 2034 3584 2315 3537 
Q 2597 3491 2834 3397 
z
" transform="scale(0.015625)"/>
        <path id="DejaVuSans-69" d="M 603 3500 
L 1178 3500 
L 1178 0 
L 603 0 
L 603 3500 
z
M 603 4863 
L 1178 4863 
L 1178 4134 
L 603 4134 
L 603 4863 
z
" transform="scale(0.015625)"/>
        <path id="DejaVuSans-41" d="M 2188 4044 
L 1331 1722 
L 3047 1722 
L 2188 4044 
z
M 1831 4666 
L 2547 4666 
L 4325 0 
L 3669 0 
L 3244 1197 
L 1141 1197 
L 716 0 
L 50 0 
L 1831 4666 
z
" transform="scale(0.015625)"/>
        <path id="DejaVuSans-68" d="M 3513 2113 
L 3513 0 
L 2938 0 
L 2938 2094 
Q 2938 2591 2744 2837 
Q 2550 3084 2163 3084 
Q 1697 3084 1428 2787 
Q 1159 2491 1159 1978 
L 1159 0 
L 581 0 
L 581 4863 
L 1159 4863 
L 1159 2956 
Q 1366 3272 1645 3428 
Q 1925 3584 2291 3584 
Q 2894 3584 3203 3211 
Q 3513 2838 3513 2113 
z
" transform="scale(0.015625)"/>
        <path id="DejaVuSans-32" d="M 1228 531 
L 3431 531 
L 3431 0 
L 469 0 
L 469 531 
Q 828 903 1448 1529 
Q 2069 2156 2228 2338 
Q 2531 2678 2651 2914 
Q 2772 3150 2772 3378 
Q 2772 3750 2511 3984 
Q 2250 4219 1831 4219 
Q 1534 4219 1204 4116 
Q 875 4013 500 3803 
L 500 4441 
Q 881 4594 1212 4672 
Q 1544 4750 1819 4750 
Q 2544 4750 2975 4387 
Q 3406 4025 3406 3419 
Q 3406 3131 3298 2873 
Q 3191 2616 2906 2266 
Q 2828 2175 2409 1742 
Q 1991 1309 1228 531 
z
" transform="scale(0.015625)"/>
        <path id="DejaVuSans-33" d="M 2597 2516 
Q 3050 2419 3304 2112 
Q 3559 1806 3559 1356 
Q 3559 666 3084 287 
Q 2609 -91 1734 -91 
Q 1441 -91 1130 -33 
Q 819 25 488 141 
L 488 750 
Q 750 597 1062 519 
Q 1375 441 1716 441 
Q 2309 441 2620 675 
Q 2931 909 2931 1356 
Q 2931 1769 2642 2001 
Q 2353 2234 1838 2234 
L 1294 2234 
L 1294 2753 
L 1863 2753 
Q 2328 2753 2575 2939 
Q 2822 3125 2822 3475 
Q 2822 3834 2567 4026 
Q 2313 4219 1838 4219 
Q 1578 4219 1281 4162 
Q 984 4106 628 3988 
L 628 4550 
Q 988 4650 1302 4700 
Q 1616 4750 1894 4750 
Q 2613 4750 3031 4423 
Q 3450 4097 3450 3541 
Q 3450 3153 3228 2886 
Q 3006 2619 2597 2516 
z
" transform="scale(0.015625)"/>
       </defs>
       <use xlink:href="#DejaVuSans-31"/>
       <use xlink:href="#DejaVuSans-2e" x="63.623047"/>
       <use xlink:href="#DejaVuSans-30" x="95.410156"/>
       <use xlink:href="#DejaVuSans-31" x="159.033203"/>
       <use xlink:href="#DejaVuSans-20" x="222.65625"/>
       <use xlink:href="#DejaVuSans-3c" x="254.443359"/>
       <use xlink:href="#DejaVuSans-20" x="338.232422"/>
       <use xlink:href="#DejaVuSans-49" x="370.019531"/>
       <use xlink:href="#DejaVuSans-6e" x="399.511719"/>
       <use xlink:href="#DejaVuSans-74" x="462.890625"/>
       <use xlink:href="#DejaVuSans-65" x="502.099609"/>
       <use xlink:href="#DejaVuSans-72" x="563.623047"/>
       <use xlink:href="#DejaVuSans-76" x="604.736328"/>
       <use xlink:href="#DejaVuSans-61" x="663.916016"/>
       <use xlink:href="#DejaVuSans-6c" x="725.195312"/>
       <use xlink:href="#DejaVuSans-54" x="752.978516"/>
       <use xlink:href="#DejaVuSans-6f" x="797.0625"/>
       <use xlink:href="#DejaVuSans-50" x="858.244141"/>
       <use xlink:href="#DejaVuSans-6f" x="914.921875"/>
       <use xlink:href="#DejaVuSans-73" x="976.103516"/>
       <use xlink:href="#DejaVuSans-69" x="1028.203125"/>
       <use xlink:href="#DejaVuSans-74" x="1055.986328"/>
       <use xlink:href="#DejaVuSans-69" x="1095.195312"/>
       <use xlink:href="#DejaVuSans-6f" x="1122.978516"/>
       <use xlink:href="#DejaVuSans-6e" x="1184.160156"/>
       <use xlink:href="#DejaVuSans-41" x="1247.539062"/>
       <use xlink:href="#DejaVuSans-68" x="1315.947266"/>
       <use xlink:href="#DejaVuSans-65" x="1379.326172"/>
       <use xlink:href="#DejaVuSans-61" x="1440.849609"/>
       <use xlink:href="#DejaVuSans-64" x="1502.128906"/>
       <use xlink:href="#DejaVuSans-20" x="1565.605469"/>
       <use xlink:href="#DejaVuSans-3c" x="1597.392578"/>
       <use xlink:href="#DejaVuSans-3d" x="1681.181641"/>
       <use xlink:href="#DejaVuSans-20" x="1764.970703"/>
       <use xlink:href="#DejaVuSans-32" x="1796.757812"/>
       <use xlink:href="#DejaVuSans-2e" x="1860.380859"/>
       <use xlink:href="#DejaVuSans-33" x="1892.167969"/>
       <use xlink:href="#DejaVuSans-32" x="1955.791016"/>
      </g>
     </g>
    </g>
    <g id="ytick_4">
     <g id="line2d_9">
      <g>
       <use xlink:href="#m544a22907b" x="216.142188" y="192.402696" style="stroke: #000000; stroke-width: 0.8"/>
      </g>
     </g>
     <g id="text_9">
      <!-- Track_Le_Castellet &lt;= 0.00 -->
      <g transform="translate(72.026563 196.201915) scale(0.1 -0.1)">
       <defs>
        <path id="DejaVuSans-4c" d="M 628 4666 
L 1259 4666 
L 1259 531 
L 3531 531 
L 3531 0 
L 628 0 
L 628 4666 
z
" transform="scale(0.015625)"/>
       </defs>
       <use xlink:href="#DejaVuSans-54"/>
       <use xlink:href="#DejaVuSans-72" x="46.333984"/>
       <use xlink:href="#DejaVuSans-61" x="87.447266"/>
       <use xlink:href="#DejaVuSans-63" x="148.726562"/>
       <use xlink:href="#DejaVuSans-6b" x="203.707031"/>
       <use xlink:href="#DejaVuSans-5f" x="261.617188"/>
       <use xlink:href="#DejaVuSans-4c" x="311.617188"/>
       <use xlink:href="#DejaVuSans-65" x="365.580078"/>
       <use xlink:href="#DejaVuSans-5f" x="427.103516"/>
       <use xlink:href="#DejaVuSans-43" x="477.103516"/>
       <use xlink:href="#DejaVuSans-61" x="546.927734"/>
       <use xlink:href="#DejaVuSans-73" x="608.207031"/>
       <use xlink:href="#DejaVuSans-74" x="660.306641"/>
       <use xlink:href="#DejaVuSans-65" x="699.515625"/>
       <use xlink:href="#DejaVuSans-6c" x="761.039062"/>
       <use xlink:href="#DejaVuSans-6c" x="788.822266"/>
       <use xlink:href="#DejaVuSans-65" x="816.605469"/>
       <use xlink:href="#DejaVuSans-74" x="878.128906"/>
       <use xlink:href="#DejaVuSans-20" x="917.337891"/>
       <use xlink:href="#DejaVuSans-3c" x="949.125"/>
       <use xlink:href="#DejaVuSans-3d" x="1032.914062"/>
       <use xlink:href="#DejaVuSans-20" x="1116.703125"/>
       <use xlink:href="#DejaVuSans-30" x="1148.490234"/>
       <use xlink:href="#DejaVuSans-2e" x="1212.113281"/>
       <use xlink:href="#DejaVuSans-30" x="1243.900391"/>
       <use xlink:href="#DejaVuSans-30" x="1307.523438"/>
      </g>
     </g>
    </g>
    <g id="ytick_5">
     <g id="line2d_10">
      <g>
       <use xlink:href="#m544a22907b" x="216.142188" y="167.716982" style="stroke: #000000; stroke-width: 0.8"/>
      </g>
     </g>
     <g id="text_10">
      <!-- SC &lt;= 0.00 -->
      <g transform="translate(150.429688 171.516201) scale(0.1 -0.1)">
       <defs>
        <path id="DejaVuSans-53" d="M 3425 4513 
L 3425 3897 
Q 3066 4069 2747 4153 
Q 2428 4238 2131 4238 
Q 1616 4238 1336 4038 
Q 1056 3838 1056 3469 
Q 1056 3159 1242 3001 
Q 1428 2844 1947 2747 
L 2328 2669 
Q 3034 2534 3370 2195 
Q 3706 1856 3706 1288 
Q 3706 609 3251 259 
Q 2797 -91 1919 -91 
Q 1588 -91 1214 -16 
Q 841 59 441 206 
L 441 856 
Q 825 641 1194 531 
Q 1563 422 1919 422 
Q 2459 422 2753 634 
Q 3047 847 3047 1241 
Q 3047 1584 2836 1778 
Q 2625 1972 2144 2069 
L 1759 2144 
Q 1053 2284 737 2584 
Q 422 2884 422 3419 
Q 422 4038 858 4394 
Q 1294 4750 2059 4750 
Q 2388 4750 2728 4690 
Q 3069 4631 3425 4513 
z
" transform="scale(0.015625)"/>
       </defs>
       <use xlink:href="#DejaVuSans-53"/>
       <use xlink:href="#DejaVuSans-43" x="63.476562"/>
       <use xlink:href="#DejaVuSans-20" x="133.300781"/>
       <use xlink:href="#DejaVuSans-3c" x="165.087891"/>
       <use xlink:href="#DejaVuSans-3d" x="248.876953"/>
       <use xlink:href="#DejaVuSans-20" x="332.666016"/>
       <use xlink:href="#DejaVuSans-30" x="364.453125"/>
       <use xlink:href="#DejaVuSans-2e" x="428.076172"/>
       <use xlink:href="#DejaVuSans-30" x="459.863281"/>
       <use xlink:href="#DejaVuSans-30" x="523.486328"/>
      </g>
     </g>
    </g>
    <g id="ytick_6">
     <g id="line2d_11">
      <g>
       <use xlink:href="#m544a22907b" x="216.142188" y="143.031268" style="stroke: #000000; stroke-width: 0.8"/>
      </g>
     </g>
     <g id="text_11">
      <!-- Track_Monte_Carlo &lt;= 0.00 -->
      <g transform="translate(70.323438 146.830487) scale(0.1 -0.1)">
       <use xlink:href="#DejaVuSans-54"/>
       <use xlink:href="#DejaVuSans-72" x="46.333984"/>
       <use xlink:href="#DejaVuSans-61" x="87.447266"/>
       <use xlink:href="#DejaVuSans-63" x="148.726562"/>
       <use xlink:href="#DejaVuSans-6b" x="203.707031"/>
       <use xlink:href="#DejaVuSans-5f" x="261.617188"/>
       <use xlink:href="#DejaVuSans-4d" x="311.617188"/>
       <use xlink:href="#DejaVuSans-6f" x="397.896484"/>
       <use xlink:href="#DejaVuSans-6e" x="459.078125"/>
       <use xlink:href="#DejaVuSans-74" x="522.457031"/>
       <use xlink:href="#DejaVuSans-65" x="561.666016"/>
       <use xlink:href="#DejaVuSans-5f" x="623.189453"/>
       <use xlink:href="#DejaVuSans-43" x="673.189453"/>
       <use xlink:href="#DejaVuSans-61" x="743.013672"/>
       <use xlink:href="#DejaVuSans-72" x="804.292969"/>
       <use xlink:href="#DejaVuSans-6c" x="845.40625"/>
       <use xlink:href="#DejaVuSans-6f" x="873.189453"/>
       <use xlink:href="#DejaVuSans-20" x="934.371094"/>
       <use xlink:href="#DejaVuSans-3c" x="966.158203"/>
       <use xlink:href="#DejaVuSans-3d" x="1049.947266"/>
       <use xlink:href="#DejaVuSans-20" x="1133.736328"/>
       <use xlink:href="#DejaVuSans-30" x="1165.523438"/>
       <use xlink:href="#DejaVuSans-2e" x="1229.146484"/>
       <use xlink:href="#DejaVuSans-30" x="1260.933594"/>
       <use xlink:href="#DejaVuSans-30" x="1324.556641"/>
      </g>
     </g>
    </g>
    <g id="ytick_7">
     <g id="line2d_12">
      <g>
       <use xlink:href="#m544a22907b" x="216.142188" y="118.345554" style="stroke: #000000; stroke-width: 0.8"/>
      </g>
     </g>
     <g id="text_12">
      <!-- 1.00 &lt; Stint &lt;= 2.00 -->
      <g transform="translate(103.454688 122.144772) scale(0.1 -0.1)">
       <use xlink:href="#DejaVuSans-31"/>
       <use xlink:href="#DejaVuSans-2e" x="63.623047"/>
       <use xlink:href="#DejaVuSans-30" x="95.410156"/>
       <use xlink:href="#DejaVuSans-30" x="159.033203"/>
       <use xlink:href="#DejaVuSans-20" x="222.65625"/>
       <use xlink:href="#DejaVuSans-3c" x="254.443359"/>
       <use xlink:href="#DejaVuSans-20" x="338.232422"/>
       <use xlink:href="#DejaVuSans-53" x="370.019531"/>
       <use xlink:href="#DejaVuSans-74" x="433.496094"/>
       <use xlink:href="#DejaVuSans-69" x="472.705078"/>
       <use xlink:href="#DejaVuSans-6e" x="500.488281"/>
       <use xlink:href="#DejaVuSans-74" x="563.867188"/>
       <use xlink:href="#DejaVuSans-20" x="603.076172"/>
       <use xlink:href="#DejaVuSans-3c" x="634.863281"/>
       <use xlink:href="#DejaVuSans-3d" x="718.652344"/>
       <use xlink:href="#DejaVuSans-20" x="802.441406"/>
       <use xlink:href="#DejaVuSans-32" x="834.228516"/>
       <use xlink:href="#DejaVuSans-2e" x="897.851562"/>
       <use xlink:href="#DejaVuSans-30" x="929.638672"/>
       <use xlink:href="#DejaVuSans-30" x="993.261719"/>
      </g>
     </g>
    </g>
    <g id="ytick_8">
     <g id="line2d_13">
      <g>
       <use xlink:href="#m544a22907b" x="216.142188" y="93.659839" style="stroke: #000000; stroke-width: 0.8"/>
      </g>
     </g>
     <g id="text_13">
      <!-- Compound_HARD &lt;= 0.00 -->
      <g transform="translate(75.41875 97.459058) scale(0.1 -0.1)">
       <defs>
        <path id="DejaVuSans-48" d="M 628 4666 
L 1259 4666 
L 1259 2753 
L 3553 2753 
L 3553 4666 
L 4184 4666 
L 4184 0 
L 3553 0 
L 3553 2222 
L 1259 2222 
L 1259 0 
L 628 0 
L 628 4666 
z
" transform="scale(0.015625)"/>
        <path id="DejaVuSans-52" d="M 2841 2188 
Q 3044 2119 3236 1894 
Q 3428 1669 3622 1275 
L 4263 0 
L 3584 0 
L 2988 1197 
Q 2756 1666 2539 1819 
Q 2322 1972 1947 1972 
L 1259 1972 
L 1259 0 
L 628 0 
L 628 4666 
L 2053 4666 
Q 2853 4666 3247 4331 
Q 3641 3997 3641 3322 
Q 3641 2881 3436 2590 
Q 3231 2300 2841 2188 
z
M 1259 4147 
L 1259 2491 
L 2053 2491 
Q 2509 2491 2742 2702 
Q 2975 2913 2975 3322 
Q 2975 3731 2742 3939 
Q 2509 4147 2053 4147 
L 1259 4147 
z
" transform="scale(0.015625)"/>
       </defs>
       <use xlink:href="#DejaVuSans-43"/>
       <use xlink:href="#DejaVuSans-6f" x="69.824219"/>
       <use xlink:href="#DejaVuSans-6d" x="131.005859"/>
       <use xlink:href="#DejaVuSans-70" x="228.417969"/>
       <use xlink:href="#DejaVuSans-6f" x="291.894531"/>
       <use xlink:href="#DejaVuSans-75" x="353.076172"/>
       <use xlink:href="#DejaVuSans-6e" x="416.455078"/>
       <use xlink:href="#DejaVuSans-64" x="479.833984"/>
       <use xlink:href="#DejaVuSans-5f" x="543.310547"/>
       <use xlink:href="#DejaVuSans-48" x="593.310547"/>
       <use xlink:href="#DejaVuSans-41" x="668.505859"/>
       <use xlink:href="#DejaVuSans-52" x="736.914062"/>
       <use xlink:href="#DejaVuSans-44" x="806.396484"/>
       <use xlink:href="#DejaVuSans-20" x="883.398438"/>
       <use xlink:href="#DejaVuSans-3c" x="915.185547"/>
       <use xlink:href="#DejaVuSans-3d" x="998.974609"/>
       <use xlink:href="#DejaVuSans-20" x="1082.763672"/>
       <use xlink:href="#DejaVuSans-30" x="1114.550781"/>
       <use xlink:href="#DejaVuSans-2e" x="1178.173828"/>
       <use xlink:href="#DejaVuSans-30" x="1209.960938"/>
       <use xlink:href="#DejaVuSans-30" x="1273.583984"/>
      </g>
     </g>
    </g>
    <g id="ytick_9">
     <g id="line2d_14">
      <g>
       <use xlink:href="#m544a22907b" x="216.142188" y="68.974125" style="stroke: #000000; stroke-width: 0.8"/>
      </g>
     </g>
     <g id="text_14">
      <!-- Yellow &lt;= 0.00 -->
      <g transform="translate(132.971875 72.773344) scale(0.1 -0.1)">
       <defs>
        <path id="DejaVuSans-59" d="M -13 4666 
L 666 4666 
L 1959 2747 
L 3244 4666 
L 3922 4666 
L 2272 2222 
L 2272 0 
L 1638 0 
L 1638 2222 
L -13 4666 
z
" transform="scale(0.015625)"/>
        <path id="DejaVuSans-77" d="M 269 3500 
L 844 3500 
L 1563 769 
L 2278 3500 
L 2956 3500 
L 3675 769 
L 4391 3500 
L 4966 3500 
L 4050 0 
L 3372 0 
L 2619 2869 
L 1863 0 
L 1184 0 
L 269 3500 
z
" transform="scale(0.015625)"/>
       </defs>
       <use xlink:href="#DejaVuSans-59"/>
       <use xlink:href="#DejaVuSans-65" x="47.833984"/>
       <use xlink:href="#DejaVuSans-6c" x="109.357422"/>
       <use xlink:href="#DejaVuSans-6c" x="137.140625"/>
       <use xlink:href="#DejaVuSans-6f" x="164.923828"/>
       <use xlink:href="#DejaVuSans-77" x="226.105469"/>
       <use xlink:href="#DejaVuSans-20" x="307.892578"/>
       <use xlink:href="#DejaVuSans-3c" x="339.679688"/>
       <use xlink:href="#DejaVuSans-3d" x="423.46875"/>
       <use xlink:href="#DejaVuSans-20" x="507.257812"/>
       <use xlink:href="#DejaVuSans-30" x="539.044922"/>
       <use xlink:href="#DejaVuSans-2e" x="602.667969"/>
       <use xlink:href="#DejaVuSans-30" x="634.455078"/>
       <use xlink:href="#DejaVuSans-30" x="698.078125"/>
      </g>
     </g>
    </g>
    <g id="ytick_10">
     <g id="line2d_15">
      <g>
       <use xlink:href="#m544a22907b" x="216.142188" y="44.288411" style="stroke: #000000; stroke-width: 0.8"/>
      </g>
     </g>
     <g id="text_15">
      <!-- TyreLife &lt;= 8.00 -->
      <g transform="translate(125.234375 48.087629) scale(0.1 -0.1)">
       <defs>
        <path id="DejaVuSans-79" d="M 2059 -325 
Q 1816 -950 1584 -1140 
Q 1353 -1331 966 -1331 
L 506 -1331 
L 506 -850 
L 844 -850 
Q 1081 -850 1212 -737 
Q 1344 -625 1503 -206 
L 1606 56 
L 191 3500 
L 800 3500 
L 1894 763 
L 2988 3500 
L 3597 3500 
L 2059 -325 
z
" transform="scale(0.015625)"/>
        <path id="DejaVuSans-66" d="M 2375 4863 
L 2375 4384 
L 1825 4384 
Q 1516 4384 1395 4259 
Q 1275 4134 1275 3809 
L 1275 3500 
L 2222 3500 
L 2222 3053 
L 1275 3053 
L 1275 0 
L 697 0 
L 697 3053 
L 147 3053 
L 147 3500 
L 697 3500 
L 697 3744 
Q 697 4328 969 4595 
Q 1241 4863 1831 4863 
L 2375 4863 
z
" transform="scale(0.015625)"/>
        <path id="DejaVuSans-38" d="M 2034 2216 
Q 1584 2216 1326 1975 
Q 1069 1734 1069 1313 
Q 1069 891 1326 650 
Q 1584 409 2034 409 
Q 2484 409 2743 651 
Q 3003 894 3003 1313 
Q 3003 1734 2745 1975 
Q 2488 2216 2034 2216 
z
M 1403 2484 
Q 997 2584 770 2862 
Q 544 3141 544 3541 
Q 544 4100 942 4425 
Q 1341 4750 2034 4750 
Q 2731 4750 3128 4425 
Q 3525 4100 3525 3541 
Q 3525 3141 3298 2862 
Q 3072 2584 2669 2484 
Q 3125 2378 3379 2068 
Q 3634 1759 3634 1313 
Q 3634 634 3220 271 
Q 2806 -91 2034 -91 
Q 1263 -91 848 271 
Q 434 634 434 1313 
Q 434 1759 690 2068 
Q 947 2378 1403 2484 
z
M 1172 3481 
Q 1172 3119 1398 2916 
Q 1625 2713 2034 2713 
Q 2441 2713 2670 2916 
Q 2900 3119 2900 3481 
Q 2900 3844 2670 4047 
Q 2441 4250 2034 4250 
Q 1625 4250 1398 4047 
Q 1172 3844 1172 3481 
z
" transform="scale(0.015625)"/>
       </defs>
       <use xlink:href="#DejaVuSans-54"/>
       <use xlink:href="#DejaVuSans-79" x="45.458984"/>
       <use xlink:href="#DejaVuSans-72" x="104.638672"/>
       <use xlink:href="#DejaVuSans-65" x="143.501953"/>
       <use xlink:href="#DejaVuSans-4c" x="205.025391"/>
       <use xlink:href="#DejaVuSans-69" x="260.738281"/>
       <use xlink:href="#DejaVuSans-66" x="288.521484"/>
       <use xlink:href="#DejaVuSans-65" x="323.726562"/>
       <use xlink:href="#DejaVuSans-20" x="385.25"/>
       <use xlink:href="#DejaVuSans-3c" x="417.037109"/>
       <use xlink:href="#DejaVuSans-3d" x="500.826172"/>
       <use xlink:href="#DejaVuSans-20" x="584.615234"/>
       <use xlink:href="#DejaVuSans-38" x="616.402344"/>
       <use xlink:href="#DejaVuSans-2e" x="680.025391"/>
       <use xlink:href="#DejaVuSans-30" x="711.8125"/>
       <use xlink:href="#DejaVuSans-30" x="775.435547"/>
      </g>
     </g>
    </g>
   </g>
   <g id="patch_13">
    <path d="M 216.142188 288.430125 
L 216.142188 22.318125 
" style="fill: none; stroke: #000000; stroke-width: 0.8; stroke-linejoin: miter; stroke-linecap: square"/>
   </g>
   <g id="patch_14">
    <path d="M 573.262187 288.430125 
L 573.262187 22.318125 
" style="fill: none; stroke: #000000; stroke-width: 0.8; stroke-linejoin: miter; stroke-linecap: square"/>
   </g>
   <g id="patch_15">
    <path d="M 216.142187 288.430125 
L 573.262187 288.430125 
" style="fill: none; stroke: #000000; stroke-width: 0.8; stroke-linejoin: miter; stroke-linecap: square"/>
   </g>
   <g id="patch_16">
    <path d="M 216.142187 22.318125 
L 573.262187 22.318125 
" style="fill: none; stroke: #000000; stroke-width: 0.8; stroke-linejoin: miter; stroke-linecap: square"/>
   </g>
   <g id="text_16">
    <!-- Local explanation for class Pit -->
    <g transform="translate(305.613438 16.318125) scale(0.12 -0.12)">
     <defs>
      <path id="DejaVuSans-78" d="M 3513 3500 
L 2247 1797 
L 3578 0 
L 2900 0 
L 1881 1375 
L 863 0 
L 184 0 
L 1544 1831 
L 300 3500 
L 978 3500 
L 1906 2253 
L 2834 3500 
L 3513 3500 
z
" transform="scale(0.015625)"/>
     </defs>
     <use xlink:href="#DejaVuSans-4c"/>
     <use xlink:href="#DejaVuSans-6f" x="53.962891"/>
     <use xlink:href="#DejaVuSans-63" x="115.144531"/>
     <use xlink:href="#DejaVuSans-61" x="170.125"/>
     <use xlink:href="#DejaVuSans-6c" x="231.404297"/>
     <use xlink:href="#DejaVuSans-20" x="259.1875"/>
     <use xlink:href="#DejaVuSans-65" x="290.974609"/>
     <use xlink:href="#DejaVuSans-78" x="350.748047"/>
     <use xlink:href="#DejaVuSans-70" x="409.927734"/>
     <use xlink:href="#DejaVuSans-6c" x="473.404297"/>
     <use xlink:href="#DejaVuSans-61" x="501.1875"/>
     <use xlink:href="#DejaVuSans-6e" x="562.466797"/>
     <use xlink:href="#DejaVuSans-61" x="625.845703"/>
     <use xlink:href="#DejaVuSans-74" x="687.125"/>
     <use xlink:href="#DejaVuSans-69" x="726.333984"/>
     <use xlink:href="#DejaVuSans-6f" x="754.117188"/>
     <use xlink:href="#DejaVuSans-6e" x="815.298828"/>
     <use xlink:href="#DejaVuSans-20" x="878.677734"/>
     <use xlink:href="#DejaVuSans-66" x="910.464844"/>
     <use xlink:href="#DejaVuSans-6f" x="945.669922"/>
     <use xlink:href="#DejaVuSans-72" x="1006.851562"/>
     <use xlink:href="#DejaVuSans-20" x="1047.964844"/>
     <use xlink:href="#DejaVuSans-63" x="1079.751953"/>
     <use xlink:href="#DejaVuSans-6c" x="1134.732422"/>
     <use xlink:href="#DejaVuSans-61" x="1162.515625"/>
     <use xlink:href="#DejaVuSans-73" x="1223.794922"/>
     <use xlink:href="#DejaVuSans-73" x="1275.894531"/>
     <use xlink:href="#DejaVuSans-20" x="1327.994141"/>
     <use xlink:href="#DejaVuSans-50" x="1359.78125"/>
     <use xlink:href="#DejaVuSans-69" x="1417.833984"/>
     <use xlink:href="#DejaVuSans-74" x="1445.617188"/>
    </g>
   </g>
  </g>
 </g>
 <defs>
  <clipPath id="p103c321a6b">
   <rect x="216.142188" y="22.318125" width="357.12" height="266.112"/>
  </clipPath>
 </defs>
</svg>
