<?xml version="1.0" encoding="utf-8" standalone="no"?>
<!DOCTYPE svg PUBLIC "-//W3C//DTD SVG 1.1//EN"
  "http://www.w3.org/Graphics/SVG/1.1/DTD/svg11.dtd">
<svg xmlns:xlink="http://www.w3.org/1999/xlink" width="460.8pt" height="345.6pt" viewBox="0 0 460.8 345.6" xmlns="http://www.w3.org/2000/svg" version="1.1">
 <metadata>
  <rdf:RDF xmlns:dc="http://purl.org/dc/elements/1.1/" xmlns:cc="http://creativecommons.org/ns#" xmlns:rdf="http://www.w3.org/1999/02/22-rdf-syntax-ns#">
   <cc:Work>
    <dc:type rdf:resource="http://purl.org/dc/dcmitype/StillImage"/>
    <dc:date>2023-06-28T15:14:34.574835</dc:date>
    <dc:format>image/svg+xml</dc:format>
    <dc:creator>
     <cc:Agent>
      <dc:title>Matplotlib v3.6.2, https://matplotlib.org/</dc:title>
     </cc:Agent>
    </dc:creator>
   </cc:Work>
  </rdf:RDF>
 </metadata>
 <defs>
  <style type="text/css">*{stroke-linejoin: round; stroke-linecap: butt}</style>
 </defs>
 <g id="figure_1">
  <g id="patch_1">
   <path d="M 0 345.6 
L 460.8 345.6 
L 460.8 0 
L 0 0 
z
" style="fill: #ffffff"/>
  </g>
  <g id="axes_1">
   <g id="patch_2">
    <path d="M 57.6 307.584 
L 414.72 307.584 
L 414.72 41.472 
L 57.6 41.472 
z
" style="fill: #ffffff"/>
   </g>
   <g id="matplotlib.axis_1">
    <g id="xtick_1">
     <g id="line2d_1">
      <defs>
       <path id="mcf9f28bc48" d="M 0 0 
L 0 3.5 
" style="stroke: #000000; stroke-width: 0.8"/>
      </defs>
      <g>
       <use xlink:href="#mcf9f28bc48" x="73.832727" y="307.584" style="stroke: #000000; stroke-width: 0.8"/>
      </g>
     </g>
     <g id="text_1">
      <!-- 0 -->
      <g transform="translate(70.651477 322.182437) scale(0.1 -0.1)">
       <defs>
        <path id="DejaVuSans-30" d="M 2034 4250 
Q 1547 4250 1301 3770 
Q 1056 3291 1056 2328 
Q 1056 1369 1301 889 
Q 1547 409 2034 409 
Q 2525 409 2770 889 
Q 3016 1369 3016 2328 
Q 3016 3291 2770 3770 
Q 2525 4250 2034 4250 
z
M 2034 4750 
Q 2819 4750 3233 4129 
Q 3647 3509 3647 2328 
Q 3647 1150 3233 529 
Q 2819 -91 2034 -91 
Q 1250 -91 836 529 
Q 422 1150 422 2328 
Q 422 3509 836 4129 
Q 1250 4750 2034 4750 
z
" transform="scale(0.015625)"/>
       </defs>
       <use xlink:href="#DejaVuSans-30"/>
      </g>
     </g>
    </g>
    <g id="xtick_2">
     <g id="line2d_2">
      <g>
       <use xlink:href="#mcf9f28bc48" x="114.516254" y="307.584" style="stroke: #000000; stroke-width: 0.8"/>
      </g>
     </g>
     <g id="text_2">
      <!-- 50 -->
      <g transform="translate(108.153754 322.182437) scale(0.1 -0.1)">
       <defs>
        <path id="DejaVuSans-35" d="M 691 4666 
L 3169 4666 
L 3169 4134 
L 1269 4134 
L 1269 2991 
Q 1406 3038 1543 3061 
Q 1681 3084 1819 3084 
Q 2600 3084 3056 2656 
Q 3513 2228 3513 1497 
Q 3513 744 3044 326 
Q 2575 -91 1722 -91 
Q 1428 -91 1123 -41 
Q 819 9 494 109 
L 494 744 
Q 775 591 1075 516 
Q 1375 441 1709 441 
Q 2250 441 2565 725 
Q 2881 1009 2881 1497 
Q 2881 1984 2565 2268 
Q 2250 2553 1709 2553 
Q 1456 2553 1204 2497 
Q 953 2441 691 2322 
L 691 4666 
z
" transform="scale(0.015625)"/>
       </defs>
       <use xlink:href="#DejaVuSans-35"/>
       <use xlink:href="#DejaVuSans-30" x="63.623047"/>
      </g>
     </g>
    </g>
    <g id="xtick_3">
     <g id="line2d_3">
      <g>
       <use xlink:href="#mcf9f28bc48" x="155.199781" y="307.584" style="stroke: #000000; stroke-width: 0.8"/>
      </g>
     </g>
     <g id="text_3">
      <!-- 100 -->
      <g transform="translate(145.656031 322.182437) scale(0.1 -0.1)">
       <defs>
        <path id="DejaVuSans-31" d="M 794 531 
L 1825 531 
L 1825 4091 
L 703 3866 
L 703 4441 
L 1819 4666 
L 2450 4666 
L 2450 531 
L 3481 531 
L 3481 0 
L 794 0 
L 794 531 
z
" transform="scale(0.015625)"/>
       </defs>
       <use xlink:href="#DejaVuSans-31"/>
       <use xlink:href="#DejaVuSans-30" x="63.623047"/>
       <use xlink:href="#DejaVuSans-30" x="127.246094"/>
      </g>
     </g>
    </g>
    <g id="xtick_4">
     <g id="line2d_4">
      <g>
       <use xlink:href="#mcf9f28bc48" x="195.883308" y="307.584" style="stroke: #000000; stroke-width: 0.8"/>
      </g>
     </g>
     <g id="text_4">
      <!-- 150 -->
      <g transform="translate(186.339558 322.182437) scale(0.1 -0.1)">
       <use xlink:href="#DejaVuSans-31"/>
       <use xlink:href="#DejaVuSans-35" x="63.623047"/>
       <use xlink:href="#DejaVuSans-30" x="127.246094"/>
      </g>
     </g>
    </g>
    <g id="xtick_5">
     <g id="line2d_5">
      <g>
       <use xlink:href="#mcf9f28bc48" x="236.566835" y="307.584" style="stroke: #000000; stroke-width: 0.8"/>
      </g>
     </g>
     <g id="text_5">
      <!-- 200 -->
      <g transform="translate(227.023085 322.182437) scale(0.1 -0.1)">
       <defs>
        <path id="DejaVuSans-32" d="M 1228 531 
L 3431 531 
L 3431 0 
L 469 0 
L 469 531 
Q 828 903 1448 1529 
Q 2069 2156 2228 2338 
Q 2531 2678 2651 2914 
Q 2772 3150 2772 3378 
Q 2772 3750 2511 3984 
Q 2250 4219 1831 4219 
Q 1534 4219 1204 4116 
Q 875 4013 500 3803 
L 500 4441 
Q 881 4594 1212 4672 
Q 1544 4750 1819 4750 
Q 2544 4750 2975 4387 
Q 3406 4025 3406 3419 
Q 3406 3131 3298 2873 
Q 3191 2616 2906 2266 
Q 2828 2175 2409 1742 
Q 1991 1309 1228 531 
z
" transform="scale(0.015625)"/>
       </defs>
       <use xlink:href="#DejaVuSans-32"/>
       <use xlink:href="#DejaVuSans-30" x="63.623047"/>
       <use xlink:href="#DejaVuSans-30" x="127.246094"/>
      </g>
     </g>
    </g>
    <g id="xtick_6">
     <g id="line2d_6">
      <g>
       <use xlink:href="#mcf9f28bc48" x="277.250362" y="307.584" style="stroke: #000000; stroke-width: 0.8"/>
      </g>
     </g>
     <g id="text_6">
      <!-- 250 -->
      <g transform="translate(267.706612 322.182437) scale(0.1 -0.1)">
       <use xlink:href="#DejaVuSans-32"/>
       <use xlink:href="#DejaVuSans-35" x="63.623047"/>
       <use xlink:href="#DejaVuSans-30" x="127.246094"/>
      </g>
     </g>
    </g>
    <g id="xtick_7">
     <g id="line2d_7">
      <g>
       <use xlink:href="#mcf9f28bc48" x="317.933889" y="307.584" style="stroke: #000000; stroke-width: 0.8"/>
      </g>
     </g>
     <g id="text_7">
      <!-- 300 -->
      <g transform="translate(308.390139 322.182437) scale(0.1 -0.1)">
       <defs>
        <path id="DejaVuSans-33" d="M 2597 2516 
Q 3050 2419 3304 2112 
Q 3559 1806 3559 1356 
Q 3559 666 3084 287 
Q 2609 -91 1734 -91 
Q 1441 -91 1130 -33 
Q 819 25 488 141 
L 488 750 
Q 750 597 1062 519 
Q 1375 441 1716 441 
Q 2309 441 2620 675 
Q 2931 909 2931 1356 
Q 2931 1769 2642 2001 
Q 2353 2234 1838 2234 
L 1294 2234 
L 1294 2753 
L 1863 2753 
Q 2328 2753 2575 2939 
Q 2822 3125 2822 3475 
Q 2822 3834 2567 4026 
Q 2313 4219 1838 4219 
Q 1578 4219 1281 4162 
Q 984 4106 628 3988 
L 628 4550 
Q 988 4650 1302 4700 
Q 1616 4750 1894 4750 
Q 2613 4750 3031 4423 
Q 3450 4097 3450 3541 
Q 3450 3153 3228 2886 
Q 3006 2619 2597 2516 
z
" transform="scale(0.015625)"/>
       </defs>
       <use xlink:href="#DejaVuSans-33"/>
       <use xlink:href="#DejaVuSans-30" x="63.623047"/>
       <use xlink:href="#DejaVuSans-30" x="127.246094"/>
      </g>
     </g>
    </g>
    <g id="xtick_8">
     <g id="line2d_8">
      <g>
       <use xlink:href="#mcf9f28bc48" x="358.617416" y="307.584" style="stroke: #000000; stroke-width: 0.8"/>
      </g>
     </g>
     <g id="text_8">
      <!-- 350 -->
      <g transform="translate(349.073666 322.182437) scale(0.1 -0.1)">
       <use xlink:href="#DejaVuSans-33"/>
       <use xlink:href="#DejaVuSans-35" x="63.623047"/>
       <use xlink:href="#DejaVuSans-30" x="127.246094"/>
      </g>
     </g>
    </g>
    <g id="xtick_9">
     <g id="line2d_9">
      <g>
       <use xlink:href="#mcf9f28bc48" x="399.300943" y="307.584" style="stroke: #000000; stroke-width: 0.8"/>
      </g>
     </g>
     <g id="text_9">
      <!-- 400 -->
      <g transform="translate(389.757193 322.182437) scale(0.1 -0.1)">
       <defs>
        <path id="DejaVuSans-34" d="M 2419 4116 
L 825 1625 
L 2419 1625 
L 2419 4116 
z
M 2253 4666 
L 3047 4666 
L 3047 1625 
L 3713 1625 
L 3713 1100 
L 3047 1100 
L 3047 0 
L 2419 0 
L 2419 1100 
L 313 1100 
L 313 1709 
L 2253 4666 
z
" transform="scale(0.015625)"/>
       </defs>
       <use xlink:href="#DejaVuSans-34"/>
       <use xlink:href="#DejaVuSans-30" x="63.623047"/>
       <use xlink:href="#DejaVuSans-30" x="127.246094"/>
      </g>
     </g>
    </g>
    <g id="text_10">
     <!-- Epoch -->
     <g transform="translate(220.849063 335.860562) scale(0.1 -0.1)">
      <defs>
       <path id="DejaVuSans-45" d="M 628 4666 
L 3578 4666 
L 3578 4134 
L 1259 4134 
L 1259 2753 
L 3481 2753 
L 3481 2222 
L 1259 2222 
L 1259 531 
L 3634 531 
L 3634 0 
L 628 0 
L 628 4666 
z
" transform="scale(0.015625)"/>
       <path id="DejaVuSans-70" d="M 1159 525 
L 1159 -1331 
L 581 -1331 
L 581 3500 
L 1159 3500 
L 1159 2969 
Q 1341 3281 1617 3432 
Q 1894 3584 2278 3584 
Q 2916 3584 3314 3078 
Q 3713 2572 3713 1747 
Q 3713 922 3314 415 
Q 2916 -91 2278 -91 
Q 1894 -91 1617 61 
Q 1341 213 1159 525 
z
M 3116 1747 
Q 3116 2381 2855 2742 
Q 2594 3103 2138 3103 
Q 1681 3103 1420 2742 
Q 1159 2381 1159 1747 
Q 1159 1113 1420 752 
Q 1681 391 2138 391 
Q 2594 391 2855 752 
Q 3116 1113 3116 1747 
z
" transform="scale(0.015625)"/>
       <path id="DejaVuSans-6f" d="M 1959 3097 
Q 1497 3097 1228 2736 
Q 959 2375 959 1747 
Q 959 1119 1226 758 
Q 1494 397 1959 397 
Q 2419 397 2687 759 
Q 2956 1122 2956 1747 
Q 2956 2369 2687 2733 
Q 2419 3097 1959 3097 
z
M 1959 3584 
Q 2709 3584 3137 3096 
Q 3566 2609 3566 1747 
Q 3566 888 3137 398 
Q 2709 -91 1959 -91 
Q 1206 -91 779 398 
Q 353 888 353 1747 
Q 353 2609 779 3096 
Q 1206 3584 1959 3584 
z
" transform="scale(0.015625)"/>
       <path id="DejaVuSans-63" d="M 3122 3366 
L 3122 2828 
Q 2878 2963 2633 3030 
Q 2388 3097 2138 3097 
Q 1578 3097 1268 2742 
Q 959 2388 959 1747 
Q 959 1106 1268 751 
Q 1578 397 2138 397 
Q 2388 397 2633 464 
Q 2878 531 3122 666 
L 3122 134 
Q 2881 22 2623 -34 
Q 2366 -91 2075 -91 
Q 1284 -91 818 406 
Q 353 903 353 1747 
Q 353 2603 823 3093 
Q 1294 3584 2113 3584 
Q 2378 3584 2631 3529 
Q 2884 3475 3122 3366 
z
" transform="scale(0.015625)"/>
       <path id="DejaVuSans-68" d="M 3513 2113 
L 3513 0 
L 2938 0 
L 2938 2094 
Q 2938 2591 2744 2837 
Q 2550 3084 2163 3084 
Q 1697 3084 1428 2787 
Q 1159 2491 1159 1978 
L 1159 0 
L 581 0 
L 581 4863 
L 1159 4863 
L 1159 2956 
Q 1366 3272 1645 3428 
Q 1925 3584 2291 3584 
Q 2894 3584 3203 3211 
Q 3513 2838 3513 2113 
z
" transform="scale(0.015625)"/>
      </defs>
      <use xlink:href="#DejaVuSans-45"/>
      <use xlink:href="#DejaVuSans-70" x="63.183594"/>
      <use xlink:href="#DejaVuSans-6f" x="126.660156"/>
      <use xlink:href="#DejaVuSans-63" x="187.841797"/>
      <use xlink:href="#DejaVuSans-68" x="242.822266"/>
     </g>
    </g>
   </g>
   <g id="matplotlib.axis_2">
    <g id="ytick_1">
     <g id="line2d_10">
      <defs>
       <path id="ma7a252baa3" d="M 0 0 
L -3.5 0 
" style="stroke: #000000; stroke-width: 0.8"/>
      </defs>
      <g>
       <use xlink:href="#ma7a252baa3" x="57.6" y="307.092588" style="stroke: #000000; stroke-width: 0.8"/>
      </g>
     </g>
     <g id="text_11">
      <!-- 0.500 -->
      <g transform="translate(21.971875 310.891807) scale(0.1 -0.1)">
       <defs>
        <path id="DejaVuSans-2e" d="M 684 794 
L 1344 794 
L 1344 0 
L 684 0 
L 684 794 
z
" transform="scale(0.015625)"/>
       </defs>
       <use xlink:href="#DejaVuSans-30"/>
       <use xlink:href="#DejaVuSans-2e" x="63.623047"/>
       <use xlink:href="#DejaVuSans-35" x="95.410156"/>
       <use xlink:href="#DejaVuSans-30" x="159.033203"/>
       <use xlink:href="#DejaVuSans-30" x="222.65625"/>
      </g>
     </g>
    </g>
    <g id="ytick_2">
     <g id="line2d_11">
      <g>
       <use xlink:href="#ma7a252baa3" x="57.6" y="275.907031" style="stroke: #000000; stroke-width: 0.8"/>
      </g>
     </g>
     <g id="text_12">
      <!-- 0.525 -->
      <g transform="translate(21.971875 279.70625) scale(0.1 -0.1)">
       <use xlink:href="#DejaVuSans-30"/>
       <use xlink:href="#DejaVuSans-2e" x="63.623047"/>
       <use xlink:href="#DejaVuSans-35" x="95.410156"/>
       <use xlink:href="#DejaVuSans-32" x="159.033203"/>
       <use xlink:href="#DejaVuSans-35" x="222.65625"/>
      </g>
     </g>
    </g>
    <g id="ytick_3">
     <g id="line2d_12">
      <g>
       <use xlink:href="#ma7a252baa3" x="57.6" y="244.721474" style="stroke: #000000; stroke-width: 0.8"/>
      </g>
     </g>
     <g id="text_13">
      <!-- 0.550 -->
      <g transform="translate(21.971875 248.520693) scale(0.1 -0.1)">
       <use xlink:href="#DejaVuSans-30"/>
       <use xlink:href="#DejaVuSans-2e" x="63.623047"/>
       <use xlink:href="#DejaVuSans-35" x="95.410156"/>
       <use xlink:href="#DejaVuSans-35" x="159.033203"/>
       <use xlink:href="#DejaVuSans-30" x="222.65625"/>
      </g>
     </g>
    </g>
    <g id="ytick_4">
     <g id="line2d_13">
      <g>
       <use xlink:href="#ma7a252baa3" x="57.6" y="213.535917" style="stroke: #000000; stroke-width: 0.8"/>
      </g>
     </g>
     <g id="text_14">
      <!-- 0.575 -->
      <g transform="translate(21.971875 217.335136) scale(0.1 -0.1)">
       <defs>
        <path id="DejaVuSans-37" d="M 525 4666 
L 3525 4666 
L 3525 4397 
L 1831 0 
L 1172 0 
L 2766 4134 
L 525 4134 
L 525 4666 
z
" transform="scale(0.015625)"/>
       </defs>
       <use xlink:href="#DejaVuSans-30"/>
       <use xlink:href="#DejaVuSans-2e" x="63.623047"/>
       <use xlink:href="#DejaVuSans-35" x="95.410156"/>
       <use xlink:href="#DejaVuSans-37" x="159.033203"/>
       <use xlink:href="#DejaVuSans-35" x="222.65625"/>
      </g>
     </g>
    </g>
    <g id="ytick_5">
     <g id="line2d_14">
      <g>
       <use xlink:href="#ma7a252baa3" x="57.6" y="182.35036" style="stroke: #000000; stroke-width: 0.8"/>
      </g>
     </g>
     <g id="text_15">
      <!-- 0.600 -->
      <g transform="translate(21.971875 186.149579) scale(0.1 -0.1)">
       <defs>
        <path id="DejaVuSans-36" d="M 2113 2584 
Q 1688 2584 1439 2293 
Q 1191 2003 1191 1497 
Q 1191 994 1439 701 
Q 1688 409 2113 409 
Q 2538 409 2786 701 
Q 3034 994 3034 1497 
Q 3034 2003 2786 2293 
Q 2538 2584 2113 2584 
z
M 3366 4563 
L 3366 3988 
Q 3128 4100 2886 4159 
Q 2644 4219 2406 4219 
Q 1781 4219 1451 3797 
Q 1122 3375 1075 2522 
Q 1259 2794 1537 2939 
Q 1816 3084 2150 3084 
Q 2853 3084 3261 2657 
Q 3669 2231 3669 1497 
Q 3669 778 3244 343 
Q 2819 -91 2113 -91 
Q 1303 -91 875 529 
Q 447 1150 447 2328 
Q 447 3434 972 4092 
Q 1497 4750 2381 4750 
Q 2619 4750 2861 4703 
Q 3103 4656 3366 4563 
z
" transform="scale(0.015625)"/>
       </defs>
       <use xlink:href="#DejaVuSans-30"/>
       <use xlink:href="#DejaVuSans-2e" x="63.623047"/>
       <use xlink:href="#DejaVuSans-36" x="95.410156"/>
       <use xlink:href="#DejaVuSans-30" x="159.033203"/>
       <use xlink:href="#DejaVuSans-30" x="222.65625"/>
      </g>
     </g>
    </g>
    <g id="ytick_6">
     <g id="line2d_15">
      <g>
       <use xlink:href="#ma7a252baa3" x="57.6" y="151.164804" style="stroke: #000000; stroke-width: 0.8"/>
      </g>
     </g>
     <g id="text_16">
      <!-- 0.625 -->
      <g transform="translate(21.971875 154.964022) scale(0.1 -0.1)">
       <use xlink:href="#DejaVuSans-30"/>
       <use xlink:href="#DejaVuSans-2e" x="63.623047"/>
       <use xlink:href="#DejaVuSans-36" x="95.410156"/>
       <use xlink:href="#DejaVuSans-32" x="159.033203"/>
       <use xlink:href="#DejaVuSans-35" x="222.65625"/>
      </g>
     </g>
    </g>
    <g id="ytick_7">
     <g id="line2d_16">
      <g>
       <use xlink:href="#ma7a252baa3" x="57.6" y="119.979247" style="stroke: #000000; stroke-width: 0.8"/>
      </g>
     </g>
     <g id="text_17">
      <!-- 0.650 -->
      <g transform="translate(21.971875 123.778465) scale(0.1 -0.1)">
       <use xlink:href="#DejaVuSans-30"/>
       <use xlink:href="#DejaVuSans-2e" x="63.623047"/>
       <use xlink:href="#DejaVuSans-36" x="95.410156"/>
       <use xlink:href="#DejaVuSans-35" x="159.033203"/>
       <use xlink:href="#DejaVuSans-30" x="222.65625"/>
      </g>
     </g>
    </g>
    <g id="ytick_8">
     <g id="line2d_17">
      <g>
       <use xlink:href="#ma7a252baa3" x="57.6" y="88.79369" style="stroke: #000000; stroke-width: 0.8"/>
      </g>
     </g>
     <g id="text_18">
      <!-- 0.675 -->
      <g transform="translate(21.971875 92.592909) scale(0.1 -0.1)">
       <use xlink:href="#DejaVuSans-30"/>
       <use xlink:href="#DejaVuSans-2e" x="63.623047"/>
       <use xlink:href="#DejaVuSans-36" x="95.410156"/>
       <use xlink:href="#DejaVuSans-37" x="159.033203"/>
       <use xlink:href="#DejaVuSans-35" x="222.65625"/>
      </g>
     </g>
    </g>
    <g id="ytick_9">
     <g id="line2d_18">
      <g>
       <use xlink:href="#ma7a252baa3" x="57.6" y="57.608133" style="stroke: #000000; stroke-width: 0.8"/>
      </g>
     </g>
     <g id="text_19">
      <!-- 0.700 -->
      <g transform="translate(21.971875 61.407352) scale(0.1 -0.1)">
       <use xlink:href="#DejaVuSans-30"/>
       <use xlink:href="#DejaVuSans-2e" x="63.623047"/>
       <use xlink:href="#DejaVuSans-37" x="95.410156"/>
       <use xlink:href="#DejaVuSans-30" x="159.033203"/>
       <use xlink:href="#DejaVuSans-30" x="222.65625"/>
      </g>
     </g>
    </g>
    <g id="text_20">
     <!-- Balanced accuracy -->
     <g transform="translate(15.892187 221.792844) rotate(-90) scale(0.1 -0.1)">
      <defs>
       <path id="DejaVuSans-42" d="M 1259 2228 
L 1259 519 
L 2272 519 
Q 2781 519 3026 730 
Q 3272 941 3272 1375 
Q 3272 1813 3026 2020 
Q 2781 2228 2272 2228 
L 1259 2228 
z
M 1259 4147 
L 1259 2741 
L 2194 2741 
Q 2656 2741 2882 2914 
Q 3109 3088 3109 3444 
Q 3109 3797 2882 3972 
Q 2656 4147 2194 4147 
L 1259 4147 
z
M 628 4666 
L 2241 4666 
Q 2963 4666 3353 4366 
Q 3744 4066 3744 3513 
Q 3744 3084 3544 2831 
Q 3344 2578 2956 2516 
Q 3422 2416 3680 2098 
Q 3938 1781 3938 1306 
Q 3938 681 3513 340 
Q 3088 0 2303 0 
L 628 0 
L 628 4666 
z
" transform="scale(0.015625)"/>
       <path id="DejaVuSans-61" d="M 2194 1759 
Q 1497 1759 1228 1600 
Q 959 1441 959 1056 
Q 959 750 1161 570 
Q 1363 391 1709 391 
Q 2188 391 2477 730 
Q 2766 1069 2766 1631 
L 2766 1759 
L 2194 1759 
z
M 3341 1997 
L 3341 0 
L 2766 0 
L 2766 531 
Q 2569 213 2275 61 
Q 1981 -91 1556 -91 
Q 1019 -91 701 211 
Q 384 513 384 1019 
Q 384 1609 779 1909 
Q 1175 2209 1959 2209 
L 2766 2209 
L 2766 2266 
Q 2766 2663 2505 2880 
Q 2244 3097 1772 3097 
Q 1472 3097 1187 3025 
Q 903 2953 641 2809 
L 641 3341 
Q 956 3463 1253 3523 
Q 1550 3584 1831 3584 
Q 2591 3584 2966 3190 
Q 3341 2797 3341 1997 
z
" transform="scale(0.015625)"/>
       <path id="DejaVuSans-6c" d="M 603 4863 
L 1178 4863 
L 1178 0 
L 603 0 
L 603 4863 
z
" transform="scale(0.015625)"/>
       <path id="DejaVuSans-6e" d="M 3513 2113 
L 3513 0 
L 2938 0 
L 2938 2094 
Q 2938 2591 2744 2837 
Q 2550 3084 2163 3084 
Q 1697 3084 1428 2787 
Q 1159 2491 1159 1978 
L 1159 0 
L 581 0 
L 581 3500 
L 1159 3500 
L 1159 2956 
Q 1366 3272 1645 3428 
Q 1925 3584 2291 3584 
Q 2894 3584 3203 3211 
Q 3513 2838 3513 2113 
z
" transform="scale(0.015625)"/>
       <path id="DejaVuSans-65" d="M 3597 1894 
L 3597 1613 
L 953 1613 
Q 991 1019 1311 708 
Q 1631 397 2203 397 
Q 2534 397 2845 478 
Q 3156 559 3463 722 
L 3463 178 
Q 3153 47 2828 -22 
Q 2503 -91 2169 -91 
Q 1331 -91 842 396 
Q 353 884 353 1716 
Q 353 2575 817 3079 
Q 1281 3584 2069 3584 
Q 2775 3584 3186 3129 
Q 3597 2675 3597 1894 
z
M 3022 2063 
Q 3016 2534 2758 2815 
Q 2500 3097 2075 3097 
Q 1594 3097 1305 2825 
Q 1016 2553 972 2059 
L 3022 2063 
z
" transform="scale(0.015625)"/>
       <path id="DejaVuSans-64" d="M 2906 2969 
L 2906 4863 
L 3481 4863 
L 3481 0 
L 2906 0 
L 2906 525 
Q 2725 213 2448 61 
Q 2172 -91 1784 -91 
Q 1150 -91 751 415 
Q 353 922 353 1747 
Q 353 2572 751 3078 
Q 1150 3584 1784 3584 
Q 2172 3584 2448 3432 
Q 2725 3281 2906 2969 
z
M 947 1747 
Q 947 1113 1208 752 
Q 1469 391 1925 391 
Q 2381 391 2643 752 
Q 2906 1113 2906 1747 
Q 2906 2381 2643 2742 
Q 2381 3103 1925 3103 
Q 1469 3103 1208 2742 
Q 947 2381 947 1747 
z
" transform="scale(0.015625)"/>
       <path id="DejaVuSans-20" transform="scale(0.015625)"/>
       <path id="DejaVuSans-75" d="M 544 1381 
L 544 3500 
L 1119 3500 
L 1119 1403 
Q 1119 906 1312 657 
Q 1506 409 1894 409 
Q 2359 409 2629 706 
Q 2900 1003 2900 1516 
L 2900 3500 
L 3475 3500 
L 3475 0 
L 2900 0 
L 2900 538 
Q 2691 219 2414 64 
Q 2138 -91 1772 -91 
Q 1169 -91 856 284 
Q 544 659 544 1381 
z
M 1991 3584 
L 1991 3584 
z
" transform="scale(0.015625)"/>
       <path id="DejaVuSans-72" d="M 2631 2963 
Q 2534 3019 2420 3045 
Q 2306 3072 2169 3072 
Q 1681 3072 1420 2755 
Q 1159 2438 1159 1844 
L 1159 0 
L 581 0 
L 581 3500 
L 1159 3500 
L 1159 2956 
Q 1341 3275 1631 3429 
Q 1922 3584 2338 3584 
Q 2397 3584 2469 3576 
Q 2541 3569 2628 3553 
L 2631 2963 
z
" transform="scale(0.015625)"/>
       <path id="DejaVuSans-79" d="M 2059 -325 
Q 1816 -950 1584 -1140 
Q 1353 -1331 966 -1331 
L 506 -1331 
L 506 -850 
L 844 -850 
Q 1081 -850 1212 -737 
Q 1344 -625 1503 -206 
L 1606 56 
L 191 3500 
L 800 3500 
L 1894 763 
L 2988 3500 
L 3597 3500 
L 2059 -325 
z
" transform="scale(0.015625)"/>
      </defs>
      <use xlink:href="#DejaVuSans-42"/>
      <use xlink:href="#DejaVuSans-61" x="68.603516"/>
      <use xlink:href="#DejaVuSans-6c" x="129.882812"/>
      <use xlink:href="#DejaVuSans-61" x="157.666016"/>
      <use xlink:href="#DejaVuSans-6e" x="218.945312"/>
      <use xlink:href="#DejaVuSans-63" x="282.324219"/>
      <use xlink:href="#DejaVuSans-65" x="337.304688"/>
      <use xlink:href="#DejaVuSans-64" x="398.828125"/>
      <use xlink:href="#DejaVuSans-20" x="462.304688"/>
      <use xlink:href="#DejaVuSans-61" x="494.091797"/>
      <use xlink:href="#DejaVuSans-63" x="555.371094"/>
      <use xlink:href="#DejaVuSans-63" x="610.351562"/>
      <use xlink:href="#DejaVuSans-75" x="665.332031"/>
      <use xlink:href="#DejaVuSans-72" x="728.710938"/>
      <use xlink:href="#DejaVuSans-61" x="769.824219"/>
      <use xlink:href="#DejaVuSans-63" x="831.103516"/>
      <use xlink:href="#DejaVuSans-79" x="886.083984"/>
     </g>
    </g>
   </g>
   <g id="line2d_19">
    <path d="M 73.832727 295.488 
L 74.646398 271.94818 
L 75.460068 254.644871 
L 76.273739 233.972219 
L 77.90108 209.294439 
L 78.714751 207.285964 
L 79.528421 197.933503 
L 80.342092 181.955298 
L 81.155762 181.657294 
L 81.969433 172.144307 
L 82.783103 166.250188 
L 83.596774 156.877726 
L 84.410444 157.386518 
L 85.224115 155.483251 
L 86.037785 158.125356 
L 86.851456 147.657909 
L 87.665126 168.73013 
L 88.478797 142.919892 
L 89.292468 135.950269 
L 90.106138 146.343661 
L 90.919809 135.042504 
L 91.733479 133.992874 
L 92.54715 136.79149 
L 93.36082 130.264039 
L 94.174491 127.590038 
L 94.988161 137.542521 
L 95.801832 132.883615 
L 96.615502 131.522747 
L 97.429173 132.283816 
L 98.242843 124.19088 
L 99.056514 128.998342 
L 99.870185 127.620597 
L 100.683855 124.192813 
L 101.497526 131.513379 
L 102.311196 126.57238 
L 103.124867 130.139648 
L 103.938537 121.501265 
L 104.752208 133.427649 
L 105.565878 119.53361 
L 106.379549 123.1127 
L 107.193219 121.188614 
L 108.00689 127.141843 
L 108.82056 127.454197 
L 109.634231 116.283602 
L 110.447902 119.090619 
L 111.261572 125.76157 
L 112.075243 123.373676 
L 112.888913 123.460519 
L 113.702584 126.020613 
L 114.516254 114.770461 
L 115.329925 125.49866 
L 116.143595 114.403236 
L 116.957266 117.232038 
L 117.770936 118.599895 
L 118.584607 115.388848 
L 119.398278 118.292969 
L 120.211948 116.487996 
L 121.025619 126.078012 
L 121.839289 126.354379 
L 122.65296 116.048278 
L 123.46663 125.800456 
L 124.280301 124.311331 
L 125.093971 118.630008 
L 125.907642 119.659785 
L 126.721312 139.279164 
L 127.534983 120.183001 
L 128.348653 123.682609 
L 129.162324 121.750122 
L 129.975995 116.065527 
L 130.789665 120.682722 
L 131.603336 118.116903 
L 132.417006 119.316204 
L 133.230677 130.664574 
L 134.044347 116.865036 
L 134.858018 117.799494 
L 135.671688 114.851505 
L 136.485359 120.805775 
L 137.299029 110.566813 
L 138.1127 119.883511 
L 138.92637 121.64298 
L 139.740041 115.801577 
L 140.553712 111.738455 
L 141.367382 103.991777 
L 142.181053 114.681164 
L 142.994723 114.32591 
L 143.808394 112.337436 
L 144.622064 106.016758 
L 145.435735 110.768679 
L 146.249405 114.086198 
L 147.063076 110.668899 
L 147.876746 109.920693 
L 148.690417 117.453533 
L 149.504087 105.694367 
L 150.317758 119.270105 
L 151.131429 112.91359 
L 151.945099 100.513137 
L 152.75877 114.950468 
L 153.57244 115.130995 
L 154.386111 107.217323 
L 155.199781 106.963038 
L 156.013452 101.34484 
L 156.827122 104.409339 
L 157.640793 108.772101 
L 158.454463 139.770483 
L 159.268134 124.83529 
L 160.081805 115.997569 
L 160.895475 109.747304 
L 161.709146 98.327555 
L 162.522816 101.55838 
L 163.336487 100.203535 
L 164.150157 98.133347 
L 164.963828 101.324096 
L 165.777498 103.566929 
L 166.591169 95.404474 
L 167.404839 97.41518 
L 168.21851 113.10014 
L 169.03218 102.885045 
L 169.845851 98.600428 
L 170.659522 99.5218 
L 171.473192 106.035867 
L 172.286863 100.142714 
L 173.100533 102.461461 
L 173.914204 98.598643 
L 174.727874 127.401481 
L 175.541545 112.571422 
L 176.355215 100.729948 
L 177.168886 104.7811 
L 177.982556 113.462086 
L 178.796227 113.347287 
L 179.609897 98.827722 
L 180.423568 98.792777 
L 181.237239 99.562916 
L 182.050909 103.492279 
L 182.86458 103.845006 
L 183.67825 96.526969 
L 184.491921 110.165758 
L 185.305591 103.729463 
L 186.119262 93.03093 
L 186.932932 97.364918 
L 187.746603 95.454513 
L 188.560273 98.260713 
L 189.373944 96.740583 
L 190.187614 100.730245 
L 191.001285 96.280491 
L 191.814956 114.688748 
L 192.628626 92.119001 
L 193.442297 96.297295 
L 194.255967 96.854416 
L 195.069638 102.480718 
L 195.883308 96.245025 
L 196.696979 92.843637 
L 197.510649 96.953973 
L 198.32432 91.109224 
L 199.13799 88.05796 
L 199.951661 91.109819 
L 200.765332 90.580729 
L 201.579002 95.332501 
L 202.392673 89.226107 
L 203.206343 93.841592 
L 204.020014 93.176884 
L 204.833684 83.937289 
L 205.647355 93.777426 
L 206.461025 96.650765 
L 207.274696 90.246888 
L 208.088366 89.529984 
L 208.902037 95.204987 
L 209.715707 98.155876 
L 210.529378 91.238448 
L 211.343049 93.129967 
L 212.156719 91.916912 
L 212.97039 87.585304 
L 213.78406 94.618721 
L 214.597731 84.83011 
L 215.411401 80.068746 
L 216.225072 92.175434 
L 217.038742 88.697017 
L 217.852413 91.721886 
L 218.666083 90.222723 
L 219.479754 81.978258 
L 220.293424 98.687122 
L 221.107095 85.855277 
L 221.920766 87.734008 
L 222.734436 80.877177 
L 224.361777 77.579064 
L 225.175448 80.899632 
L 225.989118 79.612521 
L 226.802789 94.756718 
L 227.616459 84.574487 
L 228.43013 86.988404 
L 229.2438 80.225629 
L 230.057471 82.165031 
L 230.871141 79.064769 
L 231.684812 85.696164 
L 232.498483 78.077149 
L 233.312153 85.38158 
L 234.125824 78.929597 
L 234.939494 79.800037 
L 235.753165 81.160087 
L 236.566835 80.096777 
L 237.380506 76.361845 
L 238.194176 76.179905 
L 239.007847 80.490249 
L 239.821517 92.693594 
L 240.635188 73.535347 
L 241.448859 83.905243 
L 242.262529 80.334629 
L 243.0762 74.572188 
L 243.88987 74.548619 
L 244.703541 76.512854 
L 245.517211 91.720845 
L 246.330882 75.033395 
L 247.144552 74.337012 
L 247.958223 77.105218 
L 248.771893 75.954321 
L 249.585564 82.371804 
L 250.399234 70.442297 
L 251.212905 78.999934 
L 252.026576 75.320097 
L 252.840246 74.536276 
L 253.653917 76.779183 
L 254.467587 76.943056 
L 255.281258 86.375668 
L 256.094928 74.980902 
L 256.908599 71.950977 
L 257.722269 70.320657 
L 258.53594 74.382813 
L 259.34961 75.041796 
L 260.163281 71.400399 
L 260.976951 77.971049 
L 261.790622 74.730038 
L 262.604293 79.262694 
L 263.417963 78.31292 
L 264.231634 72.426385 
L 265.045304 67.834916 
L 265.858975 76.24935 
L 266.672645 80.222729 
L 267.486316 71.250431 
L 268.299986 91.041118 
L 269.113657 70.288091 
L 270.740998 68.46624 
L 271.554668 69.884582 
L 272.368339 70.416497 
L 273.18201 74.801044 
L 273.99568 70.774652 
L 274.809351 73.552671 
L 275.623021 72.981052 
L 276.436692 70.268462 
L 277.250362 71.572971 
L 278.064033 69.328799 
L 278.877703 73.453857 
L 279.691374 68.444975 
L 280.505044 67.897892 
L 281.318715 68.399918 
L 282.132386 78.337605 
L 282.946056 72.842013 
L 283.759727 70.552339 
L 284.573397 65.522787 
L 285.387068 67.676917 
L 286.200738 63.728818 
L 287.014409 70.903281 
L 287.828079 76.83242 
L 288.64175 65.434679 
L 289.45542 68.732718 
L 290.269091 65.557955 
L 291.082761 66.463788 
L 291.896432 75.200687 
L 292.710103 70.534494 
L 293.523773 71.592823 
L 294.337444 67.708368 
L 295.151114 75.215037 
L 295.964785 64.454123 
L 296.778455 70.425717 
L 297.592126 65.125449 
L 298.405796 73.027745 
L 299.219467 65.765026 
L 300.033137 67.46256 
L 300.846808 65.943992 
L 301.660478 69.453191 
L 302.474149 69.83826 
L 303.28782 65.456241 
L 304.10149 65.740415 
L 305.728831 73.173029 
L 306.542502 73.516313 
L 307.356172 64.163109 
L 308.169843 65.931649 
L 308.983513 65.494012 
L 309.797184 66.582528 
L 310.610854 66.723574 
L 311.424525 60.896 
L 312.238195 63.516171 
L 313.051866 63.312371 
L 313.865537 67.209912 
L 314.679207 62.268095 
L 315.492878 61.034221 
L 316.306548 62.739711 
L 317.120219 62.061024 
L 317.933889 63.715211 
L 318.74756 67.391331 
L 319.56123 64.887745 
L 320.374901 64.491745 
L 321.188571 71.271993 
L 322.002242 67.913729 
L 322.815913 59.022921 
L 323.629583 63.167087 
L 324.443254 70.994585 
L 325.256924 64.190173 
L 326.070595 66.388915 
L 326.884265 61.114001 
L 327.697936 61.365683 
L 328.511606 65.745917 
L 329.325277 65.094444 
L 330.138947 61.211105 
L 330.952618 62.854436 
L 331.766288 66.177309 
L 332.579959 61.149764 
L 333.39363 61.993959 
L 334.2073 65.060465 
L 335.020971 60.965966 
L 335.834641 64.863878 
L 336.648312 67.086264 
L 337.461982 64.56238 
L 338.275653 60.068535 
L 339.089323 64.185266 
L 339.902994 58.87325 
L 340.716664 63.324045 
L 341.530335 64.437617 
L 342.344005 59.517288 
L 343.157676 63.502713 
L 343.971347 63.833059 
L 344.785017 64.713835 
L 345.598688 62.21813 
L 346.412358 69.63922 
L 347.226029 62.418658 
L 348.039699 68.762459 
L 348.85337 62.02541 
L 349.66704 63.286199 
L 350.480711 62.671902 
L 351.294381 63.477359 
L 352.108052 63.117346 
L 352.921722 73.71922 
L 353.735393 59.897748 
L 354.549064 65.80302 
L 355.362734 64.661045 
L 356.176405 67.066635 
L 356.990075 57.99069 
L 357.803746 60.60335 
L 358.617416 59.927489 
L 359.431087 57.808601 
L 360.244757 57.93671 
L 361.058428 63.155563 
L 361.872098 58.872135 
L 362.685769 66.758668 
L 363.49944 58.816891 
L 364.31311 55.54086 
L 365.940451 64.770938 
L 366.754122 59.191328 
L 367.567792 62.847001 
L 368.381463 55.603019 
L 369.195133 59.24278 
L 370.008804 59.122032 
L 370.822474 60.632942 
L 371.636145 63.533495 
L 372.449815 60.226236 
L 373.263486 71.09905 
L 374.077157 58.430557 
L 374.890827 56.46476 
L 375.704498 62.114261 
L 376.518168 62.590263 
L 377.331839 58.14668 
L 378.145509 56.403048 
L 378.95918 59.156011 
L 379.77285 57.320554 
L 380.586521 54.56759 
L 381.400191 66.460293 
L 382.213862 58.491303 
L 383.027532 59.593202 
L 383.841203 55.350147 
L 384.654874 63.946744 
L 385.468544 65.982209 
L 386.282215 55.368289 
L 387.095885 65.985778 
L 387.909556 54.702317 
L 388.723226 68.993917 
L 389.536897 57.845108 
L 390.350567 55.836856 
L 391.164238 58.991693 
L 391.977908 57.985113 
L 392.791579 67.601599 
L 393.605249 67.77536 
L 394.41892 57.904218 
L 395.232591 57.994928 
L 396.046261 59.018013 
L 396.859932 56.218803 
L 397.673602 61.0166 
L 398.487273 63.250882 
L 398.487273 63.250882 
" clip-path="url(#p136dc883f6)" style="fill: none; stroke: #1f77b4; stroke-width: 1.5; stroke-linecap: square"/>
   </g>
   <g id="line2d_20">
    <path d="M 73.832727 285.601319 
L 74.646398 270.036735 
L 75.460068 235.770128 
L 76.273739 228.770318 
L 77.087409 210.072906 
L 77.90108 204.611591 
L 78.714751 191.372742 
L 79.528421 221.679576 
L 81.155762 166.985159 
L 81.969433 152.128185 
L 82.783103 153.962973 
L 83.596774 151.215735 
L 84.410444 169.405248 
L 85.224115 146.037776 
L 86.037785 167.01319 
L 86.851456 151.667722 
L 87.665126 175.225907 
L 88.478797 172.831767 
L 89.292468 126.26367 
L 90.106138 138.233476 
L 90.919809 122.725548 
L 91.733479 123.290029 
L 92.54715 132.603976 
L 93.36082 132.739371 
L 94.174491 144.725758 
L 94.988161 117.327283 
L 95.801832 138.916921 
L 96.615502 120.051026 
L 97.429173 191.105893 
L 98.242843 129.071059 
L 99.056514 123.399996 
L 99.870185 126.372447 
L 100.683855 112.887047 
L 101.497526 128.228946 
L 102.311196 138.954766 
L 103.124867 157.289191 
L 103.938537 111.578374 
L 104.752208 111.439336 
L 105.565878 124.210286 
L 106.379549 116.400633 
L 108.00689 125.081024 
L 108.82056 108.37848 
L 109.634231 110.471568 
L 110.447902 110.045381 
L 111.261572 115.009875 
L 112.075243 134.328574 
L 112.888913 115.660234 
L 113.702584 119.23977 
L 114.516254 111.839053 
L 115.329925 141.138563 
L 116.143595 125.647365 
L 116.957266 126.131695 
L 117.770936 116.050657 
L 118.584607 134.278089 
L 119.398278 111.883218 
L 120.211948 135.311956 
L 121.025619 132.224111 
L 121.839289 103.409525 
L 122.65296 119.555395 
L 123.46663 123.914885 
L 124.280301 112.687337 
L 125.093971 97.323429 
L 125.907642 97.264617 
L 126.721312 139.258123 
L 128.348653 104.135277 
L 129.162324 104.48265 
L 129.975995 102.210969 
L 130.789665 109.491681 
L 131.603336 92.994795 
L 132.417006 97.029292 
L 133.230677 109.342307 
L 134.044347 125.407059 
L 134.858018 115.306689 
L 135.671688 108.705184 
L 136.485359 94.409122 
L 137.299029 104.648232 
L 138.1127 110.51261 
L 138.92637 92.210528 
L 139.740041 121.302968 
L 140.553712 100.64474 
L 141.367382 95.668796 
L 142.181053 96.650988 
L 142.994723 97.971111 
L 143.808394 97.728202 
L 144.622064 90.653074 
L 145.435735 105.226544 
L 146.249405 101.624702 
L 147.063076 109.613247 
L 147.876746 126.789711 
L 148.690417 102.282495 
L 149.504087 113.679418 
L 151.131429 93.461429 
L 152.75877 133.532263 
L 153.57244 110.082781 
L 155.199781 93.9497 
L 156.013452 101.9491 
L 156.827122 87.754232 
L 157.640793 106.692694 
L 159.268134 93.322614 
L 160.081805 142.195256 
L 160.895475 102.149405 
L 161.709146 100.451053 
L 162.522816 89.412211 
L 163.336487 88.319234 
L 164.150157 99.540685 
L 164.963828 113.2281 
L 165.777498 119.369812 
L 166.591169 89.797355 
L 167.404839 97.166769 
L 168.21851 103.267885 
L 169.03218 94.364734 
L 169.845851 87.196367 
L 170.659522 92.607272 
L 171.473192 104.167917 
L 172.286863 91.805012 
L 173.100533 90.442583 
L 173.914204 151.470465 
L 174.727874 115.793993 
L 175.541545 96.232014 
L 176.355215 91.695491 
L 177.168886 150.972975 
L 177.982556 129.023325 
L 178.796227 103.894525 
L 179.609897 101.334431 
L 180.423568 106.938428 
L 181.237239 92.743559 
L 182.050909 139.792194 
L 182.86458 89.637051 
L 183.67825 110.746522 
L 184.491921 107.222973 
L 185.305591 85.6604 
L 186.119262 87.90472 
L 186.932932 93.896315 
L 187.746603 87.581065 
L 188.560273 90.233281 
L 189.373944 117.076048 
L 190.187614 83.685979 
L 191.001285 84.412622 
L 191.814956 89.033089 
L 192.628626 85.920261 
L 193.442297 81.638023 
L 194.255967 85.589394 
L 195.069638 86.689657 
L 195.883308 97.343207 
L 196.696979 102.476852 
L 197.510649 84.768769 
L 199.13799 81.874537 
L 199.951661 86.558277 
L 200.765332 89.521434 
L 201.579002 86.29165 
L 202.392673 82.058782 
L 203.206343 92.941038 
L 204.020014 87.293174 
L 204.833684 95.482618 
L 205.647355 94.537751 
L 206.461025 119.070321 
L 207.274696 107.908277 
L 208.088366 79.512369 
L 208.902037 142.452886 
L 209.715707 72.984026 
L 210.529378 83.751111 
L 211.343049 81.288939 
L 212.156719 72.234185 
L 212.97039 91.525671 
L 213.78406 86.394182 
L 214.597731 76.530327 
L 215.411401 75.924282 
L 216.225072 104.839689 
L 217.038742 121.24475 
L 217.852413 78.983799 
L 218.666083 72.198421 
L 220.293424 109.623953 
L 221.107095 79.405376 
L 221.920766 74.253738 
L 222.734436 72.785952 
L 223.548107 73.786583 
L 224.361777 73.950084 
L 225.175448 73.299056 
L 225.989118 113.894667 
L 226.802789 86.430986 
L 227.616459 73.184777 
L 228.43013 90.905128 
L 229.2438 77.461513 
L 230.057471 77.419356 
L 230.871141 76.50408 
L 231.684812 74.922164 
L 232.498483 68.70558 
L 233.312153 81.894984 
L 234.125824 80.163545 
L 234.939494 83.194362 
L 235.753165 93.813189 
L 236.566835 72.80915 
L 237.380506 73.398168 
L 238.194176 77.090868 
L 239.007847 105.101929 
L 239.821517 72.979937 
L 240.635188 73.504417 
L 241.448859 78.651445 
L 242.262529 65.404269 
L 243.0762 74.621707 
L 243.88987 68.317833 
L 244.703541 69.877816 
L 245.517211 72.145334 
L 246.330882 67.861683 
L 247.144552 68.269653 
L 247.958223 65.317277 
L 248.771893 68.627436 
L 249.585564 66.688405 
L 250.399234 76.948335 
L 251.212905 66.438434 
L 252.026576 70.713237 
L 252.840246 75.791192 
L 253.653917 75.917516 
L 254.467587 95.335401 
L 255.281258 66.789004 
L 256.094928 63.083515 
L 256.908599 69.454008 
L 257.722269 89.833341 
L 258.53594 83.916991 
L 259.34961 78.852791 
L 260.163281 66.216344 
L 260.976951 71.434899 
L 261.790622 74.779482 
L 262.604293 96.075428 
L 263.417963 69.34025 
L 264.231634 67.436314 
L 265.045304 80.819257 
L 265.858975 61.860868 
L 266.672645 64.363339 
L 267.486316 99.908282 
L 268.299986 75.306044 
L 269.113657 81.525156 
L 269.927327 70.519698 
L 270.740998 70.238052 
L 271.554668 69.258388 
L 272.368339 96.565483 
L 273.18201 67.514532 
L 273.99568 77.792603 
L 274.809351 64.679187 
L 275.623021 78.852047 
L 276.436692 69.418766 
L 277.250362 66.361553 
L 278.064033 66.935403 
L 278.877703 65.780119 
L 279.691374 78.251951 
L 280.505044 74.031797 
L 281.318715 75.169831 
L 282.132386 72.186822 
L 282.946056 91.387896 
L 283.759727 60.765958 
L 284.573397 68.176118 
L 285.387068 72.064587 
L 287.014409 59.936188 
L 287.828079 62.293747 
L 288.64175 63.196605 
L 289.45542 74.67695 
L 291.082761 64.388693 
L 291.896432 88.843342 
L 292.710103 82.630401 
L 293.523773 65.052435 
L 294.337444 70.889674 
L 295.151114 74.994657 
L 295.964785 84.999261 
L 296.778455 85.912752 
L 297.592126 69.83893 
L 298.405796 64.6748 
L 299.219467 71.086485 
L 300.033137 65.231103 
L 300.846808 69.529104 
L 301.660478 86.531956 
L 302.474149 63.245603 
L 303.28782 65.867781 
L 304.10149 72.251806 
L 304.915161 71.152658 
L 305.728831 65.224263 
L 306.542502 65.10173 
L 307.356172 66.90425 
L 308.169843 67.428284 
L 308.983513 60.295755 
L 309.797184 62.278504 
L 310.610854 78.00815 
L 311.424525 76.357755 
L 312.238195 60.09783 
L 313.051866 58.945148 
L 313.865537 61.481226 
L 314.679207 69.988229 
L 315.492878 58.293823 
L 316.306548 79.651779 
L 317.120219 72.909153 
L 317.933889 57.60153 
L 318.74756 65.856851 
L 319.56123 60.429217 
L 320.374901 57.173113 
L 321.188571 68.098792 
L 322.002242 65.02946 
L 322.815913 74.692862 
L 323.629583 99.871403 
L 324.443254 73.639515 
L 325.256924 80.017592 
L 326.070595 58.890648 
L 326.884265 74.072393 
L 327.697936 65.072213 
L 328.511606 62.776143 
L 329.325277 58.674878 
L 330.138947 62.128239 
L 330.952618 60.271442 
L 331.766288 59.544129 
L 332.579959 80.239161 
L 333.39363 79.205592 
L 334.2073 81.654603 
L 335.020971 83.475934 
L 335.834641 92.852782 
L 336.648312 59.553498 
L 337.461982 57.690753 
L 338.275653 65.403526 
L 339.089323 61.241143 
L 339.902994 61.05333 
L 340.716664 61.953585 
L 341.530335 64.483418 
L 342.344005 87.011677 
L 343.157676 69.504419 
L 343.971347 70.381403 
L 344.785017 56.317766 
L 345.598688 97.272126 
L 346.412358 72.265338 
L 347.226029 63.025669 
L 348.039699 69.070797 
L 348.85337 60.640601 
L 349.66704 73.384041 
L 350.480711 66.01195 
L 351.294381 61.346128 
L 352.108052 62.650711 
L 352.921722 86.968106 
L 353.735393 53.963033 
L 354.549064 68.307647 
L 355.362734 60.400294 
L 356.176405 70.750859 
L 356.990075 62.176642 
L 357.803746 57.108873 
L 358.617416 62.433752 
L 359.431087 60.292261 
L 360.244757 100.698943 
L 361.058428 66.12095 
L 361.872098 60.386019 
L 362.685769 66.32289 
L 363.49944 68.374564 
L 364.31311 76.50237 
L 365.126781 58.529074 
L 365.940451 65.504942 
L 366.754122 64.025408 
L 367.567792 58.531825 
L 368.381463 56.826781 
L 369.195133 58.134635 
L 370.008804 65.845029 
L 370.822474 89.597199 
L 371.636145 59.142925 
L 372.449815 101.184314 
L 373.263486 55.763322 
L 374.077157 61.786888 
L 374.890827 58.802764 
L 376.518168 61.966077 
L 377.331839 53.568 
L 378.145509 91.490205 
L 378.95918 61.983475 
L 379.77285 62.670192 
L 380.586521 73.200465 
L 381.400191 77.172804 
L 382.213862 57.078686 
L 383.027532 75.303814 
L 383.841203 74.972575 
L 384.654874 60.312708 
L 385.468544 57.573277 
L 386.282215 66.603867 
L 387.095885 61.522863 
L 387.909556 91.930741 
L 388.723226 58.789975 
L 389.536897 65.039126 
L 390.350567 61.607922 
L 391.164238 63.70153 
L 391.977908 55.228135 
L 392.791579 83.937066 
L 393.605249 64.48431 
L 394.41892 61.19787 
L 395.232591 59.860498 
L 396.046261 69.192586 
L 396.859932 53.91121 
L 397.673602 73.915659 
L 398.487273 58.161402 
L 398.487273 58.161402 
" clip-path="url(#p136dc883f6)" style="fill: none; stroke: #ff7f0e; stroke-width: 1.5; stroke-linecap: square"/>
   </g>
   <g id="patch_3">
    <path d="M 57.6 307.584 
L 57.6 41.472 
" style="fill: none; stroke: #000000; stroke-width: 0.8; stroke-linejoin: miter; stroke-linecap: square"/>
   </g>
   <g id="patch_4">
    <path d="M 414.72 307.584 
L 414.72 41.472 
" style="fill: none; stroke: #000000; stroke-width: 0.8; stroke-linejoin: miter; stroke-linecap: square"/>
   </g>
   <g id="patch_5">
    <path d="M 57.6 307.584 
L 414.72 307.584 
" style="fill: none; stroke: #000000; stroke-width: 0.8; stroke-linejoin: miter; stroke-linecap: square"/>
   </g>
   <g id="patch_6">
    <path d="M 57.6 41.472 
L 414.72 41.472 
" style="fill: none; stroke: #000000; stroke-width: 0.8; stroke-linejoin: miter; stroke-linecap: square"/>
   </g>
   <g id="text_21">
    <!-- Model balanced accuracy -->
    <g transform="translate(159.826875 35.472) scale(0.12 -0.12)">
     <defs>
      <path id="DejaVuSans-4d" d="M 628 4666 
L 1569 4666 
L 2759 1491 
L 3956 4666 
L 4897 4666 
L 4897 0 
L 4281 0 
L 4281 4097 
L 3078 897 
L 2444 897 
L 1241 4097 
L 1241 0 
L 628 0 
L 628 4666 
z
" transform="scale(0.015625)"/>
      <path id="DejaVuSans-62" d="M 3116 1747 
Q 3116 2381 2855 2742 
Q 2594 3103 2138 3103 
Q 1681 3103 1420 2742 
Q 1159 2381 1159 1747 
Q 1159 1113 1420 752 
Q 1681 391 2138 391 
Q 2594 391 2855 752 
Q 3116 1113 3116 1747 
z
M 1159 2969 
Q 1341 3281 1617 3432 
Q 1894 3584 2278 3584 
Q 2916 3584 3314 3078 
Q 3713 2572 3713 1747 
Q 3713 922 3314 415 
Q 2916 -91 2278 -91 
Q 1894 -91 1617 61 
Q 1341 213 1159 525 
L 1159 0 
L 581 0 
L 581 4863 
L 1159 4863 
L 1159 2969 
z
" transform="scale(0.015625)"/>
     </defs>
     <use xlink:href="#DejaVuSans-4d"/>
     <use xlink:href="#DejaVuSans-6f" x="86.279297"/>
     <use xlink:href="#DejaVuSans-64" x="147.460938"/>
     <use xlink:href="#DejaVuSans-65" x="210.9375"/>
     <use xlink:href="#DejaVuSans-6c" x="272.460938"/>
     <use xlink:href="#DejaVuSans-20" x="300.244141"/>
     <use xlink:href="#DejaVuSans-62" x="332.03125"/>
     <use xlink:href="#DejaVuSans-61" x="395.507812"/>
     <use xlink:href="#DejaVuSans-6c" x="456.787109"/>
     <use xlink:href="#DejaVuSans-61" x="484.570312"/>
     <use xlink:href="#DejaVuSans-6e" x="545.849609"/>
     <use xlink:href="#DejaVuSans-63" x="609.228516"/>
     <use xlink:href="#DejaVuSans-65" x="664.208984"/>
     <use xlink:href="#DejaVuSans-64" x="725.732422"/>
     <use xlink:href="#DejaVuSans-20" x="789.208984"/>
     <use xlink:href="#DejaVuSans-61" x="820.996094"/>
     <use xlink:href="#DejaVuSans-63" x="882.275391"/>
     <use xlink:href="#DejaVuSans-63" x="937.255859"/>
     <use xlink:href="#DejaVuSans-75" x="992.236328"/>
     <use xlink:href="#DejaVuSans-72" x="1055.615234"/>
     <use xlink:href="#DejaVuSans-61" x="1096.728516"/>
     <use xlink:href="#DejaVuSans-63" x="1158.007812"/>
     <use xlink:href="#DejaVuSans-79" x="1212.988281"/>
    </g>
   </g>
   <g id="legend_1">
    <g id="patch_7">
     <path d="M 64.6 78.82825 
L 120.5875 78.82825 
Q 122.5875 78.82825 122.5875 76.82825 
L 122.5875 48.472 
Q 122.5875 46.472 120.5875 46.472 
L 64.6 46.472 
Q 62.6 46.472 62.6 48.472 
L 62.6 76.82825 
Q 62.6 78.82825 64.6 78.82825 
z
" style="fill: #ffffff; opacity: 0.8; stroke: #cccccc; stroke-linejoin: miter"/>
    </g>
    <g id="line2d_21">
     <path d="M 66.6 54.570437 
L 76.6 54.570437 
L 86.6 54.570437 
" style="fill: none; stroke: #1f77b4; stroke-width: 1.5; stroke-linecap: square"/>
    </g>
    <g id="text_22">
     <!-- Train -->
     <g transform="translate(94.6 58.070437) scale(0.1 -0.1)">
      <defs>
       <path id="DejaVuSans-54" d="M -19 4666 
L 3928 4666 
L 3928 4134 
L 2272 4134 
L 2272 0 
L 1638 0 
L 1638 4134 
L -19 4134 
L -19 4666 
z
" transform="scale(0.015625)"/>
       <path id="DejaVuSans-69" d="M 603 3500 
L 1178 3500 
L 1178 0 
L 603 0 
L 603 3500 
z
M 603 4863 
L 1178 4863 
L 1178 4134 
L 603 4134 
L 603 4863 
z
" transform="scale(0.015625)"/>
      </defs>
      <use xlink:href="#DejaVuSans-54"/>
      <use xlink:href="#DejaVuSans-72" x="46.333984"/>
      <use xlink:href="#DejaVuSans-61" x="87.447266"/>
      <use xlink:href="#DejaVuSans-69" x="148.726562"/>
      <use xlink:href="#DejaVuSans-6e" x="176.509766"/>
     </g>
    </g>
    <g id="line2d_22">
     <path d="M 66.6 69.248562 
L 76.6 69.248562 
L 86.6 69.248562 
" style="fill: none; stroke: #ff7f0e; stroke-width: 1.5; stroke-linecap: square"/>
    </g>
    <g id="text_23">
     <!-- Test -->
     <g transform="translate(94.6 72.748562) scale(0.1 -0.1)">
      <defs>
       <path id="DejaVuSans-73" d="M 2834 3397 
L 2834 2853 
Q 2591 2978 2328 3040 
Q 2066 3103 1784 3103 
Q 1356 3103 1142 2972 
Q 928 2841 928 2578 
Q 928 2378 1081 2264 
Q 1234 2150 1697 2047 
L 1894 2003 
Q 2506 1872 2764 1633 
Q 3022 1394 3022 966 
Q 3022 478 2636 193 
Q 2250 -91 1575 -91 
Q 1294 -91 989 -36 
Q 684 19 347 128 
L 347 722 
Q 666 556 975 473 
Q 1284 391 1588 391 
Q 1994 391 2212 530 
Q 2431 669 2431 922 
Q 2431 1156 2273 1281 
Q 2116 1406 1581 1522 
L 1381 1569 
Q 847 1681 609 1914 
Q 372 2147 372 2553 
Q 372 3047 722 3315 
Q 1072 3584 1716 3584 
Q 2034 3584 2315 3537 
Q 2597 3491 2834 3397 
z
" transform="scale(0.015625)"/>
       <path id="DejaVuSans-74" d="M 1172 4494 
L 1172 3500 
L 2356 3500 
L 2356 3053 
L 1172 3053 
L 1172 1153 
Q 1172 725 1289 603 
Q 1406 481 1766 481 
L 2356 481 
L 2356 0 
L 1766 0 
Q 1100 0 847 248 
Q 594 497 594 1153 
L 594 3053 
L 172 3053 
L 172 3500 
L 594 3500 
L 594 4494 
L 1172 4494 
z
" transform="scale(0.015625)"/>
      </defs>
      <use xlink:href="#DejaVuSans-54"/>
      <use xlink:href="#DejaVuSans-65" x="44.083984"/>
      <use xlink:href="#DejaVuSans-73" x="105.607422"/>
      <use xlink:href="#DejaVuSans-74" x="157.707031"/>
     </g>
    </g>
   </g>
  </g>
 </g>
 <defs>
  <clipPath id="p136dc883f6">
   <rect x="57.6" y="41.472" width="357.12" height="266.112"/>
  </clipPath>
 </defs>
</svg>
